<svg xmlns="http://www.w3.org/2000/svg" width="30" height="30" viewBox="0 0 32 32" fill="none">
<rect width="32" height="32" rx="8" fill="#E3F3FC"/>
<path d="M15.9998 7.69287C14.9055 7.69287 13.8219 7.90774 12.8108 8.32521C11.7998 8.74267 10.8811 9.35456 10.1073 10.1259C8.54448 11.6838 7.6665 13.7967 7.6665 15.9999C7.6665 18.203 8.54448 20.316 10.1073 21.8738C10.8811 22.6452 11.7998 23.2571 12.8108 23.6746C13.8219 24.092 14.9055 24.3069 15.9998 24.3069C18.21 24.3069 20.3296 23.4317 21.8924 21.8738C23.4552 20.316 24.3332 18.203 24.3332 15.9999C24.3332 15.0363 24.1582 14.081 23.8248 13.1838L22.4915 14.5129C22.6082 15.003 22.6665 15.5015 22.6665 15.9999C22.6665 17.7624 21.9641 19.4528 20.7139 20.699C19.4636 21.9453 17.7679 22.6455 15.9998 22.6455C14.2317 22.6455 12.536 21.9453 11.2858 20.699C10.0355 19.4528 9.33317 17.7624 9.33317 15.9999C9.33317 14.2374 10.0355 12.547 11.2858 11.3007C12.536 10.0544 14.2317 9.35427 15.9998 9.35427C16.4998 9.35427 16.9998 9.41242 17.4915 9.52872L18.8332 8.19129C17.9248 7.86732 16.9665 7.69287 15.9998 7.69287ZM21.8332 7.69287L18.4998 11.0157V12.2617L16.3748 14.38C16.2498 14.3385 16.1248 14.3385 15.9998 14.3385C15.5578 14.3385 15.1339 14.5135 14.8213 14.8251C14.5088 15.1367 14.3332 15.5593 14.3332 15.9999C14.3332 16.4405 14.5088 16.8631 14.8213 17.1747C15.1339 17.4863 15.5578 17.6613 15.9998 17.6613C16.4419 17.6613 16.8658 17.4863 17.1783 17.1747C17.4909 16.8631 17.6665 16.4405 17.6665 15.9999C17.6665 15.8753 17.6665 15.7507 17.6248 15.6261L19.7498 13.5078H20.9998L24.3332 10.185H21.8332V7.69287ZM15.9998 11.0157C14.6738 11.0157 13.402 11.5408 12.4643 12.4755C11.5266 13.4102 10.9998 14.678 10.9998 15.9999C10.9998 17.3218 11.5266 18.5895 12.4643 19.5243C13.402 20.459 14.6738 20.9841 15.9998 20.9841C17.3259 20.9841 18.5977 20.459 19.5354 19.5243C20.4731 18.5895 20.9998 17.3218 20.9998 15.9999H19.3332C19.3332 16.8812 18.982 17.7263 18.3569 18.3495C17.7317 18.9726 16.8839 19.3227 15.9998 19.3227C15.1158 19.3227 14.2679 18.9726 13.6428 18.3495C13.0177 17.7263 12.6665 16.8812 12.6665 15.9999C12.6665 15.1186 13.0177 14.2735 13.6428 13.6503C14.2679 13.0272 15.1158 12.6771 15.9998 12.6771V11.0157Z" fill="#28519E"/>
</svg>