<svg xmlns="http://www.w3.org/2000/svg" width="20" height="20" viewBox="0 0 14 20" fill="none">
<path fill-rule="evenodd" clip-rule="evenodd" d="M7.625 0.625H2C1.5025 0.625 1.02563 0.8225 0.674375 1.17437C0.3225 1.52562 0.125 2.00312 0.125 2.5C0.125 5.72125 0.125 14.2788 0.125 17.5C0.125 17.9975 0.3225 18.4744 0.674375 18.8263C1.02563 19.1775 1.5025 19.375 2 19.375C4.395 19.375 9.605 19.375 12 19.375C12.4975 19.375 12.9744 19.1775 13.3256 18.8263C13.6775 18.4744 13.875 17.9975 13.875 17.5V6.875H9.5C9.0025 6.875 8.52563 6.6775 8.17437 6.32625C7.8225 5.97437 7.625 5.4975 7.625 5V0.625ZM6.375 11.875H4.5C4.155 11.875 3.875 12.155 3.875 12.5C3.875 12.845 4.155 13.125 4.5 13.125H6.375V15C6.375 15.345 6.655 15.625 7 15.625C7.345 15.625 7.625 15.345 7.625 15V13.125H9.5C9.845 13.125 10.125 12.845 10.125 12.5C10.125 12.155 9.845 11.875 9.5 11.875H7.625V10C7.625 9.655 7.345 9.375 7 9.375C6.655 9.375 6.375 9.655 6.375 10V11.875ZM8.875 0.625V5C8.875 5.16563 8.94062 5.325 9.05812 5.44187C9.175 5.55937 9.33438 5.625 9.5 5.625H13.875C13.875 5.4675 13.8156 5.31562 13.7081 5.2L9.64563 0.825C9.5275 0.6975 9.36125 0.625 9.1875 0.625H8.875Z" fill="#B2B2B3"/>
</svg>