<svg xmlns="http://www.w3.org/2000/svg" width="20" height="20" viewBox="0 0 20 20" fill="none">
<path d="M11.5045 5.45756C11.5045 7.54804 9.8107 9.24178 7.72026 9.24178C5.62982 9.24178 3.93604 7.548 3.93604 5.45756C3.93604 3.36712 5.62982 1.67334 7.72026 1.67334C9.8107 1.67334 11.5045 3.36712 11.5045 5.45756Z" fill="#343435"/>
<path d="M17.4465 11.5806L15.2134 9.65832C15.102 9.55543 14.9423 9.5235 14.7997 9.57388C14.6571 9.62497 14.5542 9.75057 14.5322 9.90029V10.5744C14.5237 10.7341 14.3896 10.8582 14.2292 10.854H12.1104C11.7868 10.8455 11.5172 11.0988 11.5044 11.4216V11.9893C11.5172 12.3129 11.7868 12.5655 12.1104 12.557H14.2299H14.2292C14.3896 12.5527 14.5237 12.6769 14.5322 12.8373V13.7832C14.5542 13.9336 14.6571 14.0592 14.7997 14.1096C14.9424 14.1607 15.102 14.128 15.2134 14.0258L17.4465 12.1036V12.1029C17.5352 12.0461 17.5891 11.9475 17.5891 11.8417C17.5891 11.736 17.5352 11.6381 17.4465 11.5806Z" fill="#343435"/>
<path d="M9.90016 16.8712C9.65891 16.669 9.51911 16.3696 9.51911 16.0538C9.51911 15.7387 9.6589 15.4393 9.90016 15.2364L12.1254 13.3141C11.7671 13.3219 11.4194 13.1871 11.1611 12.938C10.9028 12.6897 10.7538 12.3483 10.7481 11.9893V11.4216C10.7524 10.9817 10.9766 10.5722 11.3456 10.3317C10.9262 10.1167 10.4622 10.0032 9.99101 9.9989H5.44965C4.64639 9.9989 3.87649 10.3182 3.30886 10.8859C2.74122 11.4536 2.42188 12.2235 2.42188 13.0267V16.8109C2.42188 17.0117 2.50206 17.204 2.64398 17.3459C2.78591 17.4878 2.97819 17.568 3.17901 17.568H10.7099L9.90016 16.8712Z" fill="#343435"/>
<path d="M10.3996 15.8119L12.6327 13.8896C12.7441 13.7867 12.903 13.7541 13.0463 13.8052C13.189 13.8555 13.2919 13.9818 13.3139 14.1316V14.805C13.3217 14.9653 13.4565 15.0895 13.6161 15.0852H15.7357C16.0592 15.0767 16.3289 15.3301 16.341 15.6529V16.2206C16.3289 16.5434 16.0592 16.7968 15.7357 16.7883H13.6161C13.4565 16.784 13.3217 16.9082 13.3139 17.0686V17.9768C13.2919 18.1265 13.189 18.2521 13.0463 18.3032C12.903 18.3536 12.744 18.3217 12.6327 18.2188L10.3996 16.2965C10.3258 16.2376 10.2832 16.1482 10.2832 16.0539C10.2832 15.9602 10.3258 15.8707 10.3996 15.8119Z" fill="#343435"/>
</svg>