<svg xmlns="http://www.w3.org/2000/svg" width="40" height="40" viewBox="0 0 40 40" fill="none">
<circle cx="20" cy="20" r="19.5" fill="#2DC26B" stroke="#2DC26B"/>
<path d="M29.7969 15.546L17.7969 27.546C17.6924 27.6509 17.5682 27.7341 17.4314 27.7909C17.2947 27.8476 17.1481 27.8769 17 27.8769C16.8519 27.8769 16.7053 27.8476 16.5686 27.7909C16.4318 27.7341 16.3076 27.6509 16.2031 27.546L10.9531 22.296C10.8485 22.1913 10.7655 22.0671 10.7088 21.9304C10.6522 21.7936 10.623 21.6471 10.623 21.4991C10.623 21.3511 10.6522 21.2046 10.7088 21.0678C10.7655 20.9311 10.8485 20.8069 10.9531 20.7022C11.0578 20.5976 11.182 20.5146 11.3187 20.4579C11.4555 20.4013 11.602 20.3721 11.75 20.3721C11.898 20.3721 12.0445 20.4013 12.1813 20.4579C12.318 20.5146 12.4422 20.5976 12.5469 20.7022L17.0009 25.1563L28.205 13.9541C28.4163 13.7428 28.703 13.624 29.0019 13.624C29.3008 13.624 29.5874 13.7428 29.7987 13.9541C30.0101 14.1654 30.1288 14.4521 30.1288 14.751C30.1288 15.0499 30.0101 15.3365 29.7987 15.5479L29.7969 15.546Z" fill="white"/>
</svg>