<svg xmlns="http://www.w3.org/2000/svg" width="19" height="19" viewBox="0 0 19 19" fill="none">
<path d="M18.0781 2.46456C18.0781 2.46456 18.0781 2.47237 18.0781 2.47628L13.5312 17.4716C13.4624 17.7151 13.3207 17.9318 13.1252 18.0926C12.9297 18.2533 12.6897 18.3504 12.4374 18.3708C12.4015 18.3739 12.3656 18.3755 12.3296 18.3755C12.0932 18.3762 11.8615 18.3093 11.6619 18.1827C11.4623 18.056 11.3031 17.8749 11.2031 17.6607L8.35931 11.8247C8.33086 11.7662 8.32136 11.7003 8.33214 11.6362C8.34293 11.572 8.37345 11.5129 8.41947 11.4669L12.9445 6.94191C13.0567 6.82374 13.1184 6.6664 13.1163 6.50342C13.1142 6.34045 13.0485 6.18473 12.9333 6.06948C12.818 5.95423 12.6623 5.88856 12.4994 5.88647C12.3364 5.88439 12.179 5.94605 12.0609 6.05831L7.53353 10.5833C7.48757 10.6293 7.42839 10.6599 7.36425 10.6706C7.30011 10.6814 7.2342 10.6719 7.17572 10.6435L1.33431 7.8005C1.10589 7.69091 0.916158 7.5145 0.790262 7.29465C0.664365 7.07479 0.608246 6.82187 0.629342 6.5694C0.650437 6.31693 0.747752 6.07683 0.908388 5.88092C1.06903 5.68501 1.2854 5.54253 1.52884 5.47237L16.5242 0.925498H16.5359C16.7494 0.865515 16.975 0.863412 17.1896 0.919405C17.4042 0.975399 17.6 1.08747 17.757 1.24413C17.9139 1.40078 18.0264 1.59638 18.0828 1.81085C18.1393 2.02532 18.1376 2.25094 18.0781 2.46456Z" fill="white"/>
</svg>