<svg width="30" height="24" viewBox="0 0 30 24" fill="none" xmlns="http://www.w3.org/2000/svg">
<path d="M0 2C0 0.89543 0.895431 0 2 0H28C29.1046 0 30 0.895431 30 2V22C30 23.1046 29.1046 24 28 24H2C0.89543 24 0 23.1046 0 22V2Z" fill="#FED0A2"/>
<path d="M15 3.5625C13.3312 3.5625 11.6999 4.05735 10.3124 4.98448C8.92484 5.9116 7.84338 7.22936 7.20477 8.77111C6.56616 10.3129 6.39907 12.0094 6.72463 13.6461C7.05019 15.2828 7.85379 16.7862 9.03379 17.9662C10.2138 19.1462 11.7172 19.9498 13.3539 20.2754C14.9906 20.6009 16.6871 20.4338 18.2289 19.7952C19.7706 19.1566 21.0884 18.0752 22.0155 16.6876C22.9427 15.3001 23.4375 13.6688 23.4375 12C23.435 9.763 22.5453 7.61833 20.9635 6.03653C19.3817 4.45473 17.237 3.56498 15 3.5625ZM21.5625 12C21.5639 13.4166 21.1046 14.7953 20.2539 15.9281L11.0719 6.74609C12.0472 6.01735 13.2059 5.57427 14.4186 5.46641C15.6313 5.35856 16.8501 5.59017 17.9387 6.13536C19.0273 6.68054 19.9427 7.5178 20.5827 8.55351C21.2227 9.58921 21.5619 10.7825 21.5625 12ZM8.4375 12C8.43615 10.5834 8.89543 9.20468 9.7461 8.07188L18.9281 17.2539C17.9528 17.9827 16.7941 18.4257 15.5814 18.5336C14.3687 18.6414 13.1499 18.4098 12.0613 17.8646C10.9727 17.3195 10.0573 16.4822 9.41729 15.4465C8.77732 14.4108 8.43808 13.2175 8.4375 12Z" fill="#8B4603"/>
</svg>
