<svg width="16" height="16" viewBox="0 0 16 16" fill="none" xmlns="http://www.w3.org/2000/svg">
<g clip-path="url(#clip0_3256_1629)">
<path d="M8.5 2.52323V2.25C8.5 1.97386 8.27615 1.75 8 1.75C7.72385 1.75 7.5 1.97386 7.5 2.25V2.52323C4.80045 2.77523 2.6875 5.0471 2.6875 7.8125V11.6384L2.39265 12.5H2.25C1.97386 12.5 1.75 12.7239 1.75 13C1.75 13.2761 1.97386 13.5 2.25 13.5H13.75C14.0262 13.5 14.25 13.2761 14.25 13C14.25 12.7239 14.0262 12.5 13.75 12.5H13.6074L13.3125 11.6384V7.8125C13.3125 5.0471 11.1996 2.77523 8.5 2.52323Z" fill="white"/>
<path d="M7.25 14C6.97385 14 6.75 14.2239 6.75 14.5C6.75 14.7761 6.97385 15 7.25 15H8.75C9.02615 15 9.25 14.7761 9.25 14.5C9.25 14.2239 9.02615 14 8.75 14H7.25Z" fill="white"/>
</g>
<defs>
<clipPath id="clip0_3256_1629">
<rect width="16" height="16" fill="white"/>
</clipPath>
</defs>
</svg>
