<svg width="27" height="21" viewBox="0 0 27 21" fill="none" xmlns="http://www.w3.org/2000/svg">
<circle cx="10" cy="10.1851" r="10" fill="#FFB81C"/>
<g clip-path="url(#clip0_64_1303)">
<path d="M25.4375 9.25001C25.4375 8.96274 25.3809 8.67829 25.271 8.41289C25.1611 8.14749 24.9999 7.90634 24.7968 7.70322C24.5937 7.50009 24.3525 7.33896 24.0871 7.22902C23.8217 7.11909 23.5373 7.06251 23.25 7.06251H17.9375V6.90157C18.4854 6.70702 18.9597 6.34776 19.2954 5.87305C19.6311 5.39834 19.8117 4.83142 19.8125 4.25001C19.8125 1.82345 17.5172 0.647668 17.4195 0.599231C17.2893 0.534055 17.1456 0.500122 17 0.500122C16.8544 0.500122 16.7107 0.534055 16.5805 0.599231C16.4828 0.647668 14.1875 1.82345 14.1875 4.25001C14.1883 4.83142 14.3689 5.39834 14.7046 5.87305C15.0403 6.34776 15.5146 6.70702 16.0625 6.90157V7.06251H10.75C10.1698 7.06251 9.61344 7.29298 9.2032 7.70322C8.79297 8.11345 8.5625 8.66985 8.5625 9.25001V11.0727C8.56296 11.7847 8.78103 12.4795 9.1875 13.0641V16.125C9.1875 16.7052 9.41797 17.2616 9.8282 17.6718C10.2384 18.082 10.7948 18.3125 11.375 18.3125H22.625C23.2052 18.3125 23.7616 18.082 24.1718 17.6718C24.582 17.2616 24.8125 16.7052 24.8125 16.125V13.0641C25.219 12.4795 25.437 11.7847 25.4375 11.0727V9.25001ZM16.6875 2.83829C16.7857 2.73884 16.8901 2.64568 17 2.55939C17.1101 2.64548 17.2145 2.73865 17.3125 2.83829C17.7289 3.26954 17.9375 3.74454 17.9375 4.25001C17.9375 4.49865 17.8387 4.73711 17.6629 4.91292C17.4871 5.08874 17.2486 5.18751 17 5.18751C16.7514 5.18751 16.5129 5.08874 16.3371 4.91292C16.1613 4.73711 16.0625 4.49865 16.0625 4.25001C16.0625 3.74454 16.2742 3.26954 16.6875 2.83829ZM10.4375 9.25001C10.4375 9.16713 10.4704 9.08765 10.529 9.02904C10.5876 8.97044 10.6671 8.93751 10.75 8.93751H23.25C23.3329 8.93751 23.4124 8.97044 23.471 9.02904C23.5296 9.08765 23.5625 9.16713 23.5625 9.25001V11.0727C23.5625 11.9399 22.8813 12.6641 22.0445 12.6867C21.8357 12.6927 21.6278 12.6567 21.4331 12.5809C21.2384 12.5051 21.0609 12.391 20.9111 12.2454C20.7612 12.0998 20.6421 11.9256 20.5608 11.7332C20.4794 11.5407 20.4375 11.3339 20.4375 11.125C20.4375 10.8764 20.3387 10.6379 20.1629 10.4621C19.9871 10.2863 19.7486 10.1875 19.5 10.1875C19.2514 10.1875 19.0129 10.2863 18.8371 10.4621C18.6613 10.6379 18.5625 10.8764 18.5625 11.125C18.5625 11.5394 18.3979 11.9368 18.1049 12.2299C17.8118 12.5229 17.4144 12.6875 17 12.6875C16.5856 12.6875 16.1882 12.5229 15.8951 12.2299C15.6021 11.9368 15.4375 11.5394 15.4375 11.125C15.4375 10.8764 15.3387 10.6379 15.1629 10.4621C14.9871 10.2863 14.7486 10.1875 14.5 10.1875C14.2514 10.1875 14.0129 10.2863 13.8371 10.4621C13.6613 10.6379 13.5625 10.8764 13.5625 11.125C13.5626 11.334 13.5207 11.5409 13.4394 11.7334C13.3582 11.926 13.2391 12.1002 13.0892 12.2459C12.9394 12.3916 12.7618 12.5058 12.5671 12.5816C12.3724 12.6575 12.1644 12.6935 11.9555 12.6875C11.1188 12.6641 10.4375 11.9399 10.4375 11.0727V9.25001ZM22.625 16.4375H11.375C11.2921 16.4375 11.2126 16.4046 11.154 16.346C11.0954 16.2874 11.0625 16.2079 11.0625 16.125V14.4289C11.3361 14.5093 11.6189 14.5542 11.9039 14.5625C12.3635 14.5768 12.8212 14.4981 13.2496 14.3311C13.678 14.1641 14.0682 13.9122 14.3969 13.5906C14.4328 13.5563 14.4672 13.5203 14.5008 13.4852C14.8221 13.8257 15.2096 14.0969 15.6395 14.2823C16.0694 14.4677 16.5326 14.5633 17.0008 14.5633C17.4689 14.5633 17.9322 14.4677 18.3621 14.2823C18.792 14.0969 19.1795 13.8257 19.5008 13.4852C19.5344 13.5203 19.5687 13.5563 19.6047 13.5906C20.2447 14.2163 21.105 14.5654 22 14.5625H22.0977C22.3822 14.554 22.6644 14.5091 22.9375 14.4289V16.125C22.9375 16.2079 22.9046 16.2874 22.846 16.346C22.7874 16.4046 22.7079 16.4375 22.625 16.4375Z" fill="#002C3F"/>
</g>
<defs>
<clipPath id="clip0_64_1303">
<rect width="20" height="20" fill="white" transform="translate(7 0.5)"/>
</clipPath>
</defs>
</svg>
