<svg width="154" height="85" viewBox="0 0 154 85" fill="none" xmlns="http://www.w3.org/2000/svg">
<g clip-path="url(#clip0_1601_3617)">
<path d="M123.213 41.3411C122.858 40.8949 122.74 40.5478 122.779 39.8041C122.187 40.1016 121.832 40.4486 121.239 41.1428C121.2 41.7378 121.318 42.0353 121.713 42.4815C122.226 41.8865 122.621 41.4899 123.213 41.3411Z" fill="url(#paint0_linear_1601_3617)"/>
<path d="M137.939 45.159C137.742 44.9111 137.544 44.8615 137.228 44.9111C137.11 45.2581 137.031 45.5061 137.071 45.754C137.347 45.9523 137.465 46.1506 137.702 46.5473C137.702 46.0019 137.742 45.6548 137.939 45.159Z" fill="url(#paint1_linear_1601_3617)"/>
<path d="M148.125 82.8907C148.204 83.1882 148.362 83.3369 148.677 83.4857C148.914 82.8907 149.112 82.5932 149.467 82.1966C149.27 82.0974 149.151 81.8991 148.954 81.552C148.598 81.9487 148.362 82.3453 148.125 82.8907Z" fill="url(#paint2_linear_1601_3617)"/>
<path d="M2.76358 67.4212C3.82951 67.2229 4.4217 67.2229 5.25075 67.6195C5.32971 67.1237 5.40867 66.7766 5.64554 66.5783C4.73753 66.0329 4.06639 65.9337 2.88203 66.0329C2.76359 66.4791 2.7241 66.9254 2.76358 67.4212Z" fill="url(#paint3_linear_1601_3617)"/>
<path d="M42.3607 76.7921C41.9265 74.8088 41.4922 73.6685 40.7421 72.2306C39.8736 73.0735 39.4393 73.7676 39.163 74.5609C39.7946 75.3047 39.992 76.0484 40.1894 77.3375C40.979 76.693 41.4922 76.5938 42.3607 76.7921Z" fill="url(#paint4_linear_1601_3617)"/>
<path d="M84.366 79.7672C84.5239 80.2134 84.7608 80.4117 85.1555 80.7092C85.6688 79.5688 86.4583 78.5276 87.4453 77.4864C87.1295 77.1889 87.0111 76.941 86.8137 76.4452C85.7083 77.536 85.1555 78.2301 84.366 79.7672Z" fill="url(#paint5_linear_1601_3617)"/>
<path d="M143.782 32.0695C144.216 31.2762 144.651 30.9291 145.519 30.8795C145.045 29.7887 144.532 29.2433 143.506 28.3013C142.795 28.3509 142.479 28.6483 142.006 29.4912C142.874 30.3341 143.466 30.9787 143.782 32.0695Z" fill="url(#paint6_linear_1601_3617)"/>
<path d="M65.1001 32.119C65.179 32.4165 65.179 32.8131 64.9421 33.5569C65.2185 33.656 65.4554 33.656 65.8107 33.4577C65.9291 32.8627 65.9686 32.5156 65.8896 31.9207C65.6133 32.0694 65.4554 32.119 65.1001 32.119Z" fill="url(#paint7_linear_1601_3617)"/>
<path d="M124.635 68.8591C124.437 69.0079 124.319 69.2062 124.279 69.5533C124.477 69.7516 124.635 69.9004 124.832 69.9499C125.029 69.702 125.227 69.6029 125.543 69.4541C125.187 69.3054 124.95 69.1566 124.635 68.8591Z" fill="url(#paint8_linear_1601_3617)"/>
<path d="M9.39548 76.2468C8.84277 76.4452 8.56642 76.6931 8.17163 77.2385C8.72433 77.7839 8.9612 78.1805 9.11912 78.7259C9.63234 78.5772 9.94818 78.3788 10.4219 78.0318C9.94818 77.4864 9.71131 77.0401 9.39548 76.2468Z" fill="url(#paint9_linear_1601_3617)"/>
<path d="M142.914 21.4092C142.479 20.9134 142.282 20.5663 142.006 19.9218C141.769 20.1201 141.571 20.2688 141.453 20.5663C141.611 21.0126 141.887 21.5084 142.282 22.1529C142.44 21.6571 142.598 21.4588 142.914 21.4092Z" fill="url(#paint10_linear_1601_3617)"/>
<path d="M33.6754 77.288C33.8728 77.5359 34.0702 77.8334 34.3861 77.9325C34.5834 77.8334 34.7414 77.7838 35.0177 77.7342C34.8203 77.5359 34.8203 77.3871 34.8598 76.9905C34.5045 77.1888 34.1492 77.2384 33.6754 77.288Z" fill="url(#paint11_linear_1601_3617)"/>
<path d="M66.1666 35.8872C66.3245 35.3418 66.6008 34.8956 67.2325 34.5485C66.1665 33.0115 65.377 32.1686 64.1137 31.0282C63.3241 31.6232 62.9688 32.2182 62.7714 32.6644C64.311 33.4577 65.1006 34.3502 66.1666 35.8872Z" fill="url(#paint12_linear_1601_3617)"/>
<path d="M60.9557 52.8938C61.311 52.7946 61.6663 52.8938 62.4164 53.4392C62.5348 53.0425 62.5743 52.5963 62.4953 52.0013C61.9031 51.7038 61.5084 51.5551 60.8767 51.5551C61.0346 52.0013 61.0346 52.2988 60.9557 52.8938Z" fill="url(#paint13_linear_1601_3617)"/>
<path d="M46.5853 73.371C46.9011 73.2223 47.0985 73.2718 47.3748 73.4206C47.2959 72.776 47.1774 72.1315 47.059 71.8835C46.8221 71.8835 46.6247 71.9827 46.3484 72.181C46.5063 72.4785 46.5458 72.776 46.5853 73.371Z" fill="url(#paint14_linear_1601_3617)"/>
<path d="M53.691 59.3889C54.6385 59.3394 55.6255 59.7856 57.3626 61.6697C57.8758 60.5789 58.0732 59.4881 58.0337 57.9511C56.573 56.7611 55.6255 56.2157 53.9674 55.9182C54.2043 57.1578 54.0858 57.9511 53.691 59.3889Z" fill="url(#paint15_linear_1601_3617)"/>
<path d="M22.0687 30.8794C21.8713 31.276 21.6739 31.4248 21.358 31.6231C21.8318 32.1189 22.345 32.5156 22.5819 32.6148C22.7793 32.3669 22.8977 32.0694 23.0161 31.6727C22.7003 31.5735 22.4634 31.3256 22.0687 30.8794Z" fill="url(#paint16_linear_1601_3617)"/>
<path d="M36.1227 66.3799C35.4515 65.785 35.0962 65.3883 34.6225 64.5454C34.2672 64.8429 34.0303 65.19 33.9119 65.6362C34.1882 66.2312 34.662 66.8262 35.3726 67.6195C35.5305 66.8758 35.6884 66.5287 36.1227 66.3799Z" fill="url(#paint17_linear_1601_3617)"/>
<path d="M0.355225 43.3244C1.06584 43.3244 1.5001 43.5228 2.01333 44.3161C2.36864 43.2748 2.40811 42.4815 2.40811 41.0437C2.01333 40.3991 1.65802 40.2999 0.907925 40.2999C0.907925 41.5395 0.82897 42.4319 0.355225 43.3244Z" fill="url(#paint18_linear_1601_3617)"/>
<path d="M38.8475 74.561C38.7291 75.0569 38.5317 75.4535 38.0184 75.8006C38.9659 77.0401 39.6765 77.6847 40.7819 78.5772C41.4531 78.0318 41.7294 77.536 41.8479 77.1393C40.5451 76.5443 39.8345 75.8006 38.8475 74.561Z" fill="url(#paint19_linear_1601_3617)"/>
<path d="M71.9695 57.0586C72.1669 57.8519 72.6011 58.3477 73.4302 58.8931C74.2593 57.3561 74.8909 56.5132 76.0753 55.5215C75.4831 55.1249 75.2068 54.5795 74.7725 53.3895C73.5881 54.4307 72.838 55.472 71.9695 57.0586Z" fill="url(#paint20_linear_1601_3617)"/>
<path d="M139.005 60.9755C139.281 61.3226 139.439 61.7193 139.478 62.3638C140.702 61.868 141.413 61.3722 142.479 60.5789C142.36 59.6368 142.123 59.1906 141.926 58.8435C141.018 60.0335 140.228 60.4301 139.005 60.9755Z" fill="url(#paint21_linear_1601_3617)"/>
<path d="M104.698 48.233C103.671 47.4893 103.119 46.9439 102.29 45.7539C101.855 46.2497 101.5 46.7455 101.381 47.4397C101.855 48.2826 102.605 49.1255 103.711 50.1667C103.829 49.0759 104.066 48.5801 104.698 48.233Z" fill="url(#paint22_linear_1601_3617)"/>
<path d="M39.4001 24.7311C39.7555 25.4749 39.795 26.0203 39.716 26.8136C40.7819 26.3178 41.7689 25.6732 42.1637 25.1774C41.9663 24.5328 41.6899 24.0866 41.2557 23.442C40.8609 23.9874 40.3082 24.2849 39.4001 24.7311Z" fill="url(#paint23_linear_1601_3617)"/>
<path d="M50.454 57.5544C51.283 57.6536 52.1121 58.2486 53.4544 60.2814C54.0466 59.4385 54.4019 58.4469 54.5203 57.0586C53.3754 55.7199 52.5858 55.0257 51.1251 54.4803C51.1646 55.6207 50.9672 56.3149 50.454 57.5544Z" fill="url(#paint24_linear_1601_3617)"/>
<path d="M79.9844 61.6698C80.2607 61.521 80.4581 61.4219 80.774 61.4219C80.774 61.2235 80.7345 61.0252 80.6555 60.8765C80.4186 60.8765 80.1423 60.926 79.787 61.0748C79.9449 61.3227 80.0239 61.4219 79.9844 61.6698Z" fill="url(#paint25_linear_1601_3617)"/>
<path d="M48.2825 30.2844C48.1641 29.2432 47.9667 28.6482 47.335 27.8053C46.6244 28.6978 46.0717 29.0944 45.3611 29.2928C45.44 30.2348 45.598 30.8794 45.9533 31.8214C46.7034 31.0777 47.2955 30.7306 48.2825 30.2844Z" fill="url(#paint26_linear_1601_3617)"/>
<path d="M121.042 57.0091C121.278 56.5132 121.594 56.1166 122.265 55.8687C121.357 54.1333 120.647 53.1417 119.502 51.8525C118.594 52.2988 118.239 52.8442 118.002 53.2408C119.423 54.282 120.134 55.3233 121.042 57.0091Z" fill="url(#paint27_linear_1601_3617)"/>
<path d="M91.196 65.0413C91.8277 64.9917 92.183 65.0413 92.8147 65.2892C92.9331 64.9421 92.9726 64.5951 92.8542 64.1984C92.4594 64.0001 91.9461 63.9009 91.196 63.8018C91.3934 64.3472 91.3934 64.6446 91.196 65.0413Z" fill="url(#paint28_linear_1601_3617)"/>
<path d="M150.888 44.6632C150.848 45.159 150.651 45.6548 149.94 46.4482C150.256 46.7952 150.611 46.944 151.164 46.9936C151.638 46.2994 151.875 45.8532 152.033 44.9607C151.598 45.0103 151.361 44.9111 150.888 44.6632Z" fill="url(#paint29_linear_1601_3617)"/>
<path d="M86.3791 82.395C86.1817 81.8 85.8659 81.5521 85.2737 81.1058C84.6026 82.6925 83.4972 84.1303 82.0759 85.6178C82.5102 86.0144 82.7076 86.3615 82.9445 87.0557C84.5236 85.5682 85.2737 84.5766 86.3791 82.395Z" fill="url(#paint30_linear_1601_3617)"/>
<path d="M87.1296 64.7439C87.2086 65.2397 87.3665 65.5372 87.7613 65.7851C88.1561 65.5868 88.4324 65.3884 88.5904 65.0414C88.393 64.5455 88.3535 64.0993 88.393 63.4052C87.9982 64.0001 87.7218 64.3472 87.1296 64.7439Z" fill="url(#paint31_linear_1601_3617)"/>
<path d="M149.388 44.3656C149.23 44.0186 149.032 43.6715 148.717 43.4236C148.44 43.5227 148.282 43.5723 147.967 43.5723C148.164 43.7707 148.164 43.969 148.046 44.4152C148.44 44.2665 148.835 44.3161 149.388 44.3656Z" fill="url(#paint32_linear_1601_3617)"/>
<path d="M51.4016 64.9421C51.5596 65.5867 51.4806 66.3304 50.8884 67.8179C51.4411 68.0162 51.9543 68.0162 52.6255 67.7683C52.9808 66.5783 53.0992 65.8842 52.9808 64.6447C52.4676 64.9917 52.1123 64.9917 51.4016 64.9421Z" fill="url(#paint33_linear_1601_3617)"/>
<path d="M99.1708 77.883C99.605 77.9326 100.039 77.9821 100.474 77.6846C100.592 77.288 100.71 77.0401 100.947 76.693C100.631 76.693 100.434 76.5443 100.197 76.098C99.9998 76.7426 99.6445 77.2384 99.1708 77.883Z" fill="url(#paint34_linear_1601_3617)"/>
<path d="M136.004 47.1422C136.477 47.9851 136.714 49.1255 136.398 51.7038C137.306 51.7038 138.096 51.3567 139.004 50.5634C139.004 48.5801 138.886 47.3901 138.254 45.7043C137.583 46.4977 137.07 46.7951 136.004 47.1422Z" fill="url(#paint35_linear_1601_3617)"/>
<path d="M94.5118 0.584931C94.5513 -0.0100512 94.5513 -0.456287 94.3934 -0.952106C94.0776 -1.00169 93.8802 -0.952108 93.6433 -0.852944C93.8012 -0.257961 93.8407 0.089113 93.7617 0.684096C94.0381 0.485768 94.2355 0.436186 94.5118 0.584931Z" fill="url(#paint36_linear_1601_3617)"/>
<path d="M128.267 85.6178C128.622 85.0724 128.78 84.6758 128.859 83.8825C128.148 83.8329 127.753 83.6345 127.319 83.2875C126.964 83.7833 126.766 84.1799 126.569 84.8245C127.201 84.9733 127.635 85.1716 128.267 85.6178Z" fill="url(#paint37_linear_1601_3617)"/>
<path d="M64.3507 67.4708C64.5087 68.512 64.3902 69.1566 64.0349 70.049C65.4167 70.049 66.759 69.8011 67.3511 69.4541C67.3511 68.6607 67.2327 67.9666 66.9169 67.0245C66.2852 67.4212 65.5746 67.4708 64.3507 67.4708Z" fill="url(#paint38_linear_1601_3617)"/>
<path d="M13.5021 37.5234C13.2257 38.0688 12.9494 38.3167 12.3572 38.4159C12.752 39.1596 13.1073 39.5067 13.8574 40.0521C14.3311 39.953 14.5285 39.7546 14.8049 39.1596C14.2127 38.6638 13.7784 38.2176 13.5021 37.5234Z" fill="url(#paint39_linear_1601_3617)"/>
<path d="M80.8132 44.0185C81.4844 43.7706 81.8791 43.6715 82.5898 43.721C82.6292 43.2748 82.5898 42.8781 82.3924 42.5311C81.9186 42.4815 81.3264 42.5311 80.5369 42.7294C80.8527 43.2252 80.9711 43.5723 80.8132 44.0185Z" fill="url(#paint40_linear_1601_3617)"/>
<path d="M72.6014 80.8084C72.8383 80.5109 72.9172 80.1638 72.9962 79.6184C72.0092 79.4697 71.0223 78.9738 69.9563 78.2301C69.8774 78.6763 69.7589 78.9242 69.4431 79.2713C70.588 80.1142 71.2591 80.4613 72.6014 80.8084Z" fill="url(#paint41_linear_1601_3617)"/>
<path d="M46.8616 42.5808C46.7826 42.085 46.8616 41.6883 47.1774 41.1925C46.0325 40.6471 45.243 40.4488 44.0981 40.3C43.7428 41.0438 43.6638 41.5892 43.6638 41.9858C44.9271 41.7875 45.6772 42.0354 46.8616 42.5808Z" fill="url(#paint42_linear_1601_3617)"/>
<path d="M117.133 35.7384C116.541 37.1267 116.067 37.8704 115.12 38.9116C115.554 39.5066 115.988 39.9529 116.541 40.1016C117.252 39.457 117.923 38.4654 118.791 36.978C117.883 36.8292 117.41 36.5317 117.133 35.7384Z" fill="url(#paint43_linear_1601_3617)"/>
<path d="M46.1902 55.1249C45.756 55.1745 45.5586 55.3232 45.2822 55.7694C45.5586 56.5132 45.677 57.009 45.7954 57.8519C46.0323 57.7031 46.1902 57.6536 46.3482 57.6536C46.1508 56.6619 46.1508 56.0669 46.1902 55.1249Z" fill="url(#paint44_linear_1601_3617)"/>
<path d="M154.481 77.5856C153.77 77.9326 153.217 78.4285 152.507 79.1722C153.178 79.9655 153.533 81.0563 154.086 82.8412C154.204 82.7421 154.323 82.6925 154.481 82.5933V77.5856Z" fill="url(#paint45_linear_1601_3617)"/>
<path d="M148.756 78.5276C149.388 78.4285 149.782 78.2301 150.296 77.9326C150.059 77.4864 149.861 77.2385 149.625 77.0402C149.388 77.3377 149.111 77.3872 148.717 77.4368C148.874 77.8335 148.874 78.131 148.756 78.5276Z" fill="url(#paint46_linear_1601_3617)"/>
<path d="M3.98729 73.1231C3.7899 72.2802 3.55303 71.3382 2.92137 70.644C2.32919 70.6936 1.89492 70.644 1.30274 70.4457C1.57909 71.0407 1.46066 71.4869 1.10535 72.2802C2.01336 72.2802 2.84241 72.6273 3.98729 73.1231Z" fill="url(#paint47_linear_1601_3617)"/>
<path d="M138.926 62.4135C138.965 62.1655 139.044 61.9176 139.321 61.7193C138.728 61.0747 138.294 60.8268 137.662 60.4302C137.347 60.7772 137.228 61.0747 137.149 61.2731C137.899 61.521 138.334 61.8185 138.926 62.4135Z" fill="url(#paint48_linear_1601_3617)"/>
<path d="M7.93498 42.0354C8.17185 41.9858 8.32977 41.8371 8.52716 41.5396C8.17185 41.1429 8.01394 40.8454 7.81655 40.3C7.69811 40.4984 7.5402 40.5975 7.22437 40.6471C7.38228 41.1925 7.61915 41.5892 7.93498 42.0354Z" fill="url(#paint49_linear_1601_3617)"/>
<path d="M26.3719 63.3059C25.9771 62.9588 25.5034 62.9092 24.8322 63.1076C24.9506 64.4959 24.9112 65.3388 24.5953 66.5783C25.1086 66.4791 25.4639 66.6279 26.135 67.0245C26.4508 65.7354 26.4903 64.6942 26.3719 63.3059Z" fill="url(#paint50_linear_1601_3617)"/>
<path d="M107.343 62.9093C108.132 62.2151 108.527 61.6697 109.001 60.3806C107.817 59.8848 107.224 59.2898 106.711 58.4469C105.882 59.0419 105.448 59.5873 104.816 60.5293C105.803 61.1739 106.435 61.8185 107.343 62.9093Z" fill="url(#paint51_linear_1601_3617)"/>
<path d="M74.2996 67.5204C74.497 68.2146 74.8917 68.4625 75.5234 68.9583C76.2735 67.1733 77.4579 65.5867 78.9975 63.9009C78.4843 63.5043 78.2474 63.1076 78.0106 62.3639C76.313 64.0497 75.4444 65.1405 74.2996 67.5204Z" fill="url(#paint52_linear_1601_3617)"/>
<path d="M16.4627 43.2252C16.818 43.0269 17.0154 42.6303 17.1338 41.8865C16.3048 41.4899 15.831 41.1428 15.1993 40.3495C15.0414 40.8453 14.844 41.1428 14.3308 41.6386C14.9625 42.3823 15.5941 42.8286 16.4627 43.2252Z" fill="url(#paint53_linear_1601_3617)"/>
<path d="M10.5799 58.2982C10.3035 57.9511 10.1456 57.8024 9.71133 57.7528C9.3955 58.447 9.15863 58.794 8.72437 59.389C8.96124 59.4882 9.07968 59.6369 9.15863 59.7857C9.63238 59.0915 9.98769 58.7444 10.5799 58.2982Z" fill="url(#paint54_linear_1601_3617)"/>
<path d="M25.8582 24.0371C26.2529 24.3346 26.4898 24.4337 26.9636 24.3346C27.2004 23.4421 27.3978 22.8967 27.7531 22.1034C27.4768 22.0538 27.3189 21.9547 27.161 21.8059C26.7662 22.748 26.4109 23.2438 25.8582 24.0371Z" fill="url(#paint55_linear_1601_3617)"/>
<path d="M5.13183 19.8722C4.85547 19.9218 4.69757 19.9714 4.46069 20.2193C4.69757 20.5168 4.77652 20.7647 4.816 21.0622C5.05287 21.0622 5.21079 21.0126 5.48714 20.8638C5.28975 20.5663 5.21078 20.3184 5.13183 19.8722Z" fill="url(#paint56_linear_1601_3617)"/>
<path d="M118.16 80.0646C118.555 78.9737 118.673 78.23 118.752 77.2384C118.121 77.1888 117.726 77.3375 117.37 77.5855C117.41 78.1804 117.291 78.6267 117.015 79.3208C117.568 79.3704 117.844 79.6183 118.16 80.0646Z" fill="url(#paint57_linear_1601_3617)"/>
<path d="M9.90869 65.4876C9.86921 65.6859 9.94818 65.8347 10.0271 66.033C10.4219 65.8347 10.8957 65.6859 11.4484 65.6363C11.4089 65.438 11.4089 65.3389 11.4484 65.0909C10.8562 65.0909 10.5009 65.1901 9.90869 65.4876Z" fill="url(#paint58_linear_1601_3617)"/>
<path d="M152.112 61.8185C151.756 61.4715 151.559 61.3723 151.125 61.4219C150.809 62.2152 150.612 62.711 150.217 63.4052C150.454 63.5043 150.612 63.6035 150.73 63.7522C151.164 62.9093 151.52 62.4631 152.112 61.8185Z" fill="url(#paint59_linear_1601_3617)"/>
<path d="M141.61 54.4308C140.702 54.8274 140.229 54.9266 139.439 54.7779C139.439 55.2241 139.4 55.5216 139.242 55.7695C140.071 56.067 140.702 55.9678 141.689 55.6703C141.768 55.2241 141.729 54.8274 141.61 54.4308Z" fill="url(#paint60_linear_1601_3617)"/>
<path d="M128.701 30.8793C129.056 30.8298 129.372 31.0281 130.004 31.7222C130.201 31.3256 130.28 30.9289 130.28 30.3835C129.767 29.9373 129.412 29.739 128.819 29.5902C128.898 30.086 128.859 30.3339 128.701 30.8793Z" fill="url(#paint61_linear_1601_3617)"/>
<path d="M119.621 21.2605C119.344 20.9135 119.028 20.9135 118.555 20.8639C118.515 22.2026 118.16 23.6405 117.607 25.2271C118.002 25.3263 118.239 25.475 118.555 25.8221C119.226 24.1859 119.463 23.1447 119.621 21.2605Z" fill="url(#paint62_linear_1601_3617)"/>
<path d="M106.712 35.5401C107.304 35.6888 107.699 35.6392 108.37 35.3417C108.054 34.4492 107.975 33.8543 108.054 33.1601C107.462 32.9618 107.067 32.9122 106.435 33.0114C106.672 33.8543 106.712 34.4988 106.712 35.5401Z" fill="url(#paint63_linear_1601_3617)"/>
<path d="M142.873 12.782C143.229 13.0299 143.584 12.9308 144.097 12.6829C143.86 11.6416 143.821 10.9971 143.9 9.95585C143.544 10.1542 143.229 10.1046 142.676 9.85669C142.557 10.8979 142.676 11.7408 142.873 12.782Z" fill="url(#paint64_linear_1601_3617)"/>
<path d="M106.632 60.7277C106.948 60.5789 107.145 60.5293 107.501 60.5293C107.501 60.331 107.461 60.1327 107.382 59.9839C107.145 59.9343 106.869 59.9839 106.474 60.0831C106.632 60.331 106.672 60.4797 106.632 60.7277Z" fill="url(#paint65_linear_1601_3617)"/>
<path d="M61.1531 22.2026C61.4294 22.6489 61.5479 22.9463 61.5873 23.4422C61.7847 23.343 61.9032 23.343 62.0216 23.3926C61.9821 22.8472 61.8637 22.5001 61.5873 21.9547C61.4294 22.0043 61.2715 22.0539 61.1531 22.2026Z" fill="url(#paint66_linear_1601_3617)"/>
<path d="M20.7268 83.6345C20.332 83.6345 20.0557 83.5353 19.7398 83.0891C19.5424 83.7337 19.5424 84.1799 19.5819 85.0228C19.8188 85.3699 20.0557 85.4195 20.4504 85.4195C20.4504 84.6757 20.4899 84.1303 20.7268 83.6345Z" fill="url(#paint67_linear_1601_3617)"/>
<path d="M110.896 41.0436C110.185 40.647 109.593 39.9528 108.843 37.8208C108.172 38.3662 107.737 39.0603 107.343 40.2503C108.053 41.7378 108.606 42.5311 109.751 43.4236C109.909 42.4319 110.224 41.9361 110.896 41.0436Z" fill="url(#paint68_linear_1601_3617)"/>
<path d="M135.412 60.4797C135.728 60.926 135.846 61.1739 135.925 61.6201C136.122 61.521 136.241 61.521 136.32 61.5705C136.28 61.0251 136.122 60.6781 135.846 60.1823C135.688 60.2318 135.53 60.331 135.412 60.4797Z" fill="url(#paint69_linear_1601_3617)"/>
<path d="M13.5412 24.7808C13.2648 25.2766 12.7911 25.6237 11.5673 25.8716C11.7252 26.5161 12.0015 27.0119 12.5542 27.5078C13.4228 27.1607 13.936 26.8632 14.6071 26.1195C14.1334 25.822 13.8965 25.4749 13.5412 24.7808Z" fill="url(#paint70_linear_1601_3617)"/>
<path d="M143.229 34.2509C142.953 33.1105 142.874 32.466 142.953 31.3256C142.479 31.276 142.084 31.3256 141.729 31.6231C141.65 32.3668 141.689 33.3584 141.847 34.6476C142.4 34.1518 142.716 34.003 143.229 34.2509Z" fill="url(#paint71_linear_1601_3617)"/>
<path d="M134.978 73.1231C134.978 72.181 134.623 71.5861 133.873 70.7432C132.688 72.1315 131.899 72.7264 130.477 73.371C131.03 74.0156 131.228 74.6601 131.425 75.9988C132.846 75.3047 133.833 74.4618 134.978 73.1231Z" fill="url(#paint72_linear_1601_3617)"/>
<path d="M106.395 17.889C105.368 18.3353 104.618 18.8311 104.026 19.674C104.224 20.5169 104.46 21.0127 104.895 21.4589C105.684 20.4673 106.237 20.0706 107.263 19.7236C106.671 19.1286 106.395 18.6823 106.395 17.889Z" fill="url(#paint73_linear_1601_3617)"/>
<path d="M73.4453 49.8472L63.9102 106.68" stroke="#243D66" stroke-width="0.482547"/>
<path d="M66.8054 43.9081L66.8054 107.117" stroke="#243D66" stroke-width="0.482547"/>
<path style="mix-blend-mode:multiply" d="M72.3487 29.8586C80.0925 40.9206 80.7519 53.9025 73.8225 58.8523C66.8931 63.8021 54.9994 58.8523 47.2556 47.7903C39.5117 36.7413 38.8524 23.7595 45.7818 18.7966C52.7112 13.8468 64.6049 18.8097 72.3487 29.8586Z" fill="url(#paint74_radial_1601_3617)"/>
<path style="mix-blend-mode:multiply" d="M88.0423 26.267C90.3047 39.6276 85.3533 51.6299 76.9889 53.0665C68.6245 54.5162 60.0016 44.8647 57.7392 31.5172C55.4768 18.1566 60.4282 6.15423 68.7926 4.7176C77.157 3.26792 85.7799 12.9194 88.0423 26.267Z" fill="url(#paint75_radial_1601_3617)"/>
<path d="M67.7467 43.8461C67.8113 44.2118 67.3718 44.1335 66.8417 44.2118C66.3246 44.3032 65.9238 44.473 65.8721 44.1596C65.7816 43.598 66.1565 42.6968 66.5961 42.6315C67.0227 42.5532 67.6562 43.2845 67.7467 43.8461Z" fill="url(#paint76_radial_1601_3617)"/>
<path d="M77.338 20.5993C78.605 28.3832 73.0072 42.0442 66.6595 43.1021C60.3249 44.1469 50.7065 33.0065 49.4395 25.2227C48.1726 17.4388 53.3955 10.0989 61.1005 8.81903C68.8056 7.53913 76.0711 12.8155 77.338 20.5993Z" fill="#75A8D7"/>
<g style="mix-blend-mode:soft-light">
<path fill-rule="evenodd" clip-rule="evenodd" d="M67.758 42.7756C68.1975 42.0443 64.9655 41.9006 62.9617 42.5536C62.186 42.2532 61.3974 41.8353 60.6217 41.326C62.7807 40.4379 69.1283 39.9808 69.8006 41.4957C69.8092 41.5132 69.8178 41.5306 69.8264 41.548C69.1413 42.0965 68.4432 42.5144 67.7321 42.8018C67.7407 42.7931 67.7494 42.7843 67.758 42.7756ZM76.2128 30.7733C75.9026 31.7659 75.5535 32.7454 75.1398 33.6988C74.8296 33.4115 74.39 33.1503 73.8212 32.9152C68.7922 30.8386 56.6141 32.3797 53.5502 34.2604C52.9555 33.4376 52.4125 32.5887 51.9342 31.7398C52.0204 31.6788 52.1152 31.6179 52.2186 31.5569C56.8339 28.9841 72.8774 27.4168 76.2128 30.7733ZM77.5056 23.5902C77.4669 24.7917 77.3246 26.0586 77.079 27.3385C76.9842 27.2601 76.8808 27.1817 76.7687 27.1034C71.7398 23.6032 54.0026 25.8627 50.4087 28.6184C49.9433 27.456 49.6071 26.3067 49.4391 25.2227C49.4132 25.0791 49.3874 24.9223 49.3744 24.7656C53.3045 21.9838 73.0972 19.4632 77.5056 23.5902ZM73.5755 36.8855C73.0843 37.7344 72.5542 38.5441 71.9983 39.2624C71.4424 38.5833 69.8911 38.1523 68.0424 37.9825C64.3967 37.6691 59.7685 38.4397 57.9715 39.2886C57.2476 38.6356 56.5365 37.9172 55.8513 37.1597C56.6658 36.7418 57.9845 36.35 59.2514 36.0758C64.8363 34.8612 71.9208 35.0571 73.5755 36.8855ZM49.2969 21.7356C49.3572 20.952 49.4822 20.1858 49.6718 19.437C54.0156 16.5769 71.3907 14.435 76.5102 17.5955C76.7429 18.1876 76.9368 18.7971 77.0919 19.424C72.3086 16.5246 53.4597 18.1702 49.2969 21.7356ZM55.1274 11.3266C56.4072 10.3994 57.8552 9.668 59.4324 9.21089C61.2164 8.89745 63.259 8.7146 65.1982 8.75379C66.9435 8.97581 68.5983 9.52434 70.1109 10.3471C65.7929 9.48516 59.0058 10.112 55.1274 11.3266ZM50.6931 16.6291C51.1326 15.741 51.6498 14.9051 52.2444 14.1215C56.7304 12.1625 68.1587 10.8434 73.4075 12.8547C74.1444 13.5861 74.7908 14.4089 75.3467 15.297C70.0979 12.5151 55.3601 13.9518 50.6931 16.6291Z" fill="white"/>
</g>
<path style="mix-blend-mode:multiply" opacity="0.6" d="M58.8769 38.7133C60.4929 40.0063 62.1347 40.9988 63.518 41.6519C62.5743 39.732 60.8549 38.0472 59.6267 35.5397C57.7651 35.3568 56.2525 34.3251 54.3521 33.9855C55.6708 35.8401 57.2609 37.4334 58.8769 38.7133ZM51.6243 28.226C52.1673 30.3678 53.1369 32.2877 54.3521 33.9855C56.2525 34.3251 57.7651 35.3568 59.6267 35.5397C56.4594 29.101 54.8175 25.9796 56.0069 16.8766C53.9772 17.4774 52.9818 18.0912 51.327 19.332C50.7452 21.9832 50.8099 25.0131 51.6243 28.226ZM51.327 19.332C52.9818 18.0912 53.9772 17.4774 56.0069 16.8766C56.175 14.8392 56.8084 12.8541 56.8731 11.2999C55.3993 12.2011 54.1711 13.3765 53.2145 14.8001C52.3354 16.1322 51.7019 17.6472 51.327 19.332ZM63.518 41.6519C65.0177 42.3702 66.2329 42.6836 66.8146 42.5922C67.4093 42.4877 68.4306 41.7955 69.6071 40.6593C70.0208 38.6219 71.3653 36.7151 71.8824 33.9333C70.2923 34.6777 68.0299 35.3699 65.7546 35.605C63.518 35.8401 61.3332 35.7095 59.6267 35.5397C60.8549 38.0472 62.5743 39.732 63.518 41.6519ZM59.6267 35.5397C61.3332 35.7095 63.518 35.8401 65.7546 35.605C68.0299 35.3699 70.2923 34.6777 71.8824 33.9333C73.0071 27.9778 72.5417 21.1343 69.5683 15.0221C65.677 14.9176 59.7301 15.7796 56.0069 16.8766C54.8175 25.9796 56.4594 29.101 59.6267 35.5397ZM56.0069 16.8766C59.7301 15.7796 65.677 14.9176 69.5683 15.0221C68.6633 13.1545 67.4093 11.1563 66.6207 9.83717C65.0047 9.41925 63.2465 9.35395 61.3978 9.66739C59.7043 9.95472 58.1917 10.5163 56.8731 11.2999C56.8084 12.8541 56.175 14.8392 56.0069 16.8766ZM69.6071 40.6593C70.7189 39.5753 71.96 38.0864 73.0847 36.3233C74.2094 34.5732 75.2049 32.5489 75.8642 30.3678C74.3516 31.3865 73.4467 33.2411 71.8824 33.9333C71.3653 36.7151 70.0208 38.6219 69.6071 40.6593ZM71.8824 33.9333C73.4467 33.2411 74.3516 31.3865 75.8642 30.3678C76.4589 28.3566 76.7692 26.2147 76.5882 24.0206C76.3296 20.7033 75.4247 17.817 74.0155 15.5053C72.5417 15.0482 71.2748 15.0613 69.5683 15.0221C72.5417 21.1343 73.0071 27.9778 71.8824 33.9333ZM69.5683 15.0221C71.2748 15.0613 72.5417 15.0482 74.0155 15.5053C73.1235 14.0426 72.0375 12.8149 70.7835 11.8484C69.5424 10.8951 68.1462 10.2159 66.6207 9.83717C67.4093 11.1563 68.6633 13.1545 69.5683 15.0221Z" fill="url(#paint77_linear_1601_3617)"/>
<path d="M71.3272 29.7671C73.1242 28.5525 74.4557 26.1233 74.7401 25.196C75.4124 23.0019 75.6968 20.7425 75.3607 18.7443C74.2618 11.9399 68.7933 8.41367 61.2434 9.65439C53.6935 10.9082 49.4272 17.0595 50.8752 22.2706C51.1337 23.1978 52.0128 26.0972 54.133 28.0301C59.3688 32.784 66.1689 33.2803 71.3272 29.7671Z" fill="url(#paint78_radial_1601_3617)"/>
<path style="mix-blend-mode:overlay" d="M72.2447 13.142C75.593 15.9891 76.9117 20.077 75.1923 22.2711C73.4858 24.4652 69.3876 23.9167 66.0522 21.0696C62.7168 18.2094 61.3982 14.1215 63.1046 11.9405C64.8111 9.74637 68.9093 10.2949 72.2447 13.142Z" fill="url(#paint79_radial_1601_3617)"/>
<path style="mix-blend-mode:multiply" d="M81.6707 34.924C77.2719 49.6286 66.1983 59.1925 56.9141 56.3029C47.6353 53.4017 43.6761 39.1359 48.058 24.4374C52.4567 9.73273 63.5357 0.157225 72.8145 3.05845C82.0933 5.95967 86.0525 20.2255 81.6707 34.924Z" fill="url(#paint80_radial_1601_3617)"/>
<path d="M74.2105 50.0298C74.0991 50.4271 73.7016 50.1267 73.1554 49.9668C72.6039 49.8185 72.1195 49.8004 72.2213 49.4548C72.3774 48.8676 73.1445 48.1755 73.6044 48.3086C74.0644 48.4417 74.3666 49.4425 74.2105 50.0298Z" fill="url(#paint81_radial_1601_3617)"/>
<path d="M64.6144 23.1875C62.3575 31.3849 66.8455 46.7706 73.5858 48.7331C80.3145 50.69 91.9887 39.9904 94.2456 31.793C96.4972 23.6072 91.6984 15.03 83.5135 12.652C75.3403 10.2794 66.8714 14.9901 64.6144 23.1875Z" fill="#FFB05A"/>
<g style="mix-blend-mode:soft-light">
<path fill-rule="evenodd" clip-rule="evenodd" d="M72.4593 48.2705C71.7221 47.8797 71.0138 47.3335 70.352 46.6545C70.3514 46.6354 70.3584 46.6199 70.3732 46.6082C71.2769 45.0643 78.0861 46.3835 80.3112 47.6188C79.4151 48.068 78.515 48.4027 77.6458 48.6393C75.555 47.6647 72.0416 47.3971 72.4415 48.248C72.4492 48.2516 72.4551 48.2591 72.4593 48.2705ZM90.5097 38.2347C90.6185 38.305 90.716 38.3793 90.8023 38.4576C90.171 39.3137 89.4934 40.1478 88.7695 40.96C85.6655 38.5347 72.6874 35.298 67.0097 36.8652C66.3662 37.0397 65.8593 37.2646 65.489 37.54C65.1666 36.4583 64.8948 35.3582 64.6684 34.2515C68.6668 31.0876 85.8231 34.8639 90.5097 38.2347ZM94.3664 31.3149C94.3207 31.4763 94.292 31.6316 94.2463 31.7931C93.9265 32.9231 93.4379 34.1142 92.7954 35.3028C89.2296 31.8848 70.3306 27.1434 64.484 30.25C64.3609 30.3138 64.2437 30.3851 64.1325 30.464C64.009 29.0398 64.0014 27.6704 64.0991 26.379C69.3378 22.5063 90.4329 27.8074 94.3664 31.3149ZM82.3956 42.1699C83.722 42.6282 85.1156 43.2168 85.9379 43.7605C85.114 44.4832 84.2659 45.1663 83.4096 45.7751C81.5638 44.6348 76.6484 43.2115 72.6834 43.0683C70.6582 42.9976 68.9465 43.2583 68.263 43.9206C67.7376 43.0668 67.261 42.1373 66.8224 41.1555C68.8188 39.4103 76.4958 40.1262 82.3956 42.1699ZM65.0226 21.9581C65.2581 21.2998 65.5381 20.6672 65.8628 20.0604C71.7401 17.3485 90.2737 21.9029 94.6392 25.5443C94.765 26.3782 94.817 27.2194 94.7951 28.068C90.7116 23.687 70.5199 19.4608 65.0226 21.9581ZM73.6047 13.1192C75.3247 12.4401 77.1864 12.0673 79.1 12.043C81.1871 12.2556 83.3686 12.7239 85.2683 13.2844C86.9168 13.9935 88.4087 14.9525 89.6745 16.1284C85.6288 14.3137 78.3668 12.7523 73.6047 13.1192ZM67.3722 17.747C68.071 16.8666 68.8698 16.0756 69.7516 15.3803C75.6495 13.9172 87.8523 16.8154 92.4697 19.5059C93.0371 20.4219 93.4978 21.386 93.8636 22.4038C89.1214 18.9081 73.3551 15.4511 67.3722 17.747Z" fill="white"/>
</g>
<path style="mix-blend-mode:multiply" opacity="0.6" d="M67.8675 40.7912C68.8731 42.8156 70.0512 44.5556 71.1225 45.8508C71.0582 43.5254 70.1114 41.0641 70.0284 38.04C68.2648 36.9946 67.2523 35.2625 65.5112 34.0447C65.9781 36.4761 66.845 38.7729 67.8675 40.7912ZM65.4122 27.1411C64.9807 29.4713 65.0797 31.8132 65.5112 34.0447C67.2523 35.2625 68.2648 36.9946 70.0284 38.04C69.8023 30.2736 69.589 26.4556 74.8494 18.1306C72.5794 17.7608 71.324 17.8851 69.1221 18.3219C67.3501 20.6236 66.0526 23.6143 65.4122 27.1411ZM69.1221 18.3219C71.324 17.8851 72.5794 17.7608 74.8494 18.1306C75.9341 16.2219 77.4611 14.5788 78.2127 13.0899C76.3551 13.2672 74.5969 13.8435 73.0226 14.7884C71.5655 15.6621 70.2449 16.8537 69.1221 18.3219ZM71.1225 45.8508C72.2769 47.2416 73.3341 48.1359 73.9614 48.3059C74.5833 48.4874 75.9105 48.2986 77.5895 47.7411C78.9176 45.9475 81.0915 44.709 82.8521 42.2471C80.959 42.2246 78.4031 41.8323 76.0485 41.0001C73.7339 40.1728 71.6298 39.0086 70.0284 38.04C70.1114 41.0641 71.0582 43.5254 71.1225 45.8508ZM70.0284 38.04C71.6298 39.0086 73.7339 40.1728 76.0485 41.0001C78.4031 41.8323 80.959 42.2246 82.8521 42.2471C86.6399 36.9566 89.2599 30.0578 89.0763 22.6917C85.2871 20.7727 79.0164 18.7922 74.8494 18.1306C69.589 26.4556 69.8023 30.2736 70.0284 38.04ZM74.8494 18.1306C79.0164 18.7922 85.2871 20.7727 89.0763 22.6917C89.0319 20.4461 88.6865 17.9032 88.5029 16.2394C87.0886 15.0777 85.3816 14.1858 83.4125 13.6204C81.6162 13.1087 79.8605 12.94 78.2127 13.0899C77.4611 14.5788 75.9341 16.2219 74.8494 18.1306ZM77.5895 47.7411C79.1726 47.2086 81.0632 46.3429 82.9649 45.1446C84.8613 43.9578 86.7584 42.4615 88.3871 40.6271C86.4427 40.9324 84.7178 42.2989 82.8521 42.2471C81.0915 44.709 78.9176 45.9475 77.5895 47.7411ZM82.8521 42.2471C84.7178 42.2989 86.4427 40.9324 88.3871 40.6271C89.8847 38.956 91.156 37.0089 91.9617 34.7853C93.1893 31.4236 93.6003 28.1825 93.2587 25.2613C91.9931 24.1136 90.7359 23.533 89.0763 22.6917C89.2599 30.0578 86.6399 36.9566 82.8521 42.2471ZM89.0763 22.6917C90.7359 23.533 91.9931 24.1136 93.2587 25.2613C93.0343 23.4093 92.507 21.6956 91.7009 20.1597C90.9074 18.658 89.8351 17.3342 88.5029 16.2394C88.6865 17.9032 89.0319 20.4461 89.0763 22.6917Z" fill="url(#paint82_linear_1601_3617)"/>
<path d="M84.1969 37.8767C86.5241 37.5292 88.9224 35.7953 89.6126 35.025C91.2791 33.198 92.5615 31.1331 93.1426 29.0317C95.1064 21.8756 91.2986 15.8562 83.2941 13.5322C75.2781 11.2027 68.3141 15.192 67.406 20.9633C67.2482 21.9854 66.7978 25.2172 68.0311 28.0925C71.0628 35.1931 77.5438 38.8775 84.1969 37.8767Z" fill="url(#paint83_radial_1601_3617)"/>
<path style="mix-blend-mode:overlay" d="M92.5707 22.0453C94.5794 26.3987 94.0518 31.0009 91.3768 32.323C88.7081 33.6622 84.9157 31.2071 82.9018 26.8652C80.8816 22.5063 81.4207 17.9096 84.0894 16.5704C86.7644 15.2483 90.5621 17.6918 92.5707 22.0453Z" fill="url(#paint84_radial_1601_3617)"/>
</g>
<defs>
<linearGradient id="paint0_linear_1601_3617" x1="122.187" y1="42.3823" x2="120.923" y2="40.5447" gradientUnits="userSpaceOnUse">
<stop stop-color="#0038AB"/>
<stop offset="0.349" stop-color="#00ACFF"/>
<stop offset="0.516" stop-color="#00D9FF"/>
<stop offset="0.71" stop-color="#00ACFF"/>
<stop offset="1" stop-color="#0038AB"/>
</linearGradient>
<linearGradient id="paint1_linear_1601_3617" x1="137.821" y1="46.1506" x2="136.807" y2="45.9246" gradientUnits="userSpaceOnUse">
<stop stop-color="#AB3C00"/>
<stop offset="0.344" stop-color="#FFC700"/>
<stop offset="0.521" stop-color="#FFDE56"/>
<stop offset="0.672" stop-color="#FFC700"/>
<stop offset="1" stop-color="#AB3C00"/>
</linearGradient>
<linearGradient id="paint2_linear_1601_3617" x1="149.112" y1="83.2874" x2="147.924" y2="82.5597" gradientUnits="userSpaceOnUse">
<stop stop-color="#AB3C00"/>
<stop offset="0.344" stop-color="#FFC700"/>
<stop offset="0.521" stop-color="#FFDE56"/>
<stop offset="0.672" stop-color="#FFC700"/>
<stop offset="1" stop-color="#AB3C00"/>
</linearGradient>
<linearGradient id="paint3_linear_1601_3617" x1="5.7245" y1="63.9009" x2="4.98067" y2="70.5145" gradientUnits="userSpaceOnUse">
<stop stop-color="#920040"/>
<stop offset="0.296" stop-color="#FF0087"/>
<stop offset="0.548" stop-color="#FF5E97"/>
<stop offset="0.753" stop-color="#FF0087"/>
<stop offset="1" stop-color="#920040"/>
</linearGradient>
<linearGradient id="paint4_linear_1601_3617" x1="43.782" y1="76.4946" x2="39.9525" y2="78.1391" gradientUnits="userSpaceOnUse">
<stop stop-color="#0038AB"/>
<stop offset="0.349" stop-color="#00ACFF"/>
<stop offset="0.516" stop-color="#00D9FF"/>
<stop offset="0.71" stop-color="#00ACFF"/>
<stop offset="1" stop-color="#0038AB"/>
</linearGradient>
<linearGradient id="paint5_linear_1601_3617" x1="85.4714" y1="77.3872" x2="86.9725" y2="78.7817" gradientUnits="userSpaceOnUse">
<stop stop-color="#AB3C00"/>
<stop offset="0.344" stop-color="#FFC700"/>
<stop offset="0.521" stop-color="#FFDE56"/>
<stop offset="0.672" stop-color="#FFC700"/>
<stop offset="1" stop-color="#AB3C00"/>
</linearGradient>
<linearGradient id="paint6_linear_1601_3617" x1="142.282" y1="30.4333" x2="144.96" y2="28.7052" gradientUnits="userSpaceOnUse">
<stop stop-color="#005200"/>
<stop offset="0.312" stop-color="#00A912"/>
<stop offset="0.511" stop-color="#83C512"/>
<stop offset="0.742" stop-color="#00A912"/>
<stop offset="1" stop-color="#003400"/>
</linearGradient>
<linearGradient id="paint7_linear_1601_3617" x1="64.6658" y1="31.7719" x2="66.3647" y2="31.8348" gradientUnits="userSpaceOnUse">
<stop stop-color="#AB3C00"/>
<stop offset="0.344" stop-color="#FFC700"/>
<stop offset="0.521" stop-color="#FFDE56"/>
<stop offset="0.672" stop-color="#FFC700"/>
<stop offset="1" stop-color="#AB3C00"/>
</linearGradient>
<linearGradient id="paint8_linear_1601_3617" x1="125.306" y1="69.2558" x2="124.615" y2="70.1023" gradientUnits="userSpaceOnUse">
<stop stop-color="#920040"/>
<stop offset="0.296" stop-color="#FF0087"/>
<stop offset="0.548" stop-color="#FF5E97"/>
<stop offset="0.753" stop-color="#FF0087"/>
<stop offset="1" stop-color="#920040"/>
</linearGradient>
<linearGradient id="paint9_linear_1601_3617" x1="10.6588" y1="77.7839" x2="8.4998" y2="79.0015" gradientUnits="userSpaceOnUse">
<stop stop-color="#005200"/>
<stop offset="0.312" stop-color="#00A912"/>
<stop offset="0.511" stop-color="#83C512"/>
<stop offset="0.742" stop-color="#00A912"/>
<stop offset="1" stop-color="#003400"/>
</linearGradient>
<linearGradient id="paint10_linear_1601_3617" x1="143.585" y1="21.558" x2="141.876" y2="22.6612" gradientUnits="userSpaceOnUse">
<stop stop-color="#920040"/>
<stop offset="0.296" stop-color="#FF0087"/>
<stop offset="0.548" stop-color="#FF5E97"/>
<stop offset="0.753" stop-color="#FF0087"/>
<stop offset="1" stop-color="#920040"/>
</linearGradient>
<linearGradient id="paint11_linear_1601_3617" x1="34.544" y1="76.4947" x2="35.2523" y2="78.2336" gradientUnits="userSpaceOnUse">
<stop stop-color="#0038AB"/>
<stop offset="0.349" stop-color="#00ACFF"/>
<stop offset="0.516" stop-color="#00D9FF"/>
<stop offset="0.71" stop-color="#00ACFF"/>
<stop offset="1" stop-color="#0038AB"/>
</linearGradient>
<linearGradient id="paint12_linear_1601_3617" x1="63.2451" y1="34.4493" x2="66.6152" y2="31.2454" gradientUnits="userSpaceOnUse">
<stop stop-color="#005200"/>
<stop offset="0.312" stop-color="#00A912"/>
<stop offset="0.511" stop-color="#83C512"/>
<stop offset="0.742" stop-color="#00A912"/>
<stop offset="1" stop-color="#003400"/>
</linearGradient>
<linearGradient id="paint13_linear_1601_3617" x1="60.4819" y1="53.5383" x2="61.2107" y2="50.8304" gradientUnits="userSpaceOnUse">
<stop stop-color="#920040"/>
<stop offset="0.296" stop-color="#FF0087"/>
<stop offset="0.548" stop-color="#FF5E97"/>
<stop offset="0.753" stop-color="#FF0087"/>
<stop offset="1" stop-color="#920040"/>
</linearGradient>
<linearGradient id="paint14_linear_1601_3617" x1="46.1115" y1="72.2306" x2="47.6299" y2="72.0079" gradientUnits="userSpaceOnUse">
<stop stop-color="#400300"/>
<stop offset="0.296" stop-color="#E50300"/>
<stop offset="0.495" stop-color="#FF4022"/>
<stop offset="0.699" stop-color="#E50300"/>
<stop offset="1" stop-color="#3B0300"/>
</linearGradient>
<linearGradient id="paint15_linear_1601_3617" x1="52.3093" y1="60.8268" x2="55.4325" y2="54.4717" gradientUnits="userSpaceOnUse">
<stop stop-color="#005200"/>
<stop offset="0.312" stop-color="#00A912"/>
<stop offset="0.511" stop-color="#83C512"/>
<stop offset="0.742" stop-color="#00A912"/>
<stop offset="1" stop-color="#003400"/>
</linearGradient>
<linearGradient id="paint16_linear_1601_3617" x1="23.1741" y1="31.3256" x2="21.8145" y2="32.8662" gradientUnits="userSpaceOnUse">
<stop stop-color="#400300"/>
<stop offset="0.296" stop-color="#E50300"/>
<stop offset="0.495" stop-color="#FF4022"/>
<stop offset="0.699" stop-color="#E50300"/>
<stop offset="1" stop-color="#3B0300"/>
</linearGradient>
<linearGradient id="paint17_linear_1601_3617" x1="37.1096" y1="66.4791" x2="34.855" y2="68.3914" gradientUnits="userSpaceOnUse">
<stop stop-color="#0038AB"/>
<stop offset="0.349" stop-color="#00ACFF"/>
<stop offset="0.516" stop-color="#00D9FF"/>
<stop offset="0.71" stop-color="#00ACFF"/>
<stop offset="1" stop-color="#0038AB"/>
</linearGradient>
<linearGradient id="paint18_linear_1601_3617" x1="0.513139" y1="41.0437" x2="3.18647" y2="41.6242" gradientUnits="userSpaceOnUse">
<stop stop-color="#AB3C00"/>
<stop offset="0.344" stop-color="#FFC700"/>
<stop offset="0.521" stop-color="#FFDE56"/>
<stop offset="0.672" stop-color="#FFC700"/>
<stop offset="1" stop-color="#AB3C00"/>
</linearGradient>
<linearGradient id="paint19_linear_1601_3617" x1="41.4136" y1="75.6023" x2="38.6699" y2="78.57" gradientUnits="userSpaceOnUse">
<stop stop-color="#AB3C00"/>
<stop offset="0.344" stop-color="#FFC700"/>
<stop offset="0.521" stop-color="#FFDE56"/>
<stop offset="0.672" stop-color="#FFC700"/>
<stop offset="1" stop-color="#AB3C00"/>
</linearGradient>
<linearGradient id="paint20_linear_1601_3617" x1="74.733" y1="58.4965" x2="71.5173" y2="56.0124" gradientUnits="userSpaceOnUse">
<stop stop-color="#0038AB"/>
<stop offset="0.349" stop-color="#00ACFF"/>
<stop offset="0.516" stop-color="#00D9FF"/>
<stop offset="0.71" stop-color="#00ACFF"/>
<stop offset="1" stop-color="#0038AB"/>
</linearGradient>
<linearGradient id="paint21_linear_1601_3617" x1="140.742" y1="58.7443" x2="142.849" y2="61.9671" gradientUnits="userSpaceOnUse">
<stop stop-color="#AB3C00"/>
<stop offset="0.344" stop-color="#FFC700"/>
<stop offset="0.521" stop-color="#FFDE56"/>
<stop offset="0.672" stop-color="#FFC700"/>
<stop offset="1" stop-color="#AB3C00"/>
</linearGradient>
<linearGradient id="paint22_linear_1601_3617" x1="106.158" y1="48.233" x2="102.964" y2="51.3825" gradientUnits="userSpaceOnUse">
<stop stop-color="#005200"/>
<stop offset="0.312" stop-color="#00A912"/>
<stop offset="0.511" stop-color="#83C512"/>
<stop offset="0.742" stop-color="#00A912"/>
<stop offset="1" stop-color="#003400"/>
</linearGradient>
<linearGradient id="paint23_linear_1601_3617" x1="41.0188" y1="22.8966" x2="43.0418" y2="26.2525" gradientUnits="userSpaceOnUse">
<stop stop-color="#0038AB"/>
<stop offset="0.349" stop-color="#00ACFF"/>
<stop offset="0.516" stop-color="#00D9FF"/>
<stop offset="0.71" stop-color="#00ACFF"/>
<stop offset="1" stop-color="#0038AB"/>
</linearGradient>
<linearGradient id="paint24_linear_1601_3617" x1="48.9933" y1="58.5956" x2="52.8263" y2="53.5233" gradientUnits="userSpaceOnUse">
<stop stop-color="#0038AB"/>
<stop offset="0.349" stop-color="#00ACFF"/>
<stop offset="0.516" stop-color="#00D9FF"/>
<stop offset="0.71" stop-color="#00ACFF"/>
<stop offset="1" stop-color="#0038AB"/>
</linearGradient>
<linearGradient id="paint25_linear_1601_3617" x1="79.7475" y1="62.0664" x2="79.328" y2="60.8257" gradientUnits="userSpaceOnUse">
<stop stop-color="#920040"/>
<stop offset="0.296" stop-color="#FF0087"/>
<stop offset="0.548" stop-color="#FF5E97"/>
<stop offset="0.753" stop-color="#FF0087"/>
<stop offset="1" stop-color="#920040"/>
</linearGradient>
<linearGradient id="paint26_linear_1601_3617" x1="46.1901" y1="32.3172" x2="43.9157" y2="28.8278" gradientUnits="userSpaceOnUse">
<stop stop-color="#400300"/>
<stop offset="0.296" stop-color="#E50300"/>
<stop offset="0.495" stop-color="#FF4022"/>
<stop offset="0.699" stop-color="#E50300"/>
<stop offset="1" stop-color="#3B0300"/>
</linearGradient>
<linearGradient id="paint27_linear_1601_3617" x1="118.278" y1="55.1249" x2="121.944" y2="52.3957" gradientUnits="userSpaceOnUse">
<stop stop-color="#0038AB"/>
<stop offset="0.349" stop-color="#00ACFF"/>
<stop offset="0.516" stop-color="#00D9FF"/>
<stop offset="0.71" stop-color="#00ACFF"/>
<stop offset="1" stop-color="#0038AB"/>
</linearGradient>
<linearGradient id="paint28_linear_1601_3617" x1="90.5249" y1="65.5371" x2="90.8958" y2="62.9283" gradientUnits="userSpaceOnUse">
<stop stop-color="#005200"/>
<stop offset="0.312" stop-color="#00A912"/>
<stop offset="0.511" stop-color="#83C512"/>
<stop offset="0.742" stop-color="#00A912"/>
<stop offset="1" stop-color="#003400"/>
</linearGradient>
<linearGradient id="paint29_linear_1601_3617" x1="150.493" y1="43.8203" x2="152.863" y2="44.8498" gradientUnits="userSpaceOnUse">
<stop stop-color="#920040"/>
<stop offset="0.296" stop-color="#FF0087"/>
<stop offset="0.548" stop-color="#FF5E97"/>
<stop offset="0.753" stop-color="#FF0087"/>
<stop offset="1" stop-color="#920040"/>
</linearGradient>
<linearGradient id="paint30_linear_1601_3617" x1="84.8394" y1="85.7169" x2="82.7863" y2="83.8031" gradientUnits="userSpaceOnUse">
<stop stop-color="#005200"/>
<stop offset="0.312" stop-color="#00A912"/>
<stop offset="0.511" stop-color="#83C512"/>
<stop offset="0.742" stop-color="#00A912"/>
<stop offset="1" stop-color="#003400"/>
</linearGradient>
<linearGradient id="paint31_linear_1601_3617" x1="87.9982" y1="63.7522" x2="89.1782" y2="64.9778" gradientUnits="userSpaceOnUse">
<stop stop-color="#AB3C00"/>
<stop offset="0.344" stop-color="#FFC700"/>
<stop offset="0.521" stop-color="#FFDE56"/>
<stop offset="0.672" stop-color="#FFC700"/>
<stop offset="1" stop-color="#AB3C00"/>
</linearGradient>
<linearGradient id="paint32_linear_1601_3617" x1="148.322" y1="45.0598" x2="147.892" y2="42.9088" gradientUnits="userSpaceOnUse">
<stop stop-color="#AB3C00"/>
<stop offset="0.344" stop-color="#FFC700"/>
<stop offset="0.521" stop-color="#FFDE56"/>
<stop offset="0.672" stop-color="#FFC700"/>
<stop offset="1" stop-color="#AB3C00"/>
</linearGradient>
<linearGradient id="paint33_linear_1601_3617" x1="50.5726" y1="64.1488" x2="53.9525" y2="64.5288" gradientUnits="userSpaceOnUse">
<stop stop-color="#400300"/>
<stop offset="0.296" stop-color="#E50300"/>
<stop offset="0.495" stop-color="#FF4022"/>
<stop offset="0.699" stop-color="#E50300"/>
<stop offset="1" stop-color="#3B0300"/>
</linearGradient>
<linearGradient id="paint34_linear_1601_3617" x1="99.4471" y1="75.9989" x2="101.577" y2="76.8468" gradientUnits="userSpaceOnUse">
<stop stop-color="#AB3C00"/>
<stop offset="0.344" stop-color="#FFC700"/>
<stop offset="0.521" stop-color="#FFDE56"/>
<stop offset="0.672" stop-color="#FFC700"/>
<stop offset="1" stop-color="#AB3C00"/>
</linearGradient>
<linearGradient id="paint35_linear_1601_3617" x1="134.425" y1="46.4977" x2="139.752" y2="45.6364" gradientUnits="userSpaceOnUse">
<stop stop-color="#400300"/>
<stop offset="0.296" stop-color="#E50300"/>
<stop offset="0.495" stop-color="#FF4022"/>
<stop offset="0.699" stop-color="#E50300"/>
<stop offset="1" stop-color="#3B0300"/>
</linearGradient>
<linearGradient id="paint36_linear_1601_3617" x1="94.5908" y1="0.584932" x2="93.7556" y2="0.679932" gradientUnits="userSpaceOnUse">
<stop stop-color="#920040"/>
<stop offset="0.296" stop-color="#FF0087"/>
<stop offset="0.548" stop-color="#FF5E97"/>
<stop offset="0.753" stop-color="#FF0087"/>
<stop offset="1" stop-color="#920040"/>
</linearGradient>
<linearGradient id="paint37_linear_1601_3617" x1="126.451" y1="85.2212" x2="127.728" y2="82.5401" gradientUnits="userSpaceOnUse">
<stop stop-color="#920040"/>
<stop offset="0.296" stop-color="#FF0087"/>
<stop offset="0.548" stop-color="#FF5E97"/>
<stop offset="0.753" stop-color="#FF0087"/>
<stop offset="1" stop-color="#920040"/>
</linearGradient>
<linearGradient id="paint38_linear_1601_3617" x1="66.7984" y1="66.2312" x2="67.4177" y2="71.2609" gradientUnits="userSpaceOnUse">
<stop stop-color="#AB3C00"/>
<stop offset="0.344" stop-color="#FFC700"/>
<stop offset="0.521" stop-color="#FFDE56"/>
<stop offset="0.672" stop-color="#FFC700"/>
<stop offset="1" stop-color="#AB3C00"/>
</linearGradient>
<linearGradient id="paint39_linear_1601_3617" x1="14.6075" y1="38.5151" x2="12.8415" y2="39.8452" gradientUnits="userSpaceOnUse">
<stop stop-color="#005200"/>
<stop offset="0.312" stop-color="#00A912"/>
<stop offset="0.511" stop-color="#83C512"/>
<stop offset="0.742" stop-color="#00A912"/>
<stop offset="1" stop-color="#003400"/>
</linearGradient>
<linearGradient id="paint40_linear_1601_3617" x1="80.2605" y1="44.8118" x2="79.7078" y2="42.0248" gradientUnits="userSpaceOnUse">
<stop stop-color="#AB3C00"/>
<stop offset="0.344" stop-color="#FFC700"/>
<stop offset="0.521" stop-color="#FFDE56"/>
<stop offset="0.672" stop-color="#FFC700"/>
<stop offset="1" stop-color="#AB3C00"/>
</linearGradient>
<linearGradient id="paint41_linear_1601_3617" x1="70.588" y1="80.4117" x2="71.6487" y2="78.7226" gradientUnits="userSpaceOnUse">
<stop stop-color="#AB3C00"/>
<stop offset="0.344" stop-color="#FFC700"/>
<stop offset="0.521" stop-color="#FFDE56"/>
<stop offset="0.672" stop-color="#FFC700"/>
<stop offset="1" stop-color="#AB3C00"/>
</linearGradient>
<linearGradient id="paint42_linear_1601_3617" x1="44.4929" y1="42.9279" x2="45.4076" y2="39.189" gradientUnits="userSpaceOnUse">
<stop stop-color="#0038AB"/>
<stop offset="0.349" stop-color="#00ACFF"/>
<stop offset="0.516" stop-color="#00D9FF"/>
<stop offset="0.71" stop-color="#00ACFF"/>
<stop offset="1" stop-color="#0038AB"/>
</linearGradient>
<linearGradient id="paint43_linear_1601_3617" x1="117.094" y1="33.8047" x2="120.888" y2="36.1345" gradientUnits="userSpaceOnUse">
<stop stop-color="#005200"/>
<stop offset="0.312" stop-color="#00A912"/>
<stop offset="0.511" stop-color="#83C512"/>
<stop offset="0.742" stop-color="#00A912"/>
<stop offset="1" stop-color="#003400"/>
</linearGradient>
<linearGradient id="paint44_linear_1601_3617" x1="45.0454" y1="56.4636" x2="46.4444" y2="56.0704" gradientUnits="userSpaceOnUse">
<stop stop-color="#0038AB"/>
<stop offset="0.349" stop-color="#00ACFF"/>
<stop offset="0.516" stop-color="#00D9FF"/>
<stop offset="0.71" stop-color="#00ACFF"/>
<stop offset="1" stop-color="#0038AB"/>
</linearGradient>
<linearGradient id="paint45_linear_1601_3617" x1="152.112" y1="80.3126" x2="156.425" y2="78.6965" gradientUnits="userSpaceOnUse">
<stop stop-color="#005200"/>
<stop offset="0.312" stop-color="#00A912"/>
<stop offset="0.511" stop-color="#83C512"/>
<stop offset="0.742" stop-color="#00A912"/>
<stop offset="1" stop-color="#003400"/>
</linearGradient>
<linearGradient id="paint46_linear_1601_3617" x1="148.756" y1="79.2713" x2="147.938" y2="77.4572" gradientUnits="userSpaceOnUse">
<stop stop-color="#0038AB"/>
<stop offset="0.349" stop-color="#00ACFF"/>
<stop offset="0.516" stop-color="#00D9FF"/>
<stop offset="0.71" stop-color="#00ACFF"/>
<stop offset="1" stop-color="#0038AB"/>
</linearGradient>
<linearGradient id="paint47_linear_1601_3617" x1="1.42118" y1="73.8173" x2="1.85574" y2="69.0719" gradientUnits="userSpaceOnUse">
<stop stop-color="#AB3C00"/>
<stop offset="0.344" stop-color="#FFC700"/>
<stop offset="0.521" stop-color="#FFDE56"/>
<stop offset="0.672" stop-color="#FFC700"/>
<stop offset="1" stop-color="#AB3C00"/>
</linearGradient>
<linearGradient id="paint48_linear_1601_3617" x1="137.504" y1="62.0664" x2="138.768" y2="60.2287" gradientUnits="userSpaceOnUse">
<stop stop-color="#0038AB"/>
<stop offset="0.349" stop-color="#00ACFF"/>
<stop offset="0.516" stop-color="#00D9FF"/>
<stop offset="0.71" stop-color="#00ACFF"/>
<stop offset="1" stop-color="#0038AB"/>
</linearGradient>
<linearGradient id="paint49_linear_1601_3617" x1="8.48768" y1="40.9942" x2="7.35977" y2="41.6408" gradientUnits="userSpaceOnUse">
<stop stop-color="#0038AB"/>
<stop offset="0.349" stop-color="#00ACFF"/>
<stop offset="0.516" stop-color="#00D9FF"/>
<stop offset="0.71" stop-color="#00ACFF"/>
<stop offset="1" stop-color="#0038AB"/>
</linearGradient>
<linearGradient id="paint50_linear_1601_3617" x1="24.2795" y1="64.0992" x2="26.9694" y2="64.2567" gradientUnits="userSpaceOnUse">
<stop stop-color="#AB3C00"/>
<stop offset="0.344" stop-color="#FFC700"/>
<stop offset="0.521" stop-color="#FFDE56"/>
<stop offset="0.672" stop-color="#FFC700"/>
<stop offset="1" stop-color="#AB3C00"/>
</linearGradient>
<linearGradient id="paint51_linear_1601_3617" x1="104.5" y1="61.1243" x2="107.837" y2="57.65" gradientUnits="userSpaceOnUse">
<stop stop-color="#0038AB"/>
<stop offset="0.349" stop-color="#00ACFF"/>
<stop offset="0.516" stop-color="#00D9FF"/>
<stop offset="0.71" stop-color="#00ACFF"/>
<stop offset="1" stop-color="#0038AB"/>
</linearGradient>
<linearGradient id="paint52_linear_1601_3617" x1="75.9182" y1="63.8513" x2="78.2418" y2="65.8983" gradientUnits="userSpaceOnUse">
<stop stop-color="#920040"/>
<stop offset="0.296" stop-color="#FF0087"/>
<stop offset="0.548" stop-color="#FF5E97"/>
<stop offset="0.753" stop-color="#FF0087"/>
<stop offset="1" stop-color="#920040"/>
</linearGradient>
<linearGradient id="paint53_linear_1601_3617" x1="16.7785" y1="40.9941" x2="15.1644" y2="43.0932" gradientUnits="userSpaceOnUse">
<stop stop-color="#005200"/>
<stop offset="0.312" stop-color="#00A912"/>
<stop offset="0.511" stop-color="#83C512"/>
<stop offset="0.742" stop-color="#00A912"/>
<stop offset="1" stop-color="#003400"/>
</linearGradient>
<linearGradient id="paint54_linear_1601_3617" x1="9.19811" y1="57.9511" x2="10.4111" y2="58.6308" gradientUnits="userSpaceOnUse">
<stop stop-color="#AB3C00"/>
<stop offset="0.344" stop-color="#FFC700"/>
<stop offset="0.521" stop-color="#FFDE56"/>
<stop offset="0.672" stop-color="#FFC700"/>
<stop offset="1" stop-color="#AB3C00"/>
</linearGradient>
<linearGradient id="paint55_linear_1601_3617" x1="27.5557" y1="23.9379" x2="26.0249" y2="23.4767" gradientUnits="userSpaceOnUse">
<stop stop-color="#005200"/>
<stop offset="0.312" stop-color="#00A912"/>
<stop offset="0.511" stop-color="#83C512"/>
<stop offset="0.742" stop-color="#00A912"/>
<stop offset="1" stop-color="#003400"/>
</linearGradient>
<linearGradient id="paint56_linear_1601_3617" x1="5.60558" y1="20.7647" x2="4.47116" y2="21.1661" gradientUnits="userSpaceOnUse">
<stop stop-color="#005200"/>
<stop offset="0.312" stop-color="#00A912"/>
<stop offset="0.511" stop-color="#83C512"/>
<stop offset="0.742" stop-color="#00A912"/>
<stop offset="1" stop-color="#003400"/>
</linearGradient>
<linearGradient id="paint57_linear_1601_3617" x1="118.91" y1="80.61" x2="116.552" y2="80.2599" gradientUnits="userSpaceOnUse">
<stop stop-color="#400300"/>
<stop offset="0.296" stop-color="#E50300"/>
<stop offset="0.495" stop-color="#FF4022"/>
<stop offset="0.699" stop-color="#E50300"/>
<stop offset="1" stop-color="#3B0300"/>
</linearGradient>
<linearGradient id="paint58_linear_1601_3617" x1="10.7772" y1="64.9918" x2="10.9011" y2="65.9778" gradientUnits="userSpaceOnUse">
<stop stop-color="#AB3C00"/>
<stop offset="0.344" stop-color="#FFC700"/>
<stop offset="0.521" stop-color="#FFDE56"/>
<stop offset="0.672" stop-color="#FFC700"/>
<stop offset="1" stop-color="#AB3C00"/>
</linearGradient>
<linearGradient id="paint59_linear_1601_3617" x1="150.533" y1="61.7194" x2="151.944" y2="62.2982" gradientUnits="userSpaceOnUse">
<stop stop-color="#0038AB"/>
<stop offset="0.349" stop-color="#00ACFF"/>
<stop offset="0.516" stop-color="#00D9FF"/>
<stop offset="0.71" stop-color="#00ACFF"/>
<stop offset="1" stop-color="#0038AB"/>
</linearGradient>
<linearGradient id="paint60_linear_1601_3617" x1="139.518" y1="58.0998" x2="138.775" y2="52.2836" gradientUnits="userSpaceOnUse">
<stop stop-color="#400300"/>
<stop offset="0.296" stop-color="#E50300"/>
<stop offset="0.495" stop-color="#FF4022"/>
<stop offset="0.699" stop-color="#E50300"/>
<stop offset="1" stop-color="#3B0300"/>
</linearGradient>
<linearGradient id="paint61_linear_1601_3617" x1="128.188" y1="31.3752" x2="129.391" y2="29.0936" gradientUnits="userSpaceOnUse">
<stop stop-color="#AB3C00"/>
<stop offset="0.344" stop-color="#FFC700"/>
<stop offset="0.521" stop-color="#FFDE56"/>
<stop offset="0.672" stop-color="#FFC700"/>
<stop offset="1" stop-color="#AB3C00"/>
</linearGradient>
<linearGradient id="paint62_linear_1601_3617" x1="119.502" y1="24.1363" x2="117.669" y2="23.5391" gradientUnits="userSpaceOnUse">
<stop stop-color="#005200"/>
<stop offset="0.312" stop-color="#00A912"/>
<stop offset="0.511" stop-color="#83C512"/>
<stop offset="0.742" stop-color="#00A912"/>
<stop offset="1" stop-color="#003400"/>
</linearGradient>
<linearGradient id="paint63_linear_1601_3617" x1="106.08" y1="33.061" x2="108.778" y2="32.8082" gradientUnits="userSpaceOnUse">
<stop stop-color="#0038AB"/>
<stop offset="0.349" stop-color="#00ACFF"/>
<stop offset="0.516" stop-color="#00D9FF"/>
<stop offset="0.71" stop-color="#00ACFF"/>
<stop offset="1" stop-color="#0038AB"/>
</linearGradient>
<linearGradient id="paint64_linear_1601_3617" x1="144.413" y1="11.84" x2="142.314" y2="11.9976" gradientUnits="userSpaceOnUse">
<stop stop-color="#AB3C00"/>
<stop offset="0.344" stop-color="#FFC700"/>
<stop offset="0.521" stop-color="#FFDE56"/>
<stop offset="0.672" stop-color="#FFC700"/>
<stop offset="1" stop-color="#AB3C00"/>
</linearGradient>
<linearGradient id="paint65_linear_1601_3617" x1="106.356" y1="61.1243" x2="106.05" y2="59.7604" gradientUnits="userSpaceOnUse">
<stop stop-color="#920040"/>
<stop offset="0.296" stop-color="#FF0087"/>
<stop offset="0.548" stop-color="#FF5E97"/>
<stop offset="0.753" stop-color="#FF0087"/>
<stop offset="1" stop-color="#920040"/>
</linearGradient>
<linearGradient id="paint66_linear_1601_3617" x1="62.8112" y1="22.8472" x2="60.5798" y2="23.6517" gradientUnits="userSpaceOnUse">
<stop stop-color="#005200"/>
<stop offset="0.312" stop-color="#00A912"/>
<stop offset="0.511" stop-color="#83C512"/>
<stop offset="0.742" stop-color="#00A912"/>
<stop offset="1" stop-color="#003400"/>
</linearGradient>
<linearGradient id="paint67_linear_1601_3617" x1="20.6873" y1="84.9236" x2="19.1245" y2="84.6684" gradientUnits="userSpaceOnUse">
<stop stop-color="#920040"/>
<stop offset="0.296" stop-color="#FF0087"/>
<stop offset="0.548" stop-color="#FF5E97"/>
<stop offset="0.753" stop-color="#FF0087"/>
<stop offset="1" stop-color="#920040"/>
</linearGradient>
<linearGradient id="paint68_linear_1601_3617" x1="112.317" y1="40.5974" x2="108.131" y2="43.7033" gradientUnits="userSpaceOnUse">
<stop stop-color="#920040"/>
<stop offset="0.296" stop-color="#FF0087"/>
<stop offset="0.548" stop-color="#FF5E97"/>
<stop offset="0.753" stop-color="#FF0087"/>
<stop offset="1" stop-color="#920040"/>
</linearGradient>
<linearGradient id="paint69_linear_1601_3617" x1="137.109" y1="60.9756" x2="134.921" y2="61.8982" gradientUnits="userSpaceOnUse">
<stop stop-color="#920040"/>
<stop offset="0.296" stop-color="#FF0087"/>
<stop offset="0.548" stop-color="#FF5E97"/>
<stop offset="0.753" stop-color="#FF0087"/>
<stop offset="1" stop-color="#920040"/>
</linearGradient>
<linearGradient id="paint70_linear_1601_3617" x1="13.5807" y1="23.5412" x2="15.7226" y2="26.646" gradientUnits="userSpaceOnUse">
<stop stop-color="#920040"/>
<stop offset="0.296" stop-color="#FF0087"/>
<stop offset="0.548" stop-color="#FF5E97"/>
<stop offset="0.753" stop-color="#FF0087"/>
<stop offset="1" stop-color="#920040"/>
</linearGradient>
<linearGradient id="paint71_linear_1601_3617" x1="143.979" y1="35.1434" x2="141.038" y2="35.4598" gradientUnits="userSpaceOnUse">
<stop stop-color="#005200"/>
<stop offset="0.312" stop-color="#00A912"/>
<stop offset="0.511" stop-color="#83C512"/>
<stop offset="0.742" stop-color="#00A912"/>
<stop offset="1" stop-color="#003400"/>
</linearGradient>
<linearGradient id="paint72_linear_1601_3617" x1="132.451" y1="70.7927" x2="135.314" y2="74.254" gradientUnits="userSpaceOnUse">
<stop stop-color="#005200"/>
<stop offset="0.312" stop-color="#00A912"/>
<stop offset="0.511" stop-color="#83C512"/>
<stop offset="0.742" stop-color="#00A912"/>
<stop offset="1" stop-color="#003400"/>
</linearGradient>
<linearGradient id="paint73_linear_1601_3617" x1="106.237" y1="17.6411" x2="107.668" y2="19.3718" gradientUnits="userSpaceOnUse">
<stop stop-color="#005200"/>
<stop offset="0.312" stop-color="#00A912"/>
<stop offset="0.511" stop-color="#83C512"/>
<stop offset="0.742" stop-color="#00A912"/>
<stop offset="1" stop-color="#003400"/>
</linearGradient>
<radialGradient id="paint74_radial_1601_3617" cx="0" cy="0" r="1" gradientUnits="userSpaceOnUse" gradientTransform="translate(59.8086 38.831) scale(15.3713 15.5286)">
<stop stop-color="#707EAC"/>
<stop offset="1" stop-color="white" stop-opacity="0"/>
</radialGradient>
<radialGradient id="paint75_radial_1601_3617" cx="0" cy="0" r="1" gradientUnits="userSpaceOnUse" gradientTransform="translate(72.8907 28.8921) scale(15.3713 15.5286)">
<stop stop-color="#707EAC"/>
<stop offset="1" stop-color="white" stop-opacity="0"/>
</radialGradient>
<radialGradient id="paint76_radial_1601_3617" cx="0" cy="0" r="1" gradientUnits="userSpaceOnUse" gradientTransform="translate(66.8159 44.029) scale(1.60306 1.61947)">
<stop stop-color="#87B6E1"/>
<stop offset="1" stop-color="#346FD3"/>
</radialGradient>
<linearGradient id="paint77_linear_1601_3617" x1="58.9803" y1="38.6611" x2="58.9803" y2="38.6611" gradientUnits="userSpaceOnUse">
<stop stop-color="white"/>
<stop offset="1" stop-color="white"/>
</linearGradient>
<radialGradient id="paint78_radial_1601_3617" cx="0" cy="0" r="1" gradientUnits="userSpaceOnUse" gradientTransform="translate(65.1993 12.6452) scale(24.2916 24.5401)">
<stop offset="0.299" stop-color="white" stop-opacity="0"/>
<stop offset="1" stop-color="white" stop-opacity="0.5"/>
</radialGradient>
<radialGradient id="paint79_radial_1601_3617" cx="0" cy="0" r="1" gradientUnits="userSpaceOnUse" gradientTransform="translate(69.1549 17.0993) scale(4.67991 4.7278)">
<stop stop-color="white"/>
<stop offset="1" stop-color="white" stop-opacity="0"/>
</radialGradient>
<radialGradient id="paint80_radial_1601_3617" cx="0" cy="0" r="1" gradientUnits="userSpaceOnUse" gradientTransform="translate(64.8585 29.6779) rotate(25.2793) scale(17.6243 17.5467)">
<stop stop-color="#707EAC"/>
<stop offset="1" stop-color="white" stop-opacity="0"/>
</radialGradient>
<radialGradient id="paint81_radial_1601_3617" cx="0" cy="0" r="1" gradientUnits="userSpaceOnUse" gradientTransform="translate(73.2001 49.777) rotate(25.3092) scale(1.75378 1.74185)">
<stop stop-color="#FFD88A"/>
<stop offset="1" stop-color="#FF7F00"/>
</radialGradient>
<linearGradient id="paint82_linear_1601_3617" x1="67.9814" y1="40.7888" x2="67.9814" y2="40.7888" gradientUnits="userSpaceOnUse">
<stop stop-color="white"/>
<stop offset="1" stop-color="white"/>
</linearGradient>
<radialGradient id="paint83_radial_1601_3617" cx="0" cy="0" r="1" gradientUnits="userSpaceOnUse" gradientTransform="translate(85.852 18.3135) rotate(25.3155) scale(26.545 26.3489)">
<stop offset="0.299" stop-color="white" stop-opacity="0"/>
<stop offset="1" stop-color="white" stop-opacity="0.5"/>
</radialGradient>
<radialGradient id="paint84_radial_1601_3617" cx="0" cy="0" r="1" gradientUnits="userSpaceOnUse" gradientTransform="translate(87.7363 24.4552) rotate(25.3176) scale(5.11072 5.07218)">
<stop stop-color="white"/>
<stop offset="1" stop-color="white" stop-opacity="0"/>
</radialGradient>
<clipPath id="clip0_1601_3617">
<rect width="154" height="85" fill="white"/>
</clipPath>
</defs>
</svg>
