<svg width="17" height="14" viewBox="0 0 17 14" fill="none" xmlns="http://www.w3.org/2000/svg">
<path d="M0.355225 2C0.355225 0.896875 1.2521 0 2.35522 0H14.3552C15.4583 0 16.3552 0.896875 16.3552 2V12C16.3552 13.1031 15.4583 14 14.3552 14H2.35522C1.2521 14 0.355225 13.1031 0.355225 12V2ZM10.474 5.32812C10.3333 5.12187 10.1021 5 9.85522 5C9.60835 5 9.37397 5.12187 9.23647 5.32812L6.51772 9.31563L5.6896 8.28125C5.54585 8.10312 5.33022 8 5.10522 8C4.88022 8 4.66147 8.10312 4.52085 8.28125L2.52085 10.7812C2.3396 11.0063 2.30522 11.3156 2.43022 11.575C2.55522 11.8344 2.81772 12 3.10522 12H6.10522H7.10522H13.6052C13.8833 12 14.1396 11.8469 14.2677 11.6C14.3959 11.3531 14.3802 11.0562 14.224 10.8281L10.474 5.32812ZM3.85522 5C4.25305 5 4.63458 4.84196 4.91588 4.56066C5.19719 4.27936 5.35522 3.89782 5.35522 3.5C5.35522 3.10218 5.19719 2.72064 4.91588 2.43934C4.63458 2.15804 4.25305 2 3.85522 2C3.4574 2 3.07587 2.15804 2.79456 2.43934C2.51326 2.72064 2.35522 3.10218 2.35522 3.5C2.35522 3.89782 2.51326 4.27936 2.79456 4.56066C3.07587 4.84196 3.4574 5 3.85522 5Z" fill="#28519E"/>
</svg>
