<svg width="17" height="12" viewBox="0 0 17 12" fill="none" xmlns="http://www.w3.org/2000/svg">
<path id="Vector" d="M16.4878 1.6771L6.48783 11.6771C6.40074 11.7645 6.29724 11.8339 6.18329 11.8812C6.06933 11.9285 5.94716 11.9528 5.82377 11.9528C5.70038 11.9528 5.57821 11.9285 5.46425 11.8812C5.3503 11.8339 5.2468 11.7645 5.15971 11.6771L0.784707 7.3021C0.697501 7.2149 0.628326 7.11137 0.58113 6.99743C0.533935 6.88349 0.509644 6.76137 0.509644 6.63804C0.509644 6.51471 0.533935 6.39259 0.58113 6.27865C0.628326 6.16471 0.697501 6.06119 0.784707 5.97398C0.871913 5.88677 0.975442 5.8176 1.08938 5.7704C1.20332 5.72321 1.32544 5.69891 1.44877 5.69891C1.5721 5.69891 1.69422 5.72321 1.80816 5.7704C1.9221 5.8176 2.02563 5.88677 2.11283 5.97398L5.82455 9.6857L15.1613 0.350541C15.3374 0.174421 15.5763 0.0754776 15.8253 0.0754776C16.0744 0.0754776 16.3133 0.174421 16.4894 0.350541C16.6655 0.526661 16.7645 0.765532 16.7645 1.0146C16.7645 1.26368 16.6655 1.50255 16.4894 1.67867L16.4878 1.6771Z" fill="#775A19"/>
</svg>
