<svg width="80" height="81" viewBox="0 0 80 81" fill="none" xmlns="http://www.w3.org/2000/svg">
<circle cx="40" cy="40.3594" r="40" fill="#E9ECEB"/>
<g clip-path="url(#clip0_1671_2899)">
<rect x="15.0516" y="26.0498" width="50.3093" height="32.4533" rx="5.36083" fill="white"/>
<path d="M62.6602 58.3616H17.7522C17.0362 58.3608 16.3498 58.0758 15.8435 57.5692C15.3372 57.0626 15.0524 56.3757 15.0516 55.6593V28.7902C15.0524 28.0738 15.3372 27.3869 15.8435 26.8803C16.3498 26.3737 17.0362 26.0887 17.7522 26.0879H62.6602C63.3762 26.0887 64.0627 26.3737 64.5689 26.8803C65.0752 27.3869 65.36 28.0738 65.3609 28.7902V55.6593C65.36 56.3757 65.0752 57.0626 64.5689 57.5692C64.0627 58.0758 63.3762 58.3608 62.6602 58.3616ZM17.7522 26.5512C17.159 26.5518 16.5902 26.788 16.1707 27.2077C15.7512 27.6275 15.5152 28.1966 15.5145 28.7902V55.6593C15.5152 56.2529 15.7512 56.8221 16.1707 57.2418C16.5902 57.6616 17.159 57.8977 17.7522 57.8984H62.6602C63.2535 57.8977 63.8222 57.6616 64.2417 57.2418C64.6612 56.8221 64.8972 56.2529 64.8979 55.6593V28.7902C64.8972 28.1966 64.6612 27.6275 64.2417 27.2077C63.8222 26.788 63.2535 26.5518 62.6602 26.5512H17.7522Z" fill="#CCCCCC"/>
<path d="M23.7708 32.4201C23.3893 32.4201 23.0163 32.3069 22.6991 32.0948C22.3819 31.8827 22.1346 31.5812 21.9886 31.2285C21.8426 30.8758 21.8044 30.4877 21.8789 30.1132C21.9533 29.7388 22.137 29.3949 22.4068 29.1249C22.6766 28.855 23.0203 28.6711 23.3945 28.5967C23.7687 28.5222 24.1566 28.5604 24.509 28.7065C24.8615 28.8526 25.1628 29.1 25.3748 29.4174C25.5867 29.7349 25.6999 30.108 25.6999 30.4898C25.6993 31.0016 25.4959 31.4922 25.1342 31.8541C24.7726 32.2159 24.2823 32.4195 23.7708 32.4201ZM23.7708 29.0228C23.4809 29.0228 23.1974 29.1089 22.9563 29.2701C22.7152 29.4313 22.5273 29.6604 22.4164 29.9284C22.3054 30.1965 22.2764 30.4914 22.3329 30.776C22.3895 31.0606 22.5291 31.322 22.7342 31.5271C22.9392 31.7323 23.2004 31.872 23.4848 31.9286C23.7692 31.9852 24.064 31.9562 24.3319 31.8451C24.5998 31.7341 24.8287 31.5461 24.9898 31.3048C25.1509 31.0636 25.2369 30.78 25.2369 30.4898C25.2365 30.1009 25.0819 29.728 24.807 29.453C24.5322 29.178 24.1595 29.0233 23.7708 29.0228Z" fill="#CCCCCC"/>
<path d="M56.333 32.4201C55.9514 32.4201 55.5785 32.3069 55.2613 32.0948C54.944 31.8827 54.6968 31.5812 54.5508 31.2285C54.4048 30.8758 54.3666 30.4877 54.441 30.1132C54.5154 29.7388 54.6992 29.3949 54.9689 29.1249C55.2387 28.855 55.5824 28.6711 55.9566 28.5967C56.3308 28.5222 56.7187 28.5604 57.0712 28.7065C57.4237 28.8526 57.7249 29.1 57.9369 29.4174C58.1489 29.7349 58.262 30.108 58.262 30.4898C58.2614 31.0016 58.058 31.4922 57.6964 31.8541C57.3347 32.2159 56.8444 32.4195 56.333 32.4201ZM56.333 29.0228C56.043 29.0228 55.7596 29.1089 55.5185 29.2701C55.2774 29.4313 55.0895 29.6604 54.9785 29.9284C54.8675 30.1965 54.8385 30.4914 54.8951 30.776C54.9516 31.0606 55.0913 31.322 55.2963 31.5271C55.5013 31.7323 55.7626 31.872 56.0469 31.9286C56.3313 31.9852 56.6261 31.9562 56.894 31.8451C57.1619 31.7341 57.3909 31.5461 57.552 31.3048C57.713 31.0636 57.799 30.78 57.799 30.4898C57.7986 30.1009 57.644 29.728 57.3691 29.453C57.0943 29.178 56.7217 29.0233 56.333 29.0228Z" fill="#CCCCCC"/>
<path d="M28.3233 44.1554H19.9899C19.6421 44.155 19.3087 44.0166 19.0628 43.7705C18.8169 43.5245 18.6785 43.1909 18.6781 42.8429V37.9014C18.6785 37.5534 18.8169 37.2198 19.0628 36.9738C19.3087 36.7277 19.6421 36.5893 19.9899 36.5889H28.3233C28.6711 36.5893 29.0045 36.7277 29.2504 36.9738C29.4963 37.2198 29.6346 37.5534 29.6351 37.9014V42.8429C29.6346 43.1909 29.4963 43.5245 29.2504 43.7705C29.0045 44.0166 28.6711 44.155 28.3233 44.1554Z" fill="#E6E6E6"/>
<path d="M44.3729 44.1554H36.0395C35.6917 44.155 35.3583 44.0166 35.1124 43.7705C34.8665 43.5245 34.7282 43.1909 34.7278 42.8429V37.9014C34.7282 37.5534 34.8665 37.2198 35.1124 36.9738C35.3583 36.7277 35.6917 36.5893 36.0395 36.5889H44.3729C44.7207 36.5893 45.0541 36.7277 45.3 36.9738C45.5459 37.2198 45.6843 37.5534 45.6847 37.9014V42.8429C45.6843 43.1909 45.5459 43.5245 45.3 43.7705C45.0541 44.0166 44.7207 44.155 44.3729 44.1554Z" fill="#E6E6E6"/>
<path d="M52.0891 36.7432C51.7822 36.7435 51.488 36.8656 51.271 37.0827C51.054 37.2999 50.932 37.5943 50.9316 37.9013V42.8427C50.932 43.1498 51.054 43.4442 51.271 43.6613C51.488 43.8784 51.7822 44.0006 52.0891 44.0009H60.4225C60.7294 44.0006 61.0236 43.8784 61.2406 43.6613C61.4575 43.4442 61.5796 43.1498 61.5799 42.8427V37.9013C61.5796 37.5943 61.4575 37.2999 61.2406 37.0827C61.0236 36.8656 60.7294 36.7435 60.4225 36.7432H52.0891Z" fill="#E6E6E6"/>
<path d="M28.4005 54.0383H20.0671C19.7193 54.0378 19.3859 53.8994 19.14 53.6534C18.8941 53.4073 18.7558 53.0737 18.7553 52.7257V47.7842C18.7558 47.4363 18.8941 47.1026 19.14 46.8566C19.3859 46.6105 19.7193 46.4721 20.0671 46.4717H28.4005C28.7483 46.4721 29.0817 46.6105 29.3276 46.8566C29.5735 47.1026 29.7119 47.4363 29.7123 47.7842V52.7257C29.7119 53.0737 29.5735 53.4073 29.3276 53.6534C29.0817 53.8994 28.7483 54.0378 28.4005 54.0383Z" fill="#E6E6E6"/>
<path d="M44.4501 54.0383H36.1166C35.7689 54.0378 35.4355 53.8994 35.1896 53.6534C34.9436 53.4073 34.8053 53.0737 34.8049 52.7257V47.7842C34.8053 47.4363 34.9436 47.1026 35.1896 46.8566C35.4355 46.6105 35.7689 46.4721 36.1166 46.4717H44.4501C44.7979 46.4721 45.1313 46.6105 45.3772 46.8566C45.6231 47.1026 45.7614 47.4363 45.7618 47.7842V52.7257C45.7614 53.0737 45.6231 53.4073 45.3772 53.6534C45.1313 53.8994 44.7979 54.0378 44.4501 54.0383Z" fill="#E6E6E6"/>
<path d="M60.4996 54.0383H52.1662C51.8184 54.0378 51.485 53.8994 51.2391 53.6534C50.9932 53.4073 50.8548 53.0737 50.8544 52.7257V47.7842C50.8548 47.4363 50.9932 47.1026 51.2391 46.8566C51.485 46.6105 51.8184 46.4721 52.1662 46.4717H60.4996C60.8474 46.4721 61.1808 46.6105 61.4267 46.8566C61.6726 47.1026 61.8109 47.4363 61.8114 47.7842V52.7257C61.8109 53.0737 61.6726 53.4073 61.4267 53.6534C61.1808 53.8994 60.8474 54.0378 60.4996 54.0383Z" fill="#E6E6E6"/>
<path d="M23.7708 31.0304C23.6276 31.0303 23.4903 30.9733 23.3891 30.872C23.2878 30.7706 23.2309 30.6333 23.2307 30.49V22.769C23.2307 22.6256 23.2876 22.4882 23.3889 22.3868C23.4902 22.2855 23.6276 22.2285 23.7708 22.2285C23.9141 22.2285 24.0514 22.2855 24.1527 22.3868C24.254 22.4882 24.3109 22.6256 24.3109 22.769V30.49C24.3108 30.6333 24.2538 30.7706 24.1526 30.872C24.0513 30.9733 23.914 31.0303 23.7708 31.0304Z" fill="#CCCCCC"/>
<path d="M56.3329 31.0304C56.1897 31.0303 56.0524 30.9733 55.9512 30.872C55.8499 30.7706 55.793 30.6333 55.7928 30.49V22.769C55.7928 22.6256 55.8497 22.4882 55.951 22.3868C56.0523 22.2855 56.1897 22.2285 56.3329 22.2285C56.4762 22.2285 56.6135 22.2855 56.7148 22.3868C56.8161 22.4882 56.873 22.6256 56.873 22.769V30.49C56.8729 30.6333 56.8159 30.7706 56.7147 30.872C56.6134 30.9733 56.4761 31.0303 56.3329 31.0304Z" fill="#CCCCCC"/>
</g>
<defs>
<clipPath id="clip0_1671_2899">
<rect width="50.3093" height="36.2887" fill="white" transform="translate(15.0515 22.2148)"/>
</clipPath>
</defs>
</svg>
