<svg xmlns="http://www.w3.org/2000/svg" width="21" height="20" viewBox="0 0 21 20" fill="none">
  <path d="M16.8198 4.375H14.6542L13.5894 2.77813C13.5323 2.69262 13.455 2.6225 13.3644 2.57399C13.2738 2.52548 13.1726 2.50006 13.0698 2.5H8.06982C7.96703 2.50006 7.86584 2.52548 7.77522 2.57399C7.6846 2.6225 7.60734 2.69262 7.55029 2.77813L6.48467 4.375H4.31982C3.82254 4.375 3.34563 4.57254 2.994 4.92417C2.64237 5.27581 2.44482 5.75272 2.44482 6.25V15C2.44482 15.4973 2.64237 15.9742 2.994 16.3258C3.34563 16.6775 3.82254 16.875 4.31982 16.875H16.8198C17.3171 16.875 17.794 16.6775 18.1456 16.3258C18.4973 15.9742 18.6948 15.4973 18.6948 15V6.25C18.6948 5.75272 18.4973 5.27581 18.1456 4.92417C17.794 4.57254 17.3171 4.375 16.8198 4.375ZM13.3823 10.3125C13.3823 10.8688 13.2174 11.4125 12.9083 11.875C12.5993 12.3376 12.16 12.698 11.6461 12.9109C11.1322 13.1238 10.5667 13.1795 10.0211 13.071C9.47556 12.9624 8.97442 12.6946 8.58109 12.3012C8.18775 11.9079 7.91989 11.4068 7.81137 10.8612C7.70284 10.3156 7.75854 9.75012 7.97141 9.2362C8.18428 8.72229 8.54477 8.28303 9.00728 7.97399C9.4698 7.66495 10.0136 7.5 10.5698 7.5C11.3157 7.5 12.0311 7.79632 12.5586 8.32376C13.086 8.85121 13.3823 9.56658 13.3823 10.3125Z" fill="white"/>
</svg>