<svg xmlns="http://www.w3.org/2000/svg" width="20" height="20" viewBox="0 0 20 20" fill="none">
<path d="M9.875 0.10376C7.94664 0.10376 6.06157 0.675587 4.45819 1.74693C2.85482 2.81827 1.60513 4.34102 0.867179 6.1226C0.129225 7.90418 -0.063858 9.86458 0.312348 11.7559C0.688554 13.6472 1.61715 15.3845 2.98071 16.7481C4.34428 18.1116 6.08156 19.0402 7.97287 19.4164C9.86419 19.7926 11.8246 19.5995 13.6062 18.8616C15.3877 18.1236 16.9105 16.8739 17.9818 15.2706C19.0532 13.6672 19.625 11.7821 19.625 9.85376C19.6223 7.26874 18.5942 4.79037 16.7663 2.96248C14.9384 1.1346 12.46 0.10649 9.875 0.10376ZM12.6556 10.3844L8.90563 14.1344C8.83595 14.2041 8.75322 14.2593 8.66218 14.2971C8.57113 14.3348 8.47355 14.3542 8.375 14.3542C8.27646 14.3542 8.17888 14.3348 8.08783 14.2971C7.99679 14.2593 7.91406 14.2041 7.84438 14.1344C7.7747 14.0647 7.71942 13.982 7.68171 13.8909C7.644 13.7999 7.62459 13.7023 7.62459 13.6038C7.62459 13.5052 7.644 13.4076 7.68171 13.3166C7.71942 13.2255 7.7747 13.1428 7.84438 13.0731L11.0647 9.85376L7.84438 6.63439C7.70365 6.49365 7.62459 6.30278 7.62459 6.10376C7.62459 5.90474 7.70365 5.71386 7.84438 5.57313C7.98511 5.4324 8.17598 5.35334 8.375 5.35334C8.57403 5.35334 8.7649 5.4324 8.90563 5.57313L12.6556 9.32313C12.7254 9.39279 12.7807 9.47551 12.8184 9.56656C12.8562 9.6576 12.8756 9.7552 12.8756 9.85376C12.8756 9.95232 12.8562 10.0499 12.8184 10.141C12.7807 10.232 12.7254 10.3147 12.6556 10.3844Z" fill="white"/>
</svg>