<svg width="18" height="16" viewBox="0 0 18 16" fill="none" xmlns="http://www.w3.org/2000/svg">
<path d="M16.7266 4.02227V1.45508C16.7266 1.12356 16.5949 0.805615 16.3604 0.571195C16.126 0.336774 15.8081 0.205078 15.4766 0.205078H1.72656C1.39504 0.205078 1.0771 0.336774 0.842679 0.571195C0.608259 0.805615 0.476563 1.12356 0.476562 1.45508V11.4551C0.476563 11.7866 0.608259 12.1045 0.842679 12.339C1.0771 12.5734 1.39504 12.7051 1.72656 12.7051H10.4766V14.5801C10.4765 14.6867 10.5037 14.7915 10.5555 14.8846C10.6074 14.9778 10.6822 15.0561 10.7729 15.1121C10.8635 15.1682 10.967 15.2001 11.0735 15.2049C11.18 15.2097 11.2859 15.1872 11.3813 15.1395L13.6016 14.0285L15.8219 15.1395C15.9172 15.1872 16.0231 15.2097 16.1296 15.2049C16.2361 15.2001 16.3396 15.1682 16.4303 15.1121C16.5209 15.0561 16.5957 14.9778 16.6476 14.8846C16.6995 14.7915 16.7266 14.6867 16.7266 14.5801V10.1379C17.5278 9.32176 17.9767 8.22376 17.9767 7.08008C17.9767 5.93639 17.5278 4.8384 16.7266 4.02227ZM8.60156 8.33008H4.22656C4.0608 8.33008 3.90183 8.26423 3.78462 8.14702C3.66741 8.02981 3.60156 7.87084 3.60156 7.70508C3.60156 7.53932 3.66741 7.38035 3.78462 7.26314C3.90183 7.14593 4.0608 7.08008 4.22656 7.08008H8.60156C8.76732 7.08008 8.9263 7.14593 9.04351 7.26314C9.16072 7.38035 9.22656 7.53932 9.22656 7.70508C9.22656 7.87084 9.16072 8.02981 9.04351 8.14702C8.9263 8.26423 8.76732 8.33008 8.60156 8.33008ZM8.60156 5.83008H4.22656C4.0608 5.83008 3.90183 5.76423 3.78462 5.64702C3.66741 5.52981 3.60156 5.37084 3.60156 5.20508C3.60156 5.03932 3.66741 4.88035 3.78462 4.76314C3.90183 4.64593 4.0608 4.58008 4.22656 4.58008H8.60156C8.76732 4.58008 8.9263 4.64593 9.04351 4.76314C9.16072 4.88035 9.22656 5.03932 9.22656 5.20508C9.22656 5.37084 9.16072 5.52981 9.04351 5.64702C8.9263 5.76423 8.76732 5.83008 8.60156 5.83008ZM15.4766 13.5691L13.8813 12.7707C13.7944 12.7273 13.6987 12.7046 13.6016 12.7046C13.5045 12.7046 13.4087 12.7273 13.3219 12.7707L11.7266 13.5691V11.0324C12.3125 11.3107 12.9529 11.4551 13.6016 11.4551C14.2502 11.4551 14.8907 11.3107 15.4766 11.0324V13.5691ZM13.6016 10.2051C12.9835 10.2051 12.3793 10.0218 11.8654 9.67842C11.3515 9.33504 10.951 8.84698 10.7144 8.27596C10.4779 7.70495 10.416 7.07661 10.5366 6.47042C10.6572 5.86423 10.9548 5.30741 11.3919 4.87037C11.8289 4.43333 12.3857 4.1357 12.9919 4.01512C13.5981 3.89455 14.2264 3.95643 14.7975 4.19295C15.3685 4.42948 15.8565 4.83002 16.1999 5.34392C16.5433 5.85782 16.7266 6.46201 16.7266 7.08008C16.7266 7.90888 16.3973 8.70374 15.8113 9.28979C15.2252 9.87584 14.4304 10.2051 13.6016 10.2051Z" fill="#343435"/>
</svg>
