<svg width="183" height="37" viewBox="0 0 183 37" fill="none" xmlns="http://www.w3.org/2000/svg">
<g clip-path="url(#clip0_2709_1184)">
<path d="M137.002 4.83316C137.002 4.34042 137.148 3.85874 137.422 3.44903C137.696 3.03933 138.085 2.72001 138.54 2.53144C138.995 2.34288 139.496 2.29354 139.98 2.38967C140.463 2.4858 140.907 2.72308 141.255 3.0715C141.604 3.41992 141.841 3.86384 141.937 4.34712C142.033 4.8304 141.984 5.33133 141.795 5.78656C141.607 6.2418 141.287 6.6309 140.878 6.90465C140.468 7.17841 139.986 7.32452 139.494 7.32452C138.835 7.31697 138.206 7.05207 137.74 6.58647C137.275 6.12088 137.01 5.49157 137.002 4.83316Z" fill="#FBB516"/>
<path d="M106.703 4.83316C106.712 4.17508 106.977 3.54638 107.442 3.08101C107.908 2.61564 108.536 2.3504 109.194 2.3418C109.859 2.3418 110.495 2.60559 110.965 3.07515C111.435 3.54471 111.698 4.18156 111.698 4.84562C111.698 5.50967 111.435 6.14653 110.965 6.61609C110.495 7.08564 109.859 7.34944 109.194 7.34944C108.532 7.34073 107.9 7.07204 107.434 6.60132C106.968 6.1306 106.705 5.49557 106.703 4.83316Z" fill="#FBB516"/>
<path d="M64.5242 4.83316C64.5328 4.17508 64.798 3.54638 65.2634 3.08101C65.7288 2.61564 66.3575 2.3504 67.0155 2.3418C67.6796 2.3418 68.3164 2.60559 68.786 3.07515C69.2556 3.54471 69.5193 4.18156 69.5193 4.84562C69.5193 5.50967 69.2556 6.14653 68.786 6.61609C68.3164 7.08564 67.6796 7.34944 67.0155 7.34944C66.3532 7.34073 65.7208 7.07204 65.2547 6.60132C64.7887 6.1306 64.5263 5.49557 64.5242 4.83316Z" fill="#FBB516"/>
<path d="M69.0709 9.6084H65.0266V28.2064H69.0709V9.6084Z" fill="white"/>
<path d="M84.4843 9.13477C83.2435 9.14518 82.0189 9.41806 80.891 9.93547C79.7632 10.4529 78.7576 11.2031 77.9403 12.1369V9.60812H73.896V28.2103H77.9403V15.2303C78.4935 14.4784 79.2114 13.8629 80.0391 13.4311C80.8667 12.9993 81.7822 12.7625 82.7154 12.7389C84.9867 12.7389 86.4525 13.7023 86.4525 16.5922V28.2186H90.4968V15.114C90.4926 11.3023 88.4995 9.13477 84.4843 9.13477Z" fill="white"/>
<path d="M100.35 9.6086V8.57053C100.35 6.4944 101.351 5.45218 102.929 5.45218C103.498 5.42183 104.063 5.56674 104.548 5.8674L105.433 2.86116C104.433 2.35399 103.322 2.10558 102.202 2.13866C98.7764 2.13866 96.31 4.40996 96.31 8.57053V9.6086H93.229V13.1505H96.31V28.2108H100.354V13.1505H107.21V28.2108H111.254V9.6086H100.35Z" fill="white"/>
<path d="M126.75 9.13477C125.509 9.14564 124.284 9.41871 123.155 9.93607C122.027 10.4534 121.02 11.2034 120.202 12.1369V9.60812H116.158V28.2103H120.202V15.2303C120.755 14.4786 121.473 13.8633 122.301 13.4315C123.129 12.9998 124.044 12.7629 124.977 12.7389C127.248 12.7389 128.714 13.7023 128.714 16.5922V28.2186H132.754V15.114C132.754 11.3023 130.753 9.13477 126.75 9.13477Z" fill="white"/>
<path d="M141.545 9.6084H137.5V28.2064H141.545V9.6084Z" fill="white"/>
<path d="M153.08 25.0884C151.925 25.0884 151.311 24.1666 151.311 22.896V13.1506H155.085V9.60875H151.311V4.52637H147.267V9.60875H144.186V13.1506H147.267V23.8967C147.267 26.9777 148.927 28.6718 152.042 28.6718C153.927 28.6718 155.123 28.1694 155.853 27.476L154.89 24.4365C154.391 24.8759 153.744 25.109 153.08 25.0884Z" fill="white"/>
<path d="M172.039 9.6084L166.608 23.5476L161.164 9.6084H156.867L164.486 28.439L163.564 30.5566C163.025 31.8023 162.177 32.176 160.907 32.176C160.379 32.1699 159.856 32.0657 159.366 31.8687L158.748 35.4854C159.495 35.6506 160.258 35.741 161.023 35.7553C163.913 35.7096 166.147 34.7172 167.418 31.5573L176.391 9.6084H172.039Z" fill="white"/>
<path d="M182.644 12.0343C182.644 12.3738 182.58 12.695 182.451 12.9978C182.323 13.3006 182.146 13.5667 181.921 13.7961C181.697 14.021 181.431 14.1999 181.123 14.3329C180.82 14.466 180.495 14.5325 180.146 14.5325C179.797 14.5325 179.471 14.4683 179.169 14.3398C178.866 14.2068 178.602 14.0278 178.377 13.803C178.157 13.5782 177.983 13.3144 177.854 13.0116C177.726 12.7087 177.661 12.3876 177.661 12.0481C177.661 11.7085 177.726 11.3874 177.854 11.0845C177.983 10.7817 178.159 10.5179 178.384 10.2931C178.609 10.0637 178.873 9.88245 179.175 9.74939C179.483 9.61633 179.811 9.5498 180.16 9.5498C180.508 9.5498 180.834 9.61633 181.137 9.74939C181.44 9.87786 181.701 10.0545 181.921 10.2793C182.146 10.5041 182.323 10.768 182.451 11.0708C182.58 11.3736 182.644 11.6948 182.644 12.0343ZM182.383 12.0343C182.383 11.7269 182.325 11.4378 182.211 11.1671C182.1 10.8918 181.944 10.6533 181.743 10.4514C181.545 10.2495 181.311 10.0912 181.041 9.9765C180.77 9.85721 180.476 9.79756 180.16 9.79756C179.843 9.79756 179.547 9.85721 179.272 9.9765C179.001 10.0958 178.765 10.2564 178.563 10.4583C178.366 10.6601 178.21 10.8987 178.095 11.174C177.98 11.4493 177.923 11.7406 177.923 12.0481C177.923 12.36 177.978 12.6514 178.088 12.9221C178.203 13.1928 178.359 13.4291 178.556 13.631C178.758 13.8328 178.994 13.9934 179.265 14.1127C179.536 14.2274 179.829 14.2848 180.146 14.2848C180.462 14.2848 180.756 14.2251 181.027 14.1058C181.302 13.9865 181.538 13.826 181.736 13.6241C181.938 13.4222 182.096 13.1859 182.211 12.9152C182.325 12.6399 182.383 12.3463 182.383 12.0343ZM181.316 11.4975C181.316 11.7131 181.258 11.8875 181.144 12.0205C181.034 12.149 180.889 12.2385 180.71 12.2889L181.412 13.2731H180.82L180.187 12.3715H179.643V13.2731H179.148V10.6647H180.311C180.614 10.6647 180.857 10.7381 181.041 10.885C181.224 11.0318 181.316 11.2359 181.316 11.4975ZM180.807 11.525C180.807 11.3919 180.761 11.291 180.669 11.2222C180.577 11.1488 180.451 11.1121 180.29 11.1121H179.643V11.9379H180.29C180.451 11.9379 180.577 11.9012 180.669 11.8278C180.761 11.7544 180.807 11.6535 180.807 11.525Z" fill="white"/>
<path d="M51.7269 8.33368L53.3214 10.0818L56.8467 6.87208C55.4663 4.88579 53.6272 3.26175 51.4854 2.13772C49.3436 1.01369 46.9623 0.422839 44.5435 0.415292C40.8903 0.406415 37.3711 1.79033 34.7026 4.28521C31.987 6.77657 29.9524 10.2022 27.9468 13.5199C26.1655 16.4929 24.3219 19.5697 22.0631 21.8535C20.2693 23.668 17.8028 24.5815 14.7302 24.5815C12.1543 24.5815 9.684 23.5583 7.86262 21.7369C6.04123 19.9155 5.01799 17.4452 5.01799 14.8694C5.01799 12.2935 6.04123 9.8232 7.86262 8.00182C9.684 6.18043 12.1543 5.15719 14.7302 5.15719C19.2603 5.15719 22.2914 8.47901 23.3586 9.86171L25.9538 5.67622C24.4075 3.78943 22.4093 2.32416 20.1449 1.41662C17.8806 0.50907 15.4235 0.188697 13.0022 0.485273C10.5808 0.781849 8.27373 1.68575 6.29534 3.11296C4.31695 4.54017 2.73148 6.44437 1.68628 8.64858C0.641081 10.8528 0.170084 13.2854 0.317064 15.7205C0.464043 18.1555 1.22423 20.5139 2.52697 22.5763C3.8297 24.6388 5.63271 26.3385 7.7684 27.5174C9.90409 28.6963 12.3032 29.3161 14.7426 29.3193C19.0651 29.3193 22.7607 27.8909 25.4389 25.167C28.1171 22.4431 30.0811 19.1711 32.0285 15.9572C33.9759 12.7434 35.7157 9.80358 37.9372 7.76897C38.8772 6.89169 39.9821 6.20981 41.1877 5.76287C42.3934 5.31593 43.6757 5.11283 44.9604 5.16537C46.2452 5.2179 47.5067 5.52501 48.6718 6.06889C49.8369 6.61277 50.8824 7.38258 51.7477 8.33368H51.7269Z" fill="#FBB516"/>
<path d="M43.439 13.6033V18.341H53.6203L53.4958 18.6441C52.7552 20.407 51.5096 21.9115 49.9159 22.968C48.3221 24.0246 46.4515 24.5861 44.5393 24.5819C43.2936 24.5819 41.3047 24.1667 38.7261 22.0905C37.8795 21.4125 37.0906 20.6653 36.3676 19.8566L33.7351 24.1459C35.1386 25.8068 38.8175 29.3196 44.531 29.3196C48.1298 29.3905 51.623 28.1021 54.3138 25.7113C56.567 23.7595 58.1417 21.1422 58.8107 18.2372C59.1941 16.7201 59.3121 15.1481 59.1595 13.5908L43.439 13.6033Z" fill="#FBB516"/>
</g>
<defs>
<clipPath id="clip0_2709_1184">
<rect width="182.7" height="36.1248" fill="white"/>
</clipPath>
</defs>
</svg>
