<svg width="154" height="41" viewBox="0 0 154 41" fill="none" xmlns="http://www.w3.org/2000/svg">
<g clip-path="url(#clip0_251_13295)">
<path d="M113.906 4.01186C113.906 3.60285 114.028 3.20303 114.255 2.86296C114.482 2.52288 114.805 2.25783 115.183 2.10131C115.561 1.94479 115.977 1.90384 116.378 1.98363C116.779 2.06342 117.147 2.26038 117.437 2.54959C117.726 2.8388 117.923 3.20727 118.002 3.60842C118.082 4.00956 118.041 4.42536 117.885 4.80323C117.728 5.18111 117.463 5.50408 117.123 5.73131C116.783 5.95854 116.383 6.07982 115.974 6.07982C115.428 6.07356 114.905 5.85367 114.519 5.4672C114.132 5.08073 113.913 4.55837 113.906 4.01186Z" fill="#FBB516"/>
<path d="M88.7564 4.01186C88.7635 3.46562 88.9837 2.94376 89.37 2.55748C89.7563 2.1712 90.2781 1.95103 90.8244 1.94389C91.3756 1.94389 91.9042 2.16286 92.294 2.55261C92.6837 2.94237 92.9027 3.471 92.9027 4.0222C92.9027 4.5734 92.6837 5.10202 92.294 5.49178C91.9042 5.88154 91.3756 6.1005 90.8244 6.1005C90.2746 6.09327 89.7497 5.87025 89.3628 5.47952C88.976 5.0888 88.7582 4.56169 88.7564 4.01186Z" fill="#FBB516"/>
<path d="M53.7458 4.01186C53.7529 3.46562 53.9731 2.94376 54.3593 2.55748C54.7456 2.1712 55.2675 1.95103 55.8137 1.94389C56.3649 1.94389 56.8935 2.16286 57.2833 2.55261C57.6731 2.94237 57.892 3.471 57.892 4.0222C57.892 4.5734 57.6731 5.10202 57.2833 5.49178C56.8935 5.88154 56.3649 6.1005 55.8137 6.1005C55.2639 6.09327 54.739 5.87025 54.3522 5.47952C53.9653 5.0888 53.7475 4.56169 53.7458 4.01186Z" fill="#FBB516"/>
<path d="M57.5199 7.97545H54.1629V23.4128H57.5199V7.97545Z" fill="white"/>
<path d="M70.3136 7.58253C69.2837 7.59118 68.2672 7.81768 67.331 8.24716C66.3948 8.67664 65.5601 9.29937 64.8818 10.0744V7.97545H61.5248V23.4162H64.8818V12.6422C65.341 12.018 65.9369 11.5072 66.6239 11.1487C67.3109 10.7903 68.0707 10.5938 68.8454 10.5742C70.7307 10.5742 71.9473 11.3738 71.9473 13.7726V23.4231H75.3043V12.5456C75.3009 9.38166 73.6465 7.58253 70.3136 7.58253Z" fill="white"/>
<path d="M83.4831 7.97544V7.11379C83.4831 5.39048 84.3138 4.52538 85.6235 4.52538C86.0962 4.50019 86.5653 4.62048 86.9677 4.87005L87.7018 2.3747C86.8722 1.95372 85.9502 1.74753 85.0203 1.77499C82.1769 1.77499 80.1296 3.66029 80.1296 7.11379V7.97544H77.5722V10.9154H80.1296V23.4162H83.4866V10.9154H89.1769V23.4162H92.5339V7.97544H83.4831Z" fill="white"/>
<path d="M105.397 7.58253C104.366 7.59156 103.349 7.81822 102.413 8.24766C101.476 8.6771 100.641 9.29962 99.9613 10.0744V7.97545H96.6043V23.4162H99.9613V12.6422C100.421 12.0182 101.017 11.5075 101.704 11.1491C102.391 10.7907 103.15 10.594 103.925 10.5742C105.81 10.5742 107.027 11.3738 107.027 13.7726V23.4231H110.38V12.5456C110.38 9.38166 108.719 7.58253 105.397 7.58253Z" fill="white"/>
<path d="M117.677 7.97545H114.32V23.4128H117.677V7.97545Z" fill="white"/>
<path d="M127.252 20.8244C126.293 20.8244 125.783 20.0593 125.783 19.0046V10.9154H128.916V7.97545H125.783V3.75681H122.426V7.97545H119.869V10.9154H122.426V19.8352C122.426 22.3926 123.805 23.7988 126.39 23.7988C127.955 23.7988 128.947 23.3818 129.554 22.8062L128.754 20.2833C128.34 20.648 127.803 20.8415 127.252 20.8244Z" fill="white"/>
<path d="M142.989 7.97545L138.481 19.5457L133.962 7.97545H130.395L136.719 23.6058L135.954 25.3636C135.506 26.3976 134.803 26.7078 133.748 26.7078C133.31 26.7027 132.877 26.6162 132.47 26.4527L131.956 29.4547C132.577 29.5919 133.209 29.6669 133.845 29.6787C136.244 29.6408 138.098 28.8171 139.153 26.1942L146.601 7.97545H142.989Z" fill="white"/>
<path d="M43.1233 6.91735L44.4468 8.36837L47.373 5.70415C46.2272 4.05542 44.7007 2.70738 42.9229 1.77438C41.1451 0.841373 39.1685 0.350937 37.1607 0.344672C34.1284 0.337304 31.2073 1.48602 28.9922 3.55691C26.7382 5.62487 25.0493 8.46833 23.3846 11.2222C21.906 13.6899 20.3757 16.2439 18.5008 18.1395C17.0118 19.6457 14.9646 20.4039 12.4141 20.4039C10.276 20.4039 8.22549 19.5546 6.71364 18.0427C5.20179 16.5309 4.35245 14.4804 4.35245 12.3423C4.35245 10.2042 5.20179 8.15374 6.71364 6.64189C8.22549 5.13004 10.276 4.2807 12.4141 4.2807C16.1743 4.2807 18.6903 7.03798 19.5761 8.1857L21.7302 4.71152C20.4468 3.14539 18.7882 1.92914 16.9086 1.17583C15.0291 0.422513 12.9896 0.156586 10.9797 0.40276C8.96989 0.648934 7.05488 1.39922 5.41271 2.58388C3.77054 3.76854 2.45452 5.34913 1.58695 7.17874C0.71938 9.00835 0.328427 11.0276 0.450428 13.0488C0.572429 15.07 1.20342 17.0275 2.28476 18.7395C3.3661 20.4515 4.86269 21.8623 6.63543 22.8408C8.40817 23.8194 10.3995 24.3339 12.4244 24.3365C16.0123 24.3365 19.0798 23.1509 21.3029 20.8899C23.5259 18.6289 25.1562 15.913 26.7726 13.2453C28.3891 10.5776 29.8332 8.13745 31.6772 6.44861C32.4574 5.72043 33.3745 5.15443 34.3753 4.78344C35.376 4.41246 36.4404 4.24388 37.5068 4.28749C38.5732 4.33109 39.6203 4.58601 40.5874 5.03746C41.5545 5.48891 42.4223 6.12789 43.1406 6.91735H43.1233Z" fill="#FBB516"/>
<path d="M36.2439 11.2911V15.2236H44.695L44.5916 15.4753C43.9769 16.9386 42.943 18.1873 41.6201 19.0643C40.2972 19.9413 38.7444 20.4074 37.1573 20.4039C36.1233 20.4039 34.4724 20.0592 32.332 18.3359C31.6292 17.7731 30.9744 17.1529 30.3743 16.4817L28.1892 20.042C29.3541 21.4206 32.4078 24.3365 37.1504 24.3365C40.1375 24.3953 43.0371 23.3258 45.2706 21.3414C47.1409 19.7213 48.448 17.5488 49.0033 15.1375C49.3215 13.8782 49.4195 12.5734 49.2928 11.2807L36.2439 11.2911Z" fill="#FBB516"/>
<path d="M151.791 10.0377C151.791 10.3195 151.738 10.5861 151.631 10.8375C151.525 11.0888 151.378 11.3097 151.192 11.5001C151.005 11.6867 150.784 11.8353 150.529 11.9457C150.278 12.0562 150.007 12.1114 149.718 12.1114C149.428 12.1114 149.158 12.0581 148.907 11.9514C148.655 11.841 148.436 11.6925 148.25 11.5058C148.067 11.3192 147.922 11.1002 147.815 10.8489C147.709 10.5975 147.655 10.3309 147.655 10.0491C147.655 9.7673 147.709 9.50072 147.815 9.24936C147.922 8.99801 148.069 8.77902 148.255 8.59241C148.442 8.40199 148.661 8.25156 148.912 8.14111C149.167 8.03067 149.44 7.97545 149.729 7.97545C150.019 7.97545 150.289 8.03067 150.54 8.14111C150.792 8.24775 151.009 8.39437 151.192 8.58099C151.378 8.7676 151.525 8.98658 151.631 9.23794C151.738 9.48929 151.791 9.75588 151.791 10.0377ZM151.574 10.0377C151.574 9.78254 151.527 9.54261 151.431 9.31791C151.34 9.08941 151.211 8.89137 151.043 8.7238C150.879 8.55623 150.685 8.42484 150.46 8.32963C150.236 8.23061 149.992 8.1811 149.729 8.1811C149.466 8.1811 149.221 8.23061 148.992 8.32963C148.767 8.42865 148.571 8.56194 148.404 8.72951C148.24 8.89708 148.111 9.09512 148.015 9.32362C147.92 9.55213 147.873 9.79396 147.873 10.0491C147.873 10.3081 147.918 10.5499 148.01 10.7746C148.105 10.9993 148.234 11.1955 148.398 11.363C148.566 11.5306 148.762 11.6639 148.986 11.7629C149.211 11.8581 149.455 11.9057 149.718 11.9057C149.98 11.9057 150.224 11.8562 150.449 11.7572C150.677 11.6582 150.874 11.5249 151.037 11.3573C151.205 11.1897 151.336 10.9936 151.431 10.7689C151.527 10.5404 151.574 10.2967 151.574 10.0377ZM150.689 9.59212C150.689 9.77111 150.641 9.91583 150.546 10.0263C150.455 10.1329 150.335 10.2072 150.186 10.2491L150.769 11.066H150.278L149.752 10.3176H149.301V11.066H148.889V8.90089H149.855C150.106 8.90089 150.308 8.96183 150.46 9.08369C150.613 9.20556 150.689 9.37504 150.689 9.59212ZM150.266 9.61497C150.266 9.50452 150.228 9.42074 150.152 9.36361C150.076 9.30268 149.971 9.27221 149.838 9.27221H149.301V9.95772H149.838C149.971 9.95772 150.076 9.92726 150.152 9.86632C150.228 9.80539 150.266 9.7216 150.266 9.61497Z" fill="white"/>
</g>
<path d="M3.82176 36.6215H2.27688V35.998H3.82176C4.12094 35.998 4.3632 35.9504 4.54853 35.855C4.73387 35.7597 4.86889 35.6273 4.95362 35.4579C5.04099 35.2885 5.08467 35.0952 5.08467 34.8781C5.08467 34.6795 5.04099 34.4928 4.95362 34.3181C4.86889 34.1434 4.73387 34.003 4.54853 33.8971C4.3632 33.7886 4.12094 33.7343 3.82176 33.7343H2.4556V38.8892H1.68911V33.1068H3.82176C4.25862 33.1068 4.62796 33.1823 4.92979 33.3332C5.23162 33.4841 5.46064 33.6933 5.61684 33.9607C5.77305 34.2254 5.85116 34.5286 5.85116 34.8701C5.85116 35.2408 5.77305 35.5572 5.61684 35.8193C5.46064 36.0814 5.23162 36.2813 4.92979 36.419C4.62796 36.554 4.25862 36.6215 3.82176 36.6215ZM10.4937 38.2657V38.8892H7.43178V38.2657H10.4937ZM7.58667 33.1068V38.8892H6.82018V33.1068H7.58667ZM10.0887 35.5929V36.2164H7.43178V35.5929H10.0887ZM10.454 33.1068V33.7343H7.43178V33.1068H10.454ZM15.8949 35.8153V36.1807C15.8949 36.6149 15.8406 37.0041 15.732 37.3483C15.6235 37.6925 15.4673 37.985 15.2634 38.226C15.0595 38.4669 14.8146 38.6509 14.5287 38.778C14.2454 38.9051 13.9277 38.9686 13.5756 38.9686C13.234 38.9686 12.9203 38.9051 12.6343 38.778C12.351 38.6509 12.1048 38.4669 11.8957 38.226C11.6891 37.985 11.529 37.6925 11.4151 37.3483C11.3013 37.0041 11.2443 36.6149 11.2443 36.1807V35.8153C11.2443 35.3811 11.2999 34.9932 11.4111 34.6517C11.525 34.3075 11.6852 34.015 11.8917 33.774C12.0982 33.5304 12.3431 33.3451 12.6264 33.218C12.9123 33.0909 13.2261 33.0274 13.5676 33.0274C13.9198 33.0274 14.2375 33.0909 14.5208 33.218C14.8067 33.3451 15.0516 33.5304 15.2555 33.774C15.462 34.015 15.6195 34.3075 15.7281 34.6517C15.8393 34.9932 15.8949 35.3811 15.8949 35.8153ZM15.1363 36.1807V35.8074C15.1363 35.4632 15.1006 35.1587 15.0291 34.894C14.9603 34.6292 14.8583 34.4068 14.7233 34.2268C14.5883 34.0467 14.4228 33.9104 14.2269 33.8177C14.0336 33.725 13.8138 33.6787 13.5676 33.6787C13.3293 33.6787 13.1136 33.725 12.9203 33.8177C12.7296 33.9104 12.5655 34.0467 12.4278 34.2268C12.2928 34.4068 12.1882 34.6292 12.1141 34.894C12.0399 35.1587 12.0029 35.4632 12.0029 35.8074V36.1807C12.0029 36.5275 12.0399 36.8347 12.1141 37.1021C12.1882 37.3668 12.2941 37.5906 12.4318 37.7732C12.5721 37.9533 12.7376 38.0896 12.9282 38.1823C13.1215 38.275 13.3373 38.3213 13.5756 38.3213C13.8244 38.3213 14.0455 38.275 14.2388 38.1823C14.4321 38.0896 14.5949 37.9533 14.7273 37.7732C14.8623 37.5906 14.9642 37.3668 15.0331 37.1021C15.1019 36.8347 15.1363 36.5275 15.1363 36.1807ZM19.1753 36.6215H17.6304V35.998H19.1753C19.4744 35.998 19.7167 35.9504 19.902 35.855C20.0874 35.7597 20.2224 35.6273 20.3071 35.4579C20.3945 35.2885 20.4382 35.0952 20.4382 34.8781C20.4382 34.6795 20.3945 34.4928 20.3071 34.3181C20.2224 34.1434 20.0874 34.003 19.902 33.8971C19.7167 33.7886 19.4744 33.7343 19.1753 33.7343H17.8091V38.8892H17.0426V33.1068H19.1753C19.6121 33.1068 19.9815 33.1823 20.2833 33.3332C20.5851 33.4841 20.8141 33.6933 20.9703 33.9607C21.1265 34.2254 21.2047 34.5286 21.2047 34.8701C21.2047 35.2408 21.1265 35.5572 20.9703 35.8193C20.8141 36.0814 20.5851 36.2813 20.2833 36.419C19.9815 36.554 19.6121 36.6215 19.1753 36.6215ZM25.6804 38.2657V38.8892H22.7892V38.2657H25.6804ZM22.9402 33.1068V38.8892H22.1737V33.1068H22.9402ZM30.2317 38.2657V38.8892H27.1697V38.2657H30.2317ZM27.3246 33.1068V38.8892H26.5581V33.1068H27.3246ZM29.8266 35.5929V36.2164H27.1697V35.5929H29.8266ZM30.192 33.1068V33.7343H27.1697V33.1068H30.192ZM33.9648 33.1068V38.8892H33.1983V33.1068H33.9648ZM36.3874 35.7081V36.3356H33.798V35.7081H36.3874ZM36.7805 33.1068V33.7343H33.798V33.1068H36.7805ZM38.5161 33.1068V38.8892H37.7496V33.1068H38.5161ZM39.91 33.1068H41.8242C42.2585 33.1068 42.6251 33.173 42.9243 33.3054C43.2262 33.4378 43.4552 33.6337 43.6114 33.8932C43.7702 34.15 43.8497 34.4664 43.8497 34.8423C43.8497 35.1071 43.7954 35.3494 43.6868 35.5691C43.5809 35.7862 43.4274 35.9715 43.2262 36.1251C43.0276 36.276 42.7893 36.3885 42.5113 36.4627L42.2968 36.5461H40.4978L40.4898 35.9226H41.8481C42.1234 35.9226 42.3524 35.8749 42.5351 35.7796C42.7178 35.6816 42.8555 35.5506 42.9482 35.3864C43.0408 35.2223 43.0872 35.0409 43.0872 34.8423C43.0872 34.6199 43.0435 34.4253 42.9561 34.2585C42.8687 34.0917 42.7311 33.9633 42.5431 33.8733C42.3577 33.7806 42.1181 33.7343 41.8242 33.7343H40.6765V38.8892H39.91V33.1068ZM43.2897 38.8892L41.8838 36.2681L42.6821 36.2641L44.1078 38.8415V38.8892H43.2897ZM48.0038 37.4277C48.0038 37.2927 47.9826 37.1736 47.9402 37.0703C47.9005 36.9644 47.829 36.8691 47.7258 36.7844C47.6252 36.6996 47.4848 36.6189 47.3048 36.5421C47.1274 36.4653 46.9024 36.3872 46.6297 36.3078C46.3437 36.2231 46.0856 36.1291 45.8552 36.0258C45.6249 35.9199 45.4276 35.7994 45.2635 35.6644C45.0993 35.5294 44.9736 35.3745 44.8862 35.1998C44.7988 35.025 44.7551 34.8251 44.7551 34.6001C44.7551 34.375 44.8015 34.1672 44.8941 33.9766C44.9868 33.7859 45.1192 33.6205 45.2913 33.4801C45.466 33.3372 45.6739 33.226 45.9148 33.1465C46.1557 33.0671 46.4245 33.0274 46.721 33.0274C47.1552 33.0274 47.5232 33.1108 47.8251 33.2776C48.1295 33.4417 48.3612 33.6575 48.5201 33.9249C48.6789 34.1897 48.7583 34.473 48.7583 34.7748H47.9958C47.9958 34.5577 47.9495 34.3658 47.8568 34.199C47.7642 34.0295 47.6238 33.8971 47.4359 33.8018C47.2479 33.7039 47.0096 33.6549 46.721 33.6549C46.4483 33.6549 46.2232 33.6959 46.0459 33.778C45.8685 33.8601 45.7361 33.9713 45.6487 34.1116C45.564 34.2519 45.5216 34.4121 45.5216 34.5921C45.5216 34.7139 45.5468 34.8251 45.5971 34.9257C45.65 35.0237 45.7308 35.115 45.8393 35.1998C45.9505 35.2845 46.0909 35.3626 46.2603 35.4341C46.4324 35.5056 46.6376 35.5744 46.8759 35.6406C47.2042 35.7333 47.4875 35.8365 47.7258 35.9504C47.9641 36.0642 48.16 36.1926 48.3135 36.3356C48.4697 36.4759 48.5849 36.6361 48.659 36.8161C48.7358 36.9935 48.7742 37.1947 48.7742 37.4198C48.7742 37.6554 48.7266 37.8686 48.6313 38.0592C48.5359 38.2498 48.3996 38.4126 48.2222 38.5477C48.0448 38.6827 47.8317 38.7873 47.5828 38.8614C47.3366 38.9329 47.0612 38.9686 46.7567 38.9686C46.4893 38.9686 46.2259 38.9316 45.9664 38.8574C45.7096 38.7833 45.4753 38.6721 45.2635 38.5238C45.0543 38.3756 44.8862 38.1929 44.7591 37.9758C44.6347 37.756 44.5725 37.5019 44.5725 37.2133H45.335C45.335 37.4118 45.3734 37.5826 45.4501 37.7256C45.5269 37.8659 45.6315 37.9824 45.7639 38.0751C45.8989 38.1677 46.0512 38.2366 46.2206 38.2816C46.3927 38.3239 46.5714 38.3451 46.7567 38.3451C47.0242 38.3451 47.2505 38.3081 47.4359 38.2339C47.6212 38.1598 47.7615 38.0539 47.8568 37.9162C47.9548 37.7785 48.0038 37.6157 48.0038 37.4277ZM51.8878 33.1068V38.8892H51.1332V33.1068H51.8878ZM53.7464 33.1068V33.7343H49.2786V33.1068H53.7464Z" fill="white"/>
<path d="M57.5022 35.403H55.8254V36.3754H57.5022V38.0638H58.4978V36.3754H60.1746V35.403H58.4978V33.7146H57.5022V35.403Z" fill="#FCB518"/>
<path d="M64.218 38.8892H63.0107L63.0186 38.2657H64.218C64.631 38.2657 64.9752 38.1796 65.2505 38.0076C65.5259 37.8328 65.7324 37.5892 65.8701 37.2768C66.0104 36.9617 66.0806 36.5937 66.0806 36.1728V35.8193C66.0806 35.4883 66.0408 35.1945 65.9614 34.9376C65.882 34.6782 65.7655 34.4598 65.6119 34.2824C65.4584 34.1023 65.2704 33.966 65.048 33.8733C64.8282 33.7806 64.5754 33.7343 64.2894 33.7343H62.9868V33.1068H64.2894C64.6681 33.1068 65.0136 33.1704 65.326 33.2975C65.6384 33.4219 65.9071 33.6033 66.1322 33.8415C66.3599 34.0772 66.5346 34.3631 66.6564 34.6994C66.7782 35.033 66.8391 35.4089 66.8391 35.8272V36.1728C66.8391 36.5911 66.7782 36.9684 66.6564 37.3046C66.5346 37.6382 66.3586 37.9228 66.1282 38.1585C65.9005 38.3941 65.6252 38.5755 65.3022 38.7025C64.9818 38.827 64.6204 38.8892 64.218 38.8892ZM63.4197 33.1068V38.8892H62.6532V33.1068H63.4197ZM67.9908 33.1068H69.905C70.3392 33.1068 70.7059 33.173 71.0051 33.3054C71.3069 33.4378 71.536 33.6337 71.6922 33.8932C71.851 34.15 71.9305 34.4664 71.9305 34.8423C71.9305 35.1071 71.8762 35.3494 71.7676 35.5691C71.6617 35.7862 71.5082 35.9715 71.3069 36.1251C71.1084 36.276 70.8701 36.3885 70.5921 36.4627L70.3776 36.5461H68.5786L68.5706 35.9226H69.9289C70.2042 35.9226 70.4332 35.8749 70.6159 35.7796C70.7986 35.6816 70.9363 35.5506 71.0289 35.3864C71.1216 35.2223 71.1679 35.0409 71.1679 34.8423C71.1679 34.6199 71.1243 34.4253 71.0369 34.2585C70.9495 34.0917 70.8118 33.9633 70.6239 33.8733C70.4385 33.7806 70.1989 33.7343 69.905 33.7343H68.7573V38.8892H67.9908V33.1068ZM71.3705 38.8892L69.9646 36.2681L70.7629 36.2641L72.1886 38.8415V38.8892H71.3705ZM73.8248 33.1068V38.8892H73.0583V33.1068H73.8248ZM77.0854 38.0115L78.7891 33.1068H79.6191L77.4785 38.8892H76.8868L77.0854 38.0115ZM75.4928 33.1068L77.1807 38.0115L77.3911 38.8892H76.7994L74.6628 33.1068H75.4928ZM84.0711 38.2657V38.8892H81.0091V38.2657H84.0711ZM81.164 33.1068V38.8892H80.3975V33.1068H81.164ZM83.666 35.5929V36.2164H81.0091V35.5929H83.666ZM84.0314 33.1068V33.7343H81.0091V33.1068H84.0314ZM89.4682 33.1068V38.8892H88.6978L85.7867 34.4293V38.8892H85.0202V33.1068H85.7867L88.7097 37.5786V33.1068H89.4682ZM94.8217 33.1068V38.8892H94.0671V33.1068H94.8217ZM96.6803 33.1068V33.7343H92.2125V33.1068H96.6803ZM101.879 35.8153V36.1807C101.879 36.6149 101.825 37.0041 101.716 37.3483C101.608 37.6925 101.451 37.985 101.247 38.226C101.044 38.4669 100.799 38.6509 100.513 38.778C100.229 38.9051 99.9117 38.9686 99.5596 38.9686C99.2181 38.9686 98.9043 38.9051 98.6184 38.778C98.3351 38.6509 98.0888 38.4669 97.8797 38.226C97.6732 37.985 97.513 37.6925 97.3991 37.3483C97.2853 37.0041 97.2284 36.6149 97.2284 36.1807V35.8153C97.2284 35.3811 97.284 34.9932 97.3952 34.6517C97.509 34.3075 97.6692 34.015 97.8757 33.774C98.0822 33.5304 98.3271 33.3451 98.6104 33.218C98.8964 33.0909 99.2101 33.0274 99.5517 33.0274C99.9038 33.0274 100.221 33.0909 100.505 33.218C100.791 33.3451 101.036 33.5304 101.24 33.774C101.446 34.015 101.604 34.3075 101.712 34.6517C101.823 34.9932 101.879 35.3811 101.879 35.8153ZM101.12 36.1807V35.8074C101.12 35.4632 101.085 35.1587 101.013 34.894C100.944 34.6292 100.842 34.4068 100.707 34.2268C100.572 34.0467 100.407 33.9104 100.211 33.8177C100.018 33.725 99.7979 33.6787 99.5517 33.6787C99.3134 33.6787 99.0976 33.725 98.9043 33.8177C98.7137 33.9104 98.5495 34.0467 98.4119 34.2268C98.2768 34.4068 98.1722 34.6292 98.0981 34.894C98.024 35.1587 97.9869 35.4632 97.9869 35.8074V36.1807C97.9869 36.5275 98.024 36.8347 98.0981 37.1021C98.1722 37.3668 98.2782 37.5906 98.4158 37.7732C98.5562 37.9533 98.7216 38.0896 98.9123 38.1823C99.1055 38.275 99.3213 38.3213 99.5596 38.3213C99.8085 38.3213 100.03 38.275 100.223 38.1823C100.416 38.0896 100.579 37.9533 100.711 37.7732C100.846 37.5906 100.948 37.3668 101.017 37.1021C101.086 36.8347 101.12 36.5275 101.12 36.1807ZM107.022 33.1068V38.8892H106.267V33.1068H107.022ZM108.881 33.1068V33.7343H104.413V33.1068H108.881ZM109.738 33.1068H111.653C112.087 33.1068 112.453 33.173 112.753 33.3054C113.054 33.4378 113.283 33.6337 113.44 33.8932C113.599 34.15 113.678 34.4664 113.678 34.8423C113.678 35.1071 113.624 35.3494 113.515 35.5691C113.409 35.7862 113.256 35.9715 113.054 36.1251C112.856 36.276 112.618 36.3885 112.34 36.4627L112.125 36.5461H110.326L110.318 35.9226H111.676C111.952 35.9226 112.181 35.8749 112.363 35.7796C112.546 35.6816 112.684 35.5506 112.776 35.3864C112.869 35.2223 112.915 35.0409 112.915 34.8423C112.915 34.6199 112.872 34.4253 112.784 34.2585C112.697 34.0917 112.559 33.9633 112.371 33.8733C112.186 33.7806 111.946 33.7343 111.653 33.7343H110.505V38.8892H109.738V33.1068ZM113.118 38.8892L111.712 36.2681L112.51 36.2641L113.936 38.8415V38.8892H113.118ZM116.891 33.6191L114.977 38.8892H114.194L116.398 33.1068H116.903L116.891 33.6191ZM118.495 38.8892L116.577 33.6191L116.565 33.1068H117.07L119.282 38.8892H118.495ZM118.396 36.7486V37.3761H115.147V36.7486H118.396ZM124.504 33.1068V38.8892H123.734L120.823 34.4293V38.8892H120.056V33.1068H120.823L123.746 37.5786V33.1068H124.504ZM128.944 37.4277C128.944 37.2927 128.923 37.1736 128.881 37.0703C128.841 36.9644 128.769 36.8691 128.666 36.7844C128.565 36.6996 128.425 36.6189 128.245 36.5421C128.068 36.4653 127.843 36.3872 127.57 36.3078C127.284 36.2231 127.026 36.1291 126.796 36.0258C126.565 35.9199 126.368 35.7994 126.204 35.6644C126.04 35.5294 125.914 35.3745 125.827 35.1998C125.739 35.025 125.695 34.8251 125.695 34.6001C125.695 34.375 125.742 34.1672 125.834 33.9766C125.927 33.7859 126.06 33.6205 126.232 33.4801C126.406 33.3372 126.614 33.226 126.855 33.1465C127.096 33.0671 127.365 33.0274 127.661 33.0274C128.096 33.0274 128.464 33.1108 128.765 33.2776C129.07 33.4417 129.302 33.6575 129.46 33.9249C129.619 34.1897 129.699 34.473 129.699 34.7748H128.936C128.936 34.5577 128.89 34.3658 128.797 34.199C128.704 34.0295 128.564 33.8971 128.376 33.8018C128.188 33.7039 127.95 33.6549 127.661 33.6549C127.389 33.6549 127.164 33.6959 126.986 33.778C126.809 33.8601 126.676 33.9713 126.589 34.1116C126.504 34.2519 126.462 34.4121 126.462 34.5921C126.462 34.7139 126.487 34.8251 126.537 34.9257C126.59 35.0237 126.671 35.115 126.78 35.1998C126.891 35.2845 127.031 35.3626 127.201 35.4341C127.373 35.5056 127.578 35.5744 127.816 35.6406C128.145 35.7333 128.428 35.8365 128.666 35.9504C128.904 36.0642 129.1 36.1926 129.254 36.3356C129.41 36.4759 129.525 36.6361 129.599 36.8161C129.676 36.9935 129.715 37.1947 129.715 37.4198C129.715 37.6554 129.667 37.8686 129.572 38.0592C129.476 38.2498 129.34 38.4126 129.163 38.5477C128.985 38.6827 128.772 38.7873 128.523 38.8614C128.277 38.9329 128.002 38.9686 127.697 38.9686C127.43 38.9686 127.166 38.9316 126.907 38.8574C126.65 38.7833 126.416 38.6721 126.204 38.5238C125.995 38.3756 125.827 38.1929 125.699 37.9758C125.575 37.756 125.513 37.5019 125.513 37.2133H126.275C126.275 37.4118 126.314 37.5826 126.39 37.7256C126.467 37.8659 126.572 37.9824 126.704 38.0751C126.839 38.1677 126.991 38.2366 127.161 38.2816C127.333 38.3239 127.512 38.3451 127.697 38.3451C127.964 38.3451 128.191 38.3081 128.376 38.2339C128.562 38.1598 128.702 38.0539 128.797 37.9162C128.895 37.7785 128.944 37.6157 128.944 37.4277ZM131.458 33.1068V38.8892H130.692V33.1068H131.458ZM133.881 35.7081V36.3356H131.291V35.7081H133.881ZM134.274 33.1068V33.7343H131.291V33.1068H134.274ZM139.639 35.8153V36.1807C139.639 36.6149 139.585 37.0041 139.476 37.3483C139.368 37.6925 139.212 37.985 139.008 38.226C138.804 38.4669 138.559 38.6509 138.273 38.778C137.99 38.9051 137.672 38.9686 137.32 38.9686C136.978 38.9686 136.665 38.9051 136.379 38.778C136.095 38.6509 135.849 38.4669 135.64 38.226C135.433 37.985 135.273 37.6925 135.159 37.3483C135.046 37.0041 134.989 36.6149 134.989 36.1807V35.8153C134.989 35.3811 135.044 34.9932 135.155 34.6517C135.269 34.3075 135.429 34.015 135.636 33.774C135.842 33.5304 136.087 33.3451 136.371 33.218C136.657 33.0909 136.97 33.0274 137.312 33.0274C137.664 33.0274 137.982 33.0909 138.265 33.218C138.551 33.3451 138.796 33.5304 139 33.774C139.206 34.015 139.364 34.3075 139.472 34.6517C139.584 34.9932 139.639 35.3811 139.639 35.8153ZM138.881 36.1807V35.8074C138.881 35.4632 138.845 35.1587 138.773 34.894C138.705 34.6292 138.603 34.4068 138.468 34.2268C138.333 34.0467 138.167 33.9104 137.971 33.8177C137.778 33.725 137.558 33.6787 137.312 33.6787C137.074 33.6787 136.858 33.725 136.665 33.8177C136.474 33.9104 136.31 34.0467 136.172 34.2268C136.037 34.4068 135.932 34.6292 135.858 34.894C135.784 35.1587 135.747 35.4632 135.747 35.8074V36.1807C135.747 36.5275 135.784 36.8347 135.858 37.1021C135.932 37.3668 136.038 37.5906 136.176 37.7732C136.316 37.9533 136.482 38.0896 136.672 38.1823C136.866 38.275 137.082 38.3213 137.32 38.3213C137.569 38.3213 137.79 38.275 137.983 38.1823C138.176 38.0896 138.339 37.9533 138.472 37.7732C138.607 37.5906 138.708 37.3668 138.777 37.1021C138.846 36.8347 138.881 36.5275 138.881 36.1807ZM140.787 33.1068H142.701C143.135 33.1068 143.502 33.173 143.801 33.3054C144.103 33.4378 144.332 33.6337 144.488 33.8932C144.647 34.15 144.727 34.4664 144.727 34.8423C144.727 35.1071 144.672 35.3494 144.564 35.5691C144.458 35.7862 144.304 35.9715 144.103 36.1251C143.904 36.276 143.666 36.3885 143.388 36.4627L143.174 36.5461H141.375L141.367 35.9226H142.725C143 35.9226 143.229 35.8749 143.412 35.7796C143.595 35.6816 143.732 35.5506 143.825 35.3864C143.918 35.2223 143.964 35.0409 143.964 34.8423C143.964 34.6199 143.92 34.4253 143.833 34.2585C143.746 34.0917 143.608 33.9633 143.42 33.8733C143.235 33.7806 142.995 33.7343 142.701 33.7343H141.553V38.8892H140.787V33.1068ZM144.167 38.8892L142.761 36.2681L143.559 36.2641L144.985 38.8415V38.8892H144.167ZM146.041 33.1068H146.784L148.678 37.8209L150.568 33.1068H151.315L148.964 38.8892H148.384L146.041 33.1068ZM145.799 33.1068H146.454L146.561 36.6334V38.8892H145.799V33.1068ZM150.898 33.1068H151.553V38.8892H150.791V36.6334L150.898 33.1068Z" fill="white"/>
<defs>
<clipPath id="clip0_251_13295">
<rect width="153.719" height="29.9855" fill="white" transform="translate(0.140656)"/>
</clipPath>
</defs>
</svg>
