<svg xmlns="http://www.w3.org/2000/svg" width="20" height="14" viewBox="0 0 20 14" fill="none">
<path d="M9.80024 0C9.55218 0 9.30719 0.0437414 9.07444 0.1281L0.484335 3.2931C0.193404 3.40246 0.000471377 3.68365 0.000471377 3.99922C0.000471377 4.31478 0.193404 4.59597 0.484335 4.70533L2.25748 5.35833C1.75524 6.16442 1.47044 7.11736 1.47044 8.12028V8.99824C1.47044 9.88556 1.13969 10.801 0.787515 11.5227C0.588457 11.9289 0.361838 12.3288 0.098469 12.6975C0.000471378 12.8319 -0.0270905 13.0068 0.0280332 13.1662C0.0831569 13.3255 0.211779 13.4442 0.371025 13.4849L2.33098 13.9848C2.4596 14.0191 2.59741 13.9941 2.71072 13.9223C2.82403 13.8504 2.90365 13.7317 2.92815 13.5973C3.19152 12.2601 3.05984 11.0603 2.86384 10.2011C2.76584 9.75746 2.63416 9.30443 2.45041 8.88888V8.12028C2.45041 7.17672 2.76278 6.28627 3.30483 5.57391C3.69988 5.08963 4.21131 4.69908 4.81154 4.4585L9.61955 2.53075C9.87067 2.43077 10.1555 2.55575 10.2535 2.81195C10.3515 3.06815 10.229 3.35872 9.97786 3.4587L5.16985 5.38644C4.79011 5.53954 4.4563 5.77387 4.18375 6.06131L9.07138 7.86096C9.30412 7.94532 9.54912 7.98906 9.79717 7.98906C10.0452 7.98906 10.2902 7.94532 10.523 7.86096L19.1161 4.70533C19.4071 4.5991 19.6 4.31478 19.6 3.99922C19.6 3.68365 19.4071 3.40246 19.1161 3.2931L10.526 0.1281C10.2933 0.0437414 10.0483 0 9.80024 0ZM3.92038 11.7477C3.92038 12.8506 6.55406 13.9973 9.80024 13.9973C13.0464 13.9973 15.6801 12.8506 15.6801 11.7477L15.2115 7.20484L10.8568 8.81077C10.5168 8.93575 10.1585 8.99824 9.80024 8.99824C9.44193 8.99824 9.08057 8.93575 8.7437 8.81077L4.38893 7.20484L3.92038 11.7477Z" fill="#002C3F"/>
</svg>