<svg width="32" height="32" viewBox="0 0 32 32" fill="none" xmlns="http://www.w3.org/2000/svg">
<rect width="32" height="32" rx="4" fill="#E9ECEB"/>
<path d="M21.5 14.0001C21.5006 13.0732 21.2669 12.1612 20.8206 11.3489C20.3744 10.5365 19.7301 9.85005 18.9475 9.35332C18.165 8.8566 17.2696 8.5657 16.3446 8.50763C15.4195 8.44957 14.4948 8.62622 13.6563 9.02119C12.8178 9.41617 12.0927 10.0166 11.5484 10.7668C11.004 11.517 10.6581 12.3926 10.5428 13.3123C10.4274 14.232 10.5463 15.1659 10.8885 16.0273C11.2307 16.8887 11.785 17.6496 12.5 18.2395V23.0001C12.4999 23.0854 12.5217 23.1692 12.5632 23.2437C12.6047 23.3182 12.6645 23.3809 12.7371 23.4257C12.8096 23.4706 12.8924 23.4961 12.9776 23.4999C13.0627 23.5038 13.1475 23.4858 13.2238 23.4476L16 22.0626L18.7769 23.4507C18.8465 23.484 18.9228 23.5009 19 23.5001C19.1326 23.5001 19.2598 23.4474 19.3536 23.3536C19.4473 23.2599 19.5 23.1327 19.5 23.0001V18.2395C20.1256 17.7242 20.6293 17.0769 20.9751 16.3439C21.3209 15.611 21.5002 14.8105 21.5 14.0001ZM11.5 14.0001C11.5 13.1101 11.7639 12.24 12.2584 11.5C12.7529 10.76 13.4557 10.1832 14.2779 9.84263C15.1002 9.50204 16.005 9.41293 16.8779 9.58656C17.7508 9.76019 18.5526 10.1888 19.182 10.8181C19.8113 11.4474 20.2399 12.2493 20.4135 13.1222C20.5872 13.9951 20.4981 14.8999 20.1575 15.7222C19.8169 16.5444 19.2401 17.2472 18.5001 17.7417C17.76 18.2362 16.89 18.5001 16 18.5001C14.8069 18.4988 13.6631 18.0242 12.8195 17.1806C11.9759 16.337 11.5013 15.1932 11.5 14.0001ZM12.5 14.0001C12.5 13.3079 12.7053 12.6312 13.0899 12.0556C13.4744 11.48 14.0211 11.0314 14.6606 10.7665C15.3002 10.5016 16.0039 10.4323 16.6828 10.5673C17.3618 10.7024 17.9854 11.0357 18.4749 11.5252C18.9644 12.0147 19.2977 12.6383 19.4328 13.3173C19.5678 13.9962 19.4985 14.6999 19.2336 15.3395C18.9687 15.979 18.5201 16.5257 17.9445 16.9102C17.3689 17.2948 16.6922 17.5001 16 17.5001C15.072 17.4991 14.1824 17.13 13.5262 16.4739C12.8701 15.8177 12.501 14.928 12.5 14.0001Z" fill="#6D6D6D"/>
</svg>
