<svg width="66" height="77" viewBox="0 0 66 77" fill="none" xmlns="http://www.w3.org/2000/svg">
<g clip-path="url(#clip0_1557_2798)">
<path d="M42.6275 23.6194C41.1227 22.073 38.7882 21.5933 36.7694 22.4961L36.9869 21.3802C37.2596 19.9678 36.9318 18.5719 36.1809 17.4619C34.5704 15.0797 31.3121 14.448 28.9299 16.0585C27.8199 16.8094 26.9931 17.9804 26.7204 19.3928L26.5014 20.5265C24.736 18.7506 21.9544 18.481 19.8761 19.8859C18.7662 20.6368 17.9408 21.8093 17.6682 23.2217L12.9469 47.6163C12.7994 48.029 12.6831 48.4536 12.5997 48.8842V48.8857L12.3211 50.3204L12.2168 50.1774C11.4957 49.1762 10.7985 48.1437 10.5363 47.7564C8.77231 45.1387 6.50477 44.2195 4.5203 44.4504C0.235519 44.9525 -0.983172 49.6872 0.779311 53.2673C1.25755 54.2342 2.88297 56.5807 3.42229 57.4448C6.44816 62.2734 11.606 70.6374 15.417 73.0792C21.068 76.701 33.5692 78.164 39.0757 74.3962C41.8155 72.5041 43.9281 69.6734 44.8593 66.2706C45.038 66.1068 45.2168 65.9369 45.3896 65.7626C51.8094 59.2773 58.2187 52.7965 64.6369 46.3068C67.2456 43.6712 65.9286 39.1004 62.2264 38.345L63.1247 37.4377C64.0425 36.5125 64.4954 35.2968 64.4894 34.0841C64.4775 31.7838 62.8193 29.8306 60.5652 29.4477L61.2907 28.7162C62.207 27.791 62.6614 26.5753 62.6554 25.3626C62.6405 22.7598 60.5041 20.6472 57.9013 20.6621C56.6886 20.6681 55.4774 21.1329 54.5611 22.0596L53.8266 22.8015C53.3916 20.5787 51.4339 18.9771 49.1634 18.989C47.9507 18.9965 46.738 19.4643 45.8232 20.3895L42.6275 23.6194ZM38.2354 10.9603C38.4634 11.8408 37.9345 12.7421 37.0525 12.9701C36.172 13.1965 35.2706 12.6676 35.0442 11.7871L33.3145 5.18564C33.0865 4.30365 33.6169 3.40378 34.4974 3.17584C35.3794 2.94789 36.2793 3.47828 36.5072 4.35877L38.2354 10.9603ZM45.3986 9.04135C45.2645 9.9427 44.4212 10.5655 43.5184 10.4314C42.6156 10.2958 41.9943 9.45254 42.1284 8.5497L43.1564 1.80369C43.2905 0.90234 44.1337 0.279586 45.0366 0.413672C45.9394 0.549247 46.5607 1.3925 46.4266 2.29534L45.3986 9.04135ZM49.7698 14.8964C49.1917 15.5996 48.1518 15.7009 47.4501 15.1229C46.7469 14.5433 46.6456 13.5049 47.2236 12.8017L52.1386 6.81403C52.7167 6.11083 53.7551 6.00952 54.4583 6.58758C55.16 7.16564 55.2613 8.20554 54.6833 8.90726L49.7698 14.8964Z" fill="#002C3F"/>
<path d="M42.7826 64.7157C42.1509 67.9874 40.2707 70.7063 37.7335 72.442C33.042 75.6541 21.4897 74.1568 16.6924 71.0847C13.1436 68.8127 7.42414 59.3954 4.81245 55.2164C4.22694 54.2808 3.70996 53.6253 3.1766 52.7224C1.94748 50.6381 1.92662 47.1355 4.79457 46.8018C5.97005 46.6647 7.37348 47.3054 8.56983 49.0783C8.84396 49.4835 9.57249 50.5622 10.2951 51.5633C10.9715 52.5019 11.6866 53.4137 12.1827 53.8383C12.3481 54.0022 12.5596 54.1139 12.7876 54.1586C12.7891 54.1586 12.7891 54.1586 12.7891 54.1586L13.7992 53.886L14.9672 49.3405C16.6299 40.7441 18.3313 32.2982 20.0014 23.672C20.1489 22.9032 20.6003 22.2656 21.2067 21.8559C22.5088 20.9784 24.2817 21.3181 25.1592 22.6202C25.5689 23.2265 25.7492 23.9879 25.6002 24.7566L22.3613 41.492L24.7748 41.9583L29.0537 19.8461C29.2026 19.0773 29.6541 18.4382 30.2589 18.0285C31.5626 17.148 33.331 17.4906 34.2115 18.7928C34.6212 19.3991 34.8015 20.1604 34.6525 20.9292L30.3737 43.0414L32.8408 43.5197L36.0902 26.7306C36.2377 25.9619 36.6891 25.3228 37.297 24.913C38.5976 24.0325 40.3705 24.3752 41.248 25.6773C41.6592 26.2822 41.838 27.045 41.6905 27.8138L38.4412 44.6043L40.7757 45.0557L42.9256 33.9489C43.0731 33.1802 43.523 32.541 44.1309 32.1313C46.2494 30.6996 48.9982 32.5842 48.5244 35.032C46.6085 44.9261 44.6985 54.8216 42.7826 64.7157ZM43.8001 25.4807L47.3534 21.9006C47.8495 21.397 48.511 21.1437 49.174 21.1393C50.5953 21.1333 51.7589 22.282 51.7648 23.7033C51.7678 24.3648 51.5205 25.0278 51.0214 25.5328L47.1403 29.4541C46.0885 29.1502 44.916 29.1755 43.7554 29.6493L44.0251 28.2637C44.2113 27.2998 44.1175 26.3433 43.8001 25.4807ZM49.168 30.5685L56.0913 23.5737C56.5889 23.0686 57.2504 22.8153 57.9119 22.8094C59.3332 22.8034 60.4938 23.9506 60.4998 25.3749C60.5072 26.0364 60.2569 26.7009 59.7593 27.2029L50.6847 36.3759L50.8575 35.4835C51.2359 33.5303 50.4836 31.7276 49.168 30.5685ZM49.9085 40.3925L57.9238 32.2922C58.4229 31.7887 59.0829 31.5339 59.7459 31.5324C61.1687 31.522 62.3308 32.6721 62.3367 34.0949C62.3412 34.7549 62.0924 35.4194 61.5948 35.9245L50.7055 46.9284L52.2356 48.4406L59.439 41.1628C59.9366 40.6592 60.5966 40.4029 61.2596 40.4014C63.5733 40.388 64.6966 43.1889 63.1085 44.792L45.6431 62.4481L49.9085 40.3925Z" fill="#FFB81C"/>
</g>
<defs>
<clipPath id="clip0_1557_2798">
<rect width="66" height="76.2799" fill="white" transform="translate(0 0.359375)"/>
</clipPath>
</defs>
</svg>
