<svg width="33" height="32" viewBox="0 0 33 32" fill="none" xmlns="http://www.w3.org/2000/svg">
<rect x="0.333252" width="32" height="32" rx="8" fill="#E3F3FC"/>
<path d="M16.5947 7.81979C18.2736 7.81979 19.6216 9.17046 19.6216 10.8494C19.6216 12.5256 18.2736 13.8736 16.5947 13.8736C14.9185 13.8736 13.5678 12.5256 13.5678 10.8494C13.5678 9.17046 14.9185 7.81979 16.5947 7.81979Z" fill="#28519E"/>
<path d="M13.5676 16.9004C12.7268 16.9004 12.4429 17.2448 12.2512 17.6308C12.0622 18.0116 12.0541 18.4192 12.0541 18.4192C12.0541 18.4192 12.0649 24.8826 12.0541 24.9747H21.1348V18.4165C21.1348 18.4165 21.1294 18.0143 20.9377 17.6308C20.7433 17.2448 20.4621 16.9004 19.6213 16.9004H13.5676Z" fill="#28519E"/>
<path d="M9.0273 12.8642C9.87079 12.8642 10.5407 13.5369 10.5407 14.3777C10.5407 15.2212 9.87079 15.8911 9.0273 15.8911C8.1865 15.8911 7.51117 15.2212 7.51117 14.3777C7.51117 13.5369 8.1865 12.8642 9.0273 12.8642Z" fill="#28519E"/>
<path d="M22.1437 18.9184H25.1598C26.2374 18.9393 26.6705 19.3388 26.9201 19.7195C27.1696 20.1003 27.1878 20.4554 27.1878 20.4554V24.9776C27.0486 24.9776 26.9221 24.9803 26.7358 24.983C26.1681 24.983 25.4114 24.983 24.6573 24.983C23.3988 24.9803 22.5264 24.9749 22.143 24.9749L22.1437 18.9184Z" fill="#28519E"/>
<path d="M24.1611 12.8642C25.0046 12.8642 25.6745 13.5369 25.6745 14.3777C25.6745 15.2212 25.0046 15.8911 24.1611 15.8911C23.3203 15.8911 22.645 15.2212 22.645 14.3777C22.645 13.5369 23.3203 12.8642 24.1611 12.8642Z" fill="#28519E"/>
<path d="M11.0452 18.9238H8.02911C6.95154 18.9446 6.51836 19.3442 6.26814 19.7249C6.01859 20.1063 6.00043 20.4608 6.00043 20.4608V24.9829C6.13966 24.9829 6.26612 24.9856 6.45244 24.9856C7.02015 24.9883 7.77687 24.9883 8.5309 24.9856C9.78941 24.9856 10.6618 24.9803 11.0452 24.9803V18.9238Z" fill="#28519E"/>
</svg>
