<svg width="32" height="32" viewBox="0 0 32 32" fill="none" xmlns="http://www.w3.org/2000/svg">
<rect width="32" height="32" rx="8" fill="#E3F3FC"/>
<path d="M25.75 13C25.75 12.6022 25.592 12.2206 25.3107 11.9393C25.0294 11.658 24.6478 11.5 24.25 11.5H21.25V8.5C21.25 8.10218 21.092 7.72064 20.8107 7.43934C20.5294 7.15804 20.1478 7 19.75 7H7.75C7.35218 7 6.97064 7.15804 6.68934 7.43934C6.40804 7.72064 6.25 8.10218 6.25 8.5V20.5C6.25044 20.6411 6.29068 20.7792 6.36608 20.8985C6.44149 21.0177 6.54901 21.1133 6.67629 21.1742C6.80358 21.2351 6.94546 21.2589 7.08564 21.2428C7.22581 21.2266 7.3586 21.1713 7.46875 21.0831L10.75 18.4375V21.25C10.75 21.6478 10.908 22.0294 11.1893 22.3107C11.4706 22.592 11.8522 22.75 12.25 22.75H21.0241L24.5312 25.5831C24.664 25.6905 24.8293 25.7493 25 25.75C25.1989 25.75 25.3897 25.671 25.5303 25.5303C25.671 25.3897 25.75 25.1989 25.75 25V13ZM21.7609 21.4169C21.6282 21.3095 21.4629 21.2507 21.2922 21.25H12.25V18.25H19.75C20.1478 18.25 20.5294 18.092 20.8107 17.8107C21.092 17.5294 21.25 17.1478 21.25 16.75V13H24.25V23.4297L21.7609 21.4169Z" fill="#28519E"/>
</svg>
