<svg width="24" height="24" viewBox="0 0 24 24" fill="none" xmlns="http://www.w3.org/2000/svg">
<g clip-path="url(#clip0_4558_3982)">
<path d="M18.6026 18.7011C21.5933 15.7104 22.0953 11.1762 20.0214 7.69909L20.0436 9.66275L17.3147 9.67395C18.4724 11.8374 18.0573 14.5109 16.2349 16.3334C14.3342 18.2337 11.4312 18.5256 9.1344 17.0889L10.4539 15.7694L4.74123 15.2861L5.22421 20.9991L6.72848 19.4948C10.2451 22.0876 15.395 21.9087 18.6026 18.7011Z" fill="#343435"/>
<path d="M6.68994 14.499C5.53459 12.3427 5.77625 9.49235 7.60143 7.66716C9.467 5.80159 12.1056 5.29281 14.4363 6.6956L12.9268 8.20513L18.8541 8.47343L18.157 2.97531L16.8514 4.28086C13.2934 1.7295 8.41211 2.13085 5.23879 5.30418C2.24535 8.29762 1.85435 12.9462 3.91882 16.4084L3.93579 14.4805L6.68994 14.499Z" fill="#343435"/>
<path d="M14.781 11.281L11.781 14.281C11.7114 14.3508 11.6287 14.4061 11.5376 14.4438C11.4466 14.4816 11.349 14.501 11.2504 14.501C11.1519 14.501 11.0543 14.4816 10.9632 14.4438C10.8722 14.4061 10.7894 14.3508 10.7198 14.281L9.21979 12.781C9.07906 12.6403 9 12.4494 9 12.2504C9 12.0514 9.07906 11.8605 9.21979 11.7198C9.36052 11.5791 9.55139 11.5 9.75042 11.5C9.94944 11.5 10.1403 11.5791 10.281 11.7198L11.2504 12.6901L13.7198 10.2198C13.8605 10.0791 14.0514 10 14.2504 10C14.4494 10 14.6403 10.0791 14.781 10.2198C14.9218 10.3605 15.0008 10.5514 15.0008 10.7504C15.0008 10.9494 14.9218 11.1403 14.781 11.281Z" fill="#343435"/>
</g>
<defs>
<clipPath id="clip0_4558_3982">
<rect width="24" height="24" fill="white"/>
</clipPath>
</defs>
</svg>
