<svg width="37" height="37" viewBox="0 0 37 37" fill="none" xmlns="http://www.w3.org/2000/svg">
    <rect x="0.216797" y="0.976562" width="36" height="36" rx="4" fill="white"/>
    <path d="M25.0918 12.7266H21.9668V12.1016C21.9668 11.6043 21.7693 11.1274 21.4176 10.7757C21.066 10.4241 20.5891 10.2266 20.0918 10.2266H16.3418C15.8445 10.2266 15.3676 10.4241 15.016 10.7757C14.6643 11.1274 14.4668 11.6043 14.4668 12.1016V12.7266H11.3418C11.176 12.7266 11.0171 12.7924 10.8999 12.9096C10.7826 13.0268 10.7168 13.1858 10.7168 13.3516C10.7168 13.5173 10.7826 13.6763 10.8999 13.7935C11.0171 13.9107 11.176 13.9766 11.3418 13.9766H11.9668V25.2266C11.9668 25.5581 12.0985 25.876 12.3329 26.1104C12.5673 26.3449 12.8853 26.4766 13.2168 26.4766H23.2168C23.5483 26.4766 23.8663 26.3449 24.1007 26.1104C24.3351 25.876 24.4668 25.5581 24.4668 25.2266V13.9766H25.0918C25.2576 13.9766 25.4165 13.9107 25.5337 13.7935C25.6509 13.6763 25.7168 13.5173 25.7168 13.3516C25.7168 13.1858 25.6509 13.0268 25.5337 12.9096C25.4165 12.7924 25.2576 12.7266 25.0918 12.7266ZM16.9668 22.1016C16.9668 22.2673 16.9009 22.4263 16.7837 22.5435C16.6665 22.6607 16.5076 22.7266 16.3418 22.7266C16.176 22.7266 16.0171 22.6607 15.8999 22.5435C15.7826 22.4263 15.7168 22.2673 15.7168 22.1016V17.1016C15.7168 16.9358 15.7826 16.7768 15.8999 16.6596C16.0171 16.5424 16.176 16.4766 16.3418 16.4766C16.5076 16.4766 16.6665 16.5424 16.7837 16.6596C16.9009 16.7768 16.9668 16.9358 16.9668 17.1016V22.1016ZM20.7168 22.1016C20.7168 22.2673 20.6509 22.4263 20.5337 22.5435C20.4165 22.6607 20.2576 22.7266 20.0918 22.7266C19.926 22.7266 19.7671 22.6607 19.6499 22.5435C19.5326 22.4263 19.4668 22.2673 19.4668 22.1016V17.1016C19.4668 16.9358 19.5326 16.7768 19.6499 16.6596C19.7671 16.5424 19.926 16.4766 20.0918 16.4766C20.2576 16.4766 20.4165 16.5424 20.5337 16.6596C20.6509 16.7768 20.7168 16.9358 20.7168 17.1016V22.1016ZM20.7168 12.7266H15.7168V12.1016C15.7168 11.9358 15.7826 11.7768 15.8999 11.6596C16.0171 11.5424 16.176 11.4766 16.3418 11.4766H20.0918C20.2576 11.4766 20.4165 11.5424 20.5337 11.6596C20.6509 11.7768 20.7168 11.9358 20.7168 12.1016V12.7266Z" fill="#CC1A07"/>
    </svg>
    