<svg width="16" height="16" viewBox="0 0 16 16" fill="none" xmlns="http://www.w3.org/2000/svg">
<g clip-path="url(#clip0_1275_388)">
<path d="M6.66634 6.66675C7.03453 6.66675 7.33301 6.96523 7.33301 7.33342V11.3334C7.33301 11.7016 7.03453 12.0001 6.66634 12.0001C6.29815 12.0001 5.99967 11.7016 5.99967 11.3334V7.33342C5.99967 6.96523 6.29815 6.66675 6.66634 6.66675Z" fill="#CC1A07"/>
<path d="M9.33301 6.66675C9.7012 6.66675 9.99967 6.96523 9.99967 7.33342V11.3334C9.99967 11.7016 9.7012 12.0001 9.33301 12.0001C8.96482 12.0001 8.66634 11.7016 8.66634 11.3334V7.33342C8.66634 6.96523 8.96482 6.66675 9.33301 6.66675Z" fill="#CC1A07"/>
<path fill-rule="evenodd" clip-rule="evenodd" d="M9.33301 0.666748C9.86344 0.666748 10.372 0.877613 10.7471 1.25269C11.1221 1.62776 11.333 2.13631 11.333 2.66675V3.33341H13.9997C14.3679 3.33341 14.6663 3.63189 14.6663 4.00008C14.6663 4.36827 14.3679 4.66675 13.9997 4.66675H13.333V13.3334C13.333 13.8638 13.1221 14.3724 12.7471 14.7475C12.372 15.1226 11.8634 15.3334 11.333 15.3334H4.66634C4.13591 15.3334 3.62735 15.1226 3.25228 14.7475C2.87721 14.3724 2.66634 13.8638 2.66634 13.3334V4.66675H1.99967C1.63148 4.66675 1.33301 4.36827 1.33301 4.00008C1.33301 3.63189 1.63148 3.33341 1.99967 3.33341H4.66634V2.66675C4.66634 2.13631 4.87721 1.62776 5.25228 1.25269C5.62735 0.877613 6.13591 0.666748 6.66634 0.666748H9.33301ZM3.99967 13.3334L4.0127 13.4636C4.03826 13.5919 4.10112 13.7109 4.19499 13.8048C4.32001 13.9298 4.48953 14.0001 4.66634 14.0001H11.333C11.5098 14.0001 11.6793 13.9298 11.8044 13.8048C11.9294 13.6797 11.9997 13.5102 11.9997 13.3334V4.66675H3.99967V13.3334ZM6.66634 2.00008C6.48953 2.00008 6.32001 2.07037 6.19499 2.19539C6.06996 2.32042 5.99967 2.48994 5.99967 2.66675V3.33341H9.99967V2.66675C9.99967 2.48994 9.92939 2.32042 9.80436 2.19539C9.71049 2.10152 9.59152 2.03866 9.46322 2.0131L9.33301 2.00008H6.66634Z" fill="#CC1A07"/>
</g>
<defs>
<clipPath id="clip0_1275_388">
<rect width="16" height="16" fill="white"/>
</clipPath>
</defs>
</svg>
