<svg width="32" height="32" viewBox="0 0 32 32" fill="none" xmlns="http://www.w3.org/2000/svg">
<rect width="32" height="32" rx="8" fill="#E3F3FC"/>
<path d="M26.0318 16.0001C26.0488 15.7606 26.0679 15.5232 26.0679 15.2816C26.0679 12.802 25.0828 10.4239 23.3295 8.67059C21.5762 6.91725 19.1981 5.93223 16.7185 5.93223C16.4769 5.93223 16.2395 5.95131 16 5.96826V16.0001H26.0318Z" fill="#28519E"/>
<path d="M14.5608 17.4393V7.40745C12.214 7.58689 10.0215 8.64566 8.42168 10.372C6.82188 12.0983 5.93276 14.365 5.93213 16.7186C5.93213 16.9624 5.9512 17.1998 5.96816 17.4393C6.1396 19.6612 7.09994 21.7486 8.67574 23.3244C10.2515 24.9002 12.3389 25.8605 14.5608 26.0319C14.8003 26.0489 15.0377 26.068 15.2815 26.068C17.6351 26.0673 19.9018 25.1782 21.6281 23.5784C23.3544 21.9786 24.4132 19.7861 24.5927 17.4393H14.5608Z" fill="#28519E"/>
</svg>
