<svg width="13" height="12" viewBox="0 0 13 12" fill="none" xmlns="http://www.w3.org/2000/svg">
<path d="M13 11C13 11.1326 12.9473 11.2598 12.8536 11.3536C12.7598 11.4473 12.6326 11.5 12.5 11.5H0.5C0.367392 11.5 0.240215 11.4473 0.146447 11.3536C0.0526784 11.2598 0 11.1326 0 11C0 10.8674 0.0526784 10.7402 0.146447 10.6464C0.240215 10.5527 0.367392 10.5 0.5 10.5H1V6.5C1 6.36739 1.05268 6.24021 1.14645 6.14645C1.24021 6.05268 1.36739 6 1.5 6H3C3.13261 6 3.25979 6.05268 3.35355 6.14645C3.44732 6.24021 3.5 6.36739 3.5 6.5V10.5H4.5V3.5C4.5 3.36739 4.55268 3.24021 4.64645 3.14645C4.74021 3.05268 4.86739 3 5 3H7C7.13261 3 7.25979 3.05268 7.35355 3.14645C7.44732 3.24021 7.5 3.36739 7.5 3.5V10.5H8.5V0.5C8.5 0.367392 8.55268 0.240215 8.64645 0.146447C8.74021 0.0526785 8.86739 0 9 0H11.5C11.6326 0 11.7598 0.0526785 11.8536 0.146447C11.9473 0.240215 12 0.367392 12 0.5V10.5H12.5C12.6326 10.5 12.7598 10.5527 12.8536 10.6464C12.9473 10.7402 13 10.8674 13 11Z" fill="#28519E"/>
</svg>
