<svg width="32" height="32" viewBox="0 0 32 32" fill="none" xmlns="http://www.w3.org/2000/svg">
<rect width="32" height="32" rx="8" fill="#E3F3FC"/>
<path d="M13.6954 6.55962L7.69638 6.56164C6.54203 6.56164 5.60229 7.50128 5.60229 8.6552V14.6526L8.50879 14.6446C8.55306 14.6435 8.59691 14.6535 8.6363 14.6737C8.6757 14.6939 8.70939 14.7237 8.73428 14.7604C8.75917 14.797 8.77447 14.8393 8.77878 14.8834C8.78308 14.9274 8.77626 14.9718 8.75893 15.0126C8.68943 15.1738 8.64937 15.3518 8.64937 15.5272C8.64937 16.2422 9.22192 16.8168 9.93723 16.8168C10.6525 16.8168 11.2272 16.2422 11.2272 15.5272C11.2272 15.3516 11.1954 15.174 11.1259 15.0126C11.1088 14.9725 11.102 14.9288 11.1059 14.8854C11.1098 14.842 11.1244 14.8003 11.1483 14.7638C11.1722 14.7274 11.2048 14.6975 11.2431 14.6767C11.2813 14.6559 11.3242 14.6449 11.3677 14.6446L13.6934 14.6526L13.6954 12.6211C13.5876 12.6451 13.4914 12.6915 13.375 12.6915C12.3737 12.6915 11.5558 11.8717 11.5559 10.8707C11.5559 9.86976 12.3737 9.05206 13.375 9.05206C13.4912 9.05206 13.5876 9.09849 13.6954 9.12249V6.55962ZM14.2288 6.56164V9.44463C14.2298 9.48887 14.2198 9.53266 14.1996 9.57201C14.1794 9.61137 14.1496 9.64504 14.113 9.66991C14.0763 9.69479 14.0341 9.71009 13.99 9.71441C13.946 9.71873 13.9015 9.71193 13.8608 9.69463C13.6953 9.62703 13.5333 9.58501 13.3771 9.58501C12.6618 9.58505 12.0871 10.1575 12.0871 10.8725C12.0871 11.5875 12.6618 12.1621 13.3771 12.1621C13.5329 12.1621 13.6947 12.1201 13.8608 12.0525C13.9009 12.0355 13.9446 12.0287 13.988 12.0326C14.0314 12.0365 14.0732 12.0511 14.1096 12.0751C14.146 12.099 14.1759 12.1316 14.1967 12.1699C14.2175 12.2081 14.2285 12.2509 14.2288 12.2945L14.2248 14.6567L16.2899 14.6647C16.2663 14.5467 16.2196 14.4347 16.2196 14.3135C16.2196 13.3125 17.0313 12.4927 18.0326 12.4927C19.0339 12.4927 19.8538 13.3125 19.8538 14.3135C19.8538 14.4343 19.8071 14.5467 19.7835 14.6647L22.3138 14.6567V8.65514C22.3138 7.50122 21.3823 6.56164 20.2279 6.56164H14.2288ZM5.60229 15.1775V21.1852C5.60229 22.3392 6.54203 23.2704 7.69638 23.2704H13.6954V20.371C13.6951 20.3263 13.706 20.2823 13.7272 20.243C13.7485 20.2038 13.7793 20.1705 13.8169 20.1464C13.8544 20.1222 13.8975 20.1079 13.942 20.1049C13.9866 20.1018 14.0312 20.1101 14.0717 20.129C14.2479 20.2086 14.4194 20.2549 14.5947 20.2549C15.31 20.2549 15.8846 19.6804 15.8846 18.9654C15.8846 18.2503 15.31 17.6778 14.5947 17.6778C14.4109 17.6778 14.2309 17.7178 14.0634 17.7934C14.023 17.8118 13.9786 17.8197 13.9344 17.8165C13.8901 17.8132 13.8474 17.7989 13.8101 17.7748C13.7728 17.7507 13.7422 17.7176 13.7211 17.6786C13.7 17.6396 13.689 17.5958 13.6892 17.5514L13.6913 15.181L11.6882 15.1771C11.7119 15.2951 11.7584 15.4074 11.7584 15.5286C11.7584 16.5296 10.9385 17.3494 9.93723 17.3494C8.93594 17.3494 8.11809 16.5296 8.11809 15.5286C8.11809 15.4074 8.16462 15.2959 8.18838 15.1771L5.60229 15.1775ZM23.3844 15.9753C22.7392 15.9593 22.1039 16.2849 21.7596 16.8804C21.6995 16.9844 21.68 17.104 21.6418 17.2172L19.6262 16.0537C19.568 16.0184 19.4984 16.007 19.4319 16.0217C19.3973 16.0305 19.3648 16.0461 19.3364 16.0678C19.3079 16.0895 19.2842 16.1166 19.2666 16.1477L17.9456 18.4272C17.9226 18.4661 17.9099 18.5104 17.9088 18.5556C17.9077 18.6008 17.9182 18.6456 17.9394 18.6856C17.9605 18.7256 17.9916 18.7595 18.0296 18.7841C18.0676 18.8087 18.1113 18.8231 18.1565 18.826C18.3355 18.842 18.514 18.8972 18.6733 18.9892C19.2927 19.3468 19.5001 20.1288 19.1425 20.7479C18.7849 21.367 18.0027 21.5807 17.3833 21.2232C17.2245 21.1316 17.0852 21.0068 16.9782 20.8572C16.9529 20.8205 16.9188 20.7907 16.879 20.7707C16.8392 20.7506 16.795 20.741 16.7505 20.7425C16.706 20.7441 16.6625 20.757 16.6243 20.7798C16.586 20.8027 16.5542 20.8348 16.5316 20.8732L15.219 23.1548C15.1843 23.2152 15.1748 23.2868 15.1926 23.3541C15.2104 23.4214 15.254 23.479 15.314 23.5144L20.7446 26.6475C21.744 27.2243 23.0263 26.8806 23.6036 25.8807L26.7354 20.4599C26.7695 20.3988 26.7781 20.3266 26.7591 20.2592C26.7401 20.1918 26.6951 20.1347 26.6341 20.1003L24.6744 18.9658C24.7532 18.8762 24.8478 18.8057 24.908 18.7013C25.4087 17.8344 25.1116 16.7177 24.2444 16.2172C23.9734 16.0608 23.6778 15.9829 23.3844 15.9753Z" fill="#28519E"/>
</svg>
