<svg width="100" height="101" viewBox="0 0 100 101" fill="none" xmlns="http://www.w3.org/2000/svg">
<circle cx="50" cy="50.5" r="50" fill="#E9ECEB"/>
<g clip-path="url(#clip0_3236_2567)">
<path fill-rule="evenodd" clip-rule="evenodd" d="M62.2303 53.2843C65.9814 53.2843 69.3797 54.8088 71.8429 57.2708C74.3143 59.7317 75.8388 63.1358 75.8388 66.8915C75.8388 70.6484 74.3143 74.0526 71.8522 76.5134L71.6976 76.6564C69.2461 79.034 65.9075 80.5 62.2303 80.5C58.4735 80.5 55.0705 78.9754 52.6096 76.5134C50.1476 74.0526 48.6231 70.6484 48.6231 66.8915C48.6231 63.1347 50.1476 59.7317 52.6096 57.2708C55.0705 54.8088 58.4735 53.2843 62.2303 53.2843ZM52.6495 24.9623V31.3113C52.7655 32.8265 53.294 34.017 54.2221 34.8092C55.183 35.6307 56.6196 36.0912 58.5215 36.1252L62.9651 36.1205L52.6495 24.9623ZM63.3377 39.0817L58.4981 39.077C55.8626 39.036 53.7861 38.327 52.2991 37.0568C50.7488 35.7314 49.8758 33.8518 49.6988 31.5222L49.6859 31.3183V23.4636H31.5284C30.3168 23.4636 29.2141 23.9592 28.4172 24.7561C27.6204 25.5529 27.1247 26.6556 27.1247 27.8673V67.2982C27.1247 68.5052 27.6227 69.6078 28.4207 70.4059C29.2176 71.2027 30.3214 71.7007 31.5284 71.7007H45.5212C45.8189 72.7308 46.2091 73.7221 46.6837 74.6643H31.5284C29.5035 74.6643 27.659 73.8346 26.3243 72.5011C24.9908 71.1664 24.1611 69.3231 24.1611 67.2982V27.8673C24.1611 25.8447 24.9908 24.0026 26.3232 22.6691C27.6637 21.3297 29.5058 20.5 31.5284 20.5H51.9042C52.3858 20.5 52.8135 20.7297 53.0842 21.0859L65.9029 34.9533C66.1653 35.2381 66.2943 35.5967 66.2943 35.9553L66.2978 49.9844C65.3392 49.7535 64.3502 49.6035 63.3377 49.5403V39.0817ZM36.4138 45.467C35.5958 45.467 34.9326 44.8037 34.9326 43.9858C34.9326 43.1667 35.5958 42.5034 36.4138 42.5034H54.0486C54.8666 42.5034 55.531 43.1667 55.531 43.9858C55.531 44.8037 54.8666 45.467 54.0486 45.467H36.4138ZM36.4138 53.9393C35.5958 53.9393 34.9326 53.2761 34.9326 52.457C34.9326 51.639 35.5958 50.9758 36.4138 50.9758H53.1147C53.5494 50.9758 53.9408 51.1633 54.2127 51.4621C52.9211 52.1354 51.7189 52.9676 50.6339 53.9393H36.4138ZM36.4138 62.4116C35.5958 62.4116 34.9326 61.7484 34.9326 60.9293C34.9326 60.1113 35.5958 59.4481 36.4138 59.4481H46.5149C46.0673 60.3914 45.7005 61.3828 45.4263 62.4116H36.4138ZM60.3144 59.9567H62.3546C62.7272 59.9567 63.0331 60.2625 63.0331 60.6352V67.106H68.2313C68.6074 67.106 68.9133 67.4118 68.9133 67.7868V69.8258C68.9133 70.202 68.6074 70.5066 68.2313 70.5066H59.6324V60.6352C59.6324 60.2625 59.9382 59.9567 60.3144 59.9567Z" fill="#6D6D6D"/>
</g>
<defs>
<clipPath id="clip0_3236_2567">
<rect width="51.6777" height="60" fill="white" transform="translate(24.1611 20.5)"/>
</clipPath>
</defs>
</svg>
