<svg width="33" height="33" viewBox="0 0 33 33" fill="none" xmlns="http://www.w3.org/2000/svg">
<path d="M19.792 16.7129C19.792 17.4051 19.5867 18.0818 19.2021 18.6574C18.8176 19.233 18.2709 19.6816 17.6314 19.9465C16.9918 20.2114 16.2881 20.2807 15.6092 20.1456C14.9302 20.0106 14.3066 19.6773 13.8171 19.1878C13.3276 18.6983 12.9943 18.0746 12.8592 17.3957C12.7242 16.7168 12.7935 16.013 13.0584 15.3735C13.3233 14.734 13.7719 14.1873 14.3475 13.8027C14.9231 13.4182 15.5998 13.2129 16.292 13.2129C17.2203 13.2129 18.1105 13.5816 18.7669 14.238C19.4232 14.8944 19.792 15.7846 19.792 16.7129ZM16.292 10.2129C16.9842 10.2129 17.6609 10.0076 18.2365 9.62304C18.8121 9.23845 19.2607 8.69183 19.5256 8.05228C19.7905 7.41274 19.8598 6.70901 19.7247 6.03008C19.5897 5.35114 19.2564 4.7275 18.7669 4.23802C18.2774 3.74853 17.6537 3.41519 16.9748 3.28014C16.2959 3.1451 15.5921 3.21441 14.9526 3.47931C14.3131 3.74422 13.7664 4.19282 13.3819 4.7684C12.9973 5.34397 12.792 6.02066 12.792 6.71289C12.792 7.64115 13.1607 8.53139 13.8171 9.18777C14.4735 9.84414 15.3637 10.2129 16.292 10.2129ZM16.292 23.2129C15.5998 23.2129 14.9231 23.4182 14.3475 23.8027C13.7719 24.1873 13.3233 24.734 13.0584 25.3735C12.7935 26.013 12.7242 26.7168 12.8592 27.3957C12.9943 28.0746 13.3276 28.6983 13.8171 29.1878C14.3066 29.6773 14.9302 30.0106 15.6092 30.1456C16.2881 30.2807 16.9918 30.2114 17.6314 29.9465C18.2709 29.6816 18.8176 29.233 19.2021 28.6574C19.5867 28.0818 19.792 27.4051 19.792 26.7129C19.792 25.7846 19.4232 24.8944 18.7669 24.238C18.1105 23.5816 17.2203 23.2129 16.292 23.2129Z" fill="black"/>
</svg>