<svg width="18" height="20" viewBox="0 0 18 20" fill="none" xmlns="http://www.w3.org/2000/svg">
<path d="M2.07673 0.542969H15.9233C16.4933 0.542969 17.0121 0.77622 17.3894 1.15332C17.7665 1.53088 18 2.04971 18 2.6197V17.3804C18 17.9523 17.7665 18.4718 17.3906 18.8477L17.3552 18.8801C16.982 19.2373 16.4766 19.4572 15.9233 19.4572H2.07673C1.50487 19.4572 0.985568 19.2239 0.60941 18.8477C0.233251 18.4718 0 17.9523 0 17.3804V2.6197C0 2.04971 0.233251 1.53088 0.60941 1.15449C0.985568 0.77622 1.50487 0.542969 2.07673 0.542969ZM8.5024 7.50883H15.2681C15.5743 7.50883 15.8231 7.75756 15.8231 8.06379V12.0345C15.8231 12.3409 15.5743 12.5894 15.2681 12.5894H8.5024C8.19617 12.5894 7.94744 12.3409 7.94744 12.0345V8.06379C7.94744 7.75756 8.19617 7.50883 8.5024 7.50883ZM2.73167 7.50883H6.47073C6.77719 7.50883 7.02569 7.75756 7.02569 8.06379V12.0345C7.02569 12.3409 6.77719 12.5894 6.47073 12.5894H2.73167C2.42544 12.5894 2.1767 12.3409 2.1767 12.0345V8.06379C2.1767 7.75756 2.42544 7.50883 2.73167 7.50883ZM2.73167 2.75932H15.2681C15.5743 2.75932 15.8231 3.00783 15.8231 3.31429V6.23721C15.8231 6.54344 15.5743 6.79218 15.2681 6.79218H2.73167C2.42544 6.79218 2.1767 6.54344 2.1767 6.23721V3.31429C2.1767 3.00783 2.42544 2.75932 2.73167 2.75932ZM15.9233 1.65291H2.07673C1.81133 1.65291 1.56963 1.76202 1.39434 1.93731C1.21858 2.11167 1.10994 2.3536 1.10994 2.6197V17.3804C1.10994 17.6458 1.21905 17.8878 1.39434 18.0628C1.56963 18.2381 1.81133 18.3472 2.07673 18.3472H15.9233C16.1779 18.3472 16.4107 18.2477 16.5838 18.0863L16.6057 18.0628C16.7809 17.8878 16.8901 17.6458 16.8901 17.3804V2.6197C16.8901 2.3536 16.7814 2.11167 16.6068 1.93614C16.4313 1.76155 16.1891 1.65291 15.9233 1.65291Z" fill="#002C3F"/>
<path d="M15.2682 13.3454H2.73173C2.4255 13.3454 2.17676 13.5939 2.17676 13.9004V16.8233C2.17676 17.1295 2.4255 17.3783 2.73173 17.3783H15.2682C15.5744 17.3783 15.8231 17.1295 15.8231 16.8233V13.9004C15.8231 13.5939 15.5744 13.3454 15.2682 13.3454Z" fill="#002C3F"/>
</svg>
