<svg width="129" height="85" viewBox="0 0 129 85" fill="none" xmlns="http://www.w3.org/2000/svg">
<g style="mix-blend-mode:multiply">
<path d="M19.9856 20.803C19.9856 21.1846 19.6881 21.4959 19.3112 21.4959C18.9343 21.4959 18.6367 21.1846 18.6367 20.803C18.6367 20.4315 18.9343 20.1202 19.3112 20.1202C19.6881 20.1202 19.9856 20.4315 19.9856 20.803Z" fill="#9D5C1E"/>
</g>
<g style="mix-blend-mode:multiply">
<path d="M4.5889 75.1132C4.5889 75.4948 4.29135 75.8061 3.91444 75.8061C3.53754 75.8061 3.23999 75.4948 3.23999 75.1132C3.23999 74.7417 3.53754 74.4304 3.91444 74.4304C4.29135 74.4304 4.5889 74.7417 4.5889 75.1132Z" fill="#9D5C1E"/>
</g>
<g style="mix-blend-mode:multiply">
<path d="M56.3077 83.7692C55.9395 83.8504 55.5757 83.6224 55.4955 83.2495C55.4152 82.8767 55.6523 82.5161 56.0206 82.4349C56.3791 82.3558 56.7429 82.5839 56.8231 82.9567C56.9034 83.3295 56.6663 83.6901 56.3077 83.7692Z" fill="#9D5C1E"/>
</g>
<g style="mix-blend-mode:multiply">
<path d="M73.1938 27.9764C73.1938 28.3579 72.8963 28.6692 72.5194 28.6692C72.1425 28.6692 71.8449 28.3579 71.8449 27.9764C71.8449 27.6049 72.1425 27.2936 72.5194 27.2936C72.8963 27.2936 73.1938 27.6049 73.1938 27.9764Z" fill="#9D5C1E"/>
</g>
<g style="mix-blend-mode:multiply">
<path d="M79.9556 2.18248C79.6297 2.37413 79.2144 2.27 79.025 1.94006C78.8357 1.61012 78.9522 1.19329 79.2781 1.00164C79.5954 0.815038 80.0107 0.919169 80.2 1.24911C80.3893 1.57905 80.2729 1.99587 79.9556 2.18248Z" fill="#9D5C1E"/>
</g>
<g style="mix-blend-mode:multiply">
<path d="M45.8313 -0.0459638C45.8313 0.335599 45.5338 0.646872 45.1569 0.646872C44.78 0.646872 44.4824 0.335599 44.4824 -0.0459638C44.4824 -0.417485 44.78 -0.72876 45.1569 -0.72876C45.5338 -0.72876 45.8313 -0.417485 45.8313 -0.0459638Z" fill="#9D5C1E"/>
</g>
<g style="mix-blend-mode:multiply">
<path d="M50.104 26.3918C50.104 26.7733 49.8065 27.0846 49.4296 27.0846C49.0527 27.0846 48.7551 26.7733 48.7551 26.3918C48.7551 26.0203 49.0527 25.709 49.4296 25.709C49.8065 25.709 50.104 26.0203 50.104 26.3918Z" fill="#9D5C1E"/>
</g>
<g style="mix-blend-mode:multiply">
<path d="M33.88 66.0766C33.88 66.418 33.6023 66.6891 33.2749 66.6891C32.9377 66.6891 32.6699 66.418 32.6699 66.0766C32.6699 65.7453 32.9377 65.4641 33.2749 65.4641C33.6023 65.4641 33.88 65.7453 33.88 66.0766Z" fill="#9D5C1E"/>
</g>
<g style="mix-blend-mode:multiply">
<path d="M19.227 42.2902C19.227 42.4609 19.0881 42.5914 18.9195 42.5914C18.7509 42.5914 18.6219 42.4609 18.6219 42.2902C18.6219 42.1195 18.7509 41.9789 18.9195 41.9789C19.0881 41.9789 19.227 42.1195 19.227 42.2902Z" fill="#9D5C1E"/>
</g>
<g style="mix-blend-mode:multiply">
<path d="M42.4956 59.1298C42.4956 59.3005 42.3568 59.431 42.1882 59.431C42.0196 59.431 41.8906 59.3005 41.8906 59.1298C41.8906 58.9591 42.0196 58.8185 42.1882 58.8185C42.3568 58.8185 42.4956 58.9591 42.4956 59.1298Z" fill="#9D5C1E"/>
</g>
<g style="mix-blend-mode:multiply">
<path d="M33.9486 31.6255C33.9486 31.7861 33.8197 31.9267 33.651 31.9267C33.4824 31.9267 33.3436 31.7861 33.3436 31.6255C33.3436 31.4548 33.4824 31.3142 33.651 31.3142C33.8197 31.3142 33.9486 31.4548 33.9486 31.6255Z" fill="#9D5C1E"/>
</g>
<g style="mix-blend-mode:multiply">
<path d="M30.8141 37.1782C30.8141 37.3489 30.6753 37.4795 30.5166 37.4795C30.348 37.4795 30.2091 37.3489 30.2091 37.1782C30.2091 37.0075 30.348 36.8669 30.5166 36.8669C30.6753 36.8669 30.8141 37.0075 30.8141 37.1782Z" fill="#9D5C1E"/>
</g>
<g style="mix-blend-mode:multiply">
<path d="M69.4929 42.1145C69.4929 42.2852 69.354 42.4157 69.1953 42.4157C69.0267 42.4157 68.8879 42.2852 68.8879 42.1145C68.8879 41.9438 69.0267 41.8032 69.1953 41.8032C69.354 41.8032 69.4929 41.9438 69.4929 42.1145Z" fill="#9D5C1E"/>
</g>
<g style="mix-blend-mode:multiply">
<path d="M56.6587 16.3293C56.6587 16.5 56.5199 16.6306 56.3612 16.6306C56.1926 16.6306 56.0537 16.5 56.0537 16.3293C56.0537 16.1586 56.1926 16.0181 56.3612 16.0181C56.5199 16.0181 56.6587 16.1586 56.6587 16.3293Z" fill="#9D5C1E"/>
</g>
<g style="mix-blend-mode:multiply">
<path d="M60.9322 42.7671C60.9322 42.9378 60.7933 43.0683 60.6346 43.0683C60.466 43.0683 60.3271 42.9378 60.3271 42.7671C60.3271 42.5964 60.466 42.4558 60.6346 42.4558C60.7933 42.4558 60.9322 42.5964 60.9322 42.7671Z" fill="#9D5C1E"/>
</g>
<g style="mix-blend-mode:multiply">
<path d="M16.1971 27.9723C16.1971 28.143 16.0582 28.2835 15.8995 28.2835C15.7309 28.2835 15.592 28.143 15.592 27.9723C15.592 27.8116 15.7309 27.671 15.8995 27.671C16.0582 27.671 16.1971 27.8116 16.1971 27.9723Z" fill="#9D5C1E"/>
</g>
<g style="mix-blend-mode:multiply">
<path d="M0.800339 82.2824C0.800339 82.4531 0.661481 82.5937 0.502785 82.5937C0.334172 82.5937 0.195312 82.4531 0.195312 82.2824C0.195312 82.1218 0.334172 81.9812 0.502785 81.9812C0.661481 81.9812 0.800339 82.1218 0.800339 82.2824Z" fill="#9D5C1E"/>
</g>
<g style="mix-blend-mode:multiply">
<path d="M48.5812 81.5475C48.4165 81.5838 48.2512 81.4764 48.2175 81.3194C48.1816 81.1526 48.2877 80.9854 48.4524 80.949C48.6075 80.9148 48.7727 81.0222 48.8086 81.189C48.8424 81.346 48.7363 81.5133 48.5812 81.5475Z" fill="#9D5C1E"/>
</g>
<g style="mix-blend-mode:multiply">
<path d="M69.1773 31.0991C69.1773 31.2698 69.0384 31.4104 68.8797 31.4104C68.7111 31.4104 68.5723 31.2698 68.5723 31.0991C68.5723 30.9384 68.7111 30.7979 68.8797 30.7979C69.0384 30.7979 69.1773 30.9384 69.1773 31.0991Z" fill="#9D5C1E"/>
</g>
<g style="mix-blend-mode:multiply">
<path d="M71.9287 2.46603C71.7831 2.55166 71.5935 2.50067 71.5138 2.36181C71.4291 2.21427 71.4793 2.02225 71.6249 1.93662C71.762 1.85604 71.9516 1.90703 72.0363 2.05457C72.1159 2.19343 72.0657 2.38544 71.9287 2.46603Z" fill="#9D5C1E"/>
</g>
<g style="mix-blend-mode:multiply">
<path d="M42.0425 7.12338C42.0425 7.29408 41.9037 7.43465 41.745 7.43465C41.5764 7.43465 41.4375 7.29408 41.4375 7.12338C41.4375 6.96272 41.5764 6.82214 41.745 6.82214C41.9037 6.82214 42.0425 6.96272 42.0425 7.12338Z" fill="#9D5C1E"/>
</g>
<g style="mix-blend-mode:multiply">
<path d="M46.314 33.5611C46.314 33.7318 46.1752 33.8724 46.0165 33.8724C45.8478 33.8724 45.709 33.7318 45.709 33.5611C45.709 33.4005 45.8478 33.2599 46.0165 33.2599C46.1752 33.2599 46.314 33.4005 46.314 33.5611Z" fill="#9D5C1E"/>
</g>
<path d="M23.0457 42.4207C23.0457 42.6014 22.897 42.762 22.7085 42.762C22.5201 42.762 22.3713 42.6014 22.3713 42.4207C22.3713 42.2299 22.5201 42.0692 22.7085 42.0692C22.897 42.0692 23.0457 42.2299 23.0457 42.4207Z" fill="#D5AD47"/>
<path d="M46.3141 59.2604C46.3141 59.4411 46.1653 59.6018 45.9769 59.6018C45.7884 59.6018 45.6396 59.4411 45.6396 59.2604C45.6396 59.0696 45.7884 58.9089 45.9769 58.9089C46.1653 58.9089 46.3141 59.0696 46.3141 59.2604Z" fill="#D5AD47"/>
<path d="M34.5534 40.5819C34.5534 40.7727 34.4046 40.9233 34.2161 40.9233C34.0277 40.9233 33.8789 40.7727 33.8789 40.5819C33.8789 40.3911 34.0277 40.2405 34.2161 40.2405C34.4046 40.2405 34.5534 40.3911 34.5534 40.5819Z" fill="#D5AD47"/>
<path d="M23.3874 73.328C23.3874 73.5187 23.2287 73.6694 23.0402 73.6694C22.8518 73.6694 22.703 73.5187 22.703 73.328C22.703 73.1372 22.8518 72.9866 23.0402 72.9866C23.2287 72.9866 23.3874 73.1372 23.3874 73.328Z" fill="#D5AD47"/>
<path d="M26.5424 26.1548C26.5424 26.5364 26.2349 26.8376 25.858 26.8376C25.491 26.8376 25.1835 26.5364 25.1835 26.1548C25.1835 25.7733 25.491 25.472 25.858 25.472C26.2349 25.472 26.5424 25.7733 26.5424 26.1548Z" fill="#D5AD47"/>
<path d="M10.228 85.284C10.228 85.6656 9.9205 85.9668 9.54359 85.9668C9.17661 85.9668 8.86914 85.6656 8.86914 85.284C8.86914 84.9024 9.17661 84.6012 9.54359 84.6012C9.9205 84.6012 10.228 84.9024 10.228 85.284Z" fill="#D5AD47"/>
<path d="M79.7506 33.3283C79.7506 33.7099 79.4431 34.0111 79.0662 34.0111C78.6992 34.0111 78.3917 33.7099 78.3917 33.3283C78.3917 32.9467 78.6992 32.6455 79.0662 32.6455C79.4431 32.6455 79.7506 32.9467 79.7506 33.3283Z" fill="#D5AD47"/>
<path d="M78.6755 10.6091C78.3496 10.8008 77.9378 10.6829 77.7485 10.353C77.5642 10.0317 77.6671 9.61126 77.993 9.41961C78.3189 9.22796 78.7306 9.34582 78.9149 9.66708C79.1042 9.99702 79.0014 10.4175 78.6755 10.6091Z" fill="#D5AD47"/>
<path d="M52.3872 5.30609C52.3872 5.68765 52.0797 5.98888 51.7028 5.98888C51.3358 5.98888 51.0283 5.68765 51.0283 5.30609C51.0283 4.92452 51.3358 4.62329 51.7028 4.62329C52.0797 4.62329 52.3872 4.92452 52.3872 5.30609Z" fill="#D5AD47"/>
<path d="M56.6597 31.7437C56.6597 32.1253 56.3523 32.4265 55.9754 32.4265C55.6084 32.4265 55.3009 32.1253 55.3009 31.7437C55.3009 31.3621 55.6084 31.0609 55.9754 31.0609C56.3523 31.0609 56.6597 31.3621 56.6597 31.7437Z" fill="#D5AD47"/>
<path d="M130 61.6943C130 62.0759 129.693 62.3771 129.316 62.3771C128.949 62.3771 128.642 62.0759 128.642 61.6943C128.642 61.3127 128.949 61.0015 129.316 61.0015C129.693 61.0015 130 61.3127 130 61.6943Z" fill="white"/>
<path d="M28.6938 69.2013C28.6938 69.5829 28.3863 69.8942 28.0193 69.8942C27.6424 69.8942 27.335 69.5829 27.335 69.2013C27.335 68.8198 27.6424 68.5186 28.0193 68.5186C28.3863 68.5186 28.6938 68.8198 28.6938 69.2013Z" fill="white"/>
<g style="mix-blend-mode:multiply">
<path d="M119.525 73.1883C119.525 73.7977 119.044 74.2948 118.434 74.2948C117.825 74.2948 117.344 73.7977 117.344 73.1883C117.344 72.5949 117.825 72.0978 118.434 72.0978C119.044 72.0978 119.525 72.5949 119.525 73.1883Z" fill="#9D5C1E"/>
</g>
<g style="mix-blend-mode:multiply">
<path d="M82.1908 70.6574C82.1908 71.2668 81.7097 71.764 81.1003 71.764C80.4909 71.764 80.0098 71.2668 80.0098 70.6574C80.0098 70.064 80.4909 69.5669 81.1003 69.5669C81.7097 69.5669 82.1908 70.064 82.1908 70.6574Z" fill="#9D5C1E"/>
</g>
<g style="mix-blend-mode:multiply">
<path d="M56.0691 79.0162C56.0691 79.2728 55.8606 79.4973 55.588 79.4973C55.3153 79.4973 55.0908 79.2728 55.0908 79.0162C55.0908 78.7436 55.3153 78.519 55.588 78.519C55.8606 78.519 56.0691 78.7436 56.0691 79.0162Z" fill="#9D5C1E"/>
</g>
<g style="mix-blend-mode:multiply">
<path d="M113.029 78.1756C113.029 78.4482 112.805 78.6727 112.548 78.6727C112.275 78.6727 112.051 78.4482 112.051 78.1756C112.051 77.919 112.275 77.6945 112.548 77.6945C112.805 77.6945 113.029 77.919 113.029 78.1756Z" fill="#9D5C1E"/>
</g>
<g style="mix-blend-mode:multiply">
<path d="M76.0642 82.1077C76.0642 82.3803 75.8397 82.6048 75.5831 82.6048C75.3105 82.6048 75.0859 82.3803 75.0859 82.1077C75.0859 81.8511 75.3105 81.6266 75.5831 81.6266C75.8397 81.6266 76.0642 81.8511 76.0642 82.1077Z" fill="#9D5C1E"/>
</g>
<path d="M130.125 81.7359C130.125 82.3453 129.628 82.8264 129.018 82.8264C128.425 82.8264 127.928 82.3453 127.928 81.7359C127.928 81.1265 128.425 80.6454 129.018 80.6454C129.628 80.6454 130.125 81.1265 130.125 81.7359Z" fill="#D5AD47"/>
<path d="M92.7898 79.205C92.7898 79.8144 92.2927 80.2955 91.6833 80.2955C91.0899 80.2955 90.5928 79.8144 90.5928 79.205C90.5928 78.5956 91.0899 78.1145 91.6833 78.1145C92.2927 78.1145 92.7898 78.5956 92.7898 79.205Z" fill="#D5AD47"/>
<g style="mix-blend-mode:multiply">
<path d="M106.785 12.423C107.378 12.5613 107.753 13.1427 107.615 13.7362C107.476 14.3297 106.883 14.6854 106.29 14.5471C105.712 14.4124 105.337 13.831 105.475 13.2375C105.613 12.644 106.207 12.2883 106.785 12.423Z" fill="#9D5C1E"/>
</g>
<g style="mix-blend-mode:multiply">
<path d="M95.8461 48.2081C96.4396 48.3464 96.8146 48.9278 96.6763 49.5213C96.538 50.1148 95.9446 50.4705 95.3511 50.3322C94.7732 50.1976 94.3983 49.6162 94.5366 49.0227C94.6749 48.4292 95.2682 48.0734 95.8461 48.2081Z" fill="#9D5C1E"/>
</g>
<g style="mix-blend-mode:multiply">
<path d="M98.0578 75.5454C98.3077 75.6036 98.479 75.8576 98.4171 76.1231C98.3552 76.3886 98.0856 76.5563 97.8357 76.4981C97.5702 76.4362 97.4025 76.1666 97.4644 75.9011C97.5263 75.6356 97.7923 75.4835 98.0578 75.5454Z" fill="#9D5C1E"/>
</g>
<g style="mix-blend-mode:multiply">
<path d="M105.545 82.4934C105.811 82.5552 105.963 82.8212 105.904 83.0711C105.843 83.3366 105.589 83.508 105.323 83.4461C105.058 83.3842 104.89 83.1146 104.952 82.8491C105.01 82.5992 105.28 82.4315 105.545 82.4934Z" fill="#9D5C1E"/>
</g>
<g style="mix-blend-mode:multiply">
<path d="M127.417 23.3767C127.683 23.4385 127.835 23.7045 127.776 23.9544C127.715 24.2199 127.461 24.3913 127.195 24.3294C126.93 24.2675 126.762 23.9979 126.824 23.7324C126.882 23.4825 127.152 23.3148 127.417 23.3767Z" fill="#9D5C1E"/>
</g>
<g style="mix-blend-mode:multiply">
<path d="M125.291 37.0929C125.557 37.1547 125.709 37.4207 125.651 37.6706C125.589 37.9361 125.335 38.1075 125.069 38.0456C124.804 37.9837 124.636 37.7141 124.698 37.4486C124.756 37.1987 125.026 37.031 125.291 37.0929Z" fill="#9D5C1E"/>
</g>
<g style="mix-blend-mode:multiply">
<path d="M110.167 19.8811C110.433 19.943 110.6 20.2126 110.542 20.4625C110.48 20.728 110.211 20.8957 109.945 20.8338C109.695 20.7756 109.528 20.506 109.589 20.2404C109.648 19.9905 109.917 19.8228 110.167 19.8811Z" fill="#9D5C1E"/>
</g>
<g style="mix-blend-mode:multiply">
<path d="M105.608 56.7737C105.873 56.8355 106.041 57.1052 105.983 57.355C105.921 57.6206 105.651 57.7883 105.386 57.7264C105.136 57.6681 104.968 57.3985 105.03 57.133C105.088 56.8831 105.358 56.7154 105.608 56.7737Z" fill="#9D5C1E"/>
</g>
<path d="M112.211 77.839C112.508 77.9082 112.688 78.1971 112.618 78.4938C112.549 78.7906 112.26 78.9703 111.964 78.9011C111.667 78.8319 111.487 78.5431 111.556 78.2463C111.626 77.9496 111.914 77.7699 112.211 77.839Z" fill="#D5AD47"/>
<path d="M117.515 4.03955C118.108 4.17786 118.464 4.77123 118.326 5.36473C118.191 5.94261 117.61 6.31758 117.016 6.17927C116.423 6.04096 116.067 5.44759 116.202 4.86971C116.34 4.27622 116.921 3.90124 117.515 4.03955Z" fill="#D5AD47"/>
<path d="M106.576 39.8258C107.17 39.9641 107.526 40.5575 107.387 41.151C107.253 41.7289 106.671 42.1038 106.078 41.9655C105.484 41.8272 105.128 41.2338 105.263 40.656C105.401 40.0625 105.983 39.6875 106.576 39.8258Z" fill="#D5AD47"/>
</svg>
