<svg width="277" height="214" viewBox="0 0 277 214" fill="none" xmlns="http://www.w3.org/2000/svg">
<g opacity="0.08" clip-path="url(#clip0_111_4681)">
<path d="M161.388 33.587C160.096 33.8607 158.987 34.9955 158.11 36.8009C144.614 52.0778 127.027 59.9442 114.643 63.9186C114.471 63.9551 114.299 63.9916 114.127 64.0281C105.441 66.7689 99.39 67.5116 99.3039 67.5299C95.5153 68.3329 93.411 77.5062 95.601 87.8387C97.7911 98.1711 103.454 105.788 107.243 104.985C107.243 104.985 107.846 104.857 108.774 104.57C108.583 110.459 111.103 116.403 111.611 117.105C111.734 117.259 112.459 117.285 113.529 117.238C115.782 127.018 120.526 138.788 126.369 145.557C128.261 146.416 139.03 138.645 138.547 137.218C134.987 132.304 130.367 122.397 127.905 115.451C129.818 115.135 131.282 114.825 131.59 114.58C132.79 113.876 131.174 105.401 130.566 102.111C138.263 101.919 147.366 102.419 157.075 104.5C157.075 104.5 157.081 104.528 157.093 104.586L157.075 104.5C162.629 105.662 168.189 107.272 173.895 109.572C175.288 110.626 176.553 111.078 177.759 110.822C183.786 109.545 185.026 91.1974 180.499 69.8437C175.973 48.4899 167.415 32.3095 161.388 33.587Z" fill="#FFC756"/>
<path d="M109.537 115.385C111.79 125.165 116.534 136.935 122.377 143.704C124.269 144.563 135.038 136.792 134.555 135.365C130.908 130.469 126.375 120.544 123.913 113.598" stroke="white" stroke-width="1.108" stroke-linecap="round" stroke-linejoin="round"/>
<path d="M104.783 102.717C104.591 108.606 107.111 114.55 107.619 115.252C108.128 115.954 126.157 113.572 127.598 112.727C128.798 112.023 127.182 103.548 126.574 100.258" stroke="white" stroke-width="1.108" stroke-linecap="round" stroke-linejoin="round"/>
<path d="M154.118 34.9477C130.909 61.2806 95.4841 65.6402 95.3119 65.6767C91.5234 66.4797 89.419 75.6531 91.6091 85.9855C93.7991 96.318 99.4623 103.935 103.251 103.132C103.423 103.095 136.448 94.206 169.903 107.719" stroke="white" stroke-width="1.108" stroke-linecap="round" stroke-linejoin="round"/>
<path d="M110.651 62.0654C106.863 62.8684 105.588 72.1358 107.851 82.8127C110.096 93.4034 115.039 101.443 118.827 100.64" stroke="white" stroke-width="1.108" stroke-linecap="round" stroke-linejoin="round"/>
<path d="M176.507 67.9907C181.033 89.3444 179.794 107.692 173.767 108.969C167.739 110.247 159.163 93.98 154.637 72.6263C150.111 51.2725 151.369 33.0115 157.396 31.7339C163.423 30.4564 171.981 46.6369 176.507 67.9907Z" stroke="white" stroke-width="1.108" stroke-linecap="round" stroke-linejoin="round"/>
<path d="M153.101 102.733C148.849 96.2561 144.973 86.4609 142.582 75.1813C140.319 64.5044 139.825 54.5323 140.844 47.0286" stroke="white" stroke-width="1.108" stroke-linecap="round" stroke-linejoin="round"/>
<path d="M168.328 69.7244C169.952 77.3876 169.544 83.9521 167.478 84.3901C165.497 84.8099 162.461 78.9754 160.837 71.3122C159.212 63.6489 159.621 57.0845 161.601 56.6647C163.667 56.2267 166.704 62.0612 168.328 69.7244Z" stroke="white" stroke-width="1.108" stroke-linecap="round" stroke-linejoin="round"/>
<path d="M161.687 56.6464C158.652 58.4593 153.139 60.8875 153.139 60.8875" stroke="white" stroke-width="1.108" stroke-linecap="round" stroke-linejoin="round"/>
<path d="M167.582 84.4579C164.054 83.946 158.048 84.0494 158.048 84.0494" stroke="white" stroke-width="1.108" stroke-linecap="round" stroke-linejoin="round"/>
<path d="M37.7344 173.183C37.8045 177.182 38.6816 182.164 40.4006 185.286C41.0672 185.777 45.9085 183.637 45.8383 183.041C44.8209 180.831 43.8737 176.586 43.4878 173.674" stroke="white" stroke-width="1.108" stroke-linecap="round" stroke-linejoin="round"/>
<path d="M36.9273 167.85C36.366 170.131 36.8572 172.657 36.9975 172.972C37.1378 173.288 44.3647 173.849 44.9962 173.639C45.5224 173.464 45.5926 170.026 45.6277 168.692" stroke="white" stroke-width="1.108" stroke-linecap="round" stroke-linejoin="round"/>
<path d="M61.7654 145.503C50.5392 153.853 36.366 152.625 36.2959 152.625C34.7523 152.625 33.1736 156.028 33.1736 160.238C33.1736 164.448 34.7523 167.886 36.2959 167.886C36.366 167.886 49.9778 167.149 61.9057 175.183" stroke="white" stroke-width="1.108" stroke-linecap="round" stroke-linejoin="round"/>
<path d="M42.5754 152.485C41.0317 152.485 39.7688 155.993 39.7688 160.343C39.7688 164.658 41.0317 168.201 42.5754 168.201" stroke="white" stroke-width="1.108" stroke-linecap="round" stroke-linejoin="round"/>
<path d="M67.7643 160.238C67.7643 168.938 65.7647 175.99 63.3089 175.99C60.8532 175.99 58.8535 168.938 58.8535 160.238C58.8535 151.537 60.8532 144.521 63.3089 144.521C65.7647 144.521 67.7643 151.537 67.7643 160.238Z" stroke="white" stroke-width="1.108" stroke-linecap="round" stroke-linejoin="round"/>
<path d="M55.7664 171.85C54.6438 168.973 53.9421 164.833 53.9421 160.238C53.9421 155.888 54.5736 151.958 55.591 149.117" stroke="white" stroke-width="1.108" stroke-linecap="round" stroke-linejoin="round"/>
<path d="M64.4315 160.238C64.4315 163.36 63.7299 165.886 62.8879 165.886C62.081 165.886 61.3794 163.36 61.3794 160.238C61.3794 157.115 62.081 154.589 62.8879 154.589C63.7299 154.589 64.4315 157.115 64.4315 160.238Z" stroke="white" stroke-width="1.108" stroke-linecap="round" stroke-linejoin="round"/>
<path d="M62.9231 154.589C61.59 155.046 59.2395 155.537 59.2395 155.537" stroke="white" stroke-width="1.108" stroke-linecap="round" stroke-linejoin="round"/>
<path d="M62.9231 165.921C61.59 165.43 59.2395 164.974 59.2395 164.974" stroke="white" stroke-width="1.108" stroke-linecap="round" stroke-linejoin="round"/>
<path d="M32.8931 75.5994C32.9632 79.5987 33.8403 84.5803 35.5593 87.7026C36.2259 88.1938 41.0672 86.0538 40.997 85.4574C39.9796 83.2472 39.0324 79.0023 38.6465 76.0905" stroke="white" stroke-width="1.108" stroke-linecap="round" stroke-linejoin="round"/>
<path d="M32.086 70.2668C31.5247 72.5472 32.0159 75.0731 32.1562 75.3888C32.2965 75.7046 39.5234 76.2659 40.1549 76.0554C40.6811 75.88 40.7513 72.4419 40.7864 71.1088" stroke="white" stroke-width="1.108" stroke-linecap="round" stroke-linejoin="round"/>
<path d="M56.9241 47.9197C45.6979 56.2692 31.5247 55.0413 31.4546 55.0413C29.911 55.0413 28.3323 58.4443 28.3323 62.6541C28.3323 66.8639 29.911 70.302 31.4546 70.302C31.5247 70.302 45.1365 69.5653 57.0644 77.599" stroke="white" stroke-width="1.108" stroke-linecap="round" stroke-linejoin="round"/>
<path d="M37.734 54.901C36.1904 54.901 34.9275 58.4092 34.9275 62.7594C34.9275 67.0744 36.1904 70.6177 37.734 70.6177" stroke="white" stroke-width="1.108" stroke-linecap="round" stroke-linejoin="round"/>
<path d="M62.923 62.6541C62.923 71.3544 60.9234 78.4059 58.4676 78.4059C56.0119 78.4059 54.0122 71.3544 54.0122 62.6541C54.0122 53.9538 56.0119 46.9374 58.4676 46.9374C60.9234 46.9374 62.923 53.9538 62.923 62.6541Z" stroke="white" stroke-width="1.108" stroke-linecap="round" stroke-linejoin="round"/>
<path d="M50.9251 74.2662C49.8025 71.3895 49.1008 67.2498 49.1008 62.6541C49.1008 58.3039 49.7323 54.3747 50.7497 51.5331" stroke="white" stroke-width="1.108" stroke-linecap="round" stroke-linejoin="round"/>
<path d="M59.5902 62.6541C59.5902 65.7764 58.8886 68.3023 58.0466 68.3023C57.2397 68.3023 56.5381 65.7764 56.5381 62.6541C56.5381 59.5318 57.2397 57.0059 58.0466 57.0059C58.8886 57.0059 59.5902 59.5318 59.5902 62.6541Z" stroke="white" stroke-width="1.108" stroke-linecap="round" stroke-linejoin="round"/>
<path d="M58.0818 57.0059C56.7487 57.4619 54.3982 57.9531 54.3982 57.9531" stroke="white" stroke-width="1.108" stroke-linecap="round" stroke-linejoin="round"/>
<path d="M58.0818 68.3373C56.7487 67.8462 54.3982 67.3901 54.3982 67.3901" stroke="white" stroke-width="1.108" stroke-linecap="round" stroke-linejoin="round"/>
<path d="M244.026 61.9602C245.323 65.744 247.69 70.2141 250.286 72.656C251.072 72.9183 255.02 69.3925 254.77 68.8466C253.122 67.0567 250.914 63.3091 249.651 60.6573" stroke="white" stroke-width="1.108" stroke-linecap="round" stroke-linejoin="round"/>
<path d="M241.617 57.1346C241.785 59.477 243.029 61.7293 243.26 61.9865C243.49 62.2438 250.539 60.5543 251.075 60.1597C251.522 59.8309 250.531 56.5381 250.154 55.2588" stroke="white" stroke-width="1.108" stroke-linecap="round" stroke-linejoin="round"/>
<path d="M258.375 28.2293C250.262 39.6278 236.398 42.8203 236.332 42.8419C234.863 43.3168 234.408 47.0404 235.703 51.046C236.998 55.0517 239.558 57.8372 241.027 57.3623C241.094 57.3407 253.819 52.4516 267.64 56.4257" stroke="white" stroke-width="1.108" stroke-linecap="round" stroke-linejoin="round"/>
<path d="M242.263 40.7764C240.795 41.2513 240.672 44.9779 242.011 49.1171C243.339 53.2228 245.63 56.2056 247.099 55.7307" stroke="white" stroke-width="1.108" stroke-linecap="round" stroke-linejoin="round"/>
<path d="M268.616 40.4033C271.293 48.6816 271.56 56.0063 269.223 56.7618C266.887 57.5174 262.814 51.4233 260.137 43.145C257.461 34.8667 257.204 27.5754 259.541 26.8198C261.878 26.0643 265.939 32.125 268.616 40.4033Z" stroke="white" stroke-width="1.108" stroke-linecap="round" stroke-linejoin="round"/>
<path d="M260.773 55.1436C258.819 52.7519 256.878 49.0289 255.464 44.6561C254.126 40.517 253.518 36.5841 253.611 33.5673" stroke="white" stroke-width="1.108" stroke-linecap="round" stroke-linejoin="round"/>
<path d="M265.445 41.4287C266.406 44.3995 266.515 47.0187 265.714 47.2778C264.946 47.5261 263.501 45.3386 262.541 42.3677C261.58 39.3969 261.471 36.7777 262.238 36.5294C263.039 36.2703 264.484 38.4578 265.445 41.4287Z" stroke="white" stroke-width="1.108" stroke-linecap="round" stroke-linejoin="round"/>
<path d="M262.272 36.5186C261.143 37.3627 259.058 38.5532 259.058 38.5532" stroke="white" stroke-width="1.108" stroke-linecap="round" stroke-linejoin="round"/>
<path d="M265.758 47.3005C264.338 47.2433 261.962 47.5326 261.962 47.5326" stroke="white" stroke-width="1.108" stroke-linecap="round" stroke-linejoin="round"/>
<path d="M161.001 156.673C162.071 160.527 164.168 165.13 166.614 167.723C167.382 168.031 171.533 164.747 171.316 164.187C169.777 162.302 167.797 158.43 166.695 155.707" stroke="white" stroke-width="1.108" stroke-linecap="round" stroke-linejoin="round"/>
<path d="M158.885 151.712C158.912 154.061 160.02 156.383 160.235 156.653C160.45 156.924 167.587 155.658 168.146 155.296C168.612 154.994 167.819 151.648 167.519 150.349" stroke="white" stroke-width="1.108" stroke-linecap="round" stroke-linejoin="round"/>
<path d="M177.335 123.857C168.558 134.752 154.529 137.112 154.461 137.13C152.966 137.516 152.29 141.206 153.344 145.282C154.399 149.358 156.788 152.291 158.282 151.904C158.35 151.887 171.344 147.765 184.904 152.556" stroke="white" stroke-width="1.108" stroke-linecap="round" stroke-linejoin="round"/>
<path d="M160.505 135.422C159.011 135.808 158.666 139.521 159.756 143.732C160.836 147.91 162.946 151.024 164.441 150.638" stroke="white" stroke-width="1.108" stroke-linecap="round" stroke-linejoin="round"/>
<path d="M186.833 136.62C189.012 145.043 188.842 152.371 186.464 152.985C184.087 153.6 180.385 147.274 178.206 138.851C176.027 130.428 176.206 123.135 178.584 122.52C180.961 121.905 184.654 128.197 186.833 136.62Z" stroke="white" stroke-width="1.108" stroke-linecap="round" stroke-linejoin="round"/>
<path d="M178.125 150.867C176.318 148.363 174.602 144.531 173.451 140.081C172.362 135.87 171.989 131.908 172.263 128.902" stroke="white" stroke-width="1.108" stroke-linecap="round" stroke-linejoin="round"/>
<path d="M183.606 137.454C184.388 140.477 184.341 143.098 183.526 143.309C182.745 143.511 181.433 141.242 180.651 138.219C179.869 135.196 179.916 132.575 180.697 132.373C181.512 132.162 182.824 134.432 183.606 137.454Z" stroke="white" stroke-width="1.108" stroke-linecap="round" stroke-linejoin="round"/>
<path d="M180.731 132.364C179.555 133.139 177.402 134.203 177.402 134.203" stroke="white" stroke-width="1.108" stroke-linecap="round" stroke-linejoin="round"/>
<path d="M183.569 143.334C182.155 143.193 179.766 143.34 179.766 143.34" stroke="white" stroke-width="1.108" stroke-linecap="round" stroke-linejoin="round"/>
<path d="M95.5371 18.3391C96.6066 22.1935 98.7032 26.7967 101.149 29.3891C101.918 29.6976 106.069 26.4135 105.851 25.8536C104.313 23.9687 102.333 20.0962 101.23 17.3738" stroke="white" stroke-width="1.108" stroke-linecap="round" stroke-linejoin="round"/>
<path d="M93.4204 13.3787C93.448 15.7269 94.5561 18.0493 94.771 18.3198C94.9859 18.5904 102.123 17.324 102.682 16.9621C103.147 16.6605 102.354 13.3145 102.054 12.015" stroke="white" stroke-width="1.108" stroke-linecap="round" stroke-linejoin="round"/>
<path d="M111.871 -14.4765C103.093 -3.58177 89.0643 -1.22127 88.9964 -1.20369C87.502 -0.817142 86.8258 2.87272 87.88 6.94841C88.9342 11.0241 91.3236 13.9573 92.818 13.5707C92.8859 13.5531 105.88 9.4312 119.439 14.222" stroke="white" stroke-width="1.108" stroke-linecap="round" stroke-linejoin="round"/>
<path d="M95.0406 -2.91205C93.5462 -2.5255 93.202 1.18719 94.2914 5.39874C95.372 9.57633 97.482 12.6904 98.9764 12.3039" stroke="white" stroke-width="1.108" stroke-linecap="round" stroke-linejoin="round"/>
<path d="M121.369 -1.71376C123.547 6.70934 123.377 14.0369 121 14.6519C118.622 15.2668 114.92 8.94081 112.742 0.517697C110.563 -7.90541 110.742 -15.199 113.119 -15.814C115.497 -16.4289 119.19 -10.1369 121.369 -1.71376Z" stroke="white" stroke-width="1.108" stroke-linecap="round" stroke-linejoin="round"/>
<path d="M112.661 12.5329C110.854 10.029 109.138 6.1969 107.987 1.74759C106.897 -2.46396 106.525 -6.42608 106.798 -9.43195" stroke="white" stroke-width="1.108" stroke-linecap="round" stroke-linejoin="round"/>
<path d="M118.142 -0.879219C118.924 2.14359 118.877 4.76471 118.062 4.97556C117.281 5.17762 115.969 2.90791 115.187 -0.1149C114.405 -3.13771 114.452 -5.75884 115.233 -5.9609C116.048 -6.17174 117.36 -3.90203 118.142 -0.879219Z" stroke="white" stroke-width="1.108" stroke-linecap="round" stroke-linejoin="round"/>
<path d="M118.105 5.0008C116.691 4.85914 114.301 5.00623 114.301 5.00623" stroke="white" stroke-width="1.108" stroke-linecap="round" stroke-linejoin="round"/>
<path d="M239.49 136.604C240.559 140.458 242.656 145.061 245.102 147.653C245.87 147.962 250.021 144.678 249.804 144.118C248.266 142.233 246.286 138.361 245.183 135.638" stroke="white" stroke-width="1.108" stroke-linecap="round" stroke-linejoin="round"/>
<path d="M237.373 131.643C237.401 133.991 238.509 136.314 238.724 136.584C238.939 136.855 246.076 135.588 246.634 135.227C247.1 134.925 246.307 131.579 246.007 130.279" stroke="white" stroke-width="1.108" stroke-linecap="round" stroke-linejoin="round"/>
<path d="M255.824 103.788C247.046 114.683 233.017 117.043 232.949 117.061C231.455 117.447 230.778 121.137 231.833 125.213C232.887 129.289 235.276 132.222 236.771 131.835C236.839 131.818 249.832 127.696 263.392 132.486" stroke="white" stroke-width="1.108" stroke-linecap="round" stroke-linejoin="round"/>
<path d="M238.993 115.352C237.499 115.739 237.155 119.452 238.244 123.663C239.325 127.841 241.435 130.955 242.929 130.568" stroke="white" stroke-width="1.108" stroke-linecap="round" stroke-linejoin="round"/>
<path d="M265.321 116.551C267.5 124.974 267.33 132.301 264.952 132.916C262.575 133.531 258.873 127.205 256.694 118.782C254.516 110.359 254.695 103.065 257.072 102.45C259.449 101.835 263.142 108.128 265.321 116.551Z" stroke="white" stroke-width="1.108" stroke-linecap="round" stroke-linejoin="round"/>
<path d="M256.614 130.797C254.806 128.293 253.09 124.461 251.939 120.012C250.85 115.8 250.478 111.838 250.751 108.832" stroke="white" stroke-width="1.108" stroke-linecap="round" stroke-linejoin="round"/>
<path d="M262.094 117.385C262.876 120.408 262.83 123.029 262.014 123.24C261.233 123.442 259.921 121.172 259.14 118.15C258.358 115.127 258.404 112.506 259.186 112.304C260.001 112.093 261.313 114.362 262.094 117.385Z" stroke="white" stroke-width="1.108" stroke-linecap="round" stroke-linejoin="round"/>
<path d="M259.22 112.295C258.043 113.07 255.891 114.134 255.891 114.134" stroke="white" stroke-width="1.108" stroke-linecap="round" stroke-linejoin="round"/>
<path d="M262.057 123.265C260.644 123.124 258.254 123.271 258.254 123.271" stroke="white" stroke-width="1.108" stroke-linecap="round" stroke-linejoin="round"/>
<path d="M134.604 190.372C135.226 192.614 136.44 195.292 137.852 196.802C138.294 196.982 140.679 195.08 140.553 194.755C139.664 193.657 138.519 191.404 137.88 189.82" stroke="white" stroke-width="1.108" stroke-linecap="round" stroke-linejoin="round"/>
<path d="M133.379 187.487C133.398 188.851 134.039 190.203 134.163 190.36C134.288 190.518 138.394 189.793 138.715 189.583C138.982 189.409 138.521 187.463 138.346 186.708" stroke="white" stroke-width="1.108" stroke-linecap="round" stroke-linejoin="round"/>
<path d="M143.957 171.329C138.921 177.647 130.849 178.997 130.81 179.007C129.951 179.229 129.567 181.372 130.18 183.742C130.793 186.112 132.173 187.82 133.032 187.598C133.071 187.588 140.544 185.212 148.357 188.016" stroke="white" stroke-width="1.108" stroke-linecap="round" stroke-linejoin="round"/>
<path d="M134.287 178.023C133.427 178.246 133.234 180.402 133.868 182.851C134.496 185.28 135.715 187.093 136.575 186.871" stroke="white" stroke-width="1.108" stroke-linecap="round" stroke-linejoin="round"/>
<path d="M149.443 178.76C150.71 183.657 150.623 187.915 149.255 188.269C147.888 188.622 145.748 184.941 144.481 180.043C143.214 175.145 143.306 170.908 144.673 170.554C146.041 170.2 148.176 173.862 149.443 178.76Z" stroke="white" stroke-width="1.108" stroke-linecap="round" stroke-linejoin="round"/>
<path d="M144.452 187.025C143.408 185.567 142.415 183.338 141.746 180.751C141.112 178.302 140.892 175.999 141.044 174.253" stroke="white" stroke-width="1.108" stroke-linecap="round" stroke-linejoin="round"/>
<path d="M147.587 179.24C148.042 180.997 148.019 182.52 147.55 182.641C147.101 182.758 146.342 181.437 145.887 179.679C145.433 177.922 145.456 176.399 145.905 176.282C146.374 176.161 147.132 177.482 147.587 179.24Z" stroke="white" stroke-width="1.108" stroke-linecap="round" stroke-linejoin="round"/>
<path d="M145.925 176.277C145.249 176.726 144.011 177.341 144.011 177.341" stroke="white" stroke-width="1.108" stroke-linecap="round" stroke-linejoin="round"/>
<path d="M147.574 182.656C146.76 182.572 145.385 182.654 145.385 182.654" stroke="white" stroke-width="1.108" stroke-linecap="round" stroke-linejoin="round"/>
<path d="M65.9526 118.391C66.5741 120.633 67.7878 123.311 69.1998 124.821C69.6425 125.001 72.0269 123.099 71.901 122.774C71.0126 121.676 69.867 119.423 69.2282 117.839" stroke="white" stroke-width="1.108" stroke-linecap="round" stroke-linejoin="round"/>
<path d="M64.7267 115.506C64.7461 116.87 65.3874 118.222 65.5115 118.379C65.6357 118.537 69.7419 117.812 70.0629 117.602C70.3305 117.428 69.8689 115.482 69.6943 114.727" stroke="white" stroke-width="1.108" stroke-linecap="round" stroke-linejoin="round"/>
<path d="M75.3049 99.3483C70.269 105.666 62.1974 107.016 62.1583 107.026C61.2987 107.248 60.9151 109.391 61.528 111.761C62.141 114.131 63.5208 115.839 64.3804 115.617C64.4195 115.607 71.8924 113.231 79.7046 116.036" stroke="white" stroke-width="1.108" stroke-linecap="round" stroke-linejoin="round"/>
<path d="M65.6347 106.042C64.7751 106.265 64.5826 108.422 65.216 110.87C65.8444 113.299 67.0636 115.112 67.9232 114.89" stroke="white" stroke-width="1.108" stroke-linecap="round" stroke-linejoin="round"/>
<path d="M80.7911 106.779C82.0579 111.676 81.9711 115.934 80.6036 116.288C79.236 116.641 77.0956 112.96 75.8288 108.062C74.5619 103.164 74.6539 98.9267 76.0214 98.5729C77.389 98.2192 79.5242 101.881 80.7911 106.779Z" stroke="white" stroke-width="1.108" stroke-linecap="round" stroke-linejoin="round"/>
<path d="M75.8004 115.044C74.7564 113.586 73.7629 111.357 73.0937 108.77C72.4603 106.321 72.2398 104.018 72.3926 102.272" stroke="white" stroke-width="1.108" stroke-linecap="round" stroke-linejoin="round"/>
<path d="M78.9352 107.259C79.3898 109.016 79.3669 110.539 78.898 110.66C78.4487 110.777 77.6902 109.456 77.2355 107.698C76.7809 105.941 76.8038 104.418 77.2532 104.301C77.722 104.18 78.4806 105.501 78.9352 107.259Z" stroke="white" stroke-width="1.108" stroke-linecap="round" stroke-linejoin="round"/>
<path d="M77.2728 104.296C76.5968 104.745 75.3594 105.36 75.3594 105.36" stroke="white" stroke-width="1.108" stroke-linecap="round" stroke-linejoin="round"/>
<path d="M78.9224 110.675C78.1085 110.591 76.7332 110.673 76.7332 110.673" stroke="white" stroke-width="1.108" stroke-linecap="round" stroke-linejoin="round"/>
<path d="M200.105 75.3613C200.727 77.6026 201.941 80.2806 203.353 81.7906C203.795 81.9711 206.18 80.069 206.054 79.7434C205.165 78.6458 204.02 76.3926 203.381 74.8091" stroke="white" stroke-width="1.108" stroke-linecap="round" stroke-linejoin="round"/>
<path d="M198.879 72.4758C198.899 73.8403 199.54 75.1915 199.664 75.349C199.788 75.5066 203.895 74.7815 204.216 74.5721C204.483 74.3975 204.022 72.4521 203.847 71.6965" stroke="white" stroke-width="1.108" stroke-linecap="round" stroke-linejoin="round"/>
<path d="M209.458 56.3181C204.422 62.6354 196.35 63.9858 196.311 63.9959C195.452 64.2182 195.068 66.3613 195.681 68.7311C196.294 71.101 197.674 72.809 198.533 72.5866C198.572 72.5765 206.045 70.2011 213.857 73.0054" stroke="white" stroke-width="1.108" stroke-linecap="round" stroke-linejoin="round"/>
<path d="M199.788 63.0122C198.928 63.2346 198.735 65.3914 199.369 67.8402C199.997 70.2693 201.216 72.082 202.076 71.8597" stroke="white" stroke-width="1.108" stroke-linecap="round" stroke-linejoin="round"/>
<path d="M214.944 63.7485C216.211 68.6461 216.124 72.9037 214.756 73.2574C213.389 73.6112 211.248 69.9297 209.982 65.032C208.715 60.1343 208.807 55.8965 210.174 55.5428C211.542 55.189 213.677 58.8508 214.944 63.7485Z" stroke="white" stroke-width="1.108" stroke-linecap="round" stroke-linejoin="round"/>
<path d="M209.953 72.0135C208.909 70.5559 207.916 68.3266 207.247 65.7395C206.613 63.2906 206.393 60.9878 206.545 59.2416" stroke="white" stroke-width="1.108" stroke-linecap="round" stroke-linejoin="round"/>
<path d="M213.088 64.2284C213.543 65.9861 213.52 67.509 213.051 67.6303C212.602 67.7466 211.843 66.4257 211.388 64.6681C210.934 62.9104 210.957 61.3875 211.406 61.2712C211.875 61.1499 212.633 62.4708 213.088 64.2284Z" stroke="white" stroke-width="1.108" stroke-linecap="round" stroke-linejoin="round"/>
<path d="M211.426 61.2663C210.75 61.715 209.512 62.3301 209.512 62.3301" stroke="white" stroke-width="1.108" stroke-linecap="round" stroke-linejoin="round"/>
<path d="M213.075 67.6451C212.261 67.5606 210.886 67.6425 210.886 67.6425" stroke="white" stroke-width="1.108" stroke-linecap="round" stroke-linejoin="round"/>
<path d="M214.677 174.325C215.298 176.566 216.512 179.244 217.924 180.754C218.367 180.935 220.751 179.033 220.625 178.707C219.737 177.609 218.591 175.356 217.952 173.773" stroke="white" stroke-width="1.108" stroke-linecap="round" stroke-linejoin="round"/>
<path d="M213.451 171.439C213.47 172.804 214.112 174.155 214.236 174.313C214.36 174.47 218.466 173.745 218.787 173.536C219.055 173.361 218.593 171.416 218.418 170.66" stroke="white" stroke-width="1.108" stroke-linecap="round" stroke-linejoin="round"/>
<path d="M224.029 155.282C218.993 161.599 210.922 162.949 210.882 162.96C210.023 163.182 209.639 165.325 210.252 167.695C210.865 170.065 212.245 171.773 213.105 171.55C213.144 171.54 220.617 169.165 228.429 171.969" stroke="white" stroke-width="1.108" stroke-linecap="round" stroke-linejoin="round"/>
<path d="M214.359 161.976C213.499 162.198 213.307 164.355 213.94 166.804C214.568 169.233 215.788 171.046 216.647 170.823" stroke="white" stroke-width="1.108" stroke-linecap="round" stroke-linejoin="round"/>
<path d="M229.515 162.712C230.782 167.61 230.695 171.867 229.328 172.221C227.96 172.575 225.82 168.893 224.553 163.996C223.286 159.098 223.378 154.86 224.746 154.506C226.113 154.153 228.248 157.814 229.515 162.712Z" stroke="white" stroke-width="1.108" stroke-linecap="round" stroke-linejoin="round"/>
<path d="M224.525 170.977C223.481 169.519 222.487 167.29 221.818 164.703C221.184 162.254 220.964 159.951 221.117 158.205" stroke="white" stroke-width="1.108" stroke-linecap="round" stroke-linejoin="round"/>
<path d="M227.659 163.192C228.114 164.95 228.091 166.473 227.622 166.594C227.173 166.71 226.414 165.389 225.96 163.632C225.505 161.874 225.528 160.351 225.977 160.235C226.446 160.114 227.205 161.434 227.659 163.192Z" stroke="white" stroke-width="1.108" stroke-linecap="round" stroke-linejoin="round"/>
<path d="M225.997 160.23C225.321 160.679 224.083 161.294 224.083 161.294" stroke="white" stroke-width="1.108" stroke-linecap="round" stroke-linejoin="round"/>
<path d="M227.647 166.609C226.833 166.524 225.457 166.606 225.457 166.606" stroke="white" stroke-width="1.108" stroke-linecap="round" stroke-linejoin="round"/>
<path d="M79.689 53.8911C80.3104 56.1324 81.5242 58.8104 82.9361 60.3204C83.3788 60.5008 85.7633 58.5988 85.6373 58.2732C84.749 57.1756 83.6034 54.9224 82.9645 53.3388" stroke="white" stroke-width="1.108" stroke-linecap="round" stroke-linejoin="round"/>
<path d="M78.463 51.0056C78.4824 52.3701 79.1238 53.7213 79.2479 53.8788C79.372 54.0363 83.4783 53.3113 83.7993 53.1019C84.0668 52.9273 83.6052 50.9818 83.4307 50.2263" stroke="white" stroke-width="1.108" stroke-linecap="round" stroke-linejoin="round"/>
<path d="M89.0412 34.8479C84.0053 41.1652 75.9337 42.5156 75.8946 42.5257C75.035 42.748 74.6514 44.8911 75.2644 47.2609C75.8774 49.6308 77.2571 51.3387 78.1167 51.1164C78.1558 51.1063 85.6287 48.7308 93.441 51.5351" stroke="white" stroke-width="1.108" stroke-linecap="round" stroke-linejoin="round"/>
<path d="M79.371 41.542C78.5114 41.7644 78.3189 43.9212 78.9524 46.37C79.5807 48.7991 80.7999 50.6118 81.6595 50.3895" stroke="white" stroke-width="1.108" stroke-linecap="round" stroke-linejoin="round"/>
<path d="M94.5274 42.2782C95.7943 47.1759 95.7074 51.4335 94.3399 51.7872C92.9723 52.141 90.832 48.4595 89.5651 43.5618C88.2983 38.6641 88.3902 34.4263 89.7578 34.0726C91.1253 33.7188 93.2606 37.3805 94.5274 42.2782Z" stroke="white" stroke-width="1.108" stroke-linecap="round" stroke-linejoin="round"/>
<path d="M89.5368 50.5433C88.4927 49.0856 87.4992 46.8564 86.83 44.2693C86.1966 41.8204 85.9761 39.5176 86.1289 37.7714" stroke="white" stroke-width="1.108" stroke-linecap="round" stroke-linejoin="round"/>
<path d="M92.6715 42.7582C93.1262 44.5159 93.1032 46.0388 92.6344 46.1601C92.185 46.2763 91.4265 44.9555 90.9718 43.1979C90.5172 41.4402 90.5401 39.9172 90.9895 39.801C91.4584 39.6797 92.2169 41.0006 92.6715 42.7582Z" stroke="white" stroke-width="1.108" stroke-linecap="round" stroke-linejoin="round"/>
<path d="M91.0091 39.7961C90.3331 40.2448 89.0957 40.8599 89.0957 40.8599" stroke="white" stroke-width="1.108" stroke-linecap="round" stroke-linejoin="round"/>
<path d="M92.6587 46.1749C91.8448 46.0904 90.4695 46.1722 90.4695 46.1722" stroke="white" stroke-width="1.108" stroke-linecap="round" stroke-linejoin="round"/>
<path d="M143.763 14.4906C144.385 16.7319 145.598 19.4098 147.01 20.9199C147.453 21.1003 149.837 19.1983 149.712 18.8727C148.823 17.775 147.678 15.5219 147.039 13.9383" stroke="white" stroke-width="1.108" stroke-linecap="round" stroke-linejoin="round"/>
<path d="M142.537 11.6051C142.557 12.9696 143.198 14.3208 143.322 14.4783C143.446 14.6358 147.552 13.9108 147.873 13.7014C148.141 13.5268 147.679 11.5813 147.505 10.8258" stroke="white" stroke-width="1.108" stroke-linecap="round" stroke-linejoin="round"/>
<path d="M153.115 -4.5526C148.08 1.76469 140.008 3.11506 139.969 3.12516C139.109 3.34751 138.726 5.49055 139.339 7.8604C139.952 10.2303 141.331 11.9382 142.191 11.7159C142.23 11.7058 149.703 9.33032 157.515 12.1346" stroke="white" stroke-width="1.108" stroke-linecap="round" stroke-linejoin="round"/>
<path d="M143.445 2.1415C142.586 2.36385 142.393 4.52065 143.027 6.9695C143.655 9.3986 144.874 11.2113 145.734 10.989" stroke="white" stroke-width="1.108" stroke-linecap="round" stroke-linejoin="round"/>
<path d="M158.602 2.87772C159.868 7.77542 159.782 12.033 158.414 12.3867C157.047 12.7404 154.906 9.05898 153.639 4.16129C152.372 -0.736404 152.464 -4.9742 153.832 -5.32794C155.2 -5.68168 157.335 -2.01997 158.602 2.87772Z" stroke="white" stroke-width="1.108" stroke-linecap="round" stroke-linejoin="round"/>
<path d="M153.611 11.1428C152.567 9.68513 151.573 7.45585 150.904 4.86876C150.271 2.41991 150.05 0.117087 150.203 -1.62911" stroke="white" stroke-width="1.108" stroke-linecap="round" stroke-linejoin="round"/>
<path d="M156.746 3.3577C157.2 5.11534 157.177 6.63832 156.709 6.7596C156.259 6.87583 155.501 5.55499 155.046 3.79735C154.591 2.03971 154.614 0.51673 155.064 0.400502C155.533 0.27922 156.291 1.60006 156.746 3.3577Z" stroke="white" stroke-width="1.108" stroke-linecap="round" stroke-linejoin="round"/>
<path d="M155.083 0.39554C154.407 0.844303 153.17 1.45936 153.17 1.45936" stroke="white" stroke-width="1.108" stroke-linecap="round" stroke-linejoin="round"/>
<path d="M156.733 6.77434C155.919 6.68988 154.544 6.77173 154.544 6.77173" stroke="white" stroke-width="1.108" stroke-linecap="round" stroke-linejoin="round"/>
<path d="M90.8706 164.147C91.492 166.388 92.7058 169.066 94.1177 170.576C94.5605 170.757 96.9449 168.855 96.819 168.529C95.9306 167.432 94.785 165.179 94.1461 163.595" stroke="white" stroke-width="1.108" stroke-linecap="round" stroke-linejoin="round"/>
<path d="M89.6446 161.262C89.6641 162.626 90.3054 163.977 90.4295 164.135C90.5536 164.292 94.6599 163.567 94.9809 163.358C95.2484 163.183 94.7869 161.238 94.6123 160.482" stroke="white" stroke-width="1.108" stroke-linecap="round" stroke-linejoin="round"/>
<path d="M100.223 145.104C95.1869 151.421 87.1153 152.772 87.0763 152.782C86.2167 153.004 85.833 155.147 86.446 157.517C87.059 159.887 88.4388 161.595 89.2984 161.372C89.3375 161.362 96.8104 158.987 104.623 161.791" stroke="white" stroke-width="1.108" stroke-linecap="round" stroke-linejoin="round"/>
<path d="M90.5527 151.798C89.6931 152.02 89.5006 154.177 90.134 156.626C90.7623 159.055 91.9816 160.868 92.8412 160.646" stroke="white" stroke-width="1.108" stroke-linecap="round" stroke-linejoin="round"/>
<path d="M105.709 152.534C106.976 157.432 106.889 161.69 105.522 162.043C104.154 162.397 102.014 158.716 100.747 153.818C99.4799 148.92 99.5718 144.682 100.939 144.329C102.307 143.975 104.442 147.637 105.709 152.534Z" stroke="white" stroke-width="1.108" stroke-linecap="round" stroke-linejoin="round"/>
<path d="M100.718 160.799C99.6744 159.342 98.6808 157.112 98.0117 154.525C97.3782 152.077 97.1578 149.774 97.3106 148.028" stroke="white" stroke-width="1.108" stroke-linecap="round" stroke-linejoin="round"/>
<path d="M103.853 153.014C104.308 154.772 104.285 156.295 103.816 156.416C103.367 156.532 102.608 155.212 102.153 153.454C101.699 151.696 101.722 150.173 102.171 150.057C102.64 149.936 103.399 151.257 103.853 153.014Z" stroke="white" stroke-width="1.108" stroke-linecap="round" stroke-linejoin="round"/>
<path d="M102.191 150.052C101.515 150.501 100.277 151.116 100.277 151.116" stroke="white" stroke-width="1.108" stroke-linecap="round" stroke-linejoin="round"/>
<path d="M103.84 156.431C103.026 156.347 101.651 156.428 101.651 156.428" stroke="white" stroke-width="1.108" stroke-linecap="round" stroke-linejoin="round"/>
<path d="M16.4312 123.649C17.0526 125.89 18.2664 128.568 19.6783 130.078C20.121 130.258 22.5054 128.356 22.3795 128.031C21.4912 126.933 20.3456 124.68 19.7067 123.096" stroke="white" stroke-width="1.108" stroke-linecap="round" stroke-linejoin="round"/>
<path d="M15.2052 120.763C15.2246 122.128 15.8659 123.479 15.9901 123.636C16.1142 123.794 20.2205 123.069 20.5415 122.859C20.809 122.685 20.3474 120.739 20.1729 119.984" stroke="white" stroke-width="1.108" stroke-linecap="round" stroke-linejoin="round"/>
<path d="M25.7834 104.605C20.7475 110.923 12.6759 112.273 12.6368 112.283C11.7772 112.506 11.3936 114.649 12.0066 117.018C12.6196 119.388 13.9993 121.096 14.8589 120.874C14.898 120.864 22.3709 118.488 30.1832 121.293" stroke="white" stroke-width="1.108" stroke-linecap="round" stroke-linejoin="round"/>
<path d="M16.1132 111.3C15.2536 111.522 15.0611 113.679 15.6945 116.128C16.3229 118.557 17.5421 120.369 18.4017 120.147" stroke="white" stroke-width="1.108" stroke-linecap="round" stroke-linejoin="round"/>
<path d="M31.2696 112.036C32.5365 116.933 32.4496 121.191 31.0821 121.545C29.7145 121.899 27.5742 118.217 26.3073 113.319C25.0405 108.422 25.1324 104.184 26.4999 103.83C27.8675 103.476 30.0028 107.138 31.2696 112.036Z" stroke="white" stroke-width="1.108" stroke-linecap="round" stroke-linejoin="round"/>
<path d="M26.279 120.301C25.2349 118.843 24.2414 116.614 23.5722 114.027C22.9388 111.578 22.7183 109.275 22.8711 107.529" stroke="white" stroke-width="1.108" stroke-linecap="round" stroke-linejoin="round"/>
<path d="M29.4137 112.516C29.8684 114.273 29.8454 115.796 29.3765 115.918C28.9272 116.034 28.1687 114.713 27.714 112.955C27.2594 111.198 27.2823 109.675 27.7317 109.559C28.2006 109.437 28.9591 110.758 29.4137 112.516Z" stroke="white" stroke-width="1.108" stroke-linecap="round" stroke-linejoin="round"/>
<path d="M27.7513 109.554C27.0753 110.002 25.8379 110.617 25.8379 110.617" stroke="white" stroke-width="1.108" stroke-linecap="round" stroke-linejoin="round"/>
<path d="M29.4009 115.932C28.587 115.848 27.2117 115.93 27.2117 115.93" stroke="white" stroke-width="1.108" stroke-linecap="round" stroke-linejoin="round"/>
<path d="M7.39941 31.2452C8.02083 33.4865 9.23462 36.1645 10.6466 37.6745C11.0893 37.855 13.4737 35.9529 13.3478 35.6273C12.4594 34.5297 11.3138 32.2765 10.6749 30.693" stroke="white" stroke-width="1.108" stroke-linecap="round" stroke-linejoin="round"/>
<path d="M6.17344 28.3597C6.19289 29.7243 6.8342 31.0754 6.95832 31.2329C7.08244 31.3905 11.1887 30.6654 11.5097 30.456C11.7772 30.2814 11.3157 28.336 11.1411 27.5805" stroke="white" stroke-width="1.108" stroke-linecap="round" stroke-linejoin="round"/>
<path d="M16.7517 12.202C11.7157 18.5193 3.64416 19.8697 3.60508 19.8798C2.74547 20.1022 2.36183 22.2452 2.97482 24.615C3.58782 26.9849 4.96758 28.6929 5.82719 28.4705C5.86626 28.4604 13.3392 26.085 21.1514 28.8893" stroke="white" stroke-width="1.108" stroke-linecap="round" stroke-linejoin="round"/>
<path d="M7.08148 18.8961C6.22187 19.1185 6.02938 21.2753 6.66281 23.7241C7.29113 26.1532 8.51038 27.9659 9.36999 27.7436" stroke="white" stroke-width="1.108" stroke-linecap="round" stroke-linejoin="round"/>
<path d="M22.2379 19.6324C23.5047 24.5301 23.4179 28.7876 22.0503 29.1413C20.6828 29.4951 18.5424 25.8136 17.2756 20.9159C16.0087 16.0182 16.1006 11.7804 17.4682 11.4267C18.8358 11.073 20.971 14.7347 22.2379 19.6324Z" stroke="white" stroke-width="1.108" stroke-linecap="round" stroke-linejoin="round"/>
<path d="M17.2472 27.8975C16.2032 26.4398 15.2097 24.2105 14.5405 21.6234C13.907 19.1745 13.6866 16.8717 13.8394 15.1255" stroke="white" stroke-width="1.108" stroke-linecap="round" stroke-linejoin="round"/>
<path d="M20.382 20.1123C20.8366 21.87 20.8137 23.393 20.3448 23.5142C19.8955 23.6305 19.1369 22.3096 18.6823 20.552C18.2277 18.7943 18.2506 17.2714 18.6999 17.1551C19.1688 17.0339 19.9273 18.3547 20.382 20.1123Z" stroke="white" stroke-width="1.108" stroke-linecap="round" stroke-linejoin="round"/>
<path d="M18.7196 17.1502C18.0436 17.5989 16.8061 18.214 16.8061 18.214" stroke="white" stroke-width="1.108" stroke-linecap="round" stroke-linejoin="round"/>
<path d="M20.3692 23.529C19.5553 23.4445 18.1799 23.5264 18.1799 23.5264" stroke="white" stroke-width="1.108" stroke-linecap="round" stroke-linejoin="round"/>
<path d="M59.2346 22.2421C59.856 24.4833 61.0698 27.1613 62.4818 28.6713C62.9245 28.8518 65.3089 26.9498 65.183 26.6241C64.2946 25.5265 63.149 23.2734 62.5101 21.6898" stroke="white" stroke-width="1.108" stroke-linecap="round" stroke-linejoin="round"/>
<path d="M58.0086 19.3566C58.0281 20.7211 58.6694 22.0722 58.7935 22.2298C58.9176 22.3873 63.0239 21.6623 63.3449 21.4528C63.6124 21.2783 63.1509 19.3328 62.9763 18.5773" stroke="white" stroke-width="1.108" stroke-linecap="round" stroke-linejoin="round"/>
<path d="M68.5869 3.19886C63.5509 9.51615 55.4794 10.8665 55.4403 10.8766C54.5807 11.099 54.197 13.242 54.81 15.6119C55.423 17.9817 56.8028 19.6897 57.6624 19.4673C57.7015 19.4572 65.1744 17.0818 72.9866 19.8861" stroke="white" stroke-width="1.108" stroke-linecap="round" stroke-linejoin="round"/>
<path d="M58.9167 9.89297C58.0571 10.1153 57.8646 12.2721 58.498 14.721C59.1263 17.1501 60.3456 18.9628 61.2052 18.7404" stroke="white" stroke-width="1.108" stroke-linecap="round" stroke-linejoin="round"/>
<path d="M74.0731 10.6292C75.3399 15.5269 75.2531 19.7844 73.8855 20.1382C72.518 20.4919 70.3776 16.8104 69.1108 11.9128C67.8439 7.01506 67.9359 2.77726 69.3034 2.42353C70.671 2.06979 72.8062 5.7315 74.0731 10.6292Z" stroke="white" stroke-width="1.108" stroke-linecap="round" stroke-linejoin="round"/>
<path d="M69.0824 18.8943C68.0384 17.4366 67.0449 15.2073 66.3757 12.6202C65.7422 10.1714 65.5218 7.86855 65.6746 6.12235" stroke="white" stroke-width="1.108" stroke-linecap="round" stroke-linejoin="round"/>
<path d="M72.2172 11.1092C72.6718 12.8668 72.6489 14.3898 72.18 14.5111C71.7307 14.6273 70.9721 13.3065 70.5175 11.5488C70.0629 9.79117 70.0858 8.26819 70.5351 8.15197C71.004 8.03068 71.7625 9.35153 72.2172 11.1092Z" stroke="white" stroke-width="1.108" stroke-linecap="round" stroke-linejoin="round"/>
<path d="M70.5548 8.14701C69.8788 8.59577 68.6413 9.21083 68.6413 9.21083" stroke="white" stroke-width="1.108" stroke-linecap="round" stroke-linejoin="round"/>
<path d="M72.2044 14.5258C71.3905 14.4413 70.0151 14.5232 70.0151 14.5232" stroke="white" stroke-width="1.108" stroke-linecap="round" stroke-linejoin="round"/>
<path d="M204.463 115.757C205.085 117.998 206.298 120.676 207.71 122.186C208.153 122.366 210.537 120.464 210.412 120.139C209.523 119.041 208.378 116.788 207.739 115.204" stroke="white" stroke-width="1.108" stroke-linecap="round" stroke-linejoin="round"/>
<path d="M203.237 112.871C203.257 114.236 203.898 115.587 204.022 115.744C204.146 115.902 208.252 115.177 208.573 114.967C208.841 114.793 208.379 112.847 208.205 112.092" stroke="white" stroke-width="1.108" stroke-linecap="round" stroke-linejoin="round"/>
<path d="M213.815 96.7135C208.779 103.031 200.708 104.381 200.669 104.391C199.809 104.614 199.426 106.757 200.039 109.127C200.652 111.496 202.031 113.204 202.891 112.982C202.93 112.972 210.403 110.596 218.215 113.401" stroke="white" stroke-width="1.108" stroke-linecap="round" stroke-linejoin="round"/>
<path d="M204.145 103.408C203.286 103.63 203.093 105.787 203.727 108.236C204.355 110.665 205.574 112.477 206.434 112.255" stroke="white" stroke-width="1.108" stroke-linecap="round" stroke-linejoin="round"/>
<path d="M219.302 104.144C220.568 109.042 220.482 113.299 219.114 113.653C217.746 114.007 215.606 110.325 214.339 105.427C213.072 100.53 213.164 96.2919 214.532 95.9382C215.899 95.5844 218.035 99.2461 219.302 104.144Z" stroke="white" stroke-width="1.108" stroke-linecap="round" stroke-linejoin="round"/>
<path d="M214.311 112.409C213.267 110.951 212.273 108.722 211.604 106.135C210.971 103.686 210.75 101.383 210.903 99.637" stroke="white" stroke-width="1.108" stroke-linecap="round" stroke-linejoin="round"/>
<path d="M217.446 104.624C217.9 106.381 217.877 107.904 217.409 108.026C216.959 108.142 216.201 106.821 215.746 105.063C215.291 103.306 215.314 101.783 215.764 101.667C216.233 101.545 216.991 102.866 217.446 104.624Z" stroke="white" stroke-width="1.108" stroke-linecap="round" stroke-linejoin="round"/>
<path d="M215.783 101.662C215.107 102.11 213.87 102.725 213.87 102.725" stroke="white" stroke-width="1.108" stroke-linecap="round" stroke-linejoin="round"/>
<path d="M217.433 108.04C216.619 107.956 215.244 108.038 215.244 108.038" stroke="white" stroke-width="1.108" stroke-linecap="round" stroke-linejoin="round"/>
<path d="M179.3 25.4478C179.37 29.4471 180.247 34.4287 181.966 37.551C182.633 38.0422 187.474 35.9022 187.404 35.3058C186.386 33.0956 185.439 28.8507 185.053 25.9389" stroke="white" stroke-width="1.108" stroke-linecap="round" stroke-linejoin="round"/>
<path d="M178.493 20.1152C177.931 22.3956 178.423 24.9215 178.563 25.2372C178.703 25.5529 185.93 26.1143 186.562 25.9038C187.088 25.7283 187.158 22.2903 187.193 20.9572" stroke="white" stroke-width="1.108" stroke-linecap="round" stroke-linejoin="round"/>
<path d="M203.331 -2.23193C192.105 6.11758 177.931 4.88971 177.861 4.88971C176.318 4.88971 174.739 8.29266 174.739 12.5025C174.739 16.7123 176.318 20.1504 177.861 20.1504C177.931 20.1504 191.543 19.4136 203.471 27.4474" stroke="white" stroke-width="1.108" stroke-linecap="round" stroke-linejoin="round"/>
<path d="M184.141 4.74939C182.597 4.74939 181.334 8.25759 181.334 12.6078C181.334 16.9228 182.597 20.4661 184.141 20.4661" stroke="white" stroke-width="1.108" stroke-linecap="round" stroke-linejoin="round"/>
<path d="M209.33 12.5025C209.33 21.2028 207.33 28.2543 204.874 28.2543C202.419 28.2543 200.419 21.2028 200.419 12.5025C200.419 3.80216 202.419 -3.21423 204.874 -3.21423C207.33 -3.21423 209.33 3.80216 209.33 12.5025Z" stroke="white" stroke-width="1.108" stroke-linecap="round" stroke-linejoin="round"/>
<path d="M197.332 24.1146C196.209 21.2379 195.508 17.0982 195.508 12.5025C195.508 8.15229 196.139 4.22311 197.156 1.38147" stroke="white" stroke-width="1.108" stroke-linecap="round" stroke-linejoin="round"/>
<path d="M205.997 12.5024C205.997 15.6247 205.295 18.1506 204.453 18.1506C203.646 18.1506 202.945 15.6247 202.945 12.5024C202.945 9.38015 203.646 6.85425 204.453 6.85425C205.295 6.85425 205.997 9.38015 205.997 12.5024Z" stroke="white" stroke-width="1.108" stroke-linecap="round" stroke-linejoin="round"/>
<path d="M204.489 6.85425C203.155 7.31031 200.805 7.80146 200.805 7.80146" stroke="white" stroke-width="1.108" stroke-linecap="round" stroke-linejoin="round"/>
<path d="M204.489 18.1857C203.155 17.6946 200.805 17.2385 200.805 17.2385" stroke="white" stroke-width="1.108" stroke-linecap="round" stroke-linejoin="round"/>
<path d="M121.63 45.9053C122.251 48.1465 123.465 50.8245 124.877 52.3345C125.32 52.515 127.704 50.613 127.578 50.2873C126.69 49.1897 125.544 46.9366 124.905 45.353" stroke="white" stroke-width="1.108" stroke-linecap="round" stroke-linejoin="round"/>
<path d="M120.404 43.0198C120.423 44.3843 121.065 45.7355 121.189 45.893C121.313 46.0505 125.419 45.3255 125.74 45.116C126.008 44.9415 125.546 42.996 125.372 42.2405" stroke="white" stroke-width="1.108" stroke-linecap="round" stroke-linejoin="round"/>
<path d="M130.982 26.8621C125.946 33.1794 117.875 34.5297 117.836 34.5398C116.976 34.7622 116.592 36.9052 117.205 39.2751C117.818 41.6449 119.198 43.3529 120.058 43.1305C120.097 43.1204 127.57 40.745 135.382 43.5493" stroke="white" stroke-width="1.108" stroke-linecap="round" stroke-linejoin="round"/>
<path d="M121.312 33.5562C120.452 33.7785 120.26 35.9353 120.893 38.3842C121.522 40.8133 122.741 42.626 123.6 42.4036" stroke="white" stroke-width="1.108" stroke-linecap="round" stroke-linejoin="round"/>
<path d="M136.468 34.2924C137.735 39.1901 137.648 43.4476 136.281 43.8014C134.913 44.1551 132.773 40.4737 131.506 35.576C130.239 30.6783 130.331 26.4405 131.699 26.0867C133.066 25.733 135.201 29.3947 136.468 34.2924Z" stroke="white" stroke-width="1.108" stroke-linecap="round" stroke-linejoin="round"/>
<path d="M131.478 42.5575C130.434 41.0998 129.44 38.8705 128.771 36.2834C128.138 33.8346 127.917 31.5318 128.07 29.7856" stroke="white" stroke-width="1.108" stroke-linecap="round" stroke-linejoin="round"/>
<path d="M134.612 34.7724C135.067 36.53 135.044 38.053 134.575 38.1743C134.126 38.2905 133.367 36.9697 132.913 35.212C132.458 33.4544 132.481 31.9314 132.93 31.8152C133.399 31.6939 134.158 33.0147 134.612 34.7724Z" stroke="white" stroke-width="1.108" stroke-linecap="round" stroke-linejoin="round"/>
<path d="M132.95 31.8102C132.274 32.259 131.037 32.874 131.037 32.874" stroke="white" stroke-width="1.108" stroke-linecap="round" stroke-linejoin="round"/>
<path d="M134.6 38.189C133.786 38.1046 132.41 38.1864 132.41 38.1864" stroke="white" stroke-width="1.108" stroke-linecap="round" stroke-linejoin="round"/>
<path d="M233.194 13.2687C233.815 15.5099 235.029 18.1879 236.441 19.6979C236.884 19.8784 239.268 17.9764 239.142 17.6507C238.254 16.5531 237.108 14.3 236.469 12.7164" stroke="white" stroke-width="1.108" stroke-linecap="round" stroke-linejoin="round"/>
<path d="M231.968 10.3832C231.987 11.7477 232.629 13.0989 232.753 13.2564C232.877 13.4139 236.983 12.6889 237.304 12.4794C237.572 12.3049 237.11 10.3594 236.936 9.60389" stroke="white" stroke-width="1.108" stroke-linecap="round" stroke-linejoin="round"/>
<path d="M242.546 -5.77453C237.51 0.542766 229.439 1.89313 229.4 1.90324C228.54 2.12559 228.156 4.26862 228.769 6.63847C229.382 9.00833 230.762 10.7163 231.622 10.494C231.661 10.4838 239.134 8.1084 246.946 10.9127" stroke="white" stroke-width="1.108" stroke-linecap="round" stroke-linejoin="round"/>
<path d="M232.876 0.91958C232.016 1.14193 231.824 3.29873 232.457 5.74758C233.086 8.17668 234.305 9.98938 235.164 9.76703" stroke="white" stroke-width="1.108" stroke-linecap="round" stroke-linejoin="round"/>
<path d="M248.032 1.6558C249.299 6.55349 249.212 10.811 247.845 11.1648C246.477 11.5185 244.337 7.83706 243.07 2.93936C241.803 -1.95833 241.895 -6.19613 243.263 -6.54986C244.63 -6.9036 246.765 -3.24189 248.032 1.6558Z" stroke="white" stroke-width="1.108" stroke-linecap="round" stroke-linejoin="round"/>
<path d="M243.042 9.9209C241.998 8.46321 241.004 6.23392 240.335 3.64683C239.701 1.19799 239.481 -1.10484 239.634 -2.85104" stroke="white" stroke-width="1.108" stroke-linecap="round" stroke-linejoin="round"/>
<path d="M246.176 2.13578C246.631 3.89342 246.608 5.4164 246.139 5.53768C245.69 5.65391 244.931 4.33307 244.477 2.57543C244.022 0.817786 244.045 -0.705194 244.494 -0.821422C244.963 -0.942704 245.722 0.37814 246.176 2.13578Z" stroke="white" stroke-width="1.108" stroke-linecap="round" stroke-linejoin="round"/>
<path d="M244.514 -0.826384C243.838 -0.37762 242.601 0.23744 242.601 0.23744" stroke="white" stroke-width="1.108" stroke-linecap="round" stroke-linejoin="round"/>
<path d="M246.164 5.55241C245.35 5.46796 243.974 5.5498 243.974 5.5498" stroke="white" stroke-width="1.108" stroke-linecap="round" stroke-linejoin="round"/>
<path d="M276.235 5.401C276.857 7.64225 278.071 10.3202 279.482 11.8303C279.925 12.0107 282.31 10.1087 282.184 9.78307C281.295 8.68544 280.15 6.43229 279.511 4.84873" stroke="white" stroke-width="1.108" stroke-linecap="round" stroke-linejoin="round"/>
<path d="M275.009 2.51549C275.029 3.88002 275.67 5.23118 275.794 5.38871C275.918 5.54623 280.025 4.82121 280.346 4.61176C280.613 4.43721 280.152 2.49172 279.977 1.73622" stroke="white" stroke-width="1.108" stroke-linecap="round" stroke-linejoin="round"/>
<path d="M285.588 -13.6422C280.552 -7.32491 272.48 -5.97454 272.441 -5.96443C271.581 -5.74209 271.198 -3.59905 271.811 -1.2292C272.424 1.14065 273.804 2.84863 274.663 2.62628C274.702 2.61617 282.175 0.240724 289.987 3.04503" stroke="white" stroke-width="1.108" stroke-linecap="round" stroke-linejoin="round"/>
<path d="M275.917 -6.9481C275.058 -6.72575 274.865 -4.56895 275.499 -2.1201C276.127 0.309 277.346 2.1217 278.206 1.89935" stroke="white" stroke-width="1.108" stroke-linecap="round" stroke-linejoin="round"/>
<path d="M181.654 194.688C182.276 196.929 183.49 199.607 184.901 201.117C185.344 201.297 187.729 199.395 187.603 199.07C186.714 197.972 185.569 195.719 184.93 194.135" stroke="white" stroke-width="1.108" stroke-linecap="round" stroke-linejoin="round"/>
<path d="M180.428 191.802C180.448 193.167 181.089 194.518 181.213 194.675C181.337 194.833 185.444 194.108 185.765 193.898C186.032 193.724 185.571 191.778 185.396 191.023" stroke="white" stroke-width="1.108" stroke-linecap="round" stroke-linejoin="round"/>
<path d="M191.007 175.645C185.971 181.962 177.899 183.312 177.86 183.322C177 183.545 176.617 185.688 177.23 188.058C177.843 190.427 179.222 192.135 180.082 191.913C180.121 191.903 187.594 189.527 195.406 192.332" stroke="white" stroke-width="1.108" stroke-linecap="round" stroke-linejoin="round"/>
<path d="M181.336 182.339C180.477 182.561 180.284 184.718 180.918 187.167C181.546 189.596 182.765 191.408 183.625 191.186" stroke="white" stroke-width="1.108" stroke-linecap="round" stroke-linejoin="round"/>
<path d="M196.493 183.075C197.76 187.973 197.673 192.23 196.305 192.584C194.938 192.938 192.797 189.256 191.53 184.358C190.264 179.461 190.356 175.223 191.723 174.869C193.091 174.515 195.226 178.177 196.493 183.075Z" stroke="white" stroke-width="1.108" stroke-linecap="round" stroke-linejoin="round"/>
<path d="M191.502 191.34C190.458 189.882 189.465 187.653 188.795 185.066C188.162 182.617 187.941 180.314 188.094 178.568" stroke="white" stroke-width="1.108" stroke-linecap="round" stroke-linejoin="round"/>
<path d="M194.637 183.555C195.092 185.312 195.069 186.835 194.6 186.957C194.15 187.073 193.392 185.752 192.937 183.994C192.483 182.237 192.505 180.714 192.955 180.598C193.424 180.476 194.182 181.797 194.637 183.555Z" stroke="white" stroke-width="1.108" stroke-linecap="round" stroke-linejoin="round"/>
<path d="M192.974 180.593C192.298 181.041 191.061 181.657 191.061 181.657" stroke="white" stroke-width="1.108" stroke-linecap="round" stroke-linejoin="round"/>
<path d="M194.624 186.971C193.81 186.887 192.435 186.969 192.435 186.969" stroke="white" stroke-width="1.108" stroke-linecap="round" stroke-linejoin="round"/>
<path d="M258.101 182.289C258.722 184.53 259.936 187.208 261.348 188.718C261.791 188.899 264.175 186.997 264.049 186.671C263.161 185.573 262.015 183.32 261.377 181.737" stroke="white" stroke-width="1.108" stroke-linecap="round" stroke-linejoin="round"/>
<path d="M256.875 179.403C256.895 180.768 257.536 182.119 257.66 182.277C257.784 182.434 261.89 181.709 262.211 181.5C262.479 181.325 262.017 179.38 261.843 178.624" stroke="white" stroke-width="1.108" stroke-linecap="round" stroke-linejoin="round"/>
<path d="M267.453 163.246C262.417 169.563 254.346 170.913 254.307 170.924C253.447 171.146 253.063 173.289 253.676 175.659C254.289 178.029 255.669 179.737 256.529 179.514C256.568 179.504 264.041 177.129 271.853 179.933" stroke="white" stroke-width="1.108" stroke-linecap="round" stroke-linejoin="round"/>
<path d="M257.783 169.94C256.924 170.162 256.731 172.319 257.364 174.768C257.993 177.197 259.212 179.01 260.072 178.787" stroke="white" stroke-width="1.108" stroke-linecap="round" stroke-linejoin="round"/>
<path d="M272.94 170.676C274.206 175.574 274.12 179.831 272.752 180.185C271.384 180.539 269.244 176.857 267.977 171.96C266.71 167.062 266.802 162.824 268.17 162.47C269.537 162.117 271.673 165.778 272.94 170.676Z" stroke="white" stroke-width="1.108" stroke-linecap="round" stroke-linejoin="round"/>
<path d="M267.949 178.941C266.905 177.483 265.911 175.254 265.242 172.667C264.609 170.218 264.388 167.915 264.541 166.169" stroke="white" stroke-width="1.108" stroke-linecap="round" stroke-linejoin="round"/>
<path d="M271.084 171.156C271.538 172.914 271.515 174.437 271.046 174.558C270.597 174.674 269.839 173.353 269.384 171.596C268.929 169.838 268.952 168.315 269.402 168.199C269.87 168.078 270.629 169.398 271.084 171.156Z" stroke="white" stroke-width="1.108" stroke-linecap="round" stroke-linejoin="round"/>
<path d="M269.421 168.194C268.745 168.643 267.508 169.258 267.508 169.258" stroke="white" stroke-width="1.108" stroke-linecap="round" stroke-linejoin="round"/>
<path d="M271.071 174.573C270.257 174.488 268.882 174.57 268.882 174.57" stroke="white" stroke-width="1.108" stroke-linecap="round" stroke-linejoin="round"/>
<path d="M80.2534 204.683C80.8748 206.924 82.0886 209.602 83.5006 211.112C83.9433 211.292 86.3277 209.39 86.2018 209.065C85.3134 207.967 84.1678 205.714 83.5289 204.13" stroke="white" stroke-width="1.108" stroke-linecap="round" stroke-linejoin="round"/>
<path d="M79.0274 201.797C79.0469 203.162 79.6882 204.513 79.8123 204.67C79.9364 204.828 84.0427 204.103 84.3637 203.893C84.6312 203.719 84.1697 201.773 83.9951 201.018" stroke="white" stroke-width="1.108" stroke-linecap="round" stroke-linejoin="round"/>
<path d="M89.6057 185.639C84.5697 191.957 76.4982 193.307 76.4591 193.317C75.5995 193.54 75.2158 195.683 75.8288 198.052C76.4418 200.422 77.8216 202.13 78.6812 201.908C78.7203 201.898 86.1932 199.522 94.0054 202.327" stroke="white" stroke-width="1.108" stroke-linecap="round" stroke-linejoin="round"/>
<path d="M79.9355 192.334C79.0759 192.556 78.8834 194.713 79.5168 197.162C80.1451 199.591 81.3644 201.403 82.224 201.181" stroke="white" stroke-width="1.108" stroke-linecap="round" stroke-linejoin="round"/>
<path d="M95.0919 193.07C96.3587 197.967 96.2719 202.225 94.9043 202.579C93.5368 202.932 91.3964 199.251 90.1296 194.353C88.8627 189.456 88.9547 185.218 90.3222 184.864C91.6898 184.51 93.825 188.172 95.0919 193.07Z" stroke="white" stroke-width="1.108" stroke-linecap="round" stroke-linejoin="round"/>
<path d="M90.1012 201.335C89.0572 199.877 88.0637 197.648 87.3945 195.061C86.761 192.612 86.5406 190.309 86.6934 188.563" stroke="white" stroke-width="1.108" stroke-linecap="round" stroke-linejoin="round"/>
<path d="M93.236 193.55C93.6906 195.307 93.6677 196.83 93.1988 196.952C92.7495 197.068 91.9909 195.747 91.5363 193.989C91.0817 192.232 91.1046 190.709 91.5539 190.593C92.0228 190.471 92.7813 191.792 93.236 193.55Z" stroke="white" stroke-width="1.108" stroke-linecap="round" stroke-linejoin="round"/>
<path d="M91.5736 190.588C90.8976 191.036 89.6601 191.651 89.6601 191.651" stroke="white" stroke-width="1.108" stroke-linecap="round" stroke-linejoin="round"/>
<path d="M93.2232 196.966C92.4093 196.882 91.0339 196.964 91.0339 196.964" stroke="white" stroke-width="1.108" stroke-linecap="round" stroke-linejoin="round"/>
<path d="M-1.6287 157.496C-6.66464 163.813 -14.7362 165.164 -14.7753 165.174C-15.6349 165.396 -16.0185 167.539 -15.4055 169.909C-14.7926 172.279 -13.4128 173.987 -12.5532 173.764C-12.5141 173.754 -5.04118 171.379 2.77106 174.183" stroke="white" stroke-width="1.108" stroke-linecap="round" stroke-linejoin="round"/>
<path d="M3.8575 164.926C5.12435 169.824 5.03753 174.082 3.66997 174.435C2.3024 174.789 0.162053 171.108 -1.1048 166.21C-2.37165 161.312 -2.27972 157.074 -0.912161 156.721C0.455401 156.367 2.59064 160.029 3.8575 164.926Z" stroke="white" stroke-width="1.108" stroke-linecap="round" stroke-linejoin="round"/>
<path d="M2.00161 165.406C2.45625 167.164 2.43331 168.687 1.96443 168.808C1.51509 168.924 0.756563 167.604 0.301926 165.846C-0.152711 164.088 -0.129777 162.565 0.319565 162.449C0.788444 162.328 1.54697 163.649 2.00161 165.406Z" stroke="white" stroke-width="1.108" stroke-linecap="round" stroke-linejoin="round"/>
<path d="M0.339185 162.444C-0.336798 162.893 -1.57423 163.508 -1.57423 163.508" stroke="white" stroke-width="1.108" stroke-linecap="round" stroke-linejoin="round"/>
<path d="M1.98883 168.823C1.17492 168.738 -0.200439 168.82 -0.200439 168.82" stroke="white" stroke-width="1.108" stroke-linecap="round" stroke-linejoin="round"/>
<path d="M-0.533969 115.844C-5.56991 122.161 -13.6415 123.511 -13.6806 123.521C-14.5402 123.744 -14.9238 125.887 -14.3108 128.257C-13.6978 130.626 -12.3181 132.334 -11.4585 132.112C-11.4194 132.102 -3.94646 129.727 3.86578 132.531" stroke="white" stroke-width="1.108" stroke-linecap="round" stroke-linejoin="round"/>
<path d="M4.95222 123.274C6.21908 128.172 6.13225 132.429 4.76469 132.783C3.39713 133.137 1.25678 129.455 -0.0100744 124.558C-1.27693 119.66 -1.185 115.422 0.182565 115.068C1.55013 114.715 3.68537 118.376 4.95222 123.274Z" stroke="white" stroke-width="1.108" stroke-linecap="round" stroke-linejoin="round"/>
<path d="M-0.0384322 131.539C-1.08248 130.081 -2.07599 127.852 -2.74518 125.265C-3.3786 122.816 -3.59907 120.513 -3.44628 118.767" stroke="white" stroke-width="1.108" stroke-linecap="round" stroke-linejoin="round"/>
<path d="M3.09634 123.754C3.55097 125.512 3.52804 127.035 3.05916 127.156C2.60982 127.272 1.85129 125.951 1.39665 124.194C0.942015 122.436 0.96495 120.913 1.41429 120.797C1.88317 120.675 2.6417 121.996 3.09634 123.754Z" stroke="white" stroke-width="1.108" stroke-linecap="round" stroke-linejoin="round"/>
<path d="M1.43391 120.792C0.757928 121.241 -0.479508 121.856 -0.479508 121.856" stroke="white" stroke-width="1.108" stroke-linecap="round" stroke-linejoin="round"/>
<path d="M3.08355 127.171C2.26965 127.086 0.894287 127.168 0.894287 127.168" stroke="white" stroke-width="1.108" stroke-linecap="round" stroke-linejoin="round"/>
</g>
<defs>
<clipPath id="clip0_111_4681">
<rect width="287.254" height="219.938" fill="white" transform="translate(-5.12671 -6)"/>
</clipPath>
</defs>
</svg>
