<svg xmlns="http://www.w3.org/2000/svg" width="14" height="16" viewBox="0 0 14 18" fill="none">
<path d="M9.00033 0.666504H2.33366C1.89163 0.666504 1.46771 0.842099 1.15515 1.15466C0.842587 1.46722 0.666992 1.89114 0.666992 2.33317V15.6665C0.666992 16.1085 0.842587 16.5325 1.15515 16.845C1.46771 17.1576 1.89163 17.3332 2.33366 17.3332H12.3337C12.7757 17.3332 13.1996 17.1576 13.5122 16.845C13.8247 16.5325 14.0003 16.1085 14.0003 15.6665V5.6665L9.00033 0.666504ZM10.5003 15.6665H9.00033L7.33366 12.8332L5.66699 15.6665H4.16699L6.58366 11.9165L4.16699 8.1665H5.66699L7.33366 10.9998L9.00033 8.1665H10.5003L8.08366 11.9165L10.5003 15.6665ZM8.16699 6.49984V1.9165L12.7503 6.49984H8.16699Z" fill="#1D6F42"/>
</svg>