<svg xmlns="http://www.w3.org/2000/svg" width="24" height="24" viewBox="0 0 24 24" fill="none">
<rect width="24" height="24" rx="4" fill="#EAEEF6"/>
<g clip-path="url(#clip0_14582_1930)">
<rect x="4" y="4" width="16" height="16" rx="4" fill="#EAEEF6"/>
<path d="M5.51999 16.32C5.51999 17.5104 6.48959 18.48 7.67999 18.48H10.7592C11.1504 18.48 11.4816 18.1944 11.5176 17.832C11.5368 17.6256 11.472 17.4288 11.3328 17.2752C11.196 17.1264 11.0016 17.04 10.8 17.04H7.67999C7.28399 17.04 6.95999 16.716 6.95999 16.32V13.2408C6.95999 12.8496 6.67439 12.5184 6.31199 12.4824C6.28799 12.4824 6.26399 12.48 6.23999 12.48C6.05999 12.48 5.88959 12.5448 5.75519 12.6672C5.60639 12.804 5.51999 12.9984 5.51999 13.2V16.32Z" fill="#28519E"/>
<path d="M6.24 7.2576L9.2928 10.3104C9.5808 10.5984 10.0416 10.6272 10.32 10.3752C10.4688 10.2408 10.5528 10.0584 10.56 9.8592C10.5648 9.66 10.4904 9.4728 10.3488 9.3312L7.2576 6.24H9.36C9.5616 6.24 9.756 6.1536 9.8928 6.0048C10.032 5.8536 10.0968 5.6544 10.0776 5.448C10.0416 5.0856 9.7104 4.8 9.3216 4.8H6.4824C5.556 4.8 4.8024 5.5536 4.8024 6.48V9.3192C4.8024 9.7104 5.088 10.0416 5.4504 10.0776C5.6568 10.0968 5.8536 10.032 6.0048 9.8928C6.1536 9.756 6.24 9.5616 6.24 9.36V7.2576Z" fill="#28519E"/>
<path d="M17.2752 11.3328C17.4264 11.472 17.6256 11.5368 17.832 11.5176C18.1968 11.484 18.48 11.1504 18.48 10.7592V7.68C18.48 6.4896 17.5104 5.52 16.32 5.52H13.2408C12.8496 5.52 12.5184 5.8056 12.4824 6.168C12.4632 6.3744 12.528 6.5712 12.6672 6.7224C12.804 6.8712 12.9984 6.9576 13.2 6.9576H16.32C16.716 6.9576 17.04 7.2816 17.04 7.6776V10.7976C17.04 10.9992 17.1264 11.1936 17.2752 11.3304V11.3328Z" fill="#28519E"/>
<path d="M14.6808 19.2H17.52C18.4464 19.2 19.2 18.4464 19.2 17.52V14.6808C19.2 14.2896 18.9144 13.9584 18.552 13.9224C18.3456 13.9032 18.1488 13.968 17.9952 14.1072C17.8464 14.244 17.76 14.4384 17.76 14.64V16.7424L14.7072 13.6896C14.4192 13.4016 13.9584 13.3728 13.68 13.6248C13.5312 13.7592 13.4472 13.9416 13.44 14.1408C13.4352 14.34 13.5096 14.5272 13.6512 14.6688L16.7424 17.76H14.64C14.4384 17.76 14.244 17.8464 14.1072 17.9952C13.968 18.1464 13.9032 18.3456 13.9224 18.552C13.9584 18.9168 14.2896 19.2 14.6784 19.2H14.6808Z" fill="#28519E"/>
</g>
<defs>
<clipPath id="clip0_14582_1930">
<rect x="4" y="4" width="16" height="16" rx="4" fill="white"/>
</clipPath>
</defs>
</svg>