<svg width="25" height="24" viewBox="0 0 25 24" fill="none" xmlns="http://www.w3.org/2000/svg">
<path d="M22.0415 12C22.0415 12.2984 21.923 12.5845 21.712 12.7955C21.501 13.0065 21.2149 13.125 20.9165 13.125H13.7915V20.25C13.7915 20.5484 13.673 20.8345 13.462 21.0455C13.251 21.2565 12.9649 21.375 12.6665 21.375C12.3681 21.375 12.082 21.2565 11.871 21.0455C11.66 20.8345 11.5415 20.5484 11.5415 20.25V13.125H4.4165C4.11814 13.125 3.83199 13.0065 3.62101 12.7955C3.41003 12.5845 3.2915 12.2984 3.2915 12C3.2915 11.7016 3.41003 11.4155 3.62101 11.2045C3.83199 10.9935 4.11814 10.875 4.4165 10.875H11.5415V3.75C11.5415 3.45163 11.66 3.16548 11.871 2.9545C12.082 2.74353 12.3681 2.625 12.6665 2.625C12.9649 2.625 13.251 2.74353 13.462 2.9545C13.673 3.16548 13.7915 3.45163 13.7915 3.75V10.875H20.9165C21.2149 10.875 21.501 10.9935 21.712 11.2045C21.923 11.4155 22.0415 11.7016 22.0415 12Z" fill="#28519E"/>
</svg>
