<svg xmlns="http://www.w3.org/2000/svg" width="16" height="16" viewBox="0 0 16 16" fill="none">
<g clip-path="url(#clip0_11620_13839)">
<path fill-rule="evenodd" clip-rule="evenodd" d="M1.69846 15.113H15.2349C15.4211 15.113 15.5735 15.2654 15.5735 15.4516V15.7472C15.5735 15.9338 15.4211 16.0858 15.2349 16.0858H1.69846C1.51206 16.0858 1.35986 15.9338 1.35986 15.7472V15.4516C1.35986 15.2654 1.51206 15.113 1.69846 15.113ZM3.65286 6.70563C3.42626 6.80723 3.16026 6.70603 3.05866 6.47943C2.95746 6.25303 3.05866 5.98683 3.28506 5.88523L12.2469 1.86943L11.8001 1.71623C11.5667 1.63603 11.4423 1.38123 11.5225 1.14783C11.6025 0.914433 11.8571 0.789833 12.0907 0.870033L13.6117 1.39223C13.8453 1.47243 13.9697 1.72703 13.8897 1.96063C13.6991 2.46063 13.4649 2.97483 13.2563 3.47143C13.1609 3.69883 12.8983 3.80623 12.6709 3.71063C12.4433 3.61503 12.3359 3.35283 12.4315 3.12523L12.6141 2.68983L3.65286 6.70563ZM3.33466 9.25263H5.70606C5.88006 9.25263 6.02186 9.39463 6.02186 9.56843V14.4642C6.02186 14.638 5.88006 14.78 5.70606 14.78H3.33466C3.16086 14.78 3.01886 14.638 3.01886 14.4642V9.56843C3.01886 9.39463 3.16086 9.25263 3.33466 9.25263ZM11.2273 4.51483H13.5987C13.7725 4.51483 13.9145 4.65683 13.9145 4.83063V14.4642C13.9145 14.638 13.7725 14.78 13.5987 14.78H11.2273C11.0533 14.78 10.9115 14.638 10.9115 14.4642V4.83063C10.9115 4.65683 11.0533 4.51483 11.2273 4.51483ZM7.28086 6.88383H9.65246C9.82626 6.88383 9.96826 7.02563 9.96826 7.19963V14.4642C9.96826 14.638 9.82626 14.78 9.65246 14.78H7.28086C7.10706 14.78 6.96506 14.638 6.96506 14.4642V7.19963C6.96506 7.02563 7.10706 6.88383 7.28086 6.88383Z" fill="#002C3F"/>
</g>
<defs>
<clipPath id="clip0_11620_13839">
<rect width="16" height="16" fill="white"/>
</clipPath>
</defs>
</svg>