<svg width="32" height="32" viewBox="0 0 32 32" fill="none" xmlns="http://www.w3.org/2000/svg">
<rect width="32" height="32" rx="4" fill="#E9ECEB"/>
<path d="M23 11.5V20.5C23 20.6326 22.9473 20.7598 22.8536 20.8536C22.7598 20.9473 22.6326 21 22.5 21H18C17.6028 21 17.2219 21.1575 16.9407 21.438C16.6595 21.7185 16.501 22.0991 16.5 22.4963C16.502 22.5983 16.4723 22.6985 16.415 22.783C16.3577 22.8676 16.2756 22.9322 16.18 22.9681C16.1041 22.9974 16.0222 23.0077 15.9415 22.9982C15.8607 22.9887 15.7835 22.9596 15.7165 22.9135C15.6495 22.8674 15.5948 22.8056 15.557 22.7336C15.5193 22.6615 15.4997 22.5813 15.5 22.5C15.5 22.1022 15.342 21.7206 15.0607 21.4393C14.7794 21.158 14.3978 21 14 21H9.5C9.36739 21 9.24021 20.9473 9.14645 20.8536C9.05268 20.7598 9 20.6326 9 20.5V11.5C9 11.3674 9.05268 11.2402 9.14645 11.1464C9.24021 11.0527 9.36739 11 9.5 11H13.5C14.0304 11 14.5391 11.2107 14.9142 11.5858C15.2893 11.9609 15.5 12.4696 15.5 13V18.4831C15.4983 18.6122 15.5454 18.7371 15.6321 18.8327C15.7187 18.9284 15.8383 18.9877 15.9669 18.9988C16.0353 19.0033 16.1039 18.9937 16.1684 18.9706C16.2329 18.9476 16.292 18.9114 16.342 18.8646C16.392 18.8177 16.4319 18.761 16.459 18.6981C16.4862 18.6351 16.5002 18.5673 16.5 18.4988V13C16.5 12.4696 16.7107 11.9609 17.0858 11.5858C17.4609 11.2107 17.9696 11 18.5 11H22.5C22.6326 11 22.7598 11.0527 22.8536 11.1464C22.9473 11.2402 23 11.3674 23 11.5Z" fill="#6D6D6D"/>
</svg>
