<svg width="16" height="17" viewBox="0 0 16 17" fill="none" xmlns="http://www.w3.org/2000/svg">
<path d="M7.94971 15.22C4.46221 15.22 0.699707 13.0325 0.699707 8.2325C0.699707 3.4325 4.46221 1.245 7.94971 1.245C9.88721 1.245 11.6747 1.8825 12.9997 3.045C14.4372 4.31999 15.1997 6.12 15.1997 8.2325C15.1997 10.345 14.4372 12.1325 12.9997 13.4075C11.6747 14.57 9.87471 15.22 7.94971 15.22Z" fill="url(#paint0_radial_1247_1432)"/>
<path d="M5.49976 5.48743C4.97601 5.48743 4.49976 5.92993 4.49976 6.66493C4.49976 7.39993 4.97601 7.84118 5.49976 7.84118C6.02476 7.84118 6.49976 7.39868 6.49976 6.66493C6.49976 5.93118 6.02976 5.48743 5.49976 5.48743Z" fill="#422B0D"/>
<path d="M5.45594 5.97876C5.27844 5.89376 5.06469 5.96876 4.97844 6.14626C4.91219 6.28501 4.94219 6.45126 5.05344 6.55876C5.23094 6.64376 5.44469 6.56876 5.53094 6.39126C5.59719 6.25251 5.56719 6.08626 5.45594 5.97876Z" fill="#896024"/>
<path d="M10.2998 5.48743C9.77605 5.48743 9.2998 5.92993 9.2998 6.66493C9.2998 7.39993 9.77605 7.84118 10.2998 7.84118C10.8236 7.84118 11.2998 7.39868 11.2998 6.66493C11.2998 5.93118 10.8236 5.48743 10.2998 5.48743Z" fill="#422B0D"/>
<path d="M10.2499 5.97876C10.0724 5.89376 9.85864 5.96876 9.77239 6.14626C9.70614 6.28501 9.73614 6.45126 9.84739 6.55876C10.0249 6.64376 10.2386 6.56876 10.3249 6.39126C10.3911 6.25251 10.3611 6.08626 10.2499 5.97876Z" fill="#896024"/>
<path d="M7.87475 11.8214C6.741 11.8301 5.6585 11.3539 4.89975 10.5114C4.84225 10.4451 4.8285 10.3514 4.86475 10.2714C4.901 10.1901 4.981 10.1376 5.06975 10.1364C5.10975 10.1364 5.14975 10.1476 5.18475 10.1676C5.78725 10.5139 6.79475 10.9439 7.87475 10.9439H7.89225C8.971 10.9439 9.97975 10.5139 10.581 10.1676C10.616 10.1476 10.656 10.1364 10.696 10.1364C10.7847 10.1376 10.8647 10.1901 10.901 10.2714C10.9385 10.3514 10.9247 10.4451 10.866 10.5114C10.1072 11.3539 9.02225 11.8314 7.8885 11.8214" fill="#422B0D"/>
<path d="M13.936 4.07874C14.6022 5.15374 14.9497 6.43374 14.9497 7.85749C14.9497 9.96999 14.1872 11.7575 12.7497 13.0325C11.4247 14.195 9.62475 14.845 7.69975 14.845C5.44225 14.845 3.07475 13.9262 1.67725 11.9775C3.02225 14.185 5.55225 15.22 7.94975 15.22C9.87475 15.22 11.6747 14.57 12.9997 13.4075C14.4372 12.1325 15.1997 10.345 15.1997 8.23249C15.1997 6.63999 14.766 5.22499 13.936 4.07874Z" fill="#EB8F00"/>
<defs>
<radialGradient id="paint0_radial_1247_1432" cx="0" cy="0" r="1" gradientUnits="userSpaceOnUse" gradientTransform="translate(7.94971 8.2325) scale(7.11996)">
<stop offset="0.5" stop-color="#FDE030"/>
<stop offset="0.92" stop-color="#F7C02B"/>
<stop offset="1" stop-color="#F4A223"/>
</radialGradient>
</defs>
</svg>
