<svg width="600" height="219" viewBox="0 0 600 219" fill="none" xmlns="http://www.w3.org/2000/svg">
<g clip-path="url(#clip0_83_2935)">
<rect width="600" height="219" fill="#74D1EA"/>
<g clip-path="url(#clip1_83_2935)">
<path d="M0 309H600V-91H0V309Z" fill="url(#paint0_radial_83_2935)"/>
<g style="mix-blend-mode:overlay">
<g opacity="0.5">
<path d="M113.8 209.2C114.8 209.2 115.667 210.067 115.667 211.134C115.667 212.134 114.8 213 113.8 213C112.733 213 111.867 212.134 111.867 211.067C111.867 210.067 112.733 209.2 113.8 209.2Z" fill="#BCBEC0"/>
<path d="M44.6 209.8C45.1334 208.867 46.3334 208.6 47.2 209.067C48.1334 209.6 48.4 210.8 47.8667 211.667C47.3334 212.6 46.2 212.867 45.2667 212.333C44.4 211.867 44.0667 210.667 44.6 209.8Z" fill="#BCBEC0"/>
<path d="M93.9333 193.2C94.8 193.2 95.4667 193.867 95.4667 194.734C95.4667 195.6 94.8 196.267 93.9333 196.267C93.0667 196.267 92.3333 195.6 92.3333 194.734C92.3333 193.867 93.0667 193.2 93.9333 193.2Z" fill="#BCBEC0"/>
<path d="M36.9336 193.667C37.4003 192.867 38.3336 192.667 39.0669 193.067C39.8003 193.534 40.0669 194.467 39.6669 195.201C39.2003 195.934 38.2669 196.201 37.5336 195.734C36.8003 195.334 36.5336 194.401 36.9336 193.667Z" fill="#BCBEC0"/>
<path d="M148 111.067C148.533 111.067 148.933 111.534 148.933 112.001C148.933 112.534 148.533 112.934 148 112.934C147.467 112.934 147.067 112.534 147.067 112.001C147.067 111.467 147.467 111.067 148 111.067Z" fill="#BCBEC0"/>
<path d="M165.533 140.867C165.8 141.334 165.667 141.867 165.2 142.134C164.733 142.4 164.133 142.267 163.867 141.8C163.667 141.334 163.8 140.734 164.267 140.467C164.667 140.267 165.267 140.4 165.533 140.867Z" fill="#BCBEC0"/>
<path d="M148.533 170.933C148.267 171.333 147.667 171.533 147.2 171.267C146.733 171 146.6 170.4 146.867 169.933C147.133 169.533 147.733 169.333 148.133 169.6C148.6 169.867 148.8 170.467 148.533 170.933Z" fill="#BCBEC0"/>
<path d="M113.933 171.2C113.467 171.2 113 170.733 113 170.267C113 169.733 113.467 169.267 114 169.267C114.467 169.267 114.933 169.733 114.933 170.267C114.933 170.8 114.467 171.2 113.933 171.2Z" fill="#BCBEC0"/>
<path d="M96.4667 141.401C96.2 140.934 96.3333 140.401 96.8 140.134C97.2667 139.867 97.8 140.001 98.0667 140.467C98.3333 140.934 98.2 141.534 97.7333 141.734C97.2667 142.001 96.7333 141.867 96.4667 141.401Z" fill="#BCBEC0"/>
<path d="M113.467 111.334C113.733 110.934 114.333 110.734 114.8 111C115.2 111.267 115.4 111.867 115.133 112.334C114.867 112.734 114.267 112.934 113.8 112.667C113.333 112.4 113.2 111.8 113.467 111.334Z" fill="#BCBEC0"/>
<path d="M195.333 181.334C195.867 181.334 196.333 181.801 196.333 182.401C196.333 182.934 195.867 183.401 195.333 183.401C194.733 183.401 194.267 182.934 194.267 182.334C194.267 181.801 194.733 181.334 195.333 181.334Z" fill="#BCBEC0"/>
<path d="M214.467 213.867C214.733 214.4 214.6 215 214.067 215.334C213.6 215.6 212.933 215.4 212.667 214.934C212.4 214.4 212.6 213.8 213.067 213.534C213.533 213.2 214.2 213.4 214.467 213.867Z" fill="#BCBEC0"/>
<path d="M138.933 214.533C138.667 214 138.8 213.4 139.333 213.067C139.8 212.8 140.467 213 140.733 213.467C141 214 140.8 214.6 140.333 214.867C139.867 215.2 139.2 215 138.933 214.533Z" fill="#BCBEC0"/>
<path d="M157.533 181.667C157.867 181.134 158.467 181 158.933 181.267C159.467 181.534 159.6 182.2 159.333 182.667C159.067 183.2 158.4 183.334 157.933 183.067C157.4 182.734 157.267 182.134 157.533 181.667Z" fill="#BCBEC0"/>
<path d="M476.867 158.001C476.267 157.001 476.6 155.734 477.6 155.134C478.6 154.534 479.867 154.934 480.467 155.934C481.067 156.934 480.667 158.201 479.667 158.734C478.667 159.334 477.4 159.001 476.867 158.001Z" fill="#BCBEC0"/>
<path d="M514.333 91.8007C514.933 90.8007 516.2 90.4674 517.2 91.0674C518.2 91.6674 518.533 92.934 517.933 93.934C517.333 94.934 516.067 95.2674 515.067 94.6674C514.067 94.0674 513.733 92.8007 514.333 91.8007Z" fill="#BCBEC0"/>
<path d="M590.333 91.2012C591.533 91.2012 592.4 92.1345 592.4 93.2678C592.4 94.4678 591.467 95.4012 590.333 95.4012C589.2 95.3345 588.267 94.4012 588.267 93.2678C588.267 92.1345 589.2 91.2012 590.333 91.2012Z" fill="#BCBEC0"/>
<path d="M529.267 102.8C528.333 102.8 527.533 102 527.533 101C527.533 100.067 528.333 99.2666 529.333 99.2666C530.267 99.2666 531.067 100.067 531.067 101C531.067 102 530.267 102.8 529.267 102.8Z" fill="#BCBEC0"/>
<path d="M496.867 47.5994C496.4 46.7994 496.667 45.7328 497.533 45.2661C498.333 44.7328 499.4 45.0661 499.867 45.8661C500.4 46.7328 500.067 47.7994 499.267 48.2661C498.4 48.7328 497.333 48.4661 496.867 47.5994Z" fill="#BCBEC0"/>
<path d="M593.267 102.266C592.8 103.066 591.733 103.4 590.867 102.866C590.067 102.4 589.733 101.333 590.267 100.466C590.733 99.6664 591.8 99.3997 592.667 99.8663C593.467 100.333 593.733 101.4 593.267 102.266Z" fill="#BCBEC0"/>
<path d="M516.2 82.8003C515.333 82.8003 514.6 82.067 514.6 81.2003C514.6 80.3337 515.333 79.667 516.2 79.667C517.067 79.667 517.733 80.4003 517.733 81.2003C517.733 82.067 517 82.8003 516.2 82.8003Z" fill="#BCBEC0"/>
<path d="M487.333 33.7332C486.867 32.9999 487.133 31.9999 487.867 31.5999C488.667 31.1999 489.6 31.4665 490 32.1999C490.467 32.9332 490.2 33.8665 489.467 34.3332C488.667 34.7332 487.733 34.4665 487.333 33.7332Z" fill="#BCBEC0"/>
<path d="M601.133 32.8004C601.533 33.5338 601.333 34.5338 600.533 34.9338C599.8 35.3338 598.867 35.0671 598.4 34.3338C598 33.6004 598.267 32.6671 599 32.2005C599.733 31.8005 600.733 32.0671 601.133 32.8004Z" fill="#BCBEC0"/>
<path d="M573.067 82.3333C572.667 83.0666 571.667 83.3333 570.933 82.8666C570.2 82.4666 569.933 81.4666 570.4 80.7333C570.8 79.9999 571.8 79.7333 572.533 80.1999C573.267 80.5999 573.533 81.5999 573.067 82.3333Z" fill="#BCBEC0"/>
<path d="M359.067 138.001C358.067 137.934 357.333 137.201 357.333 136.201C357.333 135.268 358.133 134.534 359.067 134.534C360 134.534 360.8 135.268 360.8 136.268C360.8 137.201 360 138.001 359.067 138.001Z" fill="#BCBEC0"/>
<path d="M326.933 83.4004C326.467 82.6004 326.8 81.5337 327.6 81.0671C328.467 80.6004 329.467 80.8671 330 81.7337C330.467 82.5337 330.133 83.6004 329.333 84.0671C328.467 84.5337 327.467 84.2671 326.933 83.4004Z" fill="#BCBEC0"/>
<path d="M358.133 28.4007C358.667 27.5341 359.667 27.2674 360.533 27.7341C361.333 28.2674 361.6 29.3341 361.133 30.1341C360.667 30.9341 359.6 31.2674 358.8 30.7341C357.933 30.2674 357.667 29.2007 358.133 28.4007Z" fill="#BCBEC0"/>
<path d="M421.4 27.8672C422.4 27.8672 423.133 28.6672 423.133 29.6005C423.133 30.6005 422.333 31.3339 421.4 31.3339C420.467 31.3339 419.667 30.5338 419.667 29.6005C419.667 28.6672 420.467 27.8672 421.4 27.8672Z" fill="#BCBEC0"/>
<path d="M453.467 82.4005C454 83.2671 453.667 84.2671 452.867 84.8005C452 85.2671 450.933 84.9338 450.467 84.1338C450 83.2671 450.333 82.2671 451.133 81.7338C452 81.2671 453 81.6005 453.467 82.4005Z" fill="#BCBEC0"/>
<path d="M422.333 137.467C421.8 138.267 420.733 138.534 419.933 138.067C419.133 137.6 418.867 136.534 419.333 135.734C419.8 134.867 420.867 134.6 421.667 135.067C422.533 135.6 422.8 136.6 422.333 137.467Z" fill="#BCBEC0"/>
<path d="M333.4 144.067C332.667 142.867 333.133 141.267 334.4 140.534C335.667 139.801 337.2 140.267 337.933 141.534C338.667 142.734 338.2 144.334 337 145.067C335.733 145.801 334.133 145.334 333.4 144.067Z" fill="#BCBEC0"/>
<path d="M380.467 61.0674C381.2 59.8007 382.8 59.4007 384 60.134C385.267 60.8674 385.667 62.4674 384.933 63.734C384.2 64.934 382.6 65.334 381.4 64.6674C380.133 63.934 379.733 62.334 380.467 61.0674Z" fill="#BCBEC0"/>
<path d="M475.867 60.2676C477.333 60.3342 478.467 61.4676 478.467 62.9342C478.467 64.3342 477.267 65.5343 475.867 65.5343C474.4 65.5343 473.267 64.3343 473.267 62.8676C473.267 61.4676 474.467 60.2676 475.867 60.2676Z" fill="#BCBEC0"/>
<path d="M524.267 142.534C525 143.801 524.533 145.401 523.267 146.134C522.067 146.801 520.467 146.401 519.733 145.134C519 143.868 519.467 142.267 520.733 141.601C521.933 140.867 523.533 141.267 524.267 142.534Z" fill="#BCBEC0"/>
<path d="M270.4 213.133C270.067 213.133 269.733 212.8 269.733 212.466C269.8 212.133 270.067 211.866 270.4 211.866C270.733 211.866 271 212.133 271 212.466C271 212.866 270.733 213.133 270.4 213.133Z" fill="#BCBEC0"/>
<path d="M258.867 193.534C258.667 193.2 258.8 192.867 259.133 192.667C259.4 192.534 259.8 192.6 259.933 192.934C260.133 193.2 260 193.6 259.733 193.734C259.4 193.934 259.067 193.8 258.867 193.534Z" fill="#BCBEC0"/>
<path d="M270.067 173.8C270.267 173.466 270.6 173.4 270.933 173.533C271.2 173.733 271.333 174.066 271.133 174.4C270.933 174.666 270.6 174.8 270.267 174.6C270 174.466 269.867 174.066 270.067 173.8Z" fill="#BCBEC0"/>
<path d="M292.8 173.6C293.133 173.6 293.4 173.866 293.4 174.2C293.4 174.533 293.133 174.8 292.8 174.8C292.4 174.8 292.133 174.533 292.133 174.2C292.133 173.866 292.467 173.6 292.8 173.6Z" fill="#BCBEC0"/>
<path d="M304.267 193.133C304.467 193.467 304.333 193.867 304.067 194C303.733 194.2 303.4 194.067 303.2 193.8C303.067 193.467 303.133 193.067 303.467 192.933C303.733 192.733 304.133 192.867 304.267 193.133Z" fill="#BCBEC0"/>
<path d="M293.067 212.933C292.933 213.2 292.533 213.333 292.267 213.133C291.933 213 291.867 212.6 292 212.267C292.2 212 292.6 211.933 292.867 212.067C293.2 212.267 293.267 212.6 293.067 212.933Z" fill="#BCBEC0"/>
<path d="M286.8 170.533C286.467 170.533 286.2 170.266 286.2 169.933C286.2 169.6 286.467 169.333 286.8 169.333C287.133 169.333 287.4 169.6 287.4 169.933C287.4 170.266 287.133 170.533 286.8 170.533Z" fill="#BCBEC0"/>
<path d="M275.867 151.933C275.733 151.6 275.8 151.267 276.067 151.133C276.4 150.933 276.733 151.067 276.867 151.333C277.067 151.6 276.933 152 276.667 152.133C276.4 152.267 276 152.2 275.867 151.933Z" fill="#BCBEC0"/>
<path d="M286.533 133.133C286.667 132.867 287.067 132.733 287.333 132.933C287.6 133.067 287.667 133.467 287.533 133.733C287.4 134 287 134.067 286.733 133.933C286.467 133.8 286.333 133.4 286.533 133.133Z" fill="#BCBEC0"/>
<path d="M308.133 132.934C308.467 132.934 308.667 133.2 308.667 133.534C308.667 133.867 308.4 134.134 308.133 134.134C307.8 134.134 307.533 133.867 307.533 133.534C307.533 133.2 307.8 132.934 308.133 132.934Z" fill="#BCBEC0"/>
<path d="M319.067 151.533C319.2 151.867 319.133 152.2 318.867 152.4C318.533 152.533 318.2 152.467 318 152.133C317.867 151.867 318 151.533 318.267 151.333C318.533 151.2 318.867 151.267 319.067 151.533Z" fill="#BCBEC0"/>
<path d="M308.4 170.333C308.267 170.667 307.867 170.733 307.6 170.6C307.333 170.4 307.2 170.067 307.4 169.733C307.533 169.467 307.933 169.4 308.2 169.533C308.467 169.733 308.6 170.067 308.4 170.333Z" fill="#BCBEC0"/>
<path d="M179.467 194.533C179 195.266 179.267 196.199 180 196.666C180.733 197.066 181.667 196.799 182.067 196.066C182.467 195.333 182.267 194.399 181.533 193.999C180.8 193.599 179.867 193.799 179.467 194.533Z" fill="#BCBEC0"/>
<path d="M290.867 196.667C291.333 196 291.067 195.067 290.333 194.6C289.6 194.2 288.667 194.467 288.267 195.133C287.8 195.867 288.067 196.8 288.8 197.267C289.533 197.667 290.467 197.4 290.867 196.667Z" fill="#BCBEC0"/>
<path d="M263.933 147.933C263.533 147.2 262.6 146.933 261.867 147.333C261.133 147.733 260.867 148.667 261.267 149.4C261.733 150.133 262.667 150.4 263.4 150C264.133 149.6 264.333 148.667 263.933 147.933Z" fill="#BCBEC0"/>
<path d="M208.2 146.867C207.4 146.8 206.733 147.533 206.667 148.333C206.667 149.2 207.4 149.867 208.2 149.867C209.067 149.867 209.733 149.2 209.733 148.4C209.733 147.533 209.067 146.867 208.2 146.867Z" fill="#BCBEC0"/>
<path d="M6.20025 170.601C6.60025 170.601 7.00025 170.267 7.00025 169.801C7.00025 169.401 6.66692 169.067 6.20025 169.067C5.80025 169.067 5.46692 169.401 5.46692 169.801C5.40025 170.267 5.80025 170.601 6.20025 170.601Z" fill="#BCBEC0"/>
<path d="M20.8001 146.4C21.0001 146.067 20.8668 145.6 20.5334 145.4C20.1334 145.134 19.6668 145.267 19.4668 145.667C19.2668 146 19.3334 146.467 19.7334 146.734C20.0668 146.934 20.6001 146.8 20.8001 146.4Z" fill="#BCBEC0"/>
<path d="M7.13336 121.734C6.93336 121.334 6.46669 121.2 6.06669 121.4C5.73336 121.6 5.60002 122.134 5.80002 122.467C6.00002 122.867 6.46669 123 6.86669 122.734C7.20002 122.534 7.33336 122.067 7.13336 121.734Z" fill="#BCBEC0"/>
<path d="M530.467 194C530.2 193.533 530.4 192.933 530.867 192.6C531.4 192.333 532 192.533 532.267 193C532.6 193.533 532.4 194.133 531.933 194.4C531.4 194.667 530.8 194.533 530.467 194Z" fill="#BCBEC0"/>
<path d="M549.133 161.133C549.4 160.667 550.067 160.533 550.533 160.8C551 161.067 551.2 161.733 550.933 162.2C550.6 162.733 550 162.867 549.467 162.6C549 162.267 548.8 161.667 549.133 161.133Z" fill="#BCBEC0"/>
<path d="M586.867 160.866C587.467 160.866 587.933 161.333 587.933 161.866C587.933 162.466 587.467 162.933 586.867 162.933C586.333 162.933 585.867 162.466 585.867 161.866C585.867 161.333 586.333 160.866 586.867 160.866Z" fill="#BCBEC0"/>
<path d="M302.733 162.533C302.2 162.533 301.733 162.067 301.733 161.467C301.733 160.933 302.2 160.467 302.8 160.467C303.333 160.467 303.8 160.933 303.8 161.467C303.8 162.067 303.333 162.533 302.733 162.533Z" fill="#BCBEC0"/>
<path d="M283.6 130C283.333 129.467 283.533 128.867 284 128.534C284.467 128.267 285.133 128.467 285.4 128.934C285.667 129.467 285.533 130.067 285 130.334C284.533 130.667 283.933 130.467 283.6 130Z" fill="#BCBEC0"/>
<path d="M302.2 97.1339C302.533 96.6006 303.133 96.4673 303.667 96.7339C304.133 97.0673 304.267 97.6673 304 98.1339C303.733 98.6673 303.067 98.8006 302.6 98.5339C302.133 98.2672 301.933 97.6006 302.2 97.1339Z" fill="#BCBEC0"/>
<path d="M340 96.8008C340.533 96.8008 341 97.2674 341 97.8674C341 98.4008 340.533 98.8674 340 98.8674C339.4 98.8674 338.933 98.4008 338.933 97.8674C338.933 97.2674 339.4 96.8008 340 96.8008Z" fill="#BCBEC0"/>
<path d="M359.133 129.334C359.4 129.867 359.2 130.467 358.733 130.734C358.267 131.067 357.6 130.867 357.333 130.4C357.067 129.867 357.2 129.267 357.733 129C358.2 128.667 358.867 128.867 359.133 129.334Z" fill="#BCBEC0"/>
<path d="M340.533 162.201C340.2 162.668 339.6 162.868 339.067 162.601C338.6 162.268 338.467 161.668 338.733 161.134C339 160.668 339.667 160.534 340.133 160.801C340.6 161.068 340.8 161.734 340.533 162.201Z" fill="#BCBEC0"/>
</g>
<path d="M25 178.333C27.2667 178.4 29.0667 180.2 29 182.4C29 184.6 27.2 186.4 25 186.4C22.8 186.4 21 184.6 21 182.333C21 180.133 22.8 178.333 25 178.333Z" fill="#BCBEC0"/>
<path d="M54.2667 143.866C56.0667 143.866 57.4666 145.333 57.4666 147.133C57.4666 148.933 56 150.333 54.2 150.333C52.4667 150.333 51 148.866 51 147.066C51 145.333 52.4667 143.866 54.2667 143.866Z" fill="#BCBEC0"/>
<path d="M89.6 202.133C90.5333 203.8 89.9333 205.866 88.2667 206.866C86.6667 207.8 84.5333 207.2 83.6 205.533C82.6667 203.933 83.2667 201.8 84.8667 200.866C86.5333 199.933 88.6667 200.533 89.6 202.133Z" fill="#BCBEC0"/>
<path d="M88.6 103.934C89.5333 103.934 90.2 104.667 90.2 105.6C90.2 106.467 89.4666 107.2 88.6 107.2C87.6666 107.2 87 106.467 87 105.534C87 104.667 87.7333 103.934 88.6 103.934Z" fill="#BCBEC0"/>
<path d="M110.533 140.733C111 141.533 110.667 142.533 109.933 142.933C109.133 143.4 108.133 143.133 107.667 142.333C107.2 141.533 107.467 140.533 108.267 140.067C109.067 139.667 110.067 139.933 110.533 140.733Z" fill="#BCBEC0"/>
<path d="M89.6666 178.133C89.2 178.933 88.1333 179.2 87.3333 178.733C86.5333 178.267 86.2666 177.2 86.7333 176.4C87.2 175.6 88.2666 175.333 89.0666 175.8C89.8666 176.267 90.1333 177.267 89.6666 178.133Z" fill="#BCBEC0"/>
<path d="M46.8 178.333C46.0666 178.333 45.5333 177.733 45.5333 177C45.5333 176.267 46.1333 175.733 46.8 175.733C47.5333 175.733 48.1333 176.333 48.1333 177C48.1333 177.733 47.5333 178.333 46.8 178.333Z" fill="#BCBEC0"/>
<path d="M24.8667 141.866C24.4 141.066 24.6667 140.066 25.4667 139.6C26.3333 139.133 27.3333 139.4 27.8 140.2C28.2667 141.066 28 142.066 27.1333 142.533C26.3333 143 25.3333 142.733 24.8667 141.866Z" fill="#BCBEC0"/>
<path d="M45.4666 104.333C46.0666 103.333 47.2666 103 48.2666 103.6C49.2 104.133 49.5333 105.4 49 106.333C48.4 107.333 47.1333 107.666 46.2 107.066C45.2 106.533 44.9333 105.266 45.4666 104.333Z" fill="#BCBEC0"/>
<path d="M145.333 147.8C145.733 147.8 146.133 148.2 146.133 148.6C146.133 149.066 145.733 149.4 145.267 149.4C144.867 149.4 144.467 149.066 144.467 148.6C144.467 148.2 144.867 147.8 145.333 147.8Z" fill="#BCBEC0"/>
<path d="M158.933 170.8C159.133 171.2 159 171.733 158.6 171.933C158.2 172.2 157.667 172.067 157.467 171.667C157.267 171.267 157.4 170.733 157.8 170.533C158.2 170.267 158.667 170.4 158.933 170.8Z" fill="#BCBEC0"/>
<path d="M145.8 194.133C145.6 194.599 145 194.733 144.6 194.466C144.2 194.199 144 193.666 144.267 193.266C144.533 192.799 145.067 192.666 145.467 192.933C145.933 193.199 146.067 193.733 145.8 194.133Z" fill="#BCBEC0"/>
<path d="M119 194.733C118.4 194.733 117.867 194.199 117.867 193.533C117.867 192.933 118.4 192.399 119 192.399C119.667 192.399 120.2 192.933 120.2 193.533C120.2 194.199 119.667 194.733 119 194.733Z" fill="#BCBEC0"/>
<path d="M105.4 171.333C105.133 170.933 105.267 170.4 105.733 170.2C106.133 169.933 106.667 170.133 106.867 170.533C107.133 170.933 107 171.466 106.533 171.666C106.133 171.933 105.6 171.8 105.4 171.333Z" fill="#BCBEC0"/>
<path d="M118.267 147.934C118.6 147.334 119.333 147.2 119.867 147.467C120.4 147.8 120.533 148.534 120.267 149.067C119.933 149.6 119.267 149.734 118.733 149.467C118.133 149.134 118 148.467 118.267 147.934Z" fill="#BCBEC0"/>
<path d="M131.733 110.067C132.333 110.067 132.733 110.467 132.733 111.067C132.733 111.6 132.267 112.067 131.733 112.067C131.2 112.067 130.733 111.6 130.733 111.067C130.733 110.467 131.2 110 131.733 110.067Z" fill="#BCBEC0"/>
<path d="M146.867 134.933C147.267 135.533 147 136.333 146.4 136.733C145.733 137.066 144.933 136.866 144.533 136.2C144.2 135.6 144.4 134.8 145.067 134.4C145.667 134.066 146.533 134.266 146.867 134.933Z" fill="#BCBEC0"/>
<path d="M132.467 160.533C132.133 161.067 131.467 161.2 130.867 160.933C130.333 160.6 130.133 159.867 130.467 159.333C130.8 158.8 131.533 158.6 132.067 158.933C132.6 159.267 132.8 159.933 132.467 160.533Z" fill="#BCBEC0"/>
<path d="M103.2 161.134C102.467 161.134 101.933 160.534 101.933 159.734C101.933 159 102.533 158.4 103.267 158.467C104 158.467 104.6 159.067 104.6 159.8C104.6 160.534 104 161.134 103.2 161.134Z" fill="#BCBEC0"/>
<path d="M88.1333 135.933C87.7333 135.267 88 134.467 88.6 134.067C89.2667 133.733 90.0667 133.933 90.4 134.6C90.8 135.2 90.5333 136.067 89.9333 136.4C89.2667 136.733 88.4667 136.533 88.1333 135.933Z" fill="#BCBEC0"/>
<path d="M102.2 110.133C102.6 109.399 103.533 109.133 104.267 109.599C105 109.999 105.267 110.933 104.8 111.666C104.4 112.399 103.467 112.599 102.733 112.199C102 111.733 101.8 110.866 102.2 110.133Z" fill="#BCBEC0"/>
<path d="M237.667 189.267C238.467 189.267 239.133 189.933 239.133 190.8C239.133 191.6 238.467 192.267 237.667 192.267C236.8 192.267 236.133 191.6 236.133 190.8C236.133 189.933 236.8 189.267 237.667 189.267Z" fill="#BCBEC0"/>
<path d="M189.733 189.266C190.4 188.133 191.933 187.733 193.067 188.4C194.267 189.066 194.667 190.6 193.933 191.733C193.267 192.933 191.8 193.333 190.6 192.666C189.467 191.933 189.067 190.466 189.733 189.266Z" fill="#BCBEC0"/>
<path d="M139.533 181.733C140.8 181.733 141.867 182.733 141.867 184.067C141.867 185.333 140.8 186.333 139.533 186.333C138.267 186.333 137.2 185.267 137.2 184C137.2 182.733 138.267 181.667 139.533 181.733Z" fill="#BCBEC0"/>
<path d="M91.4666 182.733C92.0666 181.733 93.3333 181.4 94.2666 182C95.2666 182.533 95.6 183.8 95 184.8C94.4666 185.8 93.2 186.133 92.2 185.533C91.2666 185 90.9333 183.733 91.4666 182.733Z" fill="#BCBEC0"/>
<path d="M166.333 200.267C166.8 200.267 167.267 200.733 167.267 201.267C167.267 201.733 166.8 202.2 166.267 202.2C165.733 202.2 165.333 201.733 165.333 201.2C165.333 200.667 165.8 200.267 166.333 200.267Z" fill="#BCBEC0"/>
<path d="M138.533 200.6C138.8 200.2 139.333 200.067 139.8 200.267C140.2 200.533 140.333 201.133 140.133 201.533C139.867 202 139.267 202.133 138.867 201.867C138.4 201.6 138.267 201.067 138.533 200.6Z" fill="#BCBEC0"/>
<path d="M454.667 177.067C453.533 177.067 452.6 176.2 452.6 175.067C452.6 173.934 453.533 173 454.667 173.067C455.8 173.067 456.667 173.934 456.667 175.067C456.667 176.2 455.733 177.134 454.667 177.067Z" fill="#BCBEC0"/>
<path d="M423.067 124.2C422.467 123.133 422.8 121.733 423.933 121.133C425 120.533 426.333 120.867 427 121.933C427.6 123.067 427.2 124.4 426.133 125.067C425.067 125.667 423.667 125.267 423.067 124.2Z" fill="#BCBEC0"/>
<path d="M452.6 69.8663C453.467 68.4663 455.333 67.933 456.733 68.7997C458.2 69.6663 458.733 71.533 457.867 72.933C457 74.3997 455.133 74.933 453.667 74.0663C452.267 73.1997 451.733 71.333 452.6 69.8663Z" fill="#BCBEC0"/>
<path d="M515.067 70C516.067 70 516.867 70.8 516.867 71.8C516.867 72.7333 516 73.5333 515.067 73.5333C514.067 73.5333 513.267 72.7333 513.267 71.7333C513.267 70.8 514.067 70 515.067 70Z" fill="#BCBEC0"/>
<path d="M547.067 122.4C547.8 123.734 547.333 125.334 546 126.134C544.733 126.867 543.067 126.4 542.333 125.067C541.6 123.8 542.067 122.134 543.333 121.4C544.667 120.667 546.333 121.134 547.067 122.4Z" fill="#BCBEC0"/>
<path d="M516.8 176.733C516.067 178 514.4 178.466 513.133 177.666C511.867 176.933 511.467 175.333 512.2 174.066C512.933 172.8 514.533 172.333 515.8 173.066C517.067 173.866 517.533 175.466 516.8 176.733Z" fill="#BCBEC0"/>
<path d="M556 193.866C555.267 193.866 554.733 193.266 554.733 192.6C554.733 191.866 555.333 191.333 556 191.333C556.733 191.333 557.267 191.866 557.267 192.6C557.267 193.333 556.733 193.866 556 193.866Z" fill="#BCBEC0"/>
<path d="M535.8 161C535.267 160.067 535.6 158.933 536.533 158.4C537.467 157.867 538.6 158.2 539.133 159.133C539.667 160.067 539.4 161.2 538.467 161.733C537.533 162.267 536.333 161.933 535.8 161Z" fill="#BCBEC0"/>
<path d="M555 126.933C555.467 126.2 556.4 125.933 557.134 126.4C557.934 126.867 558.134 127.8 557.734 128.533C557.267 129.267 556.334 129.533 555.6 129.067C554.867 128.667 554.6 127.733 555 126.933Z" fill="#BCBEC0"/>
<path d="M593.8 126.733C594.467 126.733 595.067 127.267 595.067 127.933C595.067 128.667 594.467 129.2 593.8 129.2C593.133 129.2 592.6 128.6 592.6 127.933C592.6 127.267 593.133 126.733 593.8 126.733Z" fill="#BCBEC0"/>
<path d="M594.533 193.4C594.2 194 593.4 194.2 592.8 193.866C592.2 193.533 592 192.733 592.4 192.2C592.733 191.6 593.467 191.4 594.067 191.733C594.667 192.066 594.867 192.866 594.533 193.4Z" fill="#BCBEC0"/>
<path d="M596.4 106.534C595.733 105.334 596.133 103.8 597.4 103.067C598.6 102.4 600.133 102.8 600.867 104.067C601.533 105.267 601.133 106.8 599.867 107.534C598.667 108.2 597.133 107.8 596.4 106.534Z" fill="#BCBEC0"/>
<path d="M560.4 74.9335C559.333 74.9335 558.533 74.1335 558.533 73.0669C558.533 72.0669 559.4 71.2002 560.4 71.2002C561.467 71.2002 562.267 72.0669 562.267 73.0669C562.267 74.1335 561.4 74.9335 560.4 74.9335Z" fill="#BCBEC0"/>
<path d="M541.267 43.1997C540.733 42.333 541.067 41.1997 541.933 40.6663C542.8 40.1997 543.933 40.4663 544.467 41.3997C545 42.2663 544.667 43.3997 543.8 43.933C542.867 44.3997 541.733 44.133 541.267 43.1997Z" fill="#BCBEC0"/>
<path d="M559.6 11.0667C560 10.4667 560.8 10.2667 561.4 10.6C562 10.9334 562.2 11.7334 561.867 12.4C561.467 13 560.733 13.2 560.067 12.8C559.467 12.4667 559.267 11.6667 559.6 11.0667Z" fill="#BCBEC0"/>
<path d="M596.2 10.0661C597.2 10.0661 598.067 10.8661 598.067 11.9328C598.067 12.9328 597.2 13.7994 596.133 13.7994C595.133 13.7994 594.267 12.9328 594.267 11.9328C594.333 10.8661 595.133 9.99944 596.2 10.0661Z" fill="#BCBEC0"/>
<path d="M597.467 74.2669C596.933 75.1336 595.8 75.4669 594.867 74.9336C593.933 74.4002 593.667 73.2002 594.2 72.3336C594.733 71.4002 595.867 71.0669 596.8 71.6002C597.733 72.1336 598 73.3336 597.467 74.2669Z" fill="#BCBEC0"/>
<path d="M551.467 42.5331C551 42.5331 550.667 42.1997 550.667 41.7997C550.667 41.3997 551.067 41.0664 551.467 41.0664C551.867 41.0664 552.2 41.3997 552.2 41.7997C552.2 42.2664 551.867 42.5997 551.467 42.5331Z" fill="#BCBEC0"/>
<path d="M537.8 20.3998C537.467 19.7998 537.667 18.9998 538.267 18.6664C538.867 18.3331 539.6 18.5331 539.934 19.1331C540.267 19.7331 540.067 20.5331 539.467 20.8664C538.867 21.1998 538.134 20.9998 537.8 20.3998Z" fill="#BCBEC0"/>
<path d="M590.533 19.5331C590.8 19.9998 590.667 20.6664 590.133 20.9331C589.667 21.1998 589.067 21.0664 588.733 20.5331C588.467 20.0664 588.667 19.3998 589.133 19.1331C589.6 18.8664 590.267 19.0664 590.533 19.5331Z" fill="#BCBEC0"/>
<path d="M577.8 42.5332C577.467 43.0665 576.8 43.1999 576.267 42.9332C575.733 42.5999 575.533 41.9332 575.867 41.3999C576.2 40.8665 576.867 40.6665 577.4 40.9999C577.933 41.3332 578.133 41.9999 577.8 42.5332Z" fill="#BCBEC0"/>
<path d="M505.933 196.133C506.4 195.333 507.4 195.067 508.2 195.533C508.933 196 509.2 197 508.8 197.733C508.333 198.533 507.333 198.8 506.533 198.333C505.8 197.867 505.533 196.867 505.933 196.133Z" fill="#BCBEC0"/>
<path d="M546.467 195.467C547.467 195.467 548.2 196.2 548.2 197.133C548.2 198.067 547.4 198.867 546.467 198.867C545.533 198.867 544.8 198.067 544.8 197.133C544.8 196.2 545.533 195.467 546.467 195.467Z" fill="#BCBEC0"/>
<path d="M481.133 210.133C481.333 209.733 481.8 209.666 482.2 209.866C482.533 210.066 482.667 210.533 482.467 210.866C482.267 211.266 481.8 211.399 481.4 211.133C481.067 210.933 480.933 210.466 481.133 210.133Z" fill="#BCBEC0"/>
<path d="M504 209.666C504.533 209.733 504.933 210.133 504.933 210.666C504.933 211.133 504.533 211.533 504 211.533C503.533 211.533 503.067 211.133 503.067 210.599C503.067 210.133 503.533 209.666 504 209.666Z" fill="#BCBEC0"/>
<path d="M381.267 111.466C380.133 111.466 379.267 110.533 379.267 109.399C379.267 108.333 380.2 107.399 381.333 107.399C382.4 107.399 383.333 108.333 383.333 109.466C383.333 110.599 382.4 111.466 381.267 111.466Z" fill="#BCBEC0"/>
<path d="M359.2 75.1999C358.6 74.1333 359 72.7333 360.067 72.1333C361.133 71.5333 362.467 71.9333 363.067 72.9999C363.667 74.0666 363.333 75.3999 362.267 75.9999C361.2 76.5999 359.8 76.2666 359.2 75.1999Z" fill="#BCBEC0"/>
<path d="M380.267 38.1333C380.733 37.3333 381.733 37.0667 382.533 37.5333C383.267 38 383.533 39 383.133 39.8C382.667 40.5333 381.667 40.8 380.867 40.3333C380.067 39.9333 379.8 38.9333 380.267 38.1333Z" fill="#BCBEC0"/>
<path d="M422.4 37.5996C423.267 37.5996 424 38.3329 424 39.1996C423.933 40.0663 423.267 40.7996 422.4 40.733C421.467 40.733 420.8 40.0663 420.8 39.1996C420.8 38.2663 421.533 37.5996 422.4 37.5996Z" fill="#BCBEC0"/>
<path d="M443.8 73.7994C444.2 74.5327 443.933 75.3994 443.267 75.7994C442.533 76.1994 441.667 75.9327 441.267 75.2661C440.867 74.5327 441.133 73.6661 441.8 73.2661C442.533 72.8661 443.4 73.1327 443.8 73.7994Z" fill="#BCBEC0"/>
<path d="M423.267 110.4C422.867 111.067 421.933 111.333 421.267 110.933C420.6 110.533 420.333 109.6 420.733 108.933C421.133 108.267 422 108 422.733 108.4C423.4 108.8 423.667 109.733 423.267 110.4Z" fill="#BCBEC0"/>
<path d="M397 211.934C395.733 211.934 394.667 210.867 394.667 209.534C394.667 208.267 395.733 207.2 397.067 207.2C398.333 207.2 399.4 208.267 399.4 209.6C399.4 210.867 398.333 211.934 397 211.934Z" fill="#BCBEC0"/>
<path d="M359.067 150.867C358 149 358.667 146.667 360.533 145.6C362.4 144.533 364.8 145.133 365.867 147C366.933 148.867 366.267 151.267 364.4 152.333C362.533 153.4 360.133 152.733 359.067 150.867Z" fill="#BCBEC0"/>
<path d="M394.8 87.0001C395.733 85.4001 397.8 84.8667 399.4 85.8001C401 86.7334 401.6 88.8001 400.6 90.4001C399.667 92.0667 397.6 92.6001 396 91.6667C394.4 90.6667 393.867 88.6001 394.8 87.0001Z" fill="#BCBEC0"/>
<path d="M467.467 86C469.2 86 470.6 87.4 470.6 89.1333C470.6 90.8667 469.2 92.2 467.467 92.2C465.733 92.2 464.333 90.8 464.4 89.0667C464.4 87.4 465.8 86 467.467 86Z" fill="#BCBEC0"/>
<path d="M505 148.066C505.933 149.666 505.333 151.733 503.733 152.666C502.067 153.6 500 153.066 499.067 151.4C498.133 149.8 498.733 147.733 500.333 146.8C502 145.866 504.067 146.4 505 148.066Z" fill="#BCBEC0"/>
<path d="M468.8 211.133C468.2 212.266 466.733 212.666 465.6 212C464.533 211.333 464.133 209.866 464.8 208.8C465.4 207.666 466.867 207.266 468 207.933C469.133 208.6 469.467 210 468.8 211.133Z" fill="#BCBEC0"/>
<path d="M392.133 217.266C391.6 217.266 391.2 216.799 391.2 216.333C391.2 215.799 391.6 215.399 392.133 215.399C392.667 215.399 393.067 215.799 393.067 216.333C393.067 216.799 392.6 217.266 392.133 217.266Z" fill="#BCBEC0"/>
<path d="M375.733 190.866C375.333 190.066 375.6 189.066 376.333 188.666C377.133 188.199 378.133 188.466 378.6 189.266C379 190.066 378.733 191.066 378 191.466C377.2 191.933 376.2 191.666 375.733 190.866Z" fill="#BCBEC0"/>
<path d="M391.333 163.333C391.667 162.733 392.467 162.533 393.067 162.933C393.667 163.266 393.867 163.999 393.533 164.599C393.133 165.199 392.4 165.399 391.8 165.066C391.2 164.733 391 163.933 391.333 163.333Z" fill="#BCBEC0"/>
<path d="M422.6 162.6C423.467 162.6 424.2 163.333 424.2 164.2C424.2 165 423.467 165.733 422.6 165.733C421.733 165.733 421.067 165 421.067 164.133C421.067 163.266 421.8 162.6 422.6 162.6Z" fill="#BCBEC0"/>
<path d="M438.733 189.733C439.133 190.4 438.867 191.2 438.267 191.533C437.6 191.933 436.8 191.733 436.4 191.067C436.067 190.4 436.267 189.6 436.933 189.267C437.533 188.867 438.4 189.067 438.733 189.733Z" fill="#BCBEC0"/>
<path d="M423.133 216.933C422.867 217.333 422.267 217.533 421.867 217.266C421.467 216.999 421.267 216.466 421.533 215.999C421.8 215.599 422.333 215.466 422.8 215.666C423.2 215.933 423.333 216.466 423.133 216.933Z" fill="#BCBEC0"/>
<path d="M323.6 213.533C323.2 213.533 322.933 213.199 322.933 212.799C322.933 212.466 323.267 212.133 323.6 212.133C324 212.133 324.267 212.466 324.267 212.799C324.267 213.199 324 213.533 323.6 213.533Z" fill="#BCBEC0"/>
<path d="M312.267 194.8C312.067 194.333 312.2 193.8 312.6 193.533C313.067 193.333 313.6 193.467 313.867 193.867C314.067 194.333 313.933 194.867 313.533 195.133C313.067 195.333 312.533 195.2 312.267 194.8Z" fill="#BCBEC0"/>
<path d="M322.8 175.399C323.133 174.799 323.867 174.666 324.4 174.933C324.933 175.266 325.133 175.999 324.8 176.533C324.467 177.133 323.8 177.266 323.2 176.999C322.667 176.666 322.467 175.933 322.8 175.399Z" fill="#BCBEC0"/>
<path d="M345.133 175.133C345.667 175.133 346.067 175.533 346.067 176.066C346.067 176.666 345.667 177.066 345.067 177.066C344.533 177.066 344.133 176.599 344.133 176.066C344.133 175.533 344.533 175.133 345.133 175.133Z" fill="#BCBEC0"/>
<path d="M356.467 194.133C356.667 194.533 356.533 195.133 356.067 195.4C355.667 195.667 355.067 195.467 354.8 195.067C354.6 194.6 354.733 194 355.2 193.8C355.6 193.533 356.2 193.667 356.467 194.133Z" fill="#BCBEC0"/>
<path d="M345.467 213.266C345.267 213.6 344.867 213.733 344.533 213.533C344.2 213.333 344.133 212.933 344.333 212.6C344.467 212.266 344.933 212.2 345.2 212.333C345.533 212.533 345.667 213 345.467 213.266Z" fill="#BCBEC0"/>
<path d="M278.467 206.733C278 206.733 277.6 206.333 277.6 205.867C277.6 205.4 278 205 278.467 205C278.933 205 279.333 205.4 279.333 205.867C279.333 206.333 278.933 206.733 278.467 206.733Z" fill="#BCBEC0"/>
<path d="M270.2 192.399C270.067 192.133 270.133 191.866 270.4 191.733C270.667 191.599 270.933 191.666 271.067 191.933C271.2 192.133 271.133 192.466 270.867 192.599C270.667 192.733 270.333 192.666 270.2 192.399Z" fill="#BCBEC0"/>
<path d="M278.067 178.2C278.267 177.867 278.667 177.8 278.933 177.934C279.267 178.134 279.333 178.534 279.2 178.867C279 179.134 278.6 179.267 278.267 179.067C278 178.867 277.867 178.467 278.067 178.2Z" fill="#BCBEC0"/>
<path d="M294.4 178.066C294.733 178.066 294.933 178.333 294.933 178.6C294.933 178.933 294.733 179.133 294.4 179.133C294.133 179.133 293.867 178.866 293.867 178.6C293.867 178.333 294.133 178.066 294.4 178.066Z" fill="#BCBEC0"/>
<path d="M302.733 192.066C302.867 192.333 302.8 192.666 302.533 192.8C302.267 193 301.867 192.866 301.733 192.6C301.6 192.333 301.667 192 301.933 191.8C302.2 191.666 302.6 191.733 302.733 192.066Z" fill="#BCBEC0"/>
<path d="M294.733 206.266C294.6 206.533 294.267 206.599 294 206.466C293.733 206.266 293.6 205.933 293.8 205.666C293.933 205.399 294.267 205.333 294.533 205.466C294.8 205.666 294.933 205.999 294.733 206.266Z" fill="#BCBEC0"/>
<path d="M285.867 167.867C285.533 167.867 285.2 167.533 285.2 167.2C285.2 166.8 285.533 166.533 285.867 166.533C286.267 166.533 286.533 166.8 286.533 167.2C286.533 167.533 286.267 167.867 285.867 167.867Z" fill="#BCBEC0"/>
<path d="M273.933 148.533C273.667 148 273.867 147.333 274.4 147C274.933 146.667 275.6 146.867 275.867 147.4C276.2 147.933 276 148.6 275.467 148.933C274.933 149.2 274.267 149.067 273.933 148.533Z" fill="#BCBEC0"/>
<path d="M285.067 128.267C285.4 127.667 286.133 127.467 286.733 127.8C287.267 128.134 287.467 128.867 287.133 129.467C286.8 130.067 286.067 130.267 285.467 129.934C284.933 129.534 284.733 128.8 285.067 128.267Z" fill="#BCBEC0"/>
<path d="M308.2 128.2C308.667 128.2 309 128.534 309 129C309 129.4 308.667 129.8 308.2 129.8C307.8 129.734 307.467 129.4 307.467 129C307.467 128.534 307.8 128.2 308.2 128.2Z" fill="#BCBEC0"/>
<path d="M319.8 147.866C319.933 148.2 319.867 148.6 319.533 148.8C319.2 149 318.8 148.866 318.6 148.533C318.4 148.2 318.533 147.8 318.867 147.6C319.2 147.466 319.6 147.533 319.8 147.866Z" fill="#BCBEC0"/>
<path d="M308.867 167.8C308.6 168.267 308 168.467 307.533 168.2C307.067 167.867 306.867 167.267 307.133 166.8C307.4 166.334 308.067 166.2 308.533 166.467C309 166.734 309.133 167.334 308.867 167.8Z" fill="#BCBEC0"/>
<path d="M217.867 163.133C217.6 163.533 217.733 164 218.133 164.2C218.467 164.4 219 164.333 219.2 163.933C219.4 163.533 219.267 163.066 218.933 162.866C218.533 162.666 218.067 162.8 217.867 163.133Z" fill="#BCBEC0"/>
<path d="M227.667 181.533C227.933 181.933 228.533 182.133 228.933 181.867C229.4 181.6 229.533 181 229.333 180.6C229.067 180.133 228.467 180 228.067 180.267C227.6 180.467 227.467 181.067 227.667 181.533Z" fill="#BCBEC0"/>
<path d="M248.667 182.133C249.2 182.133 249.667 181.733 249.667 181.133C249.667 180.599 249.2 180.133 248.667 180.133C248.067 180.133 247.667 180.599 247.667 181.133C247.667 181.733 248.067 182.133 248.667 182.133Z" fill="#BCBEC0"/>
<path d="M259.6 164.266C259.867 163.8 259.733 163.2 259.267 162.933C258.867 162.666 258.267 162.866 258 163.266C257.733 163.733 257.867 164.333 258.333 164.6C258.8 164.866 259.333 164.666 259.6 164.266Z" fill="#BCBEC0"/>
<path d="M249.333 146C249.2 145.667 248.8 145.6 248.533 145.733C248.267 145.933 248.2 146.267 248.333 146.533C248.467 146.867 248.867 146.933 249.133 146.8C249.4 146.6 249.533 146.267 249.333 146Z" fill="#BCBEC0"/>
<path d="M228.667 145.066C228.133 145.066 227.6 145.533 227.6 146.133C227.6 146.733 228.067 147.2 228.667 147.2C229.267 147.2 229.8 146.733 229.8 146.133C229.8 145.533 229.267 145.066 228.667 145.066Z" fill="#BCBEC0"/>
<path d="M562.467 200C562.133 199.4 562.333 198.667 562.933 198.333C563.467 198 564.2 198.2 564.533 198.8C564.867 199.4 564.667 200.133 564.067 200.4C563.533 200.733 562.8 200.533 562.467 200Z" fill="#BCBEC0"/>
<path d="M576.133 176.267C576.333 175.934 576.8 175.8 577.2 176C577.533 176.2 577.666 176.667 577.466 177.067C577.266 177.4 576.8 177.534 576.4 177.334C576.066 177.067 575.933 176.667 576.133 176.267Z" fill="#BCBEC0"/>
<path d="M163.333 185.067C163 185.667 163.2 186.4 163.8 186.8C164.4 187.133 165.2 186.933 165.533 186.333C165.867 185.733 165.667 184.933 165.067 184.6C164.467 184.267 163.733 184.467 163.333 185.067Z" fill="#BCBEC0"/>
<path d="M176.8 210.133C177.133 210.8 178 211.066 178.667 210.666C179.333 210.266 179.6 209.4 179.2 208.733C178.8 208.066 177.933 207.8 177.267 208.2C176.6 208.6 176.4 209.466 176.8 210.133Z" fill="#BCBEC0"/>
<path d="M205.333 210.799C206 210.799 206.533 210.266 206.533 209.599C206.533 208.933 206 208.399 205.333 208.399C204.667 208.399 204.133 208.933 204.133 209.599C204.133 210.266 204.667 210.799 205.333 210.799Z" fill="#BCBEC0"/>
<path d="M220 186.467C220.267 186 220.133 185.4 219.667 185.133C219.133 184.8 218.533 185 218.267 185.467C218 185.933 218.133 186.6 218.6 186.867C219.133 187.133 219.733 187 220 186.467Z" fill="#BCBEC0"/>
<path d="M206.333 161.8C206.067 161.4 205.6 161.267 205.2 161.533C204.8 161.733 204.667 162.267 204.867 162.667C205.067 163.067 205.6 163.2 206 162.933C206.4 162.733 206.533 162.2 206.333 161.8Z" fill="#BCBEC0"/>
<path d="M178.267 161.267C177.8 161.267 177.467 161.667 177.467 162.067C177.467 162.533 177.8 162.867 178.267 162.867C178.667 162.867 179.067 162.533 179.067 162.067C179.067 161.667 178.667 161.267 178.267 161.267Z" fill="#BCBEC0"/>
<path d="M335.267 169.533C334.4 169.533 333.667 168.799 333.667 167.933C333.667 167.066 334.4 166.399 335.267 166.399C336.133 166.399 336.8 167.133 336.8 167.999C336.8 168.866 336.133 169.533 335.267 169.533Z" fill="#BCBEC0"/>
<path d="M315.6 136.266C315.267 135.6 315.467 134.8 316.133 134.4C316.8 134.066 317.6 134.266 318 134.933C318.333 135.6 318.133 136.4 317.467 136.8C316.8 137.133 316 136.933 315.6 136.266Z" fill="#BCBEC0"/>
<path d="M334.4 102.733C334.8 102.067 335.667 101.867 336.333 102.267C337 102.667 337.2 103.467 336.8 104.133C336.4 104.8 335.6 105.067 334.933 104.667C334.2 104.267 334 103.4 334.4 102.733Z" fill="#BCBEC0"/>
<path d="M372.867 101.934C373.867 101.934 374.6 102.734 374.6 103.667C374.6 104.667 373.8 105.4 372.867 105.4C371.867 105.4 371.067 104.6 371.067 103.667C371.133 102.667 371.867 101.867 372.867 101.934Z" fill="#BCBEC0"/>
<path d="M392.2 135.533C392.533 135.999 392.333 136.666 391.8 136.933C391.333 137.199 390.667 137.066 390.4 136.533C390.133 136.066 390.267 135.399 390.8 135.133C391.267 134.799 391.933 134.999 392.2 135.533Z" fill="#BCBEC0"/>
<path d="M373.6 168.8C373.267 169.467 372.467 169.667 371.867 169.267C371.2 168.933 371 168.133 371.4 167.533C371.733 166.933 372.533 166.733 373.133 167.067C373.733 167.4 374 168.2 373.6 168.8Z" fill="#BCBEC0"/>
<path d="M301.2 156.533C300.4 156.533 299.733 155.866 299.733 155.066C299.733 154.266 300.4 153.6 301.2 153.6C302 153.6 302.667 154.266 302.667 155.066C302.667 155.866 302 156.533 301.2 156.533Z" fill="#BCBEC0"/>
<path d="M286.867 132.734C286.533 132.067 286.733 131.2 287.4 130.867C288 130.467 288.867 130.734 289.2 131.334C289.6 132 289.333 132.867 288.733 133.2C288.067 133.6 287.267 133.334 286.867 132.734Z" fill="#BCBEC0"/>
<path d="M300.2 108.4C300.6 107.733 301.467 107.467 302.2 107.867C302.867 108.267 303.067 109.2 302.667 109.867C302.267 110.533 301.4 110.8 300.733 110.4C300 110 299.8 109.067 300.2 108.4Z" fill="#BCBEC0"/>
<path d="M328 107.866C328.733 107.866 329.4 108.533 329.4 109.266C329.4 110.066 328.733 110.733 327.933 110.733C327.2 110.666 326.533 110.066 326.533 109.266C326.533 108.466 327.2 107.866 328 107.866Z" fill="#BCBEC0"/>
<path d="M341.8 131.933C342 132.333 341.867 132.8 341.533 133C341.133 133.266 340.6 133.133 340.4 132.733C340.2 132.333 340.333 131.866 340.733 131.6C341.067 131.4 341.6 131.533 341.8 131.933Z" fill="#BCBEC0"/>
<path d="M328.867 155.933C328.467 156.533 327.667 156.733 327.067 156.4C326.4 156 326.2 155.2 326.533 154.533C326.933 153.933 327.733 153.733 328.4 154.067C329 154.467 329.267 155.267 328.867 155.933Z" fill="#BCBEC0"/>
<path d="M533.067 169.399C532 169.399 531.067 168.466 531.067 167.399C531.133 166.266 532 165.399 533.133 165.399C534.2 165.399 535.067 166.333 535.067 167.399C535.067 168.533 534.2 169.399 533.067 169.399Z" fill="#BCBEC0"/>
<path d="M508.933 129.867C508.267 128.733 508.667 127.267 509.8 126.6C511 125.933 512.467 126.333 513.133 127.467C513.733 128.6 513.333 130.067 512.2 130.733C511.067 131.4 509.6 131 508.933 129.867Z" fill="#BCBEC0"/>
<path d="M532 89.2662C532.467 88.3995 533.6 88.1328 534.4 88.6662C535.267 89.1328 535.6 90.2662 535.067 91.0662C534.6 91.9329 533.467 92.1995 532.6 91.7329C531.8 91.1995 531.467 90.1328 532 89.2662Z" fill="#BCBEC0"/>
<path d="M578.133 88.8662C579 88.8662 579.667 89.5329 579.667 90.4662C579.667 91.3329 579 91.9996 578.067 91.9996C577.2 91.9996 576.533 91.3329 576.533 90.3996C576.533 89.5329 577.267 88.8662 578.133 88.8662Z" fill="#BCBEC0"/>
<path d="M601.8 128.2C602.333 129.133 602 130.267 601.133 130.8C600.2 131.333 599.067 131 598.533 130.067C598 129.2 598.333 128.067 599.267 127.533C600.133 127 601.333 127.333 601.8 128.2Z" fill="#BCBEC0"/>
<path d="M579.067 168.467C578.6 169.2 577.6 169.467 576.867 169C576.133 168.6 575.867 167.6 576.333 166.867C576.733 166.067 577.733 165.8 578.467 166.267C579.267 166.733 579.467 167.667 579.067 168.467Z" fill="#BCBEC0"/>
<path d="M476.133 84.4666C474.667 84.4666 473.533 83.2666 473.533 81.8666C473.533 80.3999 474.733 79.2666 476.2 79.2666C477.6 79.2666 478.8 80.4666 478.733 81.8666C478.733 83.3333 477.6 84.4666 476.133 84.4666Z" fill="#BCBEC0"/>
<path d="M446.933 35.7331C446.267 34.4665 446.667 32.9998 447.867 32.2665C449.067 31.5998 450.6 31.9998 451.333 33.1998C452 34.3998 451.6 35.9331 450.4 36.6665C449.2 37.3331 447.667 36.9331 446.933 35.7331Z" fill="#BCBEC0"/>
<path d="M560.333 33.9327C560.933 34.9993 560.533 36.466 559.4 37.1327C558.333 37.7327 556.867 37.3327 556.2 36.1994C555.6 35.1327 556 33.666 557.133 32.9994C558.2 32.3994 559.667 32.7993 560.333 33.9327Z" fill="#BCBEC0"/>
<path d="M532.133 83.0002C531.667 83.8002 530.667 84.0669 529.867 83.6002C529.067 83.1335 528.8 82.1335 529.267 81.3335C529.733 80.5335 530.733 80.2669 531.533 80.7335C532.333 81.2002 532.6 82.2002 532.133 83.0002Z" fill="#BCBEC0"/>
<g opacity="0.6">
<path d="M88.6 106.133L47.2 105.866V104.8L88.6 105V106.133Z" fill="#D1D3D4"/>
<path d="M108.6 141.8L88.1333 105.866L89.0667 105.333L109.6 141.266L108.6 141.8Z" fill="#D1D3D4"/>
<path d="M88.6667 177.533L87.7333 177L108.6 141.267L109.533 141.8L88.6667 177.533Z" fill="#D1D3D4"/>
<path d="M88.2002 177.8L46.8002 177.533V176.467L88.2002 176.733V177.8Z" fill="#D1D3D4"/>
<path d="M46.3333 177.266L25.8667 141.333L26.8 140.8L47.2667 176.733L46.3333 177.266Z" fill="#D1D3D4"/>
<path d="M26.8 141.333L25.8667 140.8L46.7333 105.066L47.6667 105.6L26.8 141.333Z" fill="#D1D3D4"/>
<path d="M131.733 111.4L103.533 111.267V110.533L131.733 110.667V111.4Z" fill="#D1D3D4"/>
<path d="M145.4 135.733L131.4 111.2L132.067 110.866L146.067 135.4L145.4 135.733Z" fill="#D1D3D4"/>
<path d="M131.8 160.133L131.133 159.733L145.4 135.399L146.067 135.733L131.8 160.133Z" fill="#D1D3D4"/>
<path d="M131.467 160.333L103.267 160.133V159.399L131.467 159.533V160.333Z" fill="#D1D3D4"/>
<path d="M102.933 159.933L88.9333 135.4L89.6 135.066L103.533 159.6L102.933 159.933Z" fill="#D1D3D4"/>
<path d="M89.6 135.467L88.9333 135.067L103.2 110.667L103.867 111.067L89.6 135.467Z" fill="#D1D3D4"/>
<path d="M166.267 201.599L139.333 201.466V200.732L166.267 200.866V201.599Z" fill="#D1D3D4"/>
<path d="M179.333 224.865L166 201.399L166.6 201.065L179.933 224.465L179.333 224.865Z" fill="#D1D3D4"/>
<path d="M126 224.533L125.4 224.199L139 200.933L139.6 201.266L126 224.533Z" fill="#D1D3D4"/>
</g>
<g opacity="0.8">
<path d="M25 183.534L-65.3334 183.067V180.667L25 181.2V183.534Z" fill="#BCBEC0"/>
<path d="M68.6666 261.467L24 182.934L26.0666 181.801L70.7333 260.267L68.6666 261.467Z" fill="#BCBEC0"/>
<path d="M54.2666 147.934L-11.0667 147.601V145.867L54.2666 146.267V147.934Z" fill="#BCBEC0"/>
<path d="M85.8666 204.267L53.5333 147.534L55 146.667L87.3333 203.4L85.8666 204.267Z" fill="#BCBEC0"/>
<path d="M54.3333 260.667L52.8666 259.8L85.8666 203.4L87.3333 204.267L54.3333 260.667Z" fill="#BCBEC0"/>
<path d="M237.667 191.4L191.867 191.134V189.934L237.667 190.2V191.4Z" fill="#BCBEC0"/>
<path d="M259.8 230.867L237.133 191.067L238.2 190.467L260.867 230.267L259.8 230.867Z" fill="#BCBEC0"/>
<path d="M169.267 230.334L168.2 229.734L191.333 190.2L192.4 190.8L169.267 230.334Z" fill="#BCBEC0"/>
<path d="M139.533 184.667L93.2666 184.4V183.134L139.533 183.4V184.667Z" fill="#BCBEC0"/>
<path d="M161.933 224.533L139 184.333L140.067 183.733L163 223.933L161.933 224.533Z" fill="#BCBEC0"/>
<path d="M70.4 224L69.3333 223.4L92.7333 183.467L93.8 184.067L70.4 224Z" fill="#BCBEC0"/>
</g>
<g opacity="0.3">
<path d="M145.267 148.934L119.267 148.8V148.134L145.333 148.267L145.267 148.934Z" fill="#BCBEC0"/>
<path d="M157.867 171.4L145 148.8L145.6 148.467L158.467 171.067L157.867 171.4Z" fill="#BCBEC0"/>
<path d="M145.333 193.867L144.733 193.534L157.867 171.067L158.467 171.401L145.333 193.867Z" fill="#BCBEC0"/>
<path d="M145.067 194.067L119 193.867V193.2L145.067 193.334V194.067Z" fill="#BCBEC0"/>
<path d="M118.733 193.734L105.867 171.134L106.4 170.801L119.333 193.401L118.733 193.734Z" fill="#BCBEC0"/>
<path d="M106.4 171.134L105.867 170.801L119 148.334L119.6 148.667L106.4 171.134Z" fill="#BCBEC0"/>
<path d="M165 186L163.933 185.4L177.733 161.8L178.8 162.4L165 186Z" fill="#BCBEC0"/>
<path d="M177.467 209.734L163.933 186L165 185.4L178.533 209.134L177.467 209.734Z" fill="#BCBEC0"/>
<path d="M205.333 210.2L178 210.066V208.8L205.333 209V210.2Z" fill="#BCBEC0"/>
<path d="M205.867 209.867L204.8 209.267L218.6 185.667L219.667 186.267L205.867 209.867Z" fill="#BCBEC0"/>
<path d="M218.6 186.267L205.067 162.534L206.133 161.934L219.667 185.667L218.6 186.267Z" fill="#BCBEC0"/>
<path d="M205.6 162.867L178.267 162.667V161.467L205.6 161.6V162.867Z" fill="#BCBEC0"/>
</g>
<g opacity="0.6">
<path d="M593.467 193.266L556 193.066V192.066L593.467 192.333V193.266Z" fill="#D1D3D4"/>
<path d="M555.6 192.866L537.067 160.333L537.933 159.8L556.467 192.333L555.6 192.866Z" fill="#D1D3D4"/>
<path d="M537.867 160.333L537.067 159.8L555.933 127.467L556.8 128L537.867 160.333Z" fill="#D1D3D4"/>
<path d="M593.8 128.467L556.4 128.267V127.267L593.8 127.467V128.467Z" fill="#D1D3D4"/>
<path d="M611.933 160.733L593.4 128.2L594.267 127.733L612.8 160.267L611.933 160.733Z" fill="#D1D3D4"/>
<path d="M593.867 193.067L593 192.534L611.933 160.2L612.8 160.734L593.867 193.067Z" fill="#D1D3D4"/>
<path d="M595.8 73.733L560.4 73.5329V72.5996L595.8 72.7996V73.733Z" fill="#D1D3D4"/>
<path d="M560 73.3331L542.467 42.5331L543.267 42.0664L560.8 72.8664L560 73.3331Z" fill="#D1D3D4"/>
<path d="M543.267 42.5335L542.467 42.0668L560.333 11.4668L561.133 11.9335L543.267 42.5335Z" fill="#D1D3D4"/>
<path d="M596.2 12.3999L560.733 12.1999V11.2666L596.2 11.4666V12.3999Z" fill="#D1D3D4"/>
<path d="M613.333 42.9337L595.8 12.1337L596.6 11.667L614.133 42.467L613.333 42.9337Z" fill="#D1D3D4"/>
<path d="M596.2 73.5335L595.4 73.0668L613.333 42.4668L614.133 42.9335L596.2 73.5335Z" fill="#D1D3D4"/>
<path d="M488.067 230.934L487.2 230.467L506.933 196.667L507.8 197.2L488.067 230.934Z" fill="#D1D3D4"/>
<path d="M546.467 197.667L507.333 197.467L507.4 196.4L546.467 196.6V197.667Z" fill="#D1D3D4"/>
<path d="M565.4 231.401L546.067 197.401L546.933 196.867L566.333 230.867L565.4 231.401Z" fill="#D1D3D4"/>
<path d="M422 110.2L381.267 110V108.934L422 109.134V110.2Z" fill="#D1D3D4"/>
<path d="M380.8 109.734L360.667 74.3341L361.6 73.8008L381.733 109.201L380.8 109.734Z" fill="#D1D3D4"/>
<path d="M361.6 74.3337L360.667 73.8003L381.2 38.667L382.133 39.2003L361.6 74.3337Z" fill="#D1D3D4"/>
<path d="M422.4 39.7337L381.667 39.4671V38.4004L422.4 38.6671V39.7337Z" fill="#D1D3D4"/>
<path d="M442.067 74.8003L421.933 39.4669L422.867 38.9336L443 74.2669L442.067 74.8003Z" fill="#D1D3D4"/>
<path d="M422.467 109.933L421.533 109.4L442.067 74.2666L443 74.7999L422.467 109.933Z" fill="#D1D3D4"/>
<path d="M372.467 168.799L335.267 168.599V167.399L372.467 167.599V168.799Z" fill="#D1D3D4"/>
<path d="M334.733 168.266L316.267 135.933L317.333 135.333L335.8 167.666L334.733 168.266Z" fill="#D1D3D4"/>
<path d="M317.333 135.933L316.267 135.333L335.067 103.133L336.133 103.733L317.333 135.933Z" fill="#D1D3D4"/>
<path d="M372.867 104.266L335.6 104.066V102.866L372.867 103.066V104.266Z" fill="#D1D3D4"/>
<path d="M390.8 136.333L372.333 103.933L373.4 103.399L391.8 135.733L390.8 136.333Z" fill="#D1D3D4"/>
<path d="M373 168.466L372 167.866L390.8 135.732L391.8 136.332L373 168.466Z" fill="#D1D3D4"/>
</g>
<g opacity="0.3">
<path d="M576.8 42.2668L551.467 42.1335V41.4668L576.867 41.6001L576.8 42.2668Z" fill="#BCBEC0"/>
<path d="M551.133 41.9996L538.6 19.9329L539.2 19.5996L551.733 41.6663L551.133 41.9996Z" fill="#BCBEC0"/>
<path d="M539.2 19.9337L538.6 19.6003L551.4 -2.33301L552 -1.99967L539.2 19.9337Z" fill="#BCBEC0"/>
<path d="M589.333 20.1998L576.8 -1.86686L577.4 -2.2002L589.933 19.8665L589.333 20.1998Z" fill="#BCBEC0"/>
<path d="M577.133 42.1329L576.533 41.7995L589.333 19.8662L589.933 20.1995L577.133 42.1329Z" fill="#BCBEC0"/>
<path d="M470.8 229.866L470.333 229.533L481.533 210.333L482.067 210.666L470.8 229.866Z" fill="#BCBEC0"/>
<path d="M504 210.933L481.8 210.799V210.199L504 210.333V210.933Z" fill="#BCBEC0"/>
<path d="M514.8 230.066L503.8 210.799L504.267 210.466L515.267 229.799L514.8 230.066Z" fill="#BCBEC0"/>
<path d="M422.333 216.999L392.133 216.865V215.799L422.333 215.932V216.999Z" fill="#BCBEC0"/>
<path d="M391.667 216.599L376.733 190.332L377.6 189.799L392.6 216.065L391.667 216.599Z" fill="#BCBEC0"/>
<path d="M377.6 190.332L376.733 189.799L391.933 163.732L392.867 164.266L377.6 190.332Z" fill="#BCBEC0"/>
<path d="M422.6 164.666L392.4 164.532V163.466L422.6 163.599V164.666Z" fill="#BCBEC0"/>
<path d="M437.133 190.666L422.133 164.4L423.067 163.866L438.067 190.133L437.133 190.666Z" fill="#BCBEC0"/>
<path d="M422.8 216.733L421.867 216.199L437.133 190.133L438.067 190.666L422.8 216.733Z" fill="#BCBEC0"/>
<path d="M344.867 213.332L323.6 213.199V212.466L344.867 212.599V213.332Z" fill="#BCBEC0"/>
<path d="M323.267 212.999L312.733 194.533L313.4 194.133L323.933 212.666L323.267 212.999Z" fill="#BCBEC0"/>
<path d="M313.4 194.533L312.733 194.133L323.467 175.8L324.133 176.133L313.4 194.533Z" fill="#BCBEC0"/>
<path d="M345.067 176.466L323.8 176.333V175.6L345.067 175.733V176.466Z" fill="#BCBEC0"/>
<path d="M355.333 194.733L344.8 176.266L345.4 175.933L355.933 194.399L355.333 194.733Z" fill="#BCBEC0"/>
<path d="M345.2 213.133L344.533 212.733L355.333 194.399L355.933 194.799L345.2 213.133Z" fill="#BCBEC0"/>
<path d="M294.267 206.266L278.467 206.133V205.6L294.267 205.666V206.266Z" fill="#BCBEC0"/>
<path d="M278.2 206L270.4 192.267L270.867 192L278.733 205.733L278.2 206Z" fill="#BCBEC0"/>
<path d="M270.867 192.267L270.4 192L278.4 178.4L278.867 178.667L270.867 192.267Z" fill="#BCBEC0"/>
<path d="M294.4 178.867L278.6 178.8V178.267L294.4 178.333V178.867Z" fill="#BCBEC0"/>
<path d="M302 192.467L294.2 178.733L294.667 178.467L302.467 192.2L302 192.467Z" fill="#BCBEC0"/>
<path d="M294.533 206.134L294 205.8L302 192.2L302.467 192.467L294.533 206.134Z" fill="#BCBEC0"/>
<path d="M308 167.666L285.867 167.533V166.866L308 167V167.666Z" fill="#BCBEC0"/>
<path d="M285.6 167.333L274.6 148.133L275.2 147.8L286.2 167L285.6 167.333Z" fill="#BCBEC0"/>
<path d="M275.2 148.134L274.6 147.8L285.8 128.667L286.4 129L275.2 148.134Z" fill="#BCBEC0"/>
<path d="M308.2 129.333L286.067 129.2V128.533L308.2 128.667V129.333Z" fill="#BCBEC0"/>
<path d="M318.867 148.4L307.933 129.133L308.533 128.8L319.467 148.066L318.867 148.4Z" fill="#BCBEC0"/>
<path d="M308.333 167.466L307.733 167.133L318.867 148.066L319.467 148.4L308.333 167.466Z" fill="#BCBEC0"/>
<path d="M218.867 163.733L218.2 163.333L228.4 145.933L229 146.333L218.867 163.733Z" fill="#BCBEC0"/>
<path d="M228.2 181.199L218.2 163.732L218.867 163.332L228.8 180.865L228.2 181.199Z" fill="#BCBEC0"/>
<path d="M248.667 181.532L228.467 181.398V180.665L248.667 180.798V181.532Z" fill="#BCBEC0"/>
<path d="M248.933 181.332L248.333 180.999L258.467 163.599L259.133 163.932L248.933 181.332Z" fill="#BCBEC0"/>
<path d="M258.467 163.932L248.533 146.465L249.133 146.065L259.133 163.599L258.467 163.932Z" fill="#BCBEC0"/>
<path d="M248.867 146.665L228.667 146.532V145.799L248.867 145.865V146.665Z" fill="#BCBEC0"/>
<path d="M576.267 222.466L563.2 199.533L563.8 199.199L576.867 222.066L576.267 222.466Z" fill="#BCBEC0"/>
<path d="M563.8 199.533L563.2 199.2L576.467 176.467L577.067 176.8L563.8 199.533Z" fill="#BCBEC0"/>
<path d="M603.134 177.133L576.8 177V176.333L603.134 176.466V177.133Z" fill="#BCBEC0"/>
<path d="M327.733 155.599L301.2 155.399V154.732L327.733 154.866V155.599Z" fill="#BCBEC0"/>
<path d="M300.867 155.265L287.733 132.199L288.333 131.865L301.467 154.932L300.867 155.265Z" fill="#BCBEC0"/>
<path d="M288.333 132.199L287.733 131.866L301.133 108.933L301.733 109.333L288.333 132.199Z" fill="#BCBEC0"/>
<path d="M328 109.599L301.467 109.465V108.799L328 108.932V109.599Z" fill="#BCBEC0"/>
<path d="M340.8 132.532L327.667 109.465L328.267 109.132L341.4 132.132L340.8 132.532Z" fill="#BCBEC0"/>
<path d="M328 155.398L327.4 155.065L340.8 132.132L341.4 132.532L328 155.398Z" fill="#BCBEC0"/>
</g>
<g opacity="0.8">
<path d="M514.467 176.199L454.667 175.866V174.266L514.467 174.599V176.199Z" fill="#BCBEC0"/>
<path d="M453.933 175.466L424.333 123.466L425.733 122.666L455.333 174.666L453.933 175.466Z" fill="#BCBEC0"/>
<path d="M425.667 123.466L424.333 122.666L454.533 70.999L455.933 71.799L425.667 123.466Z" fill="#BCBEC0"/>
<path d="M515.067 72.5327L455.2 72.1994V70.666L515.067 70.9993V72.5327Z" fill="#BCBEC0"/>
<path d="M544 124.133L514.4 72.1327L515.733 71.3994L545.4 123.333L544 124.133Z" fill="#BCBEC0"/>
<path d="M515.133 175.8L513.8 175L544 123.333L545.4 124.133L515.133 175.8Z" fill="#BCBEC0"/>
<path d="M627.333 157.266L597.933 105.666L599.333 104.933L628.733 156.533L627.333 157.266Z" fill="#BCBEC0"/>
<path d="M599.333 105.666L597.933 104.933L627.933 53.666L629.267 54.3994L599.333 105.666Z" fill="#BCBEC0"/>
<path d="M466.8 210.866L397 210.466L397.067 208.666L466.8 209.066V210.866Z" fill="#BCBEC0"/>
<path d="M396.2 210L361.667 149.4L363.267 148.467L397.8 209.133L396.2 210Z" fill="#BCBEC0"/>
<path d="M363.267 149.4L361.667 148.467L396.933 88.2666L398.467 89.1999L363.267 149.4Z" fill="#BCBEC0"/>
<path d="M467.467 89.9998L397.667 89.6665L397.733 87.7998L467.467 88.1998V89.9998Z" fill="#BCBEC0"/>
<path d="M501.2 150.199L466.667 89.5327L468.267 88.666L502.8 149.266L501.2 150.199Z" fill="#BCBEC0"/>
<path d="M467.6 210.4L466 209.467L501.267 149.267L502.8 150.2L467.6 210.4Z" fill="#BCBEC0"/>
<path d="M577.667 168.266L533.067 168V166.8L577.667 167.066V168.266Z" fill="#BCBEC0"/>
<path d="M532.6 167.666L510.533 128.933L511.533 128.399L533.6 167.133L532.6 167.666Z" fill="#BCBEC0"/>
<path d="M511.533 128.933L510.533 128.4L533 89.8662L534 90.4662L511.533 128.933Z" fill="#BCBEC0"/>
<path d="M578.133 90.9996L533.533 90.7996V89.5996L578.133 89.8663V90.9996Z" fill="#BCBEC0"/>
<path d="M599.667 129.466L577.6 90.7328L578.6 90.1328L600.667 128.866L599.667 129.466Z" fill="#BCBEC0"/>
<path d="M578.2 167.933L577.2 167.333L599.667 128.866L600.667 129.466L578.2 167.933Z" fill="#BCBEC0"/>
<path d="M530.733 82.8661L476.133 82.5995V81.1328L530.733 81.4661V82.8661Z" fill="#BCBEC0"/>
<path d="M475.533 82.1995L448.533 34.7995L449.733 34.1328L476.8 81.5328L475.533 82.1995Z" fill="#BCBEC0"/>
<path d="M449.733 34.799L448.533 34.0657L476.067 -13.001L477.333 -12.2676L449.733 34.799Z" fill="#BCBEC0"/>
<path d="M557.667 35.3997L530.6 -12.0003L531.867 -12.667L558.867 34.733L557.667 35.3997Z" fill="#BCBEC0"/>
<path d="M531.333 82.5324L530.067 81.7991L557.667 34.7324L558.867 35.3991L531.333 82.5324Z" fill="#BCBEC0"/>
</g>
<path d="M564.4 155.267C563.266 154.734 562.8 153.467 563.266 152.401C563.733 151.267 565 150.801 566.133 151.267C567.2 151.734 567.733 153.001 567.2 154.134C566.733 155.201 565.466 155.734 564.4 155.267Z" fill="#BCBEC0"/>
<path d="M525.067 102.666C524.867 101.333 525.867 100.066 527.267 99.8664C528.667 99.7331 529.933 100.733 530.067 102.133C530.2 103.533 529.2 104.733 527.867 104.933C526.467 105.066 525.2 104.066 525.067 102.666Z" fill="#BCBEC0"/>
<path d="M579.867 72.9335C580.533 72.4668 581.533 72.6002 582 73.2668C582.533 74.0002 582.4 74.9335 581.667 75.4668C581 75.9335 580.067 75.8002 579.533 75.1335C579 74.4668 579.2 73.4668 579.867 72.9335Z" fill="#BCBEC0"/>
<path d="M323.067 177.866C321.933 177.333 321.4 176 321.933 174.866C322.4 173.733 323.733 173.266 324.867 173.733C326 174.2 326.533 175.533 326 176.666C325.533 177.8 324.2 178.333 323.067 177.866Z" fill="#BCBEC0"/>
<path d="M293.8 159.4C293.667 157.8 294.8 156.4 296.333 156.267C297.867 156.067 299.333 157.2 299.467 158.734C299.667 160.334 298.533 161.734 297 161.867C295.4 162.067 294 160.934 293.8 159.4Z" fill="#BCBEC0"/>
<path d="M349.4 112.267C350.267 111.667 351.533 111.867 352.133 112.733C352.8 113.6 352.6 114.867 351.733 115.467C350.867 116.133 349.6 115.933 348.933 115.067C348.333 114.2 348.467 112.933 349.4 112.267Z" fill="#BCBEC0"/>
<path d="M374.6 176.8C375.8 177.334 376.4 178.8 375.867 180.067C375.333 181.334 373.867 181.867 372.6 181.334C371.333 180.8 370.733 179.334 371.333 178.067C371.867 176.8 373.333 176.267 374.6 176.8Z" fill="#BCBEC0"/>
<path d="M398.2 178.867C398.333 180.001 397.533 181.067 396.4 181.201C395.267 181.334 394.2 180.534 394.067 179.334C393.933 178.201 394.8 177.201 395.933 177.067C397.067 176.934 398.067 177.734 398.2 178.867Z" fill="#BCBEC0"/>
<path d="M384.267 218.401C383.467 219.001 382.333 218.801 381.733 218.001C381.133 217.201 381.267 216.001 382.067 215.401C382.933 214.801 384.067 215.001 384.667 215.801C385.267 216.601 385.067 217.801 384.267 218.401Z" fill="#BCBEC0"/>
<path d="M455.467 109.867C455.2 107.734 456.733 105.867 458.867 105.6C461 105.334 462.867 106.867 463.133 109C463.333 111.134 461.867 113 459.733 113.267C457.6 113.467 455.733 112 455.467 109.867Z" fill="#BCBEC0"/>
<path d="M494.6 164.934C495.467 164.334 495.6 163.2 495 162.334C494.4 161.534 493.2 161.334 492.4 161.934C491.6 162.534 491.4 163.734 492 164.534C492.6 165.4 493.8 165.6 494.6 164.934Z" fill="#BCBEC0"/>
<path d="M528.667 129.2C528.6 128.734 528.133 128.4 527.667 128.4C527.133 128.467 526.8 128.934 526.867 129.4C526.933 129.934 527.333 130.267 527.867 130.2C528.333 130.134 528.733 129.734 528.667 129.2Z" fill="#BCBEC0"/>
<path d="M503.933 116.134C502.8 115.667 501.533 116.134 501.067 117.2C500.6 118.267 501.133 119.534 502.2 120C503.267 120.534 504.533 120 505 118.934C505.467 117.867 505 116.6 503.933 116.134Z" fill="#BCBEC0"/>
<path d="M438.867 144.667C438.467 145 438.4 145.6 438.667 146C439 146.4 439.6 146.533 440 146.2C440.467 145.867 440.533 145.267 440.2 144.867C439.933 144.467 439.333 144.4 438.867 144.667Z" fill="#BCBEC0"/>
<path d="M455.467 155.133C455.6 156.2 456.533 156.933 457.6 156.8C458.667 156.667 459.4 155.733 459.267 154.667C459.133 153.667 458.2 152.867 457.133 153C456.133 153.133 455.333 154.067 455.467 155.133Z" fill="#BCBEC0"/>
<path d="M450.933 154.333C451.467 154.6 452.067 154.333 452.267 153.8C452.467 153.333 452.267 152.733 451.733 152.467C451.2 152.267 450.6 152.533 450.4 153C450.2 153.533 450.4 154.133 450.933 154.333Z" fill="#BCBEC0"/>
</g>
<g style="mix-blend-mode:luminosity">
<path d="M365.305 34.8457H254.696C243.948 34.8457 235.246 43.5594 235.246 54.2958V138.536C235.246 149.284 243.948 157.986 254.696 157.986H336.65V174.516L361.068 157.986H365.305C376.053 157.986 384.755 149.284 384.755 138.536V54.2958C384.755 43.5594 376.053 34.8457 365.305 34.8457Z" fill="#104351"/>
</g>
<path d="M355.305 42.8457H244.696C233.948 42.8457 225.246 51.5594 225.246 62.2958V146.536C225.246 157.284 233.948 165.986 244.696 165.986H326.65V182.516L351.068 165.986H355.305C366.053 165.986 374.755 157.284 374.755 146.536V62.2958C374.755 51.5594 366.053 42.8457 355.305 42.8457Z" fill="white"/>
<g style="mix-blend-mode:multiply">
<path d="M360.201 74.8916H237.067V70.8916H360.201V74.8916Z" fill="#C6D1E6"/>
</g>
<g style="mix-blend-mode:multiply">
<path d="M360.201 85.8916H237.067V81.8916H360.201V85.8916Z" fill="#C6D1E6"/>
</g>
<g style="mix-blend-mode:multiply">
<path d="M360.201 96.8916H237.067V92.8916H360.201V96.8916Z" fill="#C6D1E6"/>
</g>
<g style="mix-blend-mode:multiply">
<path d="M360.201 107.892H237.067V103.892H360.201V107.892Z" fill="#C6D1E6"/>
</g>
<g style="mix-blend-mode:multiply">
<path d="M282.576 118.892H237.067V114.892H282.576V118.892Z" fill="#C6D1E6"/>
</g>
<g style="mix-blend-mode:multiply" opacity="0.1">
<path d="M241.382 63.0138V74.1094H228.982V65.3478C228.982 60.608 229.668 57.1768 231.04 55.0542C232.836 52.2295 235.684 50.0909 239.586 48.6387L242.411 52.3492C240.057 53.1631 238.322 54.376 237.204 55.9878C236.095 57.5997 235.477 59.9417 235.349 63.0138H241.382Z" fill="white"/>
<path d="M258.367 63.0138V74.1094H245.966V65.3478C245.966 60.608 246.649 57.1768 248.013 55.0542C249.817 52.2295 252.669 50.0909 256.571 48.6387L259.396 52.3492C257.042 53.1631 255.307 54.376 254.189 55.9878C253.072 57.5997 252.45 59.9417 252.322 63.0138H258.367Z" fill="white"/>
<path d="M241.741 62.6662V73.7498H229.328V65.0002C229.328 60.2603 230.023 56.8371 231.387 54.7066C233.207 51.8818 236.043 49.7393 239.945 48.291L242.77 52.0015C240.408 52.8154 238.673 54.0243 237.563 55.6282C236.446 57.2401 235.824 59.5861 235.696 62.6662H241.741Z" fill="#F9F9F9"/>
<path d="M258.726 62.6662V73.7498H246.313V65.0002C246.313 60.2603 247.008 56.8371 248.372 54.7066C250.179 51.8818 253.028 49.7393 256.918 48.291L259.755 52.0015C257.393 52.8154 255.657 54.0243 254.548 55.6282C253.431 57.2401 252.809 59.5861 252.681 62.6662H258.726Z" fill="#F9F9F9"/>
<path d="M242.1 62.3058V73.3894H229.688V64.6398C229.688 59.9 230.382 56.4768 231.747 54.3462C233.554 51.5215 236.391 49.379 240.293 47.9307L243.129 51.6412C240.767 52.4551 239.028 53.668 237.911 55.2798C236.802 56.8917 236.183 59.2337 236.056 62.3058H242.1Z" fill="#F3F3F3"/>
<path d="M259.073 62.3058V73.3894H246.673V64.6398C246.673 59.9 247.367 56.4768 248.731 54.3462C250.539 51.5215 253.376 49.379 257.278 47.9307L260.102 51.6412C257.748 52.4551 256.013 53.668 254.896 55.2798C253.787 56.8917 253.168 59.2337 253.04 62.3058H259.073Z" fill="#F3F3F3"/>
<path d="M242.447 61.9594V73.043H230.035V64.2934C230.035 59.5536 230.729 56.1184 232.094 53.9998C233.913 51.175 236.75 49.0325 240.652 47.5723L243.476 51.2947C241.122 52.1086 239.387 53.3175 238.27 54.9214C237.153 56.5333 236.53 58.8793 236.402 61.9594H242.447Z" fill="#ECECEC"/>
<path d="M259.431 61.9594V73.043H247.019V64.2934C247.019 59.5536 247.713 56.1184 249.078 53.9998C250.885 51.175 253.734 49.0325 257.636 47.5723L260.461 51.2947C258.099 52.1086 256.363 53.3175 255.254 54.9214C254.137 56.5333 253.514 58.8793 253.387 61.9594H259.431Z" fill="#ECECEC"/>
<path d="M242.805 61.6007V72.6843H230.393V63.9348C230.393 59.1949 231.087 55.7717 232.452 53.6411C234.259 50.8164 237.096 48.6739 240.998 47.2256L243.835 50.9361C241.473 51.75 239.737 52.9629 238.628 54.5748C237.511 56.1786 236.889 58.5206 236.761 61.6007H242.805Z" fill="#E6E6E6"/>
<path d="M259.79 61.6007V72.6843H247.378V63.9348C247.378 59.1949 248.072 55.7717 249.436 53.6411C251.244 50.8164 254.08 48.6739 257.982 47.2256L260.807 50.9361C258.453 51.75 256.718 52.9629 255.6 54.5748C254.491 56.1786 253.873 58.5206 253.745 61.6007H259.79Z" fill="#E6E6E6"/>
<path d="M243.153 61.2414V72.3369H230.753V63.5754C230.753 58.8475 231.435 55.4123 232.799 53.2937C234.619 50.469 237.456 48.3145 241.358 46.8662L244.182 50.5887C241.828 51.4026 240.093 52.6115 238.976 54.2154C237.858 55.8272 237.236 58.1692 237.108 61.2414H243.153Z" fill="#E0E0E0"/>
<path d="M260.137 61.2414V72.3369H247.725V63.5754C247.725 58.8475 248.42 55.4123 249.784 53.2937C251.603 50.469 254.44 48.3145 258.342 46.8662L261.167 50.5887C258.813 51.4026 257.077 52.6115 255.96 54.2154C254.843 55.8272 254.221 58.1692 254.093 61.2414H260.137Z" fill="#E0E0E0"/>
<path d="M243.512 60.8947V71.9783H231.1V63.2287C231.1 58.4888 231.794 55.0656 233.158 52.9351C234.966 50.1103 237.814 47.9678 241.704 46.5195L244.541 50.23C242.179 51.0439 240.444 52.2568 239.335 53.8687C238.217 55.4726 237.595 57.8146 237.467 60.8947H243.512Z" fill="#DADADA"/>
<path d="M260.497 60.8947V71.9783H248.085V63.2287C248.085 58.4888 248.779 55.0656 250.143 52.9351C251.951 50.1103 254.787 47.9678 258.689 46.5195L261.526 50.23C259.164 51.0439 257.429 52.2568 256.319 53.8687C255.202 55.4726 254.58 57.8146 254.452 60.8947H260.497Z" fill="#DADADA"/>
<path d="M243.86 60.5363V71.6318H231.459V62.8703C231.459 58.1305 232.154 54.7072 233.518 52.5767C235.325 49.7639 238.162 47.6094 242.064 46.1611L244.889 49.8716C242.535 50.6855 240.799 51.8984 239.682 53.5103C238.573 55.1222 237.955 57.4642 237.827 60.5363H243.86Z" fill="#D3D3D3"/>
<path d="M260.844 60.5363V71.6318H248.444V62.8703C248.444 58.1305 249.126 54.7072 250.49 52.5767C252.31 49.7639 255.146 47.6094 259.048 46.1611L261.873 49.8716C259.519 50.6855 257.784 51.8984 256.666 53.5103C255.549 55.1222 254.927 57.4642 254.799 60.5363H260.844Z" fill="#D3D3D3"/>
<path d="M244.218 60.1886V71.2722H231.806V62.5227C231.806 57.7828 232.5 54.3596 233.865 52.229C235.672 49.4043 238.521 47.2618 242.423 45.8135L245.247 49.524C242.886 50.3379 241.15 51.5468 240.041 53.1507C238.924 54.7625 238.301 57.1085 238.174 60.1886H244.218Z" fill="#CDCDCD"/>
<path d="M261.203 60.1886V71.2722H248.791V62.5227C248.791 57.7828 249.485 54.3596 250.85 52.229C252.657 49.4043 255.494 47.2618 259.396 45.8135L262.232 49.524C259.87 50.3379 258.135 51.5468 257.026 53.1507C255.909 54.7625 255.286 57.1085 255.158 60.1886H261.203Z" fill="#CDCDCD"/>
<path d="M244.578 59.8283V70.9238H232.165V62.1623C232.165 57.4225 232.86 53.9992 234.224 51.8687C236.031 49.0559 238.868 46.9014 242.77 45.4531L245.595 49.1636C243.241 49.9775 241.505 51.1904 240.388 52.8023C239.279 54.4142 238.661 56.7562 238.533 59.8283H244.578Z" fill="#C7C7C7"/>
<path d="M261.55 59.8283V70.9238H249.15V62.1623C249.15 57.4225 249.844 53.9992 251.209 51.8687C253.016 49.0559 255.853 46.9014 259.755 45.4531L262.58 49.1636C260.226 49.9775 258.49 51.1904 257.373 52.8023C256.264 54.4142 255.642 56.7562 255.506 59.8283H261.55Z" fill="#C7C7C7"/>
<path d="M244.925 59.4819V70.5654H232.512V61.8159C232.512 57.076 233.207 53.6528 234.571 51.5223C236.391 48.6975 239.227 46.555 243.129 45.0947L245.954 48.8172C243.6 49.6311 241.865 50.84 240.747 52.4439C239.63 54.0558 239.008 56.4017 238.88 59.4819H244.925Z" fill="#C1C1C1"/>
<path d="M261.909 59.4819V70.5654H249.497V61.8159C249.497 57.076 250.191 53.6528 251.556 51.5223C253.363 48.6975 256.212 46.555 260.114 45.0947L262.939 48.8172C260.577 49.6311 258.841 50.84 257.732 52.4439C256.615 54.0558 255.993 56.4017 255.865 59.4819H261.909Z" fill="#C1C1C1"/>
<path d="M245.283 59.1232V70.2068H232.871V61.4572C232.871 56.7174 233.565 53.2941 234.929 51.1636C236.737 48.3388 239.574 46.1963 243.476 44.748L246.312 48.4585C243.95 49.2724 242.211 50.4853 241.094 52.0972C239.984 53.7091 239.366 56.0511 239.238 59.1232H245.283Z" fill="#BBBBBB"/>
<path d="M262.268 59.1232V70.2068H249.856V61.4572C249.856 56.7174 250.55 53.2941 251.914 51.1636C253.722 48.3388 256.558 46.1963 260.46 44.748L263.285 48.4585C260.931 49.2724 259.196 50.4853 258.079 52.0972C256.969 53.7091 256.351 56.0511 256.223 59.1232H262.268Z" fill="#BBBBBB"/>
<path d="M245.631 58.7758V69.8594H233.23V61.1098C233.23 56.37 233.913 52.9348 235.277 50.8162C237.097 47.9914 239.933 45.8489 243.835 44.3887L246.66 48.1111C244.306 48.925 242.571 50.1339 241.453 51.7378C240.336 53.3497 239.714 55.6957 239.586 58.7758H245.631Z" fill="#B4B4B4"/>
<path d="M262.615 58.7758V69.8594H250.202V61.1098C250.202 56.37 250.897 52.9348 252.261 50.8162C254.081 47.9914 256.917 45.8489 260.819 44.3887L263.644 48.1111C261.29 48.925 259.554 50.1339 258.437 51.7378C257.32 53.3497 256.698 55.6957 256.57 58.7758H262.615Z" fill="#B4B4B4"/>
<path d="M245.991 58.4171V69.5007H233.578V60.7512C233.578 56.0113 234.273 52.5881 235.637 50.4575C237.444 47.6328 240.281 45.4903 244.183 44.042L247.02 47.7525C244.658 48.5664 242.922 49.7793 241.813 51.3912C240.696 52.995 240.074 55.337 239.946 58.4171H245.991Z" fill="#AEAEAE"/>
<path d="M262.975 58.4171V69.5007H250.563V60.7512C250.563 56.0113 251.257 52.5881 252.621 50.4575C254.429 47.6328 257.265 45.4903 261.167 44.042L264.004 47.7525C261.642 48.5664 259.903 49.7793 258.786 51.3912C257.676 52.995 257.058 55.337 256.93 58.4171H262.975Z" fill="#AEAEAE"/>
<path d="M246.337 58.0578V69.1533H233.937V60.3918C233.937 55.6519 234.631 52.2287 235.995 50.1101C237.803 47.2854 240.64 45.1309 244.542 43.6826L247.366 47.4051C245.012 48.211 243.277 49.4199 242.16 51.0318C241.043 52.6437 240.42 54.9856 240.292 58.0578H246.337Z" fill="#A8A8A8"/>
<path d="M263.322 58.0578V69.1533H250.909V60.3918C250.909 55.6519 251.604 52.2287 252.968 50.1101C254.787 47.2854 257.624 45.1309 261.526 43.6826L264.351 47.4051C261.997 48.211 260.261 49.4199 259.144 51.0318C258.027 52.6437 257.405 54.9856 257.277 58.0578H263.322Z" fill="#A8A8A8"/>
<path d="M246.697 57.7111V68.7947H234.285V60.0451C234.285 55.3053 234.979 51.882 236.343 49.7515C238.151 46.9267 240.999 44.7842 244.901 43.3359L247.726 47.0464C245.364 47.8603 243.629 49.0732 242.52 50.6851C241.402 52.289 240.78 54.631 240.652 57.7111H246.697Z" fill="#A2A2A2"/>
<path d="M263.681 57.7111V68.7947H251.269V60.0451C251.269 55.3053 251.963 51.882 253.328 49.7515C255.135 46.9267 257.972 44.7842 261.874 43.3359L264.71 47.0464C262.349 47.8603 260.613 49.0732 259.504 50.6851C258.387 52.289 257.764 54.631 257.637 57.7111H263.681Z" fill="#A2A2A2"/>
<path d="M247.043 57.3507V68.4463H234.643V59.6848C234.643 54.9449 235.337 51.5217 236.702 49.3911C238.509 46.5784 241.346 44.4239 245.248 42.9756L248.073 46.6861C245.719 47.5 243.983 48.7129 242.866 50.3248C241.757 51.9366 241.138 54.2786 241.011 57.3507H247.043Z" fill="#9B9B9B"/>
<path d="M264.028 57.3507V68.4463H251.627V59.6848C251.627 54.9449 252.31 51.5217 253.674 49.3911C255.493 46.5784 258.33 44.4239 262.232 42.9756L265.057 46.6861C262.703 47.5 260.967 48.7129 259.85 50.3248C258.733 51.9366 258.111 54.2786 257.983 57.3507H264.028Z" fill="#9B9B9B"/>
<path d="M247.402 57.0041V68.0877H234.99V59.3381C234.99 54.5982 235.684 51.175 237.048 49.0445C238.868 46.2197 241.705 44.0772 245.607 42.6289L248.431 46.3394C246.069 47.1533 244.334 48.3622 243.225 49.9661C242.108 51.578 241.485 53.924 241.357 57.0041H247.402Z" fill="#959595"/>
<path d="M264.387 57.0041V68.0877H251.975V59.3381C251.975 54.5982 252.669 51.175 254.033 49.0445C255.841 46.2197 258.689 44.0772 262.579 42.6289L265.416 46.3394C263.054 47.1533 261.319 48.3622 260.21 49.9661C259.092 51.578 258.47 53.924 258.342 57.0041H264.387Z" fill="#959595"/>
<path d="M247.761 56.6447V67.7283H235.349V58.9787C235.349 54.2388 236.043 50.8156 237.408 48.6851C239.215 45.8603 242.052 43.7178 245.954 42.2695L248.791 45.98C246.429 46.7939 244.689 48.0068 243.572 49.6187C242.463 51.2306 241.845 53.5726 241.717 56.6447H247.761Z" fill="#8F8F8F"/>
<path d="M264.734 56.6447V67.7283H252.334V58.9787C252.334 54.2388 253.028 50.8156 254.393 48.6851C256.2 45.8603 259.037 43.7178 262.939 42.2695L265.764 45.98C263.41 46.7939 261.674 48.0068 260.557 49.6187C259.448 51.2306 258.829 53.5726 258.702 56.6447H264.734Z" fill="#8F8F8F"/>
<path d="M248.108 56.2983V67.3818H235.696V58.6323C235.696 53.8924 236.39 50.4572 237.755 48.3387C239.574 45.5139 242.411 43.3714 246.313 41.9111L249.138 45.6336C246.784 46.4475 245.048 47.6564 243.931 49.2603C242.814 50.8722 242.192 53.2182 242.064 56.2983H248.108Z" fill="#898989"/>
<path d="M265.093 56.2983V67.3818H252.68V58.6323C252.68 53.8924 253.375 50.4572 254.739 48.3387C256.546 45.5139 259.395 43.3714 263.297 41.9111L266.122 45.6336C263.76 46.4475 262.024 47.6564 260.915 49.2603C259.798 50.8722 259.176 53.2182 259.048 56.2983H265.093Z" fill="#898989"/>
<path d="M248.468 55.9396V67.0232H236.056V58.2736C236.056 53.5338 236.75 50.1106 238.115 47.98C239.922 45.1553 242.759 43.0127 246.661 41.5645L249.497 45.2749C247.135 46.0889 245.4 47.3018 244.291 48.9136C243.174 50.5175 242.551 52.8595 242.423 55.9396H248.468Z" fill="#838383"/>
<path d="M265.452 55.9396V67.0232H253.04V58.2736C253.04 53.5338 253.734 50.1106 255.099 47.98C256.906 45.1553 259.743 43.0127 263.645 41.5645L266.47 45.2749C264.116 46.0889 262.38 47.3018 261.263 48.9136C260.154 50.5175 259.535 52.8595 259.408 55.9396H265.452Z" fill="#838383"/>
<path d="M248.814 55.5802V66.6758H236.414V57.9143C236.414 53.1864 237.096 49.7512 238.461 47.6326C240.28 44.8078 243.117 42.6534 247.019 41.2051L249.844 44.9275C247.49 45.7415 245.754 46.9504 244.637 48.5542C243.52 50.1661 242.898 52.5081 242.77 55.5802H248.814Z" fill="#7C7C7C"/>
<path d="M265.799 55.5802V66.6758H253.387V57.9143C253.387 53.1864 254.081 49.7512 255.446 47.6326C257.265 44.8078 260.102 42.6534 264.004 41.2051L266.828 44.9275C264.474 45.7415 262.739 46.9504 261.622 48.5542C260.505 50.1661 259.882 52.5081 259.755 55.5802H265.799Z" fill="#7C7C7C"/>
<path d="M249.174 55.2326V66.3162H236.762V57.5666C236.762 52.8267 237.456 49.4035 238.821 47.273C240.628 44.4482 243.477 42.3057 247.367 40.8574L250.204 44.5679C247.842 45.3818 246.106 46.5947 244.997 48.2066C243.88 49.8105 243.257 52.1525 243.13 55.2326H249.174Z" fill="#767676"/>
<path d="M266.159 55.2326V66.3162H253.746V57.5666C253.746 52.8267 254.441 49.4035 255.805 47.273C257.612 44.4482 260.449 42.3057 264.351 40.8574L267.188 44.5679C264.826 45.3818 263.09 46.5947 261.981 48.2066C260.864 49.8105 260.242 52.1525 260.114 55.2326H266.159Z" fill="#767676"/>
<path d="M249.521 54.8732V65.9688H237.121V57.2072C237.121 52.4674 237.815 49.0441 239.179 46.9136C240.987 44.1008 243.823 41.9463 247.725 40.498L250.55 44.2085C248.196 45.0224 246.461 46.2353 245.344 47.8472C244.234 49.4591 243.616 51.8011 243.488 54.8732H249.521Z" fill="#707070"/>
<path d="M266.505 54.8732V65.9688H254.105V57.2072C254.105 52.4674 254.787 49.0441 256.152 46.9136C257.971 44.1008 260.808 41.9463 264.71 40.498L267.534 44.2085C265.18 45.0224 263.445 46.2353 262.328 47.8472C261.211 49.4591 260.588 51.8011 260.461 54.8732H266.505Z" fill="#707070"/>
<path d="M249.879 54.5265V65.6101H237.467V56.8605C237.467 52.1207 238.161 48.6975 239.526 46.5669C241.333 43.7422 244.182 41.5997 248.084 40.1514L250.909 43.8619C248.547 44.6758 246.811 45.8887 245.702 47.5005C244.585 49.1044 243.963 51.4464 243.835 54.5265H249.879Z" fill="#6A6A6A"/>
<path d="M266.864 54.5265V65.6101H254.452V56.8605C254.452 52.1207 255.146 48.6975 256.511 46.5669C258.318 43.7422 261.155 41.5997 265.057 40.1514L267.894 43.8619C265.532 44.6758 263.796 45.8887 262.687 47.5005C261.57 49.1044 260.947 51.4464 260.82 54.5265H266.864Z" fill="#6A6A6A"/>
<path d="M250.239 54.1671V65.2627H237.827V56.5012C237.827 51.7613 238.521 48.3381 239.886 46.2075C241.693 43.3948 244.53 41.2403 248.432 39.792L251.256 43.5025C248.903 44.3164 247.167 45.5293 246.05 47.1412C244.941 48.753 244.322 51.095 244.195 54.1671H250.239Z" fill="#646464"/>
<path d="M267.211 54.1671V65.2627H254.811V56.5012C254.811 51.7613 255.505 48.3381 256.87 46.2075C258.677 43.3948 261.514 41.2403 265.416 39.792L268.241 43.5025C265.887 44.3164 264.151 45.5293 263.034 47.1412C261.925 48.753 261.303 51.095 261.167 54.1671H267.211Z" fill="#646464"/>
<path d="M250.586 53.8207V64.9043H238.174V56.1547C238.174 51.4149 238.868 47.9917 240.233 45.8611C242.052 43.0364 244.889 40.8939 248.791 39.4336L251.615 43.156C249.261 43.97 247.526 45.1789 246.409 46.7828C245.292 48.3946 244.669 50.7406 244.542 53.8207H250.586Z" fill="#5D5D5D"/>
<path d="M267.57 53.8207V64.9043H255.158V56.1547C255.158 51.4149 255.852 47.9917 257.217 45.8611C259.024 43.0364 261.873 40.8939 265.775 39.4336L268.6 43.156C266.238 43.97 264.502 45.1789 263.393 46.7828C262.276 48.3946 261.653 50.7406 261.526 53.8207H267.57Z" fill="#5D5D5D"/>
<path d="M250.945 53.4621V64.5457H238.533V55.7961C238.533 51.0562 239.227 47.633 240.592 45.5025C242.399 42.6777 245.236 40.5352 249.138 39.0869L251.975 42.7974C249.613 43.6113 247.873 44.8242 246.756 46.4361C245.647 48.0479 245.029 50.3899 244.901 53.4621H250.945Z" fill="#575757"/>
<path d="M267.93 53.4621V64.5457H255.518V55.7961C255.518 51.0562 256.212 47.633 257.576 45.5025C259.384 42.6777 262.22 40.5352 266.122 39.0869L268.947 42.7974C266.593 43.6113 264.858 44.8242 263.74 46.4361C262.631 48.0479 262.013 50.3899 261.885 53.4621H267.93Z" fill="#575757"/>
<path d="M251.292 53.1147V64.1983H238.88V55.4487C238.88 50.7088 239.574 47.2736 240.939 45.1551C242.758 42.3303 245.595 40.1878 249.497 38.7275L252.322 42.45C249.968 43.2639 248.232 44.4728 247.115 46.0767C245.998 47.6886 245.376 50.0346 245.248 53.1147H251.292Z" fill="#515151"/>
<path d="M268.277 53.1147V64.1983H255.864V55.4487C255.864 50.7088 256.559 47.2736 257.923 45.1551C259.731 42.3303 262.579 40.1878 266.481 38.7275L269.306 42.45C266.952 43.2639 265.216 44.4728 264.099 46.0767C262.982 47.6886 262.36 50.0346 262.232 53.1147H268.277Z" fill="#515151"/>
<path d="M251.652 52.756V63.8396H239.24V55.09C239.24 50.3502 239.934 46.927 241.298 44.7964C243.106 41.9717 245.942 39.8291 249.844 38.3809L252.681 42.0913C250.319 42.9053 248.584 44.1181 247.475 45.73C246.357 47.3339 245.735 49.6759 245.607 52.756H251.652Z" fill="#4B4B4B"/>
<path d="M268.636 52.756V63.8396H256.224V55.09C256.224 50.3502 256.918 46.927 258.283 44.7964C260.09 41.9717 262.927 39.8291 266.829 38.3809L269.665 42.0913C267.303 42.9053 265.564 44.1181 264.447 45.73C263.338 47.3339 262.719 49.6759 262.592 52.756H268.636Z" fill="#4B4B4B"/>
<path d="M251.998 52.3966V63.4922H239.598V54.7307C239.598 49.9908 240.292 46.5676 241.657 44.449C243.464 41.6243 246.301 39.4698 250.203 38.0215L253.028 41.7439C250.674 42.5499 248.938 43.7588 247.821 45.3706C246.704 46.9825 246.081 49.3245 245.954 52.3966H251.998Z" fill="#444444"/>
<path d="M268.983 52.3966V63.4922H256.571V54.7307C256.571 49.9908 257.265 46.5676 258.629 44.449C260.449 41.6243 263.285 39.4698 267.187 38.0215L270.012 41.7439C267.658 42.5499 265.923 43.7588 264.806 45.3706C263.688 46.9825 263.066 49.3245 262.938 52.3966H268.983Z" fill="#444444"/>
<path d="M252.357 52.049V63.1326H239.945V54.383C239.945 49.6432 240.639 46.2199 242.004 44.0894C243.811 41.2646 246.66 39.1221 250.562 37.6738L253.386 41.3843C251.025 42.1982 249.289 43.4111 248.18 45.023C247.063 46.6269 246.44 48.9689 246.313 52.049H252.357Z" fill="#3E3E3E"/>
<path d="M269.341 52.049V63.1326H256.929V54.383C256.929 49.6432 257.623 46.2199 258.988 44.0894C260.795 41.2646 263.632 39.1221 267.534 37.6738L270.371 41.3843C268.009 42.1982 266.273 43.4111 265.164 45.023C264.047 46.6269 263.425 48.9689 263.297 52.049H269.341Z" fill="#3E3E3E"/>
<path d="M252.705 51.6896V62.7852H240.304V54.0236C240.304 49.2838 240.999 45.8606 242.363 43.73C244.17 40.9172 247.007 38.7627 250.909 37.3145L253.734 41.0249C251.38 41.8389 249.644 43.0518 248.527 44.6636C247.418 46.2755 246.8 48.6175 246.672 51.6896H252.705Z" fill="#383838"/>
<path d="M269.689 51.6896V62.7852H257.289V54.0236C257.289 49.2838 257.972 45.8606 259.336 43.73C261.155 40.9172 263.992 38.7627 267.894 37.3145L270.719 41.0249C268.365 41.8389 266.629 43.0518 265.512 44.6636C264.395 46.2755 263.773 48.6175 263.645 51.6896H269.689Z" fill="#383838"/>
<path d="M253.063 51.3429V62.4265H240.651V53.6769C240.651 48.9371 241.346 45.5139 242.71 43.3833C244.517 40.5586 247.366 38.4161 251.268 36.9678L254.093 40.6783C251.731 41.4922 249.995 42.7011 248.886 44.305C247.769 45.9168 247.147 48.2628 247.019 51.3429H253.063Z" fill="#323232"/>
<path d="M270.048 51.3429V62.4265H257.636V53.6769C257.636 48.9371 258.33 45.5139 259.694 43.3833C261.502 40.5586 264.35 38.4161 268.24 36.9678L271.077 40.6783C268.715 41.4922 266.98 42.7011 265.87 44.305C264.753 45.9168 264.131 48.2628 264.003 51.3429H270.048Z" fill="#323232"/>
<path d="M253.423 50.9845V62.0681H241.011V53.3185C241.011 48.5787 241.705 45.1555 243.069 43.0249C244.877 40.2121 247.714 38.0577 251.616 36.6094L254.452 40.3199C252.09 41.1338 250.351 42.3467 249.234 43.9585C248.125 45.5704 247.506 47.9124 247.378 50.9845H253.423Z" fill="#2C2C2C"/>
<path d="M270.395 50.9845V62.0681H257.995V53.3185C257.995 48.5787 258.689 45.1555 260.054 43.0249C261.861 40.2121 264.698 38.0577 268.6 36.6094L271.425 40.3199C269.071 41.1338 267.335 42.3467 266.218 43.9585C265.109 45.5704 264.49 47.9124 264.363 50.9845H270.395Z" fill="#2C2C2C"/>
<path d="M253.77 50.6371V61.7207H241.358V52.9711C241.358 48.2313 242.052 44.7961 243.416 42.6775C245.236 39.8528 248.072 37.7103 251.974 36.25L254.799 39.9725C252.445 40.7864 250.71 41.9953 249.593 43.5992C248.475 45.211 247.853 47.557 247.725 50.6371H253.77Z" fill="#252525"/>
<path d="M270.754 50.6371V61.7207H258.342V52.9711C258.342 48.2313 259.036 44.7961 260.401 42.6775C262.208 39.8528 265.057 37.7103 268.959 36.25L271.783 39.9725C269.422 40.7864 267.686 41.9953 266.577 43.5992C265.46 45.211 264.837 47.557 264.71 50.6371H270.754Z" fill="#252525"/>
<path d="M254.129 50.2785V61.3621H241.717V52.6125C241.717 47.8726 242.411 44.4494 243.776 42.3189C245.583 39.4941 248.42 37.3516 252.322 35.9033L255.159 39.6138C252.797 40.4277 251.061 41.6406 249.952 43.2525C248.835 44.8564 248.212 47.1984 248.085 50.2785H254.129Z" fill="#1F1F1F"/>
<path d="M271.114 50.2785V61.3621H258.702V52.6125C258.702 47.8726 259.396 44.4494 260.761 42.3189C262.568 39.4941 265.405 37.3516 269.307 35.9033L272.132 39.6138C269.778 40.4277 268.042 41.6406 266.925 43.2525C265.816 44.8564 265.197 47.1984 265.07 50.2785H271.114Z" fill="#1F1F1F"/>
<path d="M254.476 49.9191V61.0147H242.076V52.2531C242.076 47.5252 242.758 44.09 244.123 41.9715C245.942 39.1467 248.779 37.0042 252.681 35.5439L255.505 39.2664C253.151 40.0803 251.416 41.2892 250.299 42.8931C249.182 44.505 248.559 46.847 248.432 49.9191H254.476Z" fill="#191919"/>
<path d="M271.46 49.9191V61.0147H259.048V52.2531C259.048 47.5252 259.742 44.09 261.107 41.9715C262.926 39.1467 265.763 37.0042 269.665 35.5439L272.489 39.2664C270.135 40.0803 268.4 41.2892 267.283 42.8931C266.166 44.505 265.543 46.847 265.415 49.9191H271.46Z" fill="#191919"/>
<path d="M254.835 49.5714V60.655H242.422V51.9055C242.422 47.1656 243.117 43.7424 244.481 41.6118C246.289 38.7871 249.137 36.6446 253.027 35.1963L255.864 38.9068C253.502 39.7207 251.766 40.9336 250.657 42.5455C249.54 44.1493 248.918 46.4913 248.79 49.5714H254.835Z" fill="#131313"/>
<path d="M271.82 49.5714V60.655H259.407V51.9055C259.407 47.1656 260.102 43.7424 261.466 41.6118C263.273 38.7871 266.11 36.6446 270.012 35.1963L272.849 38.9068C270.487 39.7207 268.751 40.9336 267.642 42.5455C266.525 44.1493 265.903 46.4913 265.775 49.5714H271.82Z" fill="#131313"/>
<path d="M255.182 49.2121V60.3076H242.782V51.5461C242.782 46.8062 243.476 43.383 244.841 41.2644C246.648 38.4397 249.485 36.2852 253.387 34.8369L256.211 38.5474C253.857 39.3613 252.122 40.5742 251.005 42.1861C249.896 43.7979 249.277 46.1399 249.15 49.2121H255.182Z" fill="#0C0C0C"/>
<path d="M272.167 49.2121V60.3076H259.767V51.5461C259.767 46.8062 260.449 43.383 261.814 41.2644C263.633 38.4397 266.47 36.2852 270.372 34.8369L273.196 38.5474C270.842 39.3613 269.107 40.5742 267.99 42.1861C266.873 43.7979 266.25 46.1399 266.122 49.2121H272.167Z" fill="#0C0C0C"/>
<path d="M255.541 48.8654V59.949H243.129V51.1994C243.129 46.4596 243.823 43.0363 245.188 40.9058C246.995 38.081 249.844 35.9385 253.746 34.4902L256.57 38.2007C254.209 39.0146 252.473 40.2275 251.364 41.8394C250.247 43.4433 249.624 45.7853 249.497 48.8654H255.541Z" fill="#060606"/>
<path d="M272.525 48.8654V59.949H260.113V51.1994C260.113 46.4596 260.807 43.0363 262.172 40.9058C263.979 38.081 266.816 35.9385 270.718 34.4902L273.555 38.2007C271.193 39.0146 269.457 40.2275 268.348 41.8394C267.231 43.4433 266.608 45.7853 266.481 48.8654H272.525Z" fill="#060606"/>
<path d="M255.9 48.506V59.6016H243.488V50.84C243.488 46.1002 244.175 42.669 245.547 40.5464C247.342 37.7217 250.191 35.5831 254.093 34.1309L256.918 37.8413C254.564 38.6553 252.828 39.8681 251.711 41.48C250.602 43.0919 249.984 45.4339 249.856 48.506H255.9Z" fill="black"/>
<path d="M272.873 48.506V59.6016H260.472V50.84C260.472 46.1002 261.159 42.669 262.531 40.5464C264.327 37.7217 267.175 35.5831 271.077 34.1309L273.902 37.8413C271.548 38.6553 269.813 39.8681 268.695 41.48C267.586 43.0919 266.964 45.4339 266.828 48.506H272.873Z" fill="black"/>
</g>
<path d="M255.9 48.507V59.6025H243.488V50.841C243.488 46.1012 244.174 42.6699 245.547 40.5474C247.342 37.7226 250.191 35.5841 254.093 34.1318L256.918 37.8423C254.564 38.6562 252.828 39.8691 251.711 41.481C250.602 43.0929 249.983 45.4349 249.856 48.507H255.9Z" fill="#74D1EA"/>
<path d="M272.872 48.507V59.6025H260.472V50.841C260.472 46.1012 261.158 42.6699 262.531 40.5474C264.326 37.7226 267.175 35.5841 271.077 34.1318L273.902 37.8423C271.548 38.6562 269.812 39.8691 268.695 41.481C267.586 43.0929 266.964 45.4349 266.828 48.507H272.872Z" fill="#74D1EA"/>
<g filter="url(#filter0_d_83_2935)">
<path d="M253.546 129.783C253.905 129.014 254.998 129.014 255.358 129.783L256.878 133.035C257.023 133.347 257.319 133.562 257.661 133.604L261.22 134.045C262.063 134.149 262.4 135.19 261.779 135.769L259.148 138.22C258.895 138.456 258.782 138.804 258.848 139.143L259.533 142.665C259.695 143.5 258.807 144.143 258.064 143.729L254.937 141.987C254.635 141.818 254.268 141.818 253.966 141.986L250.819 143.73C250.074 144.143 249.187 143.496 249.353 142.66L250.053 139.145C250.121 138.805 250.007 138.455 249.754 138.218L247.125 135.769C246.504 135.19 246.841 134.149 247.684 134.045L251.243 133.604C251.585 133.562 251.88 133.347 252.026 133.035L253.546 129.783Z" fill="url(#paint1_linear_83_2935)"/>
</g>
<g filter="url(#filter1_d_83_2935)">
<path d="M276.023 129.794C276.383 129.023 277.479 129.025 277.836 129.798L279.331 133.031C279.476 133.345 279.773 133.562 280.117 133.604L283.7 134.046C284.543 134.15 284.881 135.191 284.259 135.77L281.629 138.22C281.377 138.456 281.264 138.804 281.329 139.143L282.014 142.665C282.176 143.5 281.289 144.143 280.546 143.729L277.419 141.987C277.117 141.818 276.75 141.818 276.447 141.986L273.3 143.73C272.556 144.143 271.668 143.496 271.835 142.66L272.534 139.147C272.602 138.806 272.488 138.455 272.233 138.218L269.59 135.771C268.966 135.193 269.302 134.149 270.147 134.045L273.724 133.604C274.066 133.562 274.362 133.347 274.508 133.035L276.023 129.794Z" fill="url(#paint2_linear_83_2935)"/>
</g>
<g filter="url(#filter2_d_83_2935)">
<path d="M298.481 129.798C298.837 129.025 299.934 129.023 300.294 129.794L301.809 133.035C301.955 133.347 302.251 133.562 302.592 133.604L306.17 134.045C307.014 134.149 307.351 135.193 306.727 135.771L304.084 138.218C303.829 138.455 303.715 138.806 303.783 139.147L304.482 142.66C304.648 143.496 303.761 144.143 303.016 143.73L299.869 141.986C299.567 141.818 299.2 141.818 298.898 141.987L295.771 143.729C295.028 144.143 294.14 143.5 294.303 142.665L294.987 139.143C295.053 138.804 294.94 138.456 294.687 138.22L292.057 135.77C291.436 135.191 291.774 134.15 292.617 134.046L296.2 133.604C296.543 133.562 296.84 133.345 296.985 133.031L298.481 129.798Z" fill="url(#paint3_linear_83_2935)"/>
</g>
<g filter="url(#filter3_d_83_2935)">
<path d="M320.958 129.783C321.317 129.014 322.411 129.014 322.77 129.783L324.29 133.035C324.436 133.347 324.731 133.562 325.073 133.604L328.632 134.045C329.475 134.149 329.812 135.19 329.191 135.769L326.56 138.22C326.308 138.456 326.194 138.804 326.26 139.143L326.945 142.665C327.107 143.5 326.219 144.143 325.476 143.729L322.351 141.987C322.048 141.819 321.68 141.819 321.377 141.987L318.252 143.729C317.509 144.143 316.621 143.5 316.783 142.665L317.468 139.143C317.534 138.804 317.421 138.456 317.168 138.22L314.537 135.769C313.916 135.19 314.253 134.149 315.096 134.045L318.655 133.604C318.997 133.562 319.293 133.347 319.438 133.035L320.958 129.783Z" fill="url(#paint4_linear_83_2935)"/>
</g>
<g filter="url(#filter4_d_83_2935)">
<path d="M343.439 129.783C343.798 129.014 344.892 129.014 345.251 129.783L346.771 133.035C346.916 133.347 347.212 133.562 347.554 133.604L351.113 134.045C351.956 134.149 352.293 135.19 351.672 135.769L349.041 138.22C348.788 138.456 348.675 138.804 348.741 139.143L349.426 142.665C349.588 143.5 348.7 144.143 347.957 143.729L344.831 141.987C344.529 141.818 344.161 141.818 343.859 141.986L340.712 143.73C339.967 144.143 339.08 143.496 339.246 142.66L339.946 139.145C340.014 138.805 339.901 138.455 339.647 138.218L337.018 135.769C336.397 135.19 336.734 134.149 337.577 134.045L341.136 133.604C341.478 133.562 341.774 133.347 341.919 133.035L343.439 129.783Z" fill="url(#paint5_linear_83_2935)"/>
</g>
</g>
</g>
<defs>
<filter id="filter0_d_83_2935" x="236.805" y="123.207" width="35.293" height="34.6514" filterUnits="userSpaceOnUse" color-interpolation-filters="sRGB">
<feFlood flood-opacity="0" result="BackgroundImageFix"/>
<feColorMatrix in="SourceAlpha" type="matrix" values="0 0 0 0 0 0 0 0 0 0 0 0 0 0 0 0 0 0 127 0" result="hardAlpha"/>
<feOffset dy="4"/>
<feGaussianBlur stdDeviation="5"/>
<feComposite in2="hardAlpha" operator="out"/>
<feColorMatrix type="matrix" values="0 0 0 0 0 0 0 0 0 0 0 0 0 0 0 0 0 0 0.24 0"/>
<feBlend mode="normal" in2="BackgroundImageFix" result="effect1_dropShadow_83_2935"/>
<feBlend mode="normal" in="SourceGraphic" in2="effect1_dropShadow_83_2935" result="shape"/>
</filter>
<filter id="filter1_d_83_2935" x="259.268" y="123.217" width="35.3107" height="34.6416" filterUnits="userSpaceOnUse" color-interpolation-filters="sRGB">
<feFlood flood-opacity="0" result="BackgroundImageFix"/>
<feColorMatrix in="SourceAlpha" type="matrix" values="0 0 0 0 0 0 0 0 0 0 0 0 0 0 0 0 0 0 127 0" result="hardAlpha"/>
<feOffset dy="4"/>
<feGaussianBlur stdDeviation="5"/>
<feComposite in2="hardAlpha" operator="out"/>
<feColorMatrix type="matrix" values="0 0 0 0 0 0 0 0 0 0 0 0 0 0 0 0 0 0 0.24 0"/>
<feBlend mode="normal" in2="BackgroundImageFix" result="effect1_dropShadow_83_2935"/>
<feBlend mode="normal" in="SourceGraphic" in2="effect1_dropShadow_83_2935" result="shape"/>
</filter>
<filter id="filter2_d_83_2935" x="281.738" y="123.217" width="35.3107" height="34.6416" filterUnits="userSpaceOnUse" color-interpolation-filters="sRGB">
<feFlood flood-opacity="0" result="BackgroundImageFix"/>
<feColorMatrix in="SourceAlpha" type="matrix" values="0 0 0 0 0 0 0 0 0 0 0 0 0 0 0 0 0 0 127 0" result="hardAlpha"/>
<feOffset dy="4"/>
<feGaussianBlur stdDeviation="5"/>
<feComposite in2="hardAlpha" operator="out"/>
<feColorMatrix type="matrix" values="0 0 0 0 0 0 0 0 0 0 0 0 0 0 0 0 0 0 0.24 0"/>
<feBlend mode="normal" in2="BackgroundImageFix" result="effect1_dropShadow_83_2935"/>
<feBlend mode="normal" in="SourceGraphic" in2="effect1_dropShadow_83_2935" result="shape"/>
</filter>
<filter id="filter3_d_83_2935" x="304.218" y="123.207" width="35.293" height="34.6514" filterUnits="userSpaceOnUse" color-interpolation-filters="sRGB">
<feFlood flood-opacity="0" result="BackgroundImageFix"/>
<feColorMatrix in="SourceAlpha" type="matrix" values="0 0 0 0 0 0 0 0 0 0 0 0 0 0 0 0 0 0 127 0" result="hardAlpha"/>
<feOffset dy="4"/>
<feGaussianBlur stdDeviation="5"/>
<feComposite in2="hardAlpha" operator="out"/>
<feColorMatrix type="matrix" values="0 0 0 0 0 0 0 0 0 0 0 0 0 0 0 0 0 0 0.24 0"/>
<feBlend mode="normal" in2="BackgroundImageFix" result="effect1_dropShadow_83_2935"/>
<feBlend mode="normal" in="SourceGraphic" in2="effect1_dropShadow_83_2935" result="shape"/>
</filter>
<filter id="filter4_d_83_2935" x="326.698" y="123.207" width="35.293" height="34.6514" filterUnits="userSpaceOnUse" color-interpolation-filters="sRGB">
<feFlood flood-opacity="0" result="BackgroundImageFix"/>
<feColorMatrix in="SourceAlpha" type="matrix" values="0 0 0 0 0 0 0 0 0 0 0 0 0 0 0 0 0 0 127 0" result="hardAlpha"/>
<feOffset dy="4"/>
<feGaussianBlur stdDeviation="5"/>
<feComposite in2="hardAlpha" operator="out"/>
<feColorMatrix type="matrix" values="0 0 0 0 0 0 0 0 0 0 0 0 0 0 0 0 0 0 0.24 0"/>
<feBlend mode="normal" in2="BackgroundImageFix" result="effect1_dropShadow_83_2935"/>
<feBlend mode="normal" in="SourceGraphic" in2="effect1_dropShadow_83_2935" result="shape"/>
</filter>
<radialGradient id="paint0_radial_83_2935" cx="0" cy="0" r="1" gradientUnits="userSpaceOnUse" gradientTransform="translate(238.637 -168.283) rotate(70.1094) scale(459.488 459.488)">
<stop stop-color="#10626A"/>
<stop offset="1" stop-color="#0D192F"/>
</radialGradient>
<linearGradient id="paint1_linear_83_2935" x1="250.004" y1="128.984" x2="259.594" y2="133.27" gradientUnits="userSpaceOnUse">
<stop stop-color="#F9DDA1"/>
<stop offset="1" stop-color="#FEC62E"/>
</linearGradient>
<linearGradient id="paint2_linear_83_2935" x1="272.465" y1="128.984" x2="282.065" y2="133.282" gradientUnits="userSpaceOnUse">
<stop stop-color="#F9DDA1"/>
<stop offset="1" stop-color="#FEC62E"/>
</linearGradient>
<linearGradient id="paint3_linear_83_2935" x1="294.943" y1="128.984" x2="304.543" y2="133.282" gradientUnits="userSpaceOnUse">
<stop stop-color="#F9DDA1"/>
<stop offset="1" stop-color="#FEC62E"/>
</linearGradient>
<linearGradient id="paint4_linear_83_2935" x1="317.417" y1="128.984" x2="327.006" y2="133.27" gradientUnits="userSpaceOnUse">
<stop stop-color="#F9DDA1"/>
<stop offset="1" stop-color="#FEC62E"/>
</linearGradient>
<linearGradient id="paint5_linear_83_2935" x1="339.898" y1="128.984" x2="349.487" y2="133.27" gradientUnits="userSpaceOnUse">
<stop stop-color="#F9DDA1"/>
<stop offset="1" stop-color="#FEC62E"/>
</linearGradient>
<clipPath id="clip0_83_2935">
<rect width="600" height="219" fill="white"/>
</clipPath>
<clipPath id="clip1_83_2935">
<rect width="600" height="400" fill="white" transform="translate(0 -91)"/>
</clipPath>
</defs>
</svg>
