<svg width="600" height="219" viewBox="0 0 600 219" fill="none" xmlns="http://www.w3.org/2000/svg">
<g clip-path="url(#clip0_103_6817)">
<rect width="600" height="219" fill="#74D1EA"/>
<g clip-path="url(#clip1_103_6817)">
<path d="M0.404297 309H600.404V-91H0.404297V309Z" fill="url(#paint0_radial_103_6817)"/>
<g style="mix-blend-mode:overlay">
<g opacity="0.5">
<path d="M114.203 209.2C115.203 209.2 116.07 210.067 116.07 211.133C116.07 212.133 115.203 213 114.203 213C113.136 213 112.27 212.133 112.27 211.067C112.27 210.067 113.136 209.2 114.203 209.2Z" fill="#BCBEC0"/>
<path d="M45.0029 209.8C45.5363 208.867 46.7363 208.6 47.6029 209.067C48.5363 209.6 48.8029 210.8 48.2696 211.667C47.7363 212.6 46.6029 212.867 45.6696 212.333C44.8029 211.867 44.4696 210.667 45.0029 209.8Z" fill="#BCBEC0"/>
<path d="M94.3373 193.2C95.204 193.2 95.8706 193.867 95.8706 194.733C95.8706 195.6 95.204 196.267 94.3373 196.267C93.4706 196.267 92.7373 195.6 92.7373 194.733C92.7373 193.867 93.4706 193.2 94.3373 193.2Z" fill="#BCBEC0"/>
<path d="M37.3381 193.667C37.8048 192.867 38.7381 192.667 39.4715 193.067C40.2048 193.533 40.4715 194.467 40.0715 195.2C39.6048 195.933 38.6715 196.2 37.9381 195.733C37.2048 195.333 36.9381 194.4 37.3381 193.667Z" fill="#BCBEC0"/>
<path d="M148.404 111.067C148.937 111.067 149.337 111.533 149.337 112C149.337 112.533 148.937 112.933 148.404 112.933C147.871 112.933 147.471 112.533 147.471 112C147.471 111.467 147.871 111.067 148.404 111.067Z" fill="#BCBEC0"/>
<path d="M165.937 140.867C166.204 141.333 166.071 141.867 165.604 142.133C165.137 142.4 164.537 142.267 164.271 141.8C164.071 141.333 164.204 140.733 164.671 140.467C165.071 140.267 165.671 140.4 165.937 140.867Z" fill="#BCBEC0"/>
<path d="M148.937 170.933C148.671 171.333 148.071 171.533 147.604 171.267C147.137 171 147.004 170.4 147.271 169.933C147.537 169.533 148.137 169.333 148.537 169.6C149.004 169.867 149.204 170.467 148.937 170.933Z" fill="#BCBEC0"/>
<path d="M114.337 171.2C113.87 171.2 113.403 170.733 113.403 170.267C113.403 169.733 113.87 169.267 114.403 169.267C114.87 169.267 115.337 169.733 115.337 170.267C115.337 170.8 114.87 171.2 114.337 171.2Z" fill="#BCBEC0"/>
<path d="M96.8703 141.4C96.6036 140.933 96.737 140.4 97.2036 140.133C97.6703 139.867 98.2036 140 98.4703 140.467C98.737 140.933 98.6036 141.533 98.137 141.733C97.6703 142 97.137 141.867 96.8703 141.4Z" fill="#BCBEC0"/>
<path d="M113.87 111.333C114.137 110.933 114.737 110.733 115.204 111C115.604 111.267 115.804 111.867 115.537 112.333C115.27 112.733 114.67 112.933 114.204 112.667C113.737 112.4 113.604 111.8 113.87 111.333Z" fill="#BCBEC0"/>
<path d="M195.738 181.333C196.271 181.333 196.738 181.8 196.738 182.4C196.738 182.933 196.271 183.4 195.738 183.4C195.138 183.4 194.671 182.933 194.671 182.333C194.671 181.8 195.138 181.333 195.738 181.333Z" fill="#BCBEC0"/>
<path d="M214.871 213.867C215.137 214.4 215.004 215 214.471 215.333C214.004 215.6 213.337 215.4 213.071 214.933C212.804 214.4 213.004 213.8 213.471 213.533C213.937 213.2 214.604 213.4 214.871 213.867Z" fill="#BCBEC0"/>
<path d="M139.337 214.533C139.071 214 139.204 213.4 139.737 213.067C140.204 212.8 140.871 213 141.137 213.467C141.404 214 141.204 214.6 140.737 214.867C140.271 215.2 139.604 215 139.337 214.533Z" fill="#BCBEC0"/>
<path d="M157.937 181.667C158.27 181.133 158.87 181 159.337 181.267C159.87 181.533 160.004 182.2 159.737 182.667C159.47 183.2 158.804 183.333 158.337 183.067C157.804 182.733 157.67 182.133 157.937 181.667Z" fill="#BCBEC0"/>
<path d="M477.27 158C476.67 157 477.004 155.733 478.004 155.133C479.004 154.533 480.271 154.933 480.871 155.933C481.471 156.933 481.07 158.2 480.07 158.733C479.07 159.333 477.804 159 477.27 158Z" fill="#BCBEC0"/>
<path d="M514.737 91.8C515.337 90.8 516.604 90.4667 517.604 91.0667C518.604 91.6667 518.937 92.9333 518.337 93.9333C517.737 94.9333 516.471 95.2667 515.471 94.6667C514.471 94.0667 514.137 92.8 514.737 91.8Z" fill="#BCBEC0"/>
<path d="M590.738 91.2C591.938 91.2 592.804 92.1333 592.804 93.2667C592.804 94.4667 591.871 95.4 590.738 95.4C589.604 95.3333 588.671 94.4 588.671 93.2667C588.671 92.1333 589.604 91.2 590.738 91.2Z" fill="#BCBEC0"/>
<path d="M529.67 102.8C528.737 102.8 527.937 102 527.937 101C527.937 100.067 528.737 99.2667 529.737 99.2667C530.67 99.2667 531.47 100.067 531.47 101C531.47 102 530.67 102.8 529.67 102.8Z" fill="#BCBEC0"/>
<path d="M497.27 47.6C496.804 46.8 497.07 45.7333 497.937 45.2667C498.737 44.7333 499.804 45.0667 500.27 45.8667C500.804 46.7333 500.47 47.8 499.67 48.2667C498.804 48.7333 497.737 48.4667 497.27 47.6Z" fill="#BCBEC0"/>
<path d="M593.67 102.267C593.204 103.067 592.137 103.4 591.27 102.867C590.47 102.4 590.137 101.333 590.67 100.467C591.137 99.6667 592.204 99.4 593.07 99.8666C593.87 100.333 594.137 101.4 593.67 102.267Z" fill="#BCBEC0"/>
<path d="M516.604 82.8C515.737 82.8 515.004 82.0666 515.004 81.2C515.004 80.3333 515.737 79.6667 516.604 79.6667C517.471 79.6667 518.137 80.4 518.137 81.2C518.137 82.0666 517.404 82.8 516.604 82.8Z" fill="#BCBEC0"/>
<path d="M487.737 33.7333C487.27 33 487.537 32 488.27 31.6C489.07 31.2 490.004 31.4667 490.404 32.2C490.87 32.9333 490.604 33.8667 489.87 34.3333C489.07 34.7333 488.137 34.4667 487.737 33.7333Z" fill="#BCBEC0"/>
<path d="M601.537 32.8C601.937 33.5333 601.737 34.5333 600.937 34.9333C600.204 35.3333 599.271 35.0667 598.804 34.3333C598.404 33.6 598.671 32.6667 599.404 32.2C600.137 31.8 601.137 32.0667 601.537 32.8Z" fill="#BCBEC0"/>
<path d="M573.47 82.3333C573.07 83.0667 572.07 83.3333 571.337 82.8666C570.603 82.4666 570.337 81.4667 570.803 80.7333C571.203 80 572.203 79.7333 572.937 80.2C573.67 80.6 573.937 81.6 573.47 82.3333Z" fill="#BCBEC0"/>
<path d="M359.472 138C358.472 137.933 357.738 137.2 357.738 136.2C357.738 135.267 358.538 134.533 359.472 134.533C360.405 134.533 361.205 135.267 361.205 136.267C361.205 137.2 360.405 138 359.472 138Z" fill="#BCBEC0"/>
<path d="M327.337 83.4C326.871 82.6 327.204 81.5333 328.004 81.0667C328.871 80.6 329.871 80.8667 330.404 81.7333C330.871 82.5333 330.537 83.6 329.737 84.0667C328.871 84.5333 327.871 84.2667 327.337 83.4Z" fill="#BCBEC0"/>
<path d="M358.538 28.4C359.071 27.5333 360.071 27.2667 360.938 27.7333C361.738 28.2667 362.004 29.3333 361.538 30.1333C361.071 30.9333 360.004 31.2667 359.204 30.7333C358.338 30.2667 358.071 29.2 358.538 28.4Z" fill="#BCBEC0"/>
<path d="M421.804 27.8667C422.804 27.8667 423.537 28.6666 423.537 29.6C423.537 30.6 422.737 31.3333 421.804 31.3333C420.87 31.3333 420.07 30.5333 420.07 29.6C420.07 28.6666 420.87 27.8667 421.804 27.8667Z" fill="#BCBEC0"/>
<path d="M453.872 82.4C454.405 83.2667 454.071 84.2667 453.271 84.8C452.405 85.2667 451.338 84.9333 450.872 84.1333C450.405 83.2667 450.738 82.2667 451.538 81.7333C452.405 81.2667 453.405 81.6 453.872 82.4Z" fill="#BCBEC0"/>
<path d="M422.737 137.467C422.204 138.267 421.137 138.533 420.337 138.067C419.537 137.6 419.271 136.533 419.737 135.733C420.204 134.867 421.271 134.6 422.071 135.067C422.937 135.6 423.204 136.6 422.737 137.467Z" fill="#BCBEC0"/>
<path d="M333.804 144.067C333.07 142.867 333.537 141.267 334.804 140.533C336.07 139.8 337.604 140.267 338.337 141.533C339.07 142.733 338.604 144.333 337.404 145.067C336.137 145.8 334.537 145.333 333.804 144.067Z" fill="#BCBEC0"/>
<path d="M380.87 61.0667C381.604 59.8 383.204 59.4 384.404 60.1333C385.67 60.8667 386.07 62.4667 385.337 63.7333C384.604 64.9333 383.004 65.3333 381.804 64.6667C380.537 63.9333 380.137 62.3333 380.87 61.0667Z" fill="#BCBEC0"/>
<path d="M476.27 60.2666C477.737 60.3333 478.87 61.4666 478.87 62.9333C478.87 64.3333 477.67 65.5333 476.27 65.5333C474.803 65.5333 473.67 64.3333 473.67 62.8667C473.67 61.4667 474.87 60.2666 476.27 60.2666Z" fill="#BCBEC0"/>
<path d="M524.67 142.533C525.403 143.8 524.937 145.4 523.67 146.133C522.47 146.8 520.87 146.4 520.137 145.133C519.403 143.867 519.87 142.267 521.137 141.6C522.337 140.867 523.937 141.267 524.67 142.533Z" fill="#BCBEC0"/>
<path d="M270.804 213.133C270.471 213.133 270.138 212.8 270.138 212.467C270.204 212.133 270.471 211.867 270.804 211.867C271.138 211.867 271.404 212.133 271.404 212.467C271.404 212.867 271.138 213.133 270.804 213.133Z" fill="#BCBEC0"/>
<path d="M259.271 193.533C259.071 193.2 259.204 192.867 259.537 192.667C259.804 192.533 260.204 192.6 260.337 192.933C260.537 193.2 260.404 193.6 260.137 193.733C259.804 193.933 259.471 193.8 259.271 193.533Z" fill="#BCBEC0"/>
<path d="M270.47 173.8C270.67 173.467 271.004 173.4 271.337 173.533C271.604 173.733 271.737 174.067 271.537 174.4C271.337 174.667 271.004 174.8 270.67 174.6C270.404 174.467 270.27 174.067 270.47 173.8Z" fill="#BCBEC0"/>
<path d="M293.204 173.6C293.537 173.6 293.804 173.867 293.804 174.2C293.804 174.533 293.537 174.8 293.204 174.8C292.804 174.8 292.537 174.533 292.537 174.2C292.537 173.867 292.87 173.6 293.204 173.6Z" fill="#BCBEC0"/>
<path d="M304.671 193.133C304.871 193.467 304.738 193.867 304.471 194C304.138 194.2 303.804 194.067 303.604 193.8C303.471 193.467 303.538 193.067 303.871 192.933C304.138 192.733 304.538 192.867 304.671 193.133Z" fill="#BCBEC0"/>
<path d="M293.471 212.933C293.338 213.2 292.938 213.333 292.671 213.133C292.338 213 292.271 212.6 292.404 212.267C292.604 212 293.004 211.933 293.271 212.067C293.604 212.267 293.671 212.6 293.471 212.933Z" fill="#BCBEC0"/>
<path d="M287.205 170.533C286.871 170.533 286.604 170.267 286.604 169.933C286.604 169.6 286.871 169.333 287.205 169.333C287.538 169.333 287.805 169.6 287.805 169.933C287.805 170.267 287.538 170.533 287.205 170.533Z" fill="#BCBEC0"/>
<path d="M276.271 151.933C276.137 151.6 276.204 151.267 276.471 151.133C276.804 150.933 277.137 151.067 277.271 151.333C277.471 151.6 277.337 152 277.071 152.133C276.804 152.267 276.404 152.2 276.271 151.933Z" fill="#BCBEC0"/>
<path d="M286.937 133.133C287.07 132.867 287.47 132.733 287.737 132.933C288.004 133.067 288.07 133.467 287.937 133.733C287.804 134 287.404 134.067 287.137 133.933C286.87 133.8 286.737 133.4 286.937 133.133Z" fill="#BCBEC0"/>
<path d="M308.538 132.933C308.871 132.933 309.071 133.2 309.071 133.533C309.071 133.867 308.804 134.133 308.538 134.133C308.204 134.133 307.938 133.867 307.938 133.533C307.938 133.2 308.204 132.933 308.538 132.933Z" fill="#BCBEC0"/>
<path d="M319.471 151.533C319.604 151.867 319.537 152.2 319.271 152.4C318.937 152.533 318.604 152.467 318.404 152.133C318.271 151.867 318.404 151.533 318.671 151.333C318.937 151.2 319.271 151.267 319.471 151.533Z" fill="#BCBEC0"/>
<path d="M308.804 170.333C308.671 170.667 308.271 170.733 308.004 170.6C307.738 170.4 307.604 170.067 307.804 169.733C307.938 169.467 308.338 169.4 308.604 169.533C308.871 169.733 309.004 170.067 308.804 170.333Z" fill="#BCBEC0"/>
<path d="M179.871 194.533C179.404 195.267 179.671 196.2 180.404 196.667C181.137 197.067 182.071 196.8 182.471 196.067C182.871 195.333 182.671 194.4 181.937 194C181.204 193.6 180.271 193.8 179.871 194.533Z" fill="#BCBEC0"/>
<path d="M291.271 196.667C291.737 196 291.471 195.067 290.737 194.6C290.004 194.2 289.071 194.467 288.671 195.133C288.204 195.867 288.471 196.8 289.204 197.267C289.937 197.667 290.871 197.4 291.271 196.667Z" fill="#BCBEC0"/>
<path d="M264.338 147.933C263.938 147.2 263.004 146.933 262.271 147.333C261.538 147.733 261.271 148.667 261.671 149.4C262.138 150.133 263.071 150.4 263.804 150C264.538 149.6 264.738 148.667 264.338 147.933Z" fill="#BCBEC0"/>
<path d="M208.605 146.867C207.805 146.8 207.138 147.533 207.071 148.333C207.071 149.2 207.805 149.867 208.605 149.867C209.471 149.867 210.138 149.2 210.138 148.4C210.138 147.533 209.471 146.867 208.605 146.867Z" fill="#BCBEC0"/>
<path d="M6.60394 170.6C7.00394 170.6 7.40394 170.267 7.40394 169.8C7.40394 169.4 7.0706 169.067 6.60394 169.067C6.20394 169.067 5.8706 169.4 5.8706 169.8C5.80394 170.267 6.20394 170.6 6.60394 170.6Z" fill="#BCBEC0"/>
<path d="M21.2033 146.4C21.4033 146.067 21.27 145.6 20.9366 145.4C20.5366 145.133 20.07 145.267 19.87 145.667C19.67 146 19.7366 146.467 20.1366 146.733C20.47 146.933 21.0033 146.8 21.2033 146.4Z" fill="#BCBEC0"/>
<path d="M7.53668 121.733C7.33668 121.333 6.87001 121.2 6.47001 121.4C6.13668 121.6 6.00334 122.133 6.20334 122.467C6.40334 122.867 6.87001 123 7.27001 122.733C7.60334 122.533 7.73668 122.067 7.53668 121.733Z" fill="#BCBEC0"/>
<path d="M530.87 194C530.604 193.533 530.804 192.933 531.27 192.6C531.804 192.333 532.404 192.533 532.67 193C533.004 193.533 532.804 194.133 532.337 194.4C531.804 194.667 531.204 194.533 530.87 194Z" fill="#BCBEC0"/>
<path d="M549.537 161.133C549.803 160.667 550.47 160.533 550.937 160.8C551.403 161.067 551.603 161.733 551.337 162.2C551.003 162.733 550.403 162.867 549.87 162.6C549.403 162.267 549.203 161.667 549.537 161.133Z" fill="#BCBEC0"/>
<path d="M587.271 160.867C587.871 160.867 588.337 161.333 588.337 161.867C588.337 162.467 587.871 162.933 587.271 162.933C586.737 162.933 586.271 162.467 586.271 161.867C586.271 161.333 586.737 160.867 587.271 160.867Z" fill="#BCBEC0"/>
<path d="M303.137 162.533C302.603 162.533 302.137 162.067 302.137 161.467C302.137 160.933 302.603 160.467 303.203 160.467C303.737 160.467 304.203 160.933 304.203 161.467C304.203 162.067 303.737 162.533 303.137 162.533Z" fill="#BCBEC0"/>
<path d="M284.003 130C283.737 129.467 283.937 128.867 284.403 128.533C284.87 128.267 285.537 128.467 285.803 128.933C286.07 129.467 285.937 130.067 285.403 130.333C284.937 130.667 284.337 130.467 284.003 130Z" fill="#BCBEC0"/>
<path d="M302.603 97.1333C302.936 96.6 303.536 96.4666 304.07 96.7333C304.536 97.0666 304.67 97.6667 304.403 98.1333C304.136 98.6667 303.47 98.8 303.003 98.5333C302.536 98.2666 302.336 97.6 302.603 97.1333Z" fill="#BCBEC0"/>
<path d="M340.404 96.8C340.937 96.8 341.404 97.2666 341.404 97.8666C341.404 98.4 340.937 98.8666 340.404 98.8666C339.804 98.8666 339.337 98.4 339.337 97.8666C339.337 97.2666 339.804 96.8 340.404 96.8Z" fill="#BCBEC0"/>
<path d="M359.537 129.333C359.804 129.867 359.604 130.467 359.137 130.733C358.67 131.067 358.004 130.867 357.737 130.4C357.47 129.867 357.604 129.267 358.137 129C358.604 128.667 359.27 128.867 359.537 129.333Z" fill="#BCBEC0"/>
<path d="M340.937 162.2C340.604 162.667 340.004 162.867 339.47 162.6C339.004 162.267 338.87 161.667 339.137 161.133C339.404 160.667 340.07 160.533 340.537 160.8C341.004 161.067 341.204 161.733 340.937 162.2Z" fill="#BCBEC0"/>
</g>
<path d="M25.4043 178.333C27.671 178.4 29.471 180.2 29.4043 182.4C29.4043 184.6 27.6043 186.4 25.4043 186.4C23.2043 186.4 21.4043 184.6 21.4043 182.333C21.4043 180.133 23.2043 178.333 25.4043 178.333Z" fill="#BCBEC0"/>
<path d="M54.671 143.867C56.471 143.867 57.871 145.333 57.871 147.133C57.871 148.933 56.4043 150.333 54.6043 150.333C52.871 150.333 51.4043 148.867 51.4043 147.067C51.4043 145.333 52.871 143.867 54.671 143.867Z" fill="#BCBEC0"/>
<path d="M90.004 202.133C90.9373 203.8 90.3373 205.867 88.6706 206.867C87.0706 207.8 84.9373 207.2 84.004 205.533C83.0707 203.933 83.6707 201.8 85.2707 200.867C86.9373 199.933 89.0706 200.533 90.004 202.133Z" fill="#BCBEC0"/>
<path d="M89.0043 103.933C89.9376 103.933 90.6043 104.667 90.6043 105.6C90.6043 106.467 89.871 107.2 89.0043 107.2C88.071 107.2 87.4043 106.467 87.4043 105.533C87.4043 104.667 88.1376 103.933 89.0043 103.933Z" fill="#BCBEC0"/>
<path d="M110.937 140.733C111.404 141.533 111.07 142.533 110.337 142.933C109.537 143.4 108.537 143.133 108.07 142.333C107.604 141.533 107.87 140.533 108.67 140.067C109.47 139.667 110.47 139.933 110.937 140.733Z" fill="#BCBEC0"/>
<path d="M90.0702 178.133C89.6035 178.933 88.5369 179.2 87.7369 178.733C86.9369 178.267 86.6702 177.2 87.1369 176.4C87.6035 175.6 88.6702 175.333 89.4702 175.8C90.2702 176.267 90.5369 177.267 90.0702 178.133Z" fill="#BCBEC0"/>
<path d="M47.2042 178.333C46.4708 178.333 45.9375 177.733 45.9375 177C45.9375 176.267 46.5375 175.733 47.2042 175.733C47.9375 175.733 48.5375 176.333 48.5375 177C48.5375 177.733 47.9375 178.333 47.2042 178.333Z" fill="#BCBEC0"/>
<path d="M25.2706 141.867C24.804 141.067 25.0706 140.067 25.8706 139.6C26.7373 139.133 27.7373 139.4 28.204 140.2C28.6706 141.067 28.404 142.067 27.5373 142.533C26.7373 143 25.7373 142.733 25.2706 141.867Z" fill="#BCBEC0"/>
<path d="M45.8708 104.333C46.4708 103.333 47.6708 103 48.6708 103.6C49.6041 104.133 49.9374 105.4 49.4041 106.333C48.8041 107.333 47.5374 107.667 46.6041 107.067C45.6041 106.533 45.3374 105.267 45.8708 104.333Z" fill="#BCBEC0"/>
<path d="M145.738 147.8C146.138 147.8 146.538 148.2 146.538 148.6C146.538 149.067 146.138 149.4 145.671 149.4C145.271 149.4 144.871 149.067 144.871 148.6C144.871 148.2 145.271 147.8 145.738 147.8Z" fill="#BCBEC0"/>
<path d="M159.337 170.8C159.537 171.2 159.404 171.733 159.004 171.933C158.604 172.2 158.07 172.067 157.87 171.667C157.67 171.267 157.804 170.733 158.204 170.533C158.604 170.267 159.07 170.4 159.337 170.8Z" fill="#BCBEC0"/>
<path d="M146.204 194.133C146.004 194.6 145.404 194.733 145.004 194.467C144.604 194.2 144.404 193.667 144.67 193.267C144.937 192.8 145.47 192.667 145.87 192.933C146.337 193.2 146.47 193.733 146.204 194.133Z" fill="#BCBEC0"/>
<path d="M119.404 194.733C118.804 194.733 118.271 194.2 118.271 193.533C118.271 192.933 118.804 192.4 119.404 192.4C120.071 192.4 120.604 192.933 120.604 193.533C120.604 194.2 120.071 194.733 119.404 194.733Z" fill="#BCBEC0"/>
<path d="M105.804 171.333C105.537 170.933 105.671 170.4 106.137 170.2C106.537 169.933 107.071 170.133 107.271 170.533C107.537 170.933 107.404 171.467 106.937 171.667C106.537 171.933 106.004 171.8 105.804 171.333Z" fill="#BCBEC0"/>
<path d="M118.671 147.933C119.004 147.333 119.738 147.2 120.271 147.467C120.804 147.8 120.938 148.533 120.671 149.067C120.338 149.6 119.671 149.733 119.138 149.467C118.538 149.133 118.404 148.467 118.671 147.933Z" fill="#BCBEC0"/>
<path d="M132.138 110.067C132.738 110.067 133.138 110.467 133.138 111.067C133.138 111.6 132.671 112.067 132.138 112.067C131.604 112.067 131.138 111.6 131.138 111.067C131.138 110.467 131.604 110 132.138 110.067Z" fill="#BCBEC0"/>
<path d="M147.271 134.933C147.671 135.533 147.404 136.333 146.804 136.733C146.138 137.067 145.338 136.867 144.938 136.2C144.604 135.6 144.804 134.8 145.471 134.4C146.071 134.067 146.938 134.267 147.271 134.933Z" fill="#BCBEC0"/>
<path d="M132.871 160.533C132.538 161.067 131.871 161.2 131.271 160.933C130.738 160.6 130.538 159.867 130.871 159.333C131.204 158.8 131.938 158.6 132.471 158.933C133.004 159.267 133.204 159.933 132.871 160.533Z" fill="#BCBEC0"/>
<path d="M103.604 161.133C102.87 161.133 102.337 160.533 102.337 159.733C102.337 159 102.937 158.4 103.67 158.467C104.404 158.467 105.004 159.067 105.004 159.8C105.004 160.533 104.404 161.133 103.604 161.133Z" fill="#BCBEC0"/>
<path d="M88.5369 135.933C88.1369 135.267 88.4035 134.467 89.0035 134.067C89.6702 133.733 90.4702 133.933 90.8036 134.6C91.2036 135.2 90.9369 136.067 90.3369 136.4C89.6702 136.733 88.8702 136.533 88.5369 135.933Z" fill="#BCBEC0"/>
<path d="M102.604 110.133C103.004 109.4 103.937 109.133 104.671 109.6C105.404 110 105.671 110.933 105.204 111.667C104.804 112.4 103.871 112.6 103.137 112.2C102.404 111.733 102.204 110.867 102.604 110.133Z" fill="#BCBEC0"/>
<path d="M238.07 189.267C238.87 189.267 239.537 189.933 239.537 190.8C239.537 191.6 238.87 192.267 238.07 192.267C237.204 192.267 236.537 191.6 236.537 190.8C236.537 189.933 237.204 189.267 238.07 189.267Z" fill="#BCBEC0"/>
<path d="M190.137 189.267C190.804 188.133 192.337 187.733 193.47 188.4C194.67 189.067 195.07 190.6 194.337 191.733C193.67 192.933 192.204 193.333 191.004 192.667C189.87 191.933 189.47 190.467 190.137 189.267Z" fill="#BCBEC0"/>
<path d="M139.937 181.733C141.204 181.733 142.27 182.733 142.27 184.067C142.27 185.333 141.204 186.333 139.937 186.333C138.67 186.333 137.604 185.267 137.604 184C137.604 182.733 138.67 181.667 139.937 181.733Z" fill="#BCBEC0"/>
<path d="M91.8707 182.733C92.4707 181.733 93.7374 181.4 94.6707 182C95.6707 182.533 96.0041 183.8 95.4041 184.8C94.8707 185.8 93.6041 186.133 92.6041 185.533C91.6707 185 91.3374 183.733 91.8707 182.733Z" fill="#BCBEC0"/>
<path d="M166.737 200.267C167.204 200.267 167.671 200.733 167.671 201.267C167.671 201.733 167.204 202.2 166.671 202.2C166.137 202.2 165.737 201.733 165.737 201.2C165.737 200.667 166.204 200.267 166.737 200.267Z" fill="#BCBEC0"/>
<path d="M138.938 200.6C139.204 200.2 139.738 200.067 140.204 200.267C140.604 200.533 140.738 201.133 140.538 201.533C140.271 202 139.671 202.133 139.271 201.867C138.804 201.6 138.671 201.067 138.938 200.6Z" fill="#BCBEC0"/>
<path d="M455.071 177.067C453.937 177.067 453.004 176.2 453.004 175.067C453.004 173.933 453.937 173 455.071 173.067C456.204 173.067 457.071 173.933 457.071 175.067C457.071 176.2 456.137 177.133 455.071 177.067Z" fill="#BCBEC0"/>
<path d="M423.472 124.2C422.872 123.133 423.205 121.733 424.338 121.133C425.405 120.533 426.738 120.867 427.405 121.933C428.005 123.067 427.605 124.4 426.538 125.067C425.472 125.667 424.072 125.267 423.472 124.2Z" fill="#BCBEC0"/>
<path d="M453.004 69.8667C453.87 68.4667 455.737 67.9333 457.137 68.8C458.604 69.6667 459.137 71.5333 458.27 72.9333C457.404 74.4 455.537 74.9333 454.07 74.0667C452.67 73.2 452.137 71.3333 453.004 69.8667Z" fill="#BCBEC0"/>
<path d="M515.47 70C516.47 70 517.27 70.8 517.27 71.8C517.27 72.7333 516.403 73.5333 515.47 73.5333C514.47 73.5333 513.67 72.7333 513.67 71.7333C513.67 70.8 514.47 70 515.47 70Z" fill="#BCBEC0"/>
<path d="M547.47 122.4C548.204 123.733 547.737 125.333 546.404 126.133C545.137 126.867 543.471 126.4 542.737 125.067C542.004 123.8 542.471 122.133 543.737 121.4C545.071 120.667 546.737 121.133 547.47 122.4Z" fill="#BCBEC0"/>
<path d="M517.204 176.733C516.47 178 514.804 178.467 513.537 177.667C512.27 176.933 511.87 175.333 512.604 174.067C513.337 172.8 514.937 172.333 516.204 173.067C517.47 173.867 517.937 175.467 517.204 176.733Z" fill="#BCBEC0"/>
<path d="M556.404 193.867C555.671 193.867 555.138 193.267 555.138 192.6C555.138 191.867 555.738 191.333 556.404 191.333C557.138 191.333 557.671 191.867 557.671 192.6C557.671 193.333 557.138 193.867 556.404 193.867Z" fill="#BCBEC0"/>
<path d="M536.204 161C535.67 160.067 536.004 158.933 536.937 158.4C537.87 157.867 539.004 158.2 539.537 159.133C540.07 160.067 539.804 161.2 538.87 161.733C537.937 162.267 536.737 161.933 536.204 161Z" fill="#BCBEC0"/>
<path d="M555.405 126.933C555.871 126.2 556.805 125.933 557.538 126.4C558.338 126.867 558.538 127.8 558.138 128.533C557.671 129.267 556.738 129.533 556.005 129.067C555.271 128.667 555.005 127.733 555.405 126.933Z" fill="#BCBEC0"/>
<path d="M594.204 126.733C594.871 126.733 595.471 127.267 595.471 127.933C595.471 128.667 594.871 129.2 594.204 129.2C593.537 129.2 593.004 128.6 593.004 127.933C593.004 127.267 593.537 126.733 594.204 126.733Z" fill="#BCBEC0"/>
<path d="M594.937 193.4C594.604 194 593.804 194.2 593.204 193.867C592.604 193.533 592.404 192.733 592.804 192.2C593.137 191.6 593.87 191.4 594.47 191.733C595.07 192.067 595.27 192.867 594.937 193.4Z" fill="#BCBEC0"/>
<path d="M596.803 106.533C596.137 105.333 596.537 103.8 597.803 103.067C599.003 102.4 600.537 102.8 601.27 104.067C601.937 105.267 601.537 106.8 600.27 107.533C599.07 108.2 597.537 107.8 596.803 106.533Z" fill="#BCBEC0"/>
<path d="M560.804 74.9333C559.737 74.9333 558.938 74.1333 558.938 73.0667C558.938 72.0667 559.804 71.2 560.804 71.2C561.871 71.2 562.671 72.0667 562.671 73.0667C562.671 74.1333 561.804 74.9333 560.804 74.9333Z" fill="#BCBEC0"/>
<path d="M541.671 43.2C541.138 42.3333 541.471 41.2 542.338 40.6667C543.204 40.2 544.338 40.4667 544.871 41.4C545.404 42.2667 545.071 43.4 544.204 43.9333C543.271 44.4 542.138 44.1333 541.671 43.2Z" fill="#BCBEC0"/>
<path d="M560.004 11.0667C560.404 10.4667 561.204 10.2667 561.804 10.6C562.404 10.9333 562.604 11.7333 562.271 12.4C561.871 13 561.138 13.2 560.471 12.8C559.871 12.4667 559.671 11.6667 560.004 11.0667Z" fill="#BCBEC0"/>
<path d="M596.603 10.0667C597.603 10.0667 598.47 10.8667 598.47 11.9333C598.47 12.9333 597.603 13.8 596.537 13.8C595.537 13.8 594.67 12.9333 594.67 11.9333C594.737 10.8667 595.537 10 596.603 10.0667Z" fill="#BCBEC0"/>
<path d="M597.871 74.2667C597.337 75.1333 596.204 75.4667 595.271 74.9333C594.337 74.4 594.071 73.2 594.604 72.3333C595.137 71.4 596.271 71.0667 597.204 71.6C598.137 72.1333 598.404 73.3333 597.871 74.2667Z" fill="#BCBEC0"/>
<path d="M551.87 42.5333C551.404 42.5333 551.07 42.2 551.07 41.8C551.07 41.4 551.47 41.0667 551.87 41.0667C552.27 41.0667 552.604 41.4 552.604 41.8C552.604 42.2667 552.27 42.6 551.87 42.5333Z" fill="#BCBEC0"/>
<path d="M538.204 20.4C537.87 19.8 538.07 19 538.67 18.6667C539.27 18.3333 540.004 18.5333 540.337 19.1333C540.67 19.7333 540.47 20.5333 539.87 20.8667C539.27 21.2 538.537 21 538.204 20.4Z" fill="#BCBEC0"/>
<path d="M590.937 19.5333C591.204 20 591.07 20.6667 590.537 20.9333C590.07 21.2 589.47 21.0667 589.137 20.5333C588.87 20.0667 589.07 19.4 589.537 19.1333C590.004 18.8667 590.67 19.0667 590.937 19.5333Z" fill="#BCBEC0"/>
<path d="M578.204 42.5333C577.87 43.0667 577.204 43.2 576.67 42.9333C576.137 42.6 575.937 41.9333 576.27 41.4C576.604 40.8667 577.27 40.6667 577.804 41C578.337 41.3333 578.537 42 578.204 42.5333Z" fill="#BCBEC0"/>
<path d="M506.338 196.133C506.805 195.333 507.805 195.067 508.605 195.533C509.338 196 509.605 197 509.205 197.733C508.738 198.533 507.738 198.8 506.938 198.333C506.205 197.867 505.938 196.867 506.338 196.133Z" fill="#BCBEC0"/>
<path d="M546.87 195.467C547.87 195.467 548.603 196.2 548.603 197.133C548.603 198.067 547.803 198.867 546.87 198.867C545.936 198.867 545.203 198.067 545.203 197.133C545.203 196.2 545.936 195.467 546.87 195.467Z" fill="#BCBEC0"/>
<path d="M481.537 210.133C481.737 209.733 482.204 209.667 482.604 209.867C482.937 210.067 483.071 210.533 482.871 210.867C482.671 211.267 482.204 211.4 481.804 211.133C481.471 210.933 481.337 210.467 481.537 210.133Z" fill="#BCBEC0"/>
<path d="M504.404 209.667C504.937 209.733 505.337 210.133 505.337 210.667C505.337 211.133 504.937 211.533 504.404 211.533C503.937 211.533 503.471 211.133 503.471 210.6C503.471 210.133 503.937 209.667 504.404 209.667Z" fill="#BCBEC0"/>
<path d="M381.67 111.467C380.537 111.467 379.67 110.533 379.67 109.4C379.67 108.333 380.603 107.4 381.737 107.4C382.803 107.4 383.737 108.333 383.737 109.467C383.737 110.6 382.803 111.467 381.67 111.467Z" fill="#BCBEC0"/>
<path d="M359.604 75.2C359.004 74.1333 359.404 72.7333 360.471 72.1333C361.537 71.5333 362.871 71.9333 363.471 73C364.071 74.0667 363.737 75.4 362.671 76C361.604 76.6 360.204 76.2667 359.604 75.2Z" fill="#BCBEC0"/>
<path d="M380.671 38.1333C381.138 37.3333 382.138 37.0666 382.938 37.5333C383.671 38 383.938 39 383.538 39.8C383.071 40.5333 382.071 40.8 381.271 40.3333C380.471 39.9333 380.204 38.9333 380.671 38.1333Z" fill="#BCBEC0"/>
<path d="M422.803 37.6C423.67 37.6 424.403 38.3333 424.403 39.2C424.336 40.0667 423.67 40.8 422.803 40.7333C421.87 40.7333 421.203 40.0667 421.203 39.2C421.203 38.2667 421.936 37.6 422.803 37.6Z" fill="#BCBEC0"/>
<path d="M444.204 73.8C444.604 74.5333 444.337 75.4 443.67 75.8C442.937 76.2 442.07 75.9333 441.67 75.2667C441.27 74.5333 441.537 73.6667 442.204 73.2667C442.937 72.8667 443.804 73.1333 444.204 73.8Z" fill="#BCBEC0"/>
<path d="M423.671 110.4C423.271 111.067 422.337 111.333 421.671 110.933C421.004 110.533 420.737 109.6 421.137 108.933C421.537 108.267 422.404 108 423.137 108.4C423.804 108.8 424.071 109.733 423.671 110.4Z" fill="#BCBEC0"/>
<path d="M397.404 211.933C396.137 211.933 395.07 210.867 395.07 209.533C395.07 208.267 396.137 207.2 397.47 207.2C398.737 207.2 399.804 208.267 399.804 209.6C399.804 210.867 398.737 211.933 397.404 211.933Z" fill="#BCBEC0"/>
<path d="M359.471 150.867C358.404 149 359.071 146.667 360.938 145.6C362.804 144.533 365.204 145.133 366.271 147C367.338 148.867 366.671 151.267 364.804 152.333C362.938 153.4 360.538 152.733 359.471 150.867Z" fill="#BCBEC0"/>
<path d="M395.204 87C396.138 85.4 398.204 84.8667 399.804 85.8C401.404 86.7333 402.004 88.8 401.004 90.4C400.071 92.0667 398.004 92.6 396.404 91.6667C394.804 90.6667 394.271 88.6 395.204 87Z" fill="#BCBEC0"/>
<path d="M467.87 86C469.603 86 471.003 87.4 471.003 89.1333C471.003 90.8667 469.603 92.2 467.87 92.2C466.136 92.2 464.736 90.8 464.803 89.0667C464.803 87.4 466.203 86 467.87 86Z" fill="#BCBEC0"/>
<path d="M505.403 148.067C506.336 149.667 505.736 151.733 504.136 152.667C502.47 153.6 500.403 153.067 499.47 151.4C498.536 149.8 499.136 147.733 500.736 146.8C502.403 145.867 504.47 146.4 505.403 148.067Z" fill="#BCBEC0"/>
<path d="M469.205 211.133C468.605 212.267 467.138 212.667 466.005 212C464.938 211.333 464.538 209.867 465.205 208.8C465.805 207.667 467.271 207.267 468.405 207.933C469.538 208.6 469.871 210 469.205 211.133Z" fill="#BCBEC0"/>
<path d="M392.537 217.267C392.004 217.267 391.604 216.8 391.604 216.333C391.604 215.8 392.004 215.4 392.537 215.4C393.07 215.4 393.47 215.8 393.47 216.333C393.47 216.8 393.004 217.267 392.537 217.267Z" fill="#BCBEC0"/>
<path d="M376.137 190.867C375.737 190.067 376.004 189.067 376.737 188.667C377.537 188.2 378.537 188.467 379.004 189.267C379.404 190.067 379.137 191.067 378.404 191.467C377.604 191.933 376.604 191.667 376.137 190.867Z" fill="#BCBEC0"/>
<path d="M391.738 163.333C392.071 162.733 392.871 162.533 393.471 162.933C394.071 163.267 394.271 164 393.938 164.6C393.538 165.2 392.804 165.4 392.204 165.067C391.604 164.733 391.404 163.933 391.738 163.333Z" fill="#BCBEC0"/>
<path d="M423.004 162.6C423.871 162.6 424.604 163.333 424.604 164.2C424.604 165 423.871 165.733 423.004 165.733C422.137 165.733 421.471 165 421.471 164.133C421.471 163.267 422.204 162.6 423.004 162.6Z" fill="#BCBEC0"/>
<path d="M439.138 189.733C439.538 190.4 439.272 191.2 438.672 191.533C438.005 191.933 437.205 191.733 436.805 191.067C436.471 190.4 436.672 189.6 437.338 189.267C437.938 188.867 438.805 189.067 439.138 189.733Z" fill="#BCBEC0"/>
<path d="M423.538 216.933C423.271 217.333 422.671 217.533 422.271 217.267C421.871 217 421.671 216.467 421.938 216C422.204 215.6 422.738 215.467 423.205 215.667C423.605 215.933 423.738 216.467 423.538 216.933Z" fill="#BCBEC0"/>
<path d="M324.004 213.533C323.604 213.533 323.337 213.2 323.337 212.8C323.337 212.467 323.67 212.133 324.004 212.133C324.404 212.133 324.67 212.467 324.67 212.8C324.67 213.2 324.404 213.533 324.004 213.533Z" fill="#BCBEC0"/>
<path d="M312.671 194.8C312.471 194.333 312.604 193.8 313.004 193.533C313.471 193.333 314.004 193.467 314.271 193.867C314.471 194.333 314.338 194.867 313.938 195.133C313.471 195.333 312.938 195.2 312.671 194.8Z" fill="#BCBEC0"/>
<path d="M323.204 175.4C323.537 174.8 324.271 174.667 324.804 174.933C325.337 175.267 325.537 176 325.204 176.533C324.871 177.133 324.204 177.267 323.604 177C323.071 176.667 322.871 175.933 323.204 175.4Z" fill="#BCBEC0"/>
<path d="M345.537 175.133C346.07 175.133 346.47 175.533 346.47 176.067C346.47 176.667 346.07 177.067 345.47 177.067C344.937 177.067 344.537 176.6 344.537 176.067C344.537 175.533 344.937 175.133 345.537 175.133Z" fill="#BCBEC0"/>
<path d="M356.87 194.133C357.07 194.533 356.937 195.133 356.47 195.4C356.07 195.667 355.47 195.467 355.203 195.067C355.003 194.6 355.137 194 355.603 193.8C356.003 193.533 356.603 193.667 356.87 194.133Z" fill="#BCBEC0"/>
<path d="M345.871 213.267C345.671 213.6 345.271 213.733 344.937 213.533C344.604 213.333 344.538 212.933 344.738 212.6C344.871 212.267 345.337 212.2 345.604 212.333C345.937 212.533 346.071 213 345.871 213.267Z" fill="#BCBEC0"/>
<path d="M278.871 206.733C278.404 206.733 278.004 206.333 278.004 205.867C278.004 205.4 278.404 205 278.871 205C279.337 205 279.737 205.4 279.737 205.867C279.737 206.333 279.337 206.733 278.871 206.733Z" fill="#BCBEC0"/>
<path d="M270.604 192.4C270.47 192.133 270.537 191.867 270.804 191.733C271.07 191.6 271.337 191.667 271.47 191.933C271.604 192.133 271.537 192.467 271.27 192.6C271.07 192.733 270.737 192.667 270.604 192.4Z" fill="#BCBEC0"/>
<path d="M278.47 178.2C278.67 177.867 279.07 177.8 279.337 177.933C279.67 178.133 279.737 178.533 279.604 178.867C279.404 179.133 279.004 179.267 278.67 179.067C278.404 178.867 278.27 178.467 278.47 178.2Z" fill="#BCBEC0"/>
<path d="M294.804 178.067C295.137 178.067 295.337 178.333 295.337 178.6C295.337 178.933 295.137 179.133 294.804 179.133C294.537 179.133 294.271 178.867 294.271 178.6C294.271 178.333 294.537 178.067 294.804 178.067Z" fill="#BCBEC0"/>
<path d="M303.137 192.067C303.27 192.333 303.204 192.667 302.937 192.8C302.67 193 302.27 192.867 302.137 192.6C302.004 192.333 302.07 192 302.337 191.8C302.604 191.667 303.004 191.733 303.137 192.067Z" fill="#BCBEC0"/>
<path d="M295.137 206.267C295.004 206.533 294.67 206.6 294.404 206.467C294.137 206.267 294.004 205.933 294.204 205.667C294.337 205.4 294.67 205.333 294.937 205.467C295.204 205.667 295.337 206 295.137 206.267Z" fill="#BCBEC0"/>
<path d="M286.27 167.867C285.937 167.867 285.604 167.533 285.604 167.2C285.604 166.8 285.937 166.533 286.27 166.533C286.67 166.533 286.937 166.8 286.937 167.2C286.937 167.533 286.67 167.867 286.27 167.867Z" fill="#BCBEC0"/>
<path d="M274.337 148.533C274.071 148 274.271 147.333 274.804 147C275.337 146.667 276.004 146.867 276.271 147.4C276.604 147.933 276.404 148.6 275.871 148.933C275.337 149.2 274.671 149.067 274.337 148.533Z" fill="#BCBEC0"/>
<path d="M285.471 128.267C285.804 127.667 286.537 127.467 287.137 127.8C287.671 128.133 287.871 128.867 287.537 129.467C287.204 130.067 286.471 130.267 285.871 129.933C285.337 129.533 285.137 128.8 285.471 128.267Z" fill="#BCBEC0"/>
<path d="M308.604 128.2C309.071 128.2 309.404 128.533 309.404 129C309.404 129.4 309.071 129.8 308.604 129.8C308.204 129.733 307.871 129.4 307.871 129C307.871 128.533 308.204 128.2 308.604 128.2Z" fill="#BCBEC0"/>
<path d="M320.204 147.867C320.337 148.2 320.271 148.6 319.937 148.8C319.604 149 319.204 148.867 319.004 148.533C318.804 148.2 318.937 147.8 319.271 147.6C319.604 147.467 320.004 147.533 320.204 147.867Z" fill="#BCBEC0"/>
<path d="M309.271 167.8C309.004 168.267 308.404 168.467 307.937 168.2C307.471 167.867 307.271 167.267 307.537 166.8C307.804 166.333 308.471 166.2 308.937 166.467C309.404 166.733 309.537 167.333 309.271 167.8Z" fill="#BCBEC0"/>
<path d="M218.271 163.133C218.004 163.533 218.137 164 218.537 164.2C218.871 164.4 219.404 164.333 219.604 163.933C219.804 163.533 219.671 163.067 219.337 162.867C218.937 162.667 218.471 162.8 218.271 163.133Z" fill="#BCBEC0"/>
<path d="M228.07 181.533C228.337 181.933 228.937 182.133 229.337 181.867C229.804 181.6 229.937 181 229.737 180.6C229.47 180.133 228.87 180 228.47 180.267C228.004 180.467 227.87 181.067 228.07 181.533Z" fill="#BCBEC0"/>
<path d="M249.07 182.133C249.604 182.133 250.07 181.733 250.07 181.133C250.07 180.6 249.604 180.133 249.07 180.133C248.47 180.133 248.07 180.6 248.07 181.133C248.07 181.733 248.47 182.133 249.07 182.133Z" fill="#BCBEC0"/>
<path d="M260.004 164.267C260.271 163.8 260.138 163.2 259.671 162.933C259.271 162.667 258.671 162.867 258.404 163.267C258.138 163.733 258.271 164.333 258.738 164.6C259.204 164.867 259.738 164.667 260.004 164.267Z" fill="#BCBEC0"/>
<path d="M249.738 146C249.604 145.667 249.204 145.6 248.938 145.733C248.671 145.933 248.604 146.267 248.738 146.533C248.871 146.867 249.271 146.933 249.538 146.8C249.804 146.6 249.938 146.267 249.738 146Z" fill="#BCBEC0"/>
<path d="M229.071 145.067C228.537 145.067 228.004 145.533 228.004 146.133C228.004 146.733 228.471 147.2 229.071 147.2C229.671 147.2 230.204 146.733 230.204 146.133C230.204 145.533 229.671 145.067 229.071 145.067Z" fill="#BCBEC0"/>
<path d="M562.872 200C562.538 199.4 562.738 198.667 563.338 198.333C563.872 198 564.605 198.2 564.938 198.8C565.271 199.4 565.071 200.133 564.471 200.4C563.938 200.733 563.205 200.533 562.872 200Z" fill="#BCBEC0"/>
<path d="M576.537 176.267C576.737 175.933 577.204 175.8 577.604 176C577.937 176.2 578.071 176.667 577.871 177.067C577.671 177.4 577.204 177.533 576.804 177.333C576.471 177.067 576.337 176.667 576.537 176.267Z" fill="#BCBEC0"/>
<path d="M163.738 185.067C163.404 185.667 163.604 186.4 164.204 186.8C164.804 187.133 165.604 186.933 165.938 186.333C166.271 185.733 166.071 184.933 165.471 184.6C164.871 184.267 164.138 184.467 163.738 185.067Z" fill="#BCBEC0"/>
<path d="M177.204 210.133C177.538 210.8 178.404 211.067 179.071 210.667C179.738 210.267 180.004 209.4 179.604 208.733C179.204 208.067 178.338 207.8 177.671 208.2C177.004 208.6 176.804 209.467 177.204 210.133Z" fill="#BCBEC0"/>
<path d="M205.737 210.8C206.404 210.8 206.937 210.267 206.937 209.6C206.937 208.933 206.404 208.4 205.737 208.4C205.07 208.4 204.537 208.933 204.537 209.6C204.537 210.267 205.07 210.8 205.737 210.8Z" fill="#BCBEC0"/>
<path d="M220.404 186.467C220.671 186 220.538 185.4 220.071 185.133C219.538 184.8 218.938 185 218.671 185.467C218.404 185.933 218.538 186.6 219.004 186.867C219.538 187.133 220.138 187 220.404 186.467Z" fill="#BCBEC0"/>
<path d="M206.737 161.8C206.471 161.4 206.004 161.267 205.604 161.533C205.204 161.733 205.071 162.267 205.271 162.667C205.471 163.067 206.004 163.2 206.404 162.933C206.804 162.733 206.937 162.2 206.737 161.8Z" fill="#BCBEC0"/>
<path d="M178.671 161.267C178.204 161.267 177.871 161.667 177.871 162.067C177.871 162.533 178.204 162.867 178.671 162.867C179.071 162.867 179.471 162.533 179.471 162.067C179.471 161.667 179.071 161.267 178.671 161.267Z" fill="#BCBEC0"/>
<path d="M335.67 169.533C334.804 169.533 334.07 168.8 334.07 167.933C334.07 167.067 334.804 166.4 335.67 166.4C336.537 166.4 337.204 167.133 337.204 168C337.204 168.867 336.537 169.533 335.67 169.533Z" fill="#BCBEC0"/>
<path d="M316.004 136.267C315.671 135.6 315.871 134.8 316.537 134.4C317.204 134.067 318.004 134.267 318.404 134.933C318.737 135.6 318.537 136.4 317.871 136.8C317.204 137.133 316.404 136.933 316.004 136.267Z" fill="#BCBEC0"/>
<path d="M334.804 102.733C335.204 102.067 336.071 101.867 336.737 102.267C337.404 102.667 337.604 103.467 337.204 104.133C336.804 104.8 336.004 105.067 335.337 104.667C334.604 104.267 334.404 103.4 334.804 102.733Z" fill="#BCBEC0"/>
<path d="M373.271 101.933C374.271 101.933 375.004 102.733 375.004 103.667C375.004 104.667 374.204 105.4 373.271 105.4C372.271 105.4 371.471 104.6 371.471 103.667C371.537 102.667 372.271 101.867 373.271 101.933Z" fill="#BCBEC0"/>
<path d="M392.603 135.533C392.937 136 392.737 136.667 392.203 136.933C391.737 137.2 391.07 137.067 390.803 136.533C390.537 136.067 390.67 135.4 391.203 135.133C391.67 134.8 392.337 135 392.603 135.533Z" fill="#BCBEC0"/>
<path d="M374.005 168.8C373.672 169.467 372.872 169.667 372.272 169.267C371.605 168.933 371.405 168.133 371.805 167.533C372.138 166.933 372.938 166.733 373.538 167.067C374.138 167.4 374.405 168.2 374.005 168.8Z" fill="#BCBEC0"/>
<path d="M301.604 156.533C300.804 156.533 300.138 155.867 300.138 155.067C300.138 154.267 300.804 153.6 301.604 153.6C302.404 153.6 303.071 154.267 303.071 155.067C303.071 155.867 302.404 156.533 301.604 156.533Z" fill="#BCBEC0"/>
<path d="M287.271 132.733C286.937 132.067 287.137 131.2 287.804 130.867C288.404 130.467 289.271 130.733 289.604 131.333C290.004 132 289.737 132.867 289.137 133.2C288.471 133.6 287.671 133.333 287.271 132.733Z" fill="#BCBEC0"/>
<path d="M300.604 108.4C301.004 107.733 301.871 107.467 302.604 107.867C303.271 108.267 303.471 109.2 303.071 109.867C302.671 110.533 301.804 110.8 301.137 110.4C300.404 110 300.204 109.067 300.604 108.4Z" fill="#BCBEC0"/>
<path d="M328.404 107.867C329.138 107.867 329.804 108.533 329.804 109.267C329.804 110.067 329.138 110.733 328.338 110.733C327.604 110.667 326.938 110.067 326.938 109.267C326.938 108.467 327.604 107.867 328.404 107.867Z" fill="#BCBEC0"/>
<path d="M342.205 131.933C342.405 132.333 342.271 132.8 341.938 133C341.538 133.267 341.005 133.133 340.805 132.733C340.605 132.333 340.738 131.867 341.138 131.6C341.471 131.4 342.005 131.533 342.205 131.933Z" fill="#BCBEC0"/>
<path d="M329.271 155.933C328.871 156.533 328.071 156.733 327.471 156.4C326.804 156 326.604 155.2 326.938 154.533C327.338 153.933 328.138 153.733 328.804 154.067C329.404 154.467 329.671 155.267 329.271 155.933Z" fill="#BCBEC0"/>
<path d="M533.471 169.4C532.404 169.4 531.471 168.467 531.471 167.4C531.537 166.267 532.404 165.4 533.537 165.4C534.604 165.4 535.471 166.333 535.471 167.4C535.471 168.533 534.604 169.4 533.471 169.4Z" fill="#BCBEC0"/>
<path d="M509.337 129.867C508.671 128.733 509.07 127.267 510.204 126.6C511.404 125.933 512.87 126.333 513.537 127.467C514.137 128.6 513.737 130.067 512.604 130.733C511.47 131.4 510.004 131 509.337 129.867Z" fill="#BCBEC0"/>
<path d="M532.404 89.2667C532.87 88.4 534.004 88.1333 534.804 88.6667C535.67 89.1333 536.004 90.2667 535.47 91.0667C535.004 91.9333 533.87 92.2 533.004 91.7333C532.204 91.2 531.87 90.1333 532.404 89.2667Z" fill="#BCBEC0"/>
<path d="M578.538 88.8667C579.404 88.8667 580.071 89.5333 580.071 90.4667C580.071 91.3333 579.404 92 578.471 92C577.604 92 576.938 91.3333 576.938 90.4C576.938 89.5333 577.671 88.8667 578.538 88.8667Z" fill="#BCBEC0"/>
<path d="M602.205 128.2C602.738 129.133 602.405 130.267 601.538 130.8C600.605 131.333 599.471 131 598.938 130.067C598.405 129.2 598.738 128.067 599.671 127.533C600.538 127 601.738 127.333 602.205 128.2Z" fill="#BCBEC0"/>
<path d="M579.47 168.467C579.004 169.2 578.004 169.467 577.27 169C576.537 168.6 576.27 167.6 576.737 166.867C577.137 166.067 578.137 165.8 578.87 166.267C579.67 166.733 579.87 167.667 579.47 168.467Z" fill="#BCBEC0"/>
<path d="M476.538 84.4667C475.071 84.4667 473.938 83.2667 473.938 81.8667C473.938 80.4 475.137 79.2667 476.604 79.2667C478.004 79.2667 479.204 80.4667 479.137 81.8667C479.137 83.3333 478.004 84.4667 476.538 84.4667Z" fill="#BCBEC0"/>
<path d="M447.338 35.7333C446.671 34.4667 447.071 33 448.271 32.2666C449.471 31.6 451.004 32 451.738 33.2C452.404 34.4 452.004 35.9333 450.804 36.6667C449.604 37.3333 448.071 36.9333 447.338 35.7333Z" fill="#BCBEC0"/>
<path d="M560.737 33.9333C561.337 35 560.937 36.4667 559.804 37.1333C558.737 37.7333 557.271 37.3333 556.604 36.2C556.004 35.1333 556.404 33.6667 557.537 33C558.604 32.4 560.071 32.8 560.737 33.9333Z" fill="#BCBEC0"/>
<path d="M532.538 83C532.071 83.8 531.071 84.0667 530.271 83.6C529.471 83.1333 529.204 82.1333 529.671 81.3333C530.138 80.5333 531.138 80.2667 531.938 80.7333C532.738 81.2 533.004 82.2 532.538 83Z" fill="#BCBEC0"/>
<g opacity="0.6">
<path d="M89.0035 106.133L47.6035 105.867V104.8L89.0035 105V106.133Z" fill="#D1D3D4"/>
<path d="M109.004 141.8L88.5371 105.867L89.4704 105.333L110.004 141.267L109.004 141.8Z" fill="#D1D3D4"/>
<path d="M89.07 177.533L88.1367 177L109.003 141.267L109.937 141.8L89.07 177.533Z" fill="#D1D3D4"/>
<path d="M88.6041 177.8L47.2041 177.533V176.467L88.6041 176.733V177.8Z" fill="#D1D3D4"/>
<path d="M46.7372 177.267L26.2705 141.333L27.2038 140.8L47.6705 176.733L46.7372 177.267Z" fill="#D1D3D4"/>
<path d="M27.2038 141.333L26.2705 140.8L47.1372 105.067L48.0705 105.6L27.2038 141.333Z" fill="#D1D3D4"/>
<path d="M132.137 111.4L103.937 111.267V110.533L132.137 110.667V111.4Z" fill="#D1D3D4"/>
<path d="M145.804 135.733L131.804 111.2L132.47 110.867L146.47 135.4L145.804 135.733Z" fill="#D1D3D4"/>
<path d="M132.204 160.133L131.537 159.733L145.804 135.4L146.47 135.733L132.204 160.133Z" fill="#D1D3D4"/>
<path d="M131.87 160.333L103.67 160.133V159.4L131.87 159.533V160.333Z" fill="#D1D3D4"/>
<path d="M103.337 159.933L89.3369 135.4L90.0036 135.067L103.937 159.6L103.337 159.933Z" fill="#D1D3D4"/>
<path d="M90.0036 135.467L89.3369 135.067L103.604 110.667L104.27 111.067L90.0036 135.467Z" fill="#D1D3D4"/>
<path d="M166.671 201.6L139.737 201.467V200.733L166.671 200.867V201.6Z" fill="#D1D3D4"/>
<path d="M179.737 224.867L166.403 201.4L167.003 201.067L180.337 224.467L179.737 224.867Z" fill="#D1D3D4"/>
<path d="M126.404 224.533L125.804 224.2L139.404 200.933L140.004 201.267L126.404 224.533Z" fill="#D1D3D4"/>
</g>
<g opacity="0.8">
<path d="M25.4036 183.533L-64.9297 183.067V180.667L25.4036 181.2V183.533Z" fill="#BCBEC0"/>
<path d="M69.071 261.467L24.4043 182.933L26.471 181.8L71.1376 260.267L69.071 261.467Z" fill="#BCBEC0"/>
<path d="M54.6702 147.933L-10.6631 147.6V145.867L54.6702 146.267V147.933Z" fill="#BCBEC0"/>
<path d="M86.2699 204.267L53.9365 147.533L55.4032 146.667L87.7365 203.4L86.2699 204.267Z" fill="#BCBEC0"/>
<path d="M54.7372 260.667L53.2705 259.8L86.2705 203.4L87.7372 204.267L54.7372 260.667Z" fill="#BCBEC0"/>
<path d="M238.071 191.4L192.271 191.133V189.933L238.071 190.2V191.4Z" fill="#BCBEC0"/>
<path d="M260.204 230.867L237.537 191.067L238.604 190.467L261.27 230.267L260.204 230.867Z" fill="#BCBEC0"/>
<path d="M169.67 230.333L168.604 229.733L191.737 190.2L192.804 190.8L169.67 230.333Z" fill="#BCBEC0"/>
<path d="M139.938 184.667L93.6709 184.4V183.133L139.938 183.4V184.667Z" fill="#BCBEC0"/>
<path d="M162.338 224.533L139.404 184.333L140.471 183.733L163.404 223.933L162.338 224.533Z" fill="#BCBEC0"/>
<path d="M70.804 224L69.7373 223.4L93.1373 183.467L94.204 184.067L70.804 224Z" fill="#BCBEC0"/>
</g>
<g opacity="0.3">
<path d="M145.671 148.933L119.671 148.8V148.133L145.738 148.267L145.671 148.933Z" fill="#BCBEC0"/>
<path d="M158.271 171.4L145.404 148.8L146.004 148.467L158.871 171.067L158.271 171.4Z" fill="#BCBEC0"/>
<path d="M145.737 193.867L145.137 193.533L158.27 171.067L158.87 171.4L145.737 193.867Z" fill="#BCBEC0"/>
<path d="M145.471 194.067L119.404 193.867V193.2L145.471 193.333V194.067Z" fill="#BCBEC0"/>
<path d="M119.137 193.733L106.271 171.133L106.804 170.8L119.737 193.4L119.137 193.733Z" fill="#BCBEC0"/>
<path d="M106.804 171.133L106.271 170.8L119.404 148.333L120.004 148.667L106.804 171.133Z" fill="#BCBEC0"/>
<path d="M165.405 186L164.338 185.4L178.138 161.8L179.205 162.4L165.405 186Z" fill="#BCBEC0"/>
<path d="M177.871 209.733L164.338 186L165.405 185.4L178.938 209.133L177.871 209.733Z" fill="#BCBEC0"/>
<path d="M205.738 210.2L178.404 210.067V208.8L205.738 209V210.2Z" fill="#BCBEC0"/>
<path d="M206.271 209.867L205.204 209.267L219.004 185.667L220.071 186.267L206.271 209.867Z" fill="#BCBEC0"/>
<path d="M219.005 186.267L205.472 162.533L206.538 161.933L220.072 185.667L219.005 186.267Z" fill="#BCBEC0"/>
<path d="M206.004 162.867L178.671 162.667V161.467L206.004 161.6V162.867Z" fill="#BCBEC0"/>
</g>
<g opacity="0.6">
<path d="M593.87 193.267L556.403 193.067V192.067L593.87 192.333V193.267Z" fill="#D1D3D4"/>
<path d="M556.003 192.867L537.47 160.333L538.336 159.8L556.87 192.333L556.003 192.867Z" fill="#D1D3D4"/>
<path d="M538.27 160.333L537.47 159.8L556.336 127.467L557.203 128L538.27 160.333Z" fill="#D1D3D4"/>
<path d="M594.203 128.467L556.803 128.267V127.267L594.203 127.467V128.467Z" fill="#D1D3D4"/>
<path d="M612.336 160.733L593.803 128.2L594.669 127.733L613.203 160.267L612.336 160.733Z" fill="#D1D3D4"/>
<path d="M594.27 193.067L593.403 192.533L612.337 160.2L613.203 160.733L594.27 193.067Z" fill="#D1D3D4"/>
<path d="M596.204 73.7333L560.804 73.5333V72.6L596.204 72.8V73.7333Z" fill="#D1D3D4"/>
<path d="M560.403 73.3333L542.87 42.5333L543.67 42.0667L561.203 72.8667L560.403 73.3333Z" fill="#D1D3D4"/>
<path d="M543.67 42.5333L542.87 42.0667L560.737 11.4667L561.537 11.9333L543.67 42.5333Z" fill="#D1D3D4"/>
<path d="M596.603 12.4L561.137 12.2V11.2667L596.603 11.4667V12.4Z" fill="#D1D3D4"/>
<path d="M613.736 42.9333L596.203 12.1333L597.003 11.6667L614.536 42.4667L613.736 42.9333Z" fill="#D1D3D4"/>
<path d="M596.604 73.5333L595.804 73.0667L613.737 42.4667L614.537 42.9333L596.604 73.5333Z" fill="#D1D3D4"/>
<path d="M488.47 230.933L487.604 230.467L507.337 196.667L508.204 197.2L488.47 230.933Z" fill="#D1D3D4"/>
<path d="M546.871 197.667L507.737 197.467L507.804 196.4L546.871 196.6V197.667Z" fill="#D1D3D4"/>
<path d="M565.803 231.4L546.47 197.4L547.336 196.867L566.736 230.867L565.803 231.4Z" fill="#D1D3D4"/>
<path d="M422.403 110.2L381.67 110V108.933L422.403 109.133V110.2Z" fill="#D1D3D4"/>
<path d="M381.204 109.733L361.07 74.3333L362.004 73.8L382.137 109.2L381.204 109.733Z" fill="#D1D3D4"/>
<path d="M362.004 74.3333L361.07 73.8L381.604 38.6667L382.537 39.2L362.004 74.3333Z" fill="#D1D3D4"/>
<path d="M422.804 39.7333L382.07 39.4667V38.4L422.804 38.6667V39.7333Z" fill="#D1D3D4"/>
<path d="M442.47 74.8L422.337 39.4667L423.27 38.9333L443.404 74.2667L442.47 74.8Z" fill="#D1D3D4"/>
<path d="M422.87 109.933L421.937 109.4L442.47 74.2667L443.403 74.8L422.87 109.933Z" fill="#D1D3D4"/>
<path d="M372.87 168.8L335.67 168.6V167.4L372.87 167.6V168.8Z" fill="#D1D3D4"/>
<path d="M335.137 168.267L316.67 135.933L317.737 135.333L336.203 167.667L335.137 168.267Z" fill="#D1D3D4"/>
<path d="M317.737 135.933L316.67 135.333L335.47 103.133L336.537 103.733L317.737 135.933Z" fill="#D1D3D4"/>
<path d="M373.27 104.267L336.003 104.067V102.867L373.27 103.067V104.267Z" fill="#D1D3D4"/>
<path d="M391.203 136.333L372.736 103.933L373.803 103.4L392.203 135.733L391.203 136.333Z" fill="#D1D3D4"/>
<path d="M373.403 168.467L372.403 167.867L391.203 135.733L392.203 136.333L373.403 168.467Z" fill="#D1D3D4"/>
</g>
<g opacity="0.3">
<path d="M577.203 42.2667L551.87 42.1333V41.4667L577.27 41.6L577.203 42.2667Z" fill="#BCBEC0"/>
<path d="M551.537 42L539.004 19.9333L539.604 19.6L552.137 41.6667L551.537 42Z" fill="#BCBEC0"/>
<path d="M539.604 19.9333L539.004 19.6L551.804 -2.33333L552.404 -1.99999L539.604 19.9333Z" fill="#BCBEC0"/>
<path d="M589.737 20.2L577.204 -1.86666L577.804 -2.2L590.337 19.8667L589.737 20.2Z" fill="#BCBEC0"/>
<path d="M577.538 42.1333L576.938 41.8L589.738 19.8667L590.338 20.2L577.538 42.1333Z" fill="#BCBEC0"/>
<path d="M471.204 229.867L470.737 229.533L481.937 210.333L482.471 210.667L471.204 229.867Z" fill="#BCBEC0"/>
<path d="M504.404 210.933L482.204 210.8V210.2L504.404 210.333V210.933Z" fill="#BCBEC0"/>
<path d="M515.204 230.067L504.204 210.8L504.671 210.467L515.671 229.8L515.204 230.067Z" fill="#BCBEC0"/>
<path d="M422.737 217L392.537 216.867V215.8L422.737 215.933V217Z" fill="#BCBEC0"/>
<path d="M392.07 216.6L377.137 190.333L378.003 189.8L393.003 216.067L392.07 216.6Z" fill="#BCBEC0"/>
<path d="M378.003 190.333L377.137 189.8L392.337 163.733L393.27 164.267L378.003 190.333Z" fill="#BCBEC0"/>
<path d="M423.004 164.667L392.804 164.533V163.467L423.004 163.6V164.667Z" fill="#BCBEC0"/>
<path d="M437.537 190.667L422.537 164.4L423.47 163.867L438.47 190.133L437.537 190.667Z" fill="#BCBEC0"/>
<path d="M423.204 216.733L422.271 216.2L437.537 190.133L438.47 190.667L423.204 216.733Z" fill="#BCBEC0"/>
<path d="M345.27 213.333L324.003 213.2V212.467L345.27 212.6V213.333Z" fill="#BCBEC0"/>
<path d="M323.67 213L313.137 194.533L313.803 194.133L324.337 212.667L323.67 213Z" fill="#BCBEC0"/>
<path d="M313.803 194.533L313.137 194.133L323.87 175.8L324.537 176.133L313.803 194.533Z" fill="#BCBEC0"/>
<path d="M345.47 176.467L324.203 176.333V175.6L345.47 175.733V176.467Z" fill="#BCBEC0"/>
<path d="M355.736 194.733L345.203 176.267L345.803 175.933L356.336 194.4L355.736 194.733Z" fill="#BCBEC0"/>
<path d="M345.603 213.133L344.937 212.733L355.737 194.4L356.337 194.8L345.603 213.133Z" fill="#BCBEC0"/>
<path d="M294.67 206.267L278.87 206.133V205.6L294.67 205.667V206.267Z" fill="#BCBEC0"/>
<path d="M278.604 206L270.804 192.267L271.27 192L279.137 205.733L278.604 206Z" fill="#BCBEC0"/>
<path d="M271.27 192.267L270.804 192L278.804 178.4L279.27 178.667L271.27 192.267Z" fill="#BCBEC0"/>
<path d="M294.804 178.867L279.004 178.8V178.267L294.804 178.333V178.867Z" fill="#BCBEC0"/>
<path d="M302.404 192.467L294.604 178.733L295.07 178.467L302.87 192.2L302.404 192.467Z" fill="#BCBEC0"/>
<path d="M294.937 206.133L294.403 205.8L302.403 192.2L302.87 192.467L294.937 206.133Z" fill="#BCBEC0"/>
<path d="M308.404 167.667L286.271 167.533V166.867L308.404 167V167.667Z" fill="#BCBEC0"/>
<path d="M286.004 167.333L275.004 148.133L275.604 147.8L286.604 167L286.004 167.333Z" fill="#BCBEC0"/>
<path d="M275.604 148.133L275.004 147.8L286.204 128.667L286.804 129L275.604 148.133Z" fill="#BCBEC0"/>
<path d="M308.604 129.333L286.471 129.2V128.533L308.604 128.667V129.333Z" fill="#BCBEC0"/>
<path d="M319.27 148.4L308.337 129.133L308.937 128.8L319.87 148.067L319.27 148.4Z" fill="#BCBEC0"/>
<path d="M308.738 167.467L308.138 167.133L319.271 148.067L319.871 148.4L308.738 167.467Z" fill="#BCBEC0"/>
<path d="M219.27 163.733L218.604 163.333L228.804 145.933L229.404 146.333L219.27 163.733Z" fill="#BCBEC0"/>
<path d="M228.604 181.2L218.604 163.733L219.27 163.333L229.204 180.867L228.604 181.2Z" fill="#BCBEC0"/>
<path d="M249.07 181.533L228.87 181.4V180.667L249.07 180.8V181.533Z" fill="#BCBEC0"/>
<path d="M249.337 181.333L248.737 181L258.871 163.6L259.537 163.933L249.337 181.333Z" fill="#BCBEC0"/>
<path d="M258.87 163.933L248.937 146.467L249.537 146.067L259.537 163.6L258.87 163.933Z" fill="#BCBEC0"/>
<path d="M249.27 146.667L229.07 146.533V145.8L249.27 145.867V146.667Z" fill="#BCBEC0"/>
<path d="M576.67 222.467L563.604 199.533L564.204 199.2L577.27 222.067L576.67 222.467Z" fill="#BCBEC0"/>
<path d="M564.204 199.533L563.604 199.2L576.87 176.467L577.47 176.8L564.204 199.533Z" fill="#BCBEC0"/>
<path d="M603.536 177.133L577.203 177V176.333L603.536 176.467V177.133Z" fill="#BCBEC0"/>
<path d="M328.137 155.6L301.604 155.4V154.733L328.137 154.867V155.6Z" fill="#BCBEC0"/>
<path d="M301.27 155.267L288.137 132.2L288.737 131.867L301.87 154.933L301.27 155.267Z" fill="#BCBEC0"/>
<path d="M288.737 132.2L288.137 131.867L301.537 108.933L302.137 109.333L288.737 132.2Z" fill="#BCBEC0"/>
<path d="M328.403 109.6L301.87 109.467V108.8L328.403 108.933V109.6Z" fill="#BCBEC0"/>
<path d="M341.204 132.533L328.07 109.467L328.67 109.133L341.804 132.133L341.204 132.533Z" fill="#BCBEC0"/>
<path d="M328.404 155.4L327.804 155.067L341.204 132.133L341.804 132.533L328.404 155.4Z" fill="#BCBEC0"/>
</g>
<g opacity="0.8">
<path d="M514.87 176.2L455.07 175.867V174.267L514.87 174.6V176.2Z" fill="#BCBEC0"/>
<path d="M454.337 175.467L424.737 123.467L426.137 122.667L455.737 174.667L454.337 175.467Z" fill="#BCBEC0"/>
<path d="M426.071 123.467L424.737 122.667L454.937 71L456.337 71.8L426.071 123.467Z" fill="#BCBEC0"/>
<path d="M515.47 72.5333L455.604 72.2V70.6667L515.47 71V72.5333Z" fill="#BCBEC0"/>
<path d="M544.404 124.133L514.804 72.1333L516.137 71.4L545.804 123.333L544.404 124.133Z" fill="#BCBEC0"/>
<path d="M515.537 175.8L514.204 175L544.404 123.333L545.804 124.133L515.537 175.8Z" fill="#BCBEC0"/>
<path d="M627.737 157.267L598.337 105.667L599.737 104.933L629.137 156.533L627.737 157.267Z" fill="#BCBEC0"/>
<path d="M599.737 105.667L598.337 104.933L628.337 53.6667L629.67 54.4L599.737 105.667Z" fill="#BCBEC0"/>
<path d="M467.203 210.867L397.403 210.467L397.47 208.667L467.203 209.067V210.867Z" fill="#BCBEC0"/>
<path d="M396.604 210L362.07 149.4L363.67 148.467L398.204 209.133L396.604 210Z" fill="#BCBEC0"/>
<path d="M363.67 149.4L362.07 148.467L397.337 88.2667L398.87 89.2L363.67 149.4Z" fill="#BCBEC0"/>
<path d="M467.87 90L398.07 89.6667L398.137 87.8L467.87 88.2V90Z" fill="#BCBEC0"/>
<path d="M501.604 150.2L467.07 89.5333L468.67 88.6667L503.204 149.267L501.604 150.2Z" fill="#BCBEC0"/>
<path d="M468.003 210.4L466.403 209.467L501.67 149.267L503.203 150.2L468.003 210.4Z" fill="#BCBEC0"/>
<path d="M578.07 168.267L533.47 168V166.8L578.07 167.067V168.267Z" fill="#BCBEC0"/>
<path d="M533.003 167.667L510.937 128.933L511.937 128.4L534.003 167.133L533.003 167.667Z" fill="#BCBEC0"/>
<path d="M511.937 128.933L510.937 128.4L533.403 89.8667L534.403 90.4667L511.937 128.933Z" fill="#BCBEC0"/>
<path d="M578.537 91L533.937 90.8V89.6L578.537 89.8667V91Z" fill="#BCBEC0"/>
<path d="M600.07 129.467L578.003 90.7333L579.003 90.1333L601.07 128.867L600.07 129.467Z" fill="#BCBEC0"/>
<path d="M578.604 167.933L577.604 167.333L600.07 128.867L601.07 129.467L578.604 167.933Z" fill="#BCBEC0"/>
<path d="M531.136 82.8667L476.536 82.6V81.1333L531.136 81.4667V82.8667Z" fill="#BCBEC0"/>
<path d="M475.937 82.2L448.937 34.8L450.137 34.1333L477.203 81.5333L475.937 82.2Z" fill="#BCBEC0"/>
<path d="M450.137 34.8L448.937 34.0667L476.47 -13L477.737 -12.2667L450.137 34.8Z" fill="#BCBEC0"/>
<path d="M558.07 35.4L531.003 -12L532.27 -12.6667L559.27 34.7333L558.07 35.4Z" fill="#BCBEC0"/>
<path d="M531.736 82.5333L530.47 81.8L558.07 34.7334L559.27 35.4L531.736 82.5333Z" fill="#BCBEC0"/>
</g>
<path d="M564.805 155.267C563.672 154.733 563.205 153.467 563.672 152.4C564.138 151.267 565.405 150.8 566.538 151.267C567.605 151.733 568.138 153 567.605 154.133C567.138 155.2 565.872 155.733 564.805 155.267Z" fill="#BCBEC0"/>
<path d="M525.471 102.667C525.271 101.333 526.271 100.067 527.671 99.8666C529.071 99.7333 530.337 100.733 530.471 102.133C530.604 103.533 529.604 104.733 528.271 104.933C526.871 105.067 525.604 104.067 525.471 102.667Z" fill="#BCBEC0"/>
<path d="M580.271 72.9333C580.938 72.4667 581.938 72.6 582.405 73.2667C582.938 74 582.805 74.9333 582.071 75.4667C581.405 75.9333 580.471 75.8 579.938 75.1333C579.405 74.4667 579.605 73.4667 580.271 72.9333Z" fill="#BCBEC0"/>
<path d="M323.471 177.867C322.338 177.333 321.805 176 322.338 174.867C322.805 173.733 324.138 173.267 325.271 173.733C326.405 174.2 326.938 175.533 326.405 176.667C325.938 177.8 324.605 178.333 323.471 177.867Z" fill="#BCBEC0"/>
<path d="M294.204 159.4C294.071 157.8 295.204 156.4 296.737 156.267C298.271 156.067 299.737 157.2 299.871 158.733C300.071 160.333 298.937 161.733 297.404 161.867C295.804 162.067 294.404 160.933 294.204 159.4Z" fill="#BCBEC0"/>
<path d="M349.804 112.267C350.671 111.667 351.937 111.867 352.537 112.733C353.204 113.6 353.004 114.867 352.137 115.467C351.271 116.133 350.004 115.933 349.337 115.067C348.737 114.2 348.871 112.933 349.804 112.267Z" fill="#BCBEC0"/>
<path d="M375.005 176.8C376.205 177.333 376.805 178.8 376.271 180.067C375.738 181.333 374.271 181.867 373.005 181.333C371.738 180.8 371.138 179.333 371.738 178.067C372.271 176.8 373.738 176.267 375.005 176.8Z" fill="#BCBEC0"/>
<path d="M398.604 178.867C398.737 180 397.937 181.067 396.804 181.2C395.671 181.333 394.604 180.533 394.471 179.333C394.337 178.2 395.204 177.2 396.337 177.067C397.471 176.933 398.471 177.733 398.604 178.867Z" fill="#BCBEC0"/>
<path d="M384.672 218.4C383.872 219 382.739 218.8 382.139 218C381.539 217.2 381.672 216 382.472 215.4C383.339 214.8 384.472 215 385.072 215.8C385.672 216.6 385.472 217.8 384.672 218.4Z" fill="#BCBEC0"/>
<path d="M455.87 109.867C455.603 107.733 457.137 105.867 459.27 105.6C461.403 105.333 463.27 106.867 463.537 109C463.737 111.133 462.27 113 460.137 113.267C458.003 113.467 456.137 112 455.87 109.867Z" fill="#BCBEC0"/>
<path d="M495.005 164.933C495.871 164.333 496.005 163.2 495.405 162.333C494.805 161.533 493.605 161.333 492.805 161.933C492.005 162.533 491.805 163.733 492.405 164.533C493.005 165.4 494.205 165.6 495.005 164.933Z" fill="#BCBEC0"/>
<path d="M529.071 129.2C529.004 128.733 528.538 128.4 528.071 128.4C527.538 128.467 527.204 128.933 527.271 129.4C527.338 129.933 527.738 130.267 528.271 130.2C528.738 130.133 529.138 129.733 529.071 129.2Z" fill="#BCBEC0"/>
<path d="M504.337 116.133C503.204 115.667 501.937 116.133 501.471 117.2C501.004 118.267 501.537 119.533 502.604 120C503.671 120.533 504.937 120 505.404 118.933C505.871 117.867 505.404 116.6 504.337 116.133Z" fill="#BCBEC0"/>
<path d="M439.27 144.667C438.87 145 438.803 145.6 439.07 146C439.403 146.4 440.003 146.533 440.403 146.2C440.87 145.867 440.937 145.267 440.603 144.867C440.337 144.467 439.737 144.4 439.27 144.667Z" fill="#BCBEC0"/>
<path d="M455.87 155.133C456.003 156.2 456.937 156.933 458.003 156.8C459.07 156.667 459.803 155.733 459.67 154.667C459.537 153.667 458.603 152.867 457.537 153C456.537 153.133 455.737 154.067 455.87 155.133Z" fill="#BCBEC0"/>
<path d="M451.338 154.333C451.871 154.6 452.471 154.333 452.671 153.8C452.871 153.333 452.671 152.733 452.138 152.467C451.605 152.267 451.005 152.533 450.805 153C450.605 153.533 450.805 154.133 451.338 154.333Z" fill="#BCBEC0"/>
</g>
<circle cx="299.558" cy="108.558" r="73.558" fill="white"/>
<path d="M342.635 87.6859H283.625C282.203 87.6859 280.838 88.2511 279.832 89.2571C278.826 90.2632 278.261 91.6277 278.261 93.0505V146.696C278.255 147.719 278.544 148.722 279.094 149.584C279.644 150.447 280.432 151.132 281.362 151.558C282.071 151.888 282.843 152.059 283.625 152.061C284.885 152.058 286.102 151.609 287.062 150.793L287.092 150.77L298.043 141.331H342.635C344.058 141.331 345.423 140.766 346.429 139.76C347.435 138.754 348 137.39 348 135.967V93.0505C348 91.6277 347.435 90.2632 346.429 89.2571C345.423 88.2511 344.058 87.6859 342.635 87.6859ZM323.86 122.555H302.401C301.69 122.555 301.008 122.273 300.505 121.77C300.002 121.267 299.719 120.585 299.719 119.873C299.719 119.162 300.002 118.48 300.505 117.977C301.008 117.474 301.69 117.191 302.401 117.191H323.86C324.571 117.191 325.253 117.474 325.756 117.977C326.259 118.48 326.542 119.162 326.542 119.873C326.542 120.585 326.259 121.267 325.756 121.77C325.253 122.273 324.571 122.555 323.86 122.555ZM323.86 111.826H302.401C301.69 111.826 301.008 111.544 300.505 111.041C300.002 110.538 299.719 109.855 299.719 109.144C299.719 108.433 300.002 107.75 300.505 107.247C301.008 106.744 301.69 106.462 302.401 106.462H323.86C324.571 106.462 325.253 106.744 325.756 107.247C326.259 107.75 326.542 108.433 326.542 109.144C326.542 109.855 326.259 110.538 325.756 111.041C325.253 111.544 324.571 111.826 323.86 111.826Z" fill="#28519E"/>
<path d="M303.201 88.1899L292.643 97.3004L295.86 110.925C296.037 111.665 295.992 112.44 295.729 113.154C295.466 113.868 294.997 114.487 294.382 114.935C293.767 115.382 293.033 115.637 292.273 115.668C291.513 115.698 290.761 115.503 290.112 115.106L278.263 107.814L266.408 115.106C265.759 115.5 265.008 115.694 264.249 115.662C263.49 115.631 262.758 115.375 262.144 114.928C261.53 114.481 261.062 113.863 260.799 113.15C260.536 112.438 260.49 111.664 260.666 110.925L263.895 97.3004L253.337 88.1899C252.762 87.6937 252.347 87.0394 252.143 86.3086C251.938 85.5778 251.954 84.803 252.187 84.0809C252.42 83.3588 252.861 82.7214 253.454 82.2483C254.048 81.7753 254.767 81.4875 255.523 81.421L269.366 80.3042L274.706 67.3811C274.995 66.6768 275.487 66.0743 276.12 65.6503C276.752 65.2264 277.496 65 278.257 65C279.019 65 279.763 65.2264 280.395 65.6503C281.027 66.0743 281.519 66.6768 281.808 67.3811L287.146 80.3042L300.989 81.421C301.746 81.4851 302.468 81.7712 303.063 82.2436C303.659 82.716 304.102 83.3536 304.337 84.0766C304.571 84.7996 304.587 85.5758 304.383 86.3079C304.179 87.04 303.763 87.6955 303.187 88.1923L303.201 88.1899Z" fill="#FFB81C"/>
<g filter="url(#filter0_d_103_6817)">
<circle cx="231.456" cy="79.4561" r="12.4561" fill="#74D1EA"/>
</g>
<circle cx="370.921" cy="133.921" r="8.92123" fill="#E3F3FC"/>
</g>
</g>
<defs>
<filter id="filter0_d_103_6817" x="219" y="67" width="24.9121" height="28.9121" filterUnits="userSpaceOnUse" color-interpolation-filters="sRGB">
<feFlood flood-opacity="0" result="BackgroundImageFix"/>
<feColorMatrix in="SourceAlpha" type="matrix" values="0 0 0 0 0 0 0 0 0 0 0 0 0 0 0 0 0 0 127 0" result="hardAlpha"/>
<feOffset dy="4"/>
<feComposite in2="hardAlpha" operator="out"/>
<feColorMatrix type="matrix" values="0 0 0 0 0 0 0 0 0 0 0 0 0 0 0 0 0 0 0.25 0"/>
<feBlend mode="normal" in2="BackgroundImageFix" result="effect1_dropShadow_103_6817"/>
<feBlend mode="normal" in="SourceGraphic" in2="effect1_dropShadow_103_6817" result="shape"/>
</filter>
<radialGradient id="paint0_radial_103_6817" cx="0" cy="0" r="1" gradientUnits="userSpaceOnUse" gradientTransform="translate(239.042 -168.283) rotate(70.1094) scale(459.488 459.488)">
<stop stop-color="#10626A"/>
<stop offset="1" stop-color="#0D192F"/>
</radialGradient>
<clipPath id="clip0_103_6817">
<rect width="600" height="219" fill="white"/>
</clipPath>
<clipPath id="clip1_103_6817">
<rect width="600" height="400" fill="white" transform="translate(0.404297 -91)"/>
</clipPath>
</defs>
</svg>
