<svg xmlns="http://www.w3.org/2000/svg" width="17" height="16" viewBox="0 0 17 16" fill="none">
<g clip-path="url(#clip0_13514_2532)">
<path d="M8.83338 2.52323V2.25C8.83338 1.97386 8.60953 1.75 8.33338 1.75C8.05723 1.75 7.83338 1.97386 7.83338 2.25V2.52323C5.13383 2.77523 3.02088 5.0471 3.02088 7.8125V11.6384L2.72602 12.5H2.58337C2.30723 12.5 2.08337 12.7239 2.08337 13C2.08337 13.2761 2.30723 13.5 2.58337 13.5H14.0834C14.3595 13.5 14.5834 13.2761 14.5834 13C14.5834 12.7239 14.3595 12.5 14.0834 12.5H13.9407L13.6459 11.6384V7.8125C13.6459 5.0471 11.5329 2.77523 8.83338 2.52323Z" fill="#343435"/>
<path d="M7.58337 14C7.30722 14 7.08337 14.2239 7.08337 14.5C7.08337 14.7761 7.30722 15 7.58337 15H9.08337C9.35952 15 9.58337 14.7761 9.58337 14.5C9.58337 14.2239 9.35952 14 9.08337 14H7.58337Z" fill="#343435"/>
</g>
<defs>
<clipPath id="clip0_13514_2532">
<rect width="16" height="16" fill="white" transform="translate(0.333252)"/>
</clipPath>
</defs>
</svg>