<svg width="76" height="76" viewBox="0 0 76 76" fill="none" xmlns="http://www.w3.org/2000/svg">
<rect x="0.5" y="0.206055" width="75" height="75" rx="37.5" fill="#D6FDDF"/>
<circle cx="38" cy="37.7061" r="29.8105" fill="#61C478"/>
<path d="M33.4995 42.4693L28.8729 37.8426C28.6236 37.5933 28.2854 37.4533 27.9329 37.4533C27.5803 37.4533 27.2422 37.5933 26.9929 37.8426C26.7436 38.0919 26.6035 38.43 26.6035 38.7826C26.6035 38.9572 26.6379 39.1301 26.7047 39.2913C26.7715 39.4526 26.8694 39.5992 26.9929 39.7226L32.5662 45.2959C33.0862 45.816 33.9262 45.816 34.4462 45.2959L48.5529 31.1893C48.8022 30.94 48.9422 30.6019 48.9422 30.2493C48.9422 29.8967 48.8022 29.5586 48.5529 29.3093C48.3036 29.06 47.9654 28.9199 47.6129 28.9199C47.2603 28.9199 46.9222 29.06 46.6729 29.3093L33.4995 42.4693Z" fill="white"/>
</svg>
