<svg width="100" height="100" viewBox="0 0 100 100" fill="none" xmlns="http://www.w3.org/2000/svg">
<circle cx="50" cy="50" r="50" fill="#E9ECEB"/>
<path d="M26 35C26 31.6906 28.6906 29 32 29H68C71.3094 29 74 31.6906 74 35V65C74 68.3094 71.3094 71 68 71H32C28.6906 71 26 68.3094 26 65V35ZM56.3562 44.9844C55.9344 44.3656 55.2406 44 54.5 44C53.7594 44 53.0563 44.3656 52.6438 44.9844L44.4875 56.9469L42.0031 53.8438C41.5719 53.3094 40.925 53 40.25 53C39.575 53 38.9188 53.3094 38.4969 53.8438L32.4969 61.3438C31.9531 62.0187 31.85 62.9469 32.225 63.725C32.6 64.5031 33.3875 65 34.25 65H43.25H46.25H65.75C66.5844 65 67.3531 64.5406 67.7375 63.8C68.1219 63.0594 68.075 62.1688 67.6062 61.4844L56.3562 44.9844ZM36.5 44C37.6935 44 38.8381 43.5259 39.682 42.682C40.5259 41.8381 41 40.6935 41 39.5C41 38.3065 40.5259 37.1619 39.682 36.318C38.8381 35.4741 37.6935 35 36.5 35C35.3065 35 34.1619 35.4741 33.318 36.318C32.4741 37.1619 32 38.3065 32 39.5C32 40.6935 32.4741 41.8381 33.318 42.682C34.1619 43.5259 35.3065 44 36.5 44Z" fill="#6D6D6D"/>
</svg>
