<svg xmlns="http://www.w3.org/2000/svg" width="12" height="12" viewBox="0 0 21 20" fill="none">
<path d="M10.6577 0.0361328C8.72935 0.0361328 6.84429 0.60796 5.24091 1.6793C3.63753 2.75065 2.38785 4.27339 1.64989 6.05497C0.911939 7.83655 0.718857 9.79695 1.09506 11.6883C1.47127 13.5796 2.39987 15.3169 3.76343 16.6804C5.12699 18.044 6.86427 18.9726 8.75559 19.3488C10.6469 19.725 12.6073 19.5319 14.3889 18.794C16.1705 18.056 17.6932 16.8063 18.7645 15.2029C19.8359 13.5996 20.4077 11.7145 20.4077 9.78613C20.405 7.20111 19.3769 4.72274 17.549 2.89486C15.7211 1.06697 13.2427 0.0388626 10.6577 0.0361328ZM12.6883 13.0055C12.758 13.0752 12.8133 13.1579 12.851 13.249C12.8887 13.34 12.9081 13.4376 12.9081 13.5361C12.9081 13.6347 12.8887 13.7323 12.851 13.8233C12.8133 13.9143 12.758 13.9971 12.6883 14.0668C12.6187 14.1364 12.5359 14.1917 12.4449 14.2294C12.3538 14.2671 12.2563 14.2866 12.1577 14.2866C12.0592 14.2866 11.9616 14.2671 11.8705 14.2294C11.7795 14.1917 11.6968 14.1364 11.6271 14.0668L7.87709 10.3168C7.80736 10.2471 7.75204 10.1644 7.7143 10.0733C7.67656 9.98229 7.65713 9.88469 7.65713 9.78613C7.65713 9.68757 7.67656 9.58998 7.7143 9.49893C7.75204 9.40788 7.80736 9.32516 7.87709 9.25551L11.6271 5.50551C11.6968 5.43582 11.7795 5.38055 11.8705 5.34284C11.9616 5.30513 12.0592 5.28572 12.1577 5.28572C12.2563 5.28572 12.3538 5.30513 12.4449 5.34284C12.5359 5.38055 12.6187 5.43582 12.6883 5.50551C12.758 5.57519 12.8133 5.65792 12.851 5.74896C12.8887 5.84001 12.9081 5.93759 12.9081 6.03613C12.9081 6.13468 12.8887 6.23226 12.851 6.32331C12.8133 6.41435 12.758 6.49708 12.6883 6.56676L9.46803 9.78613L12.6883 13.0055Z" fill="#6D6D6D"/>
</svg>