<svg width="28" height="21" viewBox="0 0 28 21" fill="none" xmlns="http://www.w3.org/2000/svg">
<circle cx="10" cy="10.1851" r="10" fill="#FFB81C"/>
<path d="M25.2029 7.39812C25.3657 6.89601 26.9432 6.20091 26.9432 6.20091C26.9432 6.20091 25.3634 5.50938 25.2 5.00748C25.0366 4.50621 25.9052 3.01773 25.9052 3.01773C25.9052 3.01773 24.2208 3.38523 23.7932 3.07527C23.3654 2.76489 23.1926 1.05066 23.1926 1.05066C23.1926 1.05066 22.0473 2.33838 21.5189 2.3388C20.991 2.33964 19.8427 1.05276 19.8427 1.05276C19.8427 1.05276 19.6736 2.76972 19.2467 3.07989C18.8196 3.3909 17.1345 3.0255 17.1345 3.0255C17.1345 3.0255 17.6133 3.84303 17.7946 4.47093L17.7891 4.50117C13.323 3.93795 9.10685 6.73557 8.05664 11.0542L8.96027 11.5261C9.48212 10.9354 10.2957 10.6573 11.0855 10.8016C11.9704 10.9629 12.6808 11.6176 12.895 12.4696L13.8358 12.6403C14.4478 11.7571 15.4772 11.2556 16.5526 11.2842L15.1643 18.8994H8.65976V19.9494H22.5198V18.8994H16.2315L17.5839 11.4799C18.5812 11.8405 19.3507 12.6641 19.6083 13.6931L20.5489 13.8651C21.05 13.1435 21.9454 12.7815 22.8306 12.943C23.6195 13.0866 24.2833 13.6339 24.5633 14.3705L25.5751 14.2481C25.7947 12.4587 25.4369 10.7207 24.6443 9.21546C25.2447 9.24486 25.9104 9.38829 25.9104 9.38829C25.9104 9.38829 25.0398 7.90107 25.2029 7.39812ZM11.2736 9.7686C10.6957 9.66318 10.1079 9.71379 9.56927 9.90048C10.7276 7.42458 13.1725 5.75865 15.9321 5.51127C14.8165 6.585 13.8195 8.48571 13.1958 10.8587C12.7073 10.3026 12.0359 9.90783 11.2736 9.7686ZM17.2441 10.3024C16.2072 10.113 15.1616 10.3125 14.2932 10.822C15.2519 7.41492 16.9438 5.39976 18.0997 5.60955C19.2553 5.82018 20.1272 8.30343 19.8219 11.83C19.1892 11.0471 18.2813 10.4914 17.2441 10.3024ZM23.0189 11.91C22.8165 11.873 22.6136 11.8552 22.4127 11.8552C21.8568 11.8552 21.3156 11.9946 20.836 12.2497C21.0892 9.80955 20.8259 7.67973 20.1608 6.28155C22.6569 7.48653 24.3568 9.90846 24.5671 12.6345C24.1288 12.2699 23.5966 12.0152 23.0189 11.91ZM23.2298 7.24377C23.5049 6.7908 23.5887 6.25803 23.4654 5.74185C23.3411 5.22231 23.0221 4.78257 22.5668 4.50327C22.2489 4.30839 21.8912 4.20822 21.5279 4.20822C21.3717 4.20822 21.2146 4.2267 21.059 4.26408C20.5789 4.37895 20.1831 4.66077 19.913 5.03142C19.6455 4.92915 19.371 4.83906 19.0905 4.76157C19.4685 4.12485 20.0882 3.63261 20.8635 3.44718C21.5991 3.27036 22.3604 3.39132 23.0061 3.78738C23.6529 4.18407 24.1061 4.80882 24.2827 5.54676C24.4589 6.28407 24.3377 7.04595 23.9413 7.6917C23.8965 7.76457 23.844 7.8303 23.7934 7.89813C23.6164 7.67112 23.4284 7.45293 23.2298 7.24377Z" fill="#002C3F"/>
</svg>
