<svg xmlns="http://www.w3.org/2000/svg" width="21" height="16" viewBox="0 0 21 16" fill="none">
<path d="M5.03288 8.96597C5.03509 9.01023 5.02828 9.05448 5.01286 9.09602C4.99744 9.13756 4.97372 9.17553 4.94316 9.20762C4.9126 9.23971 4.87583 9.26525 4.83509 9.28268C4.79435 9.30011 4.75048 9.30907 4.70617 9.30902H1.10259C0.955108 9.30924 0.81189 9.25956 0.696223 9.16807C0.580556 9.07657 0.499243 8.94864 0.465508 8.80507C0.444501 8.7068 0.44547 8.60511 0.468343 8.50726C0.491217 8.40941 0.535432 8.31782 0.597824 8.23905C1.17431 7.47454 1.93919 6.87259 2.8178 6.49198C2.43206 6.14028 2.13621 5.70127 1.95503 5.21173C1.77384 4.72218 1.7126 4.19634 1.77643 3.67825C1.84026 3.16017 2.0273 2.66492 2.32189 2.23399C2.61648 1.80306 3.01004 1.44898 3.46961 1.20143C3.92917 0.953874 4.44137 0.820042 4.96329 0.811144C5.48522 0.802245 6.00168 0.918538 6.46942 1.15028C6.93716 1.38203 7.34256 1.72248 7.65167 2.14312C7.96078 2.56376 8.16459 3.05234 8.24604 3.56795C8.25656 3.63729 8.24414 3.70816 8.21067 3.76979C8.17721 3.83142 8.12452 3.88043 8.06064 3.90936C7.15434 4.32834 6.38681 4.99782 5.84859 5.83879C5.31037 6.67977 5.02393 7.65714 5.02308 8.6556C5.02308 8.76015 5.02308 8.86306 5.03288 8.96597ZM19.8981 8.23823C19.3229 7.47461 18.5598 6.87298 17.683 6.49198C18.0687 6.14028 18.3646 5.70127 18.5458 5.21173C18.7269 4.72218 18.7882 4.19634 18.7244 3.67825C18.6605 3.16017 18.4735 2.66492 18.1789 2.23399C17.8843 1.80306 17.4908 1.44898 17.0312 1.20143C16.5716 0.953874 16.0594 0.820042 15.5375 0.811144C15.0156 0.802245 14.4991 0.918538 14.0314 1.15028C13.5636 1.38203 13.1582 1.72248 12.8491 2.14312C12.54 2.56376 12.3362 3.05234 12.2547 3.56795C12.2442 3.63729 12.2566 3.70816 12.2901 3.76979C12.3236 3.83142 12.3763 3.88043 12.4402 3.90936C13.3464 4.32834 14.114 4.99782 14.6522 5.83879C15.1904 6.67977 15.4769 7.65714 15.4777 8.6556C15.4777 8.76015 15.4777 8.86306 15.4679 8.96597C15.4657 9.01023 15.4725 9.05448 15.4879 9.09602C15.5034 9.13756 15.5271 9.17553 15.5576 9.20762C15.5882 9.23971 15.625 9.26525 15.6657 9.28268C15.7064 9.30011 15.7503 9.30907 15.7946 9.30902H19.3982C19.5457 9.30924 19.6889 9.25956 19.8046 9.16807C19.9202 9.07657 20.0015 8.94864 20.0353 8.80507C20.0564 8.70662 20.0554 8.60471 20.0324 8.50669C20.0094 8.40867 19.9649 8.31698 19.9021 8.23823H19.8981ZM12.6288 11.765C13.2794 11.2668 13.7575 10.5772 13.996 9.79316C14.2344 9.00914 14.2212 8.17012 13.9581 7.39401C13.6951 6.61791 13.1954 5.94374 12.5294 5.46626C11.8634 4.98878 11.0646 4.73199 10.2451 4.73199C9.42561 4.73199 8.62674 4.98878 7.96075 5.46626C7.29475 5.94374 6.79512 6.61791 6.53207 7.39401C6.26902 8.17012 6.25578 9.00914 6.49421 9.79316C6.73264 10.5772 7.21075 11.2668 7.86135 11.765C6.70687 12.2653 5.74287 13.1219 5.11047 14.2096C5.05311 14.309 5.02292 14.4217 5.02293 14.5364C5.02294 14.6511 5.05314 14.7638 5.11051 14.8631C5.16787 14.9624 5.25038 15.0449 5.34973 15.1023C5.44908 15.1596 5.56178 15.1898 5.67649 15.1897H14.8243C14.939 15.1898 15.0517 15.1596 15.1511 15.1023C15.2504 15.0449 15.3329 14.9624 15.3903 14.8631C15.4476 14.7638 15.4779 14.6511 15.4779 14.5364C15.4779 14.4217 15.4477 14.309 15.3903 14.2096C14.7566 13.1212 13.7908 12.2645 12.6345 11.765H12.6288Z" fill="#002C3F"/>
</svg>