<svg width="600" height="201" viewBox="0 0 600 201" fill="none" xmlns="http://www.w3.org/2000/svg">
<rect width="600" height="201" fill="#F5F5F5"/>
<path d="M286 95.5C284.333 95.5 282.917 94.9167 281.75 93.75C280.583 92.5833 280 91.1667 280 89.5V61.5C280 59.8333 280.583 58.4167 281.75 57.25C282.917 56.0833 284.333 55.5 286 55.5H314C315.667 55.5 317.083 56.0833 318.25 57.25C319.417 58.4167 320 59.8333 320 61.5V89.5C320 91.1667 319.417 92.5833 318.25 93.75C317.083 94.9167 315.667 95.5 314 95.5H286ZM286 92.5H314C314.867 92.5 315.583 92.2083 316.15 91.625C316.717 91.0417 317 90.3333 317 89.5V61.5C317 60.6333 316.717 59.9167 316.15 59.35C315.583 58.7833 314.867 58.5 314 58.5H286C285.167 58.5 284.458 58.7833 283.875 59.35C283.292 59.9167 283 60.6333 283 61.5V89.5C283 90.3333 283.292 91.0417 283.875 91.625C284.458 92.2083 285.167 92.5 286 92.5Z" fill="#343435"/>
<path d="M296 80.2L289.2 87H310.95L304 78.3L299.65 83.8L296 80.2Z" fill="#343435"/>
<path d="M289.525 69.975C290.208 70.6583 291.033 71 292 71C292.967 71 293.792 70.6583 294.475 69.975C295.158 69.2917 295.5 68.4667 295.5 67.5C295.5 66.5333 295.158 65.7083 294.475 65.025C293.792 64.3417 292.967 64 292 64C291.033 64 290.208 64.3417 289.525 65.025C288.842 65.7083 288.5 66.5333 288.5 67.5C288.5 68.4667 288.842 69.2917 289.525 69.975Z" fill="#343435"/>
<path d="M203.903 124.5H201.777L201.791 123.14H203.903C204.519 123.14 205.034 123.005 205.448 122.736C205.868 122.467 206.182 122.082 206.392 121.581C206.606 121.08 206.713 120.483 206.713 119.79V119.25C206.713 118.712 206.651 118.236 206.528 117.821C206.41 117.407 206.232 117.058 205.995 116.775C205.763 116.493 205.476 116.279 205.134 116.133C204.797 115.987 204.407 115.914 203.965 115.914H201.736V114.547H203.965C204.626 114.547 205.229 114.659 205.776 114.882C206.323 115.101 206.795 115.417 207.191 115.832C207.592 116.247 207.9 116.743 208.114 117.322C208.328 117.901 208.436 118.548 208.436 119.264V119.79C208.436 120.506 208.328 121.153 208.114 121.731C207.9 122.31 207.592 122.807 207.191 123.222C206.79 123.632 206.312 123.949 205.756 124.172C205.204 124.391 204.587 124.5 203.903 124.5ZM202.728 114.547V124.5H201.012V114.547H202.728ZM211.648 118.512V124.5H210.001V117.104H211.573L211.648 118.512ZM213.911 117.056L213.897 118.587C213.797 118.569 213.688 118.555 213.569 118.546C213.455 118.537 213.341 118.532 213.228 118.532C212.945 118.532 212.697 118.573 212.482 118.655C212.268 118.733 212.088 118.847 211.942 118.997C211.801 119.143 211.692 119.321 211.614 119.53C211.537 119.74 211.491 119.975 211.478 120.234L211.102 120.262C211.102 119.797 211.147 119.366 211.238 118.97C211.329 118.573 211.466 118.225 211.648 117.924C211.835 117.623 212.068 117.388 212.346 117.22C212.628 117.051 212.954 116.967 213.323 116.967C213.424 116.967 213.531 116.976 213.645 116.994C213.763 117.012 213.852 117.033 213.911 117.056ZM218.867 123.017V119.489C218.867 119.225 218.819 118.997 218.724 118.806C218.628 118.614 218.482 118.466 218.286 118.361C218.095 118.257 217.853 118.204 217.562 118.204C217.293 118.204 217.06 118.25 216.864 118.341C216.668 118.432 216.516 118.555 216.406 118.71C216.297 118.865 216.242 119.04 216.242 119.236H214.602C214.602 118.945 214.672 118.662 214.813 118.389C214.955 118.115 215.16 117.871 215.429 117.657C215.698 117.443 216.019 117.274 216.393 117.151C216.766 117.028 217.186 116.967 217.65 116.967C218.206 116.967 218.699 117.06 219.127 117.247C219.56 117.434 219.899 117.716 220.146 118.095C220.396 118.468 220.521 118.938 220.521 119.503V122.791C220.521 123.128 220.544 123.431 220.59 123.7C220.64 123.965 220.711 124.195 220.802 124.391V124.5H219.113C219.036 124.322 218.974 124.097 218.929 123.823C218.888 123.545 218.867 123.276 218.867 123.017ZM219.106 120.002L219.12 121.021H217.938C217.632 121.021 217.363 121.05 217.131 121.109C216.898 121.164 216.705 121.246 216.55 121.355C216.395 121.465 216.279 121.597 216.201 121.752C216.124 121.907 216.085 122.082 216.085 122.278C216.085 122.474 216.131 122.654 216.222 122.818C216.313 122.978 216.445 123.103 216.618 123.194C216.796 123.285 217.01 123.331 217.261 123.331C217.598 123.331 217.892 123.263 218.143 123.126C218.398 122.985 218.598 122.814 218.744 122.613C218.89 122.408 218.967 122.215 218.977 122.032L219.51 122.764C219.455 122.951 219.362 123.151 219.229 123.365C219.097 123.579 218.924 123.785 218.71 123.98C218.5 124.172 218.247 124.329 217.951 124.452C217.66 124.575 217.322 124.637 216.939 124.637C216.456 124.637 216.026 124.541 215.647 124.35C215.269 124.154 214.973 123.892 214.759 123.563C214.545 123.231 214.438 122.855 214.438 122.436C214.438 122.044 214.51 121.697 214.656 121.396C214.807 121.091 215.025 120.836 215.312 120.631C215.604 120.426 215.96 120.271 216.379 120.166C216.798 120.057 217.277 120.002 217.814 120.002H219.106ZM226.981 117.104H228.479V124.295C228.479 124.96 228.337 125.525 228.055 125.99C227.772 126.455 227.378 126.808 226.872 127.05C226.366 127.296 225.781 127.419 225.115 127.419C224.833 127.419 224.518 127.378 224.172 127.296C223.83 127.214 223.497 127.082 223.174 126.899C222.855 126.722 222.588 126.487 222.374 126.195L223.146 125.225C223.411 125.539 223.702 125.769 224.021 125.915C224.34 126.061 224.675 126.134 225.026 126.134C225.405 126.134 225.726 126.063 225.99 125.922C226.259 125.785 226.466 125.582 226.612 125.313C226.758 125.045 226.831 124.716 226.831 124.329V118.778L226.981 117.104ZM221.957 120.884V120.74C221.957 120.18 222.025 119.669 222.162 119.209C222.299 118.744 222.495 118.345 222.75 118.013C223.005 117.675 223.315 117.418 223.68 117.24C224.044 117.058 224.457 116.967 224.917 116.967C225.396 116.967 225.803 117.053 226.141 117.227C226.482 117.4 226.767 117.648 226.995 117.972C227.223 118.291 227.401 118.674 227.528 119.12C227.66 119.562 227.758 120.054 227.822 120.597V121.055C227.763 121.583 227.663 122.066 227.521 122.504C227.38 122.941 227.193 123.32 226.961 123.639C226.729 123.958 226.441 124.204 226.1 124.377C225.762 124.55 225.364 124.637 224.903 124.637C224.452 124.637 224.044 124.543 223.68 124.356C223.32 124.17 223.01 123.908 222.75 123.57C222.495 123.233 222.299 122.837 222.162 122.381C222.025 121.921 221.957 121.422 221.957 120.884ZM223.604 120.74V120.884C223.604 121.221 223.636 121.535 223.7 121.827C223.769 122.119 223.871 122.376 224.008 122.6C224.149 122.818 224.327 122.992 224.541 123.119C224.76 123.242 225.017 123.304 225.313 123.304C225.701 123.304 226.018 123.222 226.264 123.058C226.514 122.894 226.706 122.673 226.838 122.395C226.975 122.112 227.07 121.798 227.125 121.451V120.214C227.098 119.945 227.041 119.694 226.954 119.462C226.872 119.229 226.76 119.027 226.619 118.854C226.478 118.676 226.3 118.539 226.086 118.443C225.872 118.343 225.619 118.293 225.327 118.293C225.031 118.293 224.773 118.357 224.555 118.484C224.336 118.612 224.156 118.787 224.015 119.011C223.878 119.234 223.775 119.494 223.707 119.79C223.639 120.086 223.604 120.403 223.604 120.74ZM235.82 123.693L237.83 117.104H239.594L236.627 125.628C236.559 125.81 236.47 126.008 236.36 126.223C236.251 126.437 236.107 126.64 235.93 126.831C235.757 127.027 235.54 127.184 235.28 127.303C235.021 127.426 234.706 127.487 234.337 127.487C234.191 127.487 234.05 127.474 233.913 127.446C233.781 127.424 233.656 127.398 233.537 127.371L233.53 126.113C233.576 126.118 233.631 126.122 233.694 126.127C233.763 126.132 233.817 126.134 233.858 126.134C234.132 126.134 234.36 126.1 234.542 126.031C234.724 125.967 234.872 125.863 234.986 125.717C235.105 125.571 235.205 125.375 235.287 125.129L235.82 123.693ZM234.686 117.104L236.442 122.641L236.736 124.377L235.595 124.671L232.908 117.104H234.686ZM240.113 120.884V120.727C240.113 120.193 240.191 119.699 240.346 119.243C240.501 118.783 240.724 118.384 241.016 118.047C241.312 117.705 241.672 117.441 242.096 117.254C242.524 117.062 243.007 116.967 243.545 116.967C244.087 116.967 244.57 117.062 244.994 117.254C245.423 117.441 245.785 117.705 246.081 118.047C246.377 118.384 246.603 118.783 246.758 119.243C246.913 119.699 246.99 120.193 246.99 120.727V120.884C246.99 121.417 246.913 121.911 246.758 122.367C246.603 122.823 246.377 123.222 246.081 123.563C245.785 123.901 245.425 124.165 245.001 124.356C244.577 124.543 244.096 124.637 243.559 124.637C243.016 124.637 242.531 124.543 242.103 124.356C241.679 124.165 241.319 123.901 241.022 123.563C240.726 123.222 240.501 122.823 240.346 122.367C240.191 121.911 240.113 121.417 240.113 120.884ZM241.761 120.727V120.884C241.761 121.216 241.795 121.531 241.863 121.827C241.932 122.123 242.039 122.383 242.185 122.606C242.33 122.83 242.517 123.005 242.745 123.133C242.973 123.26 243.244 123.324 243.559 123.324C243.864 123.324 244.128 123.26 244.352 123.133C244.579 123.005 244.766 122.83 244.912 122.606C245.058 122.383 245.165 122.123 245.233 121.827C245.306 121.531 245.343 121.216 245.343 120.884V120.727C245.343 120.398 245.306 120.089 245.233 119.797C245.165 119.501 245.056 119.239 244.905 119.011C244.759 118.783 244.573 118.605 244.345 118.478C244.121 118.345 243.855 118.279 243.545 118.279C243.235 118.279 242.966 118.345 242.738 118.478C242.515 118.605 242.33 118.783 242.185 119.011C242.039 119.239 241.932 119.501 241.863 119.797C241.795 120.089 241.761 120.398 241.761 120.727ZM252.821 122.757V117.104H254.476V124.5H252.917L252.821 122.757ZM253.054 121.219L253.607 121.205C253.607 121.702 253.553 122.16 253.443 122.579C253.334 122.994 253.165 123.356 252.938 123.666C252.71 123.971 252.418 124.211 252.062 124.384C251.707 124.552 251.281 124.637 250.784 124.637C250.424 124.637 250.094 124.584 249.793 124.479C249.492 124.375 249.232 124.213 249.014 123.994C248.799 123.775 248.633 123.491 248.515 123.14C248.396 122.789 248.337 122.369 248.337 121.882V117.104H249.984V121.896C249.984 122.164 250.016 122.39 250.08 122.572C250.144 122.75 250.23 122.894 250.34 123.003C250.449 123.112 250.577 123.19 250.723 123.235C250.868 123.281 251.023 123.304 251.188 123.304C251.657 123.304 252.026 123.213 252.295 123.03C252.568 122.843 252.762 122.593 252.876 122.278C252.994 121.964 253.054 121.611 253.054 121.219ZM257.818 118.512V124.5H256.171V117.104H257.743L257.818 118.512ZM260.081 117.056L260.067 118.587C259.967 118.569 259.858 118.555 259.739 118.546C259.625 118.537 259.511 118.532 259.397 118.532C259.115 118.532 258.867 118.573 258.652 118.655C258.438 118.733 258.258 118.847 258.112 118.997C257.971 119.143 257.862 119.321 257.784 119.53C257.707 119.74 257.661 119.975 257.647 120.234L257.271 120.262C257.271 119.797 257.317 119.366 257.408 118.97C257.499 118.573 257.636 118.225 257.818 117.924C258.005 117.623 258.238 117.388 258.516 117.22C258.798 117.051 259.124 116.967 259.493 116.967C259.593 116.967 259.701 116.976 259.814 116.994C259.933 117.012 260.022 117.033 260.081 117.056ZM266.363 117.104V124.5H264.709V117.104H266.363ZM264.6 115.162C264.6 114.911 264.682 114.704 264.846 114.54C265.014 114.371 265.247 114.287 265.543 114.287C265.835 114.287 266.065 114.371 266.233 114.54C266.402 114.704 266.486 114.911 266.486 115.162C266.486 115.408 266.402 115.613 266.233 115.777C266.065 115.941 265.835 116.023 265.543 116.023C265.247 116.023 265.014 115.941 264.846 115.777C264.682 115.613 264.6 115.408 264.6 115.162ZM269.815 118.607V124.5H268.168V117.104H269.72L269.815 118.607ZM269.549 120.528L268.988 120.521C268.988 120.011 269.052 119.539 269.18 119.106C269.307 118.674 269.494 118.298 269.74 117.979C269.986 117.655 270.292 117.407 270.656 117.233C271.025 117.056 271.451 116.967 271.935 116.967C272.272 116.967 272.579 117.017 272.857 117.117C273.14 117.213 273.384 117.366 273.589 117.575C273.799 117.785 273.958 118.054 274.067 118.382C274.181 118.71 274.238 119.106 274.238 119.571V124.5H272.591V119.715C272.591 119.355 272.536 119.072 272.427 118.867C272.322 118.662 272.169 118.516 271.969 118.43C271.773 118.339 271.538 118.293 271.265 118.293C270.955 118.293 270.69 118.352 270.472 118.471C270.257 118.589 270.082 118.751 269.945 118.956C269.809 119.161 269.708 119.398 269.645 119.667C269.581 119.936 269.549 120.223 269.549 120.528ZM274.136 120.091L273.363 120.262C273.363 119.815 273.425 119.394 273.548 118.997C273.675 118.596 273.86 118.245 274.102 117.944C274.348 117.639 274.651 117.4 275.011 117.227C275.371 117.053 275.783 116.967 276.248 116.967C276.626 116.967 276.964 117.019 277.26 117.124C277.561 117.224 277.816 117.384 278.025 117.603C278.235 117.821 278.395 118.106 278.504 118.457C278.613 118.803 278.668 119.223 278.668 119.715V124.5H277.014V119.708C277.014 119.334 276.959 119.045 276.85 118.84C276.745 118.635 276.594 118.493 276.398 118.416C276.202 118.334 275.968 118.293 275.694 118.293C275.439 118.293 275.214 118.341 275.018 118.437C274.826 118.528 274.664 118.658 274.532 118.826C274.4 118.99 274.3 119.179 274.231 119.394C274.168 119.608 274.136 119.84 274.136 120.091ZM284.533 123.017V119.489C284.533 119.225 284.485 118.997 284.39 118.806C284.294 118.614 284.148 118.466 283.952 118.361C283.761 118.257 283.519 118.204 283.228 118.204C282.959 118.204 282.726 118.25 282.53 118.341C282.334 118.432 282.182 118.555 282.072 118.71C281.963 118.865 281.908 119.04 281.908 119.236H280.268C280.268 118.945 280.338 118.662 280.479 118.389C280.621 118.115 280.826 117.871 281.095 117.657C281.364 117.443 281.685 117.274 282.059 117.151C282.432 117.028 282.852 116.967 283.316 116.967C283.872 116.967 284.365 117.06 284.793 117.247C285.226 117.434 285.565 117.716 285.812 118.095C286.062 118.468 286.188 118.938 286.188 119.503V122.791C286.188 123.128 286.21 123.431 286.256 123.7C286.306 123.965 286.377 124.195 286.468 124.391V124.5H284.779C284.702 124.322 284.64 124.097 284.595 123.823C284.554 123.545 284.533 123.276 284.533 123.017ZM284.772 120.002L284.786 121.021H283.604C283.298 121.021 283.029 121.05 282.797 121.109C282.564 121.164 282.371 121.246 282.216 121.355C282.061 121.465 281.945 121.597 281.867 121.752C281.79 121.907 281.751 122.082 281.751 122.278C281.751 122.474 281.797 122.654 281.888 122.818C281.979 122.978 282.111 123.103 282.284 123.194C282.462 123.285 282.676 123.331 282.927 123.331C283.264 123.331 283.558 123.263 283.809 123.126C284.064 122.985 284.264 122.814 284.41 122.613C284.556 122.408 284.633 122.215 284.643 122.032L285.176 122.764C285.121 122.951 285.028 123.151 284.896 123.365C284.763 123.579 284.59 123.785 284.376 123.98C284.166 124.172 283.913 124.329 283.617 124.452C283.326 124.575 282.988 124.637 282.605 124.637C282.122 124.637 281.692 124.541 281.313 124.35C280.935 124.154 280.639 123.892 280.425 123.563C280.211 123.231 280.104 122.855 280.104 122.436C280.104 122.044 280.176 121.697 280.322 121.396C280.473 121.091 280.691 120.836 280.979 120.631C281.27 120.426 281.626 120.271 282.045 120.166C282.464 120.057 282.943 120.002 283.48 120.002H284.772ZM292.647 117.104H294.145V124.295C294.145 124.96 294.003 125.525 293.721 125.99C293.438 126.455 293.044 126.808 292.538 127.05C292.032 127.296 291.447 127.419 290.781 127.419C290.499 127.419 290.184 127.378 289.838 127.296C289.496 127.214 289.163 127.082 288.84 126.899C288.521 126.722 288.254 126.487 288.04 126.195L288.812 125.225C289.077 125.539 289.368 125.769 289.688 125.915C290.007 126.061 290.341 126.134 290.692 126.134C291.071 126.134 291.392 126.063 291.656 125.922C291.925 125.785 292.132 125.582 292.278 125.313C292.424 125.045 292.497 124.716 292.497 124.329V118.778L292.647 117.104ZM287.623 120.884V120.74C287.623 120.18 287.691 119.669 287.828 119.209C287.965 118.744 288.161 118.345 288.416 118.013C288.671 117.675 288.981 117.418 289.346 117.24C289.71 117.058 290.123 116.967 290.583 116.967C291.062 116.967 291.469 117.053 291.807 117.227C292.148 117.4 292.433 117.648 292.661 117.972C292.889 118.291 293.067 118.674 293.194 119.12C293.326 119.562 293.424 120.054 293.488 120.597V121.055C293.429 121.583 293.329 122.066 293.188 122.504C293.046 122.941 292.859 123.32 292.627 123.639C292.395 123.958 292.107 124.204 291.766 124.377C291.428 124.55 291.03 124.637 290.569 124.637C290.118 124.637 289.71 124.543 289.346 124.356C288.986 124.17 288.676 123.908 288.416 123.57C288.161 123.233 287.965 122.837 287.828 122.381C287.691 121.921 287.623 121.422 287.623 120.884ZM289.271 120.74V120.884C289.271 121.221 289.302 121.535 289.366 121.827C289.435 122.119 289.537 122.376 289.674 122.6C289.815 122.818 289.993 122.992 290.207 123.119C290.426 123.242 290.683 123.304 290.979 123.304C291.367 123.304 291.684 123.222 291.93 123.058C292.18 122.894 292.372 122.673 292.504 122.395C292.641 122.112 292.736 121.798 292.791 121.451V120.214C292.764 119.945 292.707 119.694 292.62 119.462C292.538 119.229 292.426 119.027 292.285 118.854C292.144 118.676 291.966 118.539 291.752 118.443C291.538 118.343 291.285 118.293 290.993 118.293C290.697 118.293 290.439 118.357 290.221 118.484C290.002 118.612 289.822 118.787 289.681 119.011C289.544 119.234 289.441 119.494 289.373 119.79C289.305 120.086 289.271 120.403 289.271 120.74ZM299.114 124.637C298.567 124.637 298.073 124.548 297.631 124.37C297.193 124.188 296.82 123.935 296.51 123.611C296.204 123.288 295.97 122.907 295.806 122.47C295.642 122.032 295.56 121.561 295.56 121.055V120.781C295.56 120.202 295.644 119.678 295.812 119.209C295.981 118.74 296.216 118.339 296.517 118.006C296.817 117.669 297.173 117.411 297.583 117.233C297.993 117.056 298.438 116.967 298.916 116.967C299.445 116.967 299.907 117.056 300.304 117.233C300.7 117.411 301.028 117.662 301.288 117.985C301.552 118.304 301.748 118.685 301.876 119.127C302.008 119.569 302.074 120.057 302.074 120.59V121.294H296.359V120.111H300.447V119.981C300.438 119.685 300.379 119.407 300.27 119.147C300.165 118.888 300.003 118.678 299.784 118.519C299.565 118.359 299.274 118.279 298.909 118.279C298.636 118.279 298.392 118.339 298.178 118.457C297.968 118.571 297.793 118.737 297.651 118.956C297.51 119.175 297.401 119.439 297.323 119.749C297.25 120.054 297.214 120.398 297.214 120.781V121.055C297.214 121.378 297.257 121.679 297.344 121.957C297.435 122.23 297.567 122.47 297.74 122.675C297.913 122.88 298.123 123.042 298.369 123.16C298.615 123.274 298.896 123.331 299.21 123.331C299.606 123.331 299.96 123.251 300.27 123.092C300.579 122.932 300.848 122.707 301.076 122.415L301.944 123.256C301.785 123.488 301.577 123.712 301.322 123.926C301.067 124.135 300.755 124.306 300.386 124.438C300.021 124.571 299.597 124.637 299.114 124.637ZM308.473 114V124.5H306.832V114H308.473ZM308.186 120.528L307.652 120.521C307.657 120.011 307.728 119.539 307.864 119.106C308.006 118.674 308.201 118.298 308.452 117.979C308.707 117.655 309.013 117.407 309.368 117.233C309.724 117.056 310.118 116.967 310.551 116.967C310.915 116.967 311.243 117.017 311.535 117.117C311.831 117.217 312.087 117.379 312.301 117.603C312.515 117.821 312.677 118.108 312.786 118.464C312.9 118.815 312.957 119.243 312.957 119.749V124.5H311.303V119.735C311.303 119.38 311.25 119.097 311.146 118.888C311.045 118.678 310.897 118.528 310.701 118.437C310.505 118.341 310.266 118.293 309.983 118.293C309.687 118.293 309.425 118.352 309.197 118.471C308.974 118.589 308.787 118.751 308.637 118.956C308.486 119.161 308.372 119.398 308.295 119.667C308.222 119.936 308.186 120.223 308.186 120.528ZM317.886 124.637C317.339 124.637 316.844 124.548 316.402 124.37C315.965 124.188 315.591 123.935 315.281 123.611C314.976 123.288 314.741 122.907 314.577 122.47C314.413 122.032 314.331 121.561 314.331 121.055V120.781C314.331 120.202 314.415 119.678 314.584 119.209C314.753 118.74 314.987 118.339 315.288 118.006C315.589 117.669 315.944 117.411 316.354 117.233C316.765 117.056 317.209 116.967 317.688 116.967C318.216 116.967 318.679 117.056 319.075 117.233C319.472 117.411 319.8 117.662 320.06 117.985C320.324 118.304 320.52 118.685 320.647 119.127C320.78 119.569 320.846 120.057 320.846 120.59V121.294H315.131V120.111H319.219V119.981C319.21 119.685 319.15 119.407 319.041 119.147C318.936 118.888 318.774 118.678 318.556 118.519C318.337 118.359 318.045 118.279 317.681 118.279C317.407 118.279 317.163 118.339 316.949 118.457C316.74 118.571 316.564 118.737 316.423 118.956C316.282 119.175 316.172 119.439 316.095 119.749C316.022 120.054 315.985 120.398 315.985 120.781V121.055C315.985 121.378 316.029 121.679 316.115 121.957C316.206 122.23 316.339 122.47 316.512 122.675C316.685 122.88 316.895 123.042 317.141 123.16C317.387 123.274 317.667 123.331 317.981 123.331C318.378 123.331 318.731 123.251 319.041 123.092C319.351 122.932 319.62 122.707 319.848 122.415L320.716 123.256C320.556 123.488 320.349 123.712 320.094 123.926C319.839 124.135 319.526 124.306 319.157 124.438C318.793 124.571 318.369 124.637 317.886 124.637ZM323.785 118.512V124.5H322.138V117.104H323.71L323.785 118.512ZM326.048 117.056L326.034 118.587C325.934 118.569 325.825 118.555 325.706 118.546C325.592 118.537 325.478 118.532 325.364 118.532C325.082 118.532 324.833 118.573 324.619 118.655C324.405 118.733 324.225 118.847 324.079 118.997C323.938 119.143 323.828 119.321 323.751 119.53C323.674 119.74 323.628 119.975 323.614 120.234L323.238 120.262C323.238 119.797 323.284 119.366 323.375 118.97C323.466 118.573 323.603 118.225 323.785 117.924C323.972 117.623 324.204 117.388 324.482 117.22C324.765 117.051 325.091 116.967 325.46 116.967C325.56 116.967 325.667 116.976 325.781 116.994C325.9 117.012 325.989 117.033 326.048 117.056ZM330.204 124.637C329.657 124.637 329.163 124.548 328.721 124.37C328.283 124.188 327.91 123.935 327.6 123.611C327.294 123.288 327.06 122.907 326.896 122.47C326.731 122.032 326.649 121.561 326.649 121.055V120.781C326.649 120.202 326.734 119.678 326.902 119.209C327.071 118.74 327.306 118.339 327.606 118.006C327.907 117.669 328.263 117.411 328.673 117.233C329.083 117.056 329.527 116.967 330.006 116.967C330.535 116.967 330.997 117.056 331.394 117.233C331.79 117.411 332.118 117.662 332.378 117.985C332.642 118.304 332.838 118.685 332.966 119.127C333.098 119.569 333.164 120.057 333.164 120.59V121.294H327.449V120.111H331.537V119.981C331.528 119.685 331.469 119.407 331.359 119.147C331.255 118.888 331.093 118.678 330.874 118.519C330.655 118.359 330.364 118.279 329.999 118.279C329.726 118.279 329.482 118.339 329.268 118.457C329.058 118.571 328.882 118.737 328.741 118.956C328.6 119.175 328.491 119.439 328.413 119.749C328.34 120.054 328.304 120.398 328.304 120.781V121.055C328.304 121.378 328.347 121.679 328.434 121.957C328.525 122.23 328.657 122.47 328.83 122.675C329.003 122.88 329.213 123.042 329.459 123.16C329.705 123.274 329.985 123.331 330.3 123.331C330.696 123.331 331.049 123.251 331.359 123.092C331.669 122.932 331.938 122.707 332.166 122.415L333.034 123.256C332.875 123.488 332.667 123.712 332.412 123.926C332.157 124.135 331.845 124.306 331.476 124.438C331.111 124.571 330.687 124.637 330.204 124.637ZM337.621 120.884V120.727C337.621 120.193 337.699 119.699 337.854 119.243C338.008 118.783 338.232 118.384 338.523 118.047C338.82 117.705 339.18 117.441 339.604 117.254C340.032 117.062 340.515 116.967 341.053 116.967C341.595 116.967 342.078 117.062 342.502 117.254C342.93 117.441 343.293 117.705 343.589 118.047C343.885 118.384 344.111 118.783 344.266 119.243C344.421 119.699 344.498 120.193 344.498 120.727V120.884C344.498 121.417 344.421 121.911 344.266 122.367C344.111 122.823 343.885 123.222 343.589 123.563C343.293 123.901 342.933 124.165 342.509 124.356C342.085 124.543 341.604 124.637 341.066 124.637C340.524 124.637 340.039 124.543 339.61 124.356C339.187 124.165 338.826 123.901 338.53 123.563C338.234 123.222 338.008 122.823 337.854 122.367C337.699 121.911 337.621 121.417 337.621 120.884ZM339.269 120.727V120.884C339.269 121.216 339.303 121.531 339.371 121.827C339.439 122.123 339.547 122.383 339.692 122.606C339.838 122.83 340.025 123.005 340.253 123.133C340.481 123.26 340.752 123.324 341.066 123.324C341.372 123.324 341.636 123.26 341.859 123.133C342.087 123.005 342.274 122.83 342.42 122.606C342.566 122.383 342.673 122.123 342.741 121.827C342.814 121.531 342.851 121.216 342.851 120.884V120.727C342.851 120.398 342.814 120.089 342.741 119.797C342.673 119.501 342.563 119.239 342.413 119.011C342.267 118.783 342.08 118.605 341.853 118.478C341.629 118.345 341.363 118.279 341.053 118.279C340.743 118.279 340.474 118.345 340.246 118.478C340.023 118.605 339.838 118.783 339.692 119.011C339.547 119.239 339.439 119.501 339.371 119.797C339.303 120.089 339.269 120.398 339.269 120.727ZM347.533 118.512V124.5H345.886V117.104H347.458L347.533 118.512ZM349.796 117.056L349.782 118.587C349.682 118.569 349.573 118.555 349.454 118.546C349.34 118.537 349.226 118.532 349.112 118.532C348.83 118.532 348.581 118.573 348.367 118.655C348.153 118.733 347.973 118.847 347.827 118.997C347.686 119.143 347.576 119.321 347.499 119.53C347.422 119.74 347.376 119.975 347.362 120.234L346.986 120.262C346.986 119.797 347.032 119.366 347.123 118.97C347.214 118.573 347.351 118.225 347.533 117.924C347.72 117.623 347.952 117.388 348.23 117.22C348.513 117.051 348.839 116.967 349.208 116.967C349.308 116.967 349.415 116.976 349.529 116.994C349.648 117.012 349.737 117.033 349.796 117.056ZM354.321 114H355.969V122.921L355.812 124.5H354.321V114ZM360.795 120.733V120.877C360.795 121.424 360.733 121.927 360.61 122.388C360.492 122.843 360.31 123.24 360.063 123.577C359.822 123.914 359.521 124.176 359.161 124.363C358.806 124.546 358.393 124.637 357.924 124.637C357.464 124.637 357.062 124.55 356.721 124.377C356.379 124.204 356.092 123.958 355.859 123.639C355.632 123.32 355.447 122.939 355.306 122.497C355.164 122.055 355.064 121.567 355.005 121.034V120.576C355.064 120.038 355.164 119.551 355.306 119.113C355.447 118.671 355.632 118.291 355.859 117.972C356.092 117.648 356.377 117.4 356.714 117.227C357.056 117.053 357.454 116.967 357.91 116.967C358.384 116.967 358.801 117.058 359.161 117.24C359.526 117.423 359.829 117.682 360.07 118.02C360.312 118.352 360.492 118.749 360.61 119.209C360.733 119.669 360.795 120.177 360.795 120.733ZM359.147 120.877V120.733C359.147 120.401 359.12 120.089 359.065 119.797C359.011 119.501 358.92 119.241 358.792 119.018C358.669 118.794 358.5 118.619 358.286 118.491C358.076 118.359 357.814 118.293 357.5 118.293C357.208 118.293 356.958 118.343 356.748 118.443C356.538 118.544 356.363 118.68 356.222 118.854C356.08 119.027 355.969 119.227 355.887 119.455C355.809 119.683 355.757 119.929 355.729 120.193V121.431C355.771 121.772 355.857 122.087 355.989 122.374C356.126 122.657 356.317 122.884 356.563 123.058C356.81 123.226 357.126 123.311 357.514 123.311C357.819 123.311 358.076 123.249 358.286 123.126C358.496 123.003 358.662 122.832 358.785 122.613C358.913 122.39 359.004 122.13 359.059 121.834C359.118 121.538 359.147 121.219 359.147 120.877ZM363.844 118.512V124.5H362.196V117.104H363.769L363.844 118.512ZM366.106 117.056L366.093 118.587C365.993 118.569 365.883 118.555 365.765 118.546C365.651 118.537 365.537 118.532 365.423 118.532C365.14 118.532 364.892 118.573 364.678 118.655C364.464 118.733 364.284 118.847 364.138 118.997C363.996 119.143 363.887 119.321 363.81 119.53C363.732 119.74 363.687 119.975 363.673 120.234L363.297 120.262C363.297 119.797 363.342 119.366 363.434 118.97C363.525 118.573 363.661 118.225 363.844 117.924C364.031 117.623 364.263 117.388 364.541 117.22C364.824 117.051 365.149 116.967 365.519 116.967C365.619 116.967 365.726 116.976 365.84 116.994C365.958 117.012 366.047 117.033 366.106 117.056ZM366.646 120.884V120.727C366.646 120.193 366.724 119.699 366.879 119.243C367.034 118.783 367.257 118.384 367.549 118.047C367.845 117.705 368.205 117.441 368.629 117.254C369.057 117.062 369.54 116.967 370.078 116.967C370.62 116.967 371.104 117.062 371.527 117.254C371.956 117.441 372.318 117.705 372.614 118.047C372.91 118.384 373.136 118.783 373.291 119.243C373.446 119.699 373.523 120.193 373.523 120.727V120.884C373.523 121.417 373.446 121.911 373.291 122.367C373.136 122.823 372.91 123.222 372.614 123.563C372.318 123.901 371.958 124.165 371.534 124.356C371.11 124.543 370.63 124.637 370.092 124.637C369.549 124.637 369.064 124.543 368.636 124.356C368.212 124.165 367.852 123.901 367.556 123.563C367.259 123.222 367.034 122.823 366.879 122.367C366.724 121.911 366.646 121.417 366.646 120.884ZM368.294 120.727V120.884C368.294 121.216 368.328 121.531 368.396 121.827C368.465 122.123 368.572 122.383 368.718 122.606C368.864 122.83 369.05 123.005 369.278 123.133C369.506 123.26 369.777 123.324 370.092 123.324C370.397 123.324 370.661 123.26 370.885 123.133C371.113 123.005 371.299 122.83 371.445 122.606C371.591 122.383 371.698 122.123 371.767 121.827C371.84 121.531 371.876 121.216 371.876 120.884V120.727C371.876 120.398 371.84 120.089 371.767 119.797C371.698 119.501 371.589 119.239 371.438 119.011C371.293 118.783 371.106 118.605 370.878 118.478C370.655 118.345 370.388 118.279 370.078 118.279C369.768 118.279 369.499 118.345 369.271 118.478C369.048 118.605 368.864 118.783 368.718 119.011C368.572 119.239 368.465 119.501 368.396 119.797C368.328 120.089 368.294 120.398 368.294 120.727ZM376.914 122.859L378.623 117.104H379.676L379.389 118.826L377.666 124.5H376.723L376.914 122.859ZM375.909 117.104L377.242 122.887L377.352 124.5H376.299L374.296 117.104H375.909ZM381.275 122.818L382.567 117.104H384.174L382.178 124.5H381.125L381.275 122.818ZM379.854 117.104L381.542 122.791L381.754 124.5H380.811L379.067 118.819L378.78 117.104H379.854ZM389.444 122.497C389.444 122.333 389.403 122.185 389.321 122.053C389.239 121.916 389.082 121.793 388.85 121.684C388.622 121.574 388.285 121.474 387.838 121.383C387.446 121.296 387.086 121.194 386.758 121.075C386.434 120.952 386.156 120.804 385.924 120.631C385.691 120.458 385.511 120.253 385.384 120.016C385.256 119.779 385.192 119.505 385.192 119.195C385.192 118.895 385.258 118.61 385.391 118.341C385.523 118.072 385.712 117.835 385.958 117.63C386.204 117.425 386.503 117.263 386.854 117.145C387.209 117.026 387.605 116.967 388.043 116.967C388.663 116.967 389.194 117.072 389.636 117.281C390.082 117.486 390.424 117.767 390.661 118.122C390.898 118.473 391.017 118.869 391.017 119.312H389.369C389.369 119.116 389.319 118.933 389.219 118.765C389.123 118.591 388.977 118.452 388.781 118.348C388.585 118.238 388.339 118.184 388.043 118.184C387.76 118.184 387.526 118.229 387.339 118.32C387.157 118.407 387.02 118.521 386.929 118.662C386.842 118.803 386.799 118.958 386.799 119.127C386.799 119.25 386.822 119.362 386.867 119.462C386.917 119.558 386.999 119.646 387.113 119.729C387.227 119.806 387.382 119.879 387.578 119.947C387.779 120.016 388.029 120.082 388.33 120.146C388.895 120.264 389.381 120.417 389.786 120.604C390.196 120.786 390.511 121.023 390.729 121.314C390.948 121.602 391.058 121.966 391.058 122.408C391.058 122.736 390.987 123.037 390.846 123.311C390.709 123.579 390.508 123.814 390.244 124.015C389.98 124.211 389.663 124.363 389.294 124.473C388.929 124.582 388.519 124.637 388.063 124.637C387.394 124.637 386.826 124.518 386.361 124.281C385.896 124.04 385.543 123.732 385.302 123.358C385.065 122.98 384.946 122.588 384.946 122.183H386.539C386.557 122.488 386.642 122.732 386.792 122.914C386.947 123.092 387.138 123.222 387.366 123.304C387.599 123.381 387.838 123.42 388.084 123.42C388.38 123.42 388.629 123.381 388.829 123.304C389.03 123.222 389.182 123.112 389.287 122.976C389.392 122.834 389.444 122.675 389.444 122.497ZM395.761 124.637C395.214 124.637 394.719 124.548 394.277 124.37C393.84 124.188 393.466 123.935 393.156 123.611C392.851 123.288 392.616 122.907 392.452 122.47C392.288 122.032 392.206 121.561 392.206 121.055V120.781C392.206 120.202 392.29 119.678 392.459 119.209C392.628 118.74 392.862 118.339 393.163 118.006C393.464 117.669 393.819 117.411 394.229 117.233C394.64 117.056 395.084 116.967 395.562 116.967C396.091 116.967 396.554 117.056 396.95 117.233C397.347 117.411 397.675 117.662 397.935 117.985C398.199 118.304 398.395 118.685 398.522 119.127C398.655 119.569 398.721 120.057 398.721 120.59V121.294H393.006V120.111H397.094V119.981C397.085 119.685 397.025 119.407 396.916 119.147C396.811 118.888 396.649 118.678 396.431 118.519C396.212 118.359 395.92 118.279 395.556 118.279C395.282 118.279 395.038 118.339 394.824 118.457C394.615 118.571 394.439 118.737 394.298 118.956C394.157 119.175 394.047 119.439 393.97 119.749C393.897 120.054 393.86 120.398 393.86 120.781V121.055C393.86 121.378 393.904 121.679 393.99 121.957C394.081 122.23 394.214 122.47 394.387 122.675C394.56 122.88 394.77 123.042 395.016 123.16C395.262 123.274 395.542 123.331 395.856 123.331C396.253 123.331 396.606 123.251 396.916 123.092C397.226 122.932 397.495 122.707 397.723 122.415L398.591 123.256C398.431 123.488 398.224 123.712 397.969 123.926C397.714 124.135 397.401 124.306 397.032 124.438C396.668 124.571 396.244 124.637 395.761 124.637Z" fill="#77777A"/>
<path d="M239.611 139.104V146.5H237.957V139.104H239.611ZM237.848 137.162C237.848 136.911 237.93 136.704 238.094 136.54C238.262 136.371 238.495 136.287 238.791 136.287C239.083 136.287 239.313 136.371 239.481 136.54C239.65 136.704 239.734 136.911 239.734 137.162C239.734 137.408 239.65 137.613 239.481 137.777C239.313 137.941 239.083 138.023 238.791 138.023C238.495 138.023 238.262 137.941 238.094 137.777C237.93 137.613 237.848 137.408 237.848 137.162ZM243.063 140.607V146.5H241.416V139.104H242.968L243.063 140.607ZM242.797 142.528L242.236 142.521C242.236 142.011 242.3 141.539 242.428 141.106C242.555 140.674 242.742 140.298 242.988 139.979C243.234 139.655 243.54 139.407 243.904 139.233C244.273 139.056 244.7 138.967 245.183 138.967C245.52 138.967 245.827 139.017 246.105 139.117C246.388 139.213 246.632 139.366 246.837 139.575C247.047 139.785 247.206 140.054 247.315 140.382C247.429 140.71 247.486 141.106 247.486 141.571V146.5H245.839V141.715C245.839 141.355 245.784 141.072 245.675 140.867C245.57 140.662 245.417 140.516 245.217 140.43C245.021 140.339 244.786 140.293 244.513 140.293C244.203 140.293 243.938 140.352 243.72 140.471C243.506 140.589 243.33 140.751 243.193 140.956C243.057 141.161 242.956 141.398 242.893 141.667C242.829 141.936 242.797 142.223 242.797 142.528ZM247.384 142.091L246.611 142.262C246.611 141.815 246.673 141.394 246.796 140.997C246.924 140.596 247.108 140.245 247.35 139.944C247.596 139.639 247.899 139.4 248.259 139.227C248.619 139.053 249.031 138.967 249.496 138.967C249.874 138.967 250.212 139.019 250.508 139.124C250.809 139.224 251.064 139.384 251.273 139.603C251.483 139.821 251.643 140.106 251.752 140.457C251.861 140.803 251.916 141.223 251.916 141.715V146.5H250.262V141.708C250.262 141.334 250.207 141.045 250.098 140.84C249.993 140.635 249.842 140.493 249.646 140.416C249.451 140.334 249.216 140.293 248.942 140.293C248.687 140.293 248.462 140.341 248.266 140.437C248.074 140.528 247.912 140.658 247.78 140.826C247.648 140.99 247.548 141.179 247.479 141.394C247.416 141.608 247.384 141.84 247.384 142.091ZM257.781 145.017V141.489C257.781 141.225 257.733 140.997 257.638 140.806C257.542 140.614 257.396 140.466 257.2 140.361C257.009 140.257 256.767 140.204 256.476 140.204C256.207 140.204 255.974 140.25 255.778 140.341C255.582 140.432 255.43 140.555 255.32 140.71C255.211 140.865 255.156 141.04 255.156 141.236H253.516C253.516 140.945 253.586 140.662 253.728 140.389C253.869 140.115 254.074 139.871 254.343 139.657C254.612 139.443 254.933 139.274 255.307 139.151C255.68 139.028 256.1 138.967 256.564 138.967C257.12 138.967 257.613 139.06 258.041 139.247C258.474 139.434 258.813 139.716 259.06 140.095C259.31 140.468 259.436 140.938 259.436 141.503V144.791C259.436 145.128 259.458 145.431 259.504 145.7C259.554 145.965 259.625 146.195 259.716 146.391V146.5H258.027C257.95 146.322 257.888 146.097 257.843 145.823C257.802 145.545 257.781 145.276 257.781 145.017ZM258.021 142.002L258.034 143.021H256.852C256.546 143.021 256.277 143.05 256.045 143.109C255.812 143.164 255.619 143.246 255.464 143.355C255.309 143.465 255.193 143.597 255.115 143.752C255.038 143.907 254.999 144.082 254.999 144.278C254.999 144.474 255.045 144.654 255.136 144.818C255.227 144.978 255.359 145.103 255.532 145.194C255.71 145.285 255.924 145.331 256.175 145.331C256.512 145.331 256.806 145.263 257.057 145.126C257.312 144.985 257.512 144.814 257.658 144.613C257.804 144.408 257.882 144.215 257.891 144.032L258.424 144.764C258.369 144.951 258.276 145.151 258.144 145.365C258.011 145.579 257.838 145.785 257.624 145.98C257.414 146.172 257.161 146.329 256.865 146.452C256.574 146.575 256.236 146.637 255.854 146.637C255.37 146.637 254.94 146.541 254.562 146.35C254.183 146.154 253.887 145.892 253.673 145.563C253.459 145.231 253.352 144.855 253.352 144.436C253.352 144.044 253.424 143.697 253.57 143.396C253.721 143.091 253.939 142.836 254.227 142.631C254.518 142.426 254.874 142.271 255.293 142.166C255.712 142.057 256.191 142.002 256.729 142.002H258.021ZM265.896 139.104H267.393V146.295C267.393 146.96 267.251 147.525 266.969 147.99C266.686 148.455 266.292 148.808 265.786 149.05C265.28 149.296 264.695 149.419 264.029 149.419C263.747 149.419 263.432 149.378 263.086 149.296C262.744 149.214 262.411 149.082 262.088 148.899C261.769 148.722 261.502 148.487 261.288 148.195L262.061 147.225C262.325 147.539 262.617 147.769 262.936 147.915C263.255 148.061 263.59 148.134 263.94 148.134C264.319 148.134 264.64 148.063 264.904 147.922C265.173 147.785 265.381 147.582 265.526 147.313C265.672 147.045 265.745 146.716 265.745 146.329V140.778L265.896 139.104ZM260.871 142.884V142.74C260.871 142.18 260.939 141.669 261.076 141.209C261.213 140.744 261.409 140.345 261.664 140.013C261.919 139.675 262.229 139.418 262.594 139.24C262.958 139.058 263.371 138.967 263.831 138.967C264.31 138.967 264.717 139.053 265.055 139.227C265.396 139.4 265.681 139.648 265.909 139.972C266.137 140.291 266.315 140.674 266.442 141.12C266.575 141.562 266.673 142.054 266.736 142.597V143.055C266.677 143.583 266.577 144.066 266.436 144.504C266.294 144.941 266.107 145.32 265.875 145.639C265.643 145.958 265.355 146.204 265.014 146.377C264.676 146.55 264.278 146.637 263.817 146.637C263.366 146.637 262.958 146.543 262.594 146.356C262.234 146.17 261.924 145.908 261.664 145.57C261.409 145.233 261.213 144.837 261.076 144.381C260.939 143.921 260.871 143.422 260.871 142.884ZM262.519 142.74V142.884C262.519 143.221 262.55 143.535 262.614 143.827C262.683 144.119 262.785 144.376 262.922 144.6C263.063 144.818 263.241 144.992 263.455 145.119C263.674 145.242 263.931 145.304 264.228 145.304C264.615 145.304 264.932 145.222 265.178 145.058C265.428 144.894 265.62 144.673 265.752 144.395C265.889 144.112 265.984 143.798 266.039 143.451V142.214C266.012 141.945 265.955 141.694 265.868 141.462C265.786 141.229 265.674 141.027 265.533 140.854C265.392 140.676 265.214 140.539 265 140.443C264.786 140.343 264.533 140.293 264.241 140.293C263.945 140.293 263.688 140.357 263.469 140.484C263.25 140.612 263.07 140.787 262.929 141.011C262.792 141.234 262.689 141.494 262.621 141.79C262.553 142.086 262.519 142.403 262.519 142.74ZM272.362 146.637C271.815 146.637 271.321 146.548 270.879 146.37C270.441 146.188 270.068 145.935 269.758 145.611C269.452 145.288 269.218 144.907 269.054 144.47C268.89 144.032 268.808 143.561 268.808 143.055V142.781C268.808 142.202 268.892 141.678 269.061 141.209C269.229 140.74 269.464 140.339 269.765 140.006C270.065 139.669 270.421 139.411 270.831 139.233C271.241 139.056 271.686 138.967 272.164 138.967C272.693 138.967 273.155 139.056 273.552 139.233C273.948 139.411 274.276 139.662 274.536 139.985C274.8 140.304 274.996 140.685 275.124 141.127C275.256 141.569 275.322 142.057 275.322 142.59V143.294H269.607V142.111H273.695V141.981C273.686 141.685 273.627 141.407 273.518 141.147C273.413 140.888 273.251 140.678 273.032 140.519C272.813 140.359 272.522 140.279 272.157 140.279C271.884 140.279 271.64 140.339 271.426 140.457C271.216 140.571 271.041 140.737 270.899 140.956C270.758 141.175 270.649 141.439 270.571 141.749C270.498 142.054 270.462 142.398 270.462 142.781V143.055C270.462 143.378 270.505 143.679 270.592 143.957C270.683 144.23 270.815 144.47 270.988 144.675C271.161 144.88 271.371 145.042 271.617 145.16C271.863 145.274 272.144 145.331 272.458 145.331C272.854 145.331 273.208 145.251 273.518 145.092C273.827 144.932 274.096 144.707 274.324 144.415L275.192 145.256C275.033 145.488 274.826 145.712 274.57 145.926C274.315 146.135 274.003 146.306 273.634 146.438C273.269 146.571 272.845 146.637 272.362 146.637ZM284.243 144.497C284.243 144.333 284.202 144.185 284.12 144.053C284.038 143.916 283.881 143.793 283.648 143.684C283.421 143.574 283.083 143.474 282.637 143.383C282.245 143.296 281.885 143.194 281.557 143.075C281.233 142.952 280.955 142.804 280.723 142.631C280.49 142.458 280.31 142.253 280.183 142.016C280.055 141.779 279.991 141.505 279.991 141.195C279.991 140.895 280.057 140.61 280.189 140.341C280.322 140.072 280.511 139.835 280.757 139.63C281.003 139.425 281.301 139.263 281.652 139.145C282.008 139.026 282.404 138.967 282.842 138.967C283.462 138.967 283.993 139.072 284.435 139.281C284.881 139.486 285.223 139.767 285.46 140.122C285.697 140.473 285.815 140.869 285.815 141.312H284.168C284.168 141.116 284.118 140.933 284.018 140.765C283.922 140.591 283.776 140.452 283.58 140.348C283.384 140.238 283.138 140.184 282.842 140.184C282.559 140.184 282.325 140.229 282.138 140.32C281.955 140.407 281.819 140.521 281.728 140.662C281.641 140.803 281.598 140.958 281.598 141.127C281.598 141.25 281.62 141.362 281.666 141.462C281.716 141.558 281.798 141.646 281.912 141.729C282.026 141.806 282.181 141.879 282.377 141.947C282.577 142.016 282.828 142.082 283.129 142.146C283.694 142.264 284.179 142.417 284.585 142.604C284.995 142.786 285.31 143.023 285.528 143.314C285.747 143.602 285.856 143.966 285.856 144.408C285.856 144.736 285.786 145.037 285.645 145.311C285.508 145.579 285.307 145.814 285.043 146.015C284.779 146.211 284.462 146.363 284.093 146.473C283.728 146.582 283.318 146.637 282.862 146.637C282.192 146.637 281.625 146.518 281.16 146.281C280.695 146.04 280.342 145.732 280.101 145.358C279.864 144.98 279.745 144.588 279.745 144.183H281.338C281.356 144.488 281.44 144.732 281.591 144.914C281.746 145.092 281.937 145.222 282.165 145.304C282.397 145.381 282.637 145.42 282.883 145.42C283.179 145.42 283.427 145.381 283.628 145.304C283.828 145.222 283.981 145.112 284.086 144.976C284.191 144.834 284.243 144.675 284.243 144.497ZM289.062 139.104V146.5H287.408V139.104H289.062ZM287.299 137.162C287.299 136.911 287.381 136.704 287.545 136.54C287.714 136.371 287.946 136.287 288.242 136.287C288.534 136.287 288.764 136.371 288.933 136.54C289.101 136.704 289.186 136.911 289.186 137.162C289.186 137.408 289.101 137.613 288.933 137.777C288.764 137.941 288.534 138.023 288.242 138.023C287.946 138.023 287.714 137.941 287.545 137.777C287.381 137.613 287.299 137.408 287.299 137.162ZM296.589 145.188V146.5H291.079V145.188H296.589ZM296.438 140.129L291.64 146.5H290.573V145.44L295.345 139.104H296.438V140.129ZM295.803 139.104V140.416H290.655V139.104H295.803ZM301.06 146.637C300.513 146.637 300.018 146.548 299.576 146.37C299.139 146.188 298.765 145.935 298.455 145.611C298.15 145.288 297.915 144.907 297.751 144.47C297.587 144.032 297.505 143.561 297.505 143.055V142.781C297.505 142.202 297.589 141.678 297.758 141.209C297.926 140.74 298.161 140.339 298.462 140.006C298.763 139.669 299.118 139.411 299.528 139.233C299.938 139.056 300.383 138.967 300.861 138.967C301.39 138.967 301.853 139.056 302.249 139.233C302.646 139.411 302.974 139.662 303.233 139.985C303.498 140.304 303.694 140.685 303.821 141.127C303.953 141.569 304.02 142.057 304.02 142.59V143.294H298.305V142.111H302.393V141.981C302.383 141.685 302.324 141.407 302.215 141.147C302.11 140.888 301.948 140.678 301.729 140.519C301.511 140.359 301.219 140.279 300.854 140.279C300.581 140.279 300.337 140.339 300.123 140.457C299.913 140.571 299.738 140.737 299.597 140.956C299.455 141.175 299.346 141.439 299.269 141.749C299.196 142.054 299.159 142.398 299.159 142.781V143.055C299.159 143.378 299.202 143.679 299.289 143.957C299.38 144.23 299.512 144.47 299.686 144.675C299.859 144.88 300.068 145.042 300.314 145.16C300.561 145.274 300.841 145.331 301.155 145.331C301.552 145.331 301.905 145.251 302.215 145.092C302.525 144.932 302.794 144.707 303.021 144.415L303.89 145.256C303.73 145.488 303.523 145.712 303.268 145.926C303.012 146.135 302.7 146.306 302.331 146.438C301.966 146.571 301.543 146.637 301.06 146.637ZM313.672 136.485H313.877V137.832H313.761C313.173 137.832 312.665 137.923 312.236 138.105C311.812 138.288 311.464 138.538 311.19 138.857C310.917 139.176 310.712 139.55 310.575 139.979C310.443 140.402 310.377 140.854 310.377 141.332V142.897C310.377 143.294 310.42 143.645 310.507 143.95C310.593 144.251 310.714 144.504 310.869 144.709C311.029 144.91 311.211 145.062 311.416 145.167C311.621 145.272 311.842 145.324 312.079 145.324C312.325 145.324 312.549 145.274 312.749 145.174C312.95 145.069 313.12 144.925 313.262 144.743C313.403 144.561 313.51 144.344 313.583 144.094C313.656 143.843 313.692 143.57 313.692 143.273C313.692 142.991 313.656 142.727 313.583 142.48C313.515 142.23 313.412 142.011 313.275 141.824C313.139 141.633 312.968 141.485 312.763 141.38C312.562 141.271 312.33 141.216 312.065 141.216C311.737 141.216 311.439 141.293 311.17 141.448C310.906 141.603 310.691 141.806 310.527 142.057C310.368 142.303 310.281 142.565 310.268 142.843L309.639 142.638C309.675 142.214 309.769 141.833 309.919 141.496C310.074 141.159 310.277 140.872 310.527 140.635C310.778 140.398 311.067 140.218 311.396 140.095C311.728 139.967 312.093 139.903 312.489 139.903C312.972 139.903 313.392 139.994 313.747 140.177C314.103 140.359 314.396 140.607 314.629 140.922C314.866 141.232 315.041 141.587 315.155 141.988C315.274 142.385 315.333 142.799 315.333 143.232C315.333 143.711 315.26 144.158 315.114 144.572C314.968 144.982 314.754 145.342 314.472 145.652C314.194 145.962 313.854 146.204 313.453 146.377C313.057 146.55 312.605 146.637 312.1 146.637C311.566 146.637 311.09 146.534 310.671 146.329C310.256 146.124 309.903 145.841 309.611 145.481C309.324 145.121 309.105 144.707 308.955 144.237C308.805 143.768 308.729 143.271 308.729 142.747V142.063C308.729 141.307 308.825 140.594 309.017 139.924C309.208 139.249 309.502 138.655 309.898 138.14C310.299 137.625 310.812 137.221 311.437 136.93C312.061 136.633 312.806 136.485 313.672 136.485ZM323.14 140.689V142.316C323.14 143.096 323.062 143.761 322.907 144.312C322.757 144.859 322.538 145.304 322.251 145.646C321.964 145.987 321.62 146.238 321.219 146.397C320.822 146.557 320.378 146.637 319.886 146.637C319.494 146.637 319.129 146.587 318.792 146.486C318.459 146.386 318.159 146.229 317.89 146.015C317.621 145.8 317.391 145.525 317.199 145.188C317.012 144.846 316.867 144.438 316.762 143.964C316.661 143.49 316.611 142.941 316.611 142.316V140.689C316.611 139.906 316.689 139.245 316.844 138.707C316.999 138.165 317.22 137.725 317.507 137.388C317.794 137.046 318.136 136.798 318.532 136.643C318.933 136.488 319.38 136.41 319.872 136.41C320.269 136.41 320.633 136.46 320.966 136.561C321.303 136.656 321.604 136.809 321.868 137.019C322.137 137.228 322.365 137.502 322.552 137.839C322.743 138.172 322.889 138.575 322.989 139.049C323.09 139.518 323.14 140.065 323.14 140.689ZM321.492 142.549V140.443C321.492 140.047 321.469 139.698 321.424 139.397C321.378 139.092 321.31 138.835 321.219 138.625C321.132 138.411 321.023 138.238 320.891 138.105C320.758 137.969 320.608 137.871 320.439 137.812C320.271 137.748 320.082 137.716 319.872 137.716C319.617 137.716 319.389 137.766 319.188 137.866C318.988 137.962 318.819 138.117 318.683 138.331C318.546 138.545 318.441 138.828 318.368 139.179C318.3 139.525 318.266 139.947 318.266 140.443V142.549C318.266 142.95 318.288 143.303 318.334 143.608C318.38 143.914 318.448 144.176 318.539 144.395C318.63 144.609 318.74 144.786 318.867 144.928C318.999 145.064 319.15 145.165 319.318 145.229C319.492 145.292 319.681 145.324 319.886 145.324C320.146 145.324 320.376 145.274 320.576 145.174C320.777 145.074 320.945 144.914 321.082 144.695C321.219 144.472 321.321 144.183 321.39 143.827C321.458 143.472 321.492 143.046 321.492 142.549ZM331.097 140.689V142.316C331.097 143.096 331.019 143.761 330.864 144.312C330.714 144.859 330.495 145.304 330.208 145.646C329.921 145.987 329.577 146.238 329.176 146.397C328.779 146.557 328.335 146.637 327.843 146.637C327.451 146.637 327.086 146.587 326.749 146.486C326.416 146.386 326.116 146.229 325.847 146.015C325.578 145.8 325.348 145.525 325.156 145.188C324.969 144.846 324.824 144.438 324.719 143.964C324.618 143.49 324.568 142.941 324.568 142.316V140.689C324.568 139.906 324.646 139.245 324.801 138.707C324.956 138.165 325.177 137.725 325.464 137.388C325.751 137.046 326.093 136.798 326.489 136.643C326.89 136.488 327.337 136.41 327.829 136.41C328.226 136.41 328.59 136.46 328.923 136.561C329.26 136.656 329.561 136.809 329.825 137.019C330.094 137.228 330.322 137.502 330.509 137.839C330.7 138.172 330.846 138.575 330.946 139.049C331.047 139.518 331.097 140.065 331.097 140.689ZM329.449 142.549V140.443C329.449 140.047 329.426 139.698 329.381 139.397C329.335 139.092 329.267 138.835 329.176 138.625C329.089 138.411 328.98 138.238 328.848 138.105C328.715 137.969 328.565 137.871 328.396 137.812C328.228 137.748 328.039 137.716 327.829 137.716C327.574 137.716 327.346 137.766 327.146 137.866C326.945 137.962 326.776 138.117 326.64 138.331C326.503 138.545 326.398 138.828 326.325 139.179C326.257 139.525 326.223 139.947 326.223 140.443V142.549C326.223 142.95 326.245 143.303 326.291 143.608C326.337 143.914 326.405 144.176 326.496 144.395C326.587 144.609 326.697 144.786 326.824 144.928C326.956 145.064 327.107 145.165 327.275 145.229C327.449 145.292 327.638 145.324 327.843 145.324C328.103 145.324 328.333 145.274 328.533 145.174C328.734 145.074 328.902 144.914 329.039 144.695C329.176 144.472 329.278 144.183 329.347 143.827C329.415 143.472 329.449 143.046 329.449 142.549ZM333.92 139.104L335.328 141.558L336.764 139.104H338.575L336.333 142.733L338.664 146.5H336.853L335.349 143.943L333.845 146.5H332.026L334.351 142.733L332.115 139.104H333.92ZM346.279 145.188V146.5H339.607V145.372L342.848 141.838C343.203 141.437 343.483 141.09 343.688 140.799C343.894 140.507 344.037 140.245 344.119 140.013C344.206 139.776 344.249 139.546 344.249 139.322C344.249 139.008 344.19 138.732 344.071 138.495C343.957 138.254 343.789 138.064 343.565 137.928C343.342 137.786 343.071 137.716 342.752 137.716C342.383 137.716 342.073 137.796 341.822 137.955C341.572 138.115 341.382 138.336 341.255 138.618C341.127 138.896 341.063 139.215 341.063 139.575H339.416C339.416 138.996 339.548 138.468 339.812 137.989C340.077 137.506 340.46 137.123 340.961 136.841C341.462 136.554 342.066 136.41 342.772 136.41C343.438 136.41 344.003 136.522 344.468 136.745C344.933 136.968 345.286 137.285 345.527 137.695C345.773 138.105 345.896 138.591 345.896 139.151C345.896 139.461 345.846 139.769 345.746 140.074C345.646 140.38 345.502 140.685 345.315 140.99C345.133 141.291 344.917 141.594 344.666 141.899C344.415 142.2 344.14 142.506 343.839 142.815L341.686 145.188H346.279ZM354.175 136.547V137.449L350.196 146.5H348.46L352.432 137.859H347.277V136.547H354.175ZM362.009 140.689V142.316C362.009 143.096 361.931 143.761 361.776 144.312C361.626 144.859 361.407 145.304 361.12 145.646C360.833 145.987 360.489 146.238 360.088 146.397C359.691 146.557 359.247 146.637 358.755 146.637C358.363 146.637 357.998 146.587 357.661 146.486C357.328 146.386 357.028 146.229 356.759 146.015C356.49 145.8 356.26 145.525 356.068 145.188C355.882 144.846 355.736 144.438 355.631 143.964C355.531 143.49 355.48 142.941 355.48 142.316V140.689C355.48 139.906 355.558 139.245 355.713 138.707C355.868 138.165 356.089 137.725 356.376 137.388C356.663 137.046 357.005 136.798 357.401 136.643C357.802 136.488 358.249 136.41 358.741 136.41C359.138 136.41 359.502 136.46 359.835 136.561C360.172 136.656 360.473 136.809 360.737 137.019C361.006 137.228 361.234 137.502 361.421 137.839C361.612 138.172 361.758 138.575 361.858 139.049C361.959 139.518 362.009 140.065 362.009 140.689ZM360.361 142.549V140.443C360.361 140.047 360.339 139.698 360.293 139.397C360.247 139.092 360.179 138.835 360.088 138.625C360.001 138.411 359.892 138.238 359.76 138.105C359.628 137.969 359.477 137.871 359.309 137.812C359.14 137.748 358.951 137.716 358.741 137.716C358.486 137.716 358.258 137.766 358.058 137.866C357.857 137.962 357.688 138.117 357.552 138.331C357.415 138.545 357.31 138.828 357.237 139.179C357.169 139.525 357.135 139.947 357.135 140.443V142.549C357.135 142.95 357.158 143.303 357.203 143.608C357.249 143.914 357.317 144.176 357.408 144.395C357.499 144.609 357.609 144.786 357.736 144.928C357.868 145.064 358.019 145.165 358.188 145.229C358.361 145.292 358.55 145.324 358.755 145.324C359.015 145.324 359.245 145.274 359.445 145.174C359.646 145.074 359.814 144.914 359.951 144.695C360.088 144.472 360.19 144.183 360.259 143.827C360.327 143.472 360.361 143.046 360.361 142.549Z" fill="#77777A"/>
</svg>
