<svg xmlns="http://www.w3.org/2000/svg" width="20" height="16" viewBox="0 0 20 16" fill="none">
<g clip-path="url(#clip0_3008_1590)">
<path d="M0 4.66663H20V11.3333H0V4.66663Z" fill="white"/>
<path d="M2.66667 0H17.3333C18.8053 0 20 1.19467 20 2.66667V5.33333H0V2.66667C0 1.19467 1.19467 0 2.66667 0Z" fill="#E06535"/>
<path d="M17.3333 16L2.66667 16C1.19467 16 0 14.8053 0 13.3333V10.6667L20 10.6667V13.3333C20 14.8053 18.8053 16 17.3333 16Z" fill="#2C6837"/>
<path opacity="0.15" d="M17.3333 0H2.66667C1.194 0 0 1.194 0 2.66667V13.3333C0 14.806 1.194 16 2.66667 16H17.3333C18.806 16 20 14.806 20 13.3333V2.66667C20 1.194 18.806 0 17.3333 0ZM19.3333 13.3333C19.3333 14.436 18.436 15.3333 17.3333 15.3333H2.66667C1.564 15.3333 0.666667 14.436 0.666667 13.3333V2.66667C0.666667 1.564 1.564 0.666667 2.66667 0.666667H17.3333C18.436 0.666667 19.3333 1.564 19.3333 2.66667V13.3333Z" fill="black"/>
<path d="M10.0001 5.52795C8.63474 5.52795 7.52808 6.63462 7.52808 7.99995C7.52808 9.36529 8.63474 10.472 10.0001 10.472C11.3654 10.472 12.4721 9.36529 12.4721 7.99995C12.4721 6.63462 11.3654 5.52795 10.0001 5.52795ZM12.0274 8.26729C12.0207 8.31795 12.0554 8.36395 12.1054 8.37195C12.0834 8.49595 12.0521 8.61662 12.0101 8.73195C11.9627 8.71329 11.9087 8.73595 11.8894 8.78329C11.8701 8.83062 11.8921 8.88395 11.9381 8.90462C11.9114 8.96129 11.8827 9.01595 11.8514 9.06995L10.7774 8.35729L10.3827 8.19129C10.3914 8.17395 10.3987 8.15595 10.4054 8.13729L10.8021 8.29862L12.0654 8.55395L10.8434 8.14329L10.4194 8.08529C10.4234 8.06662 10.4254 8.04729 10.4267 8.02729L10.8521 8.08062L12.1387 8.00062L10.8521 7.92062L10.4267 7.97395C10.4254 7.95395 10.4234 7.93462 10.4194 7.91595L10.8434 7.85795L12.0654 7.44729L10.8021 7.70262L10.4054 7.86395C10.3994 7.84529 10.3914 7.82729 10.3827 7.80995L10.7774 7.64395L11.8514 6.93129C11.8827 6.98529 11.9114 7.03995 11.9381 7.09662C11.8914 7.11729 11.8694 7.17062 11.8894 7.21795C11.9087 7.26529 11.9627 7.28795 12.0101 7.26929C12.0521 7.38462 12.0841 7.50529 12.1054 7.62929C12.0554 7.63729 12.0207 7.68329 12.0274 7.73395C12.0341 7.78462 12.0794 7.81995 12.1301 7.81462C12.1354 7.87595 12.1387 7.93795 12.1387 8.00062C12.1387 8.06329 12.1354 8.12529 12.1301 8.18662C12.0801 8.18129 12.0341 8.21662 12.0274 8.26729ZM11.6381 6.62595C11.5987 6.65795 11.5914 6.71529 11.6227 6.75529C11.6534 6.79529 11.7107 6.80329 11.7521 6.77395C11.7874 6.82462 11.8207 6.87729 11.8514 6.93129L10.6981 7.50529L10.3567 7.76395C10.3461 7.74795 10.3341 7.73262 10.3207 7.71795L10.6594 7.45529L11.5127 6.48862L10.5461 7.34195L10.2834 7.68062C10.2687 7.66795 10.2534 7.65529 10.2374 7.64462L10.4961 7.30329L11.0701 6.14929C11.1241 6.18062 11.1767 6.21395 11.2274 6.24929C11.1974 6.28995 11.2054 6.34729 11.2461 6.37862C11.2867 6.40929 11.3441 6.40262 11.3754 6.36329C11.4227 6.40329 11.4694 6.44529 11.5134 6.48929C11.5574 6.53329 11.5994 6.57929 11.6394 6.62729L11.6381 6.62595ZM10.1867 5.87062C10.1814 5.92062 10.2167 5.96662 10.2674 5.97329C10.3181 5.97995 10.3641 5.94529 10.3721 5.89529C10.4961 5.91729 10.6167 5.94862 10.7321 5.99062C10.7134 6.03795 10.7361 6.09195 10.7834 6.11129C10.8307 6.13062 10.8841 6.10862 10.9047 6.06262C10.9614 6.08929 11.0161 6.11795 11.0701 6.14929L10.3574 7.22329L10.1914 7.61795C10.1741 7.60929 10.1561 7.60195 10.1374 7.59529L10.2987 7.19862L10.5541 5.93529L10.1434 7.15729L10.0854 7.58129C10.0667 7.57729 10.0474 7.57529 10.0274 7.57395L10.0807 7.14862L10.0007 5.86195L9.92074 7.14862L9.97408 7.57395C9.95408 7.57529 9.93474 7.57729 9.91608 7.58129L9.85808 7.15729L9.44741 5.93529L9.70274 7.19862L9.86408 7.59529C9.84541 7.60129 9.82741 7.60929 9.81008 7.61795L9.64408 7.22329L8.93141 6.14929C8.98541 6.11795 9.04008 6.08929 9.09674 6.06262C9.11741 6.10929 9.17074 6.13129 9.21808 6.11129C9.26541 6.09195 9.28808 6.03795 9.26941 5.99062C9.38474 5.94862 9.50541 5.91662 9.62941 5.89529C9.63741 5.94529 9.68341 5.97995 9.73408 5.97329C9.78474 5.96662 9.82008 5.92129 9.81474 5.87062C9.87608 5.86529 9.93808 5.86195 10.0007 5.86195C10.0634 5.86195 10.1254 5.86529 10.1867 5.87062ZM8.11141 8.78262C8.09208 8.73529 8.03808 8.71262 7.99074 8.73129C7.94874 8.61595 7.91674 8.49529 7.89541 8.37129C7.94541 8.36329 7.98008 8.31729 7.97341 8.26662C7.96674 8.21595 7.92141 8.18062 7.87074 8.18595C7.86541 8.12462 7.86208 8.06262 7.86208 7.99995C7.86208 7.93729 7.86541 7.87529 7.87074 7.81395C7.92074 7.81929 7.96674 7.78395 7.97341 7.73329C7.98008 7.68262 7.94541 7.63662 7.89541 7.62862C7.91741 7.50462 7.94874 7.38395 7.99074 7.26862C8.03808 7.28729 8.09208 7.26462 8.11141 7.21729C8.13074 7.16995 8.10874 7.11662 8.06274 7.09595C8.08941 7.03929 8.11808 6.98462 8.14941 6.93062L9.22341 7.64329L9.61808 7.80929C9.60941 7.82662 9.60208 7.84462 9.59541 7.86329L9.19874 7.70195L7.93541 7.44662L9.15741 7.85729L9.58141 7.91529C9.57741 7.93395 9.57541 7.95329 9.57408 7.97329L9.14874 7.91995L7.86208 7.99995L9.14874 8.07995L9.57408 8.02662C9.57541 8.04662 9.57741 8.06595 9.58141 8.08462L9.15741 8.14262L7.93541 8.55329L9.19874 8.29795L9.59541 8.13662C9.60141 8.15529 9.60941 8.17329 9.61808 8.19062L9.22341 8.35662L8.14941 9.06929C8.11808 9.01529 8.08941 8.96062 8.06274 8.90395C8.10941 8.88329 8.13141 8.82995 8.11141 8.78262ZM8.62608 6.36262C8.65808 6.40195 8.71541 6.40929 8.75541 6.37795C8.79541 6.34729 8.80341 6.28995 8.77408 6.24862C8.82474 6.21329 8.87741 6.17929 8.93141 6.14862L9.50541 7.30262L9.76408 7.64395C9.74808 7.65462 9.73274 7.66662 9.71808 7.67995L9.45541 7.34129L8.48874 6.48795L9.34208 7.45462L9.68074 7.71729C9.66808 7.73195 9.65541 7.74729 9.64474 7.76329L9.30341 7.50462L8.14941 6.93062C8.18074 6.87662 8.21408 6.82395 8.24941 6.77329C8.29008 6.80329 8.34741 6.79529 8.37874 6.75462C8.40941 6.71395 8.40274 6.65662 8.36341 6.62529C8.40341 6.57795 8.44541 6.53129 8.48941 6.48729C8.53341 6.44329 8.57941 6.40129 8.62741 6.36129L8.62608 6.36262ZM8.36274 9.37462C8.40208 9.34262 8.40941 9.28529 8.37808 9.24529C8.34741 9.20529 8.29008 9.19729 8.24874 9.22662C8.21341 9.17595 8.17941 9.12329 8.14874 9.06929L9.30274 8.49529L9.64408 8.23662C9.65474 8.25262 9.66674 8.26795 9.68008 8.28262L9.34141 8.54529L8.48808 9.51195L9.45474 8.65862L9.71741 8.31995C9.73208 8.33262 9.74741 8.34529 9.76341 8.35595L9.50474 8.69729L8.93074 9.85129C8.87674 9.81995 8.82408 9.78662 8.77341 9.75129C8.80341 9.71062 8.79541 9.65329 8.75474 9.62195C8.71408 9.59129 8.65674 9.59795 8.62541 9.63729C8.57808 9.59729 8.53141 9.55529 8.48741 9.51129C8.44341 9.46729 8.40141 9.42129 8.36141 9.37329L8.36274 9.37462ZM9.81408 10.13C9.81941 10.08 9.78408 10.034 9.73341 10.0273C9.68274 10.0206 9.63674 10.0553 9.62874 10.1053C9.50474 10.0833 9.38408 10.052 9.26874 10.01C9.28741 9.96262 9.26474 9.90862 9.21741 9.88929C9.17008 9.86995 9.11674 9.89195 9.09608 9.93795C9.03941 9.91129 8.98474 9.88262 8.93074 9.85129L9.64341 8.77729L9.80941 8.38262C9.82674 8.39129 9.84474 8.39862 9.86341 8.40529L9.70208 8.80195L9.44674 10.0653L9.85741 8.84329L9.91541 8.41929C9.93408 8.42329 9.95341 8.42529 9.97341 8.42662L9.92008 8.85195L10.0001 10.1386L10.0801 8.85195L10.0267 8.42662C10.0467 8.42529 10.0661 8.42329 10.0847 8.41929L10.1427 8.84329L10.5534 10.0653L10.2981 8.80195L10.1367 8.40529C10.1554 8.39929 10.1734 8.39129 10.1907 8.38262L10.3567 8.77729L11.0694 9.85129C11.0154 9.88262 10.9607 9.91129 10.9041 9.93795C10.8834 9.89129 10.8301 9.86929 10.7827 9.88929C10.7354 9.90862 10.7127 9.96262 10.7314 10.01C10.6161 10.052 10.4954 10.084 10.3714 10.1053C10.3634 10.0553 10.3174 10.0206 10.2667 10.0273C10.2161 10.034 10.1807 10.0793 10.1861 10.13C10.1247 10.1353 10.0627 10.1386 10.0001 10.1386C9.93741 10.1386 9.87541 10.1353 9.81408 10.13ZM11.3747 9.63795C11.3427 9.59862 11.2854 9.59129 11.2454 9.62262C11.2054 9.65329 11.1974 9.71062 11.2267 9.75195C11.1761 9.78729 11.1234 9.82062 11.0694 9.85129L10.4954 8.69795L10.2367 8.35662C10.2527 8.34595 10.2681 8.33395 10.2827 8.32062L10.5454 8.65929L11.5121 9.51262L10.6587 8.54595L10.3201 8.28329C10.3327 8.26862 10.3454 8.25329 10.3561 8.23729L10.6974 8.49595L11.8514 9.06995C11.8201 9.12395 11.7867 9.17662 11.7514 9.22729C11.7107 9.19729 11.6534 9.20529 11.6221 9.24595C11.5914 9.28662 11.5981 9.34395 11.6374 9.37529C11.5974 9.42262 11.5554 9.46929 11.5114 9.51329C11.4674 9.55729 11.4214 9.59929 11.3734 9.63929L11.3747 9.63795Z" fill="#2C2C6B"/>
<path opacity="0.2" d="M17.3334 0.666626H2.66675C1.56208 0.666626 0.666748 1.56196 0.666748 2.66663V3.33329C0.666748 2.22863 1.56208 1.33329 2.66675 1.33329H17.3334C18.4381 1.33329 19.3334 2.22863 19.3334 3.33329V2.66663C19.3334 1.56196 18.4381 0.666626 17.3334 0.666626Z" fill="white"/>
</g>
<defs>
<clipPath id="clip0_3008_1590">
<rect width="20" height="16" fill="white"/>
</clipPath>
</defs>
</svg>