<svg xmlns="http://www.w3.org/2000/svg" width="24" height="24" viewBox="0 0 24 24" fill="none">
    <rect x="3.47998" y="3.74658" width="16.585" height="15.9745" rx="2.43897" stroke="#28519E" stroke-width="0.975586"/>
    <path d="M16.546 15.7952C16.2347 16.0943 15.7318 16.0943 15.4205 15.7952L11.7569 12.2748C11.4456 11.9757 11.4456 11.4925 11.7569 11.1934L15.4205 7.67304C15.7318 7.37393 16.2347 7.37393 16.546 7.67304C16.8573 7.97216 16.8573 8.45535 16.546 8.75446L13.449 11.738L16.546 14.7138C16.8573 15.0129 16.8493 15.5037 16.546 15.7952Z" fill="#28519E"/>
    <path d="M3.57715 5.68555C3.57715 4.60794 4.45072 3.73438 5.52832 3.73438H8.11305V19.7344H5.52832C4.45072 19.7344 3.57715 18.8608 3.57715 17.7832V5.68555Z" fill="#28519E"/>
  </svg>