<svg width="32" height="32" viewBox="0 0 32 32" fill="none" xmlns="http://www.w3.org/2000/svg">
<rect width="32" height="32" rx="16" fill="#0078B5"/>
<path d="M7.77862 13.009H11.2718V24.2509H7.77862V13.009ZM9.52655 7.4209C10.6436 7.4209 11.5505 8.32772 11.5505 9.44744C11.5505 10.5672 10.6436 11.474 9.52655 11.474C8.40682 11.474 7.50001 10.5672 7.50001 9.44744C7.49738 8.33035 8.4042 7.4209 9.52655 7.4209Z" fill="white"/>
<path d="M13.4639 13.0088H16.8152V14.5438H16.8625C17.3277 13.6606 18.4658 12.7275 20.1691 12.7275C23.707 12.7275 24.3615 15.0564 24.3615 18.0817V24.2507H20.8682V18.7861C20.8682 17.4798 20.8446 15.8055 19.052 15.8055C17.2331 15.8055 16.9545 17.2248 16.9545 18.6915V24.2533H13.4639V13.0088Z" fill="white"/>
</svg>
