<svg width="33" height="32" viewBox="0 0 33 32" fill="none" xmlns="http://www.w3.org/2000/svg">
<rect x="0.666504" width="32" height="32" rx="8" fill="#E3F3FC"/>
<g clip-path="url(#clip0_11818_3301)">
<path d="M18.869 20C18.9927 20 19.1155 19.9615 19.2207 19.8852C19.407 19.7503 19.4977 19.5255 19.4592 19.2991L19.0906 17.1489L20.6523 15.6266C20.8168 15.4661 20.8755 15.2308 20.804 15.0116C20.7325 14.7924 20.5471 14.6367 20.3198 14.6038L18.1609 14.2898L17.195 12.334C17.093 12.1277 16.8875 12 16.6578 12C16.4282 12 16.2219 12.1277 16.1207 12.334L15.1548 14.2898L12.9967 14.6038C12.7686 14.6367 12.584 14.7924 12.5125 15.0116C12.4419 15.23 12.4997 15.4661 12.6643 15.6258L14.2267 17.1481L13.8582 19.2983C13.8196 19.5247 13.9104 19.7495 14.0966 19.8844C14.2829 20.0193 14.5246 20.0369 14.7277 19.9302L16.6586 18.9153L18.5896 19.9302C18.6779 19.9767 18.7735 19.9992 18.869 19.9992L18.869 20Z" fill="#28519E"/>
<path d="M28.0472 15.1724C27.9874 14.9888 27.832 14.8583 27.6416 14.8307L25.8329 14.5677L25.0237 12.9292C24.9383 12.7564 24.7661 12.6494 24.5738 12.6494C24.3814 12.6494 24.2085 12.7564 24.1238 12.9292L23.3146 14.5677L21.5066 14.8307C21.3155 14.8583 21.1609 14.9888 21.101 15.1724C21.0418 15.3554 21.0902 15.5531 21.2281 15.687L22.537 16.9623L22.2283 18.7636C22.196 18.9533 22.272 19.1416 22.4281 19.2546C22.5841 19.3676 22.7859 19.3824 22.9568 19.293L24.5744 18.4428L26.1921 19.293C26.2661 19.332 26.3461 19.3508 26.4262 19.3508C26.5298 19.3508 26.6327 19.3185 26.7208 19.2546C26.8768 19.1416 26.9528 18.9533 26.9205 18.7636L26.6118 16.9623L27.9201 15.687C28.058 15.5525 28.1071 15.3554 28.0472 15.1718L28.0472 15.1724Z" fill="#28519E"/>
<path d="M11.8262 14.8307L10.0175 14.5677L9.20832 12.9292C9.1229 12.7564 8.9507 12.6494 8.75833 12.6494C8.56596 12.6494 8.39309 12.7564 8.30834 12.9292L7.49917 14.5677L5.69115 14.8307C5.50012 14.8583 5.34542 14.9888 5.28555 15.1724C5.22636 15.3554 5.27479 15.5531 5.41268 15.687L6.72161 16.9623L6.41287 18.7636C6.38059 18.9533 6.4566 19.1416 6.61265 19.2546C6.76871 19.3676 6.97116 19.3824 7.14133 19.293L8.759 18.4428L10.3767 19.293C10.4506 19.332 10.5307 19.3508 10.6107 19.3508C10.7143 19.3508 10.8172 19.3185 10.9053 19.2546C11.0614 19.1416 11.1374 18.9533 11.1051 18.7636L10.7964 16.9623L12.1046 15.687C12.2425 15.5525 12.2916 15.3554 12.2318 15.1718C12.1719 14.9881 12.0165 14.8576 11.8262 14.8301L11.8262 14.8307Z" fill="#28519E"/>
</g>
<defs>
<clipPath id="clip0_11818_3301">
<rect width="24" height="24" fill="white" transform="translate(4.6665 4)"/>
</clipPath>
</defs>
</svg>
