<svg xmlns="http://www.w3.org/2000/svg" width="29" height="24" viewBox="0 0 29 24" fill="none">
<circle cx="10.2529" cy="12" r="10" fill="#FFB81C"/>
<path d="M20.0029 14.2501C20.0029 14.449 19.9239 14.6398 19.7833 14.7804C19.6426 14.9211 19.4518 15.0001 19.2529 15.0001H13.2529C13.054 15.0001 12.8633 14.9211 12.7226 14.7804C12.5819 14.6398 12.5029 14.449 12.5029 14.2501C12.5029 14.0512 12.5819 13.8604 12.7226 13.7198C12.8633 13.5791 13.054 13.5001 13.2529 13.5001H19.2529C19.4518 13.5001 19.6426 13.5791 19.7833 13.7198C19.9239 13.8604 20.0029 14.0512 20.0029 14.2501ZM19.2529 10.5001H13.2529C13.054 10.5001 12.8633 10.5791 12.7226 10.7198C12.5819 10.8604 12.5029 11.0512 12.5029 11.2501C12.5029 11.449 12.5819 11.6398 12.7226 11.7804C12.8633 11.9211 13.054 12.0001 13.2529 12.0001H19.2529C19.4518 12.0001 19.6426 11.9211 19.7833 11.7804C19.9239 11.6398 20.0029 11.449 20.0029 11.2501C20.0029 11.0512 19.9239 10.8604 19.7833 10.7198C19.6426 10.5791 19.4518 10.5001 19.2529 10.5001ZM24.5029 4.50011V20.2501C24.5029 20.6479 24.3449 21.0295 24.0636 21.3108C23.7823 21.5921 23.4008 21.7501 23.0029 21.7501H9.50293C9.1051 21.7501 8.72357 21.5921 8.44227 21.3108C8.16096 21.0295 8.00293 20.6479 8.00293 20.2501V4.50011C8.00293 4.10228 8.16096 3.72075 8.44227 3.43945C8.72357 3.15814 9.1051 3.00011 9.50293 3.00011H12.9023C13.3237 2.52829 13.84 2.15079 14.4174 1.89232C14.9948 1.63385 15.6203 1.50024 16.2529 1.50024C16.8855 1.50024 17.511 1.63385 18.0884 1.89232C18.6658 2.15079 19.1821 2.52829 19.6036 3.00011H23.0029C23.4008 3.00011 23.7823 3.15814 24.0636 3.43945C24.3449 3.72075 24.5029 4.10228 24.5029 4.50011ZM13.2529 6.00011H19.2529C19.2529 5.20446 18.9369 4.4414 18.3742 3.87879C17.8116 3.31618 17.0486 3.00011 16.2529 3.00011C15.4573 3.00011 14.6942 3.31618 14.1316 3.87879C13.569 4.4414 13.2529 5.20446 13.2529 6.00011ZM23.0029 4.50011H20.4951C20.6657 4.98181 20.7529 5.48909 20.7529 6.00011V6.75011C20.7529 6.94902 20.6739 7.13979 20.5333 7.28044C20.3926 7.42109 20.2018 7.50011 20.0029 7.50011H12.5029C12.304 7.50011 12.1133 7.42109 11.9726 7.28044C11.8319 7.13979 11.7529 6.94902 11.7529 6.75011V6.00011C11.7529 5.48909 11.8401 4.98181 12.0107 4.50011H9.50293V20.2501H23.0029V4.50011Z" fill="#002C3F"/>
</svg>