<svg width="30" height="24" viewBox="0 0 30 24" fill="none" xmlns="http://www.w3.org/2000/svg">
<path d="M0 2C0 0.89543 0.895431 0 2 0H28C29.1046 0 30 0.895431 30 2V22C30 23.1046 29.1046 24 28 24H2C0.89543 24 0 23.1046 0 22V2Z" fill="#FFF3CD"/>
<path d="M23.1637 8.28827L13.1637 18.2883C13.0766 18.3757 12.9731 18.445 12.8592 18.4923C12.7452 18.5397 12.6231 18.564 12.4997 18.564C12.3763 18.564 12.2541 18.5397 12.1402 18.4923C12.0262 18.445 11.9227 18.3757 11.8356 18.2883L7.46061 13.9133C7.3734 13.8261 7.30423 13.7225 7.25703 13.6086C7.20984 13.4947 7.18555 13.3725 7.18555 13.2492C7.18555 13.1259 7.20984 13.0038 7.25703 12.8898C7.30423 12.7759 7.3734 12.6724 7.46061 12.5851C7.54782 12.4979 7.65134 12.4288 7.76528 12.3816C7.87922 12.3344 8.00135 12.3101 8.12467 12.3101C8.248 12.3101 8.37012 12.3344 8.48406 12.3816C8.598 12.4288 8.70153 12.4979 8.78874 12.5851L12.5005 16.2969L21.8372 6.96171C22.0133 6.78559 22.2522 6.68665 22.5012 6.68665C22.7503 6.68665 22.9892 6.78559 23.1653 6.96171C23.3414 7.13783 23.4404 7.3767 23.4404 7.62577C23.4404 7.87484 23.3414 8.11371 23.1653 8.28983L23.1637 8.28827Z" fill="#DC3545"/>
</svg>
