<svg width="100" height="101" viewBox="0 0 100 101" fill="none" xmlns="http://www.w3.org/2000/svg">
<circle cx="50" cy="50.5" r="50" fill="#E9ECEB"/>
<g clip-path="url(#clip0_1671_3613)">
<path d="M29.6667 23.833C25.9896 23.833 23 26.8226 23 30.4997V70.4997C23 74.1768 25.9896 77.1663 29.6667 77.1663H56.3333C56.6771 77.1663 57.0104 77.1455 57.3438 77.0934C52.6979 73.7601 49.6667 68.3226 49.6667 62.1663C49.6667 53.7705 55.3021 46.6976 63 44.5205V40.4997H49.6667C47.8229 40.4997 46.3333 39.0101 46.3333 37.1663V23.833H29.6667Z" fill="#B2B2B3"/>
<path d="M49.6667 37.1663H63L49.6667 23.833V37.1663Z" fill="#B2B2B3"/>
<path d="M78.6066 51.5597C75.7936 48.7467 71.9782 47.1663 68 47.1663C64.0218 47.1663 60.2064 48.7467 57.3934 51.5597C54.5804 54.3728 53 58.1881 53 62.1663C53 66.1446 54.5804 69.9599 57.3934 72.7729C60.2064 75.586 64.0218 77.1663 68 77.1663C71.9782 77.1663 75.7936 75.586 78.6066 72.7729C81.4196 69.9599 83 66.1446 83 62.1663C83 58.1881 81.4196 54.3728 78.6066 51.5597Z" fill="#B2B2B3"/>
<path d="M69.4286 54.0711C69.4286 53.281 68.7902 52.6426 68 52.6426C67.2098 52.6426 66.5714 53.281 66.5714 54.0711V60.4997H60.1429C59.3527 60.4997 58.7143 61.1381 58.7143 61.9283C58.7143 62.7185 59.3527 63.3569 60.1429 63.3569H66.5714V69.7854C66.5714 70.5756 67.2098 71.214 68 71.214C68.7902 71.214 69.4286 70.5756 69.4286 69.7854V63.3569H75.8572C76.6473 63.3569 77.2857 62.7185 77.2857 61.9283C77.2857 61.1381 76.6473 60.4997 75.8572 60.4997H69.4286V54.0711Z" fill="#F6F6F6"/>
</g>
<defs>
<clipPath id="clip0_1671_3613">
<rect width="60" height="53.3333" fill="white" transform="translate(23 23.833)"/>
</clipPath>
</defs>
</svg>
