<svg xmlns="http://www.w3.org/2000/svg" width="21" height="21" viewBox="0 0 21 21" fill="none">
<path d="M17.375 4.25H3.62502C3.2935 4.25 2.97556 4.3817 2.74114 4.61612C2.50672 4.85054 2.37502 5.16848 2.37502 5.5V18C2.37358 18.2384 2.44101 18.4721 2.56921 18.673C2.69741 18.874 2.88092 19.0336 3.09768 19.1328C3.26286 19.2097 3.44281 19.2497 3.62502 19.25C3.91846 19.2493 4.20217 19.1447 4.4258 18.9547C4.42953 18.9523 4.43294 18.9494 4.43596 18.9461L6.94534 16.75H17.375C17.7065 16.75 18.0245 16.6183 18.2589 16.3839C18.4933 16.1495 18.625 15.8315 18.625 15.5V5.5C18.625 5.16848 18.4933 4.85054 18.2589 4.61612C18.0245 4.3817 17.7065 4.25 17.375 4.25ZM13 12.375H8.00002C7.83426 12.375 7.67529 12.3092 7.55808 12.1919C7.44087 12.0747 7.37502 11.9158 7.37502 11.75C7.37502 11.5842 7.44087 11.4253 7.55808 11.3081C7.67529 11.1908 7.83426 11.125 8.00002 11.125H13C13.1658 11.125 13.3248 11.1908 13.442 11.3081C13.5592 11.4253 13.625 11.5842 13.625 11.75C13.625 11.9158 13.5592 12.0747 13.442 12.1919C13.3248 12.3092 13.1658 12.375 13 12.375ZM13 9.875H8.00002C7.83426 9.875 7.67529 9.80915 7.55808 9.69194C7.44087 9.57473 7.37502 9.41576 7.37502 9.25C7.37502 9.08424 7.44087 8.92527 7.55808 8.80806C7.67529 8.69085 7.83426 8.625 8.00002 8.625H13C13.1658 8.625 13.3248 8.69085 13.442 8.80806C13.5592 8.92527 13.625 9.08424 13.625 9.25C13.625 9.41576 13.5592 9.57473 13.442 9.69194C13.3248 9.80915 13.1658 9.875 13 9.875Z" fill="#6D6D6D"/>
</svg>