<svg width="20" height="22" viewBox="0 0 20 22" fill="none" xmlns="http://www.w3.org/2000/svg">
<mask id="path-1-outside-1_841_6081" maskUnits="userSpaceOnUse" x="0.667725" y="2.6665" width="18" height="18" fill="black">
<rect fill="white" x="0.667725" y="2.6665" width="18" height="18"/>
<path d="M17.4319 15.9811L17.3829 15.9506C17.2615 15.8789 17.1862 15.7496 17.1933 15.6211C17.1968 15.5493 17.2011 15.4769 17.2011 15.4051C17.2011 15.3334 17.2011 15.261 17.1933 15.1892C17.1855 15.0607 17.2614 14.9279 17.3829 14.8597L17.4319 14.8292C17.9355 14.5372 18.1443 13.9314 17.917 13.4122C17.7842 13.1054 17.618 12.8135 17.4205 12.5408C17.0718 12.0522 16.4284 11.908 15.9205 12.2034L15.8637 12.234C15.7423 12.3021 15.5832 12.2943 15.4546 12.2112C15.3559 12.1466 15.2536 12.0898 15.1514 12.0372C15.015 11.9655 14.9276 11.8327 14.9276 11.6928V11.6324C14.9276 11.045 14.4845 10.5564 13.9014 10.4996C13.5796 10.469 13.2458 10.469 12.9241 10.4996C12.341 10.5564 11.8978 11.045 11.8978 11.6324V11.6928C11.8978 11.8327 11.8105 11.9655 11.6741 12.0372C11.5683 12.0905 11.4695 12.1509 11.3708 12.2112C11.238 12.2943 11.0832 12.3021 10.9582 12.234L10.9049 12.2034C10.3935 11.908 9.74937 12.0557 9.40137 12.5408C9.20818 12.8135 9.04128 13.1054 8.90491 13.4122C8.67764 13.9314 8.88574 14.5372 9.39 14.8292L9.43901 14.8597C9.56046 14.9314 9.63574 15.0607 9.62864 15.1892C9.62509 15.261 9.62083 15.3334 9.62083 15.4051C9.62083 15.4769 9.62083 15.5493 9.62864 15.6211C9.63646 15.7496 9.56046 15.8824 9.43901 15.9506L9.39 15.9811C8.88646 16.273 8.67764 16.8789 8.90491 17.3981C9.03772 17.7049 9.20391 17.9968 9.40137 18.2695C9.75009 18.7581 10.3935 18.9023 10.9014 18.6069L10.9582 18.5763C11.0796 18.5081 11.2387 18.516 11.3673 18.5991C11.466 18.6637 11.5683 18.7205 11.6705 18.7731C11.8069 18.8448 11.8943 18.9776 11.8943 19.1175V19.1779C11.8943 19.7652 12.3375 20.2539 12.9205 20.3107C13.0796 20.3256 13.2423 20.3334 13.4092 20.3334C13.5761 20.3334 13.7387 20.3256 13.8978 20.3107C14.4809 20.2539 14.9241 19.7652 14.9241 19.1779V19.1175C14.9241 18.9776 15.0115 18.8448 15.1478 18.7731C15.2536 18.7198 15.3524 18.6594 15.4511 18.5991C15.5839 18.516 15.7387 18.5081 15.8637 18.5763L15.917 18.6069C16.4284 18.9023 17.0725 18.7546 17.4205 18.2695C17.6137 17.9968 17.7806 17.7049 17.917 17.3981C18.1443 16.8789 17.9362 16.273 17.4319 15.9811ZM17.2195 17.0948C17.1059 17.3526 16.966 17.5983 16.8026 17.8299C16.6812 17.9968 16.4653 18.0493 16.2948 17.9513L16.2415 17.9208C15.8744 17.7084 15.4155 17.7241 15.0448 17.9627C14.9653 18.0117 14.8857 18.0571 14.8026 18.1026C14.4127 18.3036 14.1698 18.6935 14.1698 19.1218V19.1821C14.1698 19.3789 14.0221 19.5422 13.8254 19.5607C13.5526 19.587 13.2685 19.587 12.9958 19.5607C12.7991 19.5415 12.6514 19.3789 12.6514 19.1821V19.1218C12.6514 18.6935 12.4092 18.3036 12.015 18.1026C11.9319 18.0607 11.8524 18.0117 11.7728 17.9627C11.5761 17.8377 11.3524 17.773 11.1329 17.773C10.9397 17.773 10.7465 17.8221 10.5761 17.9208L10.5193 17.9513C10.3488 18.05 10.1294 17.9968 10.0115 17.8299C9.84882 17.599 9.70819 17.3526 9.59455 17.0948C9.52282 16.9357 9.59455 16.7347 9.765 16.6402L9.81401 16.6097C10.189 16.3938 10.4049 15.9996 10.3822 15.5834C10.3822 15.5266 10.3786 15.4698 10.3786 15.4094C10.3786 15.349 10.3786 15.2958 10.3822 15.2354C10.4049 14.8149 10.189 14.4208 9.81401 14.2091L9.765 14.1786C9.5981 14.0841 9.52637 13.8831 9.59455 13.724C9.70819 13.4662 9.84809 13.2205 10.0115 12.989C10.1329 12.822 10.3488 12.7695 10.5193 12.8675L10.5725 12.898C10.9397 13.1104 11.3985 13.0948 11.7693 12.8561C11.8488 12.8071 11.9284 12.7617 12.0115 12.7162C12.4014 12.5152 12.6443 12.1253 12.6443 11.697V11.6367C12.6443 11.4399 12.792 11.2766 12.9887 11.2581C13.2615 11.2319 13.5455 11.2319 13.8183 11.2581C14.015 11.2773 14.1627 11.4399 14.1627 11.6367V11.697C14.1627 12.1253 14.4049 12.5152 14.7991 12.7162C14.8822 12.7581 14.9617 12.8071 15.0413 12.8561C15.4127 13.0912 15.8708 13.1097 16.238 12.898L16.2948 12.8675C16.4653 12.7688 16.6847 12.822 16.8026 12.989C16.9653 13.2198 17.1059 13.4662 17.2195 13.724C17.2913 13.8831 17.2195 14.0841 17.0491 14.1786L17.0001 14.2091C16.6251 14.425 16.4092 14.8192 16.4319 15.2354C16.4319 15.2922 16.4355 15.349 16.4355 15.4094C16.4355 15.4698 16.4355 15.523 16.4319 15.5834C16.4092 16.0039 16.6251 16.398 17.0001 16.6097L17.0491 16.6402C17.216 16.7347 17.2877 16.9357 17.2195 17.0948ZM13.4092 13.5151C12.3637 13.5151 11.515 14.3639 11.515 15.4093C11.515 16.4548 12.3637 17.3035 13.4092 17.3035C14.4546 17.3035 15.3034 16.4548 15.3034 15.4093C15.3034 14.3639 14.4546 13.5151 13.4092 13.5151ZM13.4092 16.5457C12.7842 16.5457 12.2728 16.0343 12.2728 15.4093C12.2728 14.7843 12.7842 14.273 13.4092 14.273C14.0342 14.273 14.5455 14.7843 14.5455 15.4093C14.5455 16.0343 14.0342 16.5457 13.4092 16.5457ZM7.015 15.7879H2.80336C2.59527 15.7879 2.42482 15.6174 2.42482 15.4093V8.96969H16.0612V9.73105C16.0612 9.93914 16.2316 10.1096 16.4397 10.1096C16.6478 10.1096 16.8183 9.93914 16.8183 9.73105V5.93923C16.8183 5.31423 16.3069 4.80287 15.6819 4.80287H14.167V4.04505C14.167 3.83696 13.9965 3.6665 13.7885 3.6665C13.5804 3.6665 13.4099 3.83696 13.4099 4.04505V4.80287L5.07609 4.80358V4.04576C5.07609 3.83767 4.90563 3.66721 4.69754 3.66721C4.48945 3.66721 4.319 3.83767 4.319 4.04576V4.80358H2.80409C2.17909 4.80358 1.66772 5.31494 1.66772 5.93994V15.4094C1.66772 16.0344 2.17909 16.5458 2.80409 16.5458H7.01645C7.22454 16.5458 7.395 16.3753 7.395 16.1672C7.395 15.9591 7.22309 15.7879 7.015 15.7879ZM2.80336 5.56059H4.31827V6.31841C4.31827 6.5265 4.48872 6.69696 4.69682 6.69696C4.90491 6.69696 5.07536 6.5265 5.07536 6.31841V5.56059H13.4085V6.31841C13.4085 6.5265 13.5789 6.69696 13.787 6.69696C13.9951 6.69696 14.1655 6.5265 14.1655 6.31841V5.56059H15.6805C15.8885 5.56059 16.059 5.73105 16.059 5.93914V8.21187L2.42409 8.21258V5.93985C2.42409 5.73176 2.59527 5.56059 2.80336 5.56059Z"/>
<path fill-rule="evenodd" clip-rule="evenodd" d="M16.8026 17.8299C16.966 17.5983 17.1059 17.3526 17.2195 17.0948C17.2877 16.9357 17.216 16.7347 17.0491 16.6402L17.0001 16.6097C16.6251 16.398 16.4092 16.0039 16.4319 15.5834C16.4355 15.523 16.4355 15.4698 16.4355 15.4094C16.4355 15.3788 16.4345 15.349 16.4336 15.3198C16.4328 15.2914 16.4319 15.2634 16.4319 15.2354C16.4092 14.8192 16.6251 14.425 17.0001 14.2091L17.0491 14.1786C17.2195 14.0841 17.2913 13.8831 17.2195 13.724C17.1059 13.4662 16.9653 13.2198 16.8026 12.989C16.6847 12.822 16.4653 12.7688 16.2948 12.8675L16.238 12.898C15.8708 13.1097 15.4127 13.0912 15.0413 12.8561C14.9617 12.8071 14.8822 12.7581 14.7991 12.7162C14.4049 12.5152 14.1627 12.1253 14.1627 11.697V11.6367C14.1627 11.4399 14.015 11.2773 13.8183 11.2581C13.5455 11.2319 13.2615 11.2319 12.9887 11.2581C12.792 11.2766 12.6443 11.4399 12.6443 11.6367V11.697C12.6443 12.1253 12.4014 12.5152 12.0115 12.7162C11.9284 12.7617 11.8488 12.8071 11.7693 12.8561C11.3985 13.0948 10.9397 13.1104 10.5725 12.898L10.5193 12.8675C10.3488 12.7695 10.1329 12.822 10.0115 12.989C9.84809 13.2205 9.70819 13.4662 9.59455 13.724C9.52637 13.8831 9.5981 14.0841 9.765 14.1786L9.81401 14.2091C10.189 14.4208 10.4049 14.8149 10.3822 15.2354C10.3786 15.2958 10.3786 15.349 10.3786 15.4094C10.3786 15.4401 10.3796 15.4698 10.3805 15.4991C10.3813 15.5275 10.3822 15.5554 10.3822 15.5834C10.4049 15.9996 10.189 16.3938 9.81401 16.6097L9.765 16.6402C9.59455 16.7347 9.52282 16.9357 9.59455 17.0948C9.70819 17.3526 9.84882 17.599 10.0115 17.8299C10.1294 17.9968 10.3488 18.05 10.5193 17.9513L10.5761 17.9208C10.7465 17.8221 10.9397 17.773 11.1329 17.773C11.3524 17.773 11.5761 17.8377 11.7728 17.9627C11.8524 18.0117 11.9319 18.0607 12.015 18.1026C12.4092 18.3036 12.6514 18.6935 12.6514 19.1218V19.1821C12.6514 19.3789 12.7991 19.5415 12.9958 19.5607C13.2685 19.587 13.5526 19.587 13.8254 19.5607C14.0221 19.5422 14.1698 19.3789 14.1698 19.1821V19.1218C14.1698 18.6935 14.4127 18.3036 14.8026 18.1026C14.8857 18.0571 14.9653 18.0117 15.0448 17.9627C15.4155 17.7241 15.8744 17.7084 16.2415 17.9208L16.2948 17.9513C16.4653 18.0493 16.6812 17.9968 16.8026 17.8299ZM13.4092 13.5151C12.3637 13.5151 11.515 14.3639 11.515 15.4093C11.515 16.4548 12.3637 17.3035 13.4092 17.3035C14.4546 17.3035 15.3034 16.4548 15.3034 15.4093C15.3034 14.3639 14.4546 13.5151 13.4092 13.5151Z"/>
</mask>
<path d="M17.4319 15.9811L17.3829 15.9506C17.2615 15.8789 17.1862 15.7496 17.1933 15.6211C17.1968 15.5493 17.2011 15.4769 17.2011 15.4051C17.2011 15.3334 17.2011 15.261 17.1933 15.1892C17.1855 15.0607 17.2614 14.9279 17.3829 14.8597L17.4319 14.8292C17.9355 14.5372 18.1443 13.9314 17.917 13.4122C17.7842 13.1054 17.618 12.8135 17.4205 12.5408C17.0718 12.0522 16.4284 11.908 15.9205 12.2034L15.8637 12.234C15.7423 12.3021 15.5832 12.2943 15.4546 12.2112C15.3559 12.1466 15.2536 12.0898 15.1514 12.0372C15.015 11.9655 14.9276 11.8327 14.9276 11.6928V11.6324C14.9276 11.045 14.4845 10.5564 13.9014 10.4996C13.5796 10.469 13.2458 10.469 12.9241 10.4996C12.341 10.5564 11.8978 11.045 11.8978 11.6324V11.6928C11.8978 11.8327 11.8105 11.9655 11.6741 12.0372C11.5683 12.0905 11.4695 12.1509 11.3708 12.2112C11.238 12.2943 11.0832 12.3021 10.9582 12.234L10.9049 12.2034C10.3935 11.908 9.74937 12.0557 9.40137 12.5408C9.20818 12.8135 9.04128 13.1054 8.90491 13.4122C8.67764 13.9314 8.88574 14.5372 9.39 14.8292L9.43901 14.8597C9.56046 14.9314 9.63574 15.0607 9.62864 15.1892C9.62509 15.261 9.62083 15.3334 9.62083 15.4051C9.62083 15.4769 9.62083 15.5493 9.62864 15.6211C9.63646 15.7496 9.56046 15.8824 9.43901 15.9506L9.39 15.9811C8.88646 16.273 8.67764 16.8789 8.90491 17.3981C9.03772 17.7049 9.20391 17.9968 9.40137 18.2695C9.75009 18.7581 10.3935 18.9023 10.9014 18.6069L10.9582 18.5763C11.0796 18.5081 11.2387 18.516 11.3673 18.5991C11.466 18.6637 11.5683 18.7205 11.6705 18.7731C11.8069 18.8448 11.8943 18.9776 11.8943 19.1175V19.1779C11.8943 19.7652 12.3375 20.2539 12.9205 20.3107C13.0796 20.3256 13.2423 20.3334 13.4092 20.3334C13.5761 20.3334 13.7387 20.3256 13.8978 20.3107C14.4809 20.2539 14.9241 19.7652 14.9241 19.1779V19.1175C14.9241 18.9776 15.0115 18.8448 15.1478 18.7731C15.2536 18.7198 15.3524 18.6594 15.4511 18.5991C15.5839 18.516 15.7387 18.5081 15.8637 18.5763L15.917 18.6069C16.4284 18.9023 17.0725 18.7546 17.4205 18.2695C17.6137 17.9968 17.7806 17.7049 17.917 17.3981C18.1443 16.8789 17.9362 16.273 17.4319 15.9811ZM17.2195 17.0948C17.1059 17.3526 16.966 17.5983 16.8026 17.8299C16.6812 17.9968 16.4653 18.0493 16.2948 17.9513L16.2415 17.9208C15.8744 17.7084 15.4155 17.7241 15.0448 17.9627C14.9653 18.0117 14.8857 18.0571 14.8026 18.1026C14.4127 18.3036 14.1698 18.6935 14.1698 19.1218V19.1821C14.1698 19.3789 14.0221 19.5422 13.8254 19.5607C13.5526 19.587 13.2685 19.587 12.9958 19.5607C12.7991 19.5415 12.6514 19.3789 12.6514 19.1821V19.1218C12.6514 18.6935 12.4092 18.3036 12.015 18.1026C11.9319 18.0607 11.8524 18.0117 11.7728 17.9627C11.5761 17.8377 11.3524 17.773 11.1329 17.773C10.9397 17.773 10.7465 17.8221 10.5761 17.9208L10.5193 17.9513C10.3488 18.05 10.1294 17.9968 10.0115 17.8299C9.84882 17.599 9.70819 17.3526 9.59455 17.0948C9.52282 16.9357 9.59455 16.7347 9.765 16.6402L9.81401 16.6097C10.189 16.3938 10.4049 15.9996 10.3822 15.5834C10.3822 15.5266 10.3786 15.4698 10.3786 15.4094C10.3786 15.349 10.3786 15.2958 10.3822 15.2354C10.4049 14.8149 10.189 14.4208 9.81401 14.2091L9.765 14.1786C9.5981 14.0841 9.52637 13.8831 9.59455 13.724C9.70819 13.4662 9.84809 13.2205 10.0115 12.989C10.1329 12.822 10.3488 12.7695 10.5193 12.8675L10.5725 12.898C10.9397 13.1104 11.3985 13.0948 11.7693 12.8561C11.8488 12.8071 11.9284 12.7617 12.0115 12.7162C12.4014 12.5152 12.6443 12.1253 12.6443 11.697V11.6367C12.6443 11.4399 12.792 11.2766 12.9887 11.2581C13.2615 11.2319 13.5455 11.2319 13.8183 11.2581C14.015 11.2773 14.1627 11.4399 14.1627 11.6367V11.697C14.1627 12.1253 14.4049 12.5152 14.7991 12.7162C14.8822 12.7581 14.9617 12.8071 15.0413 12.8561C15.4127 13.0912 15.8708 13.1097 16.238 12.898L16.2948 12.8675C16.4653 12.7688 16.6847 12.822 16.8026 12.989C16.9653 13.2198 17.1059 13.4662 17.2195 13.724C17.2913 13.8831 17.2195 14.0841 17.0491 14.1786L17.0001 14.2091C16.6251 14.425 16.4092 14.8192 16.4319 15.2354C16.4319 15.2922 16.4355 15.349 16.4355 15.4094C16.4355 15.4698 16.4355 15.523 16.4319 15.5834C16.4092 16.0039 16.6251 16.398 17.0001 16.6097L17.0491 16.6402C17.216 16.7347 17.2877 16.9357 17.2195 17.0948ZM13.4092 13.5151C12.3637 13.5151 11.515 14.3639 11.515 15.4093C11.515 16.4548 12.3637 17.3035 13.4092 17.3035C14.4546 17.3035 15.3034 16.4548 15.3034 15.4093C15.3034 14.3639 14.4546 13.5151 13.4092 13.5151ZM13.4092 16.5457C12.7842 16.5457 12.2728 16.0343 12.2728 15.4093C12.2728 14.7843 12.7842 14.273 13.4092 14.273C14.0342 14.273 14.5455 14.7843 14.5455 15.4093C14.5455 16.0343 14.0342 16.5457 13.4092 16.5457ZM7.015 15.7879H2.80336C2.59527 15.7879 2.42482 15.6174 2.42482 15.4093V8.96969H16.0612V9.73105C16.0612 9.93914 16.2316 10.1096 16.4397 10.1096C16.6478 10.1096 16.8183 9.93914 16.8183 9.73105V5.93923C16.8183 5.31423 16.3069 4.80287 15.6819 4.80287H14.167V4.04505C14.167 3.83696 13.9965 3.6665 13.7885 3.6665C13.5804 3.6665 13.4099 3.83696 13.4099 4.04505V4.80287L5.07609 4.80358V4.04576C5.07609 3.83767 4.90563 3.66721 4.69754 3.66721C4.48945 3.66721 4.319 3.83767 4.319 4.04576V4.80358H2.80409C2.17909 4.80358 1.66772 5.31494 1.66772 5.93994V15.4094C1.66772 16.0344 2.17909 16.5458 2.80409 16.5458H7.01645C7.22454 16.5458 7.395 16.3753 7.395 16.1672C7.395 15.9591 7.22309 15.7879 7.015 15.7879ZM2.80336 5.56059H4.31827V6.31841C4.31827 6.5265 4.48872 6.69696 4.69682 6.69696C4.90491 6.69696 5.07536 6.5265 5.07536 6.31841V5.56059H13.4085V6.31841C13.4085 6.5265 13.5789 6.69696 13.787 6.69696C13.9951 6.69696 14.1655 6.5265 14.1655 6.31841V5.56059H15.6805C15.8885 5.56059 16.059 5.73105 16.059 5.93914V8.21187L2.42409 8.21258V5.93985C2.42409 5.73176 2.59527 5.56059 2.80336 5.56059Z" fill="#314158"/>
<path fill-rule="evenodd" clip-rule="evenodd" d="M16.8026 17.8299C16.966 17.5983 17.1059 17.3526 17.2195 17.0948C17.2877 16.9357 17.216 16.7347 17.0491 16.6402L17.0001 16.6097C16.6251 16.398 16.4092 16.0039 16.4319 15.5834C16.4355 15.523 16.4355 15.4698 16.4355 15.4094C16.4355 15.3788 16.4345 15.349 16.4336 15.3198C16.4328 15.2914 16.4319 15.2634 16.4319 15.2354C16.4092 14.8192 16.6251 14.425 17.0001 14.2091L17.0491 14.1786C17.2195 14.0841 17.2913 13.8831 17.2195 13.724C17.1059 13.4662 16.9653 13.2198 16.8026 12.989C16.6847 12.822 16.4653 12.7688 16.2948 12.8675L16.238 12.898C15.8708 13.1097 15.4127 13.0912 15.0413 12.8561C14.9617 12.8071 14.8822 12.7581 14.7991 12.7162C14.4049 12.5152 14.1627 12.1253 14.1627 11.697V11.6367C14.1627 11.4399 14.015 11.2773 13.8183 11.2581C13.5455 11.2319 13.2615 11.2319 12.9887 11.2581C12.792 11.2766 12.6443 11.4399 12.6443 11.6367V11.697C12.6443 12.1253 12.4014 12.5152 12.0115 12.7162C11.9284 12.7617 11.8488 12.8071 11.7693 12.8561C11.3985 13.0948 10.9397 13.1104 10.5725 12.898L10.5193 12.8675C10.3488 12.7695 10.1329 12.822 10.0115 12.989C9.84809 13.2205 9.70819 13.4662 9.59455 13.724C9.52637 13.8831 9.5981 14.0841 9.765 14.1786L9.81401 14.2091C10.189 14.4208 10.4049 14.8149 10.3822 15.2354C10.3786 15.2958 10.3786 15.349 10.3786 15.4094C10.3786 15.4401 10.3796 15.4698 10.3805 15.4991C10.3813 15.5275 10.3822 15.5554 10.3822 15.5834C10.4049 15.9996 10.189 16.3938 9.81401 16.6097L9.765 16.6402C9.59455 16.7347 9.52282 16.9357 9.59455 17.0948C9.70819 17.3526 9.84882 17.599 10.0115 17.8299C10.1294 17.9968 10.3488 18.05 10.5193 17.9513L10.5761 17.9208C10.7465 17.8221 10.9397 17.773 11.1329 17.773C11.3524 17.773 11.5761 17.8377 11.7728 17.9627C11.8524 18.0117 11.9319 18.0607 12.015 18.1026C12.4092 18.3036 12.6514 18.6935 12.6514 19.1218V19.1821C12.6514 19.3789 12.7991 19.5415 12.9958 19.5607C13.2685 19.587 13.5526 19.587 13.8254 19.5607C14.0221 19.5422 14.1698 19.3789 14.1698 19.1821V19.1218C14.1698 18.6935 14.4127 18.3036 14.8026 18.1026C14.8857 18.0571 14.9653 18.0117 15.0448 17.9627C15.4155 17.7241 15.8744 17.7084 16.2415 17.9208L16.2948 17.9513C16.4653 18.0493 16.6812 17.9968 16.8026 17.8299ZM13.4092 13.5151C12.3637 13.5151 11.515 14.3639 11.515 15.4093C11.515 16.4548 12.3637 17.3035 13.4092 17.3035C14.4546 17.3035 15.3034 16.4548 15.3034 15.4093C15.3034 14.3639 14.4546 13.5151 13.4092 13.5151Z" fill="#314158"/>
<path d="M17.2195 17.0948L17.3111 17.1351L17.3115 17.1342L17.2195 17.0948ZM16.8026 17.8299L16.8835 17.8887L16.8843 17.8875L16.8026 17.8299ZM16.2948 17.9513L16.3447 17.8646L16.3446 17.8646L16.2948 17.9513ZM16.2415 17.9208L16.1915 18.0073L16.1918 18.0075L16.2415 17.9208ZM15.0448 17.9627L15.0973 18.0478L15.0989 18.0468L15.0448 17.9627ZM14.8026 18.1026L14.8485 18.1915L14.8506 18.1903L14.8026 18.1026ZM13.8254 19.5607L13.816 19.4611L13.8158 19.4612L13.8254 19.5607ZM12.9958 19.5607L12.9861 19.6602L12.9862 19.6602L12.9958 19.5607ZM12.015 18.1026L12.0604 18.0135L12.06 18.0133L12.015 18.1026ZM11.7728 17.9627L11.7192 18.0471L11.7204 18.0478L11.7728 17.9627ZM10.5761 17.9208L10.6235 18.0089L10.6262 18.0073L10.5761 17.9208ZM10.5193 17.9513L10.4719 17.8632L10.4692 17.8648L10.5193 17.9513ZM10.0115 17.8299L9.92971 17.8875L9.92978 17.8876L10.0115 17.8299ZM9.59455 17.0948L9.68606 17.0544L9.68571 17.0537L9.59455 17.0948ZM9.765 16.6402L9.81354 16.7278L9.8179 16.7251L9.765 16.6402ZM9.81401 16.6097L9.76408 16.523L9.76112 16.5248L9.81401 16.6097ZM10.3822 15.2354L10.482 15.2413L10.482 15.2408L10.3822 15.2354ZM9.81401 14.2091L9.76107 14.2941L9.76486 14.2962L9.81401 14.2091ZM9.765 14.1786L9.81794 14.0936L9.81426 14.0916L9.765 14.1786ZM9.59455 13.724L9.50304 13.6837L9.50263 13.6847L9.59455 13.724ZM10.0115 12.989L9.93059 12.9301L9.92975 12.9313L10.0115 12.989ZM10.5193 12.8675L10.4694 12.9542L10.4695 12.9543L10.5193 12.8675ZM10.5725 12.898L10.6226 12.8115L10.6223 12.8113L10.5725 12.898ZM11.7693 12.8561L11.7168 12.771L11.7151 12.7721L11.7693 12.8561ZM12.0115 12.7162L11.9656 12.6273L11.9635 12.6285L12.0115 12.7162ZM12.9887 11.2581L12.9981 11.3577L12.9983 11.3577L12.9887 11.2581ZM13.8183 11.2581L13.828 11.1586L13.8279 11.1586L13.8183 11.2581ZM14.7991 12.7162L14.7537 12.8053L14.7541 12.8055L14.7991 12.7162ZM15.0413 12.8561L15.0948 12.7716L15.0937 12.771L15.0413 12.8561ZM16.238 12.898L16.1906 12.8099L16.1881 12.8114L16.238 12.898ZM16.2948 12.8675L16.3422 12.9556L16.3449 12.954L16.2948 12.8675ZM16.8026 12.989L16.8844 12.9314L16.8843 12.9313L16.8026 12.989ZM17.2195 13.724L17.128 13.7644L17.1284 13.7651L17.2195 13.724ZM17.0491 14.1786L17.0006 14.091L16.9962 14.0937L17.0491 14.1786ZM17.0001 14.2091L17.05 14.2958L17.053 14.294L17.0001 14.2091ZM16.4319 15.5834L16.3321 15.5775L16.332 15.578L16.4319 15.5834ZM17.0001 16.6097L17.053 16.5247L17.0492 16.5226L17.0001 16.6097ZM17.0491 16.6402L16.9962 16.7252L16.9998 16.7273L17.0491 16.6402ZM17.2195 17.0948L17.128 17.0544C17.0172 17.306 16.8806 17.5459 16.7209 17.7722L16.8026 17.8299L16.8843 17.8875C17.0514 17.6507 17.1946 17.3992 17.311 17.1351L17.2195 17.0948ZM16.8026 17.8299L16.7218 17.771C16.6276 17.9004 16.4669 17.9349 16.3447 17.8646L16.2948 17.9513L16.245 18.038C16.4637 18.1638 16.7348 18.0931 16.8835 17.8887L16.8026 17.8299ZM16.2948 17.9513L16.3446 17.8646L16.2913 17.834L16.2415 17.9208L16.1918 18.0075L16.2451 18.0381L16.2948 17.9513ZM16.2415 17.9208L16.2916 17.8342C15.8905 17.6022 15.3915 17.6206 14.9907 17.8786L15.0448 17.9627L15.0989 18.0468C15.4396 17.8275 15.8582 17.8146 16.1915 18.0073L16.2415 17.9208ZM15.0448 17.9627L14.9924 17.8775C14.9147 17.9254 14.8367 17.97 14.7546 18.0149L14.8026 18.1026L14.8506 18.1903C14.9348 18.1443 15.0159 18.098 15.0973 18.0478L15.0448 17.9627ZM14.8026 18.1026L14.7568 18.0137C14.3348 18.2312 14.0698 18.6547 14.0698 19.1218H14.1698H14.2698C14.2698 18.7323 14.4906 18.376 14.8485 18.1915L14.8026 18.1026ZM14.1698 19.1218H14.0698V19.1821H14.1698H14.2698V19.1218H14.1698ZM14.1698 19.1821H14.0698C14.0698 19.3275 13.9611 19.4475 13.816 19.4611L13.8254 19.5607L13.8347 19.6603C14.083 19.637 14.2698 19.4303 14.2698 19.1821H14.1698ZM13.8254 19.5607L13.8158 19.4612C13.5494 19.4868 13.2718 19.4868 13.0054 19.4612L12.9958 19.5607L12.9862 19.6602C13.2653 19.6871 13.5559 19.6871 13.835 19.6602L13.8254 19.5607ZM12.9958 19.5607L13.0055 19.4612C12.8598 19.447 12.7514 19.3272 12.7514 19.1821H12.6514H12.5514C12.5514 19.4306 12.7384 19.6361 12.9861 19.6602L12.9958 19.5607ZM12.6514 19.1821H12.7514V19.1218H12.6514H12.5514V19.1821H12.6514ZM12.6514 19.1218H12.7514C12.7514 18.6547 12.487 18.231 12.0604 18.0135L12.015 18.1026L11.9696 18.1917C12.3314 18.3762 12.5514 18.7323 12.5514 19.1218H12.6514ZM12.015 18.1026L12.06 18.0133C11.9814 17.9736 11.9054 17.9269 11.8253 17.8775L11.7728 17.9627L11.7204 18.0478C11.7993 18.0964 11.8824 18.1477 11.97 18.1919L12.015 18.1026ZM11.7728 17.9627L11.8265 17.8783C11.6141 17.7433 11.3718 17.673 11.1329 17.673V17.773V17.873C11.3329 17.873 11.5381 17.932 11.7192 18.0471L11.7728 17.9627ZM11.1329 17.773V17.673C10.923 17.673 10.7124 17.7263 10.526 17.8342L10.5761 17.9208L10.6262 18.0073C10.7807 17.9178 10.9565 17.873 11.1329 17.873V17.773ZM10.5761 17.9208L10.5287 17.8327L10.4719 17.8632L10.5193 17.9513L10.5666 18.0394L10.6234 18.0089L10.5761 17.9208ZM10.5193 17.9513L10.4692 17.8648C10.3466 17.9357 10.1833 17.8998 10.0931 17.7722L10.0115 17.8299L9.92978 17.8876C10.0754 18.0937 10.351 18.1643 10.5694 18.0378L10.5193 17.9513ZM10.0115 17.8299L10.0932 17.7723C9.93422 17.5466 9.79691 17.3059 9.68605 17.0544L9.59455 17.0948L9.50304 17.1351C9.61946 17.3992 9.76342 17.6515 9.92971 17.8875L10.0115 17.8299ZM9.59455 17.0948L9.68571 17.0537C9.6378 16.9474 9.68316 16.7999 9.81347 16.7277L9.765 16.6402L9.71653 16.5528C9.50594 16.6695 9.40783 16.9239 9.50339 17.1359L9.59455 17.0948ZM9.765 16.6402L9.8179 16.7251L9.8669 16.6946L9.81401 16.6097L9.76112 16.5248L9.71211 16.5554L9.765 16.6402ZM9.81401 16.6097L9.8639 16.6963C10.2706 16.4622 10.5069 16.033 10.482 15.578L10.3822 15.5834L10.2823 15.5889C10.3029 15.9662 10.1074 16.3254 9.76411 16.523L9.81401 16.6097ZM10.3786 15.4094H10.4786C10.4786 15.3487 10.4787 15.2983 10.482 15.2413L10.3822 15.2354L10.2824 15.2295C10.2786 15.2933 10.2786 15.3493 10.2786 15.4094H10.3786ZM10.3822 15.2354L10.482 15.2408C10.5068 14.7819 10.2709 14.3521 9.86316 14.122L9.81401 14.2091L9.76486 14.2962C10.1071 14.4894 10.303 14.848 10.2823 15.23L10.3822 15.2354ZM9.81401 14.2091L9.8669 14.1243L9.81789 14.0937L9.765 14.1786L9.71211 14.2635L9.76112 14.294L9.81401 14.2091ZM9.765 14.1786L9.81426 14.0916C9.68722 14.0197 9.64034 13.8711 9.68646 13.7634L9.59455 13.724L9.50263 13.6847C9.4124 13.8952 9.50898 14.1486 9.71575 14.2656L9.765 14.1786ZM9.59455 13.724L9.68605 13.7644C9.79693 13.5128 9.93352 13.2729 10.0932 13.0466L10.0115 12.989L9.92975 12.9313C9.76267 13.1681 9.61944 13.4196 9.50304 13.6837L9.59455 13.724ZM10.0115 12.989L10.0923 13.0478C10.1865 12.9184 10.3472 12.8839 10.4694 12.9542L10.5193 12.8675L10.5691 12.7808C10.3504 12.6551 10.0793 12.7257 9.9306 12.9301L10.0115 12.989ZM10.5193 12.8675L10.4695 12.9543L10.5228 12.9848L10.5725 12.898L10.6223 12.8113L10.569 12.7808L10.5193 12.8675ZM10.5725 12.898L10.5225 12.9846C10.9236 13.2166 11.4226 13.1982 11.8234 12.9402L11.7693 12.8561L11.7151 12.7721C11.3745 12.9913 10.9559 13.0042 10.6226 12.8115L10.5725 12.898ZM11.7693 12.8561L11.8217 12.9413C11.8994 12.8934 11.9774 12.8488 12.0594 12.804L12.0115 12.7162L11.9635 12.6285C11.8793 12.6745 11.7982 12.7209 11.7168 12.771L11.7693 12.8561ZM12.0115 12.7162L12.0573 12.8051C12.4792 12.5876 12.7443 12.1641 12.7443 11.697H12.6443H12.5443C12.5443 12.0865 12.3235 12.4429 11.9656 12.6273L12.0115 12.7162ZM12.6443 11.697H12.7443V11.6367H12.6443H12.5443V11.697H12.6443ZM12.6443 11.6367H12.7443C12.7443 11.4913 12.853 11.3713 12.9981 11.3577L12.9887 11.2581L12.9794 11.1586C12.731 11.1819 12.5443 11.3886 12.5443 11.6367H12.6443ZM12.9887 11.2581L12.9983 11.3577C13.2647 11.332 13.5423 11.332 13.8087 11.3577L13.8183 11.2581L13.8279 11.1586C13.5488 11.1317 13.2582 11.1317 12.9791 11.1586L12.9887 11.2581ZM13.8183 11.2581L13.8086 11.3577C13.9543 11.3719 14.0627 11.4916 14.0627 11.6367H14.1627H14.2627C14.2627 11.3883 14.0757 11.1828 13.828 11.1586L13.8183 11.2581ZM14.1627 11.6367H14.0627V11.697H14.1627H14.2627V11.6367H14.1627ZM14.1627 11.697H14.0627C14.0627 12.1641 14.3271 12.5878 14.7537 12.8053L14.7991 12.7162L14.8445 12.6271C14.4827 12.4427 14.2627 12.0865 14.2627 11.697H14.1627ZM14.7991 12.7162L14.7541 12.8055C14.8327 12.8452 14.9087 12.8919 14.9888 12.9413L15.0413 12.8561L15.0937 12.771C15.0148 12.7224 14.9317 12.6711 14.8441 12.6269L14.7991 12.7162ZM15.0413 12.8561L14.9878 12.9406C15.3885 13.1943 15.8865 13.2161 16.2879 12.9847L16.238 12.898L16.1881 12.8114C15.8552 13.0033 15.4369 12.9882 15.0947 12.7716L15.0413 12.8561ZM16.238 12.898L16.2853 12.9861L16.3422 12.9556L16.2948 12.8675L16.2475 12.7794L16.1907 12.81L16.238 12.898ZM16.2948 12.8675L16.3449 12.954C16.4675 12.8831 16.6308 12.919 16.721 13.0467L16.8026 12.989L16.8843 12.9313C16.7387 12.7251 16.4631 12.6545 16.2447 12.781L16.2948 12.8675ZM16.8026 12.989L16.7209 13.0466C16.8799 13.2722 17.0172 13.5129 17.128 13.7644L17.2195 13.724L17.311 13.6837C17.1946 13.4196 17.0507 13.1674 16.8844 12.9314L16.8026 12.989ZM17.2195 13.724L17.1284 13.7651C17.1763 13.8714 17.1309 14.0189 17.0006 14.0911L17.0491 14.1786L17.0976 14.2661C17.3082 14.1494 17.4063 13.8949 17.3107 13.6829L17.2195 13.724ZM17.0491 14.1786L16.9962 14.0937L16.9472 14.1243L17.0001 14.2091L17.053 14.294L17.102 14.2635L17.0491 14.1786ZM17.0001 14.2091L16.9502 14.1225C16.5435 14.3566 16.3072 14.7858 16.3321 15.2409L16.4319 15.2354L16.5318 15.2299C16.5111 14.8526 16.7067 14.4935 17.05 14.2958L17.0001 14.2091ZM16.4355 15.4094H16.3355C16.3355 15.4701 16.3354 15.5205 16.3321 15.5775L16.4319 15.5834L16.5317 15.5893C16.5355 15.5256 16.5355 15.4695 16.5355 15.4094H16.4355ZM16.4319 15.5834L16.332 15.578C16.3072 16.0369 16.5432 16.4667 16.9509 16.6968L17.0001 16.6097L17.0492 16.5226C16.7069 16.3294 16.5111 15.9709 16.5318 15.5888L16.4319 15.5834ZM17.0001 16.6097L16.9472 16.6946L16.9962 16.7251L17.0491 16.6402L17.102 16.5554L17.053 16.5248L17.0001 16.6097ZM17.0491 16.6402L16.9998 16.7273C17.1269 16.7992 17.1738 16.9478 17.1276 17.0554L17.2195 17.0948L17.3115 17.1342C17.4017 16.9236 17.3051 16.6702 17.0983 16.5532L17.0491 16.6402ZM13.4092 13.5151V13.4151C12.3085 13.4151 11.415 14.3086 11.415 15.4093H11.515H11.615C11.615 14.4191 12.419 13.6151 13.4092 13.6151V13.5151ZM11.515 15.4093H11.415C11.415 16.51 12.3085 17.4035 13.4092 17.4035V17.3035V17.2035C12.419 17.2035 11.615 16.3995 11.615 15.4093H11.515ZM13.4092 17.3035V17.4035C14.5099 17.4035 15.4034 16.51 15.4034 15.4093H15.3034H15.2034C15.2034 16.3995 14.3994 17.2035 13.4092 17.2035V17.3035ZM15.3034 15.4093H15.4034C15.4034 14.3086 14.5099 13.4151 13.4092 13.4151V13.5151V13.6151C14.3994 13.6151 15.2034 14.4191 15.2034 15.4093H15.3034ZM17.4319 15.9811L17.3261 16.151L17.3317 16.1542L17.4319 15.9811ZM17.3829 15.9506L17.4887 15.7808L17.4846 15.7784L17.3829 15.9506ZM17.1933 15.6211L17.393 15.6321L17.393 15.6309L17.1933 15.6211ZM17.1933 15.1892L16.9934 15.2014L16.9944 15.2109L17.1933 15.1892ZM17.3829 14.8597L17.4809 15.0343L17.4887 15.0294L17.3829 14.8597ZM17.4319 14.8292L17.3316 14.656L17.3261 14.6594L17.4319 14.8292ZM17.917 13.4122L17.7335 13.4917L17.7338 13.4924L17.917 13.4122ZM17.4205 12.5408L17.2577 12.657L17.2585 12.6581L17.4205 12.5408ZM15.9205 12.2034L16.0153 12.3797L16.0211 12.3763L15.9205 12.2034ZM15.8637 12.234L15.769 12.0578L15.7658 12.0596L15.8637 12.234ZM15.4546 12.2112L15.3451 12.3786L15.3461 12.3792L15.4546 12.2112ZM15.1514 12.0372L15.0582 12.2142L15.0599 12.2151L15.1514 12.0372ZM13.9014 10.4996L13.9208 10.3005L13.9203 10.3005L13.9014 10.4996ZM12.9241 10.4996L12.9052 10.3005L12.9047 10.3005L12.9241 10.4996ZM11.6741 12.0372L11.764 12.2159L11.7672 12.2142L11.6741 12.0372ZM11.3708 12.2112L11.2665 12.0406L11.2647 12.0417L11.3708 12.2112ZM10.9582 12.234L10.8587 12.4075L10.8624 12.4095L10.9582 12.234ZM10.9049 12.2034L10.8049 12.3766L10.8054 12.3769L10.9049 12.2034ZM9.40137 12.5408L9.23886 12.4242L9.23816 12.4252L9.40137 12.5408ZM8.90491 13.4122L8.72215 13.331L8.7217 13.332L8.90491 13.4122ZM9.39 14.8292L9.49584 14.6593L9.4902 14.6561L9.39 14.8292ZM9.43901 14.8597L9.3332 15.0295L9.3373 15.0319L9.43901 14.8597ZM9.62864 15.1892L9.42895 15.1782L9.42889 15.1793L9.62864 15.1892ZM9.62864 15.6211L9.8285 15.6089L9.82747 15.5994L9.62864 15.6211ZM9.43901 15.9506L9.341 15.776L9.33323 15.7809L9.43901 15.9506ZM9.39 15.9811L9.49036 16.1543L9.49578 16.1509L9.39 15.9811ZM8.90491 17.3981L9.08846 17.3186L9.08813 17.3178L8.90491 17.3981ZM9.40137 18.2695L9.56416 18.1533L9.56337 18.1522L9.40137 18.2695ZM10.9014 18.6069L10.8066 18.4306L10.8008 18.434L10.9014 18.6069ZM10.9582 18.5763L11.0529 18.7525L11.0561 18.7507L10.9582 18.5763ZM11.3673 18.5991L11.4768 18.4317L11.4759 18.4311L11.3673 18.5991ZM11.6705 18.7731L11.7637 18.596L11.762 18.5952L11.6705 18.7731ZM12.9205 20.3107L12.9012 20.5098L12.9019 20.5098L12.9205 20.3107ZM13.8978 20.3107L13.9165 20.5098L13.9172 20.5098L13.8978 20.3107ZM15.1478 18.7731L15.0579 18.5944L15.0547 18.5961L15.1478 18.7731ZM15.4511 18.5991L15.5554 18.7697L15.5572 18.7686L15.4511 18.5991ZM15.8637 18.5763L15.9632 18.4028L15.9595 18.4008L15.8637 18.5763ZM15.917 18.6069L16.0171 18.4337L16.0165 18.4334L15.917 18.6069ZM17.4205 18.2695L17.5831 18.3861L17.5837 18.3851L17.4205 18.2695ZM17.917 17.3981L18.0998 17.4793L18.1002 17.4783L17.917 17.3981ZM2.42482 8.96969V8.76969H2.22482V8.96969H2.42482ZM16.0612 8.96969H16.2612V8.76969H16.0612V8.96969ZM14.167 4.80287H13.967V5.00287H14.167V4.80287ZM13.4099 4.80287L13.4099 5.00287L13.6099 5.00285V4.80287H13.4099ZM5.07609 4.80358H4.87609V5.0036L5.07611 5.00358L5.07609 4.80358ZM4.319 4.80358V5.00358H4.519V4.80358H4.319ZM4.31827 5.56059H4.51827V5.36059H4.31827V5.56059ZM5.07536 5.56059V5.36059H4.87536V5.56059H5.07536ZM13.4085 5.56059H13.6085V5.36059H13.4085V5.56059ZM14.1655 5.56059V5.36059H13.9655V5.56059H14.1655ZM16.059 8.21187L16.059 8.41187L16.259 8.41186V8.21187H16.059ZM2.42409 8.21258H2.22409V8.41259L2.4241 8.41258L2.42409 8.21258ZM16.4336 15.3198L16.6335 15.3136V15.3136L16.4336 15.3198ZM10.3805 15.4991L10.5804 15.4929V15.4929L10.3805 15.4991ZM17.4319 15.9811L17.5377 15.8114L17.4887 15.7809L17.3829 15.9506L17.2771 16.1203L17.3261 16.1509L17.4319 15.9811ZM17.3829 15.9506L17.4846 15.7784C17.4185 15.7393 17.3905 15.6762 17.393 15.6321L17.1933 15.6211L16.9936 15.61C16.9818 15.823 17.1044 16.0184 17.2812 16.1228L17.3829 15.9506ZM17.1933 15.6211L17.393 15.6309C17.3964 15.5621 17.4011 15.4832 17.4011 15.4051H17.2011H17.0011C17.0011 15.4706 16.9972 15.5366 16.9935 15.6112L17.1933 15.6211ZM17.2011 15.4051H17.4011C17.4011 15.3352 17.4013 15.2519 17.3921 15.1676L17.1933 15.1892L16.9944 15.2109C17.0009 15.27 17.0011 15.3316 17.0011 15.4051H17.2011ZM17.1933 15.1892L17.3929 15.1771C17.3902 15.1319 17.42 15.0682 17.4808 15.0341L17.3829 14.8597L17.285 14.6853C17.1029 14.7875 16.9808 14.9894 16.9936 15.2014L17.1933 15.1892ZM17.3829 14.8597L17.4887 15.0294L17.5377 14.9989L17.4319 14.8292L17.3261 14.6594L17.2771 14.69L17.3829 14.8597ZM17.4319 14.8292L17.5322 15.0022C18.1194 14.6618 18.3703 13.949 18.1002 13.332L17.917 13.4122L17.7338 13.4924C17.9183 13.9138 17.7515 14.4127 17.3316 14.6561L17.4319 14.8292ZM17.917 13.4122L18.1005 13.3328C17.9619 13.0126 17.7885 12.708 17.5825 12.4235L17.4205 12.5408L17.2585 12.6581C17.4475 12.919 17.6064 13.1983 17.7335 13.4917L17.917 13.4122ZM17.4205 12.5408L17.5833 12.4246C17.1765 11.8546 16.4198 11.6815 15.82 12.0306L15.9205 12.2034L16.0211 12.3763C16.4369 12.1344 16.9671 12.2497 17.2577 12.657L17.4205 12.5408ZM15.9205 12.2034L15.8259 12.0273L15.769 12.0578L15.8637 12.234L15.9584 12.4101L16.0152 12.3796L15.9205 12.2034ZM15.8637 12.234L15.7658 12.0596C15.7151 12.0881 15.6355 12.09 15.5632 12.0433L15.4546 12.2112L15.3461 12.3792C15.5309 12.4987 15.7695 12.5162 15.9616 12.4084L15.8637 12.234ZM15.4546 12.2112L15.5642 12.0439C15.4576 11.9741 15.3487 11.9138 15.2428 11.8593L15.1514 12.0372L15.0599 12.2151C15.1585 12.2658 15.2542 12.3191 15.3451 12.3786L15.4546 12.2112ZM15.1514 12.0372L15.2445 11.8602C15.1641 11.8179 15.1276 11.748 15.1276 11.6928H14.9276H14.7276C14.7276 11.9174 14.8659 12.1131 15.0583 12.2142L15.1514 12.0372ZM14.9276 11.6928H15.1276V11.6324H14.9276H14.7276V11.6928H14.9276ZM14.9276 11.6324H15.1276C15.1276 10.9423 14.6065 10.3674 13.9208 10.3005L13.9014 10.4996L13.882 10.6986C14.3624 10.7455 14.7276 11.1478 14.7276 11.6324H14.9276ZM13.9014 10.4996L13.9203 10.3005C13.586 10.2688 13.2395 10.2688 12.9052 10.3005L12.9241 10.4996L12.943 10.6987C13.2521 10.6693 13.5733 10.6693 13.8825 10.6987L13.9014 10.4996ZM12.9241 10.4996L12.9047 10.3005C12.2189 10.3674 11.6978 10.9423 11.6978 11.6324H11.8978H12.0978C12.0978 11.1478 12.4631 10.7455 12.9435 10.6986L12.9241 10.4996ZM11.8978 11.6324H11.6978V11.6928H11.8978H12.0978V11.6324H11.8978ZM11.8978 11.6928H11.6978C11.6978 11.748 11.6614 11.8179 11.581 11.8602L11.6741 12.0372L11.7672 12.2142C11.9596 12.1131 12.0978 11.9174 12.0978 11.6928H11.8978ZM11.6741 12.0372L11.5842 11.8586C11.4698 11.9162 11.3641 11.9809 11.2665 12.0406L11.3708 12.2112L11.4752 12.3819C11.5749 12.3208 11.6667 12.2648 11.764 12.2159L11.6741 12.0372ZM11.3708 12.2112L11.2647 12.0417C11.1868 12.0905 11.1092 12.0885 11.054 12.0584L10.9582 12.234L10.8624 12.4095C11.0572 12.5158 11.2892 12.4982 11.4769 12.3808L11.3708 12.2112ZM10.9582 12.234L11.0577 12.0605L11.0044 12.0299L10.9049 12.2034L10.8054 12.3769L10.8587 12.4075L10.9582 12.234ZM10.9049 12.2034L11.005 12.0303C10.4015 11.6816 9.64473 11.8584 9.23886 12.4242L9.40137 12.5408L9.56387 12.6574C9.854 12.253 10.3856 12.1344 10.8049 12.3766L10.9049 12.2034ZM9.40137 12.5408L9.23816 12.4252C9.03749 12.7085 8.86399 13.0119 8.72215 13.331L8.90491 13.4122L9.08767 13.4935C9.21856 13.199 9.37888 12.9185 9.56457 12.6564L9.40137 12.5408ZM8.90491 13.4122L8.7217 13.332C8.45169 13.9488 8.70163 14.6618 9.2898 15.0022L9.39 14.8292L9.4902 14.6561C9.06984 14.4127 8.90359 13.914 9.08813 13.4924L8.90491 13.4122ZM9.39 14.8292L9.28422 14.9989L9.33323 15.0294L9.43901 14.8597L9.54479 14.69L9.49578 14.6594L9.39 14.8292ZM9.43901 14.8597L9.3373 15.0319C9.40341 15.0709 9.43138 15.1341 9.42895 15.1782L9.62864 15.1892L9.82834 15.2003C9.84009 14.9873 9.71751 14.7919 9.54072 14.6875L9.43901 14.8597ZM9.62864 15.1892L9.42889 15.1793C9.42548 15.2482 9.42083 15.3271 9.42083 15.4051H9.62083H9.82083C9.82083 15.3397 9.82471 15.2737 9.8284 15.1991L9.62864 15.1892ZM9.62083 15.4051H9.42083C9.42083 15.475 9.42064 15.5584 9.42982 15.6427L9.62864 15.6211L9.82747 15.5994C9.82103 15.5403 9.82083 15.4787 9.82083 15.4051H9.62083ZM9.62864 15.6211L9.42901 15.6332C9.43176 15.6784 9.40189 15.7421 9.3411 15.7762L9.43901 15.9506L9.53691 16.125C9.71903 16.0228 9.84116 15.8209 9.82828 15.6089L9.62864 15.6211ZM9.43901 15.9506L9.33323 15.7809L9.28422 15.8114L9.39 15.9811L9.49578 16.1509L9.54479 16.1203L9.43901 15.9506ZM9.39 15.9811L9.2897 15.8081C8.70251 16.1485 8.45162 16.8613 8.7217 17.4783L8.90491 17.3981L9.08813 17.3178C8.90366 16.8965 9.07041 16.3976 9.49031 16.1542L9.39 15.9811ZM8.90491 17.3981L8.72137 17.4775C8.85998 17.7977 9.0334 18.1023 9.23937 18.3868L9.40137 18.2695L9.56337 18.1522C9.37442 17.8912 9.21547 17.612 9.08845 17.3186L8.90491 17.3981ZM9.40137 18.2695L9.23857 18.3857C9.6454 18.9557 10.4021 19.1287 11.0019 18.7797L10.9014 18.6069L10.8008 18.434C10.385 18.6759 9.85479 18.5606 9.56416 18.1533L9.40137 18.2695ZM10.9014 18.6069L10.9961 18.783L11.0529 18.7525L10.9582 18.5763L10.8635 18.4002L10.8067 18.4307L10.9014 18.6069ZM10.9582 18.5763L11.0561 18.7507C11.1068 18.7222 11.1865 18.7203 11.2587 18.767L11.3673 18.5991L11.4759 18.4311C11.291 18.3116 11.0524 18.2941 10.8603 18.4019L10.9582 18.5763ZM11.3673 18.5991L11.2577 18.7664C11.3643 18.8361 11.4732 18.8965 11.5791 18.9509L11.6705 18.7731L11.762 18.5952C11.6634 18.5445 11.5677 18.4912 11.4768 18.4317L11.3673 18.5991ZM11.6705 18.7731L11.5774 18.9501C11.6578 18.9923 11.6943 19.0623 11.6943 19.1175H11.8943H12.0943C12.0943 18.8929 11.956 18.6972 11.7637 18.5961L11.6705 18.7731ZM11.8943 19.1175H11.6943V19.1779H11.8943H12.0943V19.1175H11.8943ZM11.8943 19.1779H11.6943C11.6943 19.868 12.2154 20.4429 12.9012 20.5098L12.9205 20.3107L12.9399 20.1116C12.4595 20.0648 12.0943 19.6625 12.0943 19.1779H11.8943ZM12.9205 20.3107L12.9019 20.5098C13.0671 20.5253 13.236 20.5334 13.4092 20.5334V20.3334V20.1334C13.2485 20.1334 13.0921 20.1259 12.9392 20.1116L12.9205 20.3107ZM13.4092 20.3334V20.5334C13.5824 20.5334 13.7512 20.5253 13.9165 20.5098L13.8978 20.3107L13.8792 20.1116C13.7262 20.1259 13.5698 20.1334 13.4092 20.1334V20.3334ZM13.8978 20.3107L13.9172 20.5098C14.603 20.4429 15.1241 19.868 15.1241 19.1779H14.9241H14.7241C14.7241 19.6625 14.3589 20.0648 13.8784 20.1116L13.8978 20.3107ZM14.9241 19.1779H15.1241V19.1175H14.9241H14.7241V19.1779H14.9241ZM14.9241 19.1175H15.1241C15.1241 19.0623 15.1606 18.9923 15.2409 18.9501L15.1478 18.7731L15.0547 18.5961C14.8624 18.6972 14.7241 18.8929 14.7241 19.1175H14.9241ZM15.1478 18.7731L15.2377 18.9517C15.3521 18.8941 15.4578 18.8294 15.5554 18.7697L15.4511 18.5991L15.3468 18.4284C15.247 18.4894 15.1552 18.5455 15.0579 18.5944L15.1478 18.7731ZM15.4511 18.5991L15.5572 18.7686C15.6351 18.7198 15.7127 18.7218 15.768 18.7519L15.8637 18.5763L15.9595 18.4008C15.7647 18.2945 15.5327 18.3121 15.345 18.4295L15.4511 18.5991ZM15.8637 18.5763L15.7643 18.7498L15.8175 18.7804L15.917 18.6069L16.0165 18.4334L15.9632 18.4028L15.8637 18.5763ZM15.917 18.6069L15.8169 18.78C16.4204 19.1287 17.1772 18.9519 17.5831 18.3861L17.4205 18.2695L17.258 18.1529C16.9679 18.5573 16.4363 18.6759 16.0171 18.4337L15.917 18.6069ZM17.4205 18.2695L17.5837 18.3851C17.7844 18.1018 17.9579 17.7984 18.0998 17.4793L17.917 17.3981L17.7342 17.3168C17.6033 17.6113 17.443 17.8917 17.2573 18.1539L17.4205 18.2695ZM17.917 17.3981L18.1002 17.4783C18.3702 16.8614 18.1203 16.1485 17.5321 15.808L17.4319 15.9811L17.3317 16.1542C17.7521 16.3976 17.9183 16.8963 17.7338 17.3178L17.917 17.3981ZM10.3822 15.5834H10.5822C10.5822 15.5514 10.5812 15.5198 10.5803 15.4916C10.5794 15.4624 10.5786 15.4361 10.5786 15.4094H10.3786H10.1786C10.1786 15.4431 10.1796 15.4754 10.1805 15.5039C10.1814 15.5334 10.1822 15.5586 10.1822 15.5834H10.3822ZM16.4319 15.2354H16.2319C16.2319 15.2674 16.2329 15.299 16.2338 15.3272C16.2347 15.3564 16.2355 15.3828 16.2355 15.4094H16.4355H16.6355C16.6355 15.3757 16.6345 15.3434 16.6336 15.3149C16.6327 15.2854 16.6319 15.2602 16.6319 15.2354H16.4319ZM13.4092 16.5457V16.3457C12.8946 16.3457 12.4728 15.9239 12.4728 15.4093H12.2728H12.0728C12.0728 16.1448 12.6737 16.7457 13.4092 16.7457V16.5457ZM12.2728 15.4093H12.4728C12.4728 14.8948 12.8946 14.473 13.4092 14.473V14.273V14.073C12.6737 14.073 12.0728 14.6739 12.0728 15.4093H12.2728ZM13.4092 14.273V14.473C13.9237 14.473 14.3455 14.8948 14.3455 15.4093H14.5455H14.7455C14.7455 14.6739 14.1446 14.073 13.4092 14.073V14.273ZM14.5455 15.4093H14.3455C14.3455 15.9239 13.9237 16.3457 13.4092 16.3457V16.5457V16.7457C14.1446 16.7457 14.7455 16.1448 14.7455 15.4093H14.5455ZM7.015 15.7879V15.5879H2.80336V15.7879V15.9879H7.015V15.7879ZM2.80336 15.7879V15.5879C2.70573 15.5879 2.62482 15.507 2.62482 15.4093H2.42482H2.22482C2.22482 15.7279 2.48481 15.9879 2.80336 15.9879V15.7879ZM2.42482 15.4093H2.62482V8.96969H2.42482H2.22482V15.4093H2.42482ZM2.42482 8.96969V9.16969H16.0612V8.96969V8.76969H2.42482V8.96969ZM16.0612 8.96969H15.8612V9.73105H16.0612H16.2612V8.96969H16.0612ZM16.0612 9.73105H15.8612C15.8612 10.0496 16.1212 10.3096 16.4397 10.3096V10.1096V9.9096C16.3421 9.9096 16.2612 9.82868 16.2612 9.73105H16.0612ZM16.4397 10.1096V10.3096C16.7583 10.3096 17.0183 10.0496 17.0183 9.73105H16.8183H16.6183C16.6183 9.82868 16.5374 9.9096 16.4397 9.9096V10.1096ZM16.8183 9.73105H17.0183V5.93923H16.8183H16.6183V9.73105H16.8183ZM16.8183 5.93923H17.0183C17.0183 5.20377 16.4174 4.60287 15.6819 4.60287V4.80287V5.00287C16.1965 5.00287 16.6183 5.42469 16.6183 5.93923H16.8183ZM15.6819 4.80287V4.60287H14.167V4.80287V5.00287H15.6819V4.80287ZM14.167 4.80287H14.367V4.04505H14.167H13.967V4.80287H14.167ZM14.167 4.04505H14.367C14.367 3.7265 14.107 3.4665 13.7885 3.4665V3.6665V3.8665C13.8861 3.8665 13.967 3.94742 13.967 4.04505H14.167ZM13.7885 3.6665V3.4665C13.4699 3.4665 13.2099 3.7265 13.2099 4.04505H13.4099H13.6099C13.6099 3.94741 13.6908 3.8665 13.7885 3.8665V3.6665ZM13.4099 4.04505H13.2099V4.80287H13.4099H13.6099V4.04505H13.4099ZM13.4099 4.80287L13.4099 4.60287L5.07607 4.60358L5.07609 4.80358L5.07611 5.00358L13.4099 5.00287L13.4099 4.80287ZM5.07609 4.80358H5.27609V4.04576H5.07609H4.87609V4.80358H5.07609ZM5.07609 4.04576H5.27609C5.27609 3.72721 5.01609 3.46721 4.69754 3.46721V3.66721V3.86721C4.79518 3.86721 4.87609 3.94813 4.87609 4.04576H5.07609ZM4.69754 3.66721V3.46721C4.379 3.46721 4.119 3.72721 4.119 4.04576H4.319H4.519C4.519 3.94813 4.59991 3.86721 4.69754 3.86721V3.66721ZM4.319 4.04576H4.119V4.80358H4.319H4.519V4.04576H4.319ZM4.319 4.80358V4.60358H2.80409V4.80358V5.00358H4.319V4.80358ZM2.80409 4.80358V4.60358C2.06863 4.60358 1.46772 5.20448 1.46772 5.93994H1.66772H1.86772C1.86772 5.4254 2.28955 5.00358 2.80409 5.00358V4.80358ZM1.66772 5.93994H1.46772V15.4094H1.66772H1.86772V5.93994H1.66772ZM1.66772 15.4094H1.46772C1.46772 16.1449 2.06863 16.7458 2.80409 16.7458V16.5458V16.3458C2.28955 16.3458 1.86772 15.9239 1.86772 15.4094H1.66772ZM2.80409 16.5458V16.7458H7.01645V16.5458V16.3458H2.80409V16.5458ZM7.01645 16.5458V16.7458C7.335 16.7458 7.595 16.4858 7.595 16.1672H7.395H7.195C7.195 16.2648 7.11409 16.3458 7.01645 16.3458V16.5458ZM7.395 16.1672H7.595C7.595 15.8482 7.3331 15.5879 7.015 15.5879V15.7879V15.9879C7.11308 15.9879 7.195 16.07 7.195 16.1672H7.395ZM2.80336 5.56059V5.76059H4.31827V5.56059V5.36059H2.80336V5.56059ZM4.31827 5.56059H4.11827V6.31841H4.31827H4.51827V5.56059H4.31827ZM4.31827 6.31841H4.11827C4.11827 6.63696 4.37827 6.89696 4.69682 6.89696V6.69696V6.49696C4.59918 6.49696 4.51827 6.41605 4.51827 6.31841H4.31827ZM4.69682 6.69696V6.89696C5.01536 6.89696 5.27536 6.63696 5.27536 6.31841H5.07536H4.87536C4.87536 6.41605 4.79445 6.49696 4.69682 6.49696V6.69696ZM5.07536 6.31841H5.27536V5.56059H5.07536H4.87536V6.31841H5.07536ZM5.07536 5.56059V5.76059H13.4085V5.56059V5.36059H5.07536V5.56059ZM13.4085 5.56059H13.2085V6.31841H13.4085H13.6085V5.56059H13.4085ZM13.4085 6.31841H13.2085C13.2085 6.63696 13.4685 6.89696 13.787 6.89696V6.69696V6.49696C13.6894 6.49696 13.6085 6.41605 13.6085 6.31841H13.4085ZM13.787 6.69696V6.89696C14.1055 6.89696 14.3655 6.63696 14.3655 6.31841H14.1655H13.9655C13.9655 6.41605 13.8846 6.49696 13.787 6.49696V6.69696ZM14.1655 6.31841H14.3655V5.56059H14.1655H13.9655V6.31841H14.1655ZM14.1655 5.56059V5.76059H15.6805V5.56059V5.36059H14.1655V5.56059ZM15.6805 5.56059V5.76059C15.7781 5.76059 15.859 5.84151 15.859 5.93914H16.059H16.259C16.259 5.62059 15.999 5.36059 15.6805 5.36059V5.56059ZM16.059 5.93914H15.859V8.21187H16.059H16.259V5.93914H16.059ZM16.059 8.21187L16.059 8.01187L2.42408 8.01258L2.42409 8.21258L2.4241 8.41258L16.059 8.41187L16.059 8.21187ZM2.42409 8.21258H2.62409V5.93985H2.42409H2.22409V8.21258H2.42409ZM2.42409 5.93985H2.62409C2.62409 5.84223 2.70572 5.76059 2.80336 5.76059V5.56059V5.36059C2.48482 5.36059 2.22409 5.62129 2.22409 5.93985H2.42409ZM16.4355 15.4094H16.6355C16.6355 15.3752 16.6344 15.3425 16.6335 15.3136L16.4336 15.3198L16.2337 15.3259C16.2346 15.3556 16.2355 15.3823 16.2355 15.4094H16.4355ZM16.4336 15.3198L16.6335 15.3136C16.6327 15.2847 16.6319 15.2598 16.6319 15.2354H16.4319H16.2319C16.2319 15.267 16.2329 15.298 16.2337 15.3259L16.4336 15.3198ZM10.3786 15.4094H10.1786C10.1786 15.4436 10.1797 15.4764 10.1805 15.5052L10.3805 15.4991L10.5804 15.4929C10.5794 15.4632 10.5786 15.4365 10.5786 15.4094H10.3786ZM10.3805 15.4991L10.1805 15.5052C10.1814 15.5341 10.1822 15.559 10.1822 15.5834H10.3822H10.5822C10.5822 15.5518 10.5812 15.5208 10.5804 15.4929L10.3805 15.4991Z" fill="#314158" mask="url(#path-1-outside-1_841_6081)"/>
</svg>
