<svg xmlns="http://www.w3.org/2000/svg" width="17" height="17" viewBox="0 0 17 17" fill="none">
<path d="M13.8125 2.125H12.2188V1.59375C12.2188 1.45285 12.1628 1.31773 12.0632 1.2181C11.9635 1.11847 11.8284 1.0625 11.6875 1.0625C11.5466 1.0625 11.4115 1.11847 11.3118 1.2181C11.2122 1.31773 11.1562 1.45285 11.1562 1.59375V2.125H5.84375V1.59375C5.84375 1.45285 5.78778 1.31773 5.68815 1.2181C5.58852 1.11847 5.4534 1.0625 5.3125 1.0625C5.1716 1.0625 5.03648 1.11847 4.93685 1.2181C4.83722 1.31773 4.78125 1.45285 4.78125 1.59375V2.125H3.1875C2.90571 2.125 2.63546 2.23694 2.4362 2.4362C2.23694 2.63546 2.125 2.90571 2.125 3.1875V13.8125C2.125 14.0943 2.23694 14.3645 2.4362 14.5638C2.63546 14.7631 2.90571 14.875 3.1875 14.875H13.8125C14.0943 14.875 14.3645 14.7631 14.5638 14.5638C14.7631 14.3645 14.875 14.0943 14.875 13.8125V3.1875C14.875 2.90571 14.7631 2.63546 14.5638 2.4362C14.3645 2.23694 14.0943 2.125 13.8125 2.125ZM4.78125 4.25V3.71875C4.78125 3.57785 4.83722 3.44273 4.93685 3.3431C5.03648 3.24347 5.1716 3.1875 5.3125 3.1875C5.4534 3.1875 5.58852 3.24347 5.68815 3.3431C5.78778 3.44273 5.84375 3.57785 5.84375 3.71875V4.25C5.84375 4.3909 5.78778 4.52602 5.68815 4.62565C5.58852 4.72528 5.4534 4.78125 5.3125 4.78125C5.1716 4.78125 5.03648 4.72528 4.93685 4.62565C4.83722 4.52602 4.78125 4.3909 4.78125 4.25ZM11.8568 8.28086L10.2325 9.6216L10.7279 11.6211C10.7405 11.6719 10.7379 11.7252 10.7203 11.7745C10.7027 11.8238 10.6709 11.8667 10.629 11.898C10.583 11.9319 10.5274 11.9503 10.4703 11.9505C10.4236 11.9502 10.3778 11.9376 10.3375 11.9139L8.5 10.8362L6.66453 11.9166C6.61925 11.9434 6.56701 11.9562 6.51445 11.9533C6.46189 11.9504 6.41138 11.932 6.36933 11.9003C6.32728 11.8686 6.29558 11.8252 6.27827 11.7755C6.26095 11.7258 6.25879 11.672 6.27207 11.6211L6.76746 9.61895L5.14316 8.28086C5.10216 8.24719 5.07218 8.202 5.05709 8.15114C5.042 8.10027 5.04249 8.04605 5.05849 7.99546C5.0745 7.94487 5.10529 7.90024 5.14689 7.86731C5.18849 7.83438 5.239 7.81466 5.29191 7.8107L7.43285 7.64535L8.25629 5.73883C8.27689 5.69131 8.31094 5.65084 8.35424 5.62242C8.39754 5.594 8.4482 5.57885 8.5 5.57885C8.5518 5.57885 8.60246 5.594 8.64576 5.62242C8.68906 5.65084 8.72311 5.69131 8.74371 5.73883L9.56715 7.64535L11.7081 7.8107C11.761 7.81466 11.8115 7.83438 11.8531 7.86731C11.8947 7.90024 11.9255 7.94487 11.9415 7.99546C11.9575 8.04605 11.958 8.10027 11.9429 8.15114C11.9278 8.202 11.8978 8.24719 11.8568 8.28086ZM12.2188 4.25C12.2188 4.3909 12.1628 4.52602 12.0632 4.62565C11.9635 4.72528 11.8284 4.78125 11.6875 4.78125C11.5466 4.78125 11.4115 4.72528 11.3118 4.62565C11.2122 4.52602 11.1562 4.3909 11.1562 4.25V3.71875C11.1562 3.57785 11.2122 3.44273 11.3118 3.3431C11.4115 3.24347 11.5466 3.1875 11.6875 3.1875C11.8284 3.1875 11.9635 3.24347 12.0632 3.3431C12.1628 3.44273 12.2188 3.57785 12.2188 3.71875V4.25Z" fill="#343435"/>
</svg>
