<svg xmlns="http://www.w3.org/2000/svg" width="20" height="20" viewBox="0 0 20 20" fill="none">
<path d="M10.1245 0.194163L10.6055 1.16888C10.6274 1.21345 10.6702 1.2444 10.7194 1.25165L11.7951 1.40795C11.9191 1.42595 11.9688 1.57853 11.879 1.66612L11.1005 2.42482C11.0649 2.45951 11.0485 2.50978 11.057 2.55873L11.2408 3.63005C11.2621 3.75364 11.1323 3.84804 11.0213 3.78965L10.0591 3.28385C10.0149 3.26058 9.96224 3.26058 9.91812 3.28385L8.95591 3.78965C8.84483 3.84804 8.71508 3.75364 8.73638 3.63005L8.92013 2.55873C8.92847 2.50956 8.91222 2.45951 8.87666 2.42482L8.0982 1.66612C8.00841 1.57853 8.05803 1.42595 8.18206 1.40795L9.25777 1.25165C9.30716 1.2444 9.34975 1.21345 9.3717 1.16888L9.8527 0.194163C9.90868 0.0817633 10.0689 0.0817633 10.1245 0.194163Z" fill="#343435"/>
<path d="M17.1286 15.3179H17.0843C17.645 15.3179 18.1038 14.8591 18.1038 14.2984V14.0951C18.1038 13.5344 17.645 13.0756 17.0843 13.0756H16.9631C17.5238 13.0756 17.9826 12.6168 17.9826 12.0561V11.8526C17.9826 11.2919 17.5238 10.8331 16.9631 10.8331L12.7005 10.8399C13.1503 6.53795 12.2768 5.48859 10.5436 5.89143C10.4274 8.32866 8.88414 11.6513 7.31361 11.7422C6.47171 14.1669 6.42693 16.5356 7.31361 18.8385C7.87386 19.4547 9.24 19.8356 10.539 19.8029H16.2867C16.8474 19.8029 17.3062 19.3441 17.3062 18.7834V18.5801C17.3062 18.0194 16.8474 17.5606 16.2867 17.5606H17.1289C17.6895 17.5606 18.1484 17.1018 18.1484 16.5411V16.3378C18.1481 15.7767 17.6893 15.3179 17.1286 15.3179Z" fill="#343435"/>
<path d="M7.31358 11.3243C7.31358 11.0262 7.04026 10.7821 6.70614 10.7821H2.43691C2.10278 10.7821 1.82947 11.026 1.82947 11.3243V19.3254C1.82947 19.6235 2.10278 19.8676 2.43691 19.8676H6.70614C7.04026 19.8676 7.31358 19.6235 7.31358 19.3254V18.8385V11.7421V11.3243Z" fill="#343435"/>
<path d="M15.364 2.37743L15.845 3.35215C15.8669 3.39672 15.9098 3.42767 15.9589 3.43492L17.0346 3.59122C17.1587 3.60922 17.2083 3.7618 17.1185 3.84939L16.34 4.60809C16.3045 4.64278 16.288 4.69305 16.2966 4.742L16.4803 5.81332C16.5016 5.93691 16.3719 6.03131 16.2608 5.97292L15.2986 5.46712C15.2545 5.44385 15.2018 5.44385 15.1576 5.46712L14.1954 5.97292C14.0844 6.03131 13.9546 5.93691 13.9759 5.81332L14.1599 4.742C14.1682 4.69283 14.152 4.64278 14.1164 4.60809L13.3379 3.84939C13.2482 3.7618 13.2978 3.60922 13.4218 3.59122L14.4975 3.43492C14.5469 3.42767 14.5895 3.39672 14.6114 3.35215L15.0924 2.37743C15.148 2.26481 15.3085 2.26481 15.364 2.37743Z" fill="#343435"/>
<path d="M5.10336 2.37743L5.58435 3.35215C5.6063 3.39672 5.64911 3.42767 5.69829 3.43492L6.77399 3.59122C6.89803 3.60922 6.94764 3.7618 6.85785 3.84939L6.07939 4.60809C6.04383 4.64278 6.02736 4.69305 6.03593 4.742L6.21967 5.81332C6.24097 5.93691 6.11122 6.03131 6.00014 5.97292L5.03794 5.46712C4.99381 5.44385 4.94112 5.44385 4.897 5.46712L3.93479 5.97292C3.82371 6.03131 3.69397 5.93691 3.71526 5.81332L3.89901 4.742C3.90735 4.69283 3.89111 4.64278 3.85554 4.60809L3.07708 3.84939C2.9873 3.7618 3.03691 3.60922 3.16094 3.59122L4.23665 3.43492C4.28604 3.42767 4.32863 3.39672 4.35058 3.35215L4.83158 2.37743C4.88756 2.26481 5.04782 2.26481 5.10336 2.37743Z" fill="#343435"/>
</svg>