<svg width="32" height="25" viewBox="0 0 32 25" fill="none" xmlns="http://www.w3.org/2000/svg">
<rect width="32" height="32" rx="8" fill="#E3F3FC"/>
<path d="M18.2913 23.1499C18.2921 23.0399 18.299 22.93 18.3117 22.8209C16.7759 23.4132 15.0748 23.4132 13.539 22.8209C13.5509 22.93 13.5578 23.0399 13.5595 23.1499C13.5586 23.3595 13.5382 23.5675 13.4981 23.7729C15.0731 24.3089 16.782 24.3089 18.357 23.7729C18.3152 23.5675 18.293 23.3595 18.2913 23.1499ZM9.35019 15.7367C9.62122 13.7586 10.7658 12.0062 12.4687 10.964C12.2735 10.7296 12.109 10.4722 11.9778 10.1978C10.015 11.408 8.71179 13.4476 8.43667 15.7368L9.35019 15.7367ZM19.3772 10.964C21.08 12.0063 22.2247 13.7587 22.4956 15.7367H23.405C23.1297 13.4501 21.8275 11.4132 19.8681 10.2021C19.7368 10.4774 19.5723 10.7339 19.3772 10.9683V10.964Z" fill="#28519E"/>
<path d="M18.1711 8.17532C17.7952 7.27019 16.9114 6.68042 15.9313 6.68127C14.594 6.6828 13.511 7.76693 13.511 9.10414C13.511 10.0843 14.1017 10.9681 15.0068 11.3431C15.9126 11.7173 16.9549 11.5102 17.6479 10.8164C18.3399 10.1236 18.547 9.08043 18.1711 8.17532Z" fill="#28519E"/>
<path d="M15.9313 12.4333C14.9827 12.4333 14.0793 12.0276 13.4495 11.3176C12.8699 11.835 12.5384 12.5747 12.5384 13.352V14.4404C12.5384 15.0847 13.06 15.6063 13.7043 15.6063H18.1583C18.7975 15.6054 19.3157 15.0907 19.3225 14.4523V13.3631C19.3259 12.5833 18.9952 11.8384 18.4131 11.3176C17.7833 12.0276 16.8799 12.4333 15.9313 12.4333Z" fill="#28519E"/>
<path d="M11.4816 17.8718C11.1188 16.9613 10.2437 16.3587 9.26367 16.3454C7.92651 16.3274 6.82788 17.3957 6.80844 18.7328C6.79419 19.7129 7.37192 20.6051 8.27147 20.9933C9.17181 21.3805 10.217 21.1886 10.9199 20.505C11.622 19.8223 11.8442 18.7823 11.4816 17.8718Z" fill="#28519E"/>
<path d="M9.18005 22.0967C8.23156 22.0829 7.33415 21.6642 6.71472 20.9451C6.1277 21.454 5.78547 22.1889 5.77417 22.9661L5.75835 24.0543C5.74899 24.6986 6.26295 25.2277 6.9072 25.237L11.3607 25.3018C11.9998 25.3102 12.5254 24.803 12.5415 24.1649L12.5574 23.0758C12.5721 22.2961 12.2523 21.5465 11.6778 21.0173C11.0377 21.718 10.1285 22.1105 9.18005 22.0967Z" fill="#28519E"/>
<path d="M25.0856 17.8718C24.7228 16.9613 23.8477 16.3587 22.8677 16.3454C21.5305 16.3274 20.4319 17.3957 20.4124 18.7328C20.3982 19.7129 20.9759 20.6051 21.8755 20.9933C22.7758 21.3805 23.821 21.1886 24.5239 20.505C25.226 19.8223 25.4482 18.7823 25.0856 17.8718Z" fill="#28519E"/>
<path d="M22.7841 22.0967C21.8356 22.0829 20.9382 21.6642 20.3187 20.9451C19.7317 21.454 19.3895 22.1889 19.3782 22.9661L19.3624 24.0543C19.353 24.6986 19.867 25.2277 20.5112 25.237L24.9647 25.3018C25.6038 25.3102 26.1294 24.803 26.1455 24.1649L26.1614 23.0758C26.1761 22.2961 25.8563 21.5465 25.2818 21.0173C24.6418 21.718 23.7325 22.1105 22.7841 22.0967Z" fill="#28519E"/>
</svg>
