<svg width="100" height="100" viewBox="0 0 100 100" fill="none" xmlns="http://www.w3.org/2000/svg">
    <circle cx="50" cy="50" r="50" fill="#E9ECEB"/>
    <path d="M56.7266 23.3555C59.7734 23.9649 61.7539 26.9297 61.1445 29.9766L60.875 31.3125C60.2539 34.4415 59.1055 37.418 57.5 40.125H74.375C77.4805 40.125 80 42.6446 80 45.75C80 47.918 78.7695 49.8047 76.9648 50.7422C78.2422 51.7735 79.0625 53.3555 79.0625 55.125C79.0625 57.8672 77.0938 60.1524 74.5039 60.6446C75.0195 61.5001 75.3125 62.4961 75.3125 63.5625C75.3125 66.0586 73.6836 68.1797 71.4336 68.9063C71.5156 69.293 71.5625 69.7032 71.5625 70.125C71.5625 73.2305 69.043 75.75 65.9375 75.75H54.5117C52.2852 75.75 50.1172 75.0938 48.2656 73.8633L43.7539 70.8516C40.625 68.7657 38.75 65.25 38.75 61.4883V57V51.375V48.4571C38.75 45.0352 40.3086 41.8125 42.9688 39.668L43.8359 38.9766C46.9414 36.4922 49.0625 33 49.8359 29.1094L50.1055 27.7735C50.7148 24.7266 53.6797 22.7461 56.7266 23.3555ZM23.75 42H31.25C33.3242 42 35 43.6758 35 45.75V72C35 74.0743 33.3242 75.75 31.25 75.75H23.75C21.6758 75.75 20 74.0743 20 72V45.75C20 43.6758 21.6758 42 23.75 42Z" fill="#B2B2B3"/>
    </svg>
    