<svg width="33" height="32" viewBox="0 0 33 32" fill="none" xmlns="http://www.w3.org/2000/svg">
<rect x="0.666504" width="32" height="32" rx="8" fill="#E3F3FC"/>
<g clip-path="url(#clip0_11818_2259)">
<path d="M26.4851 22.1653V29.0738H11.8552V27.0419C11.8552 26.8173 12.0373 26.6355 12.2616 26.6355H16.7318V24.6036C16.7318 24.379 16.9139 24.1972 17.1382 24.1972H21.6085V22.1653C21.6085 21.9407 21.7905 21.7589 22.0149 21.7589H26.0787C26.303 21.7589 26.4851 21.9407 26.4851 22.1653Z" fill="#28519E"/>
<path d="M13.8875 10.7864C13.8875 11.9086 12.9777 12.8184 11.8555 12.8184C10.7334 12.8184 9.82361 11.9086 9.82361 10.7864C9.82361 9.66428 10.7334 8.75452 11.8555 8.75452C12.9777 8.75452 13.8875 9.66428 13.8875 10.7864Z" fill="#28519E"/>
<path d="M11.4759 22.6081L10.196 26.87C10.0904 27.2214 9.76743 27.4484 9.4174 27.4484C9.34046 27.4484 9.26189 27.4373 9.18332 27.4143C8.75391 27.2848 8.51035 26.8318 8.63877 26.4016L10.0058 21.8503L11.4759 22.6081Z" fill="#28519E"/>
<path d="M23.2339 6.72278C23.2339 7.84495 22.3241 8.75471 21.202 8.75471C20.0798 8.75471 19.17 7.84495 19.17 6.72278C19.17 5.60062 20.0798 4.69086 21.202 4.69086C22.3241 4.69086 23.2339 5.60062 23.2339 6.72278Z" fill="#28519E"/>
<path d="M25.9299 5.54526C25.5015 5.4033 25.0434 5.63331 24.9017 6.05893L24.177 8.23282L22.1757 9.56712H19.577C19.3925 9.56712 19.2134 9.6297 19.0693 9.74485L17.0374 11.3704C16.8447 11.5254 16.7323 11.7586 16.7323 12.0054V14.4437C16.7323 14.8929 17.0961 15.2565 17.5451 15.2565C17.994 15.2565 18.3578 14.8929 18.3578 14.4437V12.3958L19.1706 11.7456V22.5714C19.1706 23.0206 19.5345 23.3842 19.9834 23.3842C20.4323 23.3842 20.7962 23.0206 20.7962 22.5714V16.8821H22.0852L23.2345 18.0313V20.1331C23.2345 20.5823 23.5983 20.9459 24.0472 20.9459C24.4962 20.9459 24.86 20.5823 24.86 20.1331V17.6948C24.86 17.4789 24.7744 17.2725 24.6219 17.1202L23.2345 15.7328V10.8147L25.3108 9.43058C25.4612 9.3306 25.5739 9.18295 25.631 9.01146L26.4438 6.57315C26.5861 6.14698 26.3558 5.68669 25.9299 5.54526Z" fill="#28519E"/>
<path d="M14.2936 21.3529V25.0104C14.2936 25.4596 13.93 25.8232 13.4808 25.8232C13.0316 25.8232 12.6681 25.4596 12.6681 25.0104V21.849L9.67491 20.3082C9.06045 19.9923 8.71286 19.3196 8.80985 18.6347L9.27394 15.4636C8.73155 15.6142 8.29401 16.0203 8.13877 16.573L7.76138 17.9152C7.66005 18.2742 7.3344 18.5082 6.97922 18.5082C6.90661 18.5082 6.83238 18.4987 6.75896 18.4782C6.32684 18.3568 6.07488 17.9076 6.19625 17.4757L6.57365 16.1336C6.92612 14.8795 7.98841 13.9597 9.28017 13.7906L15.9192 12.9188V14.5579L13.1603 14.9201L12.3386 19.8509L13.8534 20.6304C14.1237 20.7696 14.2936 21.0481 14.2936 21.3529Z" fill="#28519E"/>
</g>
<defs>
<clipPath id="clip0_11818_2259">
<rect width="24" height="24" fill="white" transform="translate(4.6665 4)"/>
</clipPath>
</defs>
</svg>
