<svg xmlns="http://www.w3.org/2000/svg" width="16" height="16" viewBox="0 0 16 16" fill="none">
<path d="M14.0003 0.5H2.33366C1.41699 0.5 0.666992 1.25 0.666992 2.16667V13.8333C0.666992 14.75 1.41699 15.5 2.33366 15.5H14.0003C14.917 15.5 15.667 14.75 15.667 13.8333V2.16667C15.667 1.25 14.917 0.5 14.0003 0.5ZM6.08366 7.58333C6.08366 8.25 5.50033 8.83333 4.83366 8.83333H4.00033V10.5H2.75033V5.5H4.83366C5.50033 5.5 6.08366 6.08333 6.08366 6.75V7.58333ZM10.2503 9.25C10.2503 9.91667 9.66699 10.5 9.00033 10.5H6.91699V5.5H9.00033C9.66699 5.5 10.2503 6.08333 10.2503 6.75V9.25ZM13.5837 6.75H12.3337V7.58333H13.5837V8.83333H12.3337V10.5H11.0837V5.5H13.5837V6.75ZM8.16699 6.75H9.00033V9.25H8.16699V6.75ZM4.00033 6.75H4.83366V7.58333H4.00033V6.75Z" fill="#F40F02"/>
</svg>