<svg width="20" height="20" viewBox="0 0 20 20" fill="none" xmlns="http://www.w3.org/2000/svg">
<path d="M5.1456 2.00006C4.23468 2.00006 3.49316 2.7421 3.49316 3.65299V16.3471C3.49316 17.258 4.23468 18 5.1456 18H14.8524C15.7633 18 16.5048 17.258 16.5048 16.3471V5.909C16.5048 5.909 16.5308 5.60336 16.3981 5.30593C16.2737 5.02714 16.071 4.83309 16.071 4.83309C16.0705 4.83241 16.07 4.83172 16.0695 4.83104L13.6612 2.46884C13.6599 2.46749 13.6586 2.46616 13.6572 2.46484C13.6572 2.46484 13.4516 2.26905 13.1468 2.13826C12.7879 1.98426 12.418 2.00051 12.418 2.00051L12.4235 2L5.1456 2.00006Z" fill="#FF2116"/>
<path d="M5.14561 2.54297H12.4235C12.4254 2.54299 12.4272 2.54299 12.4291 2.54297C12.4291 2.54297 12.7201 2.54579 12.933 2.63714C13.1378 2.72505 13.2831 2.85814 13.2841 2.85903C13.2841 2.85904 13.2851 2.86006 13.2851 2.86006L15.6873 5.21675C15.6873 5.21675 15.8321 5.36955 15.9022 5.5268C15.9589 5.65372 15.9623 5.88594 15.9623 5.88594C15.9621 5.88977 15.9619 5.89361 15.9618 5.89745V16.347C15.9618 16.9666 15.4719 17.457 14.8524 17.457H5.14561C4.52603 17.457 4.03613 16.9666 4.03613 16.347V3.65296C4.03613 3.03336 4.52603 2.54297 5.14561 2.54297Z" fill="white"/>
<path d="M6.74198 11.5262C6.3684 11.1526 6.77259 10.6393 7.86948 10.0942L8.55967 9.75117L8.82855 9.16287C8.97644 8.8393 9.19715 8.31134 9.31903 7.98963L9.54064 7.4047L9.38793 6.97182C9.20016 6.43955 9.1332 5.63969 9.25233 5.35208C9.4137 4.9625 9.94227 5.00247 10.1515 5.42008C10.315 5.74623 10.2983 6.33688 10.1045 7.08177L9.94571 7.69246L10.0856 7.92995C10.1625 8.06056 10.3873 8.37071 10.5851 8.61916L10.9567 9.08147L11.4192 9.02112C12.8884 8.8294 13.3917 9.15525 13.3917 9.62245C13.3917 10.2121 12.238 10.2608 11.2692 9.58033C11.0512 9.42723 10.9015 9.27515 10.9015 9.27515C10.9015 9.27515 10.2946 9.3987 9.99582 9.47924C9.68738 9.56238 9.5335 9.61444 9.08168 9.76695C9.08168 9.76695 8.92315 9.99716 8.81985 10.1645C8.43553 10.7872 7.9868 11.3032 7.66633 11.491C7.30753 11.7013 6.93137 11.7156 6.74198 11.5262ZM7.32825 11.3168C7.53825 11.187 7.96328 10.6843 8.2575 10.2177L8.37662 10.0288L7.83422 10.3015C6.9965 10.7227 6.61325 11.1197 6.81254 11.3598C6.92449 11.4947 7.05841 11.4835 7.32825 11.3168ZM12.7698 9.78937C12.9752 9.64551 12.9453 9.35559 12.7131 9.23871C12.5324 9.14774 12.3868 9.12905 11.9173 9.13598C11.6288 9.15565 11.1649 9.21379 11.0863 9.23148C11.0863 9.23148 11.3411 9.40761 11.4543 9.47235C11.6049 9.55837 11.9709 9.71806 12.2382 9.79985C12.5017 9.88054 12.6542 9.87204 12.7698 9.78937ZM10.5818 8.88C10.4575 8.74933 10.2461 8.4766 10.1121 8.27394C9.9368 8.04404 9.8489 7.88185 9.8489 7.88185C9.8489 7.88185 9.72077 8.29396 9.61566 8.54195L9.28771 9.35255L9.19263 9.53641C9.19263 9.53641 9.69811 9.37067 9.9553 9.30349C10.2277 9.23234 10.7805 9.12363 10.7805 9.12363L10.5818 8.88ZM9.8767 6.05238C9.90841 5.78631 9.92187 5.52063 9.83638 5.38665C9.59926 5.12743 9.31306 5.3436 9.36154 5.95987C9.37785 6.16719 9.42936 6.5216 9.49821 6.74004L9.62341 7.13719L9.71152 6.83807C9.75998 6.67355 9.83431 6.31999 9.8767 6.05238Z" fill="#FF2116"/>
<path d="M7.37744 13.2559H7.98396C8.17775 13.2559 8.33507 13.2744 8.45589 13.3115C8.57671 13.3474 8.6784 13.4281 8.76094 13.5537C8.84349 13.6781 8.88476 13.8283 8.88476 14.0041C8.88476 14.1656 8.85126 14.3044 8.78427 14.4204C8.71728 14.5365 8.62696 14.6202 8.51331 14.6717C8.40086 14.7231 8.2274 14.7488 7.99293 14.7488H7.78298V15.7052H7.37744V13.2559ZM7.78298 13.5699V14.424H7.98396C8.1634 14.424 8.28721 14.3905 8.3554 14.3235C8.42479 14.2565 8.45948 14.1477 8.45948 13.997C8.45948 13.8845 8.43675 13.7936 8.39129 13.7242C8.34583 13.6536 8.29559 13.6106 8.24056 13.595C8.18673 13.5783 8.10119 13.5699 7.98396 13.5699L7.78298 13.5699ZM9.19519 13.2559H9.74608C10.0129 13.2559 10.2258 13.3031 10.3849 13.3976C10.5452 13.4921 10.666 13.6327 10.7474 13.8193C10.8299 14.0059 10.8712 14.2129 10.8712 14.4402C10.8712 14.6794 10.8341 14.893 10.7599 15.0808C10.687 15.2674 10.5745 15.4181 10.4226 15.533C10.2718 15.6478 10.0565 15.7052 9.77659 15.7052H9.19519V13.2559ZM9.60073 13.5806V15.3805H9.76941C10.0051 15.3805 10.1761 15.2991 10.2826 15.1364C10.3891 14.9725 10.4423 14.7542 10.4423 14.4814C10.4423 13.8809 10.218 13.5806 9.76941 13.5806H9.60073ZM11.2606 13.2559H12.6207V13.5806H11.6661V14.3128H12.4305V14.6376H11.6661V15.7052H11.2606V13.2559Z" fill="#2C2C2C"/>
</svg>
