<svg width="60" height="60" viewBox="0 0 60 60" fill="none" xmlns="http://www.w3.org/2000/svg">
<circle cx="30" cy="30" r="30" fill="#E9ECEB"/>
<path d="M15.9264 44.0737C16.544 44.6914 17.2986 45.0002 18.19 45.0002H41.8099C42.7013 45.0002 43.4558 44.6914 44.0735 44.0737C44.6911 43.4561 44.9999 42.7016 44.9999 41.8102V18.1902C44.9999 17.2988 44.6911 16.5443 44.0735 15.9267C43.4558 15.309 42.7013 15.0002 41.8099 15.0002H18.19C17.2986 15.0002 16.544 15.309 15.9264 15.9267C15.3088 16.5443 14.9999 17.2988 14.9999 18.1902V41.8102C14.9999 42.7016 15.3088 43.4561 15.9264 44.0737Z" fill="#B2B2B3"/>
<path d="M23.0767 38.4162C23.5201 38.4162 23.8911 38.2669 24.1898 37.9683C24.4884 37.6696 24.6378 37.2986 24.6378 36.8551C24.6378 36.4117 24.4884 36.0407 24.1898 35.742C23.8911 35.4434 23.5201 35.2941 23.0767 35.2941C22.6332 35.2941 22.2622 35.4434 21.9636 35.742C21.6649 36.0407 21.5156 36.4117 21.5156 36.8551C21.5156 37.2986 21.6649 37.6696 21.9636 37.9683C22.2622 38.2669 22.6332 38.4162 23.0767 38.4162ZM23.0767 31.561C23.5201 31.561 23.8911 31.4117 24.1898 31.113C24.4884 30.8144 24.6378 30.4434 24.6378 29.9999C24.6378 29.5565 24.4884 29.1855 24.1898 28.8868C23.8911 28.5882 23.5201 28.4389 23.0767 28.4389C22.6332 28.4389 22.2622 28.5882 21.9636 28.8868C21.6649 29.1855 21.5156 29.5565 21.5156 29.9999C21.5156 30.4434 21.6649 30.8144 21.9636 31.113C22.2622 31.4117 22.6332 31.561 23.0767 31.561ZM23.0767 24.7058C23.5201 24.7058 23.8911 24.5565 24.1898 24.2578C24.4884 23.9592 24.6378 23.5881 24.6378 23.1447C24.6378 22.7013 24.4884 22.3302 24.1898 22.0316C23.8911 21.733 23.5201 21.5836 23.0767 21.5836C22.6332 21.5836 22.2622 21.733 21.9636 22.0316C21.6649 22.3302 21.5156 22.7013 21.5156 23.1447C21.5156 23.5881 21.6649 23.9592 21.9636 24.2578C22.2622 24.5565 22.6332 24.7058 23.0767 24.7058ZM28.4387 38.1787H38.4839V35.5316H28.4387V38.1787ZM28.4387 31.3234H38.4839V28.6764H28.4387V31.3234ZM28.4387 24.4682H38.4839V21.8212H28.4387V24.4682Z" fill="white"/>
</svg>
