<svg width="125" height="126" viewBox="0 0 125 126" fill="none" xmlns="http://www.w3.org/2000/svg">
<path d="M124.129 63.532C124.129 97.7651 96.3762 125.529 62.1316 125.529C27.8985 125.529 0.145996 97.7651 0.145996 63.532C0.145996 29.2874 27.8985 1.53491 62.1316 1.53491C96.3762 1.53491 124.129 29.2874 124.129 63.532Z" fill="#74D1EA"/>
<path d="M99.812 77.9689L101.812 88.1569L91.687 86.1569C84.4058 90.8835 75.32 91.8796 67.187 88.8444C83.035 76.4614 82.839 49.5944 67.1245 37.1564C90.5305 28.1564 114.562 54.5629 99.812 77.9689Z" fill="#28519E"/>
<path d="M65.8642 82.5769C61.3759 87.0105 55.5092 89.7878 49.2312 90.448C42.9539 91.1042 36.6412 89.6082 31.3292 86.2058L21.1842 88.2019L23.1803 78.0029C7.12931 52.5259 37.0673 23.4989 62.0283 40.4209C68.7158 45.0928 73.0053 52.4799 73.7433 60.6089C74.4855 68.7339 71.6027 76.7729 65.8644 82.5779L65.8642 82.5769Z" fill="#002C3F"/>
<path d="M61.6898 60.5488L55.2134 66.654C54.8833 66.9703 54.7321 67.4378 54.8283 67.8778L56.5747 76.6093C56.7947 77.7094 55.6259 78.5756 54.6496 78.0394L46.8393 73.763C46.4406 73.543 45.9456 73.543 45.5468 73.763L37.7916 78.1356C36.8153 78.6856 35.6327 77.8331 35.839 76.7331L37.4891 67.9878C37.5716 67.534 37.4203 67.0803 37.0903 66.764L30.5451 60.7413C29.7063 59.9713 30.1463 58.5963 31.2739 58.445L40.1016 57.3175C40.5554 57.2625 40.9404 56.9737 41.1329 56.5612L44.8455 48.4622C45.3131 47.4447 46.7568 47.4309 47.2381 48.4484L51.047 56.4925C51.2395 56.905 51.6382 57.1937 52.092 57.2487L60.9335 58.28C62.0473 58.4038 62.5148 59.7788 61.6898 60.5488Z" fill="#FFB81C"/>
</svg>
