<svg width="80" height="82" viewBox="0 0 80 82" fill="none" xmlns="http://www.w3.org/2000/svg">
    <circle cx="40" cy="41.2188" r="40" fill="#E9ECEB"/>
    <circle cx="40" cy="41.2188" r="40" fill="#E9ECEB"/>
    <g clip-path="url(#clip0_42_385)">
    <path d="M51.3391 57.5815C51.2549 57.5984 51.1623 57.6152 51.0613 57.632V56.5714C49.9754 57.2028 46.8189 57.3795 41.8694 56.1927C40.935 55.9654 40.228 55.132 40.2532 54.1725C40.2532 54.1556 40.2532 54.1472 40.2532 54.1472L40.6068 43.8947C40.6573 41.723 42.93 39.8038 44.1674 38.0108C46.1876 35.031 47.6775 33.9199 49.7987 29.324C49.9333 29.0209 50.0596 28.7179 50.1775 28.4149C40.228 30.7129 30.9098 26.2432 28.6623 25.0815C29.1168 26.7735 30.9855 30.7381 31.7431 32.329C33.5865 34.1977 34.4451 37.026 37.6775 40.1068C38.6118 40.9906 39.1674 42.2028 39.1926 43.4906L39.5209 52.6573C39.5209 53.0361 39.4451 53.3896 39.3189 53.6927C38.9653 54.6018 37.9552 55.0563 36.9956 54.8795C31.5916 53.8189 29.0663 56.4199 28.9148 56.5714C28.132 59.1724 27.728 61.8997 27.728 64.6522H52.2482V64.5765C52.2482 62.2028 51.9451 59.8543 51.3391 57.5815Z" fill="white"/>
    <path d="M37.1977 39.8547L33.3593 34.7537C29.7229 29.8799 27.7532 23.9708 27.728 17.9102V17.8345H52.2482C52.2482 23.9203 50.2785 29.8547 46.6169 34.7284L42.7785 39.8547C42.1724 40.6627 42.1724 41.7991 42.7785 42.6072L46.5916 47.7082C50.2532 52.5819 52.2229 58.491 52.2482 64.5769V64.6526H27.728C27.728 58.5415 29.6977 52.6324 33.3593 47.7335L37.1977 42.6072C37.8037 41.7991 37.8037 40.6627 37.1977 39.8547Z" stroke="white" stroke-width="1.51515" stroke-miterlimit="10"/>
    <path opacity="0.7" d="M26.717 19.3992H53.2322C54.116 19.3992 54.8231 18.6922 54.8231 17.8336C54.8231 16.9498 54.116 16.2427 53.2322 16.2427H26.717C25.8584 16.2427 25.1514 16.9498 25.1514 17.8336C25.1514 18.6922 25.8584 19.3992 26.717 19.3992Z" fill="#B2B2B3"/>
    <path opacity="0.7" d="M53.2322 63.0618H26.717C25.8584 63.0618 25.1514 63.7688 25.1514 64.6527C25.1514 65.5113 25.8584 66.2183 26.717 66.2183H53.2322C54.116 66.2183 54.8231 65.5113 54.8231 64.6527C54.8231 63.7688 54.116 63.0618 53.2322 63.0618Z" fill="#B2B2B3"/>
    </g>
    <g clip-path="url(#clip1_42_385)">
    <path d="M51.3391 57.5815C51.2549 57.5984 51.1623 57.6152 51.0613 57.632V56.5714C49.9754 57.2028 46.8189 57.3795 41.8694 56.1927C40.935 55.9654 40.228 55.132 40.2532 54.1725C40.2532 54.1556 40.2532 54.1472 40.2532 54.1472L40.6068 43.8947C40.6573 41.723 42.93 39.8038 44.1674 38.0108C46.1876 35.031 47.6775 33.9199 49.7987 29.324C49.9333 29.0209 50.0596 28.7179 50.1775 28.4149C40.228 30.7129 30.9098 26.2432 28.6623 25.0815C29.1168 26.7735 30.9855 30.7381 31.7431 32.329C33.5865 34.1977 34.4451 37.026 37.6775 40.1068C38.6118 40.9906 39.1674 42.2028 39.1926 43.4906L39.5209 52.6573C39.5209 53.0361 39.4451 53.3896 39.3189 53.6927C38.9653 54.6018 37.9552 55.0563 36.9956 54.8795C31.5916 53.8189 29.0663 56.4199 28.9148 56.5714C28.132 59.1724 27.728 61.8997 27.728 64.6522H52.2482V64.5765C52.2482 62.2028 51.9451 59.8543 51.3391 57.5815Z" fill="white"/>
    <path d="M37.1977 39.8547L33.3593 34.7537C29.7229 29.8799 27.7532 23.9708 27.728 17.9102V17.8345H52.2482C52.2482 23.9203 50.2785 29.8547 46.6169 34.7284L42.7785 39.8547C42.1724 40.6627 42.1724 41.7991 42.7785 42.6072L46.5916 47.7082C50.2532 52.5819 52.2229 58.491 52.2482 64.5769V64.6526H27.728C27.728 58.5415 29.6977 52.6324 33.3593 47.7335L37.1977 42.6072C37.8037 41.7991 37.8037 40.6627 37.1977 39.8547Z" stroke="white" stroke-width="1.51515" stroke-miterlimit="10"/>
    <path opacity="0.7" d="M26.717 19.3992H53.2322C54.116 19.3992 54.8231 18.6922 54.8231 17.8336C54.8231 16.9498 54.116 16.2427 53.2322 16.2427H26.717C25.8584 16.2427 25.1514 16.9498 25.1514 17.8336C25.1514 18.6922 25.8584 19.3992 26.717 19.3992Z" fill="#B2B2B3"/>
    <path opacity="0.7" d="M53.2322 63.0618H26.717C25.8584 63.0618 25.1514 63.7688 25.1514 64.6527C25.1514 65.5113 25.8584 66.2183 26.717 66.2183H53.2322C54.116 66.2183 54.8231 65.5113 54.8231 64.6527C54.8231 63.7688 54.116 63.0618 53.2322 63.0618Z" fill="#B2B2B3"/>
    </g>
    <defs>
    <clipPath id="clip0_42_385">
    <rect width="29.798" height="50" fill="white" transform="translate(25.101 16.2188)"/>
    </clipPath>
    <clipPath id="clip1_42_385">
    <rect width="29.798" height="50" fill="white" transform="translate(25.101 16.2188)"/>
    </clipPath>
    </defs>
    </svg>