<svg width="60" height="60" viewBox="0 0 60 60" fill="none" xmlns="http://www.w3.org/2000/svg">
<circle cx="30" cy="30" r="30" fill="#E9ECEB"/>
<path d="M45.9002 22.818C45.5623 22.435 45.1468 22.1284 44.6813 21.9184C44.2157 21.7084 43.7109 21.5998 43.2002 21.6H34.8002V19.2C34.8002 17.6087 34.1681 16.0825 33.0428 14.9573C31.9176 13.8321 30.3915 13.2 28.8002 13.2C28.5773 13.1998 28.3587 13.2617 28.169 13.3788C27.9793 13.4959 27.826 13.6636 27.7262 13.863L22.0592 25.2H15.6002C14.9637 25.2 14.3532 25.4528 13.9031 25.9029C13.4531 26.353 13.2002 26.9634 13.2002 27.6V40.8C13.2002 41.4365 13.4531 42.0469 13.9031 42.497C14.3532 42.9471 14.9637 43.2 15.6002 43.2H41.4002C42.2773 43.2003 43.1243 42.8804 43.7821 42.3004C44.44 41.7204 44.8636 40.9201 44.9732 40.05L46.7732 25.65C46.837 25.143 46.7921 24.6282 46.6416 24.14C46.4911 23.6517 46.2384 23.201 45.9002 22.818ZM15.6002 27.6H21.6002V40.8H15.6002V27.6Z" fill="#B2B2B3"/>
</svg>
