<svg width="34" height="36" viewBox="0 0 34 36" fill="none" xmlns="http://www.w3.org/2000/svg">
    <rect width="33.5" height="36" rx="4" fill="#E3F3FC"/>
    <path d="M18 11.125C18 10.4336 17.4414 9.875 16.75 9.875C16.0586 9.875 15.5 10.4336 15.5 11.125V16.75H9.875C9.18359 16.75 8.625 17.3086 8.625 18C8.625 18.6914 9.18359 19.25 9.875 19.25H15.5V24.875C15.5 25.5664 16.0586 26.125 16.75 26.125C17.4414 26.125 18 25.5664 18 24.875V19.25H23.625C24.3164 19.25 24.875 18.6914 24.875 18C24.875 17.3086 24.3164 16.75 23.625 16.75H18V11.125Z" fill="#28519E"/>
    </svg>
    