<svg xmlns="http://www.w3.org/2000/svg" width="18" height="18" viewBox="0 0 18 18" fill="none">
<g clip-path="url(#clip0_8165_3014)">
<path d="M0.5 16C0.5 16.8255 1.16777 17.5 2 17.5H16C16.3978 17.5 16.7794 17.342 17.0607 17.0607C17.342 16.7794 17.5 16.3978 17.5 16V2C17.5 1.60217 17.342 1.22064 17.0607 0.939341C16.7794 0.658035 16.3978 0.5 16 0.5H2C1.60218 0.5 1.22064 0.658035 0.93934 0.939341C0.658035 1.22064 0.5 1.60217 0.5 2V16Z" fill="white" stroke="#28519E"/>
<path fill-rule="evenodd" clip-rule="evenodd" d="M7.41 13.59L12 9L7.41 4.4L6 5.82L9.18 9L6 12.18L7.41 13.59Z" fill="#28519E"/>
</g>
<defs>
<clipPath id="clip0_8165_3014">
<rect width="18" height="18" fill="white" transform="matrix(1 0 0 -1 0 18)"/>
</clipPath>
</defs>
</svg>