<svg width="32" height="32" viewBox="0 0 32 32" fill="none" xmlns="http://www.w3.org/2000/svg">
<rect width="32" height="32" rx="8" fill="#E3F3FC"/>
<path d="M20.5 25.75C20.5 25.9489 20.421 26.1397 20.2803 26.2803C20.1397 26.421 19.9489 26.5 19.75 26.5H12.25C12.0511 26.5 11.8603 26.421 11.7197 26.2803C11.579 26.1397 11.5 25.9489 11.5 25.75C11.5 25.5511 11.579 25.3603 11.7197 25.2197C11.8603 25.079 12.0511 25 12.25 25H19.75C19.9489 25 20.1397 25.079 20.2803 25.2197C20.421 25.3603 20.5 25.5511 20.5 25.75ZM24.25 13.75C24.2532 15.0003 23.9708 16.2348 23.4242 17.3593C22.8776 18.4838 22.0814 19.4686 21.0962 20.2384C20.912 20.3796 20.7626 20.5611 20.6592 20.7689C20.5559 20.9767 20.5014 21.2054 20.5 21.4375V22C20.5 22.3978 20.342 22.7794 20.0607 23.0607C19.7794 23.342 19.3978 23.5 19 23.5H13C12.6022 23.5 12.2206 23.342 11.9393 23.0607C11.658 22.7794 11.5 22.3978 11.5 22V21.4375C11.4998 21.2082 11.4471 20.982 11.3459 20.7762C11.2446 20.5704 11.0975 20.3906 10.9159 20.2506C9.93325 19.4853 9.13754 18.5064 8.58904 17.3882C8.04054 16.2699 7.75362 15.0415 7.75 13.7959C7.72563 9.32781 11.3369 5.60687 15.8013 5.5C16.9013 5.47349 17.9955 5.6673 19.0195 6.07002C20.0434 6.47273 20.9765 7.07622 21.7638 7.84496C22.551 8.6137 23.1766 9.53215 23.6035 10.5463C24.0305 11.5604 24.2503 12.6497 24.25 13.75ZM19.5306 13.9694C19.461 13.8996 19.3783 13.8443 19.2872 13.8066C19.1962 13.7688 19.0986 13.7494 19 13.7494C18.9014 13.7494 18.8038 13.7688 18.7128 13.8066C18.6217 13.8443 18.539 13.8996 18.4694 13.9694L16 16.4397L13.5306 13.9694C13.3899 13.8286 13.199 13.7496 13 13.7496C12.801 13.7496 12.6101 13.8286 12.4694 13.9694C12.3286 14.1101 12.2496 14.301 12.2496 14.5C12.2496 14.699 12.3286 14.8899 12.4694 15.0306L15.25 17.8103V21.25C15.25 21.4489 15.329 21.6397 15.4697 21.7803C15.6103 21.921 15.8011 22 16 22C16.1989 22 16.3897 21.921 16.5303 21.7803C16.671 21.6397 16.75 21.4489 16.75 21.25V17.8103L19.5306 15.0306C19.6004 14.961 19.6557 14.8783 19.6934 14.7872C19.7312 14.6962 19.7506 14.5986 19.7506 14.5C19.7506 14.4014 19.7312 14.3038 19.6934 14.2128C19.6557 14.1217 19.6004 14.039 19.5306 13.9694Z" fill="#28519E"/>
</svg>
