<svg width="33" height="32" viewBox="0 0 33 32" fill="none" xmlns="http://www.w3.org/2000/svg">
<rect x="0.333252" width="32" height="32" rx="8" fill="#E3F3FC"/>
<path d="M20.1471 18.0839V23.2929C20.1471 23.7753 19.9553 24.2381 19.6144 24.579C19.2735 24.9199 18.8107 25.1117 18.3283 25.1117H8.8442C7.84021 25.1117 7.02631 24.2978 7.02631 23.2929V16.3504C7.02631 15.3456 7.84023 14.5317 8.8442 14.5317H11.3193C12.0411 14.53 12.6957 14.9544 12.988 15.614L13.0357 15.7206C13.1806 16.0512 13.5079 16.2643 13.8692 16.2635H18.3215C18.8056 16.2618 19.27 16.4527 19.6127 16.7944C19.9553 17.1362 20.1471 17.6006 20.1471 18.0839ZM21.0565 13.5199L16.6084 13.5208C16.2462 13.5225 15.918 13.3103 15.7715 12.9796L15.7263 12.873C15.4348 12.2134 14.7811 11.7872 14.0601 11.7889H11.5833C10.5785 11.7889 9.76457 12.6029 9.76457 13.6068H11.3259C12.4074 13.6043 13.3884 14.2409 13.8265 15.2296L13.8742 15.3387H18.3214C19.8282 15.3387 21.0487 16.56 21.0487 18.0659V22.3776C21.5311 22.3776 21.9939 22.1859 22.3348 21.845C22.6757 21.5041 22.8674 21.0413 22.8674 20.5589V15.3454C22.8709 14.3432 22.0629 13.5267 21.0606 13.5207L21.0565 13.5199ZM25.6016 12.5611C25.6016 12.0762 25.4073 11.6108 25.0621 11.2691C24.7178 10.9282 24.2499 10.7381 23.765 10.7432L19.3128 10.7747C18.9505 10.7782 18.6216 10.5668 18.4741 10.2361L18.4264 10.1313V10.1321C18.1306 9.47332 17.4735 9.0523 16.7517 9.05911L14.2877 9.08212C13.2914 9.08212 12.4809 9.88326 12.4698 10.8796H14.061H14.0602C15.1426 10.877 16.1235 11.5154 16.5608 12.5048L16.6085 12.6114H21.0607C22.5667 12.6114 23.788 13.8327 23.788 15.3387V19.6067H23.8332C24.3181 19.6067 24.7835 19.4133 25.1244 19.0689C25.4661 18.7238 25.6553 18.2576 25.6511 17.7726L25.6016 12.5611Z" fill="#28519E"/>
</svg>
