<svg width="16" height="16" viewBox="0 0 16 16" fill="none" xmlns="http://www.w3.org/2000/svg">
<path d="M7.99967 1.33325C8.36785 1.33327 8.66634 1.63174 8.66634 1.99992C8.66633 2.36809 8.36784 2.66656 7.99967 2.66659H3.33301C3.1562 2.66659 2.98668 2.73688 2.86165 2.8619C2.73663 2.98692 2.66634 3.15644 2.66634 3.33325V12.6666C2.66635 12.8434 2.73663 13.0129 2.86165 13.1379C2.98668 13.2629 3.15621 13.3333 3.33301 13.3333H12.6663C12.8431 13.3332 13.0127 13.263 13.1377 13.1379C13.2627 13.0129 13.333 12.8434 13.333 12.6666V7.99992C13.333 7.63173 13.6315 7.33325 13.9997 7.33325C14.3678 7.33327 14.6663 7.63174 14.6663 7.99992V12.6666C14.6663 13.197 14.4555 13.7056 14.0804 14.0806C13.7053 14.4557 13.1968 14.6666 12.6663 14.6666H3.33301C2.80259 14.6666 2.29401 14.4557 1.91895 14.0806C1.54388 13.7056 1.33301 13.197 1.33301 12.6666V3.33325C1.33301 2.80282 1.54387 2.29426 1.91895 1.91919C2.29402 1.54412 2.80258 1.33325 3.33301 1.33325H7.99967Z" fill="#7F22FE"/>
<path fill-rule="evenodd" clip-rule="evenodd" d="M13.2497 0.669189C13.8015 0.669217 14.3308 0.888415 14.721 1.27856C15.1111 1.66876 15.3304 2.19816 15.3304 2.74992C15.3304 3.30172 15.1112 3.83108 14.721 4.22127L8.71191 10.2304C8.47448 10.4676 8.18122 10.6415 7.85905 10.7356L5.94368 11.2955C5.77163 11.3457 5.58865 11.3491 5.41504 11.3046C5.24166 11.2601 5.08332 11.1694 4.95671 11.0429C4.83011 10.9163 4.73951 10.758 4.69499 10.5846C4.65051 10.4109 4.65394 10.228 4.7041 10.0559L5.264 8.14054C5.35848 7.81894 5.53208 7.52457 5.76921 7.28768L11.7783 1.27856L11.9307 1.14054C12.301 0.837043 12.7667 0.669204 13.2497 0.669189ZM13.2497 2.00252C13.0515 2.00254 12.8612 2.08112 12.721 2.22127L6.71191 8.23039C6.63294 8.30934 6.57541 8.40839 6.54394 8.51554L6.15462 9.84367L7.48535 9.45565L7.56478 9.4283C7.64103 9.39515 7.71 9.34676 7.76921 9.28768L13.7783 3.27856L13.8721 3.16528C13.9534 3.04339 13.997 2.89861 13.9971 2.74992C13.997 2.55178 13.9184 2.36142 13.7783 2.22127C13.6382 2.08117 13.4478 2.00255 13.2497 2.00252Z" fill="#7F22FE"/>
</svg>
