<svg width="125" height="124" viewBox="0 0 125 124" fill="none" xmlns="http://www.w3.org/2000/svg">
<path d="M124.888 62C124.888 96.2331 97.1354 123.997 62.8908 123.997C28.6577 123.997 0.905212 96.2331 0.905212 62C0.905212 27.7554 28.6577 0.00292969 62.8908 0.00292969C97.1354 0.00292969 124.888 27.7554 124.888 62Z" fill="#74D1EA"/>
<g opacity="0.5">
<path d="M70.7431 10.8146C70.5405 10.7381 70.3199 10.8416 70.2434 11.0397C70.1714 11.2422 70.2704 11.4628 70.473 11.5394C70.671 11.6159 70.8961 11.5123 70.9682 11.3098C71.0447 11.1117 70.9411 10.8866 70.7431 10.8146Z" fill="#FEFEFE"/>
<path d="M76.4152 12.7368C76.1226 12.6243 75.803 12.7773 75.6905 13.0654C75.5824 13.3581 75.731 13.6822 76.0236 13.7902C76.3162 13.9028 76.6403 13.7542 76.7484 13.4616C76.8564 13.169 76.7078 12.8449 76.4152 12.7368Z" fill="#FEFEFE"/>
<path d="M81.8396 14.8392C81.5921 14.7447 81.3129 14.8752 81.2229 15.1228C81.1284 15.3749 81.2544 15.654 81.5065 15.7486C81.7541 15.8386 82.0332 15.7125 82.1278 15.4604C82.2223 15.2129 82.0917 14.9337 81.8396 14.8392Z" fill="#FEFEFE"/>
<path d="M52.2823 10.3601C52.1831 10.324 52.0748 10.3736 52.0342 10.4774C51.9981 10.5767 52.0522 10.685 52.1515 10.7256C52.2508 10.7617 52.359 10.7121 52.3997 10.6128C52.4358 10.509 52.3861 10.4007 52.2823 10.3601Z" fill="#FEFEFE"/>
<path d="M57.7827 12.2687C57.6162 12.2057 57.4316 12.2957 57.3686 12.4623C57.3056 12.6289 57.3911 12.8134 57.5577 12.8764C57.7242 12.9395 57.9133 12.8539 57.9718 12.6829C58.0348 12.5163 57.9493 12.3317 57.7827 12.2687Z" fill="#FEFEFE"/>
<path d="M63.2838 14.1776C63.0497 14.0921 62.7886 14.2091 62.7031 14.4432C62.6131 14.6773 62.7346 14.9384 62.9687 15.0239C63.1983 15.1095 63.4594 14.9924 63.5494 14.7583C63.6349 14.5242 63.5134 14.2631 63.2838 14.1776Z" fill="#FEFEFE"/>
<path d="M74.4569 18.0085C74.0653 17.86 73.6286 18.0625 73.4801 18.4542C73.336 18.8458 73.5341 19.2825 73.9257 19.431C74.3219 19.5751 74.7586 19.377 74.9026 18.9809C75.0512 18.5937 74.8486 18.1526 74.4569 18.0085Z" fill="#FEFEFE"/>
<path d="M79.8814 20.1107C79.5303 19.9801 79.1387 20.1602 79.0081 20.5113C78.8776 20.8624 79.0576 21.2496 79.4088 21.3801C79.7599 21.5107 80.1516 21.3351 80.2821 20.984C80.4081 20.6329 80.2326 20.2412 79.8814 20.1107Z" fill="#FEFEFE"/>
<path d="M50.3145 15.6497C50.1254 15.5777 49.9138 15.6767 49.8418 15.8703C49.7698 16.0594 49.8688 16.2755 50.0579 16.343C50.2515 16.4195 50.463 16.3205 50.5351 16.1269C50.6071 15.9333 50.5126 15.7218 50.3145 15.6497Z" fill="#FEFEFE"/>
<path d="M55.8156 17.5583C55.559 17.4592 55.2709 17.5898 55.1718 17.8509C55.0773 18.112 55.2078 18.4001 55.4689 18.4946C55.7255 18.5936 56.0136 18.4586 56.1127 18.202C56.2072 17.9409 56.0767 17.6528 55.8156 17.5583Z" fill="#FEFEFE"/>
<path d="M61.3166 19.4671C60.988 19.3455 60.6278 19.5076 60.5063 19.8362C60.3847 20.1603 60.5513 20.525 60.8754 20.6465C61.204 20.7635 61.5642 20.6015 61.6857 20.2729C61.8073 19.9487 61.6407 19.5841 61.3166 19.4671Z" fill="#FEFEFE"/>
<path d="M66.8086 21.3889C66.426 21.2449 65.9983 21.4384 65.8543 21.8256C65.7102 22.2082 65.9083 22.6359 66.2909 22.7799C66.6736 22.924 67.1012 22.7259 67.2453 22.3433C67.3893 21.9561 67.1913 21.533 66.8086 21.3889Z" fill="#FEFEFE"/>
<path d="M72.4987 23.2663C71.9991 23.0773 71.4408 23.3339 71.2563 23.8336C71.0672 24.3377 71.3238 24.8915 71.8235 25.0805C72.3277 25.2651 72.8859 25.013 73.0704 24.5088C73.255 24.0091 73.0029 23.4509 72.4987 23.2663Z" fill="#FEFEFE"/>
<path d="M77.9142 25.4001C77.4731 25.2336 76.9824 25.4586 76.8158 25.9043C76.6493 26.3455 76.8743 26.8361 77.3155 27.0027C77.7612 27.1693 78.2518 26.9397 78.4184 26.4985C78.585 26.0529 78.3554 25.5622 77.9142 25.4001Z" fill="#FEFEFE"/>
<path d="M20.8963 11.2917C20.8872 11.2917 20.8781 11.2917 20.8736 11.3008C20.8736 11.3099 20.8781 11.319 20.8827 11.3235C20.8917 11.328 20.9053 11.319 20.9053 11.3144C20.9099 11.3054 20.9053 11.2963 20.8963 11.2917Z" fill="#FEFEFE"/>
<path d="M48.3383 20.966C48.0727 20.867 47.7756 21.002 47.6765 21.2721C47.5775 21.5377 47.7125 21.8348 47.9781 21.9339C48.2482 22.0329 48.5453 21.8979 48.6444 21.6323C48.7434 21.3622 48.6084 21.0651 48.3383 20.966Z" fill="#FEFEFE"/>
<path d="M53.8438 22.8611C53.5017 22.7305 53.1191 22.9061 52.993 23.2482C52.867 23.5904 53.038 23.973 53.3847 24.099C53.7268 24.2296 54.1049 24.054 54.2355 23.7074C54.3615 23.3653 54.186 22.9871 53.8438 22.8611Z" fill="#FEFEFE"/>
<path d="M59.3494 24.7521C58.9307 24.5991 58.467 24.8107 58.314 25.2293C58.1564 25.648 58.368 26.1116 58.7867 26.2647C59.2053 26.4223 59.669 26.2062 59.8265 25.792C59.9796 25.3734 59.768 24.9097 59.3494 24.7521Z" fill="#FEFEFE"/>
<path d="M64.8459 26.6609C64.3642 26.4808 63.824 26.7284 63.644 27.2101C63.4639 27.6962 63.7115 28.2364 64.1932 28.412C64.6793 28.5966 65.2195 28.349 65.3996 27.8628C65.5797 27.3811 65.3321 26.8409 64.8459 26.6609Z" fill="#FEFEFE"/>
<path d="M70.5405 28.538C69.9372 28.313 69.271 28.6191 69.0459 29.2223C68.8208 29.821 69.1269 30.4918 69.7302 30.7123C70.3289 30.9374 70.9996 30.6313 71.2202 30.0281C71.4453 29.4294 71.1392 28.7586 70.5405 28.538Z" fill="#FEFEFE"/>
<path d="M75.9605 30.6534C75.4068 30.4508 74.7946 30.7299 74.592 31.2836C74.385 31.8328 74.6641 32.445 75.2178 32.6521C75.767 32.8547 76.3792 32.5756 76.5863 32.0264C76.7888 31.4727 76.5097 30.8604 75.9605 30.6534Z" fill="#FEFEFE"/>
<path d="M18.866 16.7479C18.8615 16.7433 18.8478 16.7479 18.8478 16.7569C18.8433 16.766 18.8478 16.7751 18.8569 16.7751C18.866 16.7796 18.8751 16.7751 18.8796 16.766C18.8796 16.7569 18.8751 16.7479 18.866 16.7479Z" fill="#FEFEFE"/>
<path d="M24.3038 18.7828C24.2993 18.7918 24.3038 18.8009 24.3129 18.8054C24.322 18.8084 24.328 18.8054 24.331 18.7964C24.3356 18.7873 24.331 18.7782 24.322 18.7737C24.3129 18.7737 24.3038 18.7782 24.3038 18.7828Z" fill="#FEFEFE"/>
<path d="M40.8565 24.3918C40.5909 24.2928 40.2938 24.4278 40.1948 24.6979C40.0957 24.9635 40.2308 25.2606 40.4964 25.3597C40.7665 25.4587 41.0636 25.3237 41.1626 25.0581C41.2617 24.788 41.1266 24.4908 40.8565 24.3918Z" fill="#FEFEFE"/>
<path d="M46.362 26.2825C46.0199 26.1565 45.6372 26.3321 45.5112 26.6742C45.3851 27.0163 45.5562 27.399 45.8983 27.525C46.245 27.651 46.6231 27.48 46.7536 27.1334C46.8797 26.7912 46.7041 26.4131 46.362 26.2825Z" fill="#FEFEFE"/>
<path d="M51.8721 28.1598C51.4444 28.0023 50.9718 28.2229 50.8142 28.646C50.6567 29.0737 50.8727 29.5464 51.2959 29.7039C51.7235 29.866 52.1962 29.6454 52.3583 29.2222C52.5158 28.7946 52.2998 28.3219 51.8721 28.1598Z" fill="#FEFEFE"/>
<path d="M57.3776 30.0546C56.8734 29.87 56.3197 30.1221 56.1306 30.6218C55.9461 31.126 56.1982 31.6842 56.7023 31.8687C57.202 32.0578 57.7602 31.8012 57.9493 31.3015C58.1339 30.7973 57.8773 30.2436 57.3776 30.0546Z" fill="#FEFEFE"/>
<path d="M62.8742 31.9637C62.3069 31.7522 61.6767 32.0403 61.4651 32.6075C61.2536 33.1747 61.5417 33.8094 62.1089 34.021C62.6806 34.2326 63.3108 33.94 63.5224 33.3728C63.734 32.8055 63.4459 32.1753 62.8742 31.9637Z" fill="#FEFEFE"/>
<path d="M68.5733 33.8227C67.88 33.5661 67.1058 33.9172 66.8492 34.6105C66.5926 35.3038 66.9437 36.0781 67.6414 36.3346C68.3302 36.5912 69.1045 36.2401 69.3611 35.5469C69.6177 34.8536 69.2666 34.0838 68.5733 33.8227Z" fill="#FEFEFE"/>
<path d="M73.9933 35.9431C73.3495 35.7045 72.6338 36.0331 72.3952 36.6724C72.1566 37.3161 72.4807 38.0319 73.1245 38.2704C73.7682 38.5135 74.484 38.1849 74.7226 37.5412C74.9612 36.8974 74.637 36.1817 73.9933 35.9431Z" fill="#FEFEFE"/>
<path d="M16.8176 22.2086C16.813 22.2177 16.8221 22.2267 16.8266 22.2313C16.8357 22.2313 16.8448 22.2267 16.8493 22.2222C16.8539 22.2131 16.8493 22.2041 16.8403 22.1995C16.8312 22.195 16.8221 22.1995 16.8176 22.2086Z" fill="#FEFEFE"/>
<path d="M22.3231 24.1531C22.2736 24.1351 22.2151 24.1621 22.197 24.2116C22.1745 24.2611 22.2015 24.3151 22.2556 24.3331C22.3051 24.3511 22.3591 24.3286 22.3771 24.2791C22.3951 24.2296 22.3726 24.1711 22.3231 24.1531Z" fill="#FEFEFE"/>
<path d="M38.8667 29.7395C38.5426 29.6179 38.1825 29.7845 38.0609 30.1086C37.9394 30.4372 38.1014 30.7974 38.4301 30.9189C38.7542 31.0405 39.1188 30.8739 39.2404 30.5498C39.3619 30.2257 39.1954 29.861 38.8667 29.7395Z" fill="#FEFEFE"/>
<path d="M44.3813 31.6034C43.9672 31.4458 43.5035 31.6619 43.3459 32.076C43.1929 32.4947 43.4045 32.9584 43.8186 33.1159C44.2418 33.269 44.7054 33.0574 44.8585 32.6388C45.0161 32.2246 44.8045 31.7564 44.3813 31.6034Z" fill="#FEFEFE"/>
<path d="M49.8959 33.4807C49.3962 33.2916 48.8335 33.5482 48.6489 34.0479C48.4598 34.5521 48.7164 35.1103 49.2161 35.2949C49.7203 35.4839 50.2785 35.2274 50.4631 34.7232C50.6522 34.2235 50.3956 33.6653 49.8959 33.4807Z" fill="#FEFEFE"/>
<path d="M55.4059 35.358C54.8207 35.1374 54.1679 35.439 53.9518 36.0242C53.7358 36.6049 54.0329 37.2577 54.6181 37.4737C55.1988 37.6943 55.8515 37.3927 56.0676 36.812C56.2882 36.2268 55.9866 35.574 55.4059 35.358Z" fill="#FEFEFE"/>
<path d="M60.9069 37.2483C60.2497 37.0052 59.5114 37.3429 59.2683 38.0001C59.0207 38.6619 59.3583 39.3956 60.0201 39.6387C60.6818 39.8863 61.4156 39.5487 61.6587 38.8869C61.9063 38.2297 61.5687 37.4959 60.9069 37.2483Z" fill="#FEFEFE"/>
<path d="M66.6105 39.0987C65.8182 38.8016 64.9359 39.2068 64.6388 39.999C64.3417 40.7913 64.7513 41.6737 65.5436 41.9708C66.3359 42.2634 67.2183 41.8627 67.5154 41.0659C67.808 40.2737 67.4028 39.3913 66.6105 39.0987Z" fill="#FEFEFE"/>
<path d="M72.0261 41.228C71.2878 40.9579 70.473 41.3315 70.1984 42.0653C69.9283 42.8035 70.2974 43.6183 71.0357 43.8929C71.7695 44.1675 72.5888 43.7894 72.8589 43.0556C73.1335 42.3219 72.7598 41.5026 72.0261 41.228Z" fill="#FEFEFE"/>
<path d="M14.81 27.6556C14.8009 27.6511 14.7918 27.6556 14.7873 27.6647C14.7873 27.6737 14.7918 27.6828 14.8009 27.6828C14.8054 27.6873 14.819 27.6828 14.819 27.6737C14.8236 27.6692 14.819 27.6556 14.81 27.6556Z" fill="#FEFEFE"/>
<path d="M25.8524 31.3469C25.6453 31.2704 25.4112 31.3784 25.3347 31.5855C25.2582 31.7926 25.3617 32.0266 25.5733 32.1077C25.7804 32.1842 26.0145 32.0762 26.091 31.8691C26.1675 31.6575 26.064 31.4279 25.8524 31.3469Z" fill="#FEFEFE"/>
<path d="M31.3669 33.2105C31.0698 33.098 30.7322 33.2511 30.6197 33.5527C30.5116 33.8543 30.6647 34.1874 30.9618 34.3C31.2634 34.4125 31.5965 34.2594 31.7091 33.9578C31.8216 33.6562 31.6686 33.3231 31.3669 33.2105Z" fill="#FEFEFE"/>
<path d="M36.886 35.0742C36.4898 34.9256 36.0532 35.1282 35.9091 35.5199C35.765 35.9115 35.9631 36.3482 36.3548 36.4967C36.7464 36.6408 37.1831 36.4382 37.3271 36.051C37.4757 35.6549 37.2776 35.2182 36.886 35.0742Z" fill="#FEFEFE"/>
<path d="M42.405 36.9199C41.9144 36.7353 41.3652 36.9874 41.1806 37.4826C40.996 37.9732 41.2481 38.5224 41.7388 38.7025C42.234 38.8871 42.7832 38.635 42.9677 38.1443C43.1478 37.6536 42.9002 37.1044 42.405 36.9199Z" fill="#FEFEFE"/>
<path d="M47.9151 38.7973C47.3389 38.5857 46.6996 38.8783 46.4836 39.4545C46.272 40.0308 46.5646 40.67 47.1363 40.8861C47.717 41.1022 48.3563 40.805 48.5723 40.2288C48.7884 39.6526 48.4913 39.0134 47.9151 38.7973Z" fill="#FEFEFE"/>
<path d="M53.4251 40.6744C52.7679 40.4313 52.0341 40.7644 51.7865 41.4262C51.5434 42.0834 51.8765 42.8217 52.5383 43.0648C53.1955 43.3124 53.9293 42.9747 54.1769 42.3175C54.42 41.6557 54.0869 40.922 53.4251 40.6744Z" fill="#FEFEFE"/>
<path d="M58.9307 42.5696C58.1969 42.295 57.3776 42.6687 57.103 43.4069C56.8284 44.1407 57.2065 44.9555 57.9403 45.2301C58.6741 45.5002 59.4934 45.1311 59.7635 44.3928C60.0381 43.659 59.6644 42.8397 58.9307 42.5696Z" fill="#FEFEFE"/>
<path d="M64.6433 44.3838C63.761 44.0552 62.7751 44.5054 62.4465 45.3922C62.1179 46.279 62.568 47.2604 63.4504 47.589C64.3372 47.9176 65.3186 47.4675 65.6517 46.5851C65.9803 45.6983 65.5301 44.7124 64.6433 44.3838Z" fill="#FEFEFE"/>
<path d="M70.0543 46.5354C69.235 46.2293 68.3212 46.6434 68.0196 47.4627C67.7135 48.282 68.1321 49.1914 68.9514 49.4975C69.7662 49.7991 70.6801 49.385 70.9817 48.5657C71.2878 47.7463 70.8691 46.837 70.0543 46.5354Z" fill="#FEFEFE"/>
<path d="M12.8111 33.035C12.7616 33.017 12.703 33.0395 12.685 33.089C12.667 33.1385 12.694 33.197 12.7436 33.215C12.7931 33.233 12.8516 33.206 12.8696 33.1565C12.8876 33.107 12.8606 33.053 12.8111 33.035Z" fill="#FEFEFE"/>
<path d="M18.3302 34.8807C18.1816 34.8222 18.0151 34.8988 17.9565 35.0518C17.9025 35.2004 17.979 35.3669 18.1276 35.4254C18.2807 35.4795 18.4472 35.4029 18.5012 35.2499C18.5598 35.1013 18.4832 34.9348 18.3302 34.8807Z" fill="#FEFEFE"/>
<path d="M23.8582 36.7128C23.6016 36.6137 23.309 36.7488 23.2144 37.0054C23.1199 37.2665 23.2504 37.5546 23.5115 37.6491C23.7681 37.7436 24.0562 37.6131 24.1553 37.3565C24.2498 37.0954 24.1148 36.8073 23.8582 36.7128Z" fill="#FEFEFE"/>
<path d="M29.3773 38.5587C29.0216 38.4236 28.621 38.6082 28.4859 38.9683C28.3554 39.3285 28.5355 39.7246 28.8956 39.8597C29.2557 39.9947 29.6564 39.8101 29.7869 39.45C29.922 39.0899 29.7374 38.6937 29.3773 38.5587Z" fill="#FEFEFE"/>
<path d="M34.8963 40.4222C34.4461 40.2557 33.9419 40.4808 33.7754 40.9354C33.6088 41.3856 33.8384 41.8853 34.2885 42.0563C34.7387 42.2229 35.2384 41.9933 35.4095 41.5431C35.576 41.0885 35.3464 40.5888 34.8963 40.4222Z" fill="#FEFEFE"/>
<path d="M40.4154 42.268C39.8662 42.0609 39.2539 42.3445 39.0468 42.8938C38.8443 43.4475 39.1234 44.0597 39.6726 44.2623C40.2218 44.4693 40.8385 44.1902 41.0411 43.6365C41.2482 43.0873 40.9691 42.4706 40.4154 42.268Z" fill="#FEFEFE"/>
<path d="M45.9299 44.1314C45.2906 43.8883 44.5749 44.2215 44.3363 44.8607C44.0932 45.5044 44.4218 46.2202 45.0656 46.4588C45.7093 46.6974 46.4251 46.3733 46.6636 45.725C46.9022 45.0858 46.5736 44.37 45.9299 44.1314Z" fill="#FEFEFE"/>
<path d="M51.4489 45.9909C50.7151 45.7208 49.8958 46.0944 49.6212 46.8282C49.3466 47.562 49.7202 48.3813 50.4585 48.6559C51.1923 48.9305 52.0116 48.5568 52.2817 47.8186C52.5563 47.0848 52.1827 46.2655 51.4489 45.9909Z" fill="#FEFEFE"/>
<path d="M56.959 47.868C56.1397 47.5663 55.2303 47.985 54.9242 48.7998C54.6181 49.6191 55.0368 50.5284 55.8561 50.8346C56.6709 51.1407 57.5847 50.722 57.8863 49.9027C58.1924 49.0834 57.7738 48.1741 56.959 47.868Z" fill="#FEFEFE"/>
<path d="M62.6761 49.6733C61.6992 49.3087 60.6143 49.8039 60.2497 50.7807C59.885 51.7576 60.3847 52.847 61.3616 53.2116C62.3384 53.5763 63.4233 53.0766 63.788 52.0997C64.1526 51.1229 63.6574 50.0335 62.6761 49.6733Z" fill="#FEFEFE"/>
<path d="M68.0871 51.8205C67.1733 51.4829 66.1649 51.9465 65.8273 52.8559C65.4851 53.7652 65.9488 54.7781 66.8581 55.1157C67.772 55.4578 68.7849 54.9942 69.1225 54.0803C69.4601 53.171 68.9964 52.1581 68.0871 51.8205Z" fill="#FEFEFE"/>
<path d="M10.8084 38.41C10.7181 38.3784 10.6144 38.4235 10.5828 38.5137C10.5467 38.6085 10.5963 38.7078 10.6866 38.7439C10.7768 38.7754 10.8806 38.7303 10.9167 38.6401C10.9483 38.5453 10.9031 38.446 10.8084 38.41Z" fill="#FEFEFE"/>
<path d="M16.3359 40.242C16.1333 40.1699 15.9127 40.269 15.8362 40.4671C15.7642 40.6696 15.8677 40.8947 16.0658 40.9667C16.2639 41.0433 16.489 40.9397 16.5655 40.7417C16.6375 40.5391 16.5385 40.3185 16.3359 40.242Z" fill="#FEFEFE"/>
<path d="M21.8594 42.0877C21.5578 41.9752 21.2247 42.1283 21.1122 42.4299C20.9996 42.7315 21.1527 43.0646 21.4543 43.1772C21.7514 43.2897 22.089 43.1366 22.2016 42.835C22.3096 42.5334 22.1565 42.2003 21.8594 42.0877Z" fill="#FEFEFE"/>
<path d="M27.3785 43.9381C26.9779 43.7895 26.5322 43.9921 26.3837 44.3928C26.2351 44.7934 26.4377 45.2391 26.8383 45.3876C27.239 45.5362 27.6846 45.3336 27.8332 44.933C27.9863 44.5323 27.7792 44.0867 27.3785 43.9381Z" fill="#FEFEFE"/>
<path d="M32.902 45.7838C32.3978 45.5992 31.8396 45.8513 31.655 46.3555C31.4705 46.8552 31.7226 47.4134 32.2268 47.5979C32.7264 47.787 33.2801 47.5304 33.4692 47.0262C33.6538 46.5265 33.4017 45.9683 32.902 45.7838Z" fill="#FEFEFE"/>
<path d="M38.4256 47.616C37.8179 47.391 37.1381 47.7016 36.9131 48.3093C36.688 48.9215 36.9941 49.5968 37.6063 49.8219C38.214 50.0514 38.8938 49.7408 39.1189 49.1286C39.3485 48.5209 39.0379 47.8411 38.4256 47.616Z" fill="#FEFEFE"/>
<path d="M43.9447 49.4797C43.2379 49.2186 42.4591 49.5742 42.2025 50.2765C41.9369 50.9788 42.2925 51.7576 42.9993 52.0186C43.7016 52.2797 44.4804 51.9241 44.7415 51.2218C45.0025 50.5196 44.6424 49.7408 43.9447 49.4797Z" fill="#FEFEFE"/>
<path d="M49.4592 51.3431C48.6669 51.046 47.7801 51.4511 47.4875 52.2434C47.1904 53.0357 47.5955 53.9181 48.3878 54.2152C49.1846 54.5078 50.067 54.1071 50.3641 53.3103C50.6567 52.518 50.2515 51.6357 49.4592 51.3431Z" fill="#FEFEFE"/>
<path d="M54.9782 53.1891C54.0869 52.8559 53.092 53.3106 52.7589 54.2019C52.4258 55.0978 52.8804 56.0926 53.7763 56.4258C54.6676 56.7589 55.6625 56.2997 55.9956 55.4084C56.3287 54.5125 55.8741 53.5222 54.9782 53.1891Z" fill="#FEFEFE"/>
<path d="M60.7044 54.9716C59.642 54.5799 58.4625 55.1201 58.0709 56.178C57.6748 57.2404 58.215 58.4199 59.2774 58.816C60.3397 59.2077 61.5147 58.6675 61.9108 57.6096C62.307 56.5472 61.7668 55.3677 60.7044 54.9716Z" fill="#FEFEFE"/>
<path d="M66.1018 57.155C65.125 56.7903 64.0356 57.29 63.6754 58.2624C63.3108 59.2438 63.8105 60.3287 64.7828 60.6933C65.7642 61.0579 66.8536 60.5582 67.2137 59.5814C67.5784 58.6045 67.0787 57.5196 66.1018 57.155Z" fill="#FEFEFE"/>
<path d="M14.3956 45.4595C14.1796 45.3784 13.9365 45.4865 13.8554 45.7071C13.7744 45.9231 13.8869 46.1662 14.103 46.2473C14.3191 46.3283 14.5622 46.2158 14.6432 45.9952C14.7243 45.7791 14.6117 45.5405 14.3956 45.4595Z" fill="#FEFEFE"/>
<path d="M19.9237 47.2917C19.5951 47.1702 19.2349 47.3368 19.1134 47.6609C18.9918 47.985 19.1584 48.3496 19.4825 48.4712C19.8111 48.5927 20.1713 48.4262 20.2928 48.102C20.4144 47.7734 20.2478 47.4133 19.9237 47.2917Z" fill="#FEFEFE"/>
<path d="M25.4473 49.1238C25.0151 48.9617 24.5334 49.1823 24.3714 49.6145C24.2093 50.0511 24.4299 50.5328 24.8665 50.6949C25.2987 50.8569 25.7804 50.6363 25.9424 50.1997C26.1045 49.7675 25.8839 49.2858 25.4473 49.1238Z" fill="#FEFEFE"/>
<path d="M30.9708 50.9697C30.4351 50.7716 29.8409 51.0417 29.6428 51.5774C29.4447 52.1131 29.7148 52.7073 30.2505 52.9054C30.7862 53.1035 31.3804 52.8334 31.5785 52.2977C31.7766 51.762 31.5065 51.1678 30.9708 50.9697Z" fill="#FEFEFE"/>
<path d="M36.4898 52.8151C35.8551 52.581 35.1528 52.9051 34.9142 53.5399C34.6801 54.1746 34.9998 54.8769 35.6345 55.1154C36.2737 55.354 36.976 55.0299 37.2146 54.3952C37.4487 53.7604 37.1246 53.0537 36.4898 52.8151Z" fill="#FEFEFE"/>
<path d="M42.0134 54.6654C41.2796 54.3908 40.4603 54.7644 40.1857 55.4982C39.9156 56.2365 40.2893 57.0513 41.023 57.3259C41.7568 57.6005 42.5761 57.2223 42.8507 56.4886C43.1208 55.7548 42.7472 54.9355 42.0134 54.6654Z" fill="#FEFEFE"/>
<path d="M47.5324 56.5111C46.6996 56.2004 45.7723 56.6236 45.4617 57.4609C45.1511 58.2982 45.5742 59.2256 46.4115 59.5362C47.2443 59.8468 48.1717 59.4236 48.4823 58.5863C48.7974 57.749 48.3698 56.8217 47.5324 56.5111Z" fill="#FEFEFE"/>
<path d="M53.0515 58.3749C52.1242 58.0283 51.0933 58.501 50.7466 59.4283C50.4 60.3557 50.8727 61.3866 51.8 61.7332C52.7274 62.0753 53.7583 61.6026 54.1049 60.6798C54.4515 59.7479 53.9743 58.7171 53.0515 58.3749Z" fill="#FEFEFE"/>
<path d="M58.7866 60.1263C57.6747 59.7167 56.4413 60.2839 56.0271 61.3913C55.613 62.5032 56.1802 63.7412 57.2921 64.1508C58.404 64.565 59.6374 63.9978 60.0516 62.8904C60.4658 61.7785 59.8985 60.5405 58.7866 60.1263Z" fill="#FEFEFE"/>
<path d="M64.1796 62.3226C63.1623 61.9445 62.0279 62.4667 61.6497 63.4841C61.2671 64.5014 61.7893 65.6359 62.8066 66.014C63.824 66.3921 64.9584 65.8744 65.3366 64.8571C65.7192 63.8397 65.197 62.7008 64.1796 62.3226Z" fill="#FEFEFE"/>
<path d="M69.5771 64.5063C68.6408 64.1552 67.6009 64.6323 67.2543 65.5687C66.9032 66.505 67.3803 67.5449 68.3167 67.8916C69.253 68.2382 70.2929 67.7655 70.6395 66.8292C70.9862 65.8928 70.5135 64.8529 69.5771 64.5063Z" fill="#FEFEFE"/>
<path d="M74.9656 66.6988C74.1238 66.3837 73.1875 66.8158 72.8724 67.6576C72.5572 68.4994 72.9894 69.4403 73.8312 69.7554C74.6775 70.066 75.6139 69.6384 75.929 68.7966C76.2441 67.9502 75.812 67.0139 74.9656 66.6988Z" fill="#FEFEFE"/>
<path d="M80.3541 68.9089C79.6114 68.6343 78.7831 69.0124 78.5085 69.7552C78.2294 70.498 78.612 71.3263 79.3548 71.6009C80.0975 71.88 80.9214 71.4973 81.2005 70.7545C81.4751 70.0118 81.0969 69.1835 80.3541 68.9089Z" fill="#FEFEFE"/>
<path d="M85.7426 71.1193C85.0989 70.8807 84.3831 71.2093 84.1445 71.8531C83.9059 72.4968 84.2301 73.2081 84.8738 73.4512C85.5175 73.6898 86.2333 73.3611 86.4719 72.7174C86.7105 72.0737 86.3819 71.3579 85.7426 71.1193Z" fill="#FEFEFE"/>
<path d="M91.1266 73.3293C90.5864 73.1267 89.9832 73.4058 89.7806 73.946C89.578 74.4907 89.8526 75.094 90.3973 75.2965C90.9375 75.4991 91.5408 75.22 91.7433 74.6798C91.9459 74.1351 91.6713 73.5319 91.1266 73.3293Z" fill="#FEFEFE"/>
<path d="M96.5107 75.5398C96.0695 75.3732 95.5788 75.5983 95.4122 76.0439C95.2502 76.4851 95.4753 76.9803 95.9164 77.1424C96.3576 77.3089 96.8528 77.0838 97.0193 76.6427C97.1814 76.197 96.9563 75.7063 96.5107 75.5398Z" fill="#FEFEFE"/>
<path d="M101.895 77.7635C101.562 77.6419 101.188 77.813 101.066 78.1461C100.94 78.4793 101.111 78.8484 101.444 78.9744C101.778 79.1005 102.151 78.9294 102.273 78.5963C102.399 78.2632 102.228 77.8895 101.895 77.7635Z" fill="#FEFEFE"/>
<path d="M12.3429 50.9741C12.1584 50.9021 11.9558 50.9967 11.8883 51.1812C11.8207 51.3658 11.9108 51.5684 12.0954 51.6359C12.2799 51.7079 12.487 51.6134 12.5545 51.4288C12.622 51.2442 12.5275 51.0417 12.3429 50.9741Z" fill="#FEFEFE"/>
<path d="M17.8665 52.8199C17.5829 52.7164 17.2677 52.8604 17.1597 53.144C17.0562 53.4276 17.2002 53.7428 17.4838 53.8508C17.7674 53.9543 18.0825 53.8103 18.1906 53.5267C18.2941 53.2431 18.1501 52.928 17.8665 52.8199Z" fill="#FEFEFE"/>
<path d="M23.3855 54.6654C23.0029 54.5214 22.5752 54.7195 22.4357 55.1066C22.2916 55.4892 22.4852 55.9124 22.8678 56.0565C23.255 56.2005 23.6781 56.0069 23.8222 55.6198C23.9662 55.2372 23.7726 54.8095 23.3855 54.6654Z" fill="#FEFEFE"/>
<path d="M28.9135 56.5025C28.4229 56.3179 27.8736 56.5655 27.6891 57.0607C27.5045 57.5513 27.7566 58.1006 28.2518 58.2851C28.747 58.4652 29.2917 58.2176 29.4762 57.7224C29.6608 57.2317 29.4087 56.687 28.9135 56.5025Z" fill="#FEFEFE"/>
<path d="M34.4281 58.3615C33.8429 58.1454 33.1946 58.4425 32.9785 59.0278C32.758 59.6085 33.0596 60.2612 33.6403 60.4773C34.2255 60.6979 34.8783 60.3963 35.0943 59.8156C35.3104 59.2303 35.0133 58.5776 34.4281 58.3615Z" fill="#FEFEFE"/>
<path d="M39.9471 60.2252C39.2719 59.9731 38.5156 60.3152 38.2635 60.995C38.0159 61.6702 38.358 62.422 39.0333 62.6741C39.7085 62.9262 40.4648 62.5796 40.7169 61.9043C40.969 61.2291 40.6224 60.4728 39.9471 60.2252Z" fill="#FEFEFE"/>
<path d="M45.4662 62.0706C44.6919 61.7825 43.8231 62.1787 43.535 62.9529C43.2469 63.7317 43.643 64.5961 44.4218 64.8842C45.1961 65.1723 46.0604 64.7806 46.353 64.0018C46.6411 63.2231 46.245 62.3587 45.4662 62.0706Z" fill="#FEFEFE"/>
<path d="M50.9762 63.948C50.1164 63.6283 49.1621 64.065 48.838 64.9248C48.5183 65.7891 48.9595 66.7435 49.8193 67.0631C50.6791 67.3827 51.6335 66.9461 51.9531 66.0862C52.2772 65.2264 51.8361 64.2676 50.9762 63.948Z" fill="#FEFEFE"/>
<path d="M56.7024 65.7353C55.676 65.3527 54.5326 65.8749 54.1499 66.9012C53.7673 67.9321 54.2895 69.071 55.3204 69.4537C56.3467 69.8363 57.4857 69.3141 57.8683 68.2878C58.2509 67.2569 57.7288 66.1179 56.7024 65.7353Z" fill="#FEFEFE"/>
<path d="M62.1044 67.9005C61.1545 67.5448 60.0921 68.031 59.741 68.9809C59.3853 69.9352 59.8715 70.9931 60.8214 71.3487C61.7757 71.6999 62.8336 71.2182 63.1893 70.2638C63.5404 69.314 63.0587 68.2561 62.1044 67.9005Z" fill="#FEFEFE"/>
<path d="M67.5019 70.0795C66.6331 69.7554 65.6697 70.2011 65.3456 71.0654C65.0215 71.9342 65.4627 72.9021 66.3315 73.2262C67.2003 73.5458 68.1682 73.1046 68.4923 72.2358C68.8164 71.367 68.3707 70.4036 67.5019 70.0795Z" fill="#FEFEFE"/>
<path d="M72.8994 72.2581C72.1161 71.9655 71.2428 72.3661 70.9501 73.1539C70.6575 73.9372 71.0582 74.8105 71.8415 75.1031C72.6293 75.3957 73.5026 74.9951 73.7952 74.2118C74.0833 73.424 73.6872 72.5507 72.8994 72.2581Z" fill="#FEFEFE"/>
<path d="M78.2878 74.4685C77.5991 74.2164 76.8383 74.563 76.5862 75.2473C76.3296 75.9315 76.6762 76.6923 77.365 76.9489C78.0493 77.2055 78.81 76.8543 79.0666 76.1701C79.3187 75.4858 78.9721 74.7251 78.2878 74.4685Z" fill="#FEFEFE"/>
<path d="M83.6808 76.6652C83.0866 76.4446 82.4249 76.7463 82.2043 77.3405C81.9837 77.9347 82.2853 78.5919 82.8795 78.8125C83.4738 79.0331 84.131 78.7315 84.3516 78.1373C84.5722 77.5476 84.2706 76.8858 83.6808 76.6652Z" fill="#FEFEFE"/>
<path d="M89.0694 78.8577C88.5697 78.6732 88.0115 78.9297 87.8269 79.4294C87.6378 79.9336 87.8944 80.4873 88.3941 80.6764C88.8983 80.861 89.4565 80.6089 89.6411 80.1047C89.8256 79.605 89.5735 79.0468 89.0694 78.8577Z" fill="#FEFEFE"/>
<path d="M15.8092 58.3478C15.5661 58.2577 15.296 58.3838 15.206 58.6224C15.1159 58.8654 15.242 59.1355 15.4851 59.2256C15.7237 59.3156 15.9938 59.1941 16.0838 58.951C16.1738 58.7079 16.0523 58.4378 15.8092 58.3478Z" fill="#FEFEFE"/>
<path d="M21.3237 60.2116C20.9906 60.09 20.617 60.2566 20.4954 60.5897C20.3694 60.9273 20.5404 61.2965 20.8736 61.4225C21.2112 61.5485 21.5803 61.3775 21.7064 61.0399C21.8279 60.7067 21.6614 60.3376 21.3237 60.2116Z" fill="#FEFEFE"/>
<path d="M26.8473 62.0615C26.4107 61.8995 25.929 62.1201 25.7669 62.5522C25.6049 62.9889 25.8254 63.4706 26.2621 63.6326C26.6943 63.7947 27.1759 63.5741 27.3425 63.1374C27.5001 62.7053 27.2795 62.2191 26.8473 62.0615Z" fill="#FEFEFE"/>
<path d="M32.3618 63.9209C31.8351 63.7273 31.2499 63.9929 31.0563 64.5196C30.8583 65.0463 31.1284 65.6315 31.6506 65.8251C32.1817 66.0231 32.7625 65.753 32.9605 65.2263C33.1541 64.6997 32.8885 64.1189 32.3618 63.9209Z" fill="#FEFEFE"/>
<path d="M37.8764 65.7847C37.2597 65.5552 36.5709 65.8703 36.3413 66.487C36.1117 67.1037 36.4269 67.7925 37.0436 68.0221C37.6603 68.2517 38.3491 67.9365 38.5787 67.3198C38.8082 66.7031 38.4976 66.0143 37.8764 65.7847Z" fill="#FEFEFE"/>
<path d="M43.3954 67.6484C42.6842 67.3828 41.8919 67.743 41.6308 68.4542C41.3652 69.1655 41.7253 69.9533 42.4366 70.2144C43.1478 70.48 43.9356 70.1198 44.2012 69.4086C44.4623 68.6973 44.1022 67.9095 43.3954 67.6484Z" fill="#FEFEFE"/>
<path d="M48.9055 69.5209C48.1087 69.2283 47.2263 69.6334 46.9337 70.4257C46.6366 71.218 47.0418 72.1004 47.8341 72.3975C48.6264 72.6946 49.5087 72.2894 49.8058 71.4926C50.0984 70.7003 49.6978 69.818 48.9055 69.5209Z" fill="#FEFEFE"/>
<path d="M54.6181 71.3397C53.6727 70.9885 52.6238 71.4702 52.2727 72.4111C51.9216 73.3564 52.4033 74.4053 53.3441 74.7564C54.2895 75.1076 55.3383 74.6259 55.6895 73.685C56.0406 72.7397 55.5634 71.6908 54.6181 71.3397Z" fill="#FEFEFE"/>
<path d="M60.0201 73.5048C59.1513 73.1807 58.1834 73.6219 57.8638 74.4907C57.5397 75.3595 57.9808 76.3274 58.8497 76.6515C59.7185 76.9756 60.6863 76.53 61.0105 75.6611C61.3301 74.7923 60.8889 73.829 60.0201 73.5048Z" fill="#FEFEFE"/>
<path d="M65.4221 75.67C64.6298 75.3729 63.7474 75.778 63.4503 76.5703C63.1577 77.3626 63.5629 78.2495 64.3552 78.5421C65.1475 78.8392 66.0298 78.434 66.3269 77.6372C66.6195 76.8449 66.2144 75.9626 65.4221 75.67Z" fill="#FEFEFE"/>
<path d="M70.8196 77.8489C70.1129 77.5833 69.3206 77.9434 69.0595 78.6547C68.7939 79.3659 69.154 80.1537 69.8653 80.4193C70.5766 80.6849 71.3643 80.3203 71.6299 79.6135C71.891 78.9022 71.5309 78.1145 70.8196 77.8489Z" fill="#FEFEFE"/>
<path d="M76.2126 80.0413C75.5958 79.8117 74.9071 80.1268 74.6775 80.748C74.4479 81.3648 74.763 82.0535 75.3798 82.2831C75.9965 82.5127 76.6852 82.1976 76.9148 81.5809C77.1444 80.9596 76.8338 80.2754 76.2126 80.0413Z" fill="#FEFEFE"/>
<path d="M81.6101 82.2246C81.0744 82.0265 80.4802 82.2966 80.2821 82.8323C80.0841 83.368 80.3542 83.9622 80.8899 84.1603C81.4256 84.3584 82.0198 84.0883 82.2179 83.5526C82.4159 83.0169 82.1458 82.4227 81.6101 82.2246Z" fill="#FEFEFE"/>
<path d="M86.9986 84.4216C86.5574 84.2551 86.0667 84.4802 85.9047 84.9213C85.7381 85.367 85.9632 85.8577 86.4044 86.0197C86.85 86.1863 87.3407 85.9612 87.5073 85.5201C87.6693 85.0744 87.4442 84.5837 86.9986 84.4216Z" fill="#FEFEFE"/>
<path d="M13.7429 63.9075C13.5584 63.84 13.3558 63.9346 13.2838 64.1191C13.2162 64.3037 13.3108 64.5063 13.4953 64.5738C13.6799 64.6413 13.878 64.5513 13.95 64.3667C14.0175 64.1821 13.9275 63.9796 13.7429 63.9075Z" fill="#FEFEFE"/>
<path d="M19.2575 65.7709C18.9829 65.6674 18.6767 65.8115 18.5732 66.0861C18.4697 66.3607 18.6092 66.6668 18.8838 66.7703C19.1629 66.8693 19.469 66.7343 19.5681 66.4552C19.6716 66.1806 19.5321 65.8745 19.2575 65.7709Z" fill="#FEFEFE"/>
<path d="M24.7766 67.6214C24.3984 67.4818 23.9843 67.6709 23.8447 68.0445C23.7052 68.4227 23.8942 68.8413 24.2724 68.9809C24.646 69.1204 25.0647 68.9269 25.2042 68.5532C25.3438 68.1751 25.1547 67.7609 24.7766 67.6214Z" fill="#FEFEFE"/>
<path d="M30.2866 69.4984C29.8274 69.3273 29.3187 69.5569 29.1477 70.0206C28.9766 70.4753 29.2107 70.9885 29.6654 71.1595C30.129 71.3306 30.6422 71.0965 30.8133 70.6373C30.9798 70.1782 30.7458 69.6695 30.2866 69.4984Z" fill="#FEFEFE"/>
<path d="M35.8056 71.3575C35.2519 71.1549 34.6397 71.434 34.4326 71.9833C34.23 72.537 34.5091 73.1492 35.0583 73.3563C35.612 73.5588 36.2243 73.2797 36.4313 72.726C36.6339 72.1768 36.3548 71.5646 35.8056 71.3575Z" fill="#FEFEFE"/>
<path d="M41.3066 73.2528C40.6809 73.0187 39.9831 73.3383 39.7536 73.964C39.5195 74.5898 39.8391 75.2875 40.4648 75.5216C41.0906 75.7557 41.7883 75.4316 42.0179 74.8058C42.252 74.1801 41.9369 73.4869 41.3066 73.2528Z" fill="#FEFEFE"/>
<path d="M46.8167 75.1303C46.1099 74.8647 45.3177 75.2249 45.0566 75.9361C44.791 76.6474 45.1511 77.4352 45.8624 77.7008C46.5736 77.9619 47.3614 77.6018 47.627 76.8905C47.8881 76.1837 47.528 75.3914 46.8167 75.1303Z" fill="#FEFEFE"/>
<path d="M52.5248 76.9577C51.674 76.6425 50.7286 77.0747 50.409 77.93C50.0939 78.7808 50.5261 79.7262 51.3769 80.0458C52.2322 80.3609 53.1775 79.9288 53.4927 79.078C53.8123 78.2226 53.3801 77.2773 52.5248 76.9577Z" fill="#FEFEFE"/>
<path d="M57.9403 79.0963C57.148 78.7992 56.2657 79.2043 55.9686 79.9966C55.676 80.7889 56.0811 81.6712 56.8734 81.9683C57.6657 82.2654 58.548 81.8603 58.8452 81.0635C59.1378 80.2712 58.7326 79.3889 57.9403 79.0963Z" fill="#FEFEFE"/>
<path d="M63.3423 81.2569C62.6266 80.9913 61.8253 81.3559 61.5597 82.0762C61.2941 82.7919 61.6587 83.5932 62.3745 83.8588C63.0947 84.1289 63.896 83.7598 64.1616 83.044C64.4272 82.3238 64.0626 81.527 63.3423 81.2569Z" fill="#FEFEFE"/>
<path d="M68.7399 83.4403C68.1051 83.2017 67.4029 83.5258 67.1643 84.1605C66.9302 84.7953 67.2498 85.502 67.8846 85.7361C68.5193 85.9747 69.2261 85.6506 69.4646 85.0159C69.6987 84.3811 69.3746 83.6744 68.7399 83.4403Z" fill="#FEFEFE"/>
<path d="M74.1463 85.6054C73.5836 85.3939 72.9624 85.682 72.7553 86.2402C72.5482 86.7984 72.8318 87.4241 73.39 87.6312C73.9527 87.8383 74.574 87.5502 74.781 86.9919C74.9881 86.4337 74.7045 85.8125 74.1463 85.6054Z" fill="#FEFEFE"/>
<path d="M79.5393 87.7978C79.0712 87.6268 78.549 87.8609 78.3734 88.329C78.2023 88.7972 78.4409 89.3194 78.9091 89.495C79.3728 89.666 79.895 89.4274 80.0705 88.9593C80.2416 88.4956 80.003 87.9734 79.5393 87.7978Z" fill="#FEFEFE"/>
<path d="M84.9323 89.9766C84.5497 89.8371 84.122 90.0306 83.9825 90.4178C83.8384 90.8004 84.032 91.2281 84.4146 91.3676C84.8018 91.5117 85.2294 91.3181 85.3735 90.9355C85.513 90.5483 85.3195 90.1207 84.9323 89.9766Z" fill="#FEFEFE"/>
<path d="M11.6722 69.4671C11.5461 69.4221 11.4066 69.4851 11.3615 69.6112C11.3165 69.7372 11.3796 69.8723 11.5056 69.9218C11.6271 69.9668 11.7712 69.9038 11.8162 69.7823C11.8612 69.6562 11.7982 69.5167 11.6722 69.4671Z" fill="#FEFEFE"/>
<path d="M17.1867 71.3308C16.9706 71.2497 16.732 71.3623 16.651 71.5784C16.57 71.7944 16.678 72.0375 16.8941 72.1186C17.1102 72.1996 17.3532 72.0871 17.4343 71.871C17.5153 71.6549 17.4073 71.4118 17.1867 71.3308Z" fill="#FEFEFE"/>
<path d="M22.7058 73.1944C22.3951 73.0774 22.053 73.235 21.936 73.5456C21.8234 73.8562 21.9765 74.1983 22.2871 74.3109C22.5977 74.4279 22.9398 74.2703 23.0569 73.9597C23.1694 73.6491 23.0119 73.307 22.7058 73.1944Z" fill="#FEFEFE"/>
<path d="M28.2113 75.0717C27.8241 74.9232 27.383 75.1258 27.2389 75.5174C27.0904 75.9136 27.2929 76.3457 27.6846 76.4943C28.0762 76.6383 28.5129 76.4403 28.6615 76.0486C28.8055 75.6525 28.6074 75.2158 28.2113 75.0717Z" fill="#FEFEFE"/>
<path d="M33.7258 76.9487C33.2487 76.7732 32.7175 77.0118 32.5419 77.4889C32.3663 77.9661 32.6094 78.4928 33.0821 78.6684C33.5593 78.8484 34.086 78.6053 34.266 78.1327C34.4416 77.6555 34.1985 77.1243 33.7258 76.9487Z" fill="#FEFEFE"/>
<path d="M39.2269 78.8394C38.6777 78.6368 38.0654 78.9159 37.8584 79.4696C37.6513 80.0188 37.9349 80.6311 38.4841 80.8381C39.0378 81.0407 39.65 80.7616 39.8571 80.2124C40.0597 79.6587 39.7806 79.0465 39.2269 78.8394Z" fill="#FEFEFE"/>
<path d="M44.7279 80.7481C44.1067 80.5185 43.4224 80.8337 43.1929 81.4504C42.9633 82.0716 43.2739 82.7559 43.8951 82.99C44.5118 83.215 45.2006 82.9044 45.4302 82.2832C45.6598 81.6665 45.3447 80.9777 44.7279 80.7481Z" fill="#FEFEFE"/>
<path d="M50.4315 82.5937C49.6798 82.3146 48.8425 82.6972 48.5634 83.449C48.2842 84.2008 48.6669 85.0381 49.4187 85.3172C50.1704 85.5963 51.0078 85.2137 51.2869 84.4619C51.566 83.7101 51.1833 82.8728 50.4315 82.5937Z" fill="#FEFEFE"/>
<path d="M55.8426 84.7274C55.1493 84.4708 54.3795 84.8265 54.1229 85.5197C53.8664 86.213 54.2175 86.9828 54.9107 87.2394C55.604 87.4959 56.3738 87.1448 56.6349 86.4516C56.8915 85.7583 56.5403 84.9885 55.8426 84.7274Z" fill="#FEFEFE"/>
<path d="M61.2535 86.8795C60.6278 86.6454 59.93 86.965 59.696 87.5907C59.4664 88.2165 59.7815 88.9142 60.4072 89.1483C61.0375 89.3824 61.7307 89.0628 61.9648 88.4326C62.1989 87.8113 61.8793 87.1136 61.2535 86.8795Z" fill="#FEFEFE"/>
<path d="M66.6601 89.0269C66.1018 88.8198 65.4806 89.1034 65.2735 89.6661C65.0665 90.2244 65.3501 90.8456 65.9083 91.0572C66.4665 91.2642 67.0922 90.9806 67.2993 90.4179C67.5064 89.8597 67.2228 89.2385 66.6601 89.0269Z" fill="#FEFEFE"/>
<path d="M72.0665 91.1964C71.5804 91.0118 71.0447 91.2594 70.8601 91.7456C70.68 92.2273 70.9276 92.7675 71.4138 92.9476C71.9 93.1276 72.4357 92.88 72.6157 92.3984C72.7958 91.9122 72.5527 91.3765 72.0665 91.1964Z" fill="#FEFEFE"/>
<path d="M77.4596 93.3889C77.0635 93.2403 76.6268 93.4429 76.4828 93.8345C76.3342 94.2307 76.5368 94.6674 76.9284 94.8114C77.3201 94.9555 77.7567 94.7574 77.9053 94.3657C78.0493 93.9741 77.8513 93.5374 77.4596 93.3889Z" fill="#FEFEFE"/>
<path d="M82.8571 95.5544C82.542 95.4374 82.1908 95.5994 82.0738 95.9146C81.9522 96.2342 82.1143 96.5853 82.4339 96.7023C82.749 96.8239 83.1047 96.6618 83.2217 96.3422C83.3388 96.0271 83.1767 95.6715 82.8571 95.5544Z" fill="#FEFEFE"/>
<path d="M15.116 76.9081C14.9629 76.8496 14.7963 76.9262 14.7423 77.0747C14.6838 77.2278 14.7603 77.3943 14.9134 77.4483C15.0619 77.5069 15.2285 77.4303 15.287 77.2773C15.341 77.1287 15.2645 76.9622 15.116 76.9081Z" fill="#FEFEFE"/>
<path d="M20.626 78.7854C20.3919 78.6953 20.1308 78.8169 20.0453 79.051C19.9552 79.2851 20.0768 79.5417 20.3109 79.6317C20.545 79.7172 20.8016 79.6002 20.8916 79.3661C20.9771 79.132 20.8601 78.8709 20.626 78.7854Z" fill="#FEFEFE"/>
<path d="M26.1315 80.6581C25.8164 80.5411 25.4653 80.7032 25.3483 81.0228C25.2267 81.3379 25.3888 81.6935 25.7039 81.8106C26.0235 81.9276 26.3791 81.7655 26.4962 81.4504C26.6132 81.1308 26.4512 80.7797 26.1315 80.6581Z" fill="#FEFEFE"/>
<path d="M31.6371 82.5532C31.2454 82.4046 30.8133 82.6072 30.6647 82.9989C30.5207 83.3905 30.7187 83.8272 31.1104 83.9757C31.502 84.1198 31.9387 83.9217 32.0827 83.5256C32.2313 83.1339 32.0332 82.6972 31.6371 82.5532Z" fill="#FEFEFE"/>
<path d="M37.1426 84.4486C36.6744 84.2731 36.1567 84.5117 35.9811 84.9753C35.8056 85.4435 36.0487 85.9657 36.5123 86.1413C36.9805 86.3123 37.5027 86.0737 37.6738 85.6101C37.8493 85.1419 37.6107 84.6197 37.1426 84.4486Z" fill="#FEFEFE"/>
<path d="M42.6436 86.353C42.1079 86.1549 41.5137 86.4295 41.3156 86.9607C41.1176 87.4964 41.3877 88.0906 41.9234 88.2887C42.4546 88.4868 43.0533 88.2167 43.2514 87.681C43.4494 87.1498 43.1748 86.551 42.6436 86.353Z" fill="#FEFEFE"/>
<path d="M48.3383 88.212C47.681 87.9689 46.9472 88.3065 46.6997 88.9637C46.4566 89.6255 46.7897 90.3593 47.4514 90.6068C48.1132 90.8499 48.8424 90.5123 49.09 89.8551C49.3331 89.1933 49 88.4595 48.3383 88.212Z" fill="#FEFEFE"/>
<path d="M53.7538 90.3501C53.1506 90.125 52.4843 90.4311 52.2592 91.0343C52.0341 91.633 52.3403 92.3038 52.9435 92.5244C53.5467 92.7494 54.213 92.4433 54.438 91.8446C54.6631 91.2414 54.357 90.5751 53.7538 90.3501Z" fill="#FEFEFE"/>
<path d="M59.1693 92.4841C58.6246 92.2815 58.0213 92.5606 57.8188 93.1008C57.6207 93.6455 57.8953 94.2487 58.4355 94.4513C58.9802 94.6539 59.5834 94.3748 59.786 93.8301C59.9886 93.2899 59.7095 92.6867 59.1693 92.4841Z" fill="#FEFEFE"/>
<path d="M64.5758 94.6313C64.1031 94.4557 63.5719 94.6988 63.3963 95.176C63.2163 95.6487 63.4594 96.1798 63.9365 96.3554C64.4137 96.5355 64.9404 96.2924 65.1205 95.8152C65.296 95.3425 65.053 94.8113 64.5758 94.6313Z" fill="#FEFEFE"/>
<path d="M69.9823 96.7964C69.5816 96.6479 69.1315 96.8549 68.9829 97.2556C68.8344 97.6562 69.0369 98.1019 69.4421 98.2505C69.8427 98.399 70.2884 98.1964 70.4369 97.7958C70.5855 97.3951 70.3829 96.945 69.9823 96.7964Z" fill="#FEFEFE"/>
<path d="M13.0366 82.495C12.9599 82.4679 12.8787 82.5085 12.8471 82.5807C12.82 82.6574 12.8607 82.7387 12.9329 82.7703C13.0096 82.7973 13.0953 82.7567 13.1224 82.6845C13.1494 82.6078 13.1133 82.5221 13.0366 82.495Z" fill="#FEFEFE"/>
<path d="M18.5462 84.3721C18.3887 84.3135 18.2086 84.3946 18.1501 84.5521C18.0916 84.7142 18.1726 84.8898 18.3301 84.9483C18.4922 85.0068 18.6678 84.9258 18.7263 84.7682C18.7848 84.6107 18.7038 84.4306 18.5462 84.3721Z" fill="#FEFEFE"/>
<path d="M24.0473 86.2673C23.8177 86.1773 23.5566 86.2988 23.471 86.5329C23.381 86.767 23.5026 87.0281 23.7321 87.1136C23.9662 87.1992 24.2318 87.0821 24.3174 86.848C24.4029 86.6139 24.2813 86.3528 24.0473 86.2673Z" fill="#FEFEFE"/>
<path d="M29.5618 88.1444C29.2421 88.0229 28.8865 88.1849 28.7695 88.5045C28.6524 88.8197 28.8145 89.1753 29.1341 89.2923C29.4492 89.4094 29.8003 89.2473 29.9219 88.9322C30.0389 88.6126 29.8769 88.2615 29.5618 88.1444Z" fill="#FEFEFE"/>
<path d="M35.0583 90.0533C34.6757 89.9092 34.248 90.1028 34.104 90.4854C33.9599 90.8726 34.158 91.3002 34.5406 91.4443C34.9278 91.5838 35.3509 91.3903 35.495 91.0076C35.639 90.6205 35.441 90.1928 35.0583 90.0533Z" fill="#FEFEFE"/>
<path d="M40.5504 91.9753C40.1092 91.8087 39.6185 92.0338 39.452 92.4795C39.2854 92.9207 39.515 93.4113 39.9561 93.5779C40.3973 93.74 40.8925 93.5149 41.0546 93.0737C41.2211 92.6326 40.996 92.1374 40.5504 91.9753Z" fill="#FEFEFE"/>
<path d="M46.245 93.8523C45.6868 93.6407 45.0611 93.9288 44.854 94.487C44.6469 95.0452 44.9305 95.6664 45.4887 95.878C46.0514 96.0851 46.6727 95.8015 46.8797 95.2388C47.0868 94.6806 46.8032 94.0593 46.245 93.8523Z" fill="#FEFEFE"/>
<path d="M51.656 95.9863C51.1563 95.7972 50.5981 96.0538 50.4135 96.5535C50.2244 97.0532 50.481 97.6159 50.9807 97.8005C51.4849 97.9851 52.0431 97.7285 52.2277 97.2288C52.4167 96.7291 52.1602 96.1709 51.656 95.9863Z" fill="#FEFEFE"/>
<path d="M57.0715 98.1201C56.6303 97.9535 56.1396 98.1786 55.9731 98.6243C55.811 99.0654 56.0316 99.5561 56.4772 99.7227C56.9184 99.8847 57.4091 99.6597 57.5757 99.2185C57.7377 98.7773 57.5126 98.2821 57.0715 98.1201Z" fill="#FEFEFE"/>
<path d="M62.487 100.254C62.0999 100.11 61.6767 100.308 61.5327 100.691C61.3886 101.073 61.5867 101.501 61.9693 101.645C62.352 101.789 62.7796 101.591 62.9237 101.208C63.0677 100.826 62.8697 100.398 62.487 100.254Z" fill="#FEFEFE"/>
<path d="M67.898 102.401C67.5784 102.284 67.2227 102.446 67.1057 102.761C66.9887 103.081 67.1507 103.436 67.4703 103.554C67.7855 103.671 68.1366 103.509 68.2581 103.193C68.3752 102.874 68.2131 102.523 67.898 102.401Z" fill="#FEFEFE"/>
<path d="M73.3001 104.571C73.057 104.477 72.7869 104.603 72.6968 104.846C72.6068 105.089 72.7284 105.354 72.9714 105.444C73.2145 105.534 73.4846 105.413 73.5747 105.17C73.6647 104.927 73.5387 104.661 73.3001 104.571Z" fill="#FEFEFE"/>
<path d="M16.4669 89.9628C16.3812 89.9312 16.291 89.9718 16.2594 90.0576C16.2278 90.1433 16.2684 90.2335 16.3541 90.2651C16.4399 90.2967 16.5301 90.2561 16.5617 90.1704C16.5933 90.0846 16.5482 89.9944 16.4669 89.9628Z" fill="#FEFEFE"/>
<path d="M21.963 91.8674C21.8144 91.8134 21.6479 91.8899 21.5893 92.0385C21.5353 92.1915 21.6119 92.3581 21.7604 92.4166C21.9135 92.4706 22.08 92.3941 22.1385 92.2456C22.1926 92.097 22.116 91.9259 21.963 91.8674Z" fill="#FEFEFE"/>
<path d="M27.4685 93.7627C27.2434 93.6771 26.9913 93.7942 26.9103 94.0193C26.8248 94.2443 26.9418 94.4964 27.1669 94.582C27.392 94.663 27.6441 94.5505 27.7251 94.3254C27.8106 94.1003 27.6936 93.8482 27.4685 93.7627Z" fill="#FEFEFE"/>
<path d="M32.9696 95.671C32.677 95.563 32.3528 95.7115 32.2448 96.0041C32.1323 96.2967 32.2808 96.6208 32.5734 96.7289C32.866 96.8369 33.1902 96.6884 33.3027 96.3958C33.4107 96.1032 33.2622 95.779 32.9696 95.671Z" fill="#FEFEFE"/>
<path d="M44.1427 99.5022C43.6881 99.3312 43.1884 99.5607 43.0218 100.011C42.8552 100.461 43.0848 100.965 43.535 101.132C43.9852 101.303 44.4894 101.073 44.6559 100.619C44.8225 100.168 44.5929 99.6688 44.1427 99.5022Z" fill="#FEFEFE"/>
<path d="M49.5672 101.604C49.1575 101.451 48.7029 101.663 48.5498 102.068C48.3967 102.478 48.6038 102.932 49.0135 103.085C49.4231 103.238 49.8823 103.031 50.0309 102.622C50.1839 102.212 49.9768 101.757 49.5672 101.604Z" fill="#FEFEFE"/>
<path d="M54.9827 103.738C54.6316 103.608 54.2399 103.788 54.1094 104.139C53.9788 104.49 54.1589 104.882 54.51 105.012C54.8612 105.143 55.2483 104.963 55.3789 104.612C55.5094 104.261 55.3338 103.869 54.9827 103.738Z" fill="#FEFEFE"/>
<path d="M60.3937 105.872C60.1011 105.764 59.777 105.912 59.669 106.205C59.5609 106.498 59.7095 106.822 60.0021 106.934C60.2947 107.042 60.6188 106.894 60.7314 106.601C60.8394 106.309 60.6909 105.984 60.3937 105.872Z" fill="#FEFEFE"/>
<path d="M71.2158 110.175C71.0537 110.112 70.8782 110.198 70.8196 110.351C70.7611 110.513 70.8421 110.689 70.9997 110.747C71.1573 110.806 71.3373 110.725 71.3958 110.567C71.4544 110.41 71.3733 110.234 71.2158 110.175Z" fill="#FEFEFE"/>
<path d="M14.3641 95.5634C14.3641 95.5725 14.3687 95.5815 14.3777 95.5861C14.3823 95.5861 14.3913 95.5815 14.3959 95.5725C14.4004 95.5634 14.3959 95.5543 14.3868 95.5498C14.3777 95.5498 14.3687 95.5543 14.3641 95.5634Z" fill="#FEFEFE"/>
<path d="M42.0449 105.134C41.6938 105.008 41.3021 105.183 41.1716 105.534C41.041 105.886 41.2211 106.277 41.5722 106.408C41.9234 106.538 42.315 106.358 42.4456 106.007C42.5761 105.656 42.396 105.269 42.0449 105.134Z" fill="#FEFEFE"/>
<path d="M47.4694 107.24C47.1633 107.123 46.8212 107.285 46.7042 107.591C46.5916 107.898 46.7447 108.244 47.0553 108.357C47.3614 108.474 47.708 108.316 47.8206 108.01C47.9376 107.699 47.7801 107.353 47.4694 107.24Z" fill="#FEFEFE"/>
<path d="M71.6389 58.9647C70.7026 58.6181 69.6627 59.0907 69.3115 60.0271C68.9649 60.9634 69.4421 62.0033 70.3784 62.3499C71.3148 62.7011 72.3547 62.2239 72.7013 61.2875C73.0479 60.3512 72.5752 59.3113 71.6389 58.9647Z" fill="#FEFEFE"/>
<path d="M73.6061 53.6752C72.7598 53.3646 71.8235 53.7923 71.5083 54.6341C71.1932 55.4804 71.6254 56.4168 72.4672 56.7319C73.309 57.0425 74.2499 56.6148 74.565 55.773C74.8801 54.9312 74.4479 53.9904 73.6061 53.6752Z" fill="#FEFEFE"/>
<path d="M75.5644 48.4037C74.8216 48.1291 73.9978 48.5073 73.7187 49.2501C73.4441 49.9928 73.8222 50.8211 74.565 51.0957C75.3078 51.3703 76.1361 50.9922 76.4107 50.2494C76.6898 49.5066 76.3071 48.6783 75.5644 48.4037Z" fill="#FEFEFE"/>
<path d="M77.5271 43.1325C76.8833 42.8939 76.1721 43.218 75.929 43.8663C75.6904 44.5055 76.019 45.2213 76.6583 45.4644C77.3065 45.703 78.0178 45.3743 78.2563 44.7306C78.4994 44.0869 78.1708 43.3711 77.5271 43.1325Z" fill="#FEFEFE"/>
<path d="M79.4898 37.8608C78.9451 37.6582 78.3419 37.9328 78.1393 38.4775C77.9367 39.0223 78.2158 39.6255 78.756 39.8236C79.3007 40.0261 79.9039 39.7515 80.1065 39.2113C80.3091 38.6621 80.03 38.0589 79.4898 37.8608Z" fill="#FEFEFE"/>
<path d="M81.4481 32.5894C81.0069 32.4228 80.5162 32.6479 80.3497 33.0891C80.1876 33.5347 80.4082 34.0254 80.8538 34.1875C81.295 34.354 81.7902 34.1289 81.9522 33.6878C82.1188 33.2421 81.8937 32.7514 81.4481 32.5894Z" fill="#FEFEFE"/>
<path d="M83.4063 27.3315C83.0687 27.2055 82.6996 27.3766 82.5735 27.7097C82.452 28.0428 82.6185 28.4164 82.9562 28.538C83.2893 28.664 83.6629 28.493 83.7845 28.1598C83.9105 27.8267 83.7394 27.4531 83.4063 27.3315Z" fill="#FEFEFE"/>
<path d="M77.0454 61.1121C76.1766 60.7925 75.2087 61.2336 74.8891 62.1025C74.565 62.9668 75.0106 63.9346 75.875 64.2588C76.7438 64.5784 77.7116 64.1372 78.0313 63.2729C78.3554 62.4041 77.9142 61.4362 77.0454 61.1121Z" fill="#FEFEFE"/>
<path d="M79.0172 55.809C78.2339 55.5209 77.3606 55.917 77.0679 56.7048C76.7753 57.4881 77.176 58.3614 77.9593 58.6541C78.7471 58.9467 79.6204 58.546 79.9085 57.7627C80.2056 56.9749 79.805 56.1061 79.0172 55.809Z" fill="#FEFEFE"/>
<path d="M80.9799 50.5373C80.2957 50.2852 79.5349 50.6318 79.2783 51.3161C79.0262 52.0048 79.3728 52.7656 80.0571 53.0177C80.7413 53.2743 81.5021 52.9232 81.7587 52.2389C82.0153 51.5547 81.6642 50.7939 80.9799 50.5373Z" fill="#FEFEFE"/>
<path d="M82.9471 45.2524C82.3574 45.0318 81.6956 45.3334 81.475 45.9276C81.2545 46.5174 81.5561 47.1791 82.1503 47.3997C82.74 47.6203 83.4018 47.3187 83.6223 46.7244C83.8429 46.1302 83.5413 45.473 82.9471 45.2524Z" fill="#FEFEFE"/>
<path d="M84.9143 39.9632C84.4146 39.7786 83.8519 40.0307 83.6673 40.5349C83.4828 41.0346 83.7394 41.5928 84.2391 41.7774C84.7433 41.9665 85.297 41.7099 85.4815 41.2102C85.6706 40.706 85.4185 40.1523 84.9143 39.9632Z" fill="#FEFEFE"/>
<path d="M82.4475 63.2773C81.6552 62.9847 80.7729 63.3853 80.4802 64.1821C80.1831 64.9744 80.5883 65.8567 81.3806 66.1493C82.1729 66.4464 83.0597 66.0413 83.3523 65.249C83.6494 64.4567 83.2398 63.5744 82.4475 63.2773Z" fill="#FEFEFE"/>
<path d="M84.4191 57.9743C83.7124 57.7087 82.9201 58.0733 82.659 58.7846C82.3934 59.4913 82.7535 60.2836 83.4648 60.5447C84.176 60.8103 84.9683 60.4502 85.2294 59.7389C85.495 59.0322 85.1304 58.2399 84.4191 57.9743Z" fill="#FEFEFE"/>
<path d="M86.3864 52.6893C85.7696 52.4597 85.0854 52.7748 84.8513 53.3916C84.6262 54.0083 84.9368 54.697 85.5536 54.9266C86.1748 55.1562 86.859 54.8411 87.0886 54.2244C87.3227 53.6031 87.0076 52.9189 86.3864 52.6893Z" fill="#FEFEFE"/>
<path d="M88.3626 47.3864C87.8269 47.1884 87.2327 47.4585 87.0346 47.9942C86.8321 48.5299 87.1067 49.1241 87.6424 49.3222C88.1781 49.5202 88.7723 49.2501 88.9703 48.7144C89.1684 48.1787 88.8983 47.5845 88.3626 47.3864Z" fill="#FEFEFE"/>
<path d="M90.3254 42.0968C89.8887 41.9347 89.3935 42.1598 89.2269 42.6009C89.0649 43.0466 89.29 43.5373 89.7311 43.6994C90.1768 43.8659 90.6675 43.6408 90.834 43.1997C90.9961 42.754 90.771 42.2633 90.3254 42.0968Z" fill="#FEFEFE"/>
<path d="M87.8539 65.4427C87.1336 65.1771 86.3369 65.5418 86.0668 66.2575C85.8012 66.9778 86.1658 67.7791 86.8861 68.0447C87.6018 68.3103 88.4031 67.9456 88.6687 67.2254C88.9343 66.5096 88.5697 65.7083 87.8539 65.4427Z" fill="#FEFEFE"/>
<path d="M89.8257 60.1396C89.1909 59.9055 88.4842 60.2296 88.2501 60.8643C88.0115 61.4946 88.3356 62.2013 88.9704 62.4399C89.6051 62.674 90.3119 62.3499 90.5459 61.7196C90.78 61.0849 90.4604 60.3781 89.8257 60.1396Z" fill="#FEFEFE"/>
<path d="M91.8064 54.8231C91.2437 54.616 90.6225 54.8996 90.4109 55.4578C90.2038 56.0205 90.4919 56.6418 91.0502 56.8489C91.6084 57.0559 92.2341 56.7723 92.4412 56.2141C92.6482 55.6559 92.3646 55.0302 91.8064 54.8231Z" fill="#FEFEFE"/>
<path d="M93.7691 49.5339C93.301 49.3628 92.7788 49.6014 92.6077 50.0696C92.4321 50.5332 92.6707 51.0554 93.1389 51.231C93.6071 51.4021 94.1293 51.1635 94.3003 50.6998C94.4759 50.2316 94.2373 49.7094 93.7691 49.5339Z" fill="#FEFEFE"/>
<path d="M95.7454 44.2308C95.3583 44.0912 94.9306 44.2848 94.7866 44.6719C94.647 45.0546 94.8406 45.4822 95.2277 45.6263C95.6104 45.7658 96.038 45.5723 96.1776 45.1896C96.3216 44.8025 96.128 44.3748 95.7454 44.2308Z" fill="#FEFEFE"/>
<path d="M93.2469 67.6395C92.6167 67.4054 91.9189 67.725 91.6894 68.3507C91.4553 68.9765 91.7749 69.6742 92.4006 69.9083C93.0263 70.1379 93.7241 69.8228 93.9582 69.1926C94.1923 68.5668 93.8727 67.8736 93.2469 67.6395Z" fill="#FEFEFE"/>
<path d="M95.2276 62.3047C94.6694 62.0977 94.0437 62.3813 93.8366 62.944C93.6296 63.5022 93.9177 64.1234 94.4759 64.3305C95.0341 64.5376 95.6553 64.254 95.8624 63.6958C96.074 63.1375 95.7904 62.5118 95.2276 62.3047Z" fill="#FEFEFE"/>
<path d="M97.2084 56.9885C96.7222 56.8084 96.182 57.056 96.0019 57.5377C95.8219 58.0239 96.0695 58.5596 96.5556 58.7442C97.0373 58.9242 97.5775 58.6766 97.7576 58.1904C97.9377 57.7088 97.6901 57.1686 97.2084 56.9885Z" fill="#FEFEFE"/>
<path d="M99.1757 51.6988C98.7795 51.5547 98.3429 51.7528 98.1988 52.149C98.0503 52.5361 98.2528 52.9773 98.6445 53.1213C99.0361 53.2699 99.4728 53.0673 99.6214 52.6757C99.7654 52.284 99.5673 51.8473 99.1757 51.6988Z" fill="#FEFEFE"/>
<path d="M101.152 46.3825C100.832 46.2655 100.481 46.4276 100.364 46.7427C100.243 47.0623 100.405 47.4134 100.724 47.5305C101.044 47.652 101.395 47.49 101.512 47.1703C101.629 46.8552 101.467 46.4996 101.152 46.3825Z" fill="#FEFEFE"/>
<path d="M98.64 69.8181C98.0953 69.6155 97.4966 69.8946 97.294 70.4348C97.0914 70.9795 97.366 71.5827 97.9107 71.7808C98.4509 71.9834 99.0586 71.7088 99.2612 71.1686C99.4638 70.6239 99.1847 70.0206 98.64 69.8181Z" fill="#FEFEFE"/>
<path d="M100.625 64.4881C100.148 64.3081 99.6214 64.5512 99.4458 65.0283C99.2657 65.5055 99.5088 66.0322 99.986 66.2078C100.463 66.3833 100.99 66.1448 101.165 65.6676C101.345 65.1904 101.102 64.6637 100.625 64.4881Z" fill="#FEFEFE"/>
<path d="M102.606 59.1673C102.205 59.0188 101.755 59.2214 101.607 59.622C101.458 60.0272 101.665 60.4683 102.061 60.6169C102.466 60.7699 102.912 60.5674 103.061 60.1622C103.209 59.7616 103.007 59.3159 102.606 59.1673Z" fill="#FEFEFE"/>
<path d="M104.028 72.0284C103.587 71.8664 103.092 72.0869 102.926 72.5326C102.763 72.9738 102.989 73.469 103.43 73.631C103.875 73.7976 104.366 73.568 104.533 73.1268C104.695 72.6857 104.474 72.195 104.028 72.0284Z" fill="#FEFEFE"/>
<path d="M106.018 66.6806C105.636 66.5366 105.208 66.7346 105.064 67.1173C104.92 67.4999 105.118 67.9276 105.5 68.0716C105.883 68.2157 106.311 68.0176 106.455 67.635C106.599 67.2523 106.401 66.8247 106.018 66.6806Z" fill="#FEFEFE"/>
<path d="M108.003 61.3459C107.684 61.2288 107.333 61.3909 107.211 61.7105C107.094 62.0256 107.256 62.3768 107.576 62.4938C107.891 62.6153 108.246 62.4533 108.364 62.1337C108.481 61.8186 108.319 61.4629 108.003 61.3459Z" fill="#FEFEFE"/>
<path d="M109.98 56.0296C109.737 55.9396 109.467 56.0656 109.376 56.3087C109.286 56.5473 109.408 56.8174 109.651 56.9074C109.894 56.9974 110.164 56.8759 110.254 56.6328C110.344 56.3897 110.223 56.1196 109.98 56.0296Z" fill="#FEFEFE"/>
<path d="M109.421 74.2252C109.07 74.0947 108.679 74.2703 108.548 74.6214C108.418 74.9725 108.598 75.3642 108.949 75.4947C109.3 75.6253 109.692 75.4452 109.822 75.0941C109.948 74.7429 109.773 74.3558 109.421 74.2252Z" fill="#FEFEFE"/>
<path d="M111.407 68.8773C111.119 68.7692 110.794 68.9178 110.682 69.2104C110.574 69.4985 110.722 69.8271 111.015 69.9352C111.308 70.0432 111.632 69.8947 111.744 69.6021C111.852 69.3094 111.704 68.9853 111.407 68.8773Z" fill="#FEFEFE"/>
</g>
<path d="M51.0996 35.7347L47.3447 35.6039C47.053 35.5939 46.7748 35.7246 46.6004 35.9627L44.3609 38.98C43.925 39.5701 42.9964 39.4024 42.7952 38.695L41.7626 35.0809C41.6822 34.7993 41.4676 34.5781 41.1893 34.4842L37.6289 33.2873C36.9316 33.0526 36.8041 32.1206 37.4143 31.7082L40.5322 29.6095C40.7736 29.4452 40.9211 29.1737 40.9245 28.882L40.9614 25.1238C40.9681 24.3895 41.8163 23.9805 42.3963 24.4331L45.3566 26.7498C45.5846 26.9308 45.8897 26.9844 46.1679 26.8973L49.7519 25.7708C50.4559 25.5495 51.1063 26.2301 50.8549 26.9207L49.5675 30.4544C49.4669 30.7259 49.5071 31.0344 49.6781 31.2724L51.8573 34.3333C52.2831 34.9334 51.8372 35.7615 51.0996 35.7347Z" fill="#28519E"/>
<path opacity="0.7" d="M41.9772 33.9479C41.823 33.8272 41.6487 33.7333 41.4643 33.6696L39.1376 32.8885C38.8929 32.808 38.7185 32.5968 38.685 32.342C38.6515 32.0872 38.7621 31.8391 38.9767 31.695L41.0117 30.3237C41.4878 30.0019 41.7761 29.4655 41.7828 28.8922L41.8062 26.4381C41.8096 26.1799 41.9538 25.9486 42.1851 25.838C42.4198 25.724 42.6913 25.7542 42.8925 25.9151L43.8815 26.6862L43.7642 26.8371L42.7751 26.0626C42.6276 25.9486 42.4365 25.9285 42.2689 26.009C42.1013 26.0894 41.9973 26.2504 41.9973 26.4381L41.9739 28.8922C41.9672 29.5292 41.6453 30.1226 41.119 30.4813L39.0806 31.8525C38.9264 31.9565 38.8493 32.1308 38.8727 32.3152C38.8996 32.5029 39.0202 32.6471 39.1979 32.7074L41.5246 33.4886C41.7325 33.559 41.9236 33.6629 42.0946 33.797L41.9772 33.9479Z" fill="#28519E"/>
<path opacity="0.7" d="M44.153 37.6459C44.039 37.6929 43.9149 37.7063 43.7875 37.6828C43.5361 37.6359 43.3316 37.4548 43.2612 37.2067L42.7449 35.3997L42.9293 35.3461L43.4456 37.1531C43.4959 37.3341 43.6367 37.4615 43.8211 37.4951C44.0055 37.5286 44.1831 37.4582 44.2971 37.3073L45.7589 35.336C46.1343 34.8298 46.7512 34.5314 47.3815 34.5549L49.8356 34.642C50.0233 34.6487 50.1876 34.5515 50.2781 34.3872C50.3653 34.2229 50.3553 34.0318 50.2446 33.881L48.8231 31.8795C48.451 31.3598 48.3605 30.6927 48.5817 30.0926L49.4199 27.7893C49.4836 27.6116 49.4467 27.4239 49.3159 27.2898C49.1886 27.1557 49.0042 27.1054 48.8231 27.1624L46.483 27.9C46.2416 27.9737 45.9902 28.0005 45.7354 27.9804L45.7521 27.7893C45.9801 27.8094 46.2081 27.786 46.426 27.7156L48.7661 26.9813C49.0142 26.9042 49.2757 26.9713 49.4534 27.159C49.6311 27.3434 49.6881 27.6116 49.6009 27.853L48.7594 30.1596C48.5616 30.6994 48.6454 31.3028 48.9773 31.7688L50.3988 33.7703C50.5497 33.9782 50.5665 34.2498 50.4458 34.4777C50.3217 34.7057 50.087 34.8398 49.8289 34.8331L47.3748 34.746C46.8082 34.7258 46.2483 34.994 45.9097 35.45L44.448 37.4213C44.3709 37.5252 44.2703 37.6024 44.153 37.6459Z" fill="#28519E"/>
<path opacity="0.7" d="M44.3474 27.2926L43.7641 26.8367L43.8814 26.6858L44.4648 27.1451L44.3474 27.2926Z" fill="#28519E"/>
<path d="M98.8809 36.8368L95.126 36.706C94.8343 36.6959 94.5561 36.8267 94.3817 37.0647L92.1422 40.0821C91.7064 40.6721 90.7777 40.5045 90.5765 39.7971L89.5439 36.183C89.4635 35.9014 89.2489 35.6801 88.9707 35.5862L85.4102 34.3894C84.7129 34.1547 84.5855 33.2227 85.1956 32.8103L88.3135 30.7116C88.5549 30.5473 88.7024 30.2757 88.7058 29.9841L88.7427 26.2258C88.7494 25.4916 89.5976 25.0826 90.1776 25.5352L93.1379 27.8518C93.3659 28.0328 93.671 28.0865 93.9492 27.9993L97.5332 26.8728C98.2372 26.6516 98.8876 27.3322 98.6362 28.0228L97.3488 31.5564C97.2482 31.828 97.2884 32.1364 97.4594 32.3744L99.6386 35.4354C100.064 36.0355 99.6185 36.8636 98.8809 36.8368Z" fill="#28519E"/>
<path opacity="0.7" d="M89.7585 35.0499C89.6043 34.9293 89.43 34.8354 89.2456 34.7717L86.9189 33.9905C86.6742 33.9101 86.4998 33.6989 86.4663 33.4441C86.4328 33.1893 86.5434 32.9412 86.758 32.797L88.793 31.4258C89.2691 31.104 89.5574 30.5675 89.5641 29.9942L89.5876 27.5401C89.5909 27.282 89.7351 27.0507 89.9664 26.94C90.2011 26.826 90.4726 26.8562 90.6738 27.0171L91.6628 27.7882L91.5455 27.9391L90.5565 27.1647C90.4089 27.0507 90.2178 27.0306 90.0502 27.111C89.8826 27.1915 89.7787 27.3524 89.7787 27.5401L89.7552 29.9942C89.7485 30.6312 89.4266 31.2246 88.9003 31.5834L86.8619 32.9546C86.7077 33.0585 86.6306 33.2328 86.654 33.4172C86.6809 33.605 86.8016 33.7491 86.9792 33.8095L89.3059 34.5906C89.5138 34.6611 89.7049 34.765 89.8759 34.8991L89.7585 35.0499Z" fill="#28519E"/>
<path opacity="0.7" d="M91.9343 38.748C91.8203 38.7949 91.6962 38.8083 91.5688 38.7849C91.3174 38.7379 91.1129 38.5569 91.0425 38.3088L90.5262 36.5018L90.7106 36.4481L91.2269 38.2552C91.2772 38.4362 91.418 38.5636 91.6024 38.5971C91.7868 38.6307 91.9644 38.5602 92.0784 38.4094L93.5402 36.4381C93.9157 35.9318 94.5325 35.6334 95.1628 35.6569L97.6169 35.7441C97.8047 35.7508 97.9689 35.6535 98.0595 35.4893C98.1466 35.325 98.1366 35.1339 98.0259 34.983L96.6044 32.9815C96.2323 32.4619 96.1418 31.7947 96.363 31.1946L97.2012 28.8914C97.2649 28.7137 97.228 28.5259 97.0973 28.3918C96.9699 28.2577 96.7855 28.2074 96.6044 28.2644L94.2643 29.002C94.0229 29.0758 93.7715 29.1026 93.5167 29.0825L93.5335 28.8914C93.7614 28.9115 93.9894 28.888 94.2073 28.8176L96.5474 28.0834C96.7955 28.0063 97.057 28.0733 97.2347 28.2611C97.4124 28.4455 97.4694 28.7137 97.3822 28.9551L96.5407 31.2617C96.3429 31.8014 96.4267 32.4049 96.7587 32.8709L98.1801 34.8724C98.331 35.0803 98.3478 35.3518 98.2271 35.5798C98.103 35.8078 97.8684 35.9419 97.6102 35.9352L95.1561 35.848C94.5895 35.8279 94.0296 36.0961 93.691 36.552L92.2293 38.5234C92.1522 38.6273 92.0516 38.7044 91.9343 38.748Z" fill="#28519E"/>
<path opacity="0.7" d="M92.1288 28.3947L91.5454 27.9387L91.6628 27.7878L92.2461 28.2471L92.1288 28.3947Z" fill="#28519E"/>
<path d="M84.0766 26.9739L83.0753 26.9391C82.9975 26.9364 82.9233 26.9713 82.8768 27.0347L82.2796 27.8394C82.1634 27.9967 81.9157 27.952 81.8621 27.7634L81.5867 26.7996C81.5653 26.7245 81.5081 26.6655 81.4339 26.6405L80.4844 26.3213C80.2984 26.2587 80.2645 26.0102 80.4272 25.9002L81.2586 25.3406C81.323 25.2968 81.3623 25.2243 81.3632 25.1466L81.3731 24.1444C81.3748 23.9486 81.601 23.8395 81.7557 23.9602L82.5451 24.578C82.6059 24.6262 82.6873 24.6405 82.7615 24.6173L83.7172 24.3169C83.9049 24.2579 84.0784 24.4394 84.0113 24.6236L83.668 25.5659C83.6412 25.6383 83.6519 25.7205 83.6975 25.784L84.2786 26.6002C84.3922 26.7603 84.2733 26.9811 84.0766 26.9739Z" fill="#28519E"/>
<path opacity="0.7" d="M81.644 26.4975C81.6028 26.4654 81.5564 26.4403 81.5072 26.4233L80.8867 26.215C80.8215 26.1936 80.775 26.1373 80.766 26.0693C80.7571 26.0014 80.7866 25.9352 80.8438 25.8968L81.3865 25.5311C81.5134 25.4453 81.5903 25.3022 81.5921 25.1494L81.5984 24.4949C81.5993 24.4261 81.6377 24.3644 81.6994 24.3349C81.762 24.3045 81.8344 24.3126 81.888 24.3555L82.1518 24.5611L82.1205 24.6013L81.8568 24.3948C81.8174 24.3644 81.7665 24.359 81.7218 24.3805C81.6771 24.402 81.6493 24.4449 81.6493 24.4949L81.6431 25.1494C81.6413 25.3192 81.5555 25.4775 81.4151 25.5731L80.8715 25.9388C80.8304 25.9665 80.8098 26.013 80.8161 26.0622C80.8233 26.1122 80.8554 26.1507 80.9028 26.1668L81.5233 26.3751C81.5787 26.3938 81.6297 26.4216 81.6753 26.4573L81.644 26.4975Z" fill="#28519E"/>
<path opacity="0.7" d="M82.2242 27.4836C82.1938 27.4961 82.1607 27.4997 82.1267 27.4934C82.0597 27.4809 82.0051 27.4327 81.9864 27.3665L81.8487 26.8846L81.8979 26.8703L82.0355 27.3522C82.049 27.4005 82.0865 27.4344 82.1357 27.4434C82.1848 27.4523 82.2322 27.4335 82.2626 27.3933L82.6524 26.8676C82.7526 26.7326 82.9171 26.6531 83.0851 26.6593L83.7396 26.6826C83.7896 26.6844 83.8334 26.6584 83.8576 26.6146C83.8808 26.5708 83.8781 26.5199 83.8486 26.4796L83.4696 25.9459C83.3703 25.8073 83.3462 25.6294 83.4052 25.4694L83.6287 24.8552C83.6457 24.8078 83.6358 24.7577 83.601 24.722C83.567 24.6862 83.5178 24.6728 83.4696 24.688L82.8455 24.8847C82.7812 24.9044 82.7141 24.9115 82.6462 24.9061L82.6506 24.8552C82.7114 24.8605 82.7722 24.8543 82.8303 24.8355L83.4544 24.6397C83.5205 24.6192 83.5903 24.637 83.6376 24.6871C83.685 24.7363 83.7002 24.8078 83.677 24.8722L83.4526 25.4873C83.3998 25.6312 83.4222 25.7921 83.5107 25.9164L83.8898 26.4501C83.93 26.5055 83.9345 26.578 83.9023 26.6388C83.8692 26.6996 83.8066 26.7353 83.7378 26.7335L83.0833 26.7103C82.9323 26.7049 82.783 26.7764 82.6927 26.898L82.3029 27.4237C82.2823 27.4514 82.2555 27.472 82.2242 27.4836Z" fill="#28519E"/>
<path opacity="0.7" d="M82.276 24.7226L82.1204 24.601L82.1517 24.5608L82.3073 24.6833L82.276 24.7226Z" fill="#28519E"/>
<path d="M58.1873 25.6409L57.186 25.6061C57.1082 25.6034 57.034 25.6383 56.9875 25.7017L56.3903 26.5064C56.2741 26.6637 56.0264 26.619 55.9728 26.4304L55.6974 25.4666C55.676 25.3915 55.6188 25.3325 55.5446 25.3075L54.5951 24.9883C54.4092 24.9257 54.3752 24.6772 54.5379 24.5672L55.3693 24.0076C55.4337 23.9637 55.473 23.8913 55.4739 23.8136L55.4838 22.8114C55.4856 22.6156 55.7118 22.5065 55.8664 22.6272L56.6558 23.245C56.7166 23.2932 56.798 23.3075 56.8722 23.2843L57.8279 22.9839C58.0157 22.9249 58.1891 23.1064 58.122 23.2905L57.7787 24.2329C57.7519 24.3053 57.7626 24.3875 57.8082 24.451L58.3894 25.2672C58.5029 25.4273 58.384 25.6481 58.1873 25.6409Z" fill="#28519E"/>
<path opacity="0.7" d="M55.7547 25.1645C55.7136 25.1324 55.6671 25.1073 55.6179 25.0903L54.9975 24.882C54.9322 24.8606 54.8857 24.8042 54.8768 24.7363C54.8678 24.6684 54.8973 24.6022 54.9545 24.5638L55.4972 24.1981C55.6242 24.1123 55.701 23.9692 55.7028 23.8164L55.7091 23.1619C55.71 23.0931 55.7484 23.0314 55.8101 23.0019C55.8727 22.9715 55.9451 22.9795 55.9988 23.0225L56.2625 23.2281L56.2312 23.2683L55.9675 23.0618C55.9281 23.0314 55.8772 23.026 55.8325 23.0475C55.7878 23.0689 55.7601 23.1119 55.7601 23.1619L55.7538 23.8164C55.752 23.9862 55.6662 24.1445 55.5258 24.2401L54.9823 24.6058C54.9411 24.6335 54.9206 24.68 54.9268 24.7292C54.934 24.7792 54.9662 24.8177 55.0135 24.8338L55.634 25.0421C55.6894 25.0608 55.7404 25.0885 55.786 25.1243L55.7547 25.1645Z" fill="#28519E"/>
<path opacity="0.7" d="M56.3349 26.1506C56.3045 26.1631 56.2714 26.1667 56.2375 26.1604C56.1704 26.1479 56.1159 26.0996 56.0971 26.0335L55.9594 25.5516L56.0086 25.5373L56.1463 26.0192C56.1597 26.0675 56.1972 26.1014 56.2464 26.1104C56.2956 26.1193 56.3429 26.1005 56.3733 26.0603L56.7631 25.5346C56.8633 25.3996 57.0278 25.3201 57.1958 25.3263L57.8503 25.3496C57.9003 25.3513 57.9441 25.3254 57.9683 25.2816C57.9915 25.2378 57.9888 25.1868 57.9593 25.1466L57.5803 24.6129C57.481 24.4743 57.4569 24.2964 57.5159 24.1364L57.7394 23.5222C57.7564 23.4748 57.7466 23.4247 57.7117 23.389C57.6777 23.3532 57.6286 23.3398 57.5803 23.355L56.9562 23.5517C56.8919 23.5713 56.8248 23.5785 56.7569 23.5731L56.7614 23.5222C56.8221 23.5275 56.8829 23.5213 56.9411 23.5025L57.5651 23.3067C57.6312 23.2861 57.701 23.304 57.7484 23.3541C57.7957 23.4033 57.8109 23.4748 57.7877 23.5392L57.5633 24.1542C57.5105 24.2982 57.5329 24.4591 57.6214 24.5834L58.0005 25.1171C58.0407 25.1725 58.0452 25.245 58.013 25.3058C57.9799 25.3665 57.9173 25.4023 57.8485 25.4005L57.1941 25.3773C57.043 25.3719 56.8937 25.4434 56.8034 25.565L56.4136 26.0907C56.393 26.1184 56.3662 26.139 56.3349 26.1506Z" fill="#28519E"/>
<path opacity="0.7" d="M56.3867 23.3896L56.2311 23.268L56.2624 23.2278L56.418 23.3503L56.3867 23.3896Z" fill="#28519E"/>
<path d="M86.7217 44.1058L85.7204 44.0709C85.6426 44.0682 85.5684 44.1031 85.5219 44.1666L84.9247 44.9712C84.8085 45.1285 84.5608 45.0838 84.5072 44.8952L84.2318 43.9314C84.2104 43.8564 84.1531 43.7973 84.0789 43.7723L83.1295 43.4531C82.9435 43.3906 82.9095 43.142 83.0723 43.0321L83.9037 42.4724C83.9681 42.4286 84.0074 42.3562 84.0083 42.2784L84.0181 41.2762C84.0199 41.0804 84.2461 40.9713 84.4008 41.092L85.1902 41.7098C85.251 41.7581 85.3324 41.7724 85.4066 41.7491L86.3623 41.4487C86.55 41.3897 86.7235 41.5712 86.6564 41.7554L86.3131 42.6977C86.2863 42.7701 86.297 42.8524 86.3426 42.9158L86.9237 43.7321C87.0373 43.8921 86.9184 44.1129 86.7217 44.1058Z" fill="#28519E"/>
<path opacity="0.7" d="M84.2891 43.6294C84.2479 43.5972 84.2014 43.5722 84.1523 43.5552L83.5318 43.3469C83.4666 43.3254 83.4201 43.2691 83.4111 43.2011C83.4022 43.1332 83.4317 43.067 83.4889 43.0286L84.0316 42.6629C84.1585 42.5771 84.2354 42.4341 84.2372 42.2812L84.2435 41.6268C84.2444 41.5579 84.2828 41.4962 84.3445 41.4667C84.4071 41.4363 84.4795 41.4444 84.5331 41.4873L84.7969 41.6929L84.7656 41.7332L84.5018 41.5266C84.4625 41.4962 84.4115 41.4909 84.3668 41.5123C84.3221 41.5338 84.2944 41.5767 84.2944 41.6268L84.2882 42.2812C84.2864 42.4511 84.2005 42.6093 84.0602 42.705L83.5166 43.0706C83.4755 43.0983 83.4549 43.1448 83.4612 43.194C83.4683 43.2441 83.5005 43.2825 83.5479 43.2986L84.1684 43.5069C84.2238 43.5257 84.2747 43.5534 84.3203 43.5892L84.2891 43.6294Z" fill="#28519E"/>
<path opacity="0.7" d="M84.8693 44.6154C84.8389 44.628 84.8058 44.6315 84.7718 44.6253C84.7048 44.6128 84.6502 44.5645 84.6315 44.4983L84.4938 44.0165L84.5429 44.0021L84.6806 44.484C84.694 44.5323 84.7316 44.5663 84.7808 44.5752C84.8299 44.5842 84.8773 44.5654 84.9077 44.5252L85.2975 43.9995C85.3976 43.8645 85.5621 43.7849 85.7302 43.7912L86.3846 43.8144C86.4347 43.8162 86.4785 43.7903 86.5026 43.7465C86.5259 43.7026 86.5232 43.6517 86.4937 43.6115L86.1146 43.0777C86.0154 42.9392 85.9913 42.7612 86.0503 42.6012L86.2738 41.987C86.2908 41.9396 86.2809 41.8896 86.2461 41.8538C86.2121 41.818 86.1629 41.8046 86.1146 41.8198L85.4906 42.0165C85.4262 42.0362 85.3592 42.0433 85.2912 42.038L85.2957 41.987C85.3565 41.9924 85.4173 41.9861 85.4754 41.9673L86.0994 41.7716C86.1656 41.751 86.2353 41.7689 86.2827 41.8189C86.3301 41.8681 86.3453 41.9396 86.3221 42.004L86.0977 42.6191C86.0449 42.763 86.0673 42.924 86.1558 43.0482L86.5348 43.582C86.5751 43.6374 86.5795 43.7098 86.5473 43.7706C86.5143 43.8314 86.4517 43.8671 86.3828 43.8654L85.7284 43.8421C85.5773 43.8368 85.428 43.9083 85.3377 44.0299L84.9479 44.5555C84.9274 44.5833 84.9006 44.6038 84.8693 44.6154Z" fill="#28519E"/>
<path opacity="0.7" d="M84.9211 41.8544L84.7655 41.7329L84.7968 41.6926L84.9524 41.8151L84.9211 41.8544Z" fill="#28519E"/>
<path d="M48.1226 46.1185L47.1213 46.0836C47.0435 46.0809 46.9693 46.1158 46.9228 46.1793L46.3256 46.9839C46.2094 47.1412 45.9618 47.0965 45.9081 46.9079L45.6327 45.9441C45.6113 45.869 45.5541 45.81 45.4799 45.785L44.5304 45.4658C44.3445 45.4033 44.3105 45.1547 44.4732 45.0448L45.3046 44.4851C45.369 44.4413 45.4083 44.3689 45.4092 44.2911L45.4191 43.2889C45.4209 43.0931 45.6471 42.984 45.8017 43.1047L46.5911 43.7225C46.6519 43.7708 46.7333 43.7851 46.8075 43.7618L47.7632 43.4614C47.951 43.4024 48.1244 43.5839 48.0573 43.7681L47.714 44.7104C47.6872 44.7828 47.6979 44.8651 47.7435 44.9285L48.3247 45.7448C48.4382 45.9048 48.3193 46.1256 48.1226 46.1185Z" fill="#28519E"/>
<path opacity="0.7" d="M45.69 45.6421C45.6489 45.6099 45.6024 45.5849 45.5532 45.5679L44.9328 45.3596C44.8675 45.3381 44.821 45.2818 44.8121 45.2138C44.8031 45.1459 44.8326 45.0797 44.8898 45.0413L45.4325 44.6756C45.5595 44.5898 45.6364 44.4468 45.6381 44.2939L45.6444 43.6395C45.6453 43.5706 45.6837 43.5089 45.7454 43.4794C45.808 43.449 45.8804 43.4571 45.9341 43.5L46.1978 43.7056L46.1665 43.7459L45.9028 43.5393C45.8634 43.5089 45.8125 43.5036 45.7678 43.525C45.7231 43.5465 45.6954 43.5894 45.6954 43.6395L45.6891 44.2939C45.6873 44.4638 45.6015 44.622 45.4611 44.7177L44.9176 45.0833C44.8764 45.111 44.8559 45.1575 44.8621 45.2067C44.8693 45.2568 44.9015 45.2952 44.9488 45.3113L45.5693 45.5196C45.6247 45.5384 45.6757 45.5661 45.7213 45.6018L45.69 45.6421Z" fill="#28519E"/>
<path opacity="0.7" d="M46.2702 46.6281C46.2398 46.6407 46.2067 46.6442 46.1728 46.638C46.1057 46.6255 46.0512 46.5772 46.0324 46.511L45.8947 46.0291L45.9439 46.0148L46.0816 46.4967C46.095 46.545 46.1325 46.579 46.1817 46.5879C46.2309 46.5969 46.2783 46.5781 46.3086 46.5378L46.6984 46.0122C46.7986 45.8772 46.9631 45.7976 47.1312 45.8039L47.7856 45.8271C47.8356 45.8289 47.8794 45.803 47.9036 45.7592C47.9268 45.7153 47.9241 45.6644 47.8946 45.6242L47.5156 45.0904C47.4163 44.9518 47.3922 44.7739 47.4512 44.6139L47.6747 43.9997C47.6917 43.9523 47.6819 43.9023 47.647 43.8665C47.613 43.8307 47.5639 43.8173 47.5156 43.8325L46.8916 44.0292C46.8272 44.0489 46.7601 44.056 46.6922 44.0507L46.6967 43.9997C46.7574 44.0051 46.8182 43.9988 46.8764 43.98L47.5004 43.7843C47.5665 43.7637 47.6363 43.7816 47.6837 43.8316C47.731 43.8808 47.7462 43.9523 47.723 44.0167L47.4986 44.6318C47.4458 44.7757 47.4682 44.9366 47.5567 45.0609L47.9358 45.5947C47.976 45.6501 47.9805 45.7225 47.9483 45.7833C47.9152 45.8441 47.8526 45.8798 47.7838 45.8781L47.1294 45.8548C46.9783 45.8494 46.829 45.921 46.7387 46.0426L46.3489 46.5682C46.3283 46.596 46.3015 46.6165 46.2702 46.6281Z" fill="#28519E"/>
<path opacity="0.7" d="M46.322 43.8671L46.1664 43.7456L46.1977 43.7053L46.3533 43.8278L46.322 43.8671Z" fill="#28519E"/>
<path d="M97.535 73.2565C97.535 70.7293 96.4473 69.0895 95.4461 68.1154C95.6788 67.9585 95.9061 67.7853 96.1226 67.5905C97.5404 66.3566 98.2872 64.6898 98.2872 62.7795C98.2872 58.7857 94.8671 56.5777 92.5076 56.5777C92.4102 56.5777 92.3164 56.5814 92.2262 56.5886H72.6305C74.3893 53.4877 77.3332 47.4699 77.9556 41.095C78.1721 39.7962 78.0692 37.3663 77.6958 34.8715C77.4415 33.1939 76.857 30.1526 75.7639 28.4533C75.1307 27.2303 74.0267 26.2616 72.5764 25.65C71.1206 25.0439 69.6487 24.9141 68.6692 24.9141C67.7762 24.9141 64.816 25.0439 64.0963 26.7486C63.685 27.6903 63.6471 28.87 63.6038 30.3582C63.5389 32.788 63.4415 36.1216 61.6827 40.3914C59.4423 45.8356 54.1388 51.5774 51.2761 54.5267C50.6321 53.6663 49.566 52.6002 48.1427 52.4595C47.8072 52.427 46.8493 52.3837 42.3793 52.3837C36.8215 52.3837 29.1098 52.4541 29.0341 52.4541C28.8609 52.4541 28.6877 52.4865 28.5254 52.5515C27.9788 52.7733 25.2622 53.9747 25.2622 56.2368V95.7366C25.1647 96.3968 24.9591 98.502 26.0523 99.8928C26.6042 100.591 27.3835 100.997 28.3143 101.056C29.0611 101.11 31.0202 101.132 34.3051 101.132C39.7708 101.132 46.99 101.062 47.0604 101.062C47.2498 101.062 47.4284 101.024 47.6015 100.948C47.9046 100.818 50.2857 99.7521 51.4655 97.8634H86.5656C87.2745 97.8634 89.0982 97.766 90.7325 96.8676C92.5346 95.8827 93.525 94.2159 93.525 92.1703C93.525 90.7254 93.092 89.5944 92.4805 88.7339C92.8269 88.5986 93.1786 88.4254 93.5196 88.2198C94.7372 87.4676 96.1929 85.9956 96.1929 83.2086C96.1929 80.9194 95.3758 79.415 94.5207 78.4625C96.063 77.5967 97.535 76.0165 97.535 73.2565Z" fill="#231F20"/>
<path d="M89.6556 64.3543C91.0897 64.1919 94.0985 62.7362 94.0985 59.2943C94.0985 55.8471 90.9327 54.3372 89.4986 54.4942H67.3595C67.3595 54.4942 72.9389 46.2143 73.7777 37.4204C74.1836 35.1583 73.361 28.0582 71.7646 25.6662C69.903 21.943 63.1113 22.5004 62.5918 23.81C61.7151 25.7582 63.0626 30.4447 60.1836 37.4366C57.3046 44.4285 49.7229 51.7451 47.9208 53.6013C47.9154 53.0493 47.9153 52.7462 47.9153 52.7462C47.9153 52.7462 46.8005 50.5166 45.2095 50.3597C43.6239 50.2027 26.2524 50.3597 26.2524 50.3597C26.2524 50.3597 23.8659 51.3121 23.8659 52.7462V92.3596C23.8659 92.3596 23.2327 96.0179 25.6193 96.1749C28.0004 96.3372 44.2571 96.1749 44.2571 96.1749C44.2571 96.1749 47.1415 94.941 47.8071 92.9766H83.7731C85.678 92.9766 89.3363 92.2189 89.3363 88.6851C89.3363 85.1513 86.1596 84.3883 86.1596 84.3883C87.5883 84.5506 92.0042 84.0798 92.0042 79.7234C92.0042 75.3616 88.5462 74.5336 88.5462 74.5336C88.8655 74.5336 93.3517 74.0357 93.3517 69.7659C93.3517 65.5015 89.6556 64.3543 89.6556 64.3543Z" fill="#FEFEFE"/>
<path d="M47.6881 52.351C47.2876 51.7016 46.3784 50.4786 45.2095 50.3595C43.6239 50.2026 26.2524 50.3595 26.2524 50.3595C26.2524 50.3595 23.8659 51.312 23.8659 52.7461V92.3595C23.8659 92.3595 23.2327 96.0178 25.6193 96.1747C28.0004 96.3371 44.2571 96.1747 44.2571 96.1747C44.2571 96.1747 46.8601 95.0599 47.6881 93.2687V52.351Z" fill="#FFB81C"/>
<path fill-rule="evenodd" clip-rule="evenodd" d="M31.5126 97.6416C28.2277 97.6416 26.2687 97.6199 25.5273 97.5712C24.5965 97.5063 23.8118 97.1058 23.2598 96.4023C22.1667 95.0115 22.3723 92.9118 22.4697 92.2515V52.7463C22.4697 50.4843 25.1918 49.2829 25.733 49.0664C25.8953 49.0015 26.0685 48.9636 26.2417 48.9636C26.3174 48.9636 34.0291 48.8932 39.5868 48.8932C44.0569 48.8932 45.0147 48.9365 45.3503 48.969C46.7735 49.1151 47.8396 50.1812 48.4836 51.0362C51.3518 48.0869 56.6498 42.3451 58.8903 36.9064C60.6491 32.6366 60.7465 29.303 60.8168 26.8677C60.8601 25.3795 60.8926 24.2052 61.3039 23.2581C62.0236 21.5589 64.9838 21.4236 65.8767 21.4236C66.8563 21.4236 68.3282 21.5535 69.784 22.165C71.2343 22.7711 72.3383 23.7398 72.9769 24.9628C74.07 26.6621 74.6491 29.7034 74.9034 31.3811C75.2768 33.8813 75.3796 36.3057 75.1632 37.6045C74.5408 43.9794 71.5969 49.9972 69.8381 53.0981H89.4337C89.5239 53.0909 89.6177 53.0873 89.7151 53.0873C92.0746 53.0873 95.4948 55.2952 95.4948 59.2945C95.4948 61.2048 94.748 62.8662 93.3356 64.1054C93.1137 64.2948 92.8864 64.4734 92.6537 64.625C93.6603 65.5991 94.748 67.2388 94.748 69.766C94.748 72.526 93.2706 74.1062 91.7337 74.9721C92.5833 75.9245 93.4005 77.4344 93.4005 79.7235C93.4005 82.5051 91.9448 83.9825 90.7271 84.7293C90.3862 84.9404 90.0344 85.1081 89.6881 85.2434C90.2996 86.1039 90.7325 87.2349 90.7325 88.6852C90.7325 90.7254 89.7422 92.3922 87.9401 93.3826C86.3058 94.2755 84.4821 94.3729 83.7731 94.3729H48.673C47.4933 96.2616 45.1122 97.3277 44.8091 97.4576C44.6359 97.5333 44.4573 97.5712 44.2734 97.5712C44.1976 97.5712 36.9784 97.6416 31.5126 97.6416ZM25.2622 52.7572V92.3598C25.2622 92.4391 25.2549 92.5185 25.2405 92.5979C25.1377 93.2256 25.1539 94.2971 25.457 94.6814C25.4894 94.7247 25.5327 94.7734 25.7113 94.7842C26.1713 94.8167 27.5567 94.8491 31.5126 94.8491C36.329 94.8491 42.5146 94.795 43.9432 94.7842C44.6792 94.4162 46.1512 93.5179 46.4813 92.5329C46.6761 91.9647 47.2065 91.5805 47.8072 91.5805H83.7731C84.4712 91.5805 87.9455 91.4398 87.9455 88.6852C87.9455 86.3961 86.0839 85.8171 85.8296 85.7467C85.1044 85.5898 84.6498 84.8917 84.7689 84.1611C84.8879 83.4305 85.5752 82.9218 86.3112 83.003C86.3816 83.0084 86.5006 83.0192 86.6738 83.0192C87.0256 83.0192 88.254 82.9705 89.266 82.3482C90.1697 81.7962 90.6081 80.9357 90.6081 79.7235C90.6081 76.6605 88.5029 75.9678 88.2107 75.8866C87.518 75.7351 87.0634 75.0911 87.1392 74.3822C87.215 73.6841 87.8102 73.1537 88.5083 73.1375C88.5949 73.1267 89.5582 73.0293 90.462 72.4881C91.4685 71.8874 91.9556 70.9999 91.9556 69.766C91.9556 68.451 91.5172 67.3741 90.6514 66.5732C89.9911 65.9616 89.3039 65.7073 89.2389 65.6856C88.6003 65.4962 88.1999 64.8901 88.254 64.2299C88.3135 63.5643 88.8439 63.0393 89.5041 62.969C89.9966 62.9095 90.8299 62.5848 91.4956 62.0057C92.2965 61.3022 92.7024 60.3876 92.7024 59.2945C92.7024 56.8917 90.5648 55.8797 89.7151 55.8797C89.6863 55.8797 89.6664 55.8797 89.6556 55.8797C89.6015 55.8869 89.5492 55.8905 89.4987 55.8905H67.3595C66.84 55.8905 66.3692 55.6037 66.1257 55.1491C65.8821 54.6945 65.9146 54.1425 66.2014 53.715C66.2556 53.6338 71.5969 45.6083 72.387 37.2852C72.3906 37.2491 72.396 37.2112 72.4032 37.1715C72.5493 36.376 72.5277 34.3521 72.1435 31.7978C71.7755 29.3679 71.1856 27.3115 70.6065 26.4402C70.5741 26.3933 70.5452 26.3428 70.52 26.2887C69.7515 24.7626 67.6193 24.216 65.8767 24.216C64.8106 24.216 64.0909 24.4108 63.8041 24.5461C63.658 25.0386 63.6363 25.9315 63.6038 26.9489C63.5335 29.4491 63.4252 33.2264 61.4716 37.9671C58.7333 44.618 52.0175 51.4313 49.4902 53.9964C49.2683 54.2237 49.0735 54.4185 48.9274 54.5755C48.5323 54.9814 47.9316 55.1112 47.4067 54.9002C46.8764 54.6891 46.53 54.1804 46.5246 53.6122V53.1143C46.1566 52.5136 45.5289 51.7939 45.0743 51.7506C44.8362 51.7235 43.8079 51.6856 39.5868 51.6856C34.646 51.6856 28.0059 51.7398 26.5501 51.7506C25.9116 52.0591 25.3217 52.5353 25.2622 52.7572Z" fill="#231F20"/>
<path d="M47.9208 94.373C47.1524 94.373 46.5246 93.7507 46.5246 92.9768V53.6015C46.5246 52.833 47.1524 52.2107 47.9208 52.2107C48.6947 52.2107 49.317 52.833 49.317 53.6015V92.9768C49.317 93.7507 48.6947 94.373 47.9208 94.373Z" fill="#231F20"/>
</svg>
