<svg width="148" height="137" viewBox="0 0 148 137" fill="none" xmlns="http://www.w3.org/2000/svg">
<path d="M96.6217 8.68652H21.9935C10.0544 8.68652 0.391113 18.3498 0.391113 30.2889C0.391113 50.3508 0.391113 84.8552 0.391113 104.9C0.391113 116.839 10.0544 126.502 21.9935 126.502C42.0554 126.502 76.5598 126.502 96.6217 126.502C108.543 126.502 118.224 116.839 118.224 104.9C118.224 84.8552 118.224 50.3508 118.224 30.2889C118.224 18.3498 108.543 8.68652 96.6217 8.68652Z" fill="white"/>
<path d="M108.666 12.345C110.977 15.7937 112.325 19.9251 112.325 24.3891C112.325 44.451 112.325 78.9554 112.325 99.0173C112.325 110.939 102.661 120.62 90.7221 120.62C70.6603 120.62 36.1559 120.62 16.094 120.62C11.6475 120.62 7.49855 119.272 4.04987 116.943C7.9362 122.72 14.5185 126.502 21.9935 126.502C42.0554 126.502 76.5598 126.502 96.6217 126.502C108.543 126.502 118.224 116.838 118.224 104.899C118.224 84.8549 118.224 50.3505 118.224 30.2886C118.224 22.8136 114.425 16.2313 108.666 12.345Z" fill="#CFE1EF"/>
<path d="M0.391113 36.171H118.224V30.2889C118.224 18.3498 108.543 8.68652 96.6217 8.68652H21.9935C10.0544 8.68652 0.391113 18.3498 0.391113 30.2889V36.171Z" fill="#28519E"/>
<path d="M33.7751 6.72573V20.468C33.7751 23.7066 36.4185 26.3499 39.6746 26.3499C42.9132 26.3499 45.5566 23.7066 45.5566 20.468V6.72573C45.5566 3.46961 42.9132 0.826172 39.6746 0.826172C36.4185 0.826172 33.7751 3.46961 33.7751 6.72573ZM73.0586 6.72573V20.468C73.0586 23.7066 75.6845 26.3499 78.9406 26.3499C82.1967 26.3499 84.8401 23.7066 84.8401 20.468V6.72573C84.8401 3.46961 82.1967 0.826172 78.9406 0.826172C75.6845 0.826172 73.0586 3.46961 73.0586 6.72573Z" fill="#FFB81C"/>
<path d="M112.325 36.1707H118.224V30.2886C118.224 22.8136 114.425 16.2313 108.666 12.345C110.977 15.7937 112.325 19.9251 112.325 24.3891V36.1707Z" fill="#0D3787"/>
<path d="M144.693 102.183C144.693 84.5065 130.345 70.1423 112.665 70.1423C94.9725 70.1423 80.6237 84.5058 80.6237 102.183C80.6237 119.863 94.974 134.211 112.665 134.211C130.343 134.211 144.693 119.862 144.693 102.183Z" fill="#28519E" stroke="#0D273A" stroke-width="5"/>
<path d="M115.21 88.3012C114.694 87.3832 113.715 86.8149 112.657 86.8149C111.608 86.8149 110.628 87.3832 110.104 88.3012L106.371 94.8319L99.0008 96.3619C97.9691 96.5804 97.1298 97.3323 96.8064 98.3377C96.4741 99.3431 96.7102 100.445 97.4183 101.223L102.48 106.792L101.667 114.275C101.554 115.325 102.008 116.356 102.856 116.977C103.713 117.598 104.832 117.711 105.794 117.283L112.657 114.188L119.52 117.283C120.481 117.711 121.609 117.598 122.457 116.977C123.314 116.356 123.769 115.325 123.655 114.275L122.842 106.792L127.895 101.223C128.603 100.445 128.839 99.3431 128.516 98.3377C128.192 97.3323 127.353 96.5804 126.321 96.3619L118.951 94.8319L115.21 88.3012Z" fill="#FFB81C"/>
</svg>
