<svg width="32" height="32" viewBox="0 0 32 32" fill="none" xmlns="http://www.w3.org/2000/svg">
<rect width="32" height="32" rx="8" fill="#E3F3FC"/>
<path fill-rule="evenodd" clip-rule="evenodd" d="M21.3581 20.8299L23.5347 25.4252L20.9011 25.1915L19.225 27.2141L17.5098 22.4318C17.9716 22.1838 18.3688 21.8137 18.7073 21.3367C18.9646 20.9746 19.3606 20.8107 19.798 20.8849C20.3516 20.9786 20.8732 20.9651 21.3581 20.8299ZM13.2925 21.3367C13.0353 20.9746 12.6393 20.8107 12.2014 20.8849C11.6423 20.9794 11.1155 20.9647 10.6262 20.8259L8.45438 25.4116L11.088 25.1779L12.7641 27.2006L14.477 22.425C14.0203 22.177 13.6279 21.8089 13.2925 21.3367ZM7.52759 13.2584C7.52759 12.4429 7.88969 11.8786 8.53733 11.4184C9.23402 10.9235 9.56462 10.1251 9.42185 9.28243C9.28906 8.4988 9.43222 7.84399 10.0089 7.26733C10.5855 6.69068 11.2403 6.54751 12.024 6.68031C12.8666 6.82308 13.665 6.49248 14.1599 5.79539C14.6201 5.14735 15.1844 4.78564 15.9999 4.78564C16.8155 4.78564 17.3798 5.14775 17.84 5.79539C18.3349 6.49208 19.1333 6.82268 19.9759 6.67991C20.7595 6.54711 21.4143 6.69028 21.991 7.26693C22.5677 7.84359 22.7108 8.4984 22.578 9.28203C22.4353 10.1247 22.7659 10.9231 23.4625 11.418C24.1106 11.8782 24.4723 12.4425 24.4723 13.258C24.4723 14.0735 24.1102 14.6378 23.4625 15.098C22.7659 15.5929 22.4353 16.3913 22.578 17.234C22.7108 18.0176 22.5677 18.6724 21.991 19.2491C21.4143 19.8257 20.7595 19.9689 19.9759 19.8361C19.1333 19.6933 18.3349 20.0239 17.84 20.721C17.3798 21.369 16.8155 21.7307 15.9999 21.7307C15.1844 21.7307 14.6201 21.3686 14.1599 20.721C13.665 20.0243 12.8666 19.6937 12.024 19.8365C11.2403 19.9693 10.5855 19.8261 10.0089 19.2495C9.43222 18.6728 9.28906 18.018 9.42185 17.2344C9.56462 16.3917 9.23402 15.5933 8.53733 15.0984C7.88929 14.6382 7.52759 14.0739 7.52759 13.2584ZM11.4409 13.2584C11.4409 15.7696 13.4891 17.8174 15.9999 17.8174C18.5107 17.8174 20.5589 15.7692 20.5589 13.2584C20.5589 10.7476 18.5111 8.6994 15.9999 8.6994C13.4887 8.6994 11.4409 10.7476 11.4409 13.2584ZM14.721 14.7666C14.804 14.9098 14.9487 15.0067 15.1122 15.0278C15.1362 15.031 15.1589 15.0326 15.182 15.0326C15.322 15.0326 15.458 14.9772 15.5581 14.8767L18.0418 12.3926C18.2499 12.1848 18.2499 11.8479 18.0418 11.6405C17.8344 11.4327 17.4978 11.4327 17.2896 11.6405L15.2957 13.6349L14.7936 12.7659C14.6472 12.5119 14.3218 12.4241 14.067 12.5713C13.8126 12.718 13.726 13.0434 13.8724 13.2979L14.7206 14.7674L14.721 14.7666Z" fill="#28519E"/>
</svg>
