<svg width="20" height="20" viewBox="0 0 20 20" fill="none" xmlns="http://www.w3.org/2000/svg">
<path d="M10.1602 8.97996C9.76015 9.17996 9.30015 9.29996 8.82015 9.29996C8.32015 9.29996 7.88015 9.17996 7.46015 8.95996C6.68015 9.19996 6.10015 9.85996 5.98015 10.72L5.82015 11.94C5.78015 12.2 6.00015 12.44 6.26015 12.44H11.3402C11.6002 12.44 11.8002 12.22 11.7802 11.94L11.6402 10.72C11.5202 9.87996 10.9401 9.21996 10.1602 8.97996Z" fill="#002C3F"/>
<path d="M8.81984 8.34001C9.91337 8.34001 10.7998 7.45353 10.7998 6.36C10.7998 5.26648 9.91337 4.38 8.81984 4.38C7.72632 4.38 6.83984 5.26648 6.83984 6.36C6.83984 7.45353 7.72632 8.34001 8.81984 8.34001Z" fill="#002C3F"/>
<path d="M19.2 17.72L15.36 13.88C16.46 12.48 17.1 10.72 17.1 8.8C17.12 4.22 13.38 0.5 8.8 0.5C4.22 0.5 0.5 4.22 0.5 8.8C0.5 13.38 4.22 17.12 8.8 17.12C10.72 17.12 12.48 16.46 13.88 15.38L17.72 19.2C17.92 19.4 18.2 19.5 18.46 19.5C18.72 19.5 19 19.4 19.2 19.2C19.6 18.78 19.6 18.12 19.2 17.72ZM2.6 8.8C2.6 5.38 5.38 2.6 8.8 2.6C12.22 2.6 15.02 5.38 15.02 8.8C15.02 12.22 12.24 15.02 8.8 15.02C5.36 15.02 2.6 12.24 2.6 8.8Z" fill="#002C3F"/>
</svg>
