<svg width="18" height="18" viewBox="0 0 18 18" fill="none" xmlns="http://www.w3.org/2000/svg">
<path id="Vector" d="M9.07697 0.57666C7.40819 0.57666 5.77689 1.07151 4.38935 1.99864C3.00181 2.92576 1.92035 4.24352 1.28174 5.78527C0.643121 7.32702 0.476031 9.02352 0.801593 10.6602C1.12716 12.2969 1.93075 13.8004 3.11076 14.9804C4.29076 16.1604 5.79418 16.964 7.43089 17.2895C9.06761 17.6151 10.7641 17.448 12.3059 16.8094C13.8476 16.1708 15.1654 15.0893 16.0925 13.7018C17.0196 12.3142 17.5145 10.6829 17.5145 9.01416C17.512 6.77716 16.6222 4.63249 15.0404 3.05069C13.4586 1.46889 11.314 0.579142 9.07697 0.57666ZM15.6395 9.01416C15.6408 10.4308 15.1815 11.8095 14.3309 12.9423L5.14884 3.76025C6.12413 3.03151 7.2829 2.58843 8.49559 2.48057C9.70828 2.37272 10.9271 2.60433 12.0157 3.14952C13.1042 3.6947 14.0197 4.53196 14.6597 5.56767C15.2996 6.60337 15.6389 7.79668 15.6395 9.01416ZM2.51447 9.01416C2.51311 7.59752 2.9724 6.21884 3.82306 5.08604L13.0051 14.2681C12.0298 14.9968 10.871 15.4399 9.65834 15.5477C8.44566 15.6556 7.22687 15.424 6.13828 14.8788C5.0497 14.3336 4.13423 13.4964 3.49426 12.4607C2.85429 11.425 2.51505 10.2316 2.51447 9.01416Z" fill="#CC1A07"/>
</svg>
