<svg xmlns="http://www.w3.org/2000/svg" width="40" height="40" viewBox="0 0 40 40" fill="none">
<circle cx="20" cy="20" r="19.5" fill="#CC1A07" stroke="#E03E2D"/>
<path d="M27.5469 25.954C27.7582 26.1653 27.8769 26.452 27.8769 26.7509C27.8769 27.0497 27.7582 27.3364 27.5469 27.5477C27.3355 27.7591 27.0489 27.8778 26.75 27.8778C26.4511 27.8778 26.1645 27.7591 25.9531 27.5477L20.0009 21.5937L14.0469 27.5459C13.8355 27.7572 13.5489 27.8759 13.25 27.8759C12.9511 27.8759 12.6645 27.7572 12.4531 27.5459C12.2418 27.3345 12.123 27.0479 12.123 26.749C12.123 26.4501 12.2418 26.1635 12.4531 25.9521L18.4072 19.9999L12.455 14.0459C12.2437 13.8345 12.1249 13.5479 12.1249 13.249C12.1249 12.9501 12.2437 12.6635 12.455 12.4521C12.6663 12.2408 12.953 12.122 13.2519 12.122C13.5508 12.122 13.8374 12.2408 14.0487 12.4521L20.0009 18.4062L25.955 12.4512C26.1663 12.2398 26.453 12.1211 26.7519 12.1211C27.0508 12.1211 27.3374 12.2398 27.5487 12.4512C27.7601 12.6625 27.8788 12.9492 27.8788 13.248C27.8788 13.5469 27.7601 13.8336 27.5487 14.0449L21.5947 19.9999L27.5469 25.954Z" fill="white"/>
</svg>