<svg width="24" height="24" viewBox="0 0 24 24" fill="none" xmlns="http://www.w3.org/2000/svg">
<path fill-rule="evenodd" clip-rule="evenodd" d="M11.2527 2.60878C16.6868 2.18179 21.4211 6.45336 21.4211 12C21.4211 17.5466 16.6868 21.8184 11.2527 21.3914C11.2323 21.3897 11.2169 21.3726 11.2169 21.3522V19.7618C11.2169 19.738 11.2357 19.7201 11.2595 19.7226C15.7672 20.1496 19.7575 16.6279 19.7575 12.0001C19.7575 7.37223 15.7672 3.85055 11.2595 4.27754C11.2365 4.27924 11.2169 4.26134 11.2169 4.23833V2.64798C11.2169 2.62753 11.2323 2.61048 11.2527 2.60878ZM7.702 20.3854C8.14261 20.6121 8.6037 20.8039 9.08182 20.9598C9.10142 20.9658 9.12273 20.9564 9.1304 20.9377L9.74148 19.4684C9.75001 19.4462 9.73893 19.4223 9.71677 19.4155C9.24035 19.2681 8.78269 19.0772 8.34973 18.8462C8.32927 18.8351 8.3037 18.8445 8.29518 18.8658L7.6841 20.3351C7.67558 20.3547 7.6841 20.376 7.702 20.3854ZM5.94114 19.1667C5.92665 19.1811 5.90364 19.182 5.88829 19.1684C5.50818 18.8445 5.15534 18.4917 4.83147 18.1115C4.81784 18.0962 4.81869 18.0732 4.83318 18.0587L5.95817 16.9337C5.97436 16.9167 6.00163 16.9184 6.01612 16.9363C6.33146 17.3181 6.6826 17.6684 7.06357 17.9837C7.08147 17.9982 7.08232 18.0255 7.06612 18.0417L5.94114 19.1667ZM3.0307 14.8909C3.18498 15.369 3.37589 15.831 3.60088 16.2724C3.61025 16.2903 3.6324 16.298 3.65115 16.2903L5.12302 15.6835C5.14433 15.675 5.15371 15.6494 5.14263 15.629C4.91253 15.196 4.72246 14.7375 4.57758 14.2602C4.57076 14.2381 4.54604 14.227 4.52474 14.2355L3.05286 14.8423C3.03411 14.8509 3.02474 14.8713 3.0307 14.8909ZM2.60883 11.2526C2.56877 11.7563 2.56962 12.2438 2.60883 12.7475C2.61053 12.7679 2.62758 12.7833 2.64803 12.7833H4.23838C4.26139 12.7833 4.28014 12.7637 4.27758 12.7407C4.23071 12.2472 4.23071 11.7529 4.27758 11.2594C4.27929 11.2364 4.26139 11.2168 4.23838 11.2168H2.64803C2.62758 11.2168 2.61053 11.2321 2.60883 11.2526ZM3.61451 7.70199C3.38782 8.14261 3.19605 8.60369 3.04008 9.08182C3.03412 9.10142 3.04348 9.12272 3.06223 9.13039L4.53156 9.74148C4.55372 9.75 4.57758 9.73892 4.5844 9.71676C4.73185 9.24034 4.92276 8.78268 5.15372 8.34972C5.1648 8.32927 5.15543 8.3037 5.13412 8.29518L3.6648 7.68409C3.64519 7.67557 3.62389 7.68409 3.61451 7.70199ZM4.83326 5.94113C4.81877 5.92664 4.81792 5.90363 4.83155 5.88829C5.15542 5.50817 5.50826 5.15534 5.88837 4.83147C5.90371 4.81783 5.92673 4.81868 5.94121 4.83317L7.0662 5.95816C7.08325 5.97435 7.08154 6.00163 7.06365 6.01612C6.68183 6.33145 6.33154 6.6826 6.0162 7.06356C6.00171 7.08146 5.97444 7.08231 5.95825 7.06612L4.83326 5.94113ZM9.10901 3.03157C8.63088 3.18585 8.16895 3.37675 7.72748 3.60174C7.70958 3.61027 7.70191 3.63241 7.70958 3.65201L8.31639 5.12389C8.32491 5.1452 8.35048 5.15457 8.37094 5.14349C8.80388 4.9134 9.26241 4.72333 9.73968 4.57845C9.76184 4.57163 9.77292 4.54691 9.76439 4.5256L9.15759 3.05373C9.14906 3.03498 9.12861 3.0256 9.10901 3.03157Z" fill="#343435"/>
<path d="M15.5014 8.83433C15.29 8.65932 14.9736 8.68894 14.7986 8.9003L11.1085 13.3645C11.0856 13.3914 11.0465 13.3941 11.0196 13.3712L9.02175 11.6413C8.81442 11.4609 8.49806 11.4838 8.31764 11.6924L7.63776 12.4773C7.45735 12.6846 7.48024 13.001 7.68891 13.1814L11.2618 16.2738C11.2888 16.2967 11.3278 16.294 11.3507 16.2671L16.3684 10.1996C16.5434 9.98823 16.5138 9.67187 16.3024 9.49683L15.5014 8.83433Z" fill="#343435"/>
</svg>
