<svg xmlns="http://www.w3.org/2000/svg" width="20" height="20" viewBox="0 0 20 20" fill="none">
<g clip-path="url(#clip0_3353_2744)">
<path d="M13.7781 10.2549C13.6368 10.1143 13.6368 9.88557 13.7781 9.74495L14.3793 9.1462C14.7337 8.7937 14.8062 8.24682 14.5562 7.8137L14.1712 7.14682C13.9212 6.7137 13.4112 6.5037 12.9287 6.6337L12.1093 6.85495C11.9168 6.90682 11.7187 6.79245 11.6675 6.59995L11.4493 5.77995C11.3212 5.29682 10.8837 4.96057 10.3837 4.96057H9.6137C9.1137 4.96057 8.67683 5.29682 8.54808 5.77995L8.32995 6.59995C8.2787 6.79245 8.08058 6.90682 7.88808 6.85495L7.0687 6.6337C6.5862 6.50307 6.0762 6.7137 5.8262 7.14682L5.4437 7.8137C5.1937 8.24682 5.2662 8.7937 5.62058 9.1462L6.22183 9.74495C6.36308 9.88557 6.36308 10.1143 6.22183 10.2549L5.62058 10.8537C5.2662 11.2062 5.1937 11.7531 5.4437 12.1862L5.8287 12.8531C6.0787 13.2862 6.5887 13.4962 7.0712 13.3662L7.89058 13.1449C8.08308 13.0931 8.2812 13.2074 8.33245 13.3999L8.55058 14.2199C8.6787 14.7031 9.1162 15.0393 9.6162 15.0393H10.3862C10.8862 15.0393 11.3231 14.7031 11.4518 14.2199L11.67 13.3999C11.7212 13.2074 11.9193 13.0931 12.1118 13.1449L12.9312 13.3662C13.4137 13.4968 13.9237 13.2862 14.1737 12.8531L14.5587 12.1862C14.8087 11.7531 14.7362 11.2062 14.3818 10.8537L13.7781 10.2549ZM9.99995 11.4493C9.19933 11.4493 8.55058 10.8006 8.55058 9.99995C8.55058 9.19932 9.19933 8.55057 9.99995 8.55057C10.8006 8.55057 11.4493 9.19932 11.4493 9.99995C11.4493 10.8006 10.8006 11.4493 9.99995 11.4493Z" fill="#343435"/>
<path d="M16.6562 3.48629C16.4381 3.26441 16.0819 3.26129 15.8612 3.47879C15.6394 3.69629 15.6362 4.05254 15.8537 4.27379C17.3587 5.80691 18.1875 7.84004 18.1875 10C18.1875 14.5144 14.5144 18.1875 9.99999 18.1875C9.08124 18.1875 8.17375 18.0394 7.36187 17.7625L8.42374 17.2525C8.70374 17.1182 8.82187 16.7819 8.68749 16.5019C8.55249 16.2219 8.215 16.1038 7.93687 16.2382L5.91875 17.2069C5.69875 17.3138 5.55937 17.5325 5.55562 17.7775C5.55187 18.0225 5.68374 18.2444 5.89874 18.3569C7.07062 18.9732 8.52749 19.3125 9.99999 19.3125C15.135 19.3125 19.3125 15.135 19.3125 10C19.3125 7.54379 18.3694 5.23004 16.6562 3.48629Z" fill="#343435"/>
<path d="M1.8125 10C1.8125 5.48562 5.48563 1.8125 10 1.8125C10.9325 1.8125 11.8419 1.95938 12.645 2.23375L11.5763 2.74688C11.2963 2.88125 11.1781 3.2175 11.3125 3.4975C11.4469 3.7775 11.7838 3.89438 12.0631 3.76125L14.0813 2.79188C14.3013 2.68625 14.4406 2.46813 14.4456 2.22375C14.4506 1.98 14.3206 1.7575 14.1075 1.64375C12.9563 1.0275 11.4975 0.6875 10 0.6875C4.865 0.6875 0.6875 4.865 0.6875 10C0.6875 12.4563 1.63063 14.77 3.34375 16.5138C3.45375 16.6263 3.59938 16.6825 3.745 16.6825C3.8875 16.6825 4.03 16.6294 4.13875 16.5212C4.36063 16.3038 4.36375 15.9475 4.14625 15.7262C2.64125 14.1931 1.8125 12.16 1.8125 10Z" fill="#343435"/>
</g>
<defs>
<clipPath id="clip0_3353_2744">
<rect width="20" height="20" fill="white"/>
</clipPath>
</defs>
</svg>
