<svg width="134" height="131" viewBox="0 0 134 131" fill="none" xmlns="http://www.w3.org/2000/svg">
<path d="M124.318 65.5868C124.318 99.5784 96.7429 127.153 62.6646 127.153C28.673 127.153 1.09814 99.5784 1.09814 65.5868C1.09814 31.5084 28.673 3.93359 62.6646 3.93359C96.7429 3.93359 124.318 31.5084 124.318 65.5868Z" fill="#74D1EA"/>
<mask id="mask0_4467_39431" style="mask-type:luminance" maskUnits="userSpaceOnUse" x="1" y="4" width="123" height="124">
<path d="M123.669 65.8874C123.669 99.7195 96.2358 127.153 62.4038 127.153C28.5718 127.153 1.13818 99.7195 1.13818 65.8874C1.13818 32.0554 28.5718 4.62183 62.4038 4.62183C96.2358 4.62183 123.669 32.0554 123.669 65.8874Z" fill="white"/>
</mask>
<g mask="url(#mask0_4467_39431)">
<path d="M107.737 75.6379C108.77 74.6053 108.77 72.8844 107.737 71.9047L101.541 65.7093C100.562 64.6767 98.8409 64.6767 97.8083 65.7093L92.9366 70.5544L102.865 80.4831M60.8472 102.67V112.599H70.7758L103.059 80.2896L93.1301 70.3609L60.8472 102.67Z" fill="#E9ECEB"/>
<path d="M108.462 124.878L34.8577 139.543L16.4565 47.4435L90.0612 32.7786L108.462 124.878Z" fill="#FFB81C"/>
<path d="M96.0393 134.592L23.9292 128.054L32.4292 34.46L104.539 41.0919L96.0393 134.592Z" fill="white"/>
<path fill-rule="evenodd" clip-rule="evenodd" d="M89.1678 56.1452L89.9899 53.1263C90.0384 52.9736 89.992 52.8011 89.881 52.6837L87.764 50.3917C87.4869 50.0922 87.6812 49.6258 88.0802 49.6098L91.2143 49.4529C91.3709 49.4535 91.5113 49.3564 91.5948 49.2185L93.1289 46.486C93.3135 46.1393 93.8284 46.1809 93.968 46.5417L95.0811 49.4757C95.1294 49.6242 95.2644 49.7436 95.419 49.7681L98.4913 50.3776C98.8825 50.4574 98.9986 50.9608 98.69 51.2011L96.254 53.1618C96.1256 53.2599 96.0641 53.4236 96.0755 53.5812L96.4508 56.6968C96.4917 57.0857 96.0604 57.3522 95.7287 57.1326L93.1075 55.4146C92.9696 55.3312 92.8019 55.3177 92.6524 55.3779L89.8107 56.6912C89.448 56.8548 89.0641 56.5346 89.1678 56.1452Z" fill="#E9ECEB"/>
<path d="M76.5438 55.6207L79.3975 54.3083C79.535 54.2471 79.7146 54.2616 79.8405 54.3441L82.4618 56.0621C82.7936 56.2817 83.2248 56.0152 83.1839 55.6262L82.8086 52.5107C82.7972 52.3531 82.8586 52.1893 82.9871 52.0912L85.435 50.1315C85.7437 49.8912 85.6157 49.3868 85.2364 49.308L82.1522 48.6976C81.9975 48.673 81.8625 48.5537 81.8142 48.4051L80.7011 45.4711C80.5615 45.1103 80.0586 45.0698 79.862 45.4154L78.3279 48.1479C78.2564 48.2868 78.104 48.3829 77.9474 48.3824L74.8134 48.5392C74.4144 48.5552 74.232 49.0226 74.4972 49.3212L76.626 51.6141C76.7371 51.7315 76.7715 51.903 76.723 52.0558L75.9009 55.0747C75.7972 55.464 76.1931 55.7852 76.5438 55.6207ZM63.2888 54.5511L66.1305 53.2378C66.28 53.1775 66.4476 53.1911 66.5855 53.2745L69.1948 54.9915C69.5265 55.2111 69.9698 54.9456 69.9169 54.5557L69.5536 51.4411C69.5302 51.2825 69.5917 51.1188 69.7201 51.0207L72.1681 49.0609C72.4767 48.8207 72.3606 48.3172 71.9694 48.2374L68.8971 47.628C68.7305 47.6025 68.6074 47.4841 68.5472 47.3346L67.4342 44.4006C67.2946 44.0398 66.7917 43.9992 66.595 44.3449L65.0609 47.0774C64.9894 47.2162 64.837 47.3124 64.6804 47.3118L61.5463 47.4687C61.1593 47.4856 60.965 47.952 61.2301 48.2506L63.3591 50.5435C63.4701 50.661 63.5045 50.8325 63.468 50.9862L62.6339 54.0041C62.5302 54.3935 62.9261 54.7147 63.2888 54.5511ZM50.0218 53.4805L52.8635 52.1672C53.013 52.107 53.1806 52.1205 53.3185 52.2039L55.9398 53.9219C56.2716 54.1415 56.7028 53.875 56.6499 53.4851L56.2866 50.3705C56.2633 50.212 56.3366 50.0492 56.4531 49.9501L58.901 47.9904C59.2097 47.7501 59.0937 47.2467 58.7024 47.1669L55.6302 46.5574C55.4755 46.5329 55.3405 46.4135 55.2802 46.264L54.1791 43.331C54.0395 42.9702 53.5246 42.9286 53.328 43.2743L51.8059 46.0078C51.7224 46.1457 51.582 46.2428 51.4134 46.2413L48.2914 46.3991C47.8924 46.4151 47.698 46.8815 47.9632 47.1801L50.0921 49.473C50.2032 49.5904 50.2495 49.7629 50.201 49.9156L49.3789 52.9346C49.2752 53.3239 49.6591 53.6441 50.0218 53.4805ZM36.7548 52.41L39.5966 51.0967C39.746 51.0364 39.9137 51.05 40.0515 51.1334L42.6728 52.8514C43.0045 53.071 43.4358 52.8045 43.3949 52.4155L43.0196 49.3C43.0082 49.1424 43.0696 48.9786 43.1981 48.8805L45.6341 46.9198C45.9427 46.6796 45.8266 46.1761 45.4354 46.0963L42.3631 45.4869C42.2084 45.4623 42.0735 45.343 42.0252 45.1944L40.9122 42.2604C40.7726 41.8996 40.2577 41.8581 40.073 42.2047L38.5389 44.9372C38.4554 45.0751 38.315 45.1723 38.1584 45.1717L35.0243 45.3285C34.6253 45.3445 34.431 45.8109 34.7081 46.1105L36.8251 48.4024C36.9361 48.5199 36.9825 48.6923 36.934 48.8451L36.1119 51.864C36.0082 52.2533 36.3921 52.5736 36.7548 52.41Z" fill="#FFB81C"/>
<path d="M37.9609 73.594H77.5471C78.7301 73.594 79.6851 72.639 79.6851 71.456C79.6851 70.2731 78.7301 69.3181 77.5471 69.3181H37.9609C36.7779 69.3181 35.823 70.2731 35.823 71.456C35.823 72.639 36.7779 73.594 37.9609 73.594Z" fill="#D7E6EF"/>
<path d="M37.9609 85.8699H65.5471C66.7301 85.8699 67.6851 84.9149 67.6851 83.7319C67.6851 82.5489 66.7301 81.594 65.5471 81.594H37.9609C36.7779 81.594 35.823 82.5489 35.823 83.7319C35.823 84.9149 36.7779 85.8699 37.9609 85.8699Z" fill="#D7E6EF"/>
<path d="M37.9609 98.1457H53.5471C54.7301 98.1457 55.6851 97.1908 55.6851 96.0078C55.6851 94.8248 54.7301 93.8699 53.5471 93.8699H37.9609C36.7779 93.8699 35.823 94.8248 35.823 96.0078C35.823 97.1908 36.7779 98.1457 37.9609 98.1457Z" fill="#D7E6EF"/>
<path d="M105.737 75.6382C106.77 74.6056 106.77 72.8846 105.737 71.905L99.5415 65.7095C98.5618 64.6769 96.8409 64.6769 95.8083 65.7095L90.9366 70.5547L100.865 80.4833M58.8472 102.671V112.599H68.7758L98.0588 83.2899L88.1301 73.3612L58.8472 102.671Z" fill="#28519E"/>
<path fill-rule="evenodd" clip-rule="evenodd" d="M58.8472 102.67V112.599L93.0588 78.2896L88.1301 73.3609L58.8472 102.67Z" fill="#1B3D7C"/>
<path d="M99.5415 65.7093C98.5618 64.6767 96.8409 64.6767 95.8083 65.7093L90.9366 70.5544L95.9009 75.5188L102.639 68.807L99.5415 65.7093Z" fill="#1B3D7C"/>
</g>
</svg>
