<svg width="125" height="126" viewBox="0 0 125 126" fill="none" xmlns="http://www.w3.org/2000/svg">
<path d="M124.242 62.7684C124.242 97.0014 96.489 124.765 62.2444 124.765C28.0113 124.765 0.258789 97.0014 0.258789 62.7684C0.258789 28.5238 28.0113 0.77124 62.2444 0.77124C96.489 0.77124 124.242 28.5238 124.242 62.7684Z" fill="white"/>
<mask id="mask0_4465_18864" style="mask-type:alpha" maskUnits="userSpaceOnUse" x="0" y="1" width="125" height="125">
<path d="M124.242 63.0876C124.242 97.3207 96.489 125.085 62.2444 125.085C28.0113 125.085 0.25879 97.3207 0.25879 63.0876C0.25879 28.843 28.0113 1.09048 62.2444 1.09048C96.489 1.09048 124.242 28.843 124.242 63.0876Z" fill="#74D1EA"/>
</mask>
<g mask="url(#mask0_4465_18864)">
<path d="M35.3748 127.465C36.8852 123.796 39.3905 121.255 43.0826 119.973C46.7507 118.714 50.2989 119.217 53.8112 120.943C53.955 120.464 54.0749 120.032 54.2068 119.613C55.7052 114.806 58.5581 111.342 63.6647 110.167C69.2867 108.872 74.7889 111.545 77.3182 116.736C77.3542 116.808 77.4021 116.868 77.486 116.976C80.1472 115.238 83.0481 114.518 86.2128 114.902C89.4613 115.309 91.9667 116.892 93.7887 119.673C95.7666 118.522 97.8284 117.911 100.01 119.049C101.461 119.805 102.288 121.087 102.791 122.706C102.563 122.825 102.348 122.957 102.12 123.053C94.8796 126.398 87.2317 128.364 79.368 129.514C73.1826 130.425 66.9612 130.893 60.7158 130.737C52.5405 130.557 44.4611 129.682 36.4896 127.8C36.1539 127.716 35.8063 127.596 35.3748 127.465Z" fill="#28519E"/>
<path d="M52.2049 117.552C43.8138 114.615 35.4826 119.254 32.7615 126.818C29.477 125.643 26.2045 124.468 22.9559 123.305C23.7062 117.998 25.2423 115.545 30.1742 118.553C26.5098 114.781 23.7867 113.934 21.3017 122.358C17.25 120.357 13.3541 118.115 9.698 115.25C10.1176 114.998 10.4532 114.77 10.8008 114.591C16.4828 111.786 22.4644 109.784 28.5779 108.189C41.7639 104.725 55.1897 103.395 68.7952 103.874C74.5252 104.078 80.1832 104.893 85.8292 105.876C94.7477 107.434 103.391 109.952 111.698 113.572C112.705 114.015 113.688 114.543 114.683 115.034C114.742 115.07 114.778 115.142 114.958 115.382C111.47 117.611 108.006 119.817 104.421 122.107C104.23 121.555 104.122 121.22 103.99 120.896C102.767 117.659 99.6745 115.765 96.2341 116.125C96.0543 116.149 95.7666 116.065 95.6707 115.921C91.9427 110.743 84.5945 109.424 79.1642 111.858C79.0923 111.894 79.0204 111.906 78.9245 111.93C74.9927 107.063 69.9101 104.941 63.7486 106.152C57.5272 107.386 53.991 111.606 52.2049 117.552Z" fill="#28519E"/>
<path d="M52.5884 96.7296C56.8199 89.2615 58.606 81.1342 59.3253 72.6711C60.0805 72.6711 60.8117 72.6711 61.6268 72.6711C61.6268 73.0068 61.6268 73.2825 61.6268 73.5582C61.6268 78.9764 61.6228 84.3947 61.6148 89.8129C61.6148 90.0647 61.5309 90.3883 61.6508 90.5681C61.8786 90.9038 62.2741 91.4192 62.5259 91.3833C62.8735 91.3233 63.1612 90.8438 63.4609 90.5322C63.5208 90.4603 63.4729 90.2804 63.4729 90.1486C63.4489 84.4267 63.4289 78.7007 63.4129 72.9708C63.4129 72.8989 63.4369 72.827 63.4609 72.6831C64.1921 72.6831 64.9233 72.6831 65.6905 72.6831C66.6015 81.0742 68.2678 89.2855 72.4873 96.8495C72.8949 96.5018 73.2545 96.1902 73.6261 95.8905C78.9125 91.659 86.7042 93.7328 89.1136 100.062C89.4613 101.009 89.9288 101.321 90.8278 101.56C99.8542 103.946 108.437 107.362 116.253 112.565C116.421 112.685 116.588 112.805 116.756 112.924C116.792 112.96 116.804 113.008 116.828 113.044C116.433 113.644 116.013 113.584 115.414 113.26C109.192 110.012 102.611 107.674 95.8505 105.9C82.9042 102.507 69.7302 101.249 56.3644 101.872C44.521 102.424 32.8933 104.246 21.6013 108.022C17.25 109.472 12.9705 111.138 8.9188 113.308C8.36738 113.608 8.03174 113.572 7.67212 112.96C8.64309 112.313 9.60207 111.63 10.609 111.03C17.4777 106.895 24.8499 103.946 32.5937 101.896C33.4927 101.656 34.4037 101.477 35.2908 101.213C35.5305 101.129 35.8062 100.865 35.8782 100.637C37.2088 96.2741 41.0687 93.529 45.6358 93.6968C47.9014 93.7807 49.9272 94.488 51.6534 95.9744C51.9531 96.2261 52.2528 96.4659 52.5884 96.7296Z" fill="#28519E"/>
<path fill-rule="evenodd" clip-rule="evenodd" d="M68.3996 65.4667C66.7573 65.4667 65.175 65.4667 63.4489 65.4667C63.4489 65.1071 63.4489 64.7595 63.4489 64.4118C63.4489 61.8546 63.4489 59.3013 63.4489 56.752C63.4489 56.4883 63.5208 56.1646 63.4009 55.9848C63.1612 55.6372 62.8015 55.3734 62.4899 55.0738C62.2142 55.3974 61.8785 55.6971 61.6747 56.0687C61.5549 56.2845 61.6388 56.6201 61.6388 56.9078C61.6388 59.4571 61.6428 62.0104 61.6508 64.5677C61.6508 64.8434 61.6508 65.1191 61.6508 65.4547C59.9725 65.4547 58.3543 65.4547 56.712 65.4547C56.6161 63.8844 56.6161 62.3141 56.4243 60.7557C55.8609 56.3084 55.1896 51.8732 54.5903 47.4379C53.847 41.8398 53.4994 36.2418 54.4944 30.6437C55.5732 24.686 57.611 19.112 61.2552 14.2092C61.5668 13.8016 61.9145 13.418 62.2501 13.0224C62.334 12.9265 62.4299 12.8546 62.5978 12.6868C62.9214 13.0584 63.2211 13.394 63.4968 13.7536C67.0211 18.3208 69.0229 23.5472 70.2816 29.1093C71.4683 34.3358 71.4444 39.6102 70.7971 44.8726C70.2217 49.6076 69.4545 54.3186 68.8431 59.0416C68.6034 60.8996 68.5674 62.7936 68.4356 64.6636C68.4236 64.9153 68.4116 65.167 68.3996 65.4667ZM62.5019 37.1888C65.1031 37.2367 67.4286 34.9831 67.4646 32.3819C67.5006 29.7686 65.2829 27.4791 62.6457 27.4191C59.9725 27.3712 57.647 29.5529 57.623 32.1421C57.5991 34.9112 59.7448 37.1288 62.5019 37.1888ZM58.2823 45.2562C58.594 44.9685 59.0855 44.489 59.577 44.0215C59.2413 43.6619 58.7618 43.1464 58.2943 42.643C57.8268 43.1464 57.3473 43.6739 57.0716 43.9735C57.5751 44.513 58.0426 45.0045 58.2823 45.2562ZM63.4728 47.6177C62.9813 47.294 62.6937 46.9464 62.4179 46.9584C62.1902 46.9824 61.8186 47.4259 61.8306 47.6776C61.8426 47.9054 62.2501 48.277 62.5138 48.3009C62.7416 48.3129 63.0173 47.9533 63.4728 47.6177ZM62.4659 40.1017C62.1542 40.5452 61.7946 40.8329 61.8306 41.0726C61.8545 41.2884 62.2621 41.6001 62.5378 41.624C62.7296 41.636 63.1372 41.2404 63.1252 41.0486C63.1132 40.7849 62.7896 40.5332 62.4659 40.1017Z" fill="#FFB81C"/>
<path d="M45.3961 83.3395C45.3961 80.2348 45.3961 77.3339 45.3961 74.433C45.3961 70.2254 45.3841 66.0299 45.408 61.8224C45.408 61.4867 45.492 61.0911 45.6838 60.8274C48.1771 57.5069 50.6944 54.2104 53.2118 50.9139C53.2477 50.854 53.3316 50.83 53.4635 50.7341C54.3505 56.2723 55.1417 61.7624 54.9259 67.3245C54.83 67.3725 54.7821 67.4204 54.7461 67.4084C53.4875 67.1927 52.948 67.84 52.4446 68.9428C50.2509 73.6658 47.9374 78.3288 45.6718 83.0039C45.6358 83.0638 45.5759 83.1237 45.3961 83.3395Z" fill="#FFB81C"/>
<path d="M79.5 83.148C78.7807 81.6735 78.0495 80.2111 77.3422 78.7247C75.736 75.3802 74.0937 72.0597 72.5473 68.6793C72.1278 67.7803 71.6723 67.2169 70.6054 67.4566C70.4975 67.4806 70.3657 67.4446 70.1499 67.4207C69.8862 61.8466 70.8332 56.3924 71.5524 50.9262C71.6403 50.8543 71.7242 50.7863 71.8041 50.7224C71.9 50.9142 71.9719 51.142 72.1038 51.3218C74.5252 54.4624 76.9467 57.6031 79.3561 60.7558C79.5359 60.9955 79.6917 61.3431 79.6917 61.6428C79.7037 68.6554 79.7037 75.6679 79.7037 82.6685C79.7037 82.8243 79.6798 82.9682 79.6798 83.112C79.6158 83.128 79.5559 83.14 79.5 83.148Z" fill="#FFB81C"/>
<path d="M68.4476 67.3127C68.4476 68.4156 68.4476 69.4345 68.4476 70.5133C64.5158 70.5133 60.6199 70.5133 56.6401 70.5133C56.6401 69.4704 56.6401 68.4276 56.6401 67.3127C60.524 67.3127 64.4439 67.3127 68.4476 67.3127Z" fill="#FFB81C"/>
<path d="M39.0118 56.9234L38.0105 56.8885C37.9327 56.8859 37.8585 56.9207 37.812 56.9842L37.2148 57.7888C37.0986 57.9462 36.851 57.9015 36.7973 57.7128L36.522 56.7491C36.5005 56.674 36.4433 56.615 36.3691 56.5899L35.4196 56.2708C35.2337 56.2082 35.1997 55.9597 35.3624 55.8497L36.1939 55.29C36.2582 55.2462 36.2976 55.1738 36.2985 55.096L36.3083 54.0938C36.3101 53.898 36.5363 53.789 36.6909 53.9097L37.4804 54.5274C37.5412 54.5757 37.6225 54.59 37.6967 54.5668L38.6524 54.2664C38.8402 54.2074 39.0136 54.3889 38.9466 54.573L38.6033 55.5153C38.5764 55.5877 38.5872 55.67 38.6328 55.7335L39.2139 56.5497C39.3274 56.7097 39.2085 56.9306 39.0118 56.9234Z" fill="#002C3F"/>
<path opacity="0.7" d="M36.5792 56.447C36.5381 56.4148 36.4916 56.3898 36.4424 56.3728L35.822 56.1645C35.7567 56.143 35.7102 56.0867 35.7013 56.0188C35.6923 55.9508 35.7218 55.8847 35.7791 55.8462L36.3217 55.4806C36.4487 55.3947 36.5256 55.2517 36.5274 55.0988L36.5336 54.4444C36.5345 54.3756 36.573 54.3139 36.6346 54.2844C36.6972 54.254 36.7696 54.262 36.8233 54.3049L37.087 54.5106L37.0557 54.5508L36.792 54.3443C36.7527 54.3139 36.7017 54.3085 36.657 54.33C36.6123 54.3514 36.5846 54.3943 36.5846 54.4444L36.5783 55.0988C36.5765 55.2687 36.4907 55.4269 36.3503 55.5226L35.8068 55.8882C35.7657 55.916 35.7451 55.9625 35.7513 56.0116C35.7585 56.0617 35.7907 56.1001 35.8381 56.1162L36.4585 56.3245C36.514 56.3433 36.5649 56.371 36.6105 56.4068L36.5792 56.447Z" fill="#002C3F"/>
<path opacity="0.7" d="M37.1594 57.4331C37.129 57.4456 37.096 57.4492 37.062 57.4429C36.9949 57.4304 36.9404 57.3821 36.9216 57.316L36.7839 56.8341L36.8331 56.8198L36.9708 57.3017C36.9842 57.3499 37.0217 57.3839 37.0709 57.3928C37.1201 57.4018 37.1675 57.383 37.1979 57.3428L37.5877 56.8171C37.6878 56.6821 37.8523 56.6025 38.0204 56.6088L38.6748 56.632C38.7249 56.6338 38.7687 56.6079 38.7928 56.5641C38.8161 56.5203 38.8134 56.4693 38.7839 56.4291L38.4048 55.8954C38.3056 55.7568 38.2814 55.5789 38.3404 55.4188L38.5639 54.8046C38.5809 54.7573 38.5711 54.7072 38.5362 54.6714C38.5022 54.6357 38.4531 54.6223 38.4048 54.6375L37.7808 54.8341C37.7164 54.8538 37.6494 54.861 37.5814 54.8556L37.5859 54.8046C37.6467 54.81 37.7075 54.8037 37.7656 54.785L38.3896 54.5892C38.4558 54.5686 38.5255 54.5865 38.5729 54.6366C38.6203 54.6857 38.6355 54.7573 38.6122 54.8216L38.3878 55.4367C38.3351 55.5807 38.3574 55.7416 38.4459 55.8658L38.825 56.3996C38.8652 56.455 38.8697 56.5274 38.8375 56.5882C38.8044 56.649 38.7418 56.6848 38.673 56.683L38.0186 56.6597C37.8675 56.6544 37.7182 56.7259 37.6279 56.8475L37.2381 57.3732C37.2175 57.4009 37.1907 57.4215 37.1594 57.4331Z" fill="#002C3F"/>
<path opacity="0.7" d="M37.2112 54.6721L37.0557 54.5505L37.087 54.5103L37.2425 54.6327L37.2112 54.6721Z" fill="#002C3F"/>
<path d="M45.8347 44.8155L42.0798 44.6848C41.7881 44.6747 41.5099 44.8054 41.3355 45.0435L39.096 48.0608C38.6602 48.6509 37.7315 48.4832 37.5303 47.7758L36.4977 44.1618C36.4173 43.8801 36.2027 43.6589 35.9244 43.565L32.364 42.3681C31.6667 42.1334 31.5393 41.2014 32.1494 40.789L35.2673 38.6903C35.5087 38.526 35.6562 38.2545 35.6596 37.9628L35.6965 34.2046C35.7032 33.4703 36.5514 33.0613 37.1314 33.5139L40.0917 35.8306C40.3197 36.0116 40.6248 36.0652 40.903 35.9781L44.487 34.8516C45.191 34.6303 45.8414 35.3109 45.59 36.0015L44.3026 39.5352C44.202 39.8067 44.2422 40.1152 44.4132 40.3532L46.5924 43.4141C47.0182 44.0142 46.5723 44.8423 45.8347 44.8155Z" fill="#002C3F"/>
<path opacity="0.7" d="M36.7122 43.0287C36.558 42.908 36.3837 42.8141 36.1993 42.7504L33.8726 41.9693C33.6278 41.8888 33.4535 41.6776 33.42 41.4228C33.3864 41.168 33.4971 40.9199 33.7116 40.7758L35.7467 39.4046C36.2227 39.0827 36.5111 38.5463 36.5178 37.973L36.5412 35.5189C36.5446 35.2608 36.6887 35.0294 36.9201 34.9188C37.1548 34.8048 37.4263 34.835 37.6275 34.9959L38.6165 35.767L38.4991 35.9179L37.5101 35.1434C37.3626 35.0294 37.1715 35.0093 37.0039 35.0898C36.8363 35.1702 36.7323 35.3312 36.7323 35.5189L36.7089 37.973C36.7022 38.61 36.3803 39.2034 35.854 39.5621L33.8156 40.9333C33.6614 41.0373 33.5842 41.2116 33.6077 41.396C33.6345 41.5837 33.7552 41.7279 33.9329 41.7883L36.2596 42.5694C36.4675 42.6398 36.6586 42.7437 36.8296 42.8778L36.7122 43.0287Z" fill="#002C3F"/>
<path opacity="0.7" d="M38.8881 46.7268C38.7741 46.7737 38.65 46.7871 38.5226 46.7636C38.2712 46.7167 38.0667 46.5357 37.9963 46.2876L37.48 44.4805L37.6644 44.4269L38.1807 46.2339C38.231 46.415 38.3718 46.5424 38.5562 46.5759C38.7406 46.6094 38.9182 46.539 39.0322 46.3881L40.494 44.4168C40.8695 43.9106 41.4863 43.6122 42.1166 43.6357L44.5707 43.7228C44.7585 43.7295 44.9227 43.6323 45.0132 43.468C45.1004 43.3038 45.0904 43.1127 44.9797 42.9618L43.5582 40.9603C43.1861 40.4406 43.0956 39.7735 43.3168 39.1734L44.155 36.8701C44.2187 36.6924 44.1818 36.5047 44.0511 36.3706C43.9237 36.2365 43.7393 36.1862 43.5582 36.2432L41.2181 36.9808C40.9767 37.0545 40.7253 37.0813 40.4705 37.0612L40.4873 36.8701C40.7152 36.8903 40.9432 36.8668 41.1611 36.7964L43.5012 36.0622C43.7493 35.985 44.0108 36.0521 44.1885 36.2398C44.3662 36.4242 44.4232 36.6924 44.336 36.9338L43.4945 39.2404C43.2967 39.7802 43.3805 40.3836 43.7125 40.8497L45.1339 42.8512C45.2848 43.059 45.3016 43.3306 45.1809 43.5586C45.0568 43.7865 44.8222 43.9206 44.564 43.9139L42.1099 43.8268C41.5433 43.8066 40.9834 44.0749 40.6448 44.5308L39.1831 46.5021C39.106 46.6061 39.0054 46.6832 38.8881 46.7268Z" fill="#002C3F"/>
<path opacity="0.7" d="M39.0826 36.3734L38.4993 35.9175L38.6166 35.7666L39.2 36.2259L39.0826 36.3734Z" fill="#002C3F"/>
<path d="M85.5556 52.8493L83.6729 52.7837C83.5266 52.7787 83.3871 52.8442 83.2997 52.9636L82.1768 54.4764C81.9583 54.7723 81.4926 54.6883 81.3918 54.3336L80.874 52.5215C80.8337 52.3803 80.7261 52.2693 80.5866 52.2222L78.8014 51.6221C78.4517 51.5045 78.3879 51.0371 78.6938 50.8304L80.2571 49.7781C80.3781 49.6957 80.4521 49.5596 80.4538 49.4133L80.4723 47.5289C80.4756 47.1608 80.9009 46.9557 81.1917 47.1826L82.6761 48.3442C82.7904 48.435 82.9433 48.4619 83.0829 48.4182L84.8798 47.8534C85.2328 47.7424 85.5589 48.0837 85.4329 48.4299L84.7874 50.2017C84.7369 50.3379 84.7571 50.4925 84.8428 50.6119L85.9355 52.1466C86.149 52.4475 85.9254 52.8627 85.5556 52.8493Z" fill="#002C3F"/>
<path opacity="0.7" d="M80.9816 51.9534C80.9042 51.8929 80.8168 51.8458 80.7244 51.8139L79.5578 51.4222C79.4351 51.3819 79.3477 51.276 79.3308 51.1482C79.314 51.0205 79.3695 50.8961 79.4771 50.8238L80.4974 50.1363C80.7361 49.9749 80.8807 49.7059 80.8841 49.4185L80.8958 48.188C80.8975 48.0586 80.9698 47.9426 81.0858 47.8871C81.2035 47.83 81.3396 47.8451 81.4405 47.9258L81.9364 48.3124L81.8775 48.388L81.3817 47.9997C81.3077 47.9426 81.2119 47.9325 81.1278 47.9728C81.0438 48.0132 80.9917 48.0939 80.9917 48.188L80.9799 49.4185C80.9765 49.7379 80.8152 50.0354 80.5512 50.2153L79.5292 50.9028C79.4519 50.9549 79.4132 51.0423 79.425 51.1348C79.4384 51.2289 79.4989 51.3012 79.588 51.3314L80.7546 51.7231C80.8589 51.7584 80.9547 51.8105 81.0404 51.8778L80.9816 51.9534Z" fill="#002C3F"/>
<path opacity="0.7" d="M82.0725 53.8075C82.0153 53.8311 81.9531 53.8378 81.8892 53.826C81.7632 53.8025 81.6606 53.7117 81.6253 53.5873L81.3665 52.6813L81.4589 52.6544L81.7178 53.5604C81.743 53.6512 81.8136 53.7151 81.9061 53.7319C81.9985 53.7487 82.0876 53.7134 82.1448 53.6378L82.8777 52.6493C83.0659 52.3955 83.3752 52.2459 83.6913 52.2577L84.9217 52.3014C85.0159 52.3047 85.0982 52.256 85.1436 52.1736C85.1873 52.0913 85.1823 51.9954 85.1268 51.9198L84.4141 50.9162C84.2275 50.6557 84.1821 50.3212 84.2931 50.0203L84.7133 48.8654C84.7452 48.7764 84.7268 48.6822 84.6612 48.615C84.5973 48.5477 84.5049 48.5225 84.4141 48.5511L83.2408 48.9209C83.1197 48.9579 82.9937 48.9713 82.8659 48.9613L82.8743 48.8654C82.9886 48.8755 83.1029 48.8638 83.2122 48.8285L84.3855 48.4603C84.5099 48.4217 84.641 48.4553 84.7301 48.5494C84.8192 48.6419 84.8478 48.7763 84.8041 48.8974L84.3822 50.0539C84.283 50.3245 84.325 50.6271 84.4914 50.8608L85.2042 51.8643C85.2798 51.9685 85.2882 52.1047 85.2277 52.219C85.1655 52.3333 85.0478 52.4006 84.9184 52.3972L83.6879 52.3535C83.4038 52.3434 83.1231 52.4779 82.9533 52.7065L82.2204 53.6949C82.1817 53.747 82.1313 53.7857 82.0725 53.8075Z" fill="#002C3F"/>
<path opacity="0.7" d="M82.1702 48.6168L81.8777 48.3881L81.9365 48.3125L82.229 48.5428L82.1702 48.6168Z" fill="#002C3F"/>
<path d="M82.5556 28.8493L80.6729 28.7837C80.5266 28.7787 80.3871 28.8442 80.2997 28.9636L79.1768 30.4764C78.9583 30.7723 78.4926 30.6883 78.3918 30.3336L77.874 28.5215C77.8337 28.3803 77.7261 28.2693 77.5866 28.2222L75.8014 27.6221C75.4517 27.5045 75.3879 27.0371 75.6938 26.8304L77.2571 25.7781C77.3781 25.6957 77.4521 25.5596 77.4538 25.4133L77.4723 23.5289C77.4756 23.1608 77.9009 22.9557 78.1917 23.1826L79.6761 24.3442C79.7904 24.435 79.9433 24.4619 80.0829 24.4182L81.8798 23.8534C82.2328 23.7424 82.5589 24.0837 82.4329 24.4299L81.7874 26.2017C81.7369 26.3379 81.7571 26.4925 81.8428 26.6119L82.9355 28.1466C83.149 28.4475 82.9254 28.8627 82.5556 28.8493Z" fill="#002C3F"/>
<path opacity="0.7" d="M77.9816 27.9534C77.9042 27.8929 77.8168 27.8458 77.7244 27.8139L76.5578 27.4222C76.4351 27.3819 76.3477 27.276 76.3308 27.1482C76.314 27.0205 76.3695 26.8961 76.4771 26.8238L77.4974 26.1363C77.7361 25.9749 77.8807 25.7059 77.8841 25.4185L77.8958 24.188C77.8975 24.0586 77.9698 23.9426 78.0858 23.8871C78.2035 23.83 78.3396 23.8451 78.4405 23.9258L78.9364 24.3124L78.8775 24.388L78.3817 23.9997C78.3077 23.9426 78.2119 23.9325 78.1278 23.9728C78.0438 24.0132 77.9917 24.0939 77.9917 24.188L77.9799 25.4185C77.9765 25.7379 77.8152 26.0354 77.5512 26.2153L76.5292 26.9028C76.4519 26.9549 76.4132 27.0423 76.425 27.1348C76.4384 27.2289 76.4989 27.3012 76.588 27.3314L77.7546 27.7231C77.8589 27.7584 77.9547 27.8105 78.0404 27.8778L77.9816 27.9534Z" fill="#002C3F"/>
<path opacity="0.7" d="M79.0725 29.8075C79.0153 29.8311 78.9531 29.8378 78.8892 29.826C78.7632 29.8025 78.6606 29.7117 78.6253 29.5873L78.3665 28.6813L78.4589 28.6544L78.7178 29.5604C78.743 29.6512 78.8136 29.7151 78.9061 29.7319C78.9985 29.7487 79.0876 29.7134 79.1448 29.6378L79.8777 28.6493C80.0659 28.3955 80.3752 28.2459 80.6913 28.2577L81.9217 28.3014C82.0159 28.3047 82.0982 28.256 82.1436 28.1736C82.1873 28.0913 82.1823 27.9954 82.1268 27.9198L81.4141 26.9162C81.2275 26.6557 81.1821 26.3212 81.2931 26.0203L81.7133 24.8654C81.7452 24.7764 81.7268 24.6822 81.6612 24.615C81.5973 24.5477 81.5049 24.5225 81.4141 24.5511L80.2408 24.9209C80.1197 24.9579 79.9937 24.9713 79.8659 24.9613L79.8743 24.8654C79.9886 24.8755 80.1029 24.8638 80.2122 24.8285L81.3855 24.4603C81.5099 24.4217 81.641 24.4553 81.7301 24.5494C81.8192 24.6419 81.8478 24.7763 81.8041 24.8974L81.3822 26.0539C81.283 26.3245 81.325 26.6271 81.4914 26.8608L82.2042 27.8643C82.2798 27.9685 82.2882 28.1047 82.2277 28.219C82.1655 28.3333 82.0478 28.4006 81.9184 28.3972L80.6879 28.3535C80.4038 28.3434 80.1231 28.4779 79.9533 28.7065L79.2204 29.6949C79.1817 29.747 79.1313 29.7857 79.0725 29.8075Z" fill="#002C3F"/>
<path opacity="0.7" d="M79.1702 24.6168L78.8777 24.3881L78.9365 24.3125L79.229 24.5428L79.1702 24.6168Z" fill="#002C3F"/>
<path d="M33.0118 34.9234L32.0105 34.8885C31.9327 34.8859 31.8585 34.9207 31.812 34.9842L31.2148 35.7888C31.0986 35.9462 30.851 35.9015 30.7973 35.7128L30.522 34.7491C30.5005 34.674 30.4433 34.615 30.3691 34.5899L29.4196 34.2708C29.2337 34.2082 29.1997 33.9597 29.3624 33.8497L30.1939 33.29C30.2582 33.2462 30.2976 33.1738 30.2985 33.096L30.3083 32.0938C30.3101 31.898 30.5363 31.789 30.6909 31.9097L31.4804 32.5274C31.5412 32.5757 31.6225 32.59 31.6967 32.5668L32.6524 32.2664C32.8402 32.2074 33.0136 32.3889 32.9466 32.573L32.6033 33.5153C32.5764 33.5877 32.5872 33.67 32.6328 33.7335L33.2139 34.5497C33.3274 34.7097 33.2085 34.9306 33.0118 34.9234Z" fill="#002C3F"/>
<path opacity="0.7" d="M30.5792 34.447C30.5381 34.4148 30.4916 34.3898 30.4424 34.3728L29.822 34.1645C29.7567 34.143 29.7102 34.0867 29.7013 34.0188C29.6923 33.9508 29.7218 33.8847 29.7791 33.8462L30.3217 33.4806C30.4487 33.3947 30.5256 33.2517 30.5274 33.0988L30.5336 32.4444C30.5345 32.3756 30.573 32.3139 30.6346 32.2844C30.6972 32.254 30.7696 32.262 30.8233 32.3049L31.087 32.5106L31.0557 32.5508L30.792 32.3443C30.7527 32.3139 30.7017 32.3085 30.657 32.33C30.6123 32.3514 30.5846 32.3943 30.5846 32.4444L30.5783 33.0988C30.5765 33.2687 30.4907 33.4269 30.3503 33.5226L29.8068 33.8882C29.7657 33.916 29.7451 33.9625 29.7513 34.0116C29.7585 34.0617 29.7907 34.1001 29.8381 34.1162L30.4585 34.3245C30.514 34.3433 30.5649 34.371 30.6105 34.4068L30.5792 34.447Z" fill="#002C3F"/>
<path opacity="0.7" d="M31.1594 35.4331C31.129 35.4456 31.096 35.4492 31.062 35.4429C30.9949 35.4304 30.9404 35.3821 30.9216 35.316L30.7839 34.8341L30.8331 34.8198L30.9708 35.3017C30.9842 35.3499 31.0217 35.3839 31.0709 35.3928C31.1201 35.4018 31.1675 35.383 31.1979 35.3428L31.5877 34.8171C31.6878 34.6821 31.8523 34.6025 32.0204 34.6088L32.6748 34.632C32.7249 34.6338 32.7687 34.6079 32.7928 34.5641C32.8161 34.5203 32.8134 34.4693 32.7839 34.4291L32.4048 33.8954C32.3056 33.7568 32.2814 33.5789 32.3404 33.4188L32.5639 32.8046C32.5809 32.7573 32.5711 32.7072 32.5362 32.6714C32.5022 32.6357 32.4531 32.6223 32.4048 32.6375L31.7808 32.8341C31.7164 32.8538 31.6494 32.861 31.5814 32.8556L31.5859 32.8046C31.6467 32.81 31.7075 32.8037 31.7656 32.785L32.3896 32.5892C32.4558 32.5686 32.5255 32.5865 32.5729 32.6366C32.6203 32.6857 32.6355 32.7573 32.6122 32.8216L32.3878 33.4367C32.3351 33.5807 32.3574 33.7416 32.4459 33.8658L32.825 34.3996C32.8652 34.455 32.8697 34.5274 32.8375 34.5882C32.8044 34.649 32.7418 34.6848 32.673 34.683L32.0186 34.6597C31.8675 34.6544 31.7182 34.7259 31.6279 34.8475L31.2381 35.3732C31.2175 35.4009 31.1907 35.4215 31.1594 35.4331Z" fill="#002C3F"/>
<path opacity="0.7" d="M31.2112 32.6721L31.0557 32.5505L31.087 32.5103L31.2425 32.6327L31.2112 32.6721Z" fill="#002C3F"/>
<path d="M80.0118 43.9234L79.0105 43.8885C78.9327 43.8859 78.8585 43.9207 78.812 43.9842L78.2148 44.7888C78.0986 44.9462 77.851 44.9015 77.7973 44.7128L77.522 43.7491C77.5005 43.674 77.4433 43.615 77.3691 43.5899L76.4196 43.2708C76.2337 43.2082 76.1997 42.9597 76.3624 42.8497L77.1939 42.29C77.2582 42.2462 77.2976 42.1738 77.2985 42.096L77.3083 41.0938C77.3101 40.898 77.5363 40.789 77.6909 40.9097L78.4804 41.5274C78.5412 41.5757 78.6225 41.59 78.6967 41.5668L79.6524 41.2664C79.8402 41.2074 80.0136 41.3889 79.9466 41.573L79.6033 42.5153C79.5764 42.5877 79.5872 42.67 79.6328 42.7335L80.2139 43.5497C80.3274 43.7097 80.2085 43.9306 80.0118 43.9234Z" fill="#002C3F"/>
<path opacity="0.7" d="M77.5792 43.447C77.5381 43.4148 77.4916 43.3898 77.4424 43.3728L76.822 43.1645C76.7567 43.143 76.7102 43.0867 76.7013 43.0188C76.6923 42.9508 76.7218 42.8847 76.7791 42.8462L77.3217 42.4806C77.4487 42.3947 77.5256 42.2517 77.5274 42.0988L77.5336 41.4444C77.5345 41.3756 77.573 41.3139 77.6346 41.2844C77.6972 41.254 77.7696 41.262 77.8233 41.3049L78.087 41.5106L78.0557 41.5508L77.792 41.3443C77.7527 41.3139 77.7017 41.3085 77.657 41.33C77.6123 41.3514 77.5846 41.3943 77.5846 41.4444L77.5783 42.0988C77.5765 42.2687 77.4907 42.4269 77.3503 42.5226L76.8068 42.8882C76.7657 42.916 76.7451 42.9625 76.7513 43.0116C76.7585 43.0617 76.7907 43.1001 76.8381 43.1162L77.4585 43.3245C77.514 43.3433 77.5649 43.371 77.6105 43.4068L77.5792 43.447Z" fill="#002C3F"/>
<path opacity="0.7" d="M78.1594 44.4331C78.129 44.4456 78.096 44.4492 78.062 44.4429C77.9949 44.4304 77.9404 44.3821 77.9216 44.316L77.7839 43.8341L77.8331 43.8198L77.9708 44.3017C77.9842 44.3499 78.0217 44.3839 78.0709 44.3928C78.1201 44.4018 78.1675 44.383 78.1979 44.3428L78.5877 43.8171C78.6878 43.6821 78.8523 43.6025 79.0204 43.6088L79.6748 43.632C79.7249 43.6338 79.7687 43.6079 79.7928 43.5641C79.8161 43.5203 79.8134 43.4693 79.7839 43.4291L79.4048 42.8954C79.3056 42.7568 79.2814 42.5789 79.3404 42.4188L79.5639 41.8046C79.5809 41.7573 79.5711 41.7072 79.5362 41.6714C79.5022 41.6357 79.4531 41.6223 79.4048 41.6375L78.7808 41.8341C78.7164 41.8538 78.6494 41.861 78.5814 41.8556L78.5859 41.8046C78.6467 41.81 78.7075 41.8037 78.7656 41.785L79.3896 41.5892C79.4558 41.5686 79.5255 41.5865 79.5729 41.6366C79.6203 41.6857 79.6355 41.7573 79.6122 41.8216L79.3878 42.4367C79.3351 42.5807 79.3574 42.7416 79.4459 42.8658L79.825 43.3996C79.8652 43.455 79.8697 43.5274 79.8375 43.5882C79.8044 43.649 79.7418 43.6848 79.673 43.683L79.0186 43.6597C78.8675 43.6544 78.7182 43.7259 78.6279 43.8475L78.2381 44.3732C78.2175 44.4009 78.1907 44.4215 78.1594 44.4331Z" fill="#002C3F"/>
<path opacity="0.7" d="M78.2112 41.6721L78.0557 41.5505L78.087 41.5103L78.2425 41.6327L78.2112 41.6721Z" fill="#002C3F"/>
</g>
</svg>
