<svg width="33" height="32" viewBox="0 0 33 32" fill="none" xmlns="http://www.w3.org/2000/svg">
<rect x="0.333252" width="32" height="32" rx="8" fill="#E3F3FC"/>
<path d="M26.4358 15.4188C25.3408 11.4813 21.9208 8.49625 17.8708 7.92625C17.3533 7.85125 16.8358 7.81375 16.3333 7.81375C15.8308 7.81375 15.3133 7.85125 14.7958 7.92625C10.7458 8.49625 7.32577 11.4813 6.23077 15.4188C5.54077 17.9088 5.78077 20.3613 6.68077 22.4538C7.14577 23.5263 8.23327 24.1863 9.40327 24.1863H16.3333H23.2633C24.4333 24.1863 25.5208 23.5263 25.9858 22.4538C26.8858 20.3613 27.1258 17.9088 26.4358 15.4188ZM10.568 20.2225C10.6873 20.5757 10.499 20.959 10.1458 21.079C10.073 21.1038 10.0003 21.115 9.92827 21.115C9.64702 21.115 9.38452 20.938 9.28852 20.6575C9.03652 19.9143 8.90827 19.1268 8.90827 18.3175C8.90827 14.2233 12.239 10.8925 16.3333 10.8925C16.595 10.8925 16.8553 10.9083 17.117 10.933C17.8205 10.9998 18.5 11.1745 19.1368 11.4505C19.4788 11.599 19.6355 11.9965 19.487 12.3385C19.3393 12.6805 18.9418 12.8373 18.599 12.6888C18.092 12.469 17.5513 12.3303 16.9895 12.277C16.7705 12.256 16.5523 12.2425 16.3333 12.2425C12.983 12.2425 10.2583 14.968 10.2583 18.3175C10.2583 18.979 10.3625 19.6195 10.568 20.2225ZM21.7483 13.8573L18.1003 17.5053C18.431 18.226 18.3065 19.1043 17.7125 19.6975C16.9505 20.4595 15.7153 20.4595 14.9533 19.6975C14.1913 18.9355 14.1913 17.7003 14.9533 16.9383C15.5465 16.345 16.4248 16.2198 17.1455 16.5505L20.7928 12.9033C21.0568 12.6393 21.4843 12.6393 21.7475 12.9033C22.0115 13.1665 22.0115 13.594 21.7483 13.8573Z" fill="#28519E"/>
</svg>
