<svg xmlns="http://www.w3.org/2000/svg" width="17" height="16" viewBox="0 0 17 16" fill="none">
<g clip-path="url(#clip0_13514_2773)">
<path d="M12.7102 1.8453C12.4866 1.68314 12.174 1.73287 12.0118 1.95638C11.8497 2.1799 11.8994 2.49255 12.1229 2.6547C12.9808 3.27707 13.7369 4.26932 14.2021 5.4353C14.3045 5.69177 14.5954 5.81675 14.8518 5.7144C15.1083 5.61207 15.2333 5.3212 15.1309 5.0647C14.6046 3.7456 13.7395 2.59212 12.7102 1.8453Z" fill="#343435"/>
<path d="M9.16675 2.52323V2.25C9.16675 1.97386 8.9429 1.75 8.66675 1.75C8.3906 1.75 8.16675 1.97386 8.16675 2.25V2.52323C5.4672 2.77523 3.35425 5.0471 3.35425 7.8125V11.6384L3.0594 12.5H2.91675C2.64061 12.5 2.41675 12.7239 2.41675 13C2.41675 13.2761 2.64061 13.5 2.91675 13.5H14.4167C14.6929 13.5 14.9167 13.2761 14.9167 13C14.9167 12.7239 14.6929 12.5 14.4167 12.5H14.2741L13.9792 11.6384V7.8125C13.9792 5.0471 11.8663 2.77523 9.16675 2.52323Z" fill="#343435"/>
<path d="M4.62302 1.8453C4.84652 1.68314 5.15917 1.73287 5.32134 1.95638C5.48349 2.1799 5.43377 2.49255 5.21027 2.6547C4.35242 3.27707 3.59627 4.26932 3.13104 5.4353C3.0287 5.69177 2.73782 5.81675 2.48134 5.7144C2.22486 5.61207 2.0999 5.3212 2.20224 5.0647C2.72856 3.7456 3.59364 2.59212 4.62302 1.8453Z" fill="#343435"/>
<path d="M7.91675 14C7.6406 14 7.41675 14.2239 7.41675 14.5C7.41675 14.7761 7.6406 15 7.91675 15H9.41675C9.6929 15 9.91675 14.7761 9.91675 14.5C9.91675 14.2239 9.6929 14 9.41675 14H7.91675Z" fill="#343435"/>
</g>
<defs>
<clipPath id="clip0_13514_2773">
<rect width="16" height="16" fill="white" transform="translate(0.666504)"/>
</clipPath>
</defs>
</svg>