<svg width="24" height="24" viewBox="0 0 24 24" fill="none" xmlns="http://www.w3.org/2000/svg">
<path d="M21.6729 10.3173L19.6404 9.90497C19.4697 9.2719 19.2156 8.65968 18.8866 8.07658L20.0361 6.36065C20.1444 6.19404 20.1236 5.97332 19.982 5.8317L18.1827 4.03664C18.0411 3.89504 17.8245 3.8742 17.658 3.98249L15.9295 5.12783C15.3548 4.79465 14.7425 4.5406 14.1053 4.36568L13.6972 2.33735C13.6555 2.14162 13.4847 2 13.289 2H10.7318C10.5318 2 10.3611 2.14162 10.3236 2.33735L9.91543 4.36568C9.27404 4.5406 8.66179 4.79465 8.0912 5.12783L6.36694 3.98249C6.20452 3.8742 5.98377 3.89504 5.84218 4.03664L4.03461 5.8317C3.89716 5.97332 3.87217 6.19404 3.98463 6.36065L5.12998 8.07658C4.8051 8.65551 4.55522 9.26773 4.3803 9.90497L2.352 10.3173C2.15624 10.3589 2.01465 10.5297 2.01465 10.7254V13.2744C2.01465 13.4701 2.15624 13.6409 2.352 13.6825L4.3803 14.0948C4.55522 14.7321 4.8051 15.3443 5.12998 15.9232L3.98463 17.6475C3.87217 17.8141 3.89716 18.0348 4.03461 18.1723L5.84218 19.9757C5.98377 20.1173 6.20452 20.1339 6.36694 20.0256L8.08287 18.8761C8.66179 19.2093 9.27404 19.4675 9.91543 19.6341L10.3236 21.6624C10.3611 21.8582 10.5318 21.9998 10.7318 21.9998H13.289C13.4847 21.9998 13.6555 21.8582 13.6972 21.6624L14.1011 19.6341C14.7467 19.4634 15.3631 19.2093 15.9379 18.8761L17.6538 20.0256C17.8204 20.1381 18.0411 20.1173 18.1827 19.9757L19.982 18.1723C20.1236 18.0307 20.1444 17.8141 20.0361 17.6475L18.8866 15.9232C19.2198 15.336 19.4697 14.7238 19.6446 14.0948L21.6729 13.6825C21.8687 13.6409 22.0061 13.4701 22.0061 13.2744V10.7254C22.0061 10.5297 21.8687 10.3589 21.6729 10.3173ZM16.0634 15.4845C15.7637 14.5045 15.1378 13.691 14.3135 13.1619C13.7346 13.77 12.9183 14.149 12.0104 14.149C11.1066 14.149 10.2861 13.77 9.71135 13.1619C8.89075 13.6911 8.26152 14.5014 7.96146 15.4844C7.15327 14.5488 6.66265 13.3305 6.66265 11.9999C6.66265 9.05118 9.06163 6.6522 12.0104 6.6522C14.9591 6.6522 17.3622 9.05118 17.3622 11.9999C17.3622 13.3305 16.8716 14.5489 16.0634 15.4845Z" fill="#343435"/>
<path d="M12.0102 8.59717C10.7107 8.59717 9.65283 9.65504 9.65283 10.9587C9.65283 12.2581 10.7107 13.316 12.0102 13.316C13.3138 13.316 14.3717 12.2581 14.3717 10.9587C14.3717 9.65504 13.3138 8.59717 12.0102 8.59717Z" fill="#343435"/>
</svg>
