<svg xmlns="http://www.w3.org/2000/svg" width="17" height="18" viewBox="0 0 17 18" fill="none">
    <g clip-path="url(#clip0_164_1867)">
      <path d="M10.0629 16.6412C9.89313 16.932 9.65935 17.1588 9.39217 17.3133C9.15422 17.4524 8.88843 17.5318 8.62265 17.5485C8.35269 17.5652 8.07994 17.5137 7.83086 17.394C7.66109 17.3105 7.50245 17.195 7.36191 17.0447L10.0629 16.6412ZM10.4372 13.7871L10.3496 14.1976L10.3273 14.4898L6.8025 15.0145C6.78998 14.8043 6.75658 14.5775 6.7037 14.3423L10.4372 13.7871ZM10.3203 15.13L10.3231 15.3067L10.3273 15.3679C10.337 15.4834 10.3384 15.6003 10.3315 15.7158L10.2786 15.9704L7.00567 16.4575L6.94862 16.3267L6.82059 15.8035L6.81781 15.6518L10.3203 15.13Z" fill="#5C546A"/>
      <path d="M8.3983 0.985526C8.40248 0.833847 8.46649 0.698867 8.56807 0.60285C8.66687 0.508225 8.80324 0.451172 8.95075 0.452563V0.451172C8.96327 0.451172 8.97579 0.452563 8.98832 0.453955C9.12608 0.465087 9.24993 0.527707 9.33899 0.620941C9.43361 0.71974 9.49067 0.85472 9.48927 1.00362H9.49067C9.49067 1.01336 9.49067 1.0231 9.48927 1.03145L9.46005 2.19617H9.46144C9.46144 2.20869 9.46005 2.22122 9.45866 2.23374C9.44753 2.3729 9.38491 2.49535 9.29167 2.58441C9.19148 2.67904 9.0565 2.73609 8.909 2.7347V2.73609C8.89648 2.73609 8.88395 2.7347 8.87143 2.73331C8.73227 2.72218 8.60982 2.65956 8.52076 2.56632C8.42613 2.46613 8.36908 2.33115 8.37047 2.18365H8.36908C8.36908 2.17391 8.36908 2.16417 8.37047 2.15582L8.3983 0.985526ZM2.48423 3.02553C2.3743 2.92256 2.31585 2.7848 2.31029 2.64564C2.30472 2.50649 2.35342 2.36455 2.45501 2.25462C2.55798 2.14468 2.69575 2.08624 2.8349 2.08067C2.97405 2.07511 3.11599 2.12381 3.22592 2.22539L4.09982 3.03945C4.20975 3.14242 4.26819 3.28019 4.27376 3.41934C4.27932 3.55989 4.23062 3.70043 4.12904 3.81036C4.02606 3.9203 3.8883 3.97874 3.74915 3.98431C3.6086 3.98987 3.46805 3.94117 3.35812 3.83959L2.48423 3.02553ZM1.05511 9.03145C0.907608 9.03423 0.772628 8.97718 0.672437 8.88394C0.570854 8.78793 0.505451 8.65434 0.499885 8.50266C0.494319 8.35237 0.551372 8.21322 0.647389 8.11163C0.743405 8.01005 0.876994 7.94465 1.02867 7.94047L2.22123 7.90012C2.37151 7.89455 2.51067 7.95161 2.61225 8.04762C2.71384 8.14364 2.77924 8.27723 2.78341 8.42891V8.43726H2.7848L2.78341 8.45674C2.78063 8.59728 2.72497 8.72391 2.63591 8.81993C2.53989 8.92151 2.4063 8.98553 2.25462 8.99109H2.24628V8.99248H2.23375L1.05511 9.03145ZM15.9029 7.34072L15.921 7.33933C16.0629 7.33098 16.1951 7.3769 16.2981 7.46039C16.4067 7.54806 16.4804 7.67886 16.4971 7.82776V7.83332C16.4985 7.83332 16.4985 7.84863 16.4985 7.85142C16.5068 7.99335 16.4609 8.12555 16.3774 8.22852C16.2898 8.33706 16.159 8.41082 16.0101 8.42752L14.8231 8.55275C14.6728 8.56806 14.5308 8.52075 14.4237 8.43308C14.3152 8.34541 14.24 8.21461 14.2247 8.06571C14.2094 7.91682 14.2567 7.77349 14.3444 7.66634C14.432 7.5578 14.5629 7.48265 14.7117 7.46735C15.1083 7.42421 15.5063 7.37829 15.9029 7.34072ZM13.5526 2.59137C13.6375 2.46613 13.7627 2.3882 13.8991 2.36037C14.0355 2.33393 14.1816 2.35898 14.3082 2.44247L14.3096 2.44387C14.4348 2.52736 14.5141 2.65399 14.5406 2.79036C14.567 2.92673 14.542 3.07285 14.4585 3.19948L13.7947 4.19165C13.7112 4.31689 13.5846 4.39621 13.4468 4.42404C13.3105 4.45048 13.1643 4.42543 13.0377 4.34194C12.9125 4.25844 12.8332 4.13042 12.8053 3.99405C12.7789 3.85768 12.8039 3.71156 12.8874 3.58493L13.5526 2.59137Z" fill="#002C3F"/>
      <path d="M5.56132 11.926C5.16055 11.4682 4.74587 10.9923 4.41747 10.2924C4.09602 9.60216 3.9179 8.88969 3.92347 8.14939C3.93042 7.40909 4.11828 6.64652 4.5274 5.8589C4.53018 5.85334 4.53296 5.84916 4.53575 5.8436C5.07149 4.93631 5.82154 4.32959 6.65646 3.99006C7.35641 3.7034 8.11759 3.60599 8.86346 3.67418C9.60654 3.74236 10.3343 3.97614 10.9703 4.35186C11.7787 4.83055 12.4439 5.54024 12.8099 6.43639C13.0075 6.92204 13.1411 7.46336 13.1578 8.05616C13.1745 8.64756 13.0729 9.28489 12.8001 9.9584C12.3827 10.9923 11.4072 12.1 10.7685 13.1172C10.7337 13.1103 10.6975 13.1089 10.6613 13.1144C9.28509 13.319 7.90885 13.5235 6.53262 13.7281C6.30579 13.0532 5.95791 12.3797 5.56132 11.926ZM10.0282 5.5959C9.96417 5.55137 9.89042 5.5305 9.81527 5.54581C9.74013 5.56111 9.67751 5.60008 9.63298 5.66409L9.38111 6.02032C9.29066 5.97997 9.19882 5.95075 9.09863 5.9257C8.99844 5.90065 8.90659 5.88117 8.8064 5.86586L8.72708 5.40108C8.71178 5.32177 8.67281 5.26332 8.61437 5.21879C8.54897 5.17426 8.48078 5.15896 8.40146 5.17426L7.8184 5.27863C7.74326 5.29394 7.68482 5.32872 7.63611 5.39274C7.59158 5.45814 7.5721 5.52632 7.58602 5.60564L7.66116 6.03145C7.56653 6.07181 7.47887 6.11634 7.39398 6.16922C7.3091 6.21931 7.22561 6.27915 7.15185 6.3376L6.75665 6.06485C6.69125 6.02032 6.62307 5.99945 6.54931 6.01476C6.47417 6.03006 6.41155 6.06903 6.36702 6.13443L6.03027 6.61451C5.98574 6.67852 5.96626 6.75228 5.98017 6.82742C5.99548 6.90674 6.03444 6.96518 6.09985 7.00971L6.45469 7.26158C6.41433 7.35064 6.38511 7.44387 6.36006 7.54407C6.33502 7.64426 6.31553 7.7361 6.30023 7.83629L5.83545 7.91561C5.75613 7.93092 5.69769 7.96988 5.65316 8.02832C5.60863 8.09373 5.59332 8.16191 5.60863 8.24123L5.71299 8.82429C5.7283 8.89943 5.76309 8.95788 5.82571 9.00658C5.89111 9.05111 5.9593 9.07198 6.03862 9.05668L6.46443 8.98153C6.50478 9.07616 6.54931 9.16383 6.60219 9.24871C6.65229 9.33359 6.71213 9.41709 6.77057 9.49641L6.49783 9.88604C6.4533 9.95005 6.43382 10.0196 6.44773 10.0934C6.46304 10.1685 6.502 10.2311 6.56601 10.2757L7.05166 10.6166C7.11707 10.6611 7.18943 10.6764 7.26457 10.6611C7.33971 10.6458 7.40233 10.611 7.45243 10.5484L7.70569 10.188C7.79614 10.2284 7.88798 10.2576 7.98817 10.2826C8.08836 10.3077 8.18021 10.3272 8.2804 10.3425L8.35972 10.8072C8.37502 10.8866 8.41399 10.945 8.47243 10.9895C8.53783 11.0341 8.60602 11.0494 8.68534 11.0341L9.2684 10.9297C9.34354 10.9144 9.40198 10.8796 9.45069 10.817C9.49522 10.753 9.51609 10.6834 9.50078 10.6041L9.42564 10.1783C9.52027 10.1379 9.60793 10.0934 9.69282 10.0405C9.7777 9.9904 9.86119 9.93196 9.94051 9.87212L10.3315 10.1449C10.3955 10.1894 10.4651 10.2089 10.5444 10.195C10.6238 10.1797 10.6822 10.1407 10.7267 10.0767L11.0677 9.59103C11.1122 9.52702 11.1275 9.45327 11.1122 9.37812C11.0969 9.30298 11.0621 9.24036 10.9981 9.19027L10.6377 8.94257C10.678 8.85351 10.7073 8.76028 10.7323 8.66009C10.7574 8.55989 10.7768 8.46666 10.7921 8.36786L11.2569 8.28854C11.3362 8.27324 11.3947 8.23427 11.4392 8.17444C11.4796 8.11321 11.4935 8.04502 11.4796 7.9657L11.3752 7.38265C11.3599 7.3075 11.3251 7.24906 11.2625 7.20035C11.1971 7.15582 11.1289 7.13495 11.0496 7.15026L10.6238 7.2254C10.5834 7.13495 10.5389 7.04728 10.486 6.95822C10.4359 6.86777 10.3761 6.78985 10.3176 6.7161L10.5904 6.3209C10.6349 6.25689 10.6544 6.18731 10.6405 6.11356C10.6252 6.03841 10.5862 5.97579 10.5222 5.93126L10.0421 5.59451L10.0282 5.5959ZM8.33049 6.97214C8.48356 6.94709 8.63803 6.94709 8.7911 6.98188C8.9386 7.01667 9.07358 7.07651 9.19604 7.16C9.31432 7.24488 9.41868 7.35203 9.50357 7.48284C9.58845 7.61086 9.64133 7.75558 9.66638 7.90865C9.69143 8.06172 9.69143 8.21618 9.65664 8.36925C9.62185 8.51676 9.56201 8.65174 9.47852 8.77419C9.39363 8.89247 9.28649 8.99684 9.15568 9.08172C9.02766 9.16661 8.88294 9.21949 8.72987 9.24454C8.5768 9.26958 8.42234 9.26958 8.26927 9.23479C8.12176 9.20001 7.98678 9.14017 7.86433 9.05668C7.74604 8.97179 7.64168 8.86464 7.55679 8.73523C7.47191 8.60721 7.41903 8.46249 7.39398 8.30942C7.36894 8.15635 7.36894 8.00188 7.40372 7.84881C7.43851 7.70131 7.49835 7.56633 7.58184 7.44387C7.66673 7.32559 7.77527 7.22123 7.90468 7.13634C8.03549 7.05146 8.17742 6.9958 8.33049 6.97214Z" fill="#FFB81C"/>
    </g>
    <defs>
      <clipPath id="clip0_164_1867">
        <rect width="16" height="17.0993" fill="white" transform="translate(0.5 0.450195)"/>
      </clipPath>
    </defs>
  </svg>