<svg width="33" height="32" viewBox="0 0 33 32" fill="none" xmlns="http://www.w3.org/2000/svg">
<rect x="0.333252" width="32" height="32" rx="8" fill="#E3F3FC"/>
<g clip-path="url(#clip0_11812_2772)">
<path d="M10.1208 10.7901L8.07088 10.0729C7.85064 9.99383 7.60781 10.1124 7.52875 10.3327L5.02137 17.4877C4.94231 17.7079 5.06091 17.9508 5.28115 18.0298L7.33109 18.747C7.55134 18.8261 7.79417 18.7075 7.87323 18.4873L10.3806 11.3322C10.4597 11.112 10.3411 10.8691 10.1208 10.7901ZM10.7985 11.8518L8.52831 18.3348L9.61822 19.1254C11.9449 21.4125 12.312 21.8982 14.5765 24.1627C15.5309 25.1171 16.7337 24.0441 16.361 23.5246L14.537 21.7852C14.424 21.678 14.424 21.5029 14.5313 21.3899C14.6386 21.277 14.8193 21.277 14.9323 21.3843L16.9992 23.3665L17.225 23.5754L17.4396 23.7674C18.0721 24.3378 19.3936 23.1971 18.8063 22.621L16.7394 20.6389C16.6264 20.5316 16.6264 20.3509 16.7337 20.2379C16.841 20.125 17.0217 20.125 17.1347 20.2323L19.2016 22.2144C19.6477 22.638 20.2971 22.1693 20.523 21.7288C20.6699 21.4521 20.6642 21.181 20.444 20.9551L18.3771 18.9729C18.2641 18.8656 18.2641 18.6849 18.3714 18.572C18.4787 18.459 18.6594 18.459 18.7724 18.5663L20.8393 20.5485C20.8449 20.5542 20.8506 20.5598 20.8562 20.5654C21.4718 21.181 22.6182 19.9217 22.1607 19.4642L19.2863 16.6124C18.3997 15.7314 17.6204 15.4603 16.6716 16.1041C15.3219 17.019 14.0739 16.9286 13.2607 16.4881C12.7863 16.2284 12.3741 15.7992 12.2781 15.2966C12.199 14.8787 12.3402 14.4834 12.7637 14.2293L15.1299 12.8231L10.7985 11.8518ZM24.0751 18.1484L21.8671 11.8518C20.5456 12.089 16.3328 12.648 15.9714 12.953C15.9431 12.9812 15.9149 13.0038 15.881 13.0207L13.0404 14.7093C12.6734 14.9239 12.8033 15.3192 13.0348 15.5959C13.159 15.7427 13.3228 15.8782 13.5205 15.9855C14.1812 16.3413 15.2033 16.4034 16.3441 15.6298C17.5356 14.8222 18.5917 15.1328 19.6703 16.2058L22.4657 18.9842L24.0751 18.1484ZM24.5947 10.0729L22.5447 10.7901C22.3245 10.8691 22.2059 11.112 22.285 11.3322L24.6794 18.1767C24.7697 18.4082 24.7867 18.6228 25.0069 18.7301C25.1086 18.7809 25.2215 18.7866 25.3345 18.747L27.3844 18.0298C27.6047 17.9508 27.7233 17.7079 27.6442 17.4877L25.1368 10.3327C25.0634 10.1124 24.8149 9.99383 24.5947 10.0729Z" fill="#28519E"/>
</g>
<defs>
<clipPath id="clip0_11812_2772">
<rect width="24" height="24" fill="white" transform="translate(4.33325 4)"/>
</clipPath>
</defs>
</svg>
