<svg width="17" height="22" viewBox="0 0 17 22" fill="none" xmlns="http://www.w3.org/2000/svg">
    <g clip-path="url(#clip0_195_6138)">
    <path d="M14.2342 8.09109H16.416V9.54563H14.2342V8.09109ZM0.416016 8.09109H2.59783V9.54563H0.416016V8.09109ZM9.14329 0.818359V3.00018H7.68874V0.818359H9.14329ZM3.26692 2.63654L4.81602 4.1929L3.78329 5.21836L2.2342 3.67654L3.26692 2.63654ZM12.016 4.18563L13.5578 2.63654L14.5978 3.67654L13.0487 5.21836L12.016 4.18563Z" fill="#28519E"/>
    <g clip-path="url(#clip1_195_6138)">
    <path d="M10.8416 16.818C11.1325 15.8513 11.7355 15.0271 12.3325 14.2059C12.49 13.9907 12.6476 13.7756 12.7991 13.5574C13.3991 12.6938 13.7507 11.6483 13.7507 10.518C13.7507 7.56952 11.3628 5.18164 8.41732 5.18164C5.47186 5.18164 3.08398 7.56952 3.08398 10.515C3.08398 11.6453 3.4355 12.6938 4.0355 13.5544C4.18701 13.7725 4.34459 13.9877 4.50217 14.2029C5.10217 15.0241 5.7052 15.8513 5.99308 16.815H10.8416V16.818ZM8.41732 20.6968C9.75671 20.6968 10.8416 19.6119 10.8416 18.2725V17.7877H5.99308V18.2725C5.99308 19.6119 7.07792 20.6968 8.41732 20.6968ZM5.99308 10.515C5.99308 10.7816 5.77489 10.9998 5.50823 10.9998C5.24156 10.9998 5.02338 10.7816 5.02338 10.515C5.02338 8.63922 6.54156 7.12103 8.41732 7.12103C8.68398 7.12103 8.90217 7.33922 8.90217 7.60588C8.90217 7.87255 8.68398 8.09073 8.41732 8.09073C7.07792 8.09073 5.99308 9.17558 5.99308 10.515Z" fill="#28519E"/>
    </g>
    </g>
    <defs>
    <clipPath id="clip0_195_6138">
    <rect width="16" height="20.3636" fill="white" transform="translate(0.415039 0.818359)"/>
    </clipPath>
    <clipPath id="clip1_195_6138">
    <rect width="11.6364" height="15.5152" fill="white" transform="translate(2.59766 5.18164)"/>
    </clipPath>
    </defs>
    </svg>
    