<svg width="20" height="20" viewBox="0 0 20 20" fill="none" xmlns="http://www.w3.org/2000/svg">
<path d="M18.6426 8.01639H17.2111C17.0347 7.41045 16.7994 6.8436 16.5052 6.31585L17.5249 5.29943C17.7798 5.04533 17.7798 4.6544 17.5249 4.4003L15.5836 2.4652C15.3483 2.2111 14.9366 2.2111 14.7013 2.4652L13.6816 3.48162C13.1522 3.18842 12.5836 2.95386 11.9757 2.79749V1.3706C11.9757 1.01877 11.7012 0.745117 11.3482 0.745117H8.58347C8.23052 0.745117 7.956 1.01877 7.956 1.3706V2.79749C7.34814 2.97341 6.7795 3.20797 6.25008 3.50116L5.23044 2.48475C4.99514 2.23065 4.58337 2.23065 4.34807 2.48475L2.40684 4.41985C2.15193 4.6544 2.15193 5.06488 2.40684 5.29943L3.42648 6.31585C3.13235 6.8436 2.87744 7.41045 2.74018 8.01639H1.26956C0.916607 8.01639 0.64209 8.29004 0.64209 8.64187V11.3784C0.64209 11.7302 0.936215 12.0039 1.26956 12.0039H2.70097C2.87744 12.6098 3.11274 13.1766 3.40687 13.7044L2.40684 14.7208C2.15193 14.9554 2.15193 15.3658 2.40684 15.6004L4.34807 17.5355C4.58337 17.7896 4.99514 17.7896 5.23044 17.5355L6.25008 16.5191C6.7795 16.8123 7.34814 17.0664 7.956 17.2032V18.6301C7.956 18.9819 8.23052 19.2556 8.58347 19.2556H11.3286C11.6816 19.2556 11.9561 18.9624 11.9561 18.6301V17.2032C12.1914 17.1446 12.4267 17.0664 12.6228 16.9687L10.7404 15.1117C10.4855 15.1508 10.211 15.1704 9.95605 15.1704C7.09324 15.1704 4.77945 12.8639 4.77945 10.0101C4.77945 7.15635 7.09324 4.84987 9.95605 4.84987C12.8189 4.84987 15.1327 7.15635 15.1327 10.0101C15.1327 10.2838 15.113 10.5379 15.0738 10.792L16.9758 12.6684C17.0739 12.4534 17.1327 12.2189 17.2111 11.9843H18.6426C18.9955 11.9843 19.27 11.7107 19.27 11.3588V8.62233C19.27 8.29004 18.9955 8.01639 18.6426 8.01639Z" fill="#28519E"/>
<path d="M13.3872 11.1624C13.5767 10.6168 13.6188 10.0082 13.5136 9.37861C13.282 8.05648 12.2504 6.92323 10.9662 6.56646C10.2715 6.37759 9.59777 6.37759 8.98725 6.56646C8.75567 6.62942 8.67146 6.92323 8.83988 7.09111L10.2294 8.4762C10.7346 8.97987 10.7346 9.79833 10.2294 10.323C9.72409 10.8266 8.90304 10.8266 8.37672 10.323L7.0083 8.91691C6.83988 8.74902 6.54514 8.83297 6.48198 9.06381C6.31356 9.67241 6.29251 10.344 6.48198 11.0365C6.83988 12.3377 7.97672 13.345 9.30304 13.5758C9.93461 13.6808 10.5451 13.6388 11.0925 13.4499L16.1451 18.4866C16.3978 18.7384 16.7767 18.7384 17.0294 18.4866L18.4399 17.0805C18.6925 16.8287 18.6925 16.4509 18.4399 16.1991L13.3872 11.1624Z" fill="#28519E"/>
</svg>
