<svg width="214" height="53" viewBox="0 0 214 53" fill="none" xmlns="http://www.w3.org/2000/svg">
<g clip-path="url(#clip0_5354_3086)">
<path d="M159.894 6.48267C159.894 5.91115 160.064 5.35247 160.381 4.87727C160.699 4.40206 161.15 4.03169 161.678 3.81298C162.206 3.59427 162.787 3.53704 163.347 3.64854C163.908 3.76004 164.423 4.03525 164.827 4.43938C165.231 4.8435 165.506 5.35839 165.618 5.91893C165.729 6.47946 165.672 7.06047 165.453 7.58849C165.235 8.1165 164.864 8.56781 164.389 8.88532C163.914 9.20284 163.355 9.37232 162.784 9.37232C162.02 9.36356 161.29 9.0563 160.75 8.51628C160.21 7.97625 159.903 7.24633 159.894 6.48267Z" fill="#FBB516"/>
<path d="M124.751 6.48267C124.761 5.71939 125.069 4.99018 125.609 4.45041C126.149 3.91064 126.878 3.603 127.641 3.59302C128.411 3.59302 129.15 3.89898 129.695 4.44361C130.239 4.98823 130.545 5.7269 130.545 6.49711C130.545 7.26733 130.239 8.006 129.695 8.55062C129.15 9.09525 128.411 9.40121 127.641 9.40121C126.873 9.39111 126.139 9.07947 125.599 8.5335C125.058 7.98752 124.754 7.25097 124.751 6.48267Z" fill="#FBB516"/>
<path d="M75.8296 6.48267C75.8396 5.71939 76.1472 4.99018 76.687 4.45041C77.2268 3.91064 77.956 3.603 78.7192 3.59302C79.4895 3.59302 80.2281 3.89898 80.7727 4.44361C81.3174 4.98823 81.6233 5.7269 81.6233 6.49711C81.6233 7.26733 81.3174 8.006 80.7727 8.55062C80.2281 9.09525 79.4895 9.40121 78.7192 9.40121C77.951 9.39111 77.2175 9.07947 76.6769 8.5335C76.1364 7.98752 75.8321 7.25097 75.8296 6.48267Z" fill="#FBB516"/>
<path d="M81.1032 12.021H76.4124V33.5922H81.1032V12.021Z" fill="#012C3D"/>
<path d="M98.98 11.4719C97.5408 11.484 96.1204 11.8005 94.8123 12.4006C93.5041 13.0008 92.3377 13.8709 91.3898 14.954V12.021H86.699V33.597H91.3898V18.5419C92.0315 17.6698 92.8642 16.956 93.8241 16.4551C94.7841 15.9543 95.8459 15.6797 96.9283 15.6523C99.5627 15.6523 101.263 16.7696 101.263 20.1216V33.6066H105.954V18.4071C105.949 13.9859 103.637 11.4719 98.98 11.4719Z" fill="#012C3D"/>
<path d="M117.383 12.021V10.817C117.383 8.40897 118.543 7.20014 120.373 7.20014C121.034 7.16494 121.69 7.33302 122.252 7.68175L123.278 4.1949C122.118 3.60665 120.83 3.31853 119.531 3.3569C115.557 3.3569 112.697 5.9913 112.697 10.817V12.021H109.123V16.1292H112.697V33.5971H117.387V16.1292H125.339V33.5971H130.03V12.021H117.383Z" fill="#012C3D"/>
<path d="M148.003 11.4719C146.563 11.4845 145.142 11.8013 143.833 12.4013C142.524 13.0014 141.357 13.8713 140.408 14.954V12.021H135.717V33.597H140.408V18.5419C141.05 17.6701 141.883 16.9564 142.842 16.4556C143.802 15.9548 144.864 15.68 145.946 15.6523C148.581 15.6523 150.281 16.7696 150.281 20.1216V33.6066H154.967V18.4071C154.967 13.9859 152.646 11.4719 148.003 11.4719Z" fill="#012C3D"/>
<path d="M165.163 12.021H160.472V33.5922H165.163V12.021Z" fill="#012C3D"/>
<path d="M178.542 29.9755C177.204 29.9755 176.491 28.9063 176.491 27.4326V16.1292H180.869V12.0211H176.491V6.12622H171.8V12.0211H168.226V16.1292H171.8V28.5932C171.8 32.1668 173.726 34.1317 177.338 34.1317C179.525 34.1317 180.912 33.549 181.76 32.7447L180.642 29.2193C180.064 29.729 179.313 29.9993 178.542 29.9755Z" fill="#012C3D"/>
<path d="M200.532 12.021L194.233 28.1886L187.919 12.021H182.934L191.772 33.8619L190.702 36.3181C190.076 37.763 189.094 38.1964 187.62 38.1964C187.008 38.1893 186.402 38.0684 185.833 37.84L185.116 42.0348C185.983 42.2265 186.867 42.3314 187.755 42.3479C191.107 42.2949 193.698 41.1438 195.172 37.4788L205.579 12.021H200.532Z" fill="#012C3D"/>
<path d="M60.9864 10.5425L62.8358 12.5701L66.9247 8.84728C65.3236 6.54346 63.1905 4.65978 60.7063 3.35606C58.2221 2.05234 55.4601 1.36703 52.6546 1.35828C48.4174 1.34798 44.3357 2.95313 41.2405 5.84687C38.0908 8.73651 35.7309 12.7098 33.4047 16.5578C31.3386 20.0061 29.2003 23.5749 26.5804 26.2237C24.4998 28.3283 21.6391 29.3879 18.0752 29.3879C15.0875 29.3879 12.2223 28.2011 10.1097 26.0885C7.99716 23.9759 6.81034 21.1107 6.81034 18.1231C6.81034 15.1354 7.99716 12.2702 10.1097 10.1576C12.2223 8.04507 15.0875 6.85824 18.0752 6.85824C23.3295 6.85824 26.8452 10.7111 28.083 12.3149L31.093 7.46025C29.2996 5.27182 26.9819 3.57231 24.3556 2.51968C21.7292 1.46705 18.8794 1.09546 16.0709 1.43945C13.2625 1.78343 10.5866 2.83184 8.29189 4.48721C5.99722 6.14259 4.15828 8.35121 2.94599 10.9078C1.7337 13.4644 1.18741 16.2859 1.35789 19.1102C1.52836 21.9346 2.41008 24.6699 3.92108 27.0621C5.43208 29.4543 7.52332 31.4257 10.0004 32.7931C12.4776 34.1604 15.2602 34.8793 18.0896 34.883C23.1031 34.883 27.3895 33.2263 30.4958 30.0669C33.6022 26.9076 35.8802 23.1125 38.139 19.3849C40.3977 15.6572 42.4156 12.2474 44.9922 9.88756C46.0826 8.87004 47.3641 8.07914 48.7624 7.56075C50.1608 7.04236 51.6481 6.8068 53.1383 6.86773C54.6284 6.92866 56.0915 7.28487 57.4429 7.9157C58.7943 8.54652 60.0069 9.4394 61.0105 10.5425H60.9864Z" fill="#FBB516"/>
<path d="M51.3731 16.6541V22.1492H63.1821L63.0377 22.5008C62.1786 24.5456 60.734 26.2905 58.8854 27.516C57.0369 28.7415 54.8672 29.3927 52.6494 29.3878C51.2045 29.3878 48.8976 28.9062 45.9068 26.4982C44.9248 25.7117 44.0098 24.8451 43.1713 23.9071L40.1179 28.8821C41.7458 30.8086 46.0128 34.883 52.6397 34.883C56.8138 34.9652 60.8655 33.4707 63.9864 30.6978C66.5998 28.434 68.4263 25.3982 69.2022 22.0288C69.647 20.2692 69.7839 18.4459 69.6068 16.6396L51.3731 16.6541Z" fill="#FBB516"/>
<path d="M212.833 14.9027C212.833 15.2965 212.758 15.669 212.609 16.0202C212.46 16.3714 212.255 16.6801 211.994 16.9462C211.734 17.2069 211.425 17.4145 211.068 17.5688C210.717 17.7231 210.339 17.8003 209.935 17.8003C209.53 17.8003 209.153 17.7258 208.801 17.5768C208.45 17.4225 208.144 17.2149 207.883 16.9542C207.628 16.6934 207.426 16.3874 207.277 16.0362C207.128 15.6849 207.053 15.3124 207.053 14.9186C207.053 14.5248 207.128 14.1523 207.277 13.8011C207.426 13.4499 207.631 13.1439 207.891 12.8831C208.152 12.617 208.458 12.4068 208.809 12.2525C209.166 12.0982 209.546 12.021 209.951 12.021C210.355 12.021 210.733 12.0982 211.084 12.2525C211.436 12.4015 211.739 12.6064 211.994 12.8671C212.255 13.1279 212.46 13.4339 212.609 13.7851C212.758 14.1363 212.833 14.5089 212.833 14.9027ZM212.529 14.9027C212.529 14.5461 212.463 14.2109 212.33 13.8969C212.202 13.5776 212.021 13.3009 211.787 13.0667C211.558 12.8325 211.287 12.6489 210.973 12.5159C210.659 12.3775 210.318 12.3084 209.951 12.3084C209.584 12.3084 209.24 12.3775 208.921 12.5159C208.607 12.6543 208.333 12.8405 208.099 13.0747C207.87 13.3088 207.689 13.5856 207.556 13.9049C207.423 14.2242 207.357 14.5621 207.357 14.9186C207.357 15.2805 207.42 15.6184 207.548 15.9324C207.681 16.2464 207.862 16.5204 208.091 16.7546C208.325 16.9887 208.599 17.175 208.913 17.3134C209.227 17.4464 209.568 17.5129 209.935 17.5129C210.302 17.5129 210.643 17.4437 210.957 17.3054C211.276 17.167 211.55 16.9808 211.779 16.7466C212.013 16.5125 212.197 16.2384 212.33 15.9244C212.463 15.6051 212.529 15.2645 212.529 14.9027ZM211.292 14.28C211.292 14.5301 211.225 14.7324 211.092 14.8867C210.965 15.0357 210.797 15.1395 210.589 15.198L211.404 16.3395H210.717L209.983 15.2938H209.352V16.3395H208.777V13.3142H210.126C210.478 13.3142 210.76 13.3993 210.973 13.5696C211.185 13.7399 211.292 13.9767 211.292 14.28ZM210.701 14.312C210.701 14.1576 210.648 14.0406 210.542 13.9607C210.435 13.8756 210.289 13.833 210.103 13.833H209.352V14.7909H210.103C210.289 14.7909 210.435 14.7483 210.542 14.6632C210.648 14.578 210.701 14.461 210.701 14.312Z" fill="#012C3D"/>
</g>
<path d="M71.7087 52.014V45.8303H69.2952V45.1104H74.9302V45.8303H72.5167V52.014H71.7087Z" fill="#032C3D"/>
<path d="M65.8697 52.1126C64.7243 52.1126 63.8039 51.7575 62.9448 51.008L63.4459 50.436C64.1925 51.0968 64.9084 51.4124 65.9004 51.4124C66.872 51.4124 67.4958 50.9192 67.4958 50.2387V50.219C67.4958 49.578 67.1379 49.2229 65.6345 48.9073C63.988 48.5621 63.2312 48.0493 63.2312 46.9151V46.8954C63.2312 45.8204 64.2232 45.0117 65.5834 45.0117C66.6368 45.0117 67.3629 45.2977 68.0992 45.8599L67.6288 46.4615C66.964 45.9388 66.2993 45.7119 65.5629 45.7119C64.622 45.7119 64.0391 46.1952 64.0391 46.8264V46.8461C64.0391 47.497 64.3971 47.8718 65.9822 48.1874C67.5776 48.5326 68.314 49.0849 68.314 50.1401V50.1598C68.314 51.3433 67.2913 52.1126 65.8697 52.1126Z" fill="#032C3D"/>
<path d="M56.0247 52.014V45.1104H59.103C59.9927 45.1104 60.6882 45.3668 61.1381 45.8007C61.4961 46.1459 61.6904 46.6094 61.6904 47.1617V47.1814C61.6904 48.3255 60.8722 49.006 59.7473 49.1933L61.9461 52.014H60.9541L58.878 49.3314H56.8326V52.014H56.0247ZM56.8326 48.6312H59.0314C60.095 48.6312 60.8722 48.0986 60.8722 47.211V47.1913C60.8722 46.3333 60.1973 45.8303 59.0416 45.8303H56.8326V48.6312Z" fill="#032C3D"/>
<path d="M53.1204 52.014V45.1104H53.9283V52.014H53.1204Z" fill="#032C3D"/>
<path d="M46.3372 52.014V45.1104H51.4813V45.8303H47.1451V48.2959H51.0211V49.006H47.1451V52.014H46.3372Z" fill="#032C3D"/>
<path d="M36.4197 52.014V45.1104H41.5945V45.8204H37.2276V48.1775H41.1343V48.8876H37.2276V51.3039H41.6457V52.014H36.4197Z" fill="#032C3D"/>
<path d="M30.1279 52.014V45.1104H30.9359V51.294H34.9653V52.014H30.1279Z" fill="#032C3D"/>
<path d="M23.2966 52.014V45.1104H25.9761C27.592 45.1104 28.6556 45.9388 28.6556 47.2998V47.3195C28.6556 48.8087 27.367 49.578 25.8431 49.578H24.1046V52.014H23.2966ZM24.1046 48.8679H25.8738C27.0602 48.8679 27.8374 48.2564 27.8374 47.3491V47.3294C27.8374 46.3431 27.0704 45.8303 25.9147 45.8303H24.1046V48.8679Z" fill="#032C3D"/>
<path d="M17.9313 52.1325C15.753 52.1325 14.2905 50.4855 14.2905 48.5821V48.5623C14.2905 46.6589 15.7734 44.9922 17.9518 44.9922C20.1301 44.9922 21.5926 46.6392 21.5926 48.5426V48.5623C21.5926 50.4658 20.1097 52.1325 17.9313 52.1325ZM17.9518 51.4125C19.5881 51.4125 20.754 50.1502 20.754 48.5821V48.5623C20.754 46.9942 19.5676 45.7121 17.9313 45.7121C16.295 45.7121 15.1291 46.9745 15.1291 48.5426V48.5623C15.1291 50.1304 16.3155 51.4125 17.9518 51.4125Z" fill="#032C3D"/>
<path d="M7.75635 52.014V45.1104H12.9312V45.8204H8.56428V48.1775H12.471V48.8876H8.56428V51.3039H12.9823V52.014H7.75635Z" fill="#032C3D"/>
<path d="M0.925049 52.014V45.1104H3.60451C5.22038 45.1104 6.28398 45.9388 6.28398 47.2998V47.3195C6.28398 48.8087 4.99538 49.578 3.47156 49.578H1.73298V52.014H0.925049ZM1.73298 48.8679H3.50224C4.68857 48.8679 5.46582 48.2564 5.46582 47.3491V47.3294C5.46582 46.3431 4.6988 45.8303 3.54315 45.8303H1.73298V48.8679Z" fill="#032C3D"/>
<path d="M78.9867 48.5767H76.6147V49.9031H78.9867V52.2064H80.3951V49.9031H82.7671V48.5767H80.3951V46.2734H78.9867V48.5767Z" fill="#FCB518"/>
<path d="M206.223 52.014V45.1104H207.042L209.649 48.8778L212.257 45.1104H213.075V52.014H212.268V46.422L209.66 50.1204H209.619L207.011 46.4319V52.014H206.223Z" fill="#032C3D"/>
<path d="M198.833 52.014V45.1104H201.911C202.801 45.1104 203.496 45.3668 203.946 45.8007C204.304 46.1459 204.499 46.6094 204.499 47.1617V47.1814C204.499 48.3255 203.68 49.006 202.555 49.1933L204.754 52.014H203.762L201.686 49.3314H199.641V52.014H198.833ZM199.641 48.6312H201.839C202.903 48.6312 203.68 48.0986 203.68 47.211V47.1913C203.68 46.3333 203.005 45.8303 201.85 45.8303H199.641V48.6312Z" fill="#032C3D"/>
<path d="M193.467 52.1325C191.289 52.1325 189.827 50.4855 189.827 48.5821V48.5623C189.827 46.6589 191.31 44.9922 193.488 44.9922C195.666 44.9922 197.129 46.6392 197.129 48.5426V48.5623C197.129 50.4658 195.646 52.1325 193.467 52.1325ZM193.488 51.4125C195.124 51.4125 196.29 50.1502 196.29 48.5821V48.5623C196.29 46.9942 195.104 45.7121 193.467 45.7121C191.831 45.7121 190.665 46.9745 190.665 48.5426V48.5623C190.665 50.1304 191.852 51.4125 193.488 51.4125Z" fill="#032C3D"/>
<path d="M183.582 52.014V45.1104H188.726V45.8303H184.39V48.2959H188.266V49.006H184.39V52.014H183.582Z" fill="#032C3D"/>
<path d="M179.495 52.1126C178.35 52.1126 177.429 51.7575 176.57 51.008L177.071 50.436C177.818 51.0968 178.534 51.4124 179.526 51.4124C180.497 51.4124 181.121 50.9192 181.121 50.2387V50.219C181.121 49.578 180.763 49.2229 179.26 48.9073C177.613 48.5621 176.857 48.0493 176.857 46.9151V46.8954C176.857 45.8204 177.849 45.0117 179.209 45.0117C180.262 45.0117 180.988 45.2977 181.725 45.8599L181.254 46.4615C180.59 45.9388 179.925 45.7119 179.188 45.7119C178.248 45.7119 177.665 46.1952 177.665 46.8264V46.8461C177.665 47.497 178.023 47.8718 179.608 48.1874C181.203 48.5326 181.939 49.0849 181.939 50.1401V50.1598C181.939 51.3433 180.917 52.1126 179.495 52.1126Z" fill="#032C3D"/>
<path d="M168.961 52.014V45.1104H169.718L174.228 50.6431V45.1104H175.015V52.014H174.371L169.748 46.353V52.014H168.961Z" fill="#032C3D"/>
<path d="M160.268 52.014L163.53 45.061H164.287L167.55 52.014H166.68L165.842 50.1894H161.945L161.096 52.014H160.268ZM162.262 49.4892H165.525L163.899 45.9684L162.262 49.4892Z" fill="#032C3D"/>
<path d="M153.491 52.014V45.1104H156.569C157.459 45.1104 158.154 45.3668 158.604 45.8007C158.962 46.1459 159.157 46.6094 159.157 47.1617V47.1814C159.157 48.3255 158.339 49.006 157.214 49.1933L159.412 52.014H158.42L156.344 49.3314H154.299V52.014H153.491ZM154.299 48.6312H156.498C157.561 48.6312 158.339 48.0986 158.339 47.211V47.1913C158.339 46.3333 157.664 45.8303 156.508 45.8303H154.299V48.6312Z" fill="#032C3D"/>
<path d="M148.801 52.014V45.8303H146.387V45.1104H152.022V45.8303H149.608V52.014H148.801Z" fill="#032C3D"/>
<path d="M138.508 52.1325C136.329 52.1325 134.867 50.4855 134.867 48.5821V48.5623C134.867 46.6589 136.35 44.9922 138.528 44.9922C140.707 44.9922 142.169 46.6392 142.169 48.5426V48.5623C142.169 50.4658 140.686 52.1325 138.508 52.1325ZM138.528 51.4125C140.165 51.4125 141.33 50.1502 141.33 48.5821V48.5623C141.33 46.9942 140.144 45.7121 138.508 45.7121C136.871 45.7121 135.706 46.9745 135.706 48.5426V48.5623C135.706 50.1304 136.892 51.4125 138.528 51.4125Z" fill="#032C3D"/>
<path d="M130.953 52.014V45.8303H128.54V45.1104H134.175V45.8303H131.761V52.014H130.953Z" fill="#032C3D"/>
<path d="M117.946 52.014V45.1104H118.702L123.212 50.6431V45.1104H124V52.014H123.356L118.733 46.353V52.014H117.946Z" fill="#032C3D"/>
<path d="M111.094 52.014V45.1104H116.269V45.8204H111.902V48.1775H115.809V48.8876H111.902V51.3039H116.32V52.014H111.094Z" fill="#032C3D"/>
<path d="M105.889 52.0633L102.811 45.1104H103.711L106.258 51.0573L108.814 45.1104H109.684L106.605 52.0633H105.889Z" fill="#032C3D"/>
<path d="M100.52 52.014V45.1104H101.328V52.014H100.52Z" fill="#032C3D"/>
<path d="M93.0576 52.014V45.1104H96.1359C97.0257 45.1104 97.7211 45.3668 98.1711 45.8007C98.529 46.1459 98.7234 46.6094 98.7234 47.1617V47.1814C98.7234 48.3255 97.9052 49.006 96.7802 49.1933L98.979 52.014H97.987L95.9109 49.3314H93.8655V52.014H93.0576ZM93.8655 48.6312H96.0643C97.128 48.6312 97.9052 48.0986 97.9052 47.211V47.1913C97.9052 46.3333 97.2302 45.8303 96.0746 45.8303H93.8655V48.6312Z" fill="#032C3D"/>
<path d="M85.0579 52.014V45.1104H87.543C89.7929 45.1104 91.3474 46.5996 91.3474 48.5424V48.5622C91.3474 50.505 89.7929 52.014 87.543 52.014H85.0579ZM87.543 45.8303H85.8658V51.294H87.543C89.3532 51.294 90.5088 50.1204 90.5088 48.5819V48.5622C90.5088 47.0335 89.3532 45.8303 87.543 45.8303Z" fill="#032C3D"/>
<defs>
<clipPath id="clip0_5354_3086">
<rect width="212.151" height="41.6724" fill="white" transform="translate(0.924805 0.793945)"/>
</clipPath>
</defs>
</svg>
