<svg width="600" height="219" viewBox="0 0 600 219" fill="none" xmlns="http://www.w3.org/2000/svg">
<g clip-path="url(#clip0_83_4677)">
<rect width="600" height="219" fill="#74D1EA"/>
<g clip-path="url(#clip1_83_4677)">
<path d="M0 309H600V-91H0V309Z" fill="url(#paint0_radial_83_4677)"/>
<g style="mix-blend-mode:overlay">
<g opacity="0.5">
<path d="M113.8 209.2C114.8 209.2 115.667 210.067 115.667 211.134C115.667 212.134 114.8 213 113.8 213C112.733 213 111.867 212.134 111.867 211.067C111.867 210.067 112.733 209.2 113.8 209.2Z" fill="#BCBEC0"/>
<path d="M44.6001 209.8C45.1334 208.867 46.3334 208.6 47.2001 209.067C48.1334 209.6 48.4001 210.8 47.8668 211.667C47.3334 212.6 46.2001 212.867 45.2668 212.333C44.4001 211.867 44.0668 210.667 44.6001 209.8Z" fill="#BCBEC0"/>
<path d="M93.9334 193.2C94.8 193.2 95.4667 193.867 95.4667 194.734C95.4667 195.6 94.8 196.267 93.9334 196.267C93.0667 196.267 92.3334 195.6 92.3334 194.734C92.3334 193.867 93.0667 193.2 93.9334 193.2Z" fill="#BCBEC0"/>
<path d="M36.9336 193.667C37.4003 192.867 38.3336 192.667 39.0669 193.067C39.8003 193.534 40.0669 194.467 39.6669 195.201C39.2003 195.934 38.2669 196.201 37.5336 195.734C36.8003 195.334 36.5336 194.401 36.9336 193.667Z" fill="#BCBEC0"/>
<path d="M148 111.067C148.533 111.067 148.933 111.534 148.933 112.001C148.933 112.534 148.533 112.934 148 112.934C147.467 112.934 147.067 112.534 147.067 112.001C147.067 111.467 147.467 111.067 148 111.067Z" fill="#BCBEC0"/>
<path d="M165.533 140.867C165.8 141.334 165.667 141.867 165.2 142.134C164.733 142.4 164.133 142.267 163.867 141.8C163.667 141.334 163.8 140.734 164.267 140.467C164.667 140.267 165.267 140.4 165.533 140.867Z" fill="#BCBEC0"/>
<path d="M148.533 170.933C148.267 171.333 147.667 171.533 147.2 171.267C146.733 171 146.6 170.4 146.867 169.933C147.133 169.533 147.733 169.333 148.133 169.6C148.6 169.867 148.8 170.467 148.533 170.933Z" fill="#BCBEC0"/>
<path d="M113.933 171.2C113.467 171.2 113 170.733 113 170.267C113 169.733 113.467 169.267 114 169.267C114.467 169.267 114.933 169.733 114.933 170.267C114.933 170.8 114.467 171.2 113.933 171.2Z" fill="#BCBEC0"/>
<path d="M96.4667 141.401C96.2001 140.934 96.3334 140.401 96.8001 140.134C97.2667 139.867 97.8001 140.001 98.0667 140.467C98.3334 140.934 98.2001 141.534 97.7334 141.734C97.2667 142.001 96.7334 141.867 96.4667 141.401Z" fill="#BCBEC0"/>
<path d="M113.467 111.334C113.733 110.934 114.333 110.734 114.8 111C115.2 111.267 115.4 111.867 115.133 112.334C114.867 112.734 114.267 112.934 113.8 112.667C113.333 112.4 113.2 111.8 113.467 111.334Z" fill="#BCBEC0"/>
<path d="M195.333 181.334C195.867 181.334 196.333 181.801 196.333 182.401C196.333 182.934 195.867 183.401 195.333 183.401C194.733 183.401 194.267 182.934 194.267 182.334C194.267 181.801 194.733 181.334 195.333 181.334Z" fill="#BCBEC0"/>
<path d="M214.467 213.867C214.733 214.4 214.6 215 214.067 215.334C213.6 215.6 212.933 215.4 212.667 214.934C212.4 214.4 212.6 213.8 213.067 213.534C213.533 213.2 214.2 213.4 214.467 213.867Z" fill="#BCBEC0"/>
<path d="M138.933 214.533C138.667 214 138.8 213.4 139.333 213.067C139.8 212.8 140.467 213 140.733 213.467C141 214 140.8 214.6 140.333 214.867C139.867 215.2 139.2 215 138.933 214.533Z" fill="#BCBEC0"/>
<path d="M157.533 181.667C157.867 181.134 158.467 181 158.933 181.267C159.467 181.534 159.6 182.2 159.333 182.667C159.067 183.2 158.4 183.334 157.933 183.067C157.4 182.734 157.267 182.134 157.533 181.667Z" fill="#BCBEC0"/>
<path d="M476.867 158.001C476.267 157.001 476.6 155.734 477.6 155.134C478.6 154.534 479.867 154.934 480.467 155.934C481.067 156.934 480.667 158.201 479.667 158.734C478.667 159.334 477.4 159.001 476.867 158.001Z" fill="#BCBEC0"/>
<path d="M514.333 91.8007C514.933 90.8007 516.2 90.4674 517.2 91.0674C518.2 91.6674 518.533 92.934 517.933 93.934C517.333 94.934 516.067 95.2674 515.067 94.6674C514.067 94.0674 513.733 92.8007 514.333 91.8007Z" fill="#BCBEC0"/>
<path d="M590.333 91.2012C591.533 91.2012 592.4 92.1345 592.4 93.2678C592.4 94.4678 591.467 95.4012 590.333 95.4012C589.2 95.3345 588.267 94.4012 588.267 93.2678C588.267 92.1345 589.2 91.2012 590.333 91.2012Z" fill="#BCBEC0"/>
<path d="M529.267 102.8C528.333 102.8 527.533 102 527.533 101C527.533 100.067 528.333 99.2666 529.333 99.2666C530.267 99.2666 531.067 100.067 531.067 101C531.067 102 530.267 102.8 529.267 102.8Z" fill="#BCBEC0"/>
<path d="M496.867 47.5994C496.4 46.7994 496.667 45.7328 497.533 45.2661C498.333 44.7328 499.4 45.0661 499.867 45.8661C500.4 46.7328 500.067 47.7994 499.267 48.2661C498.4 48.7328 497.333 48.4661 496.867 47.5994Z" fill="#BCBEC0"/>
<path d="M593.267 102.266C592.8 103.066 591.733 103.4 590.867 102.866C590.067 102.4 589.733 101.333 590.267 100.466C590.733 99.6664 591.8 99.3997 592.667 99.8663C593.467 100.333 593.733 101.4 593.267 102.266Z" fill="#BCBEC0"/>
<path d="M516.2 82.8003C515.333 82.8003 514.6 82.067 514.6 81.2003C514.6 80.3337 515.333 79.667 516.2 79.667C517.067 79.667 517.733 80.4003 517.733 81.2003C517.733 82.067 517 82.8003 516.2 82.8003Z" fill="#BCBEC0"/>
<path d="M487.333 33.7332C486.867 32.9999 487.133 31.9999 487.867 31.5999C488.667 31.1999 489.6 31.4665 490 32.1999C490.467 32.9332 490.2 33.8665 489.467 34.3332C488.667 34.7332 487.733 34.4665 487.333 33.7332Z" fill="#BCBEC0"/>
<path d="M601.133 32.8004C601.533 33.5338 601.333 34.5338 600.533 34.9338C599.8 35.3338 598.867 35.0671 598.4 34.3338C598 33.6004 598.267 32.6671 599 32.2005C599.733 31.8005 600.733 32.0671 601.133 32.8004Z" fill="#BCBEC0"/>
<path d="M573.067 82.3333C572.667 83.0666 571.667 83.3333 570.933 82.8666C570.2 82.4666 569.933 81.4666 570.4 80.7333C570.8 79.9999 571.8 79.7333 572.533 80.1999C573.267 80.5999 573.533 81.5999 573.067 82.3333Z" fill="#BCBEC0"/>
<path d="M359.067 138.001C358.067 137.934 357.333 137.201 357.333 136.201C357.333 135.268 358.133 134.534 359.067 134.534C360 134.534 360.8 135.268 360.8 136.268C360.8 137.201 360 138.001 359.067 138.001Z" fill="#BCBEC0"/>
<path d="M326.933 83.4004C326.467 82.6004 326.8 81.5337 327.6 81.0671C328.467 80.6004 329.467 80.8671 330 81.7337C330.467 82.5337 330.133 83.6004 329.333 84.0671C328.467 84.5337 327.467 84.2671 326.933 83.4004Z" fill="#BCBEC0"/>
<path d="M358.133 28.4007C358.667 27.5341 359.667 27.2674 360.533 27.7341C361.333 28.2674 361.6 29.3341 361.133 30.1341C360.667 30.9341 359.6 31.2674 358.8 30.7341C357.933 30.2674 357.667 29.2007 358.133 28.4007Z" fill="#BCBEC0"/>
<path d="M421.4 27.8672C422.4 27.8672 423.133 28.6672 423.133 29.6005C423.133 30.6005 422.333 31.3339 421.4 31.3339C420.467 31.3339 419.667 30.5338 419.667 29.6005C419.667 28.6672 420.467 27.8672 421.4 27.8672Z" fill="#BCBEC0"/>
<path d="M453.467 82.4005C454 83.2671 453.667 84.2671 452.867 84.8005C452 85.2671 450.933 84.9338 450.467 84.1338C450 83.2671 450.333 82.2671 451.133 81.7338C452 81.2671 453 81.6005 453.467 82.4005Z" fill="#BCBEC0"/>
<path d="M422.333 137.467C421.8 138.267 420.733 138.534 419.933 138.067C419.133 137.6 418.867 136.534 419.333 135.734C419.8 134.867 420.867 134.6 421.667 135.067C422.533 135.6 422.8 136.6 422.333 137.467Z" fill="#BCBEC0"/>
<path d="M333.4 144.067C332.667 142.867 333.133 141.267 334.4 140.534C335.667 139.801 337.2 140.267 337.933 141.534C338.667 142.734 338.2 144.334 337 145.067C335.733 145.801 334.133 145.334 333.4 144.067Z" fill="#BCBEC0"/>
<path d="M380.467 61.0674C381.2 59.8007 382.8 59.4007 384 60.134C385.267 60.8674 385.667 62.4674 384.933 63.734C384.2 64.934 382.6 65.334 381.4 64.6674C380.133 63.934 379.733 62.334 380.467 61.0674Z" fill="#BCBEC0"/>
<path d="M475.867 60.2676C477.333 60.3342 478.467 61.4676 478.467 62.9342C478.467 64.3342 477.267 65.5343 475.867 65.5343C474.4 65.5343 473.267 64.3343 473.267 62.8676C473.267 61.4676 474.467 60.2676 475.867 60.2676Z" fill="#BCBEC0"/>
<path d="M524.267 142.534C525 143.801 524.533 145.401 523.267 146.134C522.067 146.801 520.467 146.401 519.733 145.134C519 143.868 519.467 142.267 520.733 141.601C521.933 140.867 523.533 141.267 524.267 142.534Z" fill="#BCBEC0"/>
<path d="M270.4 213.133C270.067 213.133 269.733 212.8 269.733 212.466C269.8 212.133 270.067 211.866 270.4 211.866C270.733 211.866 271 212.133 271 212.466C271 212.866 270.733 213.133 270.4 213.133Z" fill="#BCBEC0"/>
<path d="M258.867 193.534C258.667 193.2 258.8 192.867 259.133 192.667C259.4 192.534 259.8 192.6 259.933 192.934C260.133 193.2 260 193.6 259.733 193.734C259.4 193.934 259.067 193.8 258.867 193.534Z" fill="#BCBEC0"/>
<path d="M270.067 173.8C270.267 173.466 270.6 173.4 270.933 173.533C271.2 173.733 271.333 174.066 271.133 174.4C270.933 174.666 270.6 174.8 270.267 174.6C270 174.466 269.867 174.066 270.067 173.8Z" fill="#BCBEC0"/>
<path d="M292.8 173.6C293.133 173.6 293.4 173.866 293.4 174.2C293.4 174.533 293.133 174.8 292.8 174.8C292.4 174.8 292.133 174.533 292.133 174.2C292.133 173.866 292.467 173.6 292.8 173.6Z" fill="#BCBEC0"/>
<path d="M304.267 193.133C304.467 193.467 304.333 193.867 304.067 194C303.733 194.2 303.4 194.067 303.2 193.8C303.067 193.467 303.133 193.067 303.467 192.933C303.733 192.733 304.133 192.867 304.267 193.133Z" fill="#BCBEC0"/>
<path d="M293.067 212.933C292.933 213.2 292.533 213.333 292.267 213.133C291.933 213 291.867 212.6 292 212.267C292.2 212 292.6 211.933 292.867 212.067C293.2 212.267 293.267 212.6 293.067 212.933Z" fill="#BCBEC0"/>
<path d="M286.8 170.533C286.467 170.533 286.2 170.266 286.2 169.933C286.2 169.6 286.467 169.333 286.8 169.333C287.133 169.333 287.4 169.6 287.4 169.933C287.4 170.266 287.133 170.533 286.8 170.533Z" fill="#BCBEC0"/>
<path d="M275.867 151.933C275.733 151.6 275.8 151.267 276.067 151.133C276.4 150.933 276.733 151.067 276.867 151.333C277.067 151.6 276.933 152 276.667 152.133C276.4 152.267 276 152.2 275.867 151.933Z" fill="#BCBEC0"/>
<path d="M286.533 133.133C286.667 132.867 287.067 132.733 287.333 132.933C287.6 133.067 287.667 133.467 287.533 133.733C287.4 134 287 134.067 286.733 133.933C286.467 133.8 286.333 133.4 286.533 133.133Z" fill="#BCBEC0"/>
<path d="M308.133 132.934C308.467 132.934 308.667 133.2 308.667 133.534C308.667 133.867 308.4 134.134 308.133 134.134C307.8 134.134 307.533 133.867 307.533 133.534C307.533 133.2 307.8 132.934 308.133 132.934Z" fill="#BCBEC0"/>
<path d="M319.067 151.533C319.2 151.867 319.133 152.2 318.867 152.4C318.533 152.533 318.2 152.467 318 152.133C317.867 151.867 318 151.533 318.267 151.333C318.533 151.2 318.867 151.267 319.067 151.533Z" fill="#BCBEC0"/>
<path d="M308.4 170.333C308.267 170.667 307.867 170.733 307.6 170.6C307.333 170.4 307.2 170.067 307.4 169.733C307.533 169.467 307.933 169.4 308.2 169.533C308.467 169.733 308.6 170.067 308.4 170.333Z" fill="#BCBEC0"/>
<path d="M179.467 194.533C179 195.266 179.267 196.199 180 196.666C180.733 197.066 181.667 196.799 182.067 196.066C182.467 195.333 182.267 194.399 181.533 193.999C180.8 193.599 179.867 193.799 179.467 194.533Z" fill="#BCBEC0"/>
<path d="M290.867 196.667C291.333 196 291.067 195.067 290.333 194.6C289.6 194.2 288.667 194.467 288.267 195.133C287.8 195.867 288.067 196.8 288.8 197.267C289.533 197.667 290.467 197.4 290.867 196.667Z" fill="#BCBEC0"/>
<path d="M263.933 147.933C263.533 147.2 262.6 146.933 261.867 147.333C261.133 147.733 260.867 148.667 261.267 149.4C261.733 150.133 262.667 150.4 263.4 150C264.133 149.6 264.333 148.667 263.933 147.933Z" fill="#BCBEC0"/>
<path d="M208.2 146.867C207.4 146.8 206.733 147.533 206.667 148.333C206.667 149.2 207.4 149.867 208.2 149.867C209.067 149.867 209.733 149.2 209.733 148.4C209.733 147.533 209.067 146.867 208.2 146.867Z" fill="#BCBEC0"/>
<path d="M6.20025 170.601C6.60025 170.601 7.00025 170.267 7.00025 169.801C7.00025 169.401 6.66692 169.067 6.20025 169.067C5.80025 169.067 5.46692 169.401 5.46692 169.801C5.40025 170.267 5.80025 170.601 6.20025 170.601Z" fill="#BCBEC0"/>
<path d="M20.8001 146.4C21.0001 146.067 20.8668 145.6 20.5334 145.4C20.1334 145.134 19.6668 145.267 19.4668 145.667C19.2668 146 19.3334 146.467 19.7334 146.734C20.0668 146.934 20.6001 146.8 20.8001 146.4Z" fill="#BCBEC0"/>
<path d="M7.13336 121.734C6.93336 121.334 6.46669 121.2 6.06669 121.4C5.73336 121.6 5.60002 122.134 5.80002 122.467C6.00002 122.867 6.46669 123 6.86669 122.734C7.20002 122.534 7.33336 122.067 7.13336 121.734Z" fill="#BCBEC0"/>
<path d="M530.467 194C530.2 193.533 530.4 192.933 530.867 192.6C531.4 192.333 532 192.533 532.267 193C532.6 193.533 532.4 194.133 531.933 194.4C531.4 194.667 530.8 194.533 530.467 194Z" fill="#BCBEC0"/>
<path d="M549.133 161.133C549.4 160.667 550.067 160.533 550.533 160.8C551 161.067 551.2 161.733 550.933 162.2C550.6 162.733 550 162.867 549.467 162.6C549 162.267 548.8 161.667 549.133 161.133Z" fill="#BCBEC0"/>
<path d="M586.867 160.866C587.467 160.866 587.933 161.333 587.933 161.866C587.933 162.466 587.467 162.933 586.867 162.933C586.333 162.933 585.867 162.466 585.867 161.866C585.867 161.333 586.333 160.866 586.867 160.866Z" fill="#BCBEC0"/>
<path d="M302.733 162.533C302.2 162.533 301.733 162.067 301.733 161.467C301.733 160.933 302.2 160.467 302.8 160.467C303.333 160.467 303.8 160.933 303.8 161.467C303.8 162.067 303.333 162.533 302.733 162.533Z" fill="#BCBEC0"/>
<path d="M283.6 130C283.333 129.467 283.533 128.867 284 128.534C284.467 128.267 285.133 128.467 285.4 128.934C285.667 129.467 285.533 130.067 285 130.334C284.533 130.667 283.933 130.467 283.6 130Z" fill="#BCBEC0"/>
<path d="M302.2 97.1339C302.533 96.6006 303.133 96.4673 303.667 96.7339C304.133 97.0673 304.267 97.6673 304 98.1339C303.733 98.6673 303.067 98.8006 302.6 98.5339C302.133 98.2672 301.933 97.6006 302.2 97.1339Z" fill="#BCBEC0"/>
<path d="M340 96.8008C340.533 96.8008 341 97.2674 341 97.8674C341 98.4008 340.533 98.8674 340 98.8674C339.4 98.8674 338.933 98.4008 338.933 97.8674C338.933 97.2674 339.4 96.8008 340 96.8008Z" fill="#BCBEC0"/>
<path d="M359.133 129.334C359.4 129.867 359.2 130.467 358.733 130.734C358.267 131.067 357.6 130.867 357.333 130.4C357.067 129.867 357.2 129.267 357.733 129C358.2 128.667 358.867 128.867 359.133 129.334Z" fill="#BCBEC0"/>
<path d="M340.533 162.201C340.2 162.668 339.6 162.868 339.067 162.601C338.6 162.268 338.467 161.668 338.733 161.134C339 160.668 339.667 160.534 340.133 160.801C340.6 161.068 340.8 161.734 340.533 162.201Z" fill="#BCBEC0"/>
</g>
<path d="M25 178.333C27.2667 178.4 29.0667 180.2 29 182.4C29 184.6 27.2 186.4 25 186.4C22.8 186.4 21 184.6 21 182.333C21 180.133 22.8 178.333 25 178.333Z" fill="#BCBEC0"/>
<path d="M54.2667 143.866C56.0667 143.866 57.4667 145.333 57.4667 147.133C57.4667 148.933 56 150.333 54.2 150.333C52.4667 150.333 51 148.866 51 147.066C51 145.333 52.4667 143.866 54.2667 143.866Z" fill="#BCBEC0"/>
<path d="M89.6 202.133C90.5334 203.8 89.9334 205.866 88.2667 206.866C86.6667 207.8 84.5334 207.2 83.6001 205.533C82.6667 203.933 83.2667 201.8 84.8667 200.866C86.5334 199.933 88.6667 200.533 89.6 202.133Z" fill="#BCBEC0"/>
<path d="M88.6 103.934C89.5333 103.934 90.2 104.667 90.2 105.6C90.2 106.467 89.4667 107.2 88.6 107.2C87.6667 107.2 87 106.467 87 105.534C87 104.667 87.7333 103.934 88.6 103.934Z" fill="#BCBEC0"/>
<path d="M110.533 140.733C111 141.533 110.667 142.533 109.933 142.933C109.133 143.4 108.133 143.133 107.667 142.333C107.2 141.533 107.467 140.533 108.267 140.067C109.067 139.667 110.067 139.933 110.533 140.733Z" fill="#BCBEC0"/>
<path d="M89.6666 178.133C89.2 178.933 88.1333 179.2 87.3333 178.733C86.5333 178.267 86.2666 177.2 86.7333 176.4C87.2 175.6 88.2666 175.333 89.0666 175.8C89.8666 176.267 90.1333 177.267 89.6666 178.133Z" fill="#BCBEC0"/>
<path d="M46.8 178.333C46.0667 178.333 45.5333 177.733 45.5333 177C45.5333 176.267 46.1333 175.733 46.8 175.733C47.5333 175.733 48.1333 176.333 48.1333 177C48.1333 177.733 47.5333 178.333 46.8 178.333Z" fill="#BCBEC0"/>
<path d="M24.8667 141.866C24.4 141.066 24.6667 140.066 25.4667 139.6C26.3333 139.133 27.3333 139.4 27.8 140.2C28.2667 141.066 28 142.066 27.1333 142.533C26.3333 143 25.3333 142.733 24.8667 141.866Z" fill="#BCBEC0"/>
<path d="M45.4666 104.333C46.0666 103.333 47.2666 103 48.2666 103.6C49.2 104.133 49.5333 105.4 49 106.333C48.4 107.333 47.1333 107.666 46.2 107.066C45.2 106.533 44.9333 105.266 45.4666 104.333Z" fill="#BCBEC0"/>
<path d="M145.333 147.8C145.733 147.8 146.133 148.2 146.133 148.6C146.133 149.066 145.733 149.4 145.267 149.4C144.867 149.4 144.467 149.066 144.467 148.6C144.467 148.2 144.867 147.8 145.333 147.8Z" fill="#BCBEC0"/>
<path d="M158.933 170.8C159.133 171.2 159 171.733 158.6 171.933C158.2 172.2 157.667 172.067 157.467 171.667C157.267 171.267 157.4 170.733 157.8 170.533C158.2 170.267 158.667 170.4 158.933 170.8Z" fill="#BCBEC0"/>
<path d="M145.8 194.133C145.6 194.599 145 194.733 144.6 194.466C144.2 194.199 144 193.666 144.267 193.266C144.533 192.799 145.067 192.666 145.467 192.933C145.933 193.199 146.067 193.733 145.8 194.133Z" fill="#BCBEC0"/>
<path d="M119 194.733C118.4 194.733 117.867 194.199 117.867 193.533C117.867 192.933 118.4 192.399 119 192.399C119.667 192.399 120.2 192.933 120.2 193.533C120.2 194.199 119.667 194.733 119 194.733Z" fill="#BCBEC0"/>
<path d="M105.4 171.333C105.133 170.933 105.267 170.4 105.733 170.2C106.133 169.933 106.667 170.133 106.867 170.533C107.133 170.933 107 171.466 106.533 171.666C106.133 171.933 105.6 171.8 105.4 171.333Z" fill="#BCBEC0"/>
<path d="M118.267 147.934C118.6 147.334 119.333 147.2 119.867 147.467C120.4 147.8 120.533 148.534 120.267 149.067C119.933 149.6 119.267 149.734 118.733 149.467C118.133 149.134 118 148.467 118.267 147.934Z" fill="#BCBEC0"/>
<path d="M131.733 110.067C132.333 110.067 132.733 110.467 132.733 111.067C132.733 111.6 132.267 112.067 131.733 112.067C131.2 112.067 130.733 111.6 130.733 111.067C130.733 110.467 131.2 110 131.733 110.067Z" fill="#BCBEC0"/>
<path d="M146.867 134.933C147.267 135.533 147 136.333 146.4 136.733C145.733 137.066 144.933 136.866 144.533 136.2C144.2 135.6 144.4 134.8 145.067 134.4C145.667 134.066 146.533 134.266 146.867 134.933Z" fill="#BCBEC0"/>
<path d="M132.467 160.533C132.133 161.067 131.467 161.2 130.867 160.933C130.333 160.6 130.133 159.867 130.467 159.333C130.8 158.8 131.533 158.6 132.067 158.933C132.6 159.267 132.8 159.933 132.467 160.533Z" fill="#BCBEC0"/>
<path d="M103.2 161.134C102.467 161.134 101.933 160.534 101.933 159.734C101.933 159 102.533 158.4 103.267 158.467C104 158.467 104.6 159.067 104.6 159.8C104.6 160.534 104 161.134 103.2 161.134Z" fill="#BCBEC0"/>
<path d="M88.1333 135.933C87.7333 135.267 88 134.467 88.6 134.067C89.2666 133.733 90.0667 133.933 90.4 134.6C90.8 135.2 90.5333 136.067 89.9333 136.4C89.2666 136.733 88.4666 136.533 88.1333 135.933Z" fill="#BCBEC0"/>
<path d="M102.2 110.133C102.6 109.399 103.533 109.133 104.267 109.599C105 109.999 105.267 110.933 104.8 111.666C104.4 112.399 103.467 112.599 102.733 112.199C102 111.733 101.8 110.866 102.2 110.133Z" fill="#BCBEC0"/>
<path d="M237.667 189.267C238.467 189.267 239.133 189.933 239.133 190.8C239.133 191.6 238.467 192.267 237.667 192.267C236.8 192.267 236.133 191.6 236.133 190.8C236.133 189.933 236.8 189.267 237.667 189.267Z" fill="#BCBEC0"/>
<path d="M189.733 189.266C190.4 188.133 191.933 187.733 193.067 188.4C194.267 189.066 194.667 190.6 193.933 191.733C193.267 192.933 191.8 193.333 190.6 192.666C189.467 191.933 189.067 190.466 189.733 189.266Z" fill="#BCBEC0"/>
<path d="M139.533 181.733C140.8 181.733 141.867 182.733 141.867 184.067C141.867 185.333 140.8 186.333 139.533 186.333C138.267 186.333 137.2 185.267 137.2 184C137.2 182.733 138.267 181.667 139.533 181.733Z" fill="#BCBEC0"/>
<path d="M91.4667 182.733C92.0667 181.733 93.3334 181.4 94.2667 182C95.2667 182.533 95.6 183.8 95 184.8C94.4667 185.8 93.2 186.133 92.2 185.533C91.2667 185 90.9334 183.733 91.4667 182.733Z" fill="#BCBEC0"/>
<path d="M166.333 200.267C166.8 200.267 167.267 200.733 167.267 201.267C167.267 201.733 166.8 202.2 166.267 202.2C165.733 202.2 165.333 201.733 165.333 201.2C165.333 200.667 165.8 200.267 166.333 200.267Z" fill="#BCBEC0"/>
<path d="M138.533 200.6C138.8 200.2 139.333 200.067 139.8 200.267C140.2 200.533 140.333 201.133 140.133 201.533C139.867 202 139.267 202.133 138.867 201.867C138.4 201.6 138.267 201.067 138.533 200.6Z" fill="#BCBEC0"/>
<path d="M454.667 177.067C453.533 177.067 452.6 176.2 452.6 175.067C452.6 173.934 453.533 173 454.667 173.067C455.8 173.067 456.667 173.934 456.667 175.067C456.667 176.2 455.733 177.134 454.667 177.067Z" fill="#BCBEC0"/>
<path d="M423.067 124.2C422.467 123.133 422.8 121.733 423.933 121.133C425 120.533 426.333 120.867 427 121.933C427.6 123.067 427.2 124.4 426.133 125.067C425.067 125.667 423.667 125.267 423.067 124.2Z" fill="#BCBEC0"/>
<path d="M452.6 69.8663C453.467 68.4663 455.333 67.933 456.733 68.7997C458.2 69.6663 458.733 71.533 457.867 72.933C457 74.3997 455.133 74.933 453.667 74.0663C452.267 73.1997 451.733 71.333 452.6 69.8663Z" fill="#BCBEC0"/>
<path d="M515.067 70C516.067 70 516.867 70.8 516.867 71.8C516.867 72.7333 516 73.5333 515.067 73.5333C514.067 73.5333 513.267 72.7333 513.267 71.7333C513.267 70.8 514.067 70 515.067 70Z" fill="#BCBEC0"/>
<path d="M547.067 122.4C547.8 123.734 547.333 125.334 546 126.134C544.733 126.867 543.067 126.4 542.333 125.067C541.6 123.8 542.067 122.134 543.333 121.4C544.667 120.667 546.333 121.134 547.067 122.4Z" fill="#BCBEC0"/>
<path d="M516.8 176.733C516.067 178 514.4 178.466 513.133 177.666C511.867 176.933 511.467 175.333 512.2 174.066C512.933 172.8 514.533 172.333 515.8 173.066C517.067 173.866 517.533 175.466 516.8 176.733Z" fill="#BCBEC0"/>
<path d="M556 193.866C555.267 193.866 554.733 193.266 554.733 192.6C554.733 191.866 555.333 191.333 556 191.333C556.733 191.333 557.267 191.866 557.267 192.6C557.267 193.333 556.733 193.866 556 193.866Z" fill="#BCBEC0"/>
<path d="M535.8 161C535.267 160.067 535.6 158.933 536.533 158.4C537.467 157.867 538.6 158.2 539.133 159.133C539.667 160.067 539.4 161.2 538.467 161.733C537.533 162.267 536.333 161.933 535.8 161Z" fill="#BCBEC0"/>
<path d="M555 126.933C555.467 126.2 556.4 125.933 557.134 126.4C557.934 126.867 558.134 127.8 557.734 128.533C557.267 129.267 556.334 129.533 555.6 129.067C554.867 128.667 554.6 127.733 555 126.933Z" fill="#BCBEC0"/>
<path d="M593.8 126.733C594.467 126.733 595.067 127.267 595.067 127.933C595.067 128.667 594.467 129.2 593.8 129.2C593.133 129.2 592.6 128.6 592.6 127.933C592.6 127.267 593.133 126.733 593.8 126.733Z" fill="#BCBEC0"/>
<path d="M594.533 193.4C594.2 194 593.4 194.2 592.8 193.866C592.2 193.533 592 192.733 592.4 192.2C592.733 191.6 593.467 191.4 594.067 191.733C594.667 192.066 594.867 192.866 594.533 193.4Z" fill="#BCBEC0"/>
<path d="M596.4 106.534C595.733 105.334 596.133 103.8 597.4 103.067C598.6 102.4 600.133 102.8 600.867 104.067C601.533 105.267 601.133 106.8 599.867 107.534C598.667 108.2 597.133 107.8 596.4 106.534Z" fill="#BCBEC0"/>
<path d="M560.4 74.9335C559.333 74.9335 558.533 74.1335 558.533 73.0669C558.533 72.0669 559.4 71.2002 560.4 71.2002C561.467 71.2002 562.267 72.0669 562.267 73.0669C562.267 74.1335 561.4 74.9335 560.4 74.9335Z" fill="#BCBEC0"/>
<path d="M541.267 43.1997C540.733 42.333 541.067 41.1997 541.933 40.6663C542.8 40.1997 543.933 40.4663 544.467 41.3997C545 42.2663 544.667 43.3997 543.8 43.933C542.867 44.3997 541.733 44.133 541.267 43.1997Z" fill="#BCBEC0"/>
<path d="M559.6 11.0667C560 10.4667 560.8 10.2667 561.4 10.6C562 10.9334 562.2 11.7334 561.867 12.4C561.467 13 560.733 13.2 560.067 12.8C559.467 12.4667 559.267 11.6667 559.6 11.0667Z" fill="#BCBEC0"/>
<path d="M596.2 10.0661C597.2 10.0661 598.067 10.8661 598.067 11.9328C598.067 12.9328 597.2 13.7994 596.133 13.7994C595.133 13.7994 594.267 12.9328 594.267 11.9328C594.333 10.8661 595.133 9.99944 596.2 10.0661Z" fill="#BCBEC0"/>
<path d="M597.467 74.2669C596.933 75.1336 595.8 75.4669 594.867 74.9336C593.933 74.4002 593.667 73.2002 594.2 72.3336C594.733 71.4002 595.867 71.0669 596.8 71.6002C597.733 72.1336 598 73.3336 597.467 74.2669Z" fill="#BCBEC0"/>
<path d="M551.467 42.5331C551 42.5331 550.667 42.1997 550.667 41.7997C550.667 41.3997 551.067 41.0664 551.467 41.0664C551.867 41.0664 552.2 41.3997 552.2 41.7997C552.2 42.2664 551.867 42.5997 551.467 42.5331Z" fill="#BCBEC0"/>
<path d="M537.8 20.3998C537.467 19.7998 537.667 18.9998 538.267 18.6664C538.867 18.3331 539.6 18.5331 539.934 19.1331C540.267 19.7331 540.067 20.5331 539.467 20.8664C538.867 21.1998 538.134 20.9998 537.8 20.3998Z" fill="#BCBEC0"/>
<path d="M590.533 19.5331C590.8 19.9998 590.667 20.6664 590.133 20.9331C589.667 21.1998 589.067 21.0664 588.733 20.5331C588.467 20.0664 588.667 19.3998 589.133 19.1331C589.6 18.8664 590.267 19.0664 590.533 19.5331Z" fill="#BCBEC0"/>
<path d="M577.8 42.5332C577.467 43.0665 576.8 43.1999 576.267 42.9332C575.733 42.5999 575.533 41.9332 575.867 41.3999C576.2 40.8665 576.867 40.6665 577.4 40.9999C577.933 41.3332 578.133 41.9999 577.8 42.5332Z" fill="#BCBEC0"/>
<path d="M505.933 196.133C506.4 195.333 507.4 195.067 508.2 195.533C508.933 196 509.2 197 508.8 197.733C508.333 198.533 507.333 198.8 506.533 198.333C505.8 197.867 505.533 196.867 505.933 196.133Z" fill="#BCBEC0"/>
<path d="M546.467 195.467C547.467 195.467 548.2 196.2 548.2 197.133C548.2 198.067 547.4 198.867 546.467 198.867C545.533 198.867 544.8 198.067 544.8 197.133C544.8 196.2 545.533 195.467 546.467 195.467Z" fill="#BCBEC0"/>
<path d="M481.133 210.133C481.333 209.733 481.8 209.666 482.2 209.866C482.533 210.066 482.667 210.533 482.467 210.866C482.267 211.266 481.8 211.399 481.4 211.133C481.067 210.933 480.933 210.466 481.133 210.133Z" fill="#BCBEC0"/>
<path d="M504 209.666C504.533 209.733 504.933 210.133 504.933 210.666C504.933 211.133 504.533 211.533 504 211.533C503.533 211.533 503.067 211.133 503.067 210.599C503.067 210.133 503.533 209.666 504 209.666Z" fill="#BCBEC0"/>
<path d="M381.267 111.466C380.133 111.466 379.267 110.533 379.267 109.399C379.267 108.333 380.2 107.399 381.333 107.399C382.4 107.399 383.333 108.333 383.333 109.466C383.333 110.599 382.4 111.466 381.267 111.466Z" fill="#BCBEC0"/>
<path d="M359.2 75.1999C358.6 74.1333 359 72.7333 360.067 72.1333C361.133 71.5333 362.467 71.9333 363.067 72.9999C363.667 74.0666 363.333 75.3999 362.267 75.9999C361.2 76.5999 359.8 76.2666 359.2 75.1999Z" fill="#BCBEC0"/>
<path d="M380.267 38.1333C380.733 37.3333 381.733 37.0667 382.533 37.5333C383.267 38 383.533 39 383.133 39.8C382.667 40.5333 381.667 40.8 380.867 40.3333C380.067 39.9333 379.8 38.9333 380.267 38.1333Z" fill="#BCBEC0"/>
<path d="M422.4 37.5996C423.267 37.5996 424 38.3329 424 39.1996C423.933 40.0663 423.267 40.7996 422.4 40.733C421.467 40.733 420.8 40.0663 420.8 39.1996C420.8 38.2663 421.533 37.5996 422.4 37.5996Z" fill="#BCBEC0"/>
<path d="M443.8 73.7994C444.2 74.5327 443.933 75.3994 443.267 75.7994C442.533 76.1994 441.667 75.9327 441.267 75.2661C440.867 74.5327 441.133 73.6661 441.8 73.2661C442.533 72.8661 443.4 73.1327 443.8 73.7994Z" fill="#BCBEC0"/>
<path d="M423.267 110.4C422.867 111.067 421.933 111.333 421.267 110.933C420.6 110.533 420.333 109.6 420.733 108.933C421.133 108.267 422 108 422.733 108.4C423.4 108.8 423.667 109.733 423.267 110.4Z" fill="#BCBEC0"/>
<path d="M397 211.934C395.733 211.934 394.667 210.867 394.667 209.534C394.667 208.267 395.733 207.2 397.067 207.2C398.333 207.2 399.4 208.267 399.4 209.6C399.4 210.867 398.333 211.934 397 211.934Z" fill="#BCBEC0"/>
<path d="M359.067 150.867C358 149 358.667 146.667 360.533 145.6C362.4 144.533 364.8 145.133 365.867 147C366.933 148.867 366.267 151.267 364.4 152.333C362.533 153.4 360.133 152.733 359.067 150.867Z" fill="#BCBEC0"/>
<path d="M394.8 87.0001C395.733 85.4001 397.8 84.8667 399.4 85.8001C401 86.7334 401.6 88.8001 400.6 90.4001C399.667 92.0667 397.6 92.6001 396 91.6667C394.4 90.6667 393.867 88.6001 394.8 87.0001Z" fill="#BCBEC0"/>
<path d="M467.467 86C469.2 86 470.6 87.4 470.6 89.1333C470.6 90.8667 469.2 92.2 467.467 92.2C465.733 92.2 464.333 90.8 464.4 89.0667C464.4 87.4 465.8 86 467.467 86Z" fill="#BCBEC0"/>
<path d="M505 148.066C505.933 149.666 505.333 151.733 503.733 152.666C502.067 153.6 500 153.066 499.067 151.4C498.133 149.8 498.733 147.733 500.333 146.8C502 145.866 504.067 146.4 505 148.066Z" fill="#BCBEC0"/>
<path d="M468.8 211.133C468.2 212.266 466.733 212.666 465.6 212C464.533 211.333 464.133 209.866 464.8 208.8C465.4 207.666 466.867 207.266 468 207.933C469.133 208.6 469.467 210 468.8 211.133Z" fill="#BCBEC0"/>
<path d="M392.133 217.266C391.6 217.266 391.2 216.799 391.2 216.333C391.2 215.799 391.6 215.399 392.133 215.399C392.667 215.399 393.067 215.799 393.067 216.333C393.067 216.799 392.6 217.266 392.133 217.266Z" fill="#BCBEC0"/>
<path d="M375.733 190.866C375.333 190.066 375.6 189.066 376.333 188.666C377.133 188.199 378.133 188.466 378.6 189.266C379 190.066 378.733 191.066 378 191.466C377.2 191.933 376.2 191.666 375.733 190.866Z" fill="#BCBEC0"/>
<path d="M391.333 163.333C391.667 162.733 392.467 162.533 393.067 162.933C393.667 163.266 393.867 163.999 393.533 164.599C393.133 165.199 392.4 165.399 391.8 165.066C391.2 164.733 391 163.933 391.333 163.333Z" fill="#BCBEC0"/>
<path d="M422.6 162.6C423.467 162.6 424.2 163.333 424.2 164.2C424.2 165 423.467 165.733 422.6 165.733C421.733 165.733 421.067 165 421.067 164.133C421.067 163.266 421.8 162.6 422.6 162.6Z" fill="#BCBEC0"/>
<path d="M438.733 189.733C439.133 190.4 438.867 191.2 438.267 191.533C437.6 191.933 436.8 191.733 436.4 191.067C436.067 190.4 436.267 189.6 436.933 189.267C437.533 188.867 438.4 189.067 438.733 189.733Z" fill="#BCBEC0"/>
<path d="M423.133 216.933C422.867 217.333 422.267 217.533 421.867 217.266C421.467 216.999 421.267 216.466 421.533 215.999C421.8 215.599 422.333 215.466 422.8 215.666C423.2 215.933 423.333 216.466 423.133 216.933Z" fill="#BCBEC0"/>
<path d="M323.6 213.533C323.2 213.533 322.933 213.199 322.933 212.799C322.933 212.466 323.267 212.133 323.6 212.133C324 212.133 324.267 212.466 324.267 212.799C324.267 213.199 324 213.533 323.6 213.533Z" fill="#BCBEC0"/>
<path d="M312.267 194.8C312.067 194.333 312.2 193.8 312.6 193.533C313.067 193.333 313.6 193.467 313.867 193.867C314.067 194.333 313.933 194.867 313.533 195.133C313.067 195.333 312.533 195.2 312.267 194.8Z" fill="#BCBEC0"/>
<path d="M322.8 175.399C323.133 174.799 323.867 174.666 324.4 174.933C324.933 175.266 325.133 175.999 324.8 176.533C324.467 177.133 323.8 177.266 323.2 176.999C322.667 176.666 322.467 175.933 322.8 175.399Z" fill="#BCBEC0"/>
<path d="M345.133 175.133C345.667 175.133 346.067 175.533 346.067 176.066C346.067 176.666 345.667 177.066 345.067 177.066C344.533 177.066 344.133 176.599 344.133 176.066C344.133 175.533 344.533 175.133 345.133 175.133Z" fill="#BCBEC0"/>
<path d="M356.467 194.133C356.667 194.533 356.533 195.133 356.067 195.4C355.667 195.667 355.067 195.467 354.8 195.067C354.6 194.6 354.733 194 355.2 193.8C355.6 193.533 356.2 193.667 356.467 194.133Z" fill="#BCBEC0"/>
<path d="M345.467 213.266C345.267 213.6 344.867 213.733 344.533 213.533C344.2 213.333 344.133 212.933 344.333 212.6C344.467 212.266 344.933 212.2 345.2 212.333C345.533 212.533 345.667 213 345.467 213.266Z" fill="#BCBEC0"/>
<path d="M278.467 206.733C278 206.733 277.6 206.333 277.6 205.867C277.6 205.4 278 205 278.467 205C278.933 205 279.333 205.4 279.333 205.867C279.333 206.333 278.933 206.733 278.467 206.733Z" fill="#BCBEC0"/>
<path d="M270.2 192.399C270.067 192.133 270.133 191.866 270.4 191.733C270.667 191.599 270.933 191.666 271.067 191.933C271.2 192.133 271.133 192.466 270.867 192.599C270.667 192.733 270.333 192.666 270.2 192.399Z" fill="#BCBEC0"/>
<path d="M278.067 178.2C278.267 177.867 278.667 177.8 278.933 177.934C279.267 178.134 279.333 178.534 279.2 178.867C279 179.134 278.6 179.267 278.267 179.067C278 178.867 277.867 178.467 278.067 178.2Z" fill="#BCBEC0"/>
<path d="M294.4 178.066C294.733 178.066 294.933 178.333 294.933 178.6C294.933 178.933 294.733 179.133 294.4 179.133C294.133 179.133 293.867 178.866 293.867 178.6C293.867 178.333 294.133 178.066 294.4 178.066Z" fill="#BCBEC0"/>
<path d="M302.733 192.066C302.867 192.333 302.8 192.666 302.533 192.8C302.267 193 301.867 192.866 301.733 192.6C301.6 192.333 301.667 192 301.933 191.8C302.2 191.666 302.6 191.733 302.733 192.066Z" fill="#BCBEC0"/>
<path d="M294.733 206.266C294.6 206.533 294.267 206.599 294 206.466C293.733 206.266 293.6 205.933 293.8 205.666C293.933 205.399 294.267 205.333 294.533 205.466C294.8 205.666 294.933 205.999 294.733 206.266Z" fill="#BCBEC0"/>
<path d="M285.867 167.867C285.533 167.867 285.2 167.533 285.2 167.2C285.2 166.8 285.533 166.533 285.867 166.533C286.267 166.533 286.533 166.8 286.533 167.2C286.533 167.533 286.267 167.867 285.867 167.867Z" fill="#BCBEC0"/>
<path d="M273.933 148.533C273.667 148 273.867 147.333 274.4 147C274.933 146.667 275.6 146.867 275.867 147.4C276.2 147.933 276 148.6 275.467 148.933C274.933 149.2 274.267 149.067 273.933 148.533Z" fill="#BCBEC0"/>
<path d="M285.067 128.267C285.4 127.667 286.133 127.467 286.733 127.8C287.267 128.134 287.467 128.867 287.133 129.467C286.8 130.067 286.067 130.267 285.467 129.934C284.933 129.534 284.733 128.8 285.067 128.267Z" fill="#BCBEC0"/>
<path d="M308.2 128.2C308.667 128.2 309 128.534 309 129C309 129.4 308.667 129.8 308.2 129.8C307.8 129.734 307.467 129.4 307.467 129C307.467 128.534 307.8 128.2 308.2 128.2Z" fill="#BCBEC0"/>
<path d="M319.8 147.866C319.933 148.2 319.867 148.6 319.533 148.8C319.2 149 318.8 148.866 318.6 148.533C318.4 148.2 318.533 147.8 318.867 147.6C319.2 147.466 319.6 147.533 319.8 147.866Z" fill="#BCBEC0"/>
<path d="M308.867 167.8C308.6 168.267 308 168.467 307.533 168.2C307.067 167.867 306.867 167.267 307.133 166.8C307.4 166.334 308.067 166.2 308.533 166.467C309 166.734 309.133 167.334 308.867 167.8Z" fill="#BCBEC0"/>
<path d="M217.867 163.133C217.6 163.533 217.733 164 218.133 164.2C218.467 164.4 219 164.333 219.2 163.933C219.4 163.533 219.267 163.066 218.933 162.866C218.533 162.666 218.067 162.8 217.867 163.133Z" fill="#BCBEC0"/>
<path d="M227.667 181.533C227.933 181.933 228.533 182.133 228.933 181.867C229.4 181.6 229.533 181 229.333 180.6C229.067 180.133 228.467 180 228.067 180.267C227.6 180.467 227.467 181.067 227.667 181.533Z" fill="#BCBEC0"/>
<path d="M248.667 182.133C249.2 182.133 249.667 181.733 249.667 181.133C249.667 180.599 249.2 180.133 248.667 180.133C248.067 180.133 247.667 180.599 247.667 181.133C247.667 181.733 248.067 182.133 248.667 182.133Z" fill="#BCBEC0"/>
<path d="M259.6 164.266C259.867 163.8 259.733 163.2 259.267 162.933C258.867 162.666 258.267 162.866 258 163.266C257.733 163.733 257.867 164.333 258.333 164.6C258.8 164.866 259.333 164.666 259.6 164.266Z" fill="#BCBEC0"/>
<path d="M249.333 146C249.2 145.667 248.8 145.6 248.533 145.733C248.267 145.933 248.2 146.267 248.333 146.533C248.467 146.867 248.867 146.933 249.133 146.8C249.4 146.6 249.533 146.267 249.333 146Z" fill="#BCBEC0"/>
<path d="M228.667 145.066C228.133 145.066 227.6 145.533 227.6 146.133C227.6 146.733 228.067 147.2 228.667 147.2C229.267 147.2 229.8 146.733 229.8 146.133C229.8 145.533 229.267 145.066 228.667 145.066Z" fill="#BCBEC0"/>
<path d="M562.467 200C562.133 199.4 562.333 198.667 562.933 198.333C563.467 198 564.2 198.2 564.533 198.8C564.867 199.4 564.667 200.133 564.067 200.4C563.533 200.733 562.8 200.533 562.467 200Z" fill="#BCBEC0"/>
<path d="M576.133 176.267C576.333 175.934 576.8 175.8 577.2 176C577.533 176.2 577.666 176.667 577.466 177.067C577.266 177.4 576.8 177.534 576.4 177.334C576.066 177.067 575.933 176.667 576.133 176.267Z" fill="#BCBEC0"/>
<path d="M163.333 185.067C163 185.667 163.2 186.4 163.8 186.8C164.4 187.133 165.2 186.933 165.533 186.333C165.867 185.733 165.667 184.933 165.067 184.6C164.467 184.267 163.733 184.467 163.333 185.067Z" fill="#BCBEC0"/>
<path d="M176.8 210.133C177.133 210.8 178 211.066 178.667 210.666C179.333 210.266 179.6 209.4 179.2 208.733C178.8 208.066 177.933 207.8 177.267 208.2C176.6 208.6 176.4 209.466 176.8 210.133Z" fill="#BCBEC0"/>
<path d="M205.333 210.799C206 210.799 206.533 210.266 206.533 209.599C206.533 208.933 206 208.399 205.333 208.399C204.667 208.399 204.133 208.933 204.133 209.599C204.133 210.266 204.667 210.799 205.333 210.799Z" fill="#BCBEC0"/>
<path d="M220 186.467C220.267 186 220.133 185.4 219.667 185.133C219.133 184.8 218.533 185 218.267 185.467C218 185.933 218.133 186.6 218.6 186.867C219.133 187.133 219.733 187 220 186.467Z" fill="#BCBEC0"/>
<path d="M206.333 161.8C206.067 161.4 205.6 161.267 205.2 161.533C204.8 161.733 204.667 162.267 204.867 162.667C205.067 163.067 205.6 163.2 206 162.933C206.4 162.733 206.533 162.2 206.333 161.8Z" fill="#BCBEC0"/>
<path d="M178.267 161.267C177.8 161.267 177.467 161.667 177.467 162.067C177.467 162.533 177.8 162.867 178.267 162.867C178.667 162.867 179.067 162.533 179.067 162.067C179.067 161.667 178.667 161.267 178.267 161.267Z" fill="#BCBEC0"/>
<path d="M335.267 169.533C334.4 169.533 333.667 168.799 333.667 167.933C333.667 167.066 334.4 166.399 335.267 166.399C336.133 166.399 336.8 167.133 336.8 167.999C336.8 168.866 336.133 169.533 335.267 169.533Z" fill="#BCBEC0"/>
<path d="M315.6 136.266C315.267 135.6 315.467 134.8 316.133 134.4C316.8 134.066 317.6 134.266 318 134.933C318.333 135.6 318.133 136.4 317.467 136.8C316.8 137.133 316 136.933 315.6 136.266Z" fill="#BCBEC0"/>
<path d="M334.4 102.733C334.8 102.067 335.667 101.867 336.333 102.267C337 102.667 337.2 103.467 336.8 104.133C336.4 104.8 335.6 105.067 334.933 104.667C334.2 104.267 334 103.4 334.4 102.733Z" fill="#BCBEC0"/>
<path d="M372.867 101.934C373.867 101.934 374.6 102.734 374.6 103.667C374.6 104.667 373.8 105.4 372.867 105.4C371.867 105.4 371.067 104.6 371.067 103.667C371.133 102.667 371.867 101.867 372.867 101.934Z" fill="#BCBEC0"/>
<path d="M392.2 135.533C392.533 135.999 392.333 136.666 391.8 136.933C391.333 137.199 390.667 137.066 390.4 136.533C390.133 136.066 390.267 135.399 390.8 135.133C391.267 134.799 391.933 134.999 392.2 135.533Z" fill="#BCBEC0"/>
<path d="M373.6 168.8C373.267 169.467 372.467 169.667 371.867 169.267C371.2 168.933 371 168.133 371.4 167.533C371.733 166.933 372.533 166.733 373.133 167.067C373.733 167.4 374 168.2 373.6 168.8Z" fill="#BCBEC0"/>
<path d="M301.2 156.533C300.4 156.533 299.733 155.866 299.733 155.066C299.733 154.266 300.4 153.6 301.2 153.6C302 153.6 302.667 154.266 302.667 155.066C302.667 155.866 302 156.533 301.2 156.533Z" fill="#BCBEC0"/>
<path d="M286.867 132.734C286.533 132.067 286.733 131.2 287.4 130.867C288 130.467 288.867 130.734 289.2 131.334C289.6 132 289.333 132.867 288.733 133.2C288.067 133.6 287.267 133.334 286.867 132.734Z" fill="#BCBEC0"/>
<path d="M300.2 108.4C300.6 107.733 301.467 107.467 302.2 107.867C302.867 108.267 303.067 109.2 302.667 109.867C302.267 110.533 301.4 110.8 300.733 110.4C300 110 299.8 109.067 300.2 108.4Z" fill="#BCBEC0"/>
<path d="M328 107.866C328.733 107.866 329.4 108.533 329.4 109.266C329.4 110.066 328.733 110.733 327.933 110.733C327.2 110.666 326.533 110.066 326.533 109.266C326.533 108.466 327.2 107.866 328 107.866Z" fill="#BCBEC0"/>
<path d="M341.8 131.933C342 132.333 341.867 132.8 341.533 133C341.133 133.266 340.6 133.133 340.4 132.733C340.2 132.333 340.333 131.866 340.733 131.6C341.067 131.4 341.6 131.533 341.8 131.933Z" fill="#BCBEC0"/>
<path d="M328.867 155.933C328.467 156.533 327.667 156.733 327.067 156.4C326.4 156 326.2 155.2 326.533 154.533C326.933 153.933 327.733 153.733 328.4 154.067C329 154.467 329.267 155.267 328.867 155.933Z" fill="#BCBEC0"/>
<path d="M533.067 169.399C532 169.399 531.067 168.466 531.067 167.399C531.133 166.266 532 165.399 533.133 165.399C534.2 165.399 535.067 166.333 535.067 167.399C535.067 168.533 534.2 169.399 533.067 169.399Z" fill="#BCBEC0"/>
<path d="M508.933 129.867C508.267 128.733 508.667 127.267 509.8 126.6C511 125.933 512.467 126.333 513.133 127.467C513.733 128.6 513.333 130.067 512.2 130.733C511.067 131.4 509.6 131 508.933 129.867Z" fill="#BCBEC0"/>
<path d="M532 89.2662C532.467 88.3995 533.6 88.1328 534.4 88.6662C535.267 89.1328 535.6 90.2662 535.067 91.0662C534.6 91.9329 533.467 92.1995 532.6 91.7329C531.8 91.1995 531.467 90.1328 532 89.2662Z" fill="#BCBEC0"/>
<path d="M578.133 88.8662C579 88.8662 579.667 89.5329 579.667 90.4662C579.667 91.3329 579 91.9996 578.067 91.9996C577.2 91.9996 576.533 91.3329 576.533 90.3996C576.533 89.5329 577.267 88.8662 578.133 88.8662Z" fill="#BCBEC0"/>
<path d="M601.8 128.2C602.333 129.133 602 130.267 601.133 130.8C600.2 131.333 599.067 131 598.533 130.067C598 129.2 598.333 128.067 599.267 127.533C600.133 127 601.333 127.333 601.8 128.2Z" fill="#BCBEC0"/>
<path d="M579.067 168.467C578.6 169.2 577.6 169.467 576.867 169C576.133 168.6 575.867 167.6 576.333 166.867C576.733 166.067 577.733 165.8 578.467 166.267C579.267 166.733 579.467 167.667 579.067 168.467Z" fill="#BCBEC0"/>
<path d="M476.133 84.4666C474.667 84.4666 473.533 83.2666 473.533 81.8666C473.533 80.3999 474.733 79.2666 476.2 79.2666C477.6 79.2666 478.8 80.4666 478.733 81.8666C478.733 83.3333 477.6 84.4666 476.133 84.4666Z" fill="#BCBEC0"/>
<path d="M446.933 35.7331C446.267 34.4665 446.667 32.9998 447.867 32.2665C449.067 31.5998 450.6 31.9998 451.333 33.1998C452 34.3998 451.6 35.9331 450.4 36.6665C449.2 37.3331 447.667 36.9331 446.933 35.7331Z" fill="#BCBEC0"/>
<path d="M560.333 33.9327C560.933 34.9993 560.533 36.466 559.4 37.1327C558.333 37.7327 556.867 37.3327 556.2 36.1994C555.6 35.1327 556 33.666 557.133 32.9994C558.2 32.3994 559.667 32.7993 560.333 33.9327Z" fill="#BCBEC0"/>
<path d="M532.133 83.0002C531.667 83.8002 530.667 84.0669 529.867 83.6002C529.067 83.1335 528.8 82.1335 529.267 81.3335C529.733 80.5335 530.733 80.2669 531.533 80.7335C532.333 81.2002 532.6 82.2002 532.133 83.0002Z" fill="#BCBEC0"/>
<g opacity="0.6">
<path d="M88.6001 106.133L47.2001 105.866V104.8L88.6001 105V106.133Z" fill="#D1D3D4"/>
<path d="M108.6 141.8L88.1334 105.866L89.0667 105.333L109.6 141.266L108.6 141.8Z" fill="#D1D3D4"/>
<path d="M88.6667 177.533L87.7334 177L108.6 141.267L109.533 141.8L88.6667 177.533Z" fill="#D1D3D4"/>
<path d="M88.2003 177.8L46.8003 177.533V176.467L88.2003 176.733V177.8Z" fill="#D1D3D4"/>
<path d="M46.3334 177.266L25.8667 141.333L26.8 140.8L47.2667 176.733L46.3334 177.266Z" fill="#D1D3D4"/>
<path d="M26.8 141.333L25.8667 140.8L46.7334 105.066L47.6667 105.6L26.8 141.333Z" fill="#D1D3D4"/>
<path d="M131.733 111.4L103.533 111.267V110.533L131.733 110.667V111.4Z" fill="#D1D3D4"/>
<path d="M145.4 135.733L131.4 111.2L132.067 110.866L146.067 135.4L145.4 135.733Z" fill="#D1D3D4"/>
<path d="M131.8 160.133L131.133 159.733L145.4 135.399L146.067 135.733L131.8 160.133Z" fill="#D1D3D4"/>
<path d="M131.467 160.333L103.267 160.133V159.399L131.467 159.533V160.333Z" fill="#D1D3D4"/>
<path d="M102.933 159.933L88.9333 135.4L89.6 135.066L103.533 159.6L102.933 159.933Z" fill="#D1D3D4"/>
<path d="M89.6 135.467L88.9333 135.067L103.2 110.667L103.867 111.067L89.6 135.467Z" fill="#D1D3D4"/>
<path d="M166.267 201.599L139.333 201.466V200.732L166.267 200.866V201.599Z" fill="#D1D3D4"/>
<path d="M179.333 224.865L166 201.399L166.6 201.065L179.933 224.465L179.333 224.865Z" fill="#D1D3D4"/>
<path d="M126 224.533L125.4 224.199L139 200.933L139.6 201.266L126 224.533Z" fill="#D1D3D4"/>
</g>
<g opacity="0.8">
<path d="M25 183.534L-65.3333 183.067V180.667L25 181.2V183.534Z" fill="#BCBEC0"/>
<path d="M68.6667 261.467L24 182.934L26.0667 181.801L70.7333 260.267L68.6667 261.467Z" fill="#BCBEC0"/>
<path d="M54.2666 147.934L-11.0667 147.601V145.867L54.2666 146.267V147.934Z" fill="#BCBEC0"/>
<path d="M85.8666 204.267L53.5333 147.534L54.9999 146.667L87.3333 203.4L85.8666 204.267Z" fill="#BCBEC0"/>
<path d="M54.3332 260.667L52.8666 259.8L85.8666 203.4L87.3332 204.267L54.3332 260.667Z" fill="#BCBEC0"/>
<path d="M237.667 191.4L191.867 191.134V189.934L237.667 190.2V191.4Z" fill="#BCBEC0"/>
<path d="M259.8 230.867L237.133 191.067L238.2 190.467L260.867 230.267L259.8 230.867Z" fill="#BCBEC0"/>
<path d="M169.267 230.334L168.2 229.734L191.333 190.2L192.4 190.8L169.267 230.334Z" fill="#BCBEC0"/>
<path d="M139.533 184.667L93.2667 184.4V183.134L139.533 183.4V184.667Z" fill="#BCBEC0"/>
<path d="M161.933 224.533L139 184.333L140.067 183.733L163 223.933L161.933 224.533Z" fill="#BCBEC0"/>
<path d="M70.4 224L69.3333 223.4L92.7333 183.467L93.8 184.067L70.4 224Z" fill="#BCBEC0"/>
</g>
<g opacity="0.3">
<path d="M145.267 148.934L119.267 148.8V148.134L145.333 148.267L145.267 148.934Z" fill="#BCBEC0"/>
<path d="M157.867 171.4L145 148.8L145.6 148.467L158.467 171.067L157.867 171.4Z" fill="#BCBEC0"/>
<path d="M145.333 193.867L144.733 193.534L157.867 171.067L158.467 171.401L145.333 193.867Z" fill="#BCBEC0"/>
<path d="M145.067 194.067L119 193.867V193.2L145.067 193.334V194.067Z" fill="#BCBEC0"/>
<path d="M118.733 193.734L105.867 171.134L106.4 170.801L119.333 193.401L118.733 193.734Z" fill="#BCBEC0"/>
<path d="M106.4 171.134L105.867 170.801L119 148.334L119.6 148.667L106.4 171.134Z" fill="#BCBEC0"/>
<path d="M165 186L163.933 185.4L177.733 161.8L178.8 162.4L165 186Z" fill="#BCBEC0"/>
<path d="M177.467 209.734L163.933 186L165 185.4L178.533 209.134L177.467 209.734Z" fill="#BCBEC0"/>
<path d="M205.333 210.2L178 210.066V208.8L205.333 209V210.2Z" fill="#BCBEC0"/>
<path d="M205.867 209.867L204.8 209.267L218.6 185.667L219.667 186.267L205.867 209.867Z" fill="#BCBEC0"/>
<path d="M218.6 186.267L205.067 162.534L206.133 161.934L219.667 185.667L218.6 186.267Z" fill="#BCBEC0"/>
<path d="M205.6 162.867L178.267 162.667V161.467L205.6 161.6V162.867Z" fill="#BCBEC0"/>
</g>
<g opacity="0.6">
<path d="M593.467 193.266L556 193.066V192.066L593.467 192.333V193.266Z" fill="#D1D3D4"/>
<path d="M555.6 192.866L537.067 160.333L537.933 159.8L556.467 192.333L555.6 192.866Z" fill="#D1D3D4"/>
<path d="M537.867 160.333L537.067 159.8L555.933 127.467L556.8 128L537.867 160.333Z" fill="#D1D3D4"/>
<path d="M593.8 128.467L556.4 128.267V127.267L593.8 127.467V128.467Z" fill="#D1D3D4"/>
<path d="M611.933 160.733L593.4 128.2L594.267 127.733L612.8 160.267L611.933 160.733Z" fill="#D1D3D4"/>
<path d="M593.867 193.067L593 192.534L611.933 160.2L612.8 160.734L593.867 193.067Z" fill="#D1D3D4"/>
<path d="M595.8 73.733L560.4 73.5329V72.5996L595.8 72.7996V73.733Z" fill="#D1D3D4"/>
<path d="M560 73.3331L542.467 42.5331L543.267 42.0664L560.8 72.8664L560 73.3331Z" fill="#D1D3D4"/>
<path d="M543.267 42.5335L542.467 42.0668L560.333 11.4668L561.133 11.9335L543.267 42.5335Z" fill="#D1D3D4"/>
<path d="M596.2 12.3999L560.733 12.1999V11.2666L596.2 11.4666V12.3999Z" fill="#D1D3D4"/>
<path d="M613.333 42.9337L595.8 12.1337L596.6 11.667L614.133 42.467L613.333 42.9337Z" fill="#D1D3D4"/>
<path d="M596.2 73.5335L595.4 73.0668L613.333 42.4668L614.133 42.9335L596.2 73.5335Z" fill="#D1D3D4"/>
<path d="M488.067 230.934L487.2 230.467L506.933 196.667L507.8 197.2L488.067 230.934Z" fill="#D1D3D4"/>
<path d="M546.467 197.667L507.333 197.467L507.4 196.4L546.467 196.6V197.667Z" fill="#D1D3D4"/>
<path d="M565.4 231.401L546.067 197.401L546.933 196.867L566.333 230.867L565.4 231.401Z" fill="#D1D3D4"/>
<path d="M422 110.2L381.267 110V108.934L422 109.134V110.2Z" fill="#D1D3D4"/>
<path d="M380.8 109.734L360.667 74.3341L361.6 73.8008L381.733 109.201L380.8 109.734Z" fill="#D1D3D4"/>
<path d="M361.6 74.3337L360.667 73.8003L381.2 38.667L382.133 39.2003L361.6 74.3337Z" fill="#D1D3D4"/>
<path d="M422.4 39.7337L381.667 39.4671V38.4004L422.4 38.6671V39.7337Z" fill="#D1D3D4"/>
<path d="M442.067 74.8003L421.933 39.4669L422.867 38.9336L443 74.2669L442.067 74.8003Z" fill="#D1D3D4"/>
<path d="M422.467 109.933L421.533 109.4L442.067 74.2666L443 74.7999L422.467 109.933Z" fill="#D1D3D4"/>
<path d="M372.467 168.799L335.267 168.599V167.399L372.467 167.599V168.799Z" fill="#D1D3D4"/>
<path d="M334.733 168.266L316.267 135.933L317.333 135.333L335.8 167.666L334.733 168.266Z" fill="#D1D3D4"/>
<path d="M317.333 135.933L316.267 135.333L335.067 103.133L336.133 103.733L317.333 135.933Z" fill="#D1D3D4"/>
<path d="M372.867 104.266L335.6 104.066V102.866L372.867 103.066V104.266Z" fill="#D1D3D4"/>
<path d="M390.8 136.333L372.333 103.933L373.4 103.399L391.8 135.733L390.8 136.333Z" fill="#D1D3D4"/>
<path d="M373 168.466L372 167.866L390.8 135.732L391.8 136.332L373 168.466Z" fill="#D1D3D4"/>
</g>
<g opacity="0.3">
<path d="M576.8 42.2668L551.467 42.1335V41.4668L576.867 41.6001L576.8 42.2668Z" fill="#BCBEC0"/>
<path d="M551.133 41.9996L538.6 19.9329L539.2 19.5996L551.733 41.6663L551.133 41.9996Z" fill="#BCBEC0"/>
<path d="M539.2 19.9337L538.6 19.6003L551.4 -2.33301L552 -1.99967L539.2 19.9337Z" fill="#BCBEC0"/>
<path d="M589.333 20.1998L576.8 -1.86686L577.4 -2.2002L589.933 19.8665L589.333 20.1998Z" fill="#BCBEC0"/>
<path d="M577.133 42.1329L576.533 41.7995L589.333 19.8662L589.933 20.1995L577.133 42.1329Z" fill="#BCBEC0"/>
<path d="M470.8 229.866L470.333 229.533L481.533 210.333L482.067 210.666L470.8 229.866Z" fill="#BCBEC0"/>
<path d="M504 210.933L481.8 210.799V210.199L504 210.333V210.933Z" fill="#BCBEC0"/>
<path d="M514.8 230.066L503.8 210.799L504.267 210.466L515.267 229.799L514.8 230.066Z" fill="#BCBEC0"/>
<path d="M422.333 216.999L392.133 216.865V215.799L422.333 215.932V216.999Z" fill="#BCBEC0"/>
<path d="M391.667 216.599L376.733 190.332L377.6 189.799L392.6 216.065L391.667 216.599Z" fill="#BCBEC0"/>
<path d="M377.6 190.332L376.733 189.799L391.933 163.732L392.867 164.266L377.6 190.332Z" fill="#BCBEC0"/>
<path d="M422.6 164.666L392.4 164.532V163.466L422.6 163.599V164.666Z" fill="#BCBEC0"/>
<path d="M437.133 190.666L422.133 164.4L423.067 163.866L438.067 190.133L437.133 190.666Z" fill="#BCBEC0"/>
<path d="M422.8 216.733L421.867 216.199L437.133 190.133L438.067 190.666L422.8 216.733Z" fill="#BCBEC0"/>
<path d="M344.867 213.332L323.6 213.199V212.466L344.867 212.599V213.332Z" fill="#BCBEC0"/>
<path d="M323.267 212.999L312.733 194.533L313.4 194.133L323.933 212.666L323.267 212.999Z" fill="#BCBEC0"/>
<path d="M313.4 194.533L312.733 194.133L323.467 175.8L324.133 176.133L313.4 194.533Z" fill="#BCBEC0"/>
<path d="M345.067 176.466L323.8 176.333V175.6L345.067 175.733V176.466Z" fill="#BCBEC0"/>
<path d="M355.333 194.733L344.8 176.266L345.4 175.933L355.933 194.399L355.333 194.733Z" fill="#BCBEC0"/>
<path d="M345.2 213.133L344.533 212.733L355.333 194.399L355.933 194.799L345.2 213.133Z" fill="#BCBEC0"/>
<path d="M294.267 206.266L278.467 206.133V205.6L294.267 205.666V206.266Z" fill="#BCBEC0"/>
<path d="M278.2 206L270.4 192.267L270.867 192L278.733 205.733L278.2 206Z" fill="#BCBEC0"/>
<path d="M270.867 192.267L270.4 192L278.4 178.4L278.867 178.667L270.867 192.267Z" fill="#BCBEC0"/>
<path d="M294.4 178.867L278.6 178.8V178.267L294.4 178.333V178.867Z" fill="#BCBEC0"/>
<path d="M302 192.467L294.2 178.733L294.667 178.467L302.467 192.2L302 192.467Z" fill="#BCBEC0"/>
<path d="M294.533 206.134L294 205.8L302 192.2L302.467 192.467L294.533 206.134Z" fill="#BCBEC0"/>
<path d="M308 167.666L285.867 167.533V166.866L308 167V167.666Z" fill="#BCBEC0"/>
<path d="M285.6 167.333L274.6 148.133L275.2 147.8L286.2 167L285.6 167.333Z" fill="#BCBEC0"/>
<path d="M275.2 148.134L274.6 147.8L285.8 128.667L286.4 129L275.2 148.134Z" fill="#BCBEC0"/>
<path d="M308.2 129.333L286.067 129.2V128.533L308.2 128.667V129.333Z" fill="#BCBEC0"/>
<path d="M318.867 148.4L307.933 129.133L308.533 128.8L319.467 148.066L318.867 148.4Z" fill="#BCBEC0"/>
<path d="M308.333 167.466L307.733 167.133L318.867 148.066L319.467 148.4L308.333 167.466Z" fill="#BCBEC0"/>
<path d="M218.867 163.733L218.2 163.333L228.4 145.933L229 146.333L218.867 163.733Z" fill="#BCBEC0"/>
<path d="M228.2 181.199L218.2 163.732L218.867 163.332L228.8 180.865L228.2 181.199Z" fill="#BCBEC0"/>
<path d="M248.667 181.532L228.467 181.398V180.665L248.667 180.798V181.532Z" fill="#BCBEC0"/>
<path d="M248.933 181.332L248.333 180.999L258.467 163.599L259.133 163.932L248.933 181.332Z" fill="#BCBEC0"/>
<path d="M258.467 163.932L248.533 146.465L249.133 146.065L259.133 163.599L258.467 163.932Z" fill="#BCBEC0"/>
<path d="M248.867 146.665L228.667 146.532V145.799L248.867 145.865V146.665Z" fill="#BCBEC0"/>
<path d="M576.267 222.466L563.2 199.533L563.8 199.199L576.867 222.066L576.267 222.466Z" fill="#BCBEC0"/>
<path d="M563.8 199.533L563.2 199.2L576.467 176.467L577.067 176.8L563.8 199.533Z" fill="#BCBEC0"/>
<path d="M603.134 177.133L576.8 177V176.333L603.134 176.466V177.133Z" fill="#BCBEC0"/>
<path d="M327.733 155.599L301.2 155.399V154.732L327.733 154.866V155.599Z" fill="#BCBEC0"/>
<path d="M300.867 155.265L287.733 132.199L288.333 131.865L301.467 154.932L300.867 155.265Z" fill="#BCBEC0"/>
<path d="M288.333 132.199L287.733 131.866L301.133 108.933L301.733 109.333L288.333 132.199Z" fill="#BCBEC0"/>
<path d="M328 109.599L301.467 109.465V108.799L328 108.932V109.599Z" fill="#BCBEC0"/>
<path d="M340.8 132.532L327.667 109.465L328.267 109.132L341.4 132.132L340.8 132.532Z" fill="#BCBEC0"/>
<path d="M328 155.398L327.4 155.065L340.8 132.132L341.4 132.532L328 155.398Z" fill="#BCBEC0"/>
</g>
<g opacity="0.8">
<path d="M514.467 176.199L454.667 175.866V174.266L514.467 174.599V176.199Z" fill="#BCBEC0"/>
<path d="M453.933 175.466L424.333 123.466L425.733 122.666L455.333 174.666L453.933 175.466Z" fill="#BCBEC0"/>
<path d="M425.667 123.466L424.333 122.666L454.533 70.999L455.933 71.799L425.667 123.466Z" fill="#BCBEC0"/>
<path d="M515.067 72.5327L455.2 72.1994V70.666L515.067 70.9993V72.5327Z" fill="#BCBEC0"/>
<path d="M544 124.133L514.4 72.1327L515.733 71.3994L545.4 123.333L544 124.133Z" fill="#BCBEC0"/>
<path d="M515.133 175.8L513.8 175L544 123.333L545.4 124.133L515.133 175.8Z" fill="#BCBEC0"/>
<path d="M627.333 157.266L597.933 105.666L599.333 104.933L628.733 156.533L627.333 157.266Z" fill="#BCBEC0"/>
<path d="M599.333 105.666L597.933 104.933L627.933 53.666L629.267 54.3994L599.333 105.666Z" fill="#BCBEC0"/>
<path d="M466.8 210.866L397 210.466L397.067 208.666L466.8 209.066V210.866Z" fill="#BCBEC0"/>
<path d="M396.2 210L361.667 149.4L363.267 148.467L397.8 209.133L396.2 210Z" fill="#BCBEC0"/>
<path d="M363.267 149.4L361.667 148.467L396.933 88.2666L398.467 89.1999L363.267 149.4Z" fill="#BCBEC0"/>
<path d="M467.467 89.9998L397.667 89.6665L397.733 87.7998L467.467 88.1998V89.9998Z" fill="#BCBEC0"/>
<path d="M501.2 150.199L466.667 89.5327L468.267 88.666L502.8 149.266L501.2 150.199Z" fill="#BCBEC0"/>
<path d="M467.6 210.4L466 209.467L501.267 149.267L502.8 150.2L467.6 210.4Z" fill="#BCBEC0"/>
<path d="M577.667 168.266L533.067 168V166.8L577.667 167.066V168.266Z" fill="#BCBEC0"/>
<path d="M532.6 167.666L510.533 128.933L511.533 128.399L533.6 167.133L532.6 167.666Z" fill="#BCBEC0"/>
<path d="M511.533 128.933L510.533 128.4L533 89.8662L534 90.4662L511.533 128.933Z" fill="#BCBEC0"/>
<path d="M578.133 90.9996L533.533 90.7996V89.5996L578.133 89.8663V90.9996Z" fill="#BCBEC0"/>
<path d="M599.667 129.466L577.6 90.7328L578.6 90.1328L600.667 128.866L599.667 129.466Z" fill="#BCBEC0"/>
<path d="M578.2 167.933L577.2 167.333L599.667 128.866L600.667 129.466L578.2 167.933Z" fill="#BCBEC0"/>
<path d="M530.733 82.8661L476.133 82.5995V81.1328L530.733 81.4661V82.8661Z" fill="#BCBEC0"/>
<path d="M475.533 82.1995L448.533 34.7995L449.733 34.1328L476.8 81.5328L475.533 82.1995Z" fill="#BCBEC0"/>
<path d="M449.733 34.799L448.533 34.0657L476.067 -13.001L477.333 -12.2676L449.733 34.799Z" fill="#BCBEC0"/>
<path d="M557.667 35.3997L530.6 -12.0003L531.867 -12.667L558.867 34.733L557.667 35.3997Z" fill="#BCBEC0"/>
<path d="M531.333 82.5324L530.067 81.7991L557.667 34.7324L558.867 35.3991L531.333 82.5324Z" fill="#BCBEC0"/>
</g>
<path d="M564.4 155.267C563.266 154.734 562.8 153.467 563.266 152.401C563.733 151.267 565 150.801 566.133 151.267C567.2 151.734 567.733 153.001 567.2 154.134C566.733 155.201 565.466 155.734 564.4 155.267Z" fill="#BCBEC0"/>
<path d="M525.067 102.666C524.867 101.333 525.867 100.066 527.267 99.8664C528.667 99.7331 529.933 100.733 530.067 102.133C530.2 103.533 529.2 104.733 527.867 104.933C526.467 105.066 525.2 104.066 525.067 102.666Z" fill="#BCBEC0"/>
<path d="M579.867 72.9335C580.533 72.4668 581.533 72.6002 582 73.2668C582.533 74.0002 582.4 74.9335 581.667 75.4668C581 75.9335 580.067 75.8002 579.533 75.1335C579 74.4668 579.2 73.4668 579.867 72.9335Z" fill="#BCBEC0"/>
<path d="M323.067 177.866C321.933 177.333 321.4 176 321.933 174.866C322.4 173.733 323.733 173.266 324.867 173.733C326 174.2 326.533 175.533 326 176.666C325.533 177.8 324.2 178.333 323.067 177.866Z" fill="#BCBEC0"/>
<path d="M293.8 159.4C293.667 157.8 294.8 156.4 296.333 156.267C297.867 156.067 299.333 157.2 299.467 158.734C299.667 160.334 298.533 161.734 297 161.867C295.4 162.067 294 160.934 293.8 159.4Z" fill="#BCBEC0"/>
<path d="M349.4 112.267C350.267 111.667 351.533 111.867 352.133 112.733C352.8 113.6 352.6 114.867 351.733 115.467C350.867 116.133 349.6 115.933 348.933 115.067C348.333 114.2 348.467 112.933 349.4 112.267Z" fill="#BCBEC0"/>
<path d="M374.6 176.8C375.8 177.334 376.4 178.8 375.867 180.067C375.333 181.334 373.867 181.867 372.6 181.334C371.333 180.8 370.733 179.334 371.333 178.067C371.867 176.8 373.333 176.267 374.6 176.8Z" fill="#BCBEC0"/>
<path d="M398.2 178.867C398.333 180.001 397.533 181.067 396.4 181.201C395.267 181.334 394.2 180.534 394.067 179.334C393.933 178.201 394.8 177.201 395.933 177.067C397.067 176.934 398.067 177.734 398.2 178.867Z" fill="#BCBEC0"/>
<path d="M384.267 218.401C383.467 219.001 382.333 218.801 381.733 218.001C381.133 217.201 381.267 216.001 382.067 215.401C382.933 214.801 384.067 215.001 384.667 215.801C385.267 216.601 385.067 217.801 384.267 218.401Z" fill="#BCBEC0"/>
<path d="M455.467 109.867C455.2 107.734 456.733 105.867 458.867 105.6C461 105.334 462.867 106.867 463.133 109C463.333 111.134 461.867 113 459.733 113.267C457.6 113.467 455.733 112 455.467 109.867Z" fill="#BCBEC0"/>
<path d="M494.6 164.934C495.467 164.334 495.6 163.2 495 162.334C494.4 161.534 493.2 161.334 492.4 161.934C491.6 162.534 491.4 163.734 492 164.534C492.6 165.4 493.8 165.6 494.6 164.934Z" fill="#BCBEC0"/>
<path d="M528.667 129.2C528.6 128.734 528.133 128.4 527.667 128.4C527.133 128.467 526.8 128.934 526.867 129.4C526.933 129.934 527.333 130.267 527.867 130.2C528.333 130.134 528.733 129.734 528.667 129.2Z" fill="#BCBEC0"/>
<path d="M503.933 116.134C502.8 115.667 501.533 116.134 501.067 117.2C500.6 118.267 501.133 119.534 502.2 120C503.267 120.534 504.533 120 505 118.934C505.467 117.867 505 116.6 503.933 116.134Z" fill="#BCBEC0"/>
<path d="M438.867 144.667C438.467 145 438.4 145.6 438.667 146C439 146.4 439.6 146.533 440 146.2C440.467 145.867 440.533 145.267 440.2 144.867C439.933 144.467 439.333 144.4 438.867 144.667Z" fill="#BCBEC0"/>
<path d="M455.467 155.133C455.6 156.2 456.533 156.933 457.6 156.8C458.667 156.667 459.4 155.733 459.267 154.667C459.133 153.667 458.2 152.867 457.133 153C456.133 153.133 455.333 154.067 455.467 155.133Z" fill="#BCBEC0"/>
<path d="M450.933 154.333C451.467 154.6 452.067 154.333 452.267 153.8C452.467 153.333 452.267 152.733 451.733 152.467C451.2 152.267 450.6 152.533 450.4 153C450.2 153.533 450.4 154.133 450.933 154.333Z" fill="#BCBEC0"/>
</g>
</g>
<circle opacity="0.8" cx="300" cy="109.5" r="79.7324" fill="#E3F3FC"/>
<path d="M300 186.097C342.303 186.097 376.597 151.804 376.597 109.501C376.597 67.1976 342.303 32.9043 300 32.9043C257.697 32.9043 223.404 67.1976 223.404 109.501C223.404 151.804 257.697 186.097 300 186.097Z" fill="url(#paint1_linear_83_4677)"/>
<path d="M290.634 155.434C324.151 155.434 351.322 128.84 351.322 96.0341C351.322 63.2282 324.151 36.6338 290.634 36.6338C257.118 36.6338 229.947 63.2282 229.947 96.0341C229.947 128.84 257.118 155.434 290.634 155.434Z" fill="url(#paint2_linear_83_4677)"/>
<path d="M245.917 91.9734C246.997 91.9734 247.872 91.0981 247.872 90.0184C247.872 88.9387 246.997 88.0635 245.917 88.0635C244.838 88.0635 243.963 88.9387 243.963 90.0184C243.963 91.0981 244.838 91.9734 245.917 91.9734Z" fill="white"/>
<mask id="mask0_83_4677" style="mask-type:luminance" maskUnits="userSpaceOnUse" x="223" y="32" width="154" height="155">
<path d="M300.001 186.097C342.304 186.097 376.597 151.804 376.597 109.501C376.597 67.1976 342.304 32.9043 300.001 32.9043C257.698 32.9043 223.405 67.1976 223.405 109.501C223.405 151.804 257.698 186.097 300.001 186.097Z" fill="white"/>
</mask>
<g mask="url(#mask0_83_4677)">
<path d="M223.548 113.01L285.566 198.938L420.704 199.766L376.372 106.753L297.518 117.603L223.548 113.01Z" fill="url(#paint3_linear_83_4677)"/>
</g>
<mask id="mask1_83_4677" style="mask-type:luminance" maskUnits="userSpaceOnUse" x="223" y="32" width="154" height="155">
<path d="M300.001 186.097C342.304 186.097 376.597 151.804 376.597 109.501C376.597 67.1976 342.304 32.9043 300.001 32.9043C257.698 32.9043 223.405 67.1976 223.405 109.501C223.405 151.804 257.698 186.097 300.001 186.097Z" fill="white"/>
</mask>
<g mask="url(#mask1_83_4677)">
<path d="M380.117 77.8857L383.516 112.651L336.067 135.564L334.376 131.736L334.296 131.562L322.425 104.684L380.117 77.8857Z" fill="#263149"/>
<path d="M277.567 102.092L266.244 127.734L265.616 129.144H265.622L263.932 132.973L216.483 110.059L219.882 75.2939L277.567 102.092Z" fill="#6F0C97"/>
<path d="M325.713 129.48L318.597 112.315L317.224 108.997L322.886 105.951L334.296 131.562L334.376 131.736L328.087 135.217L325.713 129.48Z" fill="white"/>
<path d="M282.776 106.404L281.694 109.014L275.082 124.968L271.912 132.624L265.623 129.144L266.245 127.733L277.114 103.359L282.776 106.404Z" fill="white"/>
<path d="M318.597 112.315L325.713 129.48L323.855 129.319L318.554 131.929L317.491 130.972L302.464 118.076V115.696C301.152 117.989 297.517 117.623 297.517 117.623C292.147 123.085 289.22 118.461 289.22 118.461L295.497 109.245L304.825 107.381L317.491 113.018L318.566 112.328L318.597 112.315Z" fill="#FFDAAE"/>
<path d="M318.834 135.415C317.224 137.149 315.813 136.453 315.813 136.453C315.813 136.453 316.628 138.299 315.123 140.02C313.619 141.748 311.295 140.865 311.295 140.865L310.879 140.48C309.052 143.942 305.665 142.742 305.665 142.742L305.373 142.438C303.359 144.533 301.097 143.407 301.097 143.407L298.841 141.847L298.201 141.4L298.885 140.548C299.276 140.063 299.463 139.479 299.463 138.895C299.463 138.131 299.134 137.366 298.494 136.85C298.326 136.714 298.139 136.602 297.947 136.515C297.854 136.465 297.754 136.428 297.655 136.403C297.574 136.372 297.493 136.347 297.406 136.334C297.388 136.328 297.375 136.328 297.357 136.322H297.345C297.177 136.291 297.015 136.272 296.847 136.272C296.748 136.272 296.655 136.279 296.561 136.291C296.487 136.297 296.412 136.309 296.338 136.328C296.276 136.334 296.22 136.347 296.164 136.366C296.102 136.378 296.046 136.397 295.99 136.415V136.421C295.878 136.452 295.773 136.496 295.667 136.552C295.655 136.558 295.642 136.564 295.63 136.57C295.53 136.62 295.437 136.676 295.344 136.744C295.25 136.8 295.17 136.862 295.089 136.943C295.07 136.949 295.058 136.961 295.045 136.98C294.952 137.061 294.871 137.148 294.791 137.248L294.759 137.223C295.151 136.738 295.337 136.154 295.337 135.576C295.337 134.805 295.002 134.041 294.361 133.525C294.243 133.425 294.113 133.345 293.982 133.27C293.914 133.233 293.846 133.201 293.777 133.171C293.709 133.14 293.641 133.115 293.572 133.09C293.504 133.065 293.43 133.046 293.361 133.027C293.286 133.009 293.218 132.996 293.144 132.984C293.1 132.972 293.057 132.966 293.007 132.966C292.97 132.959 292.926 132.953 292.889 132.953H292.883C292.423 132.922 291.957 133.009 291.541 133.214C291.298 133.332 291.068 133.494 290.87 133.693C290.795 133.761 290.727 133.836 290.664 133.916L290.478 134.147L290.466 134.141C290.857 133.656 291.044 133.078 291.044 132.493C291.044 131.723 290.708 130.958 290.068 130.443C289.508 129.989 288.807 129.809 288.141 129.877C288.129 129.877 288.123 129.877 288.116 129.883C287.93 129.902 287.743 129.946 287.569 130.001C287.402 130.057 287.246 130.132 287.091 130.225C287.041 130.25 286.991 130.275 286.948 130.312C286.842 130.38 286.743 130.455 286.65 130.548C286.606 130.579 286.569 130.617 286.531 130.66C286.476 130.716 286.419 130.778 286.37 130.84L284.748 132.847L284.717 132.822L286.333 130.809C286.724 130.324 286.917 129.74 286.917 129.162C286.917 128.391 286.581 127.627 285.941 127.111C285.133 126.464 284.051 126.371 283.175 126.782C283.163 126.788 283.157 126.788 283.15 126.794C283.138 126.794 283.132 126.8 283.125 126.806C283.05 126.843 282.976 126.887 282.901 126.93C282.74 127.024 282.584 127.148 282.448 127.285C282.373 127.353 282.304 127.428 282.243 127.508L281.211 128.783L276.332 124.774L275.083 124.967L281.696 109.014L295.499 109.244L289.221 118.46C289.221 118.46 292.149 123.084 297.518 117.621C297.518 117.621 301.154 117.988 302.465 115.694V118.074L317.492 130.97L318.555 131.927L318.835 132.181C318.834 132.184 320.443 133.688 318.834 135.415Z" fill="#FFEDD2"/>
<path d="M291.656 132.445C291.656 132.706 291.619 132.967 291.538 133.216C291.296 133.334 291.066 133.495 290.867 133.694C290.792 133.763 290.724 133.837 290.662 133.918L290.476 134.148L289.736 135.068L289.724 135.055L290.463 134.142C290.855 133.657 291.041 133.079 291.041 132.495C291.041 131.724 290.706 130.96 290.065 130.444C289.506 129.991 288.804 129.811 288.139 129.879C288.978 129.624 289.916 129.773 290.643 130.351C291.308 130.879 291.656 131.656 291.656 132.445Z" fill="url(#paint4_linear_83_4677)"/>
<path d="M287.374 129.045C287.374 129.449 287.281 129.853 287.088 130.226C287.039 130.251 286.995 130.281 286.946 130.313C286.84 130.381 286.74 130.455 286.647 130.549C286.604 130.58 286.567 130.617 286.529 130.661C286.473 130.717 286.417 130.779 286.368 130.841L285.491 131.928L285.454 131.897L286.33 130.81C286.722 130.325 286.914 129.741 286.914 129.163C286.914 128.392 286.579 127.628 285.938 127.112C285.131 126.466 284.049 126.373 283.173 126.783C284.13 126.18 285.422 126.211 286.361 126.951C287.026 127.479 287.374 128.256 287.374 129.045Z" fill="url(#paint5_linear_83_4677)"/>
<path d="M296.118 135.589C296.118 135.868 296.075 136.141 295.988 136.415V136.421C295.876 136.459 295.771 136.502 295.665 136.552C295.653 136.558 295.64 136.564 295.627 136.57C295.528 136.62 295.435 136.676 295.342 136.744C295.248 136.8 295.168 136.862 295.087 136.943C295.068 136.949 295.056 136.961 295.043 136.98C294.95 137.061 294.869 137.148 294.789 137.248L294.005 138.224L293.968 138.199L294.757 137.223C295.149 136.738 295.335 136.154 295.335 135.576C295.335 134.805 295 134.041 294.359 133.525C294.241 133.425 294.111 133.345 293.98 133.27C293.912 133.233 293.844 133.195 293.775 133.171C293.707 133.139 293.639 133.108 293.57 133.09C293.502 133.065 293.427 133.046 293.359 133.027C293.29 133.009 293.216 132.99 293.142 132.984C293.098 132.972 293.055 132.966 293.005 132.966C292.968 132.959 292.924 132.953 292.887 132.953C293.645 132.811 294.459 132.984 295.106 133.494C295.77 134.023 296.118 134.806 296.118 135.589Z" fill="url(#paint6_linear_83_4677)"/>
<path d="M300.407 138.976C300.407 139.572 300.214 140.169 299.804 140.666L299.095 141.536L298.865 141.822L298.238 141.356L298.884 140.548C299.275 140.064 299.462 139.479 299.462 138.895C299.462 138.131 299.133 137.366 298.493 136.851C298.325 136.714 298.138 136.602 297.946 136.515C297.853 136.472 297.753 136.434 297.654 136.403C297.573 136.372 297.492 136.348 297.405 136.335C297.387 136.329 297.374 136.329 297.356 136.322C298.064 136.236 298.804 136.422 299.4 136.894C300.065 137.416 300.407 138.199 300.407 138.976Z" fill="url(#paint7_linear_83_4677)"/>
<path d="M299.462 138.894C299.462 139.479 299.275 140.063 298.884 140.548L298.2 141.399L297.267 142.561C296.701 143.264 295.844 143.593 295.005 143.531H294.999C294.495 143.487 293.992 143.294 293.569 142.953C292.923 142.437 292.594 141.672 292.594 140.908C292.594 140.641 292.631 140.38 292.712 140.125C292.805 139.814 292.954 139.522 293.172 139.255L294.787 137.248C294.868 137.149 294.949 137.061 295.042 136.98C295.054 136.962 295.067 136.949 295.086 136.943C295.166 136.868 295.247 136.8 295.34 136.744C295.433 136.676 295.527 136.62 295.626 136.57C295.639 136.564 295.651 136.558 295.664 136.552C295.77 136.502 295.875 136.459 295.987 136.421V136.415C296.043 136.397 296.099 136.378 296.161 136.366C296.217 136.347 296.273 136.334 296.335 136.328C296.409 136.31 296.484 136.297 296.558 136.291C296.651 136.279 296.745 136.272 296.844 136.272C297.012 136.272 297.174 136.291 297.341 136.322H297.354C297.372 136.328 297.385 136.328 297.403 136.334C297.49 136.353 297.571 136.372 297.652 136.403C297.751 136.434 297.851 136.471 297.944 136.515C298.137 136.602 298.323 136.714 298.491 136.85C299.132 137.366 299.462 138.13 299.462 138.894Z" fill="#FFDAAE"/>
<path d="M295.335 135.576C295.335 136.154 295.149 136.739 294.757 137.223L293.135 139.231C292.576 139.921 291.737 140.256 290.91 140.2C290.388 140.169 289.873 139.982 289.437 139.628C288.797 139.112 288.461 138.348 288.461 137.577C288.461 137.323 288.499 137.074 288.567 136.832C288.66 136.508 288.816 136.204 289.039 135.93L290.475 134.147L290.661 133.917C290.724 133.836 290.792 133.761 290.866 133.693C291.065 133.494 291.295 133.332 291.538 133.214C291.954 133.009 292.42 132.922 292.88 132.953H292.886C292.923 132.953 292.967 132.96 293.004 132.966C293.054 132.966 293.097 132.972 293.141 132.984C293.215 132.996 293.283 133.009 293.358 133.028C293.427 133.046 293.501 133.065 293.569 133.09C293.638 133.115 293.706 133.14 293.774 133.171C293.843 133.202 293.911 133.233 293.979 133.27C294.11 133.345 294.24 133.426 294.358 133.525C295 134.041 295.335 134.806 295.335 135.576Z" fill="#FFDAAE"/>
<path d="M291.041 132.494C291.041 133.078 290.855 133.656 290.463 134.141L288.841 136.148C288.307 136.813 287.512 137.148 286.716 137.124C286.157 137.105 285.61 136.919 285.144 136.546C284.504 136.03 284.168 135.265 284.168 134.495C284.168 134.103 284.255 133.712 284.429 133.351C284.51 133.177 284.615 133.009 284.746 132.848L286.368 130.841C286.417 130.778 286.474 130.716 286.529 130.66C286.567 130.617 286.604 130.58 286.648 130.548C286.741 130.455 286.84 130.381 286.946 130.312C286.995 130.281 287.039 130.25 287.089 130.225C287.244 130.138 287.399 130.064 287.567 130.002C287.741 129.946 287.928 129.902 288.114 129.883C288.12 129.877 288.126 129.877 288.139 129.877C288.804 129.809 289.506 129.989 290.066 130.443C290.706 130.959 291.041 131.723 291.041 132.494Z" fill="#FFDAAE"/>
<path d="M286.914 129.162C286.914 129.74 286.722 130.324 286.33 130.809L284.714 132.823C284.273 133.37 283.658 133.693 283.006 133.774C282.999 133.78 282.999 133.78 282.993 133.774C282.309 133.867 281.595 133.687 281.017 133.221C280.377 132.705 280.041 131.941 280.041 131.17C280.041 130.586 280.227 130.008 280.619 129.523L281.209 128.784L282.241 127.509C282.303 127.429 282.371 127.354 282.446 127.286C282.583 127.149 282.738 127.025 282.9 126.931C282.974 126.888 283.049 126.845 283.123 126.807C283.129 126.801 283.135 126.795 283.148 126.795C283.154 126.789 283.161 126.789 283.173 126.783C284.05 126.372 285.131 126.465 285.939 127.112C286.579 127.627 286.914 128.392 286.914 129.162Z" fill="#FFDAAE"/>
<path d="M275.082 124.968L288.691 109.131L281.694 109.015L275.082 124.968Z" fill="url(#paint8_linear_83_4677)"/>
<path d="M306.963 121.916L299.207 120.406C294.882 122.525 291.122 119.984 291.122 119.984C292.52 120.562 294.677 120.493 297.516 117.604C297.516 117.604 301.152 117.97 302.463 115.677V118.057L306.963 121.916Z" fill="url(#paint9_linear_83_4677)"/>
<path d="M302.463 118.057L324.491 126.535L325.712 129.48L323.854 129.318L318.553 131.928L302.463 118.057Z" fill="url(#paint10_linear_83_4677)"/>
<path d="M336.067 135.563L380.117 77.8848L383.516 112.65L336.067 135.563Z" fill="url(#paint11_linear_83_4677)"/>
<path d="M263.933 132.972L219.883 75.293L277.568 102.091L263.933 132.972Z" fill="url(#paint12_linear_83_4677)"/>
</g>
<mask id="mask2_83_4677" style="mask-type:luminance" maskUnits="userSpaceOnUse" x="223" y="32" width="154" height="155">
<path d="M300.001 186.097C342.304 186.097 376.597 151.804 376.597 109.501C376.597 67.1976 342.304 32.9043 300.001 32.9043C257.698 32.9043 223.405 67.1976 223.405 109.501C223.405 151.804 257.698 186.097 300.001 186.097Z" fill="white"/>
</mask>
<g mask="url(#mask2_83_4677)">
<path d="M305.373 142.437L300.276 137.501L301.001 139.728L305.373 142.437Z" fill="url(#paint13_linear_83_4677)"/>
</g>
<mask id="mask3_83_4677" style="mask-type:luminance" maskUnits="userSpaceOnUse" x="223" y="32" width="154" height="155">
<path d="M300.001 186.097C342.304 186.097 376.597 151.804 376.597 109.501C376.597 67.1976 342.304 32.9043 300.001 32.9043C257.698 32.9043 223.405 67.1976 223.405 109.501C223.405 151.804 257.698 186.097 300.001 186.097Z" fill="white"/>
</mask>
<g mask="url(#mask3_83_4677)">
<path d="M310.88 140.48L301.622 131.96V133.876L310.88 140.48Z" fill="url(#paint14_linear_83_4677)"/>
</g>
<mask id="mask4_83_4677" style="mask-type:luminance" maskUnits="userSpaceOnUse" x="223" y="32" width="154" height="155">
<path d="M300.001 186.097C342.304 186.097 376.597 151.804 376.597 109.501C376.597 67.1976 342.304 32.9043 300.001 32.9043C257.698 32.9043 223.404 67.1976 223.404 109.501C223.404 151.804 257.698 186.097 300.001 186.097Z" fill="white"/>
</mask>
<g mask="url(#mask4_83_4677)">
<path d="M315.814 136.452L304.677 126.625L304.885 128.023L315.814 136.452Z" fill="url(#paint15_linear_83_4677)"/>
</g>
<path d="M292.745 74.9878L288.268 78.8514L289.632 84.6294C289.707 84.943 289.688 85.272 289.576 85.5746C289.465 85.8773 289.266 86.1401 289.005 86.3298C288.744 86.5195 288.433 86.6277 288.111 86.6406C287.788 86.6536 287.469 86.5707 287.194 86.4025L282.17 83.31L277.142 86.4025C276.867 86.5697 276.548 86.6518 276.226 86.6384C275.905 86.625 275.594 86.5167 275.334 86.3271C275.073 86.1375 274.875 85.8752 274.763 85.5731C274.652 85.271 274.632 84.9426 274.707 84.6294L276.076 78.8514L271.599 74.9878C271.355 74.7774 271.179 74.4999 271.092 74.19C271.006 73.88 271.012 73.5514 271.111 73.2452C271.21 72.939 271.397 72.6687 271.649 72.4681C271.9 72.2675 272.205 72.1454 272.526 72.1172L278.396 71.6436L280.661 66.1631C280.784 65.8644 280.992 65.6089 281.26 65.4291C281.529 65.2493 281.844 65.1533 282.167 65.1533C282.49 65.1533 282.805 65.2493 283.074 65.4291C283.342 65.6089 283.55 65.8644 283.673 66.1631L285.937 71.6436L291.807 72.1172C292.128 72.1444 292.434 72.2657 292.687 72.4661C292.939 72.6664 293.127 72.9368 293.227 73.2434C293.326 73.55 293.333 73.8792 293.247 74.1897C293.16 74.5001 292.983 74.7781 292.739 74.9888L292.745 74.9878Z" fill="url(#paint16_linear_83_4677)"/>
<path d="M267.273 74.2222L262.796 78.0858L264.16 83.8638C264.235 84.1774 264.216 84.5064 264.104 84.809C263.993 85.1117 263.794 85.3744 263.533 85.5642C263.272 85.7539 262.961 85.8621 262.639 85.875C262.316 85.888 261.997 85.8051 261.722 85.6369L256.697 82.5444L251.67 85.6369C251.395 85.8041 251.076 85.8862 250.754 85.8728C250.432 85.8594 250.122 85.7511 249.862 85.5615C249.601 85.3719 249.403 85.1096 249.291 84.8075C249.18 84.5053 249.16 84.177 249.235 83.8638L250.604 78.0858L246.127 74.2222C245.883 74.0117 245.707 73.7342 245.62 73.4243C245.534 73.1144 245.54 72.7858 245.639 72.4796C245.738 72.1734 245.925 71.9031 246.177 71.7024C246.428 71.5018 246.733 71.3798 247.054 71.3516L252.924 70.878L255.189 65.3975C255.312 65.0988 255.52 64.8433 255.788 64.6635C256.057 64.4837 256.372 64.3877 256.695 64.3877C257.018 64.3877 257.333 64.4837 257.602 64.6635C257.87 64.8433 258.078 65.0988 258.201 65.3975L260.465 70.878L266.335 71.3516C266.656 71.3788 266.962 71.5001 267.215 71.7004C267.467 71.9008 267.655 72.1712 267.755 72.4778C267.854 72.7844 267.861 73.1136 267.774 73.424C267.688 73.7345 267.511 74.0125 267.267 74.2232L267.273 74.2222Z" fill="url(#paint17_linear_83_4677)"/>
<path d="M325.308 74.2212L320.831 78.0848L322.195 83.8628C322.27 84.1764 322.251 84.5054 322.139 84.808C322.027 85.1107 321.829 85.3735 321.568 85.5632C321.307 85.7529 320.996 85.8611 320.673 85.874C320.351 85.887 320.032 85.8041 319.757 85.6359L314.732 82.5434L309.704 85.6359C309.429 85.8031 309.111 85.8852 308.789 85.8718C308.467 85.8584 308.157 85.7501 307.896 85.5605C307.636 85.3709 307.438 85.1086 307.326 84.8065C307.215 84.5044 307.195 84.176 307.27 83.8628L308.639 78.0848L304.161 74.2212C303.918 74.0108 303.742 73.7333 303.655 73.4234C303.568 73.1134 303.575 72.7848 303.674 72.4786C303.773 72.1724 303.96 71.9021 304.211 71.7015C304.463 71.5009 304.768 71.3788 305.089 71.3506L310.959 70.877L313.224 65.3965C313.346 65.0978 313.555 64.8423 313.823 64.6625C314.091 64.4827 314.407 64.3867 314.73 64.3867C315.053 64.3867 315.368 64.4827 315.636 64.6625C315.904 64.8423 316.113 65.0978 316.236 65.3965L318.499 70.877L324.37 71.3506C324.691 71.3778 324.997 71.4991 325.25 71.6995C325.502 71.8998 325.69 72.1702 325.79 72.4768C325.889 72.7834 325.896 73.1126 325.809 73.4231C325.723 73.7335 325.546 74.0115 325.302 74.2222L325.308 74.2212Z" fill="url(#paint18_linear_83_4677)"/>
<path d="M351.311 65.3101L346.833 69.1737L348.197 74.9517C348.273 75.2653 348.253 75.5942 348.142 75.8969C348.03 76.1995 347.831 76.4623 347.571 76.6521C347.31 76.8418 346.998 76.95 346.676 76.9629C346.354 76.9758 346.035 76.893 345.76 76.7248L340.735 73.6323L335.707 76.7248C335.432 76.892 335.113 76.9741 334.792 76.9607C334.47 76.9473 334.159 76.839 333.899 76.6494C333.639 76.4598 333.44 76.1974 333.329 75.8953C333.217 75.5932 333.198 75.2649 333.272 74.9517L334.642 69.1737L330.164 65.3101C329.921 65.0996 329.744 64.8221 329.658 64.5122C329.571 64.2023 329.578 63.8737 329.676 63.5675C329.775 63.2613 329.962 62.991 330.214 62.7903C330.466 62.5897 330.771 62.4677 331.091 62.4395L336.962 61.9659L339.227 56.4854C339.349 56.1867 339.558 55.9312 339.826 55.7514C340.094 55.5716 340.41 55.4756 340.732 55.4756C341.055 55.4756 341.371 55.5716 341.639 55.7514C341.907 55.9312 342.116 56.1867 342.238 56.4854L344.502 61.9659L350.373 62.4395C350.694 62.4666 351 62.588 351.252 62.7883C351.505 62.9887 351.693 63.2591 351.792 63.5657C351.892 63.8723 351.899 64.2014 351.812 64.5119C351.725 64.8224 351.549 65.1004 351.305 65.3111L351.311 65.3101Z" fill="url(#paint19_linear_83_4677)"/>
<path d="M308.873 51.1401L304.676 55.0037L305.954 60.7817C306.025 61.0954 306.007 61.4243 305.902 61.727C305.798 62.0296 305.611 62.2924 305.367 62.4821C305.122 62.6719 304.83 62.78 304.528 62.793C304.226 62.8059 303.927 62.723 303.669 62.5548L298.958 59.4624L294.245 62.5548C293.987 62.7221 293.688 62.8042 293.387 62.7908C293.085 62.7773 292.794 62.669 292.55 62.4795C292.306 62.2899 292.12 62.0275 292.015 61.7254C291.911 61.4233 291.892 61.095 291.962 60.7817L293.246 55.0037L289.048 51.1401C288.82 50.9297 288.655 50.6522 288.574 50.3423C288.492 50.0324 288.498 49.7038 288.591 49.3976C288.684 49.0913 288.859 48.821 289.095 48.6204C289.331 48.4198 289.617 48.2978 289.918 48.2696L295.421 47.7959L297.544 42.3155C297.659 42.0168 297.855 41.7613 298.106 41.5815C298.358 41.4017 298.653 41.3057 298.956 41.3057C299.259 41.3057 299.555 41.4017 299.806 41.5815C300.057 41.7613 300.253 42.0168 300.368 42.3155L302.49 47.7959L307.994 48.2696C308.295 48.2967 308.582 48.4181 308.818 48.6184C309.055 48.8187 309.231 49.0892 309.325 49.3958C309.418 49.7024 309.424 50.0315 309.343 50.342C309.262 50.6525 309.096 50.9305 308.868 51.1411L308.873 51.1401Z" fill="url(#paint20_linear_83_4677)"/>
</g>
<defs>
<radialGradient id="paint0_radial_83_4677" cx="0" cy="0" r="1" gradientUnits="userSpaceOnUse" gradientTransform="translate(238.637 -168.283) rotate(70.1094) scale(459.488 459.488)">
<stop stop-color="#10626A"/>
<stop offset="1" stop-color="#0D192F"/>
</radialGradient>
<linearGradient id="paint1_linear_83_4677" x1="262.239" y1="39.5618" x2="350.487" y2="203.008" gradientUnits="userSpaceOnUse">
<stop stop-color="#00E6FF"/>
<stop offset="1" stop-color="#1AB0D4"/>
</linearGradient>
<linearGradient id="paint2_linear_83_4677" x1="357.267" y1="158.996" x2="210.6" y2="20.4083" gradientUnits="userSpaceOnUse">
<stop stop-color="#00E6FF"/>
<stop offset="1" stop-color="#19B1D5" stop-opacity="0"/>
</linearGradient>
<linearGradient id="paint3_linear_83_4677" x1="349.034" y1="204.169" x2="293.723" y2="97.8978" gradientUnits="userSpaceOnUse">
<stop stop-color="#00E6FF" stop-opacity="0"/>
<stop offset="1" stop-color="#0F80BE"/>
</linearGradient>
<linearGradient id="paint4_linear_83_4677" x1="287.449" y1="131.473" x2="291.529" y2="133.236" gradientUnits="userSpaceOnUse">
<stop stop-color="#D0B184"/>
<stop offset="1" stop-color="#F4EEC8" stop-opacity="0"/>
</linearGradient>
<linearGradient id="paint5_linear_83_4677" x1="283.457" y1="128.322" x2="288.61" y2="130.549" gradientUnits="userSpaceOnUse">
<stop stop-color="#D0B184"/>
<stop offset="1" stop-color="#F4EEC8" stop-opacity="0"/>
</linearGradient>
<linearGradient id="paint6_linear_83_4677" x1="292.109" y1="134.752" x2="295.985" y2="136.427" gradientUnits="userSpaceOnUse">
<stop stop-color="#D0B184"/>
<stop offset="1" stop-color="#F4EEC8" stop-opacity="0"/>
</linearGradient>
<linearGradient id="paint7_linear_83_4677" x1="296.548" y1="138.19" x2="300.289" y2="139.807" gradientUnits="userSpaceOnUse">
<stop stop-color="#D0B184"/>
<stop offset="1" stop-color="#F4EEC8" stop-opacity="0"/>
</linearGradient>
<linearGradient id="paint8_linear_83_4677" x1="273.898" y1="115.42" x2="286.845" y2="118.061" gradientUnits="userSpaceOnUse">
<stop stop-color="#D0B184"/>
<stop offset="1" stop-color="#F4EEC8" stop-opacity="0"/>
</linearGradient>
<linearGradient id="paint9_linear_83_4677" x1="291.122" y1="118.796" x2="306.963" y2="118.796" gradientUnits="userSpaceOnUse">
<stop stop-color="#D0B184"/>
<stop offset="1" stop-color="#F4EEC8" stop-opacity="0"/>
</linearGradient>
<linearGradient id="paint10_linear_83_4677" x1="309.647" y1="128.437" x2="321.688" y2="115.775" gradientUnits="userSpaceOnUse">
<stop stop-color="#D0A070"/>
<stop offset="1" stop-color="#F4EEC8" stop-opacity="0"/>
</linearGradient>
<linearGradient id="paint11_linear_83_4677" x1="409.027" y1="72.1998" x2="292.365" y2="171.098" gradientUnits="userSpaceOnUse">
<stop stop-color="#101921"/>
<stop offset="1" stop-color="#243451" stop-opacity="0"/>
</linearGradient>
<linearGradient id="paint12_linear_83_4677" x1="272.071" y1="78.5626" x2="222.098" y2="120.926" gradientUnits="userSpaceOnUse">
<stop stop-color="#101921"/>
<stop offset="1" stop-color="#243451" stop-opacity="0"/>
</linearGradient>
<linearGradient id="paint13_linear_83_4677" x1="307.057" y1="145.571" x2="295.715" y2="132.417" gradientUnits="userSpaceOnUse">
<stop stop-color="#D0B184"/>
<stop offset="1" stop-color="#F4EEC8" stop-opacity="0"/>
</linearGradient>
<linearGradient id="paint14_linear_83_4677" x1="310.746" y1="142.391" x2="299.404" y2="129.236" gradientUnits="userSpaceOnUse">
<stop stop-color="#D0B184"/>
<stop offset="1" stop-color="#F4EEC8" stop-opacity="0"/>
</linearGradient>
<linearGradient id="paint15_linear_83_4677" x1="315.539" y1="138.257" x2="304.197" y2="125.103" gradientUnits="userSpaceOnUse">
<stop stop-color="#D0B184"/>
<stop offset="1" stop-color="#F4EEC8" stop-opacity="0"/>
</linearGradient>
<linearGradient id="paint16_linear_83_4677" x1="276.601" y1="66.5997" x2="288.662" y2="71.9179" gradientUnits="userSpaceOnUse">
<stop stop-color="#F9DDA1"/>
<stop offset="1" stop-color="#FEC62E"/>
</linearGradient>
<linearGradient id="paint17_linear_83_4677" x1="251.128" y1="65.834" x2="263.19" y2="71.1522" gradientUnits="userSpaceOnUse">
<stop stop-color="#F9DDA1"/>
<stop offset="1" stop-color="#FEC62E"/>
</linearGradient>
<linearGradient id="paint18_linear_83_4677" x1="309.163" y1="65.8331" x2="321.224" y2="71.1513" gradientUnits="userSpaceOnUse">
<stop stop-color="#F9DDA1"/>
<stop offset="1" stop-color="#FEC62E"/>
</linearGradient>
<linearGradient id="paint19_linear_83_4677" x1="335.166" y1="56.9219" x2="347.227" y2="62.2401" gradientUnits="userSpaceOnUse">
<stop stop-color="#F9DDA1"/>
<stop offset="1" stop-color="#FEC62E"/>
</linearGradient>
<linearGradient id="paint20_linear_83_4677" x1="293.737" y1="42.752" x2="305.272" y2="47.5202" gradientUnits="userSpaceOnUse">
<stop stop-color="#F9DDA1"/>
<stop offset="1" stop-color="#FEC62E"/>
</linearGradient>
<clipPath id="clip0_83_4677">
<rect width="600" height="219" fill="white"/>
</clipPath>
<clipPath id="clip1_83_4677">
<rect width="600" height="400" fill="white" transform="translate(0 -91)"/>
</clipPath>
</defs>
</svg>
