<svg xmlns="http://www.w3.org/2000/svg" width="16" height="16" viewBox="0 0 16 16" fill="none">
<g clip-path="url(#clip0_13514_2415)">
<path d="M2.87217 1.16598C2.6877 0.960497 2.37157 0.943469 2.16609 1.12795C1.50322 1.72306 0.93413 2.45876 0.546997 3.28862C0.430257 3.53887 0.538487 3.83637 0.78874 3.95312C1.03899 4.06987 1.3365 3.96162 1.45324 3.71137C1.77828 3.01462 2.26204 2.38569 2.83415 1.87206C3.03963 1.68758 3.05665 1.37146 2.87217 1.16598Z" fill="#CC1A07"/>
<path d="M13.1282 1.16598C13.3127 0.960497 13.6288 0.943469 13.8343 1.12795C14.4971 1.72306 15.0662 2.45876 15.4534 3.28862C15.5701 3.53887 15.4619 3.83637 15.2116 3.95312C14.9614 4.06987 14.6639 3.96162 14.5471 3.71137C14.2221 3.01462 13.7383 2.38569 13.1662 1.87206C12.9607 1.68758 12.9437 1.37146 13.1282 1.16598Z" fill="#CC1A07"/>
<path d="M12.0437 1.8453C11.8201 1.68314 11.5075 1.73287 11.3453 1.95638C11.1832 2.1799 11.2329 2.49255 11.4564 2.6547C12.3143 3.27707 13.0704 4.26932 13.5356 5.4353C13.638 5.69177 13.9289 5.81675 14.1853 5.7144C14.4418 5.61207 14.5668 5.3212 14.4644 5.0647C13.9381 3.7456 13.073 2.59212 12.0437 1.8453Z" fill="#CC1A07"/>
<path d="M8.50025 2.52323V2.25C8.50025 1.97386 8.2764 1.75 8.00025 1.75C7.7241 1.75 7.50025 1.97386 7.50025 2.25V2.52323C4.8007 2.77523 2.68775 5.0471 2.68775 7.8125V11.6384L2.39289 12.5H2.25024C1.9741 12.5 1.75024 12.7239 1.75024 13C1.75024 13.2761 1.9741 13.5 2.25024 13.5H13.7502C14.0264 13.5 14.2502 13.2761 14.2502 13C14.2502 12.7239 14.0264 12.5 13.7502 12.5H13.6076L13.3127 11.6384V7.8125C13.3127 5.0471 11.1998 2.77523 8.50025 2.52323Z" fill="#CC1A07"/>
<path d="M3.95652 1.8453C4.18002 1.68314 4.49267 1.73287 4.65484 1.95638C4.81699 2.1799 4.76727 2.49255 4.54377 2.6547C3.68591 3.27707 2.92976 4.26932 2.46453 5.4353C2.36219 5.69177 2.07132 5.81675 1.81484 5.7144C1.55836 5.61207 1.4334 5.3212 1.53573 5.0647C2.06206 3.7456 2.92714 2.59212 3.95652 1.8453Z" fill="#CC1A07"/>
<path d="M7.25024 14C6.97409 14 6.75024 14.2239 6.75024 14.5C6.75024 14.7761 6.97409 15 7.25024 15H8.75024C9.02639 15 9.25024 14.7761 9.25024 14.5C9.25024 14.2239 9.02639 14 8.75024 14H7.25024Z" fill="#CC1A07"/>
</g>
<defs>
<clipPath id="clip0_13514_2415">
<rect width="16" height="16" fill="white"/>
</clipPath>
</defs>
</svg>