<svg width="77" height="81" viewBox="0 0 77 81" fill="none" xmlns="http://www.w3.org/2000/svg">
<path d="M75.535 52.2565C75.535 49.7293 74.4473 48.0895 73.4461 47.1154C73.6788 46.9585 73.9061 46.7853 74.1226 46.5905C75.5404 45.3566 76.2872 43.6898 76.2872 41.7795C76.2872 37.7857 72.8671 35.5777 70.5076 35.5777C70.4102 35.5777 70.3164 35.5814 70.2262 35.5886H50.6305C52.3893 32.4877 55.3332 26.4699 55.9556 20.095C56.1721 18.7962 56.0692 16.3663 55.6958 13.8715C55.4415 12.1939 54.857 9.15256 53.7639 7.4533C53.1307 6.23026 52.0267 5.26157 50.5764 4.65005C49.1206 4.04394 47.6487 3.91406 46.6692 3.91406C45.7762 3.91406 42.816 4.04394 42.0963 5.74862C41.685 6.69025 41.6471 7.86999 41.6038 9.3582C41.5389 11.788 41.4415 15.1216 39.6827 19.3914C37.4423 24.8356 32.1388 30.5774 29.2761 33.5267C28.6321 32.6663 27.566 31.6002 26.1427 31.4595C25.8072 31.427 24.8493 31.3837 20.3793 31.3837C14.8215 31.3837 7.10985 31.4541 7.03409 31.4541C6.86091 31.4541 6.68774 31.4865 6.52539 31.5515C5.97881 31.7733 3.26215 32.9747 3.26215 35.2368V74.7366C3.16474 75.3968 2.9591 77.502 4.05226 78.8928C4.60425 79.5909 5.38353 79.9967 6.31433 80.0563C7.06114 80.1104 9.02017 80.132 12.3051 80.132C17.7708 80.132 24.99 80.0617 25.0604 80.0617C25.2498 80.0617 25.4284 80.0238 25.6015 79.948C25.9046 79.8182 28.2857 78.7521 29.4655 76.8634H64.5656C65.2745 76.8634 67.0982 76.766 68.7325 75.8676C70.5346 74.8827 71.525 73.2159 71.525 71.1703C71.525 69.7254 71.092 68.5944 70.4805 67.7339C70.8269 67.5986 71.1786 67.4254 71.5196 67.2198C72.7372 66.4676 74.1929 64.9956 74.1929 62.2086C74.1929 59.9194 73.3758 58.415 72.5207 57.4625C74.063 56.5967 75.535 55.0165 75.535 52.2565Z" fill="#231F20"/>
<path d="M67.6556 43.3543C69.0897 43.1919 72.0985 41.7362 72.0985 38.2943C72.0985 34.8471 68.9327 33.3372 67.4986 33.4942H45.3595C45.3595 33.4942 50.9389 25.2143 51.7777 16.4204C52.1836 14.1583 51.361 7.05818 49.7646 4.66622C47.903 0.942993 41.1113 1.50039 40.5918 2.81002C39.7151 4.75822 41.0626 9.44473 38.1836 16.4366C35.3046 23.4285 27.7229 30.7451 25.9208 32.6013C25.9154 32.0493 25.9153 31.7462 25.9153 31.7462C25.9153 31.7462 24.8005 29.5166 23.2095 29.3597C21.6239 29.2027 4.25244 29.3597 4.25244 29.3597C4.25244 29.3597 1.86589 30.3121 1.86589 31.7462V71.3596C1.86589 71.3596 1.23272 75.0179 3.61927 75.1749C6.0004 75.3372 22.2571 75.1749 22.2571 75.1749C22.2571 75.1749 25.1415 73.941 25.8071 71.9766H61.7731C63.678 71.9766 67.3363 71.2189 67.3363 67.6851C67.3363 64.1513 64.1596 63.3883 64.1596 63.3883C65.5883 63.5506 70.0042 63.0798 70.0042 58.7234C70.0042 54.3616 66.5462 53.5336 66.5462 53.5336C66.8655 53.5336 71.3517 53.0357 71.3517 48.7659C71.3517 44.5015 67.6556 43.3543 67.6556 43.3543Z" fill="#FEFEFE"/>
<path d="M25.6881 31.351C25.2876 30.7016 24.3784 29.4786 23.2095 29.3595C21.6239 29.2026 4.25244 29.3595 4.25244 29.3595C4.25244 29.3595 1.86589 30.312 1.86589 31.7461V71.3595C1.86589 71.3595 1.23272 75.0178 3.61927 75.1747C6.00041 75.3371 22.2571 75.1747 22.2571 75.1747C22.2571 75.1747 24.8601 74.0599 25.6881 72.2687V31.351Z" fill="#FFB81C"/>
<path fill-rule="evenodd" clip-rule="evenodd" d="M9.51263 76.6416C6.22775 76.6416 4.26872 76.6199 3.52733 76.5712C2.59652 76.5063 1.81182 76.1058 1.25983 75.4023C0.166677 74.0115 0.372322 71.9118 0.469732 71.2515V31.7463C0.469732 29.4843 3.1918 28.2829 3.73297 28.0664C3.89532 28.0015 4.06849 27.9636 4.24167 27.9636C4.31743 27.9636 12.0291 27.8932 17.5868 27.8932C22.0569 27.8932 23.0147 27.9365 23.3503 27.969C24.7735 28.1151 25.8396 29.1812 26.4836 30.0362C29.3518 27.0869 34.6498 21.3451 36.8903 15.9064C38.6491 11.6366 38.7465 8.30298 38.8168 5.86772C38.8601 4.37951 38.8926 3.20518 39.3039 2.25814C40.0236 0.558875 42.9838 0.423584 43.8767 0.423584C44.8563 0.423584 46.3282 0.553465 47.784 1.16498C49.2343 1.77109 50.3383 2.73978 50.9769 3.96282C52.07 5.66208 52.6491 8.70344 52.9034 10.3811C53.2768 12.8813 53.3796 15.3057 53.1632 16.6045C52.5408 22.9794 49.5969 28.9972 47.8381 32.0981H67.4337C67.5239 32.0909 67.6177 32.0873 67.7151 32.0873C70.0746 32.0873 73.4948 34.2952 73.4948 38.2945C73.4948 40.2048 72.748 41.8662 71.3356 43.1054C71.1137 43.2948 70.8864 43.4734 70.6537 43.625C71.6603 44.5991 72.748 46.2388 72.748 48.766C72.748 51.526 71.2706 53.1062 69.7337 53.9721C70.5833 54.9245 71.4005 56.4344 71.4005 58.7235C71.4005 61.5051 69.9448 62.9825 68.7271 63.7293C68.3862 63.9404 68.0344 64.1081 67.6881 64.2434C68.2996 65.1039 68.7325 66.2349 68.7325 67.6852C68.7325 69.7254 67.7422 71.3922 65.9401 72.3826C64.3058 73.2755 62.4821 73.3729 61.7731 73.3729H26.673C25.4933 75.2616 23.1122 76.3277 22.8091 76.4576C22.6359 76.5333 22.4573 76.5712 22.2734 76.5712C22.1976 76.5712 14.9784 76.6416 9.51263 76.6416ZM3.26215 31.7572V71.3598C3.26215 71.4391 3.25494 71.5185 3.24051 71.5979C3.13769 72.2256 3.15392 73.2971 3.45697 73.6814C3.48944 73.7247 3.53274 73.7734 3.71132 73.7842C4.17132 73.8167 5.5567 73.8491 9.51263 73.8491C14.329 73.8491 20.5146 73.795 21.9432 73.7842C22.6792 73.4162 24.1512 72.5179 24.4813 71.5329C24.6761 70.9647 25.2065 70.5805 25.8072 70.5805H61.7731C62.4712 70.5805 65.9455 70.4398 65.9455 67.6852C65.9455 65.3961 64.0839 64.8171 63.8296 64.7467C63.1044 64.5898 62.6498 63.8917 62.7689 63.1611C62.8879 62.4305 63.5752 61.9218 64.3112 62.003C64.3816 62.0084 64.5006 62.0192 64.6738 62.0192C65.0256 62.0192 66.254 61.9705 67.266 61.3482C68.1697 60.7962 68.6081 59.9357 68.6081 58.7235C68.6081 55.6605 66.5029 54.9678 66.2107 54.8866C65.518 54.7351 65.0634 54.0911 65.1392 53.3822C65.215 52.6841 65.8102 52.1537 66.5083 52.1375C66.5949 52.1267 67.5582 52.0293 68.462 51.4881C69.4685 50.8874 69.9556 49.9999 69.9556 48.766C69.9556 47.451 69.5172 46.3741 68.6514 45.5732C67.9911 44.9616 67.3039 44.7073 67.2389 44.6856C66.6003 44.4962 66.1999 43.8901 66.254 43.2299C66.3135 42.5643 66.8439 42.0393 67.5041 41.969C67.9966 41.9095 68.8299 41.5848 69.4956 41.0057C70.2965 40.3022 70.7024 39.3876 70.7024 38.2945C70.7024 35.8917 68.5648 34.8797 67.7151 34.8797C67.6863 34.8797 67.6664 34.8797 67.6556 34.8797C67.6015 34.8869 67.5492 34.8905 67.4987 34.8905H45.3595C44.84 34.8905 44.3692 34.6037 44.1257 34.1491C43.8821 33.6945 43.9146 33.1425 44.2014 32.715C44.2556 32.6338 49.5969 24.6083 50.387 16.2852C50.3906 16.2491 50.396 16.2112 50.4032 16.1715C50.5493 15.376 50.5277 13.3521 50.1435 10.7978C49.7755 8.36792 49.1856 6.31148 48.6065 5.4402C48.5741 5.3933 48.5452 5.34279 48.52 5.28868C47.7515 3.76259 45.6193 3.21601 43.8767 3.21601C42.8106 3.21601 42.0909 3.41083 41.8041 3.54612C41.658 4.03858 41.6363 4.9315 41.6038 5.9489C41.5335 8.44909 41.4252 12.2264 39.4716 16.9671C36.7333 23.618 30.0175 30.4313 27.4902 32.9964C27.2683 33.2237 27.0735 33.4185 26.9274 33.5755C26.5323 33.9814 25.9316 34.1112 25.4067 33.9002C24.8764 33.6891 24.53 33.1804 24.5246 32.6122V32.1143C24.1566 31.5136 23.5289 30.7939 23.0743 30.7506C22.8362 30.7235 21.8079 30.6856 17.5868 30.6856C12.646 30.6856 6.00587 30.7398 4.55013 30.7506C3.91156 31.0591 3.32168 31.5353 3.26215 31.7572Z" fill="#231F20"/>
<path d="M25.9208 73.373C25.1524 73.373 24.5246 72.7507 24.5246 71.9768V32.6015C24.5246 31.833 25.1524 31.2107 25.9208 31.2107C26.6947 31.2107 27.317 31.833 27.317 32.6015V71.9768C27.317 72.7507 26.6947 73.373 25.9208 73.373Z" fill="#231F20"/>
</svg>
