<svg width="33" height="32" viewBox="0 0 33 32" fill="none" xmlns="http://www.w3.org/2000/svg">
<rect x="0.666504" width="32" height="32" rx="8" fill="#E3F3FC"/>
<path fill-rule="evenodd" clip-rule="evenodd" d="M19.8987 17.2865C19.0296 18.0328 17.9003 18.4835 16.6667 18.4835C15.4331 18.4835 14.3039 18.0328 13.4353 17.2878C11.0271 18.3239 9.18949 20.4745 8.63261 23.0751C8.63261 23.0776 8.63199 23.0801 8.63137 23.0826C8.52086 23.6301 8.66241 24.1982 9.01628 24.6303C9.37015 25.0624 9.89972 25.3126 10.4578 25.3126L22.8986 25.2946C23.448 25.2946 23.972 25.0462 24.3221 24.6179C24.6723 24.1895 24.812 23.6264 24.7021 23.0844C24.7021 23.0832 24.7015 23.0813 24.7015 23.0801C24.1551 20.4751 22.3113 18.3227 19.8987 17.2865ZM21.0125 11.6544H12.3209C12.3209 11.6544 12.3209 11.4613 12.3209 13.5169C12.3209 15.9151 14.2685 17.8626 16.6667 17.8626C19.065 17.8626 21.0125 15.9151 21.0125 13.5169V11.6544ZM21.0125 7.3086C21.0125 7.05779 20.861 6.83119 20.6295 6.73496C20.3973 6.63873 20.1303 6.69212 19.9528 6.86968L18.5292 8.29323L17.1056 6.86968C16.8635 6.62694 16.4699 6.62694 16.2278 6.86968L14.8042 8.29323L13.3807 6.86968C13.2031 6.69212 12.9362 6.63873 12.704 6.73496C12.4724 6.83119 12.3209 7.05779 12.3209 7.3086V11.0336H21.0125V7.3086Z" fill="#28519E"/>
</svg>
