<svg width="16" height="16" viewBox="0 0 16 16" fill="none" xmlns="http://www.w3.org/2000/svg">
<path d="M7.99998 1.875C8.38829 1.875 8.74652 2.08009 8.94341 2.41645L14.8501 12.4797C15.0497 12.8188 15.0497 13.2371 14.8555 13.5762C14.6614 13.9153 14.2977 14.1259 13.9067 14.1259H2.09331C1.70226 14.1259 1.33857 13.9153 1.14441 13.5762C0.950257 13.2371 0.952991 12.816 1.14988 12.4797L7.05655 2.41645C7.25344 2.08009 7.61167 1.875 7.99998 1.875ZM7.99998 5.37525C7.63628 5.37525 7.34368 5.66785 7.34368 6.03155V9.09427C7.34368 9.45796 7.63628 9.75056 7.99998 9.75056C8.36368 9.75056 8.65628 9.45796 8.65628 9.09427V6.03155C8.65628 5.66785 8.36368 5.37525 7.99998 5.37525ZM8.87504 11.5007C8.87504 11.2686 8.78285 11.046 8.61874 10.8819C8.45464 10.7178 8.23206 10.6256 7.99998 10.6256C7.7679 10.6256 7.54532 10.7178 7.38122 10.8819C7.21711 11.046 7.12492 11.2686 7.12492 11.5007C7.12492 11.7328 7.21711 11.9553 7.38122 12.1195C7.54532 12.2836 7.7679 12.3758 7.99998 12.3758C8.23206 12.3758 8.45464 12.2836 8.61874 12.1195C8.78285 11.9553 8.87504 11.7328 8.87504 11.5007Z" fill="white"/>
</svg>
