<svg xmlns="http://www.w3.org/2000/svg" width="20" height="16" viewBox="0 0 20 16" fill="none">
<g clip-path="url(#clip0_3008_1598)">
<path d="M17.3333 0H2.66667C1.19391 0 0 1.19391 0 2.66667V13.3333C0 14.8061 1.19391 16 2.66667 16H17.3333C18.8061 16 20 14.8061 20 13.3333V2.66667C20 1.19391 18.8061 0 17.3333 0Z" fill="white"/>
<path d="M0.425293 1.23067H19.5746C19.1006 0.492 18.2766 0 17.3333 0H2.66663C1.72396 0 0.89996 0.492 0.425293 1.23067Z" fill="#A62842"/>
<path d="M0.686748 2.4613C0.681415 2.52997 0.666748 2.59597 0.666748 2.66664V3.69264H20.0001V2.66664C20.0001 2.59664 19.9854 2.53064 19.9801 2.4613H0.686748Z" fill="#A62842"/>
<path d="M0.666748 4.92334H20.0001V6.15401H0.666748V4.92334Z" fill="#A62842"/>
<path d="M0.666748 7.38464H20.0001V8.61531H0.666748V7.38464Z" fill="#A62842"/>
<path d="M0 9.84595H20V11.0766H0V9.84595Z" fill="#A62842"/>
<path d="M0 13.3334C0 13.4034 0.0153333 13.4694 0.0206667 13.5387H19.9793C19.9847 13.47 20 13.404 20 13.3334V12.3074H0V13.3334Z" fill="#A62842"/>
<path d="M19.5746 14.7693H0.425293C0.899293 15.508 1.72329 16 2.66663 16H17.3333C18.276 16 19.1 15.508 19.5746 14.7693Z" fill="#A62842"/>
<path d="M2.66667 0H10V8.61533H0V2.66667C0 1.19467 1.19467 0 2.66667 0Z" fill="#102D5E"/>
<path opacity="0.15" d="M17.3333 0H2.66667C1.194 0 0 1.194 0 2.66667V13.3333C0 14.806 1.194 16 2.66667 16H17.3333C18.806 16 20 14.806 20 13.3333V2.66667C20 1.194 18.806 0 17.3333 0ZM19.3333 13.3333C19.3333 14.436 18.436 15.3333 17.3333 15.3333H2.66667C1.564 15.3333 0.666667 14.436 0.666667 13.3333V2.66667C0.666667 1.564 1.564 0.666667 2.66667 0.666667H17.3333C18.436 0.666667 19.3333 1.564 19.3333 2.66667V13.3333Z" fill="black"/>
<path opacity="0.2" d="M17.3334 0.666626H2.66675C1.56208 0.666626 0.666748 1.56196 0.666748 2.66663V3.33329C0.666748 2.22863 1.56208 1.33329 2.66675 1.33329H17.3334C18.4381 1.33329 19.3334 2.22863 19.3334 3.33329V2.66663C19.3334 1.56196 18.4381 0.666626 17.3334 0.666626Z" fill="white"/>
<path d="M2.40062 2.30872L2.79529 2.02205H2.30795L2.15729 1.55872L2.00662 2.02205H1.51929L1.91329 2.30872L1.76262 2.77205L2.15729 2.48605L2.55129 2.77205L2.40062 2.30872Z" fill="white"/>
<path d="M4.3867 2.30872L4.78137 2.02205H4.29404L4.14337 1.55872L3.9927 2.02205H3.50537L3.89937 2.30872L3.7487 2.77205L4.14337 2.48605L4.53737 2.77205L4.3867 2.30872Z" fill="white"/>
<path d="M6.37345 2.30872L6.76745 2.02205H6.28012L6.12945 1.55872L5.97879 2.02205H5.49146L5.88545 2.30872L5.73545 2.77205L6.12945 2.48605L6.52345 2.77205L6.37345 2.30872Z" fill="white"/>
<path d="M3.37743 3.52197L3.77209 3.23597H3.28476L3.13409 2.77197L2.98343 3.23597H2.49609L2.89009 3.52197L2.73943 3.98597L3.13409 3.69931L3.52809 3.98597L3.37743 3.52197Z" fill="white"/>
<path d="M5.36393 3.52197L5.75793 3.23597H5.2706L5.11993 2.77197L4.96927 3.23597H4.48193L4.87593 3.52197L4.72593 3.98597L5.11993 3.69931L5.51393 3.98597L5.36393 3.52197Z" fill="white"/>
<path d="M7.35002 3.52197L7.74402 3.23597H7.25668L7.10602 2.77197L6.95535 3.23597H6.46802L6.86268 3.52197L6.71202 3.98597L7.10602 3.69931L7.50068 3.98597L7.35002 3.52197Z" fill="white"/>
<path d="M3.37743 5.94934L3.77209 5.66267H3.28476L3.13409 5.19934L2.98343 5.66267H2.49609L2.89009 5.94934L2.73943 6.41267L3.13409 6.12667L3.52809 6.41267L3.37743 5.94934Z" fill="white"/>
<path d="M5.36393 5.94934L5.75793 5.66267H5.2706L5.11993 5.19934L4.96927 5.66267H4.48193L4.87593 5.94934L4.72593 6.41267L5.11993 6.12667L5.51393 6.41267L5.36393 5.94934Z" fill="white"/>
<path d="M7.35002 5.94934L7.74402 5.66267H7.25668L7.10602 5.19934L6.95535 5.66267H6.46802L6.86268 5.94934L6.71202 6.41267L7.10602 6.12667L7.50068 6.41267L7.35002 5.94934Z" fill="white"/>
<path d="M8.35929 2.30872L8.7533 2.02205H8.26596L8.1153 1.55872L7.96463 2.02205H7.47729L7.87196 2.30872L7.7213 2.77205L8.1153 2.48605L8.50996 2.77205L8.35929 2.30872Z" fill="white"/>
<path d="M2.40062 4.73596L2.79529 4.4493H2.30795L2.15729 3.98596L2.00662 4.4493H1.51929L1.91329 4.73596L1.76262 5.1993L2.15729 4.91263L2.55129 5.1993L2.40062 4.73596Z" fill="white"/>
<path d="M4.3867 4.73596L4.78137 4.4493H4.29404L4.14337 3.98596L3.9927 4.4493H3.50537L3.89937 4.73596L3.7487 5.1993L4.14337 4.91263L4.53737 5.1993L4.3867 4.73596Z" fill="white"/>
<path d="M6.37345 4.73596L6.76745 4.4493H6.28012L6.12945 3.98596L5.97879 4.4493H5.49146L5.88545 4.73596L5.73545 5.1993L6.12945 4.91263L6.52345 5.1993L6.37345 4.73596Z" fill="white"/>
<path d="M8.35929 4.73596L8.7533 4.4493H8.26596L8.1153 3.98596L7.96463 4.4493H7.47729L7.87196 4.73596L7.7213 5.1993L8.1153 4.91263L8.50996 5.1993L8.35929 4.73596Z" fill="white"/>
<path d="M2.40062 7.16272L2.79529 6.87672H2.30795L2.15729 6.41272L2.00662 6.87672H1.51929L1.91329 7.16272L1.76262 7.62672L2.15729 7.34005L2.55129 7.62672L2.40062 7.16272Z" fill="white"/>
<path d="M4.3867 7.16272L4.78137 6.87672H4.29404L4.14337 6.41272L3.9927 6.87672H3.50537L3.89937 7.16272L3.7487 7.62672L4.14337 7.34005L4.53737 7.62672L4.3867 7.16272Z" fill="white"/>
<path d="M6.37345 7.16272L6.76745 6.87672H6.28012L6.12945 6.41272L5.97879 6.87672H5.49146L5.88545 7.16272L5.73545 7.62672L6.12945 7.34005L6.52345 7.62672L6.37345 7.16272Z" fill="white"/>
<path d="M8.35929 7.16272L8.7533 6.87672H8.26596L8.1153 6.41272L7.96463 6.87672H7.47729L7.87196 7.16272L7.7213 7.62672L8.1153 7.34005L8.50996 7.62672L8.35929 7.16272Z" fill="white"/>
</g>
<defs>
<clipPath id="clip0_3008_1598">
<rect width="20" height="16" fill="white"/>
</clipPath>
</defs>
</svg>