
<svg width="14" height="12" viewBox="0 0 14 12" fill="none" xmlns="http://www.w3.org/2000/svg">
<path d="M13.7617 2.26422L5.14891 10.8771C5.0739 10.9523 4.98476 11.0121 4.88661 11.0528C4.78847 11.0936 4.68324 11.1145 4.57697 11.1145C4.4707 11.1145 4.36547 11.0936 4.26732 11.0528C4.16917 11.0121 4.08004 10.9523 4.00502 10.8771L0.236908 7.10894C0.161799 7.03383 0.102219 6.94466 0.0615703 6.84653C0.0209216 6.74839 1.11921e-09 6.64321 0 6.53699C-1.11921e-09 6.43077 0.0209216 6.32559 0.0615703 6.22746C0.102219 6.12932 0.161799 6.04015 0.236908 5.96505C0.312017 5.88994 0.401184 5.83036 0.499319 5.78971C0.597453 5.74906 0.702634 5.72814 0.808854 5.72814C0.915074 5.72814 1.02025 5.74906 1.11839 5.78971C1.21652 5.83036 1.30569 5.88994 1.3808 5.96505L4.57764 9.16189L12.6192 1.12167C12.7709 0.969984 12.9766 0.884766 13.1911 0.884766C13.4057 0.884766 13.6114 0.969984 13.7631 1.12167C13.9148 1.27336 14 1.4791 14 1.69362C14 1.90814 13.9148 2.11388 13.7631 2.26557L13.7617 2.26422Z" fill="#006028"/>
</svg>
