<svg width="289" height="159" viewBox="0 0 289 159" fill="none" xmlns="http://www.w3.org/2000/svg">
<g opacity="0.2">
<path d="M165.248 57.3898C165.248 58.5573 164.308 59.4979 163.14 59.4979C161.973 59.4979 161.032 58.5573 161.032 57.3898" stroke="white" stroke-width="1.5" stroke-miterlimit="10" stroke-linecap="round" stroke-linejoin="round"/>
<path d="M168.978 54.1466V49.0871C168.978 45.9087 166.513 43.2168 163.367 43.1195C160.027 43.0222 157.302 45.6817 157.302 48.9574V54.1466C157.302 54.8601 156.719 55.4439 156.005 55.4439C155.454 55.4439 155.032 55.8655 155.032 56.4168C155.032 56.9682 155.454 57.3898 156.005 57.3898H170.275C170.827 57.3898 171.248 56.9682 171.248 56.4168C171.248 55.8655 170.827 55.4439 170.275 55.4439C169.562 55.4439 168.978 54.8925 168.978 54.1466Z" stroke="white" stroke-width="1.5" stroke-miterlimit="10" stroke-linecap="round" stroke-linejoin="round"/>
<path d="M173.584 53.9519C174.168 54.9573 173.843 56.2546 172.838 56.8384C172.287 57.1627 171.606 57.2276 171.054 57.0006" stroke="white" stroke-width="1.5" stroke-miterlimit="10" stroke-linecap="round" stroke-linejoin="round"/>
<path d="M170.794 55.606L177.897 51.3898C178.351 51.1303 178.513 50.5141 178.221 50.0601C177.962 49.606 177.346 49.4438 176.892 49.7357C176.275 50.0925 175.465 49.8979 175.108 49.2817L172.513 44.9357C171.443 43.1195 169.562 42.0492 167.583 41.9844" stroke="white" stroke-width="1.5" stroke-miterlimit="10" stroke-linecap="round" stroke-linejoin="round"/>
<path d="M167.626 41.9841C166.864 41.9841 165.535 42.8667 165.317 43.6172" stroke="white" stroke-width="1.5"/>
<path d="M112.933 73.8497C112.933 75.0173 111.992 75.9578 110.825 75.9578C109.657 75.9578 108.717 75.0173 108.717 73.8497" stroke="white" stroke-width="1.5" stroke-miterlimit="10" stroke-linecap="round" stroke-linejoin="round"/>
<path d="M116.663 70.6065V65.5471C116.663 62.3687 114.198 59.6768 111.052 59.5795C107.711 59.4822 104.987 62.1417 104.987 65.4173V70.6065C104.987 71.32 104.403 71.9038 103.69 71.9038C103.138 71.9038 102.717 72.3254 102.717 72.8768C102.717 73.4281 103.138 73.8498 103.69 73.8498H117.96C118.511 73.8498 118.933 73.4281 118.933 72.8768C118.933 72.3254 118.511 71.9038 117.96 71.9038C117.247 71.9038 116.663 71.3525 116.663 70.6065Z" stroke="white" stroke-width="1.5" stroke-miterlimit="10" stroke-linecap="round" stroke-linejoin="round"/>
<path d="M121.268 70.4119C121.852 71.4173 121.528 72.7146 120.523 73.2984C119.971 73.6227 119.29 73.6875 118.739 73.4605" stroke="white" stroke-width="1.5" stroke-miterlimit="10" stroke-linecap="round" stroke-linejoin="round"/>
<path d="M118.479 72.066L125.582 67.8497C126.036 67.5903 126.198 66.9741 125.906 66.52C125.646 66.066 125.03 65.9038 124.576 66.1957C123.96 66.5524 123.149 66.3578 122.792 65.7416L120.198 61.3957C119.128 59.5795 117.246 58.5092 115.268 58.4443" stroke="white" stroke-width="1.5" stroke-miterlimit="10" stroke-linecap="round" stroke-linejoin="round"/>
<path d="M115.311 58.4441C114.549 58.4441 113.22 59.3267 113.002 60.0772" stroke="white" stroke-width="1.5"/>
<path d="M170.58 92.4174C170.58 93.5849 169.64 94.5255 168.472 94.5255C167.305 94.5255 166.364 93.5849 166.364 92.4174" stroke="white" stroke-width="1.5" stroke-miterlimit="10" stroke-linecap="round" stroke-linejoin="round"/>
<path d="M174.31 89.1741V84.1147C174.31 80.9363 171.845 78.2444 168.699 78.1471C165.359 78.0498 162.635 80.7093 162.635 83.985V89.1741C162.635 89.8877 162.051 90.4714 161.337 90.4714C160.786 90.4714 160.364 90.8931 160.364 91.4444C160.364 91.9958 160.786 92.4174 161.337 92.4174H175.608C176.159 92.4174 176.58 91.9958 176.58 91.4444C176.58 90.8931 176.159 90.4714 175.608 90.4714C174.894 90.4714 174.31 89.9201 174.31 89.1741Z" stroke="white" stroke-width="1.5" stroke-miterlimit="10" stroke-linecap="round" stroke-linejoin="round"/>
<path d="M178.916 88.9795C179.5 89.9849 179.175 91.2822 178.17 91.866C177.619 92.1903 176.938 92.2552 176.386 92.0281" stroke="white" stroke-width="1.5" stroke-miterlimit="10" stroke-linecap="round" stroke-linejoin="round"/>
<path d="M176.126 90.6336L183.229 86.4174C183.683 86.1579 183.845 85.5417 183.553 85.0876C183.294 84.6336 182.678 84.4714 182.224 84.7633C181.607 85.1201 180.797 84.9255 180.44 84.3093L177.845 79.9633C176.775 78.1471 174.894 77.0768 172.916 77.012" stroke="white" stroke-width="1.5" stroke-miterlimit="10" stroke-linecap="round" stroke-linejoin="round"/>
<path d="M172.959 77.0117C172.196 77.0117 170.867 77.8943 170.649 78.6448" stroke="white" stroke-width="1.5"/>
<path d="M205.87 35.5194C205.87 36.687 204.929 37.6275 203.762 37.6275C202.594 37.6275 201.654 36.687 201.654 35.5194" stroke="white" stroke-width="1.5" stroke-miterlimit="10" stroke-linecap="round" stroke-linejoin="round"/>
<path d="M209.6 32.2762V27.2167C209.6 24.0384 207.135 21.3465 203.989 21.2492C200.648 21.1519 197.924 23.8113 197.924 27.087V32.2762C197.924 32.9897 197.34 33.5735 196.627 33.5735C196.075 33.5735 195.654 33.9951 195.654 34.5465C195.654 35.0978 196.075 35.5194 196.627 35.5194H210.897C211.448 35.5194 211.87 35.0978 211.87 34.5465C211.87 33.9951 211.448 33.5735 210.897 33.5735C210.184 33.5735 209.6 33.0221 209.6 32.2762Z" stroke="white" stroke-width="1.5" stroke-miterlimit="10" stroke-linecap="round" stroke-linejoin="round"/>
<path d="M214.206 32.0815C214.789 33.0869 214.465 34.3842 213.46 34.968C212.908 35.2924 212.227 35.3572 211.676 35.1302" stroke="white" stroke-width="1.5" stroke-miterlimit="10" stroke-linecap="round" stroke-linejoin="round"/>
<path d="M211.416 33.7356L218.519 29.5194C218.973 29.26 219.135 28.6437 218.843 28.1897C218.583 27.7356 217.967 27.5735 217.513 27.8654C216.897 28.2221 216.086 28.0275 215.729 27.4113L213.135 23.0654C212.065 21.2491 210.183 20.1789 208.205 20.114" stroke="white" stroke-width="1.5" stroke-miterlimit="10" stroke-linecap="round" stroke-linejoin="round"/>
<path d="M208.248 20.1138C207.486 20.1138 206.157 20.9963 205.939 21.7469" stroke="white" stroke-width="1.5"/>
<path d="M211.634 83.6608C211.634 84.8283 210.693 85.7689 209.526 85.7689C208.358 85.7689 207.417 84.8283 207.417 83.6608" stroke="white" stroke-width="1.5" stroke-miterlimit="10" stroke-linecap="round" stroke-linejoin="round"/>
<path d="M215.363 80.4176V75.3581C215.363 72.1797 212.899 69.4878 209.753 69.3905C206.412 69.2932 203.688 71.9527 203.688 75.2284V80.4176C203.688 81.1311 203.104 81.7148 202.39 81.7148C201.839 81.7148 201.417 82.1365 201.417 82.6878C201.417 83.2392 201.839 83.6608 202.39 83.6608H216.661C217.212 83.6608 217.634 83.2392 217.634 82.6878C217.634 82.1365 217.212 81.7148 216.661 81.7148C215.947 81.7148 215.363 81.1635 215.363 80.4176Z" stroke="white" stroke-width="1.5" stroke-miterlimit="10" stroke-linecap="round" stroke-linejoin="round"/>
<path d="M219.969 80.2229C220.553 81.2283 220.229 82.5256 219.223 83.1094C218.672 83.4337 217.991 83.4986 217.439 83.2715" stroke="white" stroke-width="1.5" stroke-miterlimit="10" stroke-linecap="round" stroke-linejoin="round"/>
<path d="M217.18 81.877L224.282 77.6608C224.736 77.4013 224.898 76.7851 224.607 76.331C224.347 75.877 223.731 75.7148 223.277 76.0067C222.661 76.3635 221.85 76.1689 221.493 75.5527L218.898 71.2067C217.828 69.3905 215.947 68.3202 213.969 68.2554" stroke="white" stroke-width="1.5" stroke-miterlimit="10" stroke-linecap="round" stroke-linejoin="round"/>
<path d="M214.012 68.2551C213.249 68.2551 211.921 69.1377 211.703 69.8882" stroke="white" stroke-width="1.5"/>
<path d="M172.42 21.4056C172.42 22.5732 171.48 23.5137 170.312 23.5137C169.145 23.5137 168.204 22.5732 168.204 21.4056" stroke="white" stroke-width="1.5" stroke-miterlimit="10" stroke-linecap="round" stroke-linejoin="round"/>
<path d="M176.15 18.1624V13.103C176.15 9.92459 173.685 7.2327 170.539 7.1354C167.199 7.0381 164.474 9.69756 164.474 12.9732V18.1624C164.474 18.8759 163.891 19.4597 163.177 19.4597C162.626 19.4597 162.204 19.8813 162.204 20.4327C162.204 20.984 162.626 21.4057 163.177 21.4057H177.447C177.999 21.4057 178.42 20.984 178.42 20.4327C178.42 19.8813 177.999 19.4597 177.447 19.4597C176.734 19.4597 176.15 18.9084 176.15 18.1624Z" stroke="white" stroke-width="1.5" stroke-miterlimit="10" stroke-linecap="round" stroke-linejoin="round"/>
<path d="M180.756 17.9678C181.34 18.9732 181.015 20.2705 180.01 20.8543C179.459 21.1786 178.777 21.2434 178.226 21.0164" stroke="white" stroke-width="1.5" stroke-miterlimit="10" stroke-linecap="round" stroke-linejoin="round"/>
<path d="M177.966 19.6219L185.069 15.4056C185.523 15.1462 185.685 14.53 185.393 14.0759C185.134 13.6219 184.518 13.4597 184.063 13.7516C183.447 14.1084 182.636 13.9138 182.28 13.2975L179.685 8.95159C178.615 7.13538 176.734 6.06511 174.755 6.00024" stroke="white" stroke-width="1.5" stroke-miterlimit="10" stroke-linecap="round" stroke-linejoin="round"/>
<path d="M174.798 6C174.036 6 172.707 6.88257 172.489 7.63309" stroke="white" stroke-width="1.5"/>
<path d="M11.2162 37.1526C11.2162 38.3202 10.2757 39.2607 9.10811 39.2607C7.94054 39.2607 7 38.3202 7 37.1526" stroke="white" stroke-width="1.5" stroke-miterlimit="10" stroke-linecap="round" stroke-linejoin="round"/>
<path d="M14.9459 33.9094V28.8499C14.9459 25.6715 12.4811 22.9796 9.33514 22.8823C5.9946 22.7851 3.27027 25.4445 3.27027 28.7202V33.9094C3.27027 34.6229 2.68649 35.2067 1.97297 35.2067C1.42162 35.2067 1 35.6283 1 36.1796C1 36.731 1.42162 37.1526 1.97297 37.1526H16.2432C16.7946 37.1526 17.2162 36.731 17.2162 36.1796C17.2162 35.6283 16.7946 35.2067 16.2432 35.2067C15.5297 35.2067 14.9459 34.6553 14.9459 33.9094Z" stroke="white" stroke-width="1.5" stroke-miterlimit="10" stroke-linecap="round" stroke-linejoin="round"/>
<path d="M19.5517 33.7147C20.1355 34.7201 19.8112 36.0174 18.8058 36.6012C18.2544 36.9255 17.5733 36.9904 17.022 36.7634" stroke="white" stroke-width="1.5" stroke-miterlimit="10" stroke-linecap="round" stroke-linejoin="round"/>
<path d="M16.7621 35.3688L23.8648 31.1526C24.3188 30.8931 24.481 30.2769 24.1891 29.8229C23.9296 29.3688 23.3134 29.2067 22.8594 29.4985C22.2432 29.8553 21.4324 29.6607 21.0756 29.0445L18.481 24.6985C17.4107 22.8823 15.5296 21.8121 13.5513 21.7472" stroke="white" stroke-width="1.5" stroke-miterlimit="10" stroke-linecap="round" stroke-linejoin="round"/>
<path d="M13.5943 21.7469C12.8317 21.7469 11.5032 22.6295 11.2852 23.38" stroke="white" stroke-width="1.5"/>
<path d="M105.76 109.931C105.76 111.099 104.819 112.039 103.652 112.039C102.484 112.039 101.543 111.099 101.543 109.931" stroke="white" stroke-width="1.5" stroke-miterlimit="10" stroke-linecap="round" stroke-linejoin="round"/>
<path d="M109.489 106.688V101.628C109.489 98.4501 107.025 95.7582 103.879 95.6609C100.538 95.5636 97.8137 98.2231 97.8137 101.499V106.688C97.8137 107.401 97.2299 107.985 96.5164 107.985C95.9651 107.985 95.5435 108.407 95.5435 108.958C95.5435 109.51 95.9651 109.931 96.5164 109.931H110.787C111.338 109.931 111.76 109.51 111.76 108.958C111.76 108.407 111.338 107.985 110.787 107.985C110.073 107.985 109.489 107.434 109.489 106.688Z" stroke="white" stroke-width="1.5" stroke-miterlimit="10" stroke-linecap="round" stroke-linejoin="round"/>
<path d="M114.095 106.493C114.679 107.499 114.355 108.796 113.349 109.38C112.798 109.704 112.117 109.769 111.565 109.542" stroke="white" stroke-width="1.5" stroke-miterlimit="10" stroke-linecap="round" stroke-linejoin="round"/>
<path d="M111.306 108.147L118.408 103.931C118.862 103.672 119.024 103.055 118.733 102.601C118.473 102.147 117.857 101.985 117.403 102.277C116.787 102.634 115.976 102.439 115.619 101.823L113.024 97.4771C111.954 95.6609 110.073 94.5906 108.095 94.5258" stroke="white" stroke-width="1.5" stroke-miterlimit="10" stroke-linecap="round" stroke-linejoin="round"/>
<path d="M108.138 94.5255C107.375 94.5255 106.047 95.4081 105.829 96.1586" stroke="white" stroke-width="1.5"/>
<path d="M68.8642 49.9194C68.8642 51.087 67.9236 52.0275 66.7561 52.0275C65.5885 52.0275 64.6479 51.087 64.6479 49.9194" stroke="white" stroke-width="1.5" stroke-miterlimit="10" stroke-linecap="round" stroke-linejoin="round"/>
<path d="M72.5939 46.6762V41.6168C72.5939 38.4384 70.129 35.7465 66.9831 35.6492C63.6425 35.5519 60.9182 38.2114 60.9182 41.487V46.6762C60.9182 47.3897 60.3344 47.9735 59.6209 47.9735C59.0696 47.9735 58.6479 48.3951 58.6479 48.9465C58.6479 49.4978 59.0696 49.9195 59.6209 49.9195H73.8912C74.4425 49.9195 74.8642 49.4978 74.8642 48.9465C74.8642 48.3951 74.4425 47.9735 73.8912 47.9735C73.1777 47.9735 72.5939 47.4222 72.5939 46.6762Z" stroke="white" stroke-width="1.5" stroke-miterlimit="10" stroke-linecap="round" stroke-linejoin="round"/>
<path d="M77.1997 46.4816C77.7834 47.487 77.4591 48.7843 76.4537 49.3681C75.9024 49.6924 75.2213 49.7572 74.6699 49.5302" stroke="white" stroke-width="1.5" stroke-miterlimit="10" stroke-linecap="round" stroke-linejoin="round"/>
<path d="M74.41 48.1357L81.5127 43.9194C81.9668 43.66 82.1289 43.0438 81.8371 42.5897C81.5776 42.1357 80.9614 41.9735 80.5073 42.2654C79.8911 42.6221 79.0803 42.4276 78.7235 41.8113L76.1289 37.4654C75.0587 35.6492 73.1776 34.5789 71.1992 34.514" stroke="white" stroke-width="1.5" stroke-miterlimit="10" stroke-linecap="round" stroke-linejoin="round"/>
<path d="M71.2422 34.5138C70.4797 34.5138 69.1511 35.3964 68.9331 36.1469" stroke="white" stroke-width="1.5"/>
<path d="M64.3158 104.385C64.3158 105.553 63.3753 106.493 62.2077 106.493C61.0401 106.493 60.0996 105.553 60.0996 104.385" stroke="white" stroke-width="1.5" stroke-miterlimit="10" stroke-linecap="round" stroke-linejoin="round"/>
<path d="M68.0456 101.142V96.0825C68.0456 92.9041 65.5807 90.2122 62.4347 90.1149C59.0942 90.0176 56.3699 92.6771 56.3699 95.9527V101.142C56.3699 101.855 55.7861 102.439 55.0726 102.439C54.5212 102.439 54.0996 102.861 54.0996 103.412C54.0996 103.964 54.5212 104.385 55.0726 104.385H69.3429C69.8942 104.385 70.3158 103.964 70.3158 103.412C70.3158 102.861 69.8942 102.439 69.3429 102.439C68.6293 102.439 68.0456 101.888 68.0456 101.142Z" stroke="white" stroke-width="1.5" stroke-miterlimit="10" stroke-linecap="round" stroke-linejoin="round"/>
<path d="M72.6513 100.947C73.2351 101.953 72.9108 103.25 71.9054 103.834C71.354 104.158 70.6729 104.223 70.1216 103.996" stroke="white" stroke-width="1.5" stroke-miterlimit="10" stroke-linecap="round" stroke-linejoin="round"/>
<path d="M69.8617 102.601L76.9644 98.3851C77.4184 98.1257 77.5806 97.5095 77.2887 97.0554C77.0293 96.6014 76.413 96.4392 75.959 96.7311C75.3428 97.0878 74.532 96.8932 74.1752 96.277L71.5806 91.9311C70.5103 90.1149 68.6293 89.0446 66.6509 88.9797" stroke="white" stroke-width="1.5" stroke-miterlimit="10" stroke-linecap="round" stroke-linejoin="round"/>
<path d="M66.6939 88.9795C65.9314 88.9795 64.6028 89.8621 64.3848 90.6126" stroke="white" stroke-width="1.5"/>
<path d="M159.344 127.445C159.344 128.613 158.404 129.553 157.236 129.553C156.068 129.553 155.128 128.613 155.128 127.445" stroke="white" stroke-width="1.5" stroke-miterlimit="10" stroke-linecap="round" stroke-linejoin="round"/>
<path d="M163.074 124.202V119.142C163.074 115.964 160.609 113.272 157.463 113.175C154.123 113.077 151.398 115.737 151.398 119.013V124.202C151.398 124.915 150.814 125.499 150.101 125.499C149.55 125.499 149.128 125.921 149.128 126.472C149.128 127.023 149.55 127.445 150.101 127.445H164.371C164.923 127.445 165.344 127.023 165.344 126.472C165.344 125.921 164.923 125.499 164.371 125.499C163.658 125.499 163.074 124.948 163.074 124.202Z" stroke="white" stroke-width="1.5" stroke-miterlimit="10" stroke-linecap="round" stroke-linejoin="round"/>
<path d="M167.68 124.007C168.263 125.012 167.939 126.31 166.934 126.894C166.382 127.218 165.701 127.283 165.15 127.056" stroke="white" stroke-width="1.5" stroke-miterlimit="10" stroke-linecap="round" stroke-linejoin="round"/>
<path d="M164.89 125.661L171.993 121.445C172.447 121.185 172.609 120.569 172.317 120.115C172.058 119.661 171.441 119.499 170.987 119.791C170.371 120.148 169.56 119.953 169.204 119.337L166.609 114.991C165.539 113.175 163.658 112.104 161.679 112.04" stroke="white" stroke-width="1.5" stroke-miterlimit="10" stroke-linecap="round" stroke-linejoin="round"/>
<path d="M161.722 112.039C160.96 112.039 159.631 112.922 159.413 113.672" stroke="white" stroke-width="1.5"/>
<path d="M199.966 151.38C199.966 152.548 199.025 153.489 197.858 153.489C196.69 153.489 195.75 152.548 195.75 151.38" stroke="white" stroke-width="1.5" stroke-miterlimit="10" stroke-linecap="round" stroke-linejoin="round"/>
<path d="M203.695 148.137V143.078C203.695 139.899 201.231 137.208 198.085 137.11C194.744 137.013 192.02 139.672 192.02 142.948V148.137C192.02 148.851 191.436 149.435 190.722 149.435C190.171 149.435 189.75 149.856 189.75 150.408C189.75 150.959 190.171 151.381 190.722 151.381H204.993C205.544 151.381 205.966 150.959 205.966 150.408C205.966 149.856 205.544 149.435 204.993 149.435C204.279 149.435 203.695 148.883 203.695 148.137Z" stroke="white" stroke-width="1.5" stroke-miterlimit="10" stroke-linecap="round" stroke-linejoin="round"/>
<path d="M208.301 147.943C208.885 148.948 208.561 150.245 207.555 150.829C207.004 151.153 206.323 151.218 205.771 150.991" stroke="white" stroke-width="1.5" stroke-miterlimit="10" stroke-linecap="round" stroke-linejoin="round"/>
<path d="M205.512 149.597L212.614 145.381C213.068 145.121 213.231 144.505 212.939 144.051C212.679 143.597 212.063 143.435 211.609 143.726C210.993 144.083 210.182 143.889 209.825 143.272L207.231 138.926C206.16 137.11 204.279 136.04 202.301 135.975" stroke="white" stroke-width="1.5" stroke-miterlimit="10" stroke-linecap="round" stroke-linejoin="round"/>
<path d="M202.344 135.975C201.581 135.975 200.253 136.857 200.035 137.608" stroke="white" stroke-width="1.5"/>
<path d="M234.969 57.6703C234.969 58.8379 234.029 59.7784 232.861 59.7784C231.694 59.7784 230.753 58.8379 230.753 57.6703" stroke="white" stroke-width="1.5" stroke-miterlimit="10" stroke-linecap="round" stroke-linejoin="round"/>
<path d="M238.699 54.4271V49.3676C238.699 46.1892 236.234 43.4973 233.088 43.4C229.748 43.3028 227.023 45.9622 227.023 49.2379V54.4271C227.023 55.1406 226.44 55.7244 225.726 55.7244C225.175 55.7244 224.753 56.146 224.753 56.6973C224.753 57.2487 225.175 57.6703 225.726 57.6703H239.996C240.548 57.6703 240.969 57.2487 240.969 56.6973C240.969 56.146 240.548 55.7244 239.996 55.7244C239.283 55.7244 238.699 55.173 238.699 54.4271Z" stroke="white" stroke-width="1.5" stroke-miterlimit="10" stroke-linecap="round" stroke-linejoin="round"/>
<path d="M243.305 54.2324C243.889 55.2378 243.564 56.5351 242.559 57.1189C242.008 57.4432 241.326 57.5081 240.775 57.2811" stroke="white" stroke-width="1.5" stroke-miterlimit="10" stroke-linecap="round" stroke-linejoin="round"/>
<path d="M240.515 55.8865L247.618 51.6703C248.072 51.4108 248.234 50.7946 247.942 50.3406C247.683 49.8865 247.067 49.7244 246.613 50.0162C245.996 50.373 245.186 50.1784 244.829 49.5622L242.234 45.2162C241.164 43.4 239.283 42.3298 237.304 42.2649" stroke="white" stroke-width="1.5" stroke-miterlimit="10" stroke-linecap="round" stroke-linejoin="round"/>
<path d="M237.347 42.2646C236.585 42.2646 235.256 43.1472 235.038 43.8977" stroke="white" stroke-width="1.5"/>
<path d="M274.969 67.6703C274.969 68.8379 274.029 69.7784 272.861 69.7784C271.694 69.7784 270.753 68.8379 270.753 67.6703" stroke="white" stroke-width="1.5" stroke-miterlimit="10" stroke-linecap="round" stroke-linejoin="round"/>
<path d="M278.699 64.4271V59.3676C278.699 56.1892 276.234 53.4973 273.088 53.4C269.748 53.3028 267.023 55.9622 267.023 59.2379V64.4271C267.023 65.1406 266.44 65.7244 265.726 65.7244C265.175 65.7244 264.753 66.146 264.753 66.6973C264.753 67.2487 265.175 67.6703 265.726 67.6703H279.996C280.548 67.6703 280.969 67.2487 280.969 66.6973C280.969 66.146 280.548 65.7244 279.996 65.7244C279.283 65.7244 278.699 65.173 278.699 64.4271Z" stroke="white" stroke-width="1.5" stroke-miterlimit="10" stroke-linecap="round" stroke-linejoin="round"/>
<path d="M283.305 64.2324C283.889 65.2378 283.564 66.5351 282.559 67.1189C282.008 67.4432 281.326 67.5081 280.775 67.2811" stroke="white" stroke-width="1.5" stroke-miterlimit="10" stroke-linecap="round" stroke-linejoin="round"/>
<path d="M280.515 65.8865L287.618 61.6703C288.072 61.4108 288.234 60.7946 287.942 60.3406C287.683 59.8865 287.067 59.7244 286.613 60.0162C285.996 60.373 285.186 60.1784 284.829 59.5622L282.234 55.2162C281.164 53.4 279.283 52.3298 277.304 52.2649" stroke="white" stroke-width="1.5" stroke-miterlimit="10" stroke-linecap="round" stroke-linejoin="round"/>
<path d="M277.347 52.2646C276.585 52.2646 275.256 53.1472 275.038 53.8977" stroke="white" stroke-width="1.5"/>
<path d="M254.969 147.67C254.969 148.838 254.029 149.778 252.861 149.778C251.694 149.778 250.753 148.838 250.753 147.67" stroke="white" stroke-width="1.5" stroke-miterlimit="10" stroke-linecap="round" stroke-linejoin="round"/>
<path d="M258.699 144.427V139.368C258.699 136.189 256.234 133.497 253.088 133.4C249.748 133.303 247.023 135.962 247.023 139.238V144.427C247.023 145.141 246.44 145.724 245.726 145.724C245.175 145.724 244.753 146.146 244.753 146.697C244.753 147.249 245.175 147.67 245.726 147.67H259.996C260.548 147.67 260.969 147.249 260.969 146.697C260.969 146.146 260.548 145.724 259.996 145.724C259.283 145.724 258.699 145.173 258.699 144.427Z" stroke="white" stroke-width="1.5" stroke-miterlimit="10" stroke-linecap="round" stroke-linejoin="round"/>
<path d="M263.305 144.232C263.889 145.238 263.564 146.535 262.559 147.119C262.008 147.443 261.326 147.508 260.775 147.281" stroke="white" stroke-width="1.5" stroke-miterlimit="10" stroke-linecap="round" stroke-linejoin="round"/>
<path d="M260.515 145.887L267.618 141.67C268.072 141.411 268.234 140.795 267.942 140.341C267.683 139.887 267.067 139.724 266.613 140.016C265.996 140.373 265.186 140.178 264.829 139.562L262.234 135.216C261.164 133.4 259.283 132.33 257.304 132.265" stroke="white" stroke-width="1.5" stroke-miterlimit="10" stroke-linecap="round" stroke-linejoin="round"/>
<path d="M257.347 132.265C256.585 132.265 255.256 133.147 255.038 133.898" stroke="white" stroke-width="1.5"/>
<path d="M254.969 100.67C254.969 101.838 254.029 102.778 252.861 102.778C251.694 102.778 250.753 101.838 250.753 100.67" stroke="white" stroke-width="1.5" stroke-miterlimit="10" stroke-linecap="round" stroke-linejoin="round"/>
<path d="M258.699 97.4271V92.3676C258.699 89.1892 256.234 86.4973 253.088 86.4C249.748 86.3028 247.023 88.9622 247.023 92.2379V97.4271C247.023 98.1406 246.44 98.7244 245.726 98.7244C245.175 98.7244 244.753 99.146 244.753 99.6973C244.753 100.249 245.175 100.67 245.726 100.67H259.996C260.548 100.67 260.969 100.249 260.969 99.6973C260.969 99.146 260.548 98.7244 259.996 98.7244C259.283 98.7244 258.699 98.173 258.699 97.4271Z" stroke="white" stroke-width="1.5" stroke-miterlimit="10" stroke-linecap="round" stroke-linejoin="round"/>
<path d="M263.305 97.2324C263.889 98.2378 263.564 99.5351 262.559 100.119C262.008 100.443 261.326 100.508 260.775 100.281" stroke="white" stroke-width="1.5" stroke-miterlimit="10" stroke-linecap="round" stroke-linejoin="round"/>
<path d="M260.515 98.8865L267.618 94.6703C268.072 94.4108 268.234 93.7946 267.942 93.3406C267.683 92.8865 267.067 92.7244 266.613 93.0162C265.996 93.373 265.186 93.1784 264.829 92.5622L262.234 88.2162C261.164 86.4 259.283 85.3298 257.304 85.2649" stroke="white" stroke-width="1.5" stroke-miterlimit="10" stroke-linecap="round" stroke-linejoin="round"/>
<path d="M257.347 85.2646C256.585 85.2646 255.256 86.1472 255.038 86.8977" stroke="white" stroke-width="1.5"/>
<path d="M254.969 100.67C254.969 101.838 254.029 102.778 252.861 102.778C251.694 102.778 250.753 101.838 250.753 100.67" stroke="white" stroke-width="1.5" stroke-miterlimit="10" stroke-linecap="round" stroke-linejoin="round"/>
<path d="M258.699 97.4271V92.3676C258.699 89.1892 256.234 86.4973 253.088 86.4C249.748 86.3028 247.023 88.9622 247.023 92.2379V97.4271C247.023 98.1406 246.44 98.7244 245.726 98.7244C245.175 98.7244 244.753 99.146 244.753 99.6973C244.753 100.249 245.175 100.67 245.726 100.67H259.996C260.548 100.67 260.969 100.249 260.969 99.6973C260.969 99.146 260.548 98.7244 259.996 98.7244C259.283 98.7244 258.699 98.173 258.699 97.4271Z" stroke="white" stroke-width="1.5" stroke-miterlimit="10" stroke-linecap="round" stroke-linejoin="round"/>
<path d="M263.305 97.2324C263.889 98.2378 263.564 99.5351 262.559 100.119C262.008 100.443 261.326 100.508 260.775 100.281" stroke="white" stroke-width="1.5" stroke-miterlimit="10" stroke-linecap="round" stroke-linejoin="round"/>
<path d="M260.515 98.8865L267.618 94.6703C268.072 94.4108 268.234 93.7946 267.942 93.3406C267.683 92.8865 267.067 92.7244 266.613 93.0162C265.996 93.373 265.186 93.1784 264.829 92.5622L262.234 88.2162C261.164 86.4 259.283 85.3298 257.304 85.2649" stroke="white" stroke-width="1.5" stroke-miterlimit="10" stroke-linecap="round" stroke-linejoin="round"/>
<path d="M257.347 85.2646C256.585 85.2646 255.256 86.1472 255.038 86.8977" stroke="white" stroke-width="1.5"/>
<path d="M133.872 155.872C133.872 157.04 132.931 157.981 131.764 157.981C130.596 157.981 129.656 157.04 129.656 155.872" stroke="white" stroke-width="1.5" stroke-miterlimit="10" stroke-linecap="round" stroke-linejoin="round"/>
<path d="M137.602 152.629V147.57C137.602 144.391 135.137 141.699 131.991 141.602C128.65 141.505 125.926 144.164 125.926 147.44V152.629C125.926 153.343 125.342 153.927 124.629 153.927C124.077 153.927 123.656 154.348 123.656 154.899C123.656 155.451 124.077 155.872 124.629 155.872H138.899C139.45 155.872 139.872 155.451 139.872 154.899C139.872 154.348 139.45 153.927 138.899 153.927C138.185 153.927 137.602 153.375 137.602 152.629Z" stroke="white" stroke-width="1.5" stroke-miterlimit="10" stroke-linecap="round" stroke-linejoin="round"/>
<path d="M142.207 152.435C142.791 153.44 142.467 154.737 141.462 155.321C140.91 155.645 140.229 155.71 139.678 155.483" stroke="white" stroke-width="1.5" stroke-miterlimit="10" stroke-linecap="round" stroke-linejoin="round"/>
<path d="M139.418 154.089L146.521 149.872C146.975 149.613 147.137 148.997 146.845 148.543C146.585 148.089 145.969 147.926 145.515 148.218C144.899 148.575 144.088 148.381 143.731 147.764L141.137 143.418C140.066 141.602 138.185 140.532 136.207 140.467" stroke="white" stroke-width="1.5" stroke-miterlimit="10" stroke-linecap="round" stroke-linejoin="round"/>
<path d="M136.25 140.467C135.488 140.467 134.159 141.349 133.941 142.1" stroke="white" stroke-width="1.5"/>
<path d="M204.32 117.634C204.32 118.802 203.379 119.742 202.212 119.742C201.044 119.742 200.104 118.802 200.104 117.634" stroke="white" stroke-width="1.5" stroke-miterlimit="10" stroke-linecap="round" stroke-linejoin="round"/>
<path d="M208.049 114.391V109.331C208.049 106.153 205.585 103.461 202.439 103.364C199.098 103.266 196.374 105.926 196.374 109.202V114.391C196.374 115.104 195.79 115.688 195.076 115.688C194.525 115.688 194.104 116.11 194.104 116.661C194.104 117.212 194.525 117.634 195.076 117.634H209.347C209.898 117.634 210.32 117.212 210.32 116.661C210.32 116.11 209.898 115.688 209.347 115.688C208.633 115.688 208.049 115.137 208.049 114.391Z" stroke="white" stroke-width="1.5" stroke-miterlimit="10" stroke-linecap="round" stroke-linejoin="round"/>
<path d="M212.655 114.196C213.239 115.202 212.915 116.499 211.909 117.083C211.358 117.407 210.677 117.472 210.125 117.245" stroke="white" stroke-width="1.5" stroke-miterlimit="10" stroke-linecap="round" stroke-linejoin="round"/>
<path d="M209.866 115.85L216.968 111.634C217.422 111.375 217.585 110.758 217.293 110.304C217.033 109.85 216.417 109.688 215.963 109.98C215.347 110.337 214.536 110.142 214.179 109.526L211.585 105.18C210.514 103.364 208.633 102.294 206.655 102.229" stroke="white" stroke-width="1.5" stroke-miterlimit="10" stroke-linecap="round" stroke-linejoin="round"/>
<path d="M206.698 102.228C205.935 102.228 204.607 103.111 204.389 103.861" stroke="white" stroke-width="1.5"/>
<path d="M90.7597 139.413C90.7597 140.58 89.8191 141.521 88.6516 141.521C87.484 141.521 86.5435 140.58 86.5435 139.413" stroke="white" stroke-width="1.5" stroke-miterlimit="10" stroke-linecap="round" stroke-linejoin="round"/>
<path d="M94.4894 136.17V131.11C94.4894 127.932 92.0245 125.24 88.8786 125.142C85.5381 125.045 82.8137 127.705 82.8137 130.98V136.17C82.8137 136.883 82.2299 137.467 81.5164 137.467C80.9651 137.467 80.5435 137.888 80.5435 138.44C80.5435 138.991 80.9651 139.413 81.5164 139.413H95.7867C96.3381 139.413 96.7597 138.991 96.7597 138.44C96.7597 137.888 96.3381 137.467 95.7867 137.467C95.0732 137.467 94.4894 136.915 94.4894 136.17Z" stroke="white" stroke-width="1.5" stroke-miterlimit="10" stroke-linecap="round" stroke-linejoin="round"/>
<path d="M99.0952 135.975C99.6789 136.98 99.3546 138.278 98.3492 138.861C97.7979 139.186 97.1168 139.251 96.5654 139.024" stroke="white" stroke-width="1.5" stroke-miterlimit="10" stroke-linecap="round" stroke-linejoin="round"/>
<path d="M96.3055 137.629L103.408 133.413C103.862 133.153 104.024 132.537 103.733 132.083C103.473 131.629 102.857 131.467 102.403 131.759C101.787 132.115 100.976 131.921 100.619 131.305L98.0245 126.959C96.9542 125.142 95.0731 124.072 93.0947 124.007" stroke="white" stroke-width="1.5" stroke-miterlimit="10" stroke-linecap="round" stroke-linejoin="round"/>
<path d="M93.1377 124.007C92.3752 124.007 91.0466 124.89 90.8286 125.64" stroke="white" stroke-width="1.5"/>
<path d="M25.6918 73.8495C25.6918 75.0171 24.7513 75.9576 23.5837 75.9576C22.4161 75.9576 21.4756 75.0171 21.4756 73.8495" stroke="white" stroke-width="1.5" stroke-miterlimit="10" stroke-linecap="round" stroke-linejoin="round"/>
<path d="M29.4215 70.6063V65.5468C29.4215 62.3684 26.9567 59.6765 23.8107 59.5792C20.4702 59.482 17.7459 62.1414 17.7459 65.4171V70.6063C17.7459 71.3198 17.1621 71.9036 16.4486 71.9036C15.8972 71.9036 15.4756 72.3252 15.4756 72.8765C15.4756 73.4279 15.8972 73.8495 16.4486 73.8495H30.7188C31.2702 73.8495 31.6918 73.4279 31.6918 72.8765C31.6918 72.3252 31.2702 71.9036 30.7188 71.9036C30.0053 71.9036 29.4215 71.3522 29.4215 70.6063Z" stroke="white" stroke-width="1.5" stroke-miterlimit="10" stroke-linecap="round" stroke-linejoin="round"/>
<path d="M34.0273 70.4116C34.6111 71.417 34.2867 72.7143 33.2813 73.2981C32.73 73.6224 32.0489 73.6873 31.4976 73.4603" stroke="white" stroke-width="1.5" stroke-miterlimit="10" stroke-linecap="round" stroke-linejoin="round"/>
<path d="M31.2377 72.0657L38.3404 67.8495C38.7944 67.59 38.9566 66.9738 38.6647 66.5198C38.4052 66.0657 37.789 65.9036 37.335 66.1954C36.7187 66.5522 35.9079 66.3576 35.5512 65.7414L32.9566 61.3954C31.8863 59.5792 30.0052 58.509 28.0269 58.4441" stroke="white" stroke-width="1.5" stroke-miterlimit="10" stroke-linecap="round" stroke-linejoin="round"/>
<path d="M28.0698 58.4438C27.3073 58.4438 25.9787 59.3264 25.7607 60.0769" stroke="white" stroke-width="1.5"/>
<path d="M31.4555 147.682C31.4555 148.85 30.5149 149.79 29.3474 149.79C28.1798 149.79 27.2393 148.85 27.2393 147.682" stroke="white" stroke-width="1.5" stroke-miterlimit="10" stroke-linecap="round" stroke-linejoin="round"/>
<path d="M35.1852 144.439V139.379C35.1852 136.201 32.7203 133.509 29.5744 133.412C26.2339 133.314 23.5095 135.974 23.5095 139.25V144.439C23.5095 145.152 22.9257 145.736 22.2122 145.736C21.6609 145.736 21.2393 146.158 21.2393 146.709C21.2393 147.26 21.6609 147.682 22.2122 147.682H36.4825C37.0339 147.682 37.4555 147.26 37.4555 146.709C37.4555 146.158 37.0339 145.736 36.4825 145.736C35.769 145.736 35.1852 145.185 35.1852 144.439Z" stroke="white" stroke-width="1.5" stroke-miterlimit="10" stroke-linecap="round" stroke-linejoin="round"/>
<path d="M39.791 144.244C40.3747 145.25 40.0504 146.547 39.045 147.131C38.4937 147.455 37.8126 147.52 37.2612 147.293" stroke="white" stroke-width="1.5" stroke-miterlimit="10" stroke-linecap="round" stroke-linejoin="round"/>
<path d="M37.0013 145.898L44.104 141.682C44.5581 141.423 44.7203 140.806 44.4284 140.352C44.1689 139.898 43.5527 139.736 43.0986 140.028C42.4824 140.385 41.6716 140.19 41.3149 139.574L38.7203 135.228C37.65 133.412 35.7689 132.341 33.7905 132.277" stroke="white" stroke-width="1.5" stroke-miterlimit="10" stroke-linecap="round" stroke-linejoin="round"/>
<path d="M33.8335 132.276C33.071 132.276 31.7424 133.159 31.5244 133.909" stroke="white" stroke-width="1.5"/>
<path d="M240.784 18.0056C240.784 19.1732 239.844 20.1137 238.676 20.1137C237.508 20.1137 236.568 19.1732 236.568 18.0056" stroke="white" stroke-width="1.5" stroke-miterlimit="10" stroke-linecap="round" stroke-linejoin="round"/>
<path d="M244.514 14.7624V9.70294C244.514 6.52456 242.049 3.83267 238.903 3.73538C235.562 3.63808 232.838 6.29754 232.838 9.57321V14.7624C232.838 15.4759 232.254 16.0597 231.541 16.0597C230.989 16.0597 230.568 16.4813 230.568 17.0327C230.568 17.584 230.989 18.0056 231.541 18.0056H245.811C246.362 18.0056 246.784 17.584 246.784 17.0327C246.784 16.4813 246.362 16.0597 245.811 16.0597C245.098 16.0597 244.514 15.5083 244.514 14.7624Z" stroke="white" stroke-width="1.5" stroke-miterlimit="10" stroke-linecap="round" stroke-linejoin="round"/>
<path d="M249.12 14.5677C249.703 15.5732 249.379 16.8705 248.374 17.4542C247.822 17.7786 247.141 17.8434 246.59 17.6164" stroke="white" stroke-width="1.5" stroke-miterlimit="10" stroke-linecap="round" stroke-linejoin="round"/>
<path d="M246.33 16.2218L253.433 12.0056C253.887 11.7462 254.049 11.1299 253.757 10.6759C253.498 10.2218 252.881 10.0597 252.427 10.3516C251.811 10.7083 251 10.5137 250.643 9.89752L248.049 5.55157C246.979 3.73535 245.098 2.66508 243.119 2.60022" stroke="white" stroke-width="1.5" stroke-miterlimit="10" stroke-linecap="round" stroke-linejoin="round"/>
<path d="M243.162 2.59998C242.4 2.59998 241.071 3.48255 240.853 4.23307" stroke="white" stroke-width="1.5"/>
<path d="M95.203 16.9515C95.203 18.1191 94.2625 19.0596 93.0949 19.0596C91.9274 19.0596 90.9868 18.1191 90.9868 16.9515" stroke="white" stroke-width="1.5" stroke-miterlimit="10" stroke-linecap="round" stroke-linejoin="round"/>
<path d="M98.9328 13.7083V8.64887C98.9328 5.47049 96.4679 2.7786 93.322 2.6813C89.9814 2.584 87.2571 5.24346 87.2571 8.51914V13.7083C87.2571 14.4218 86.6733 15.0056 85.9598 15.0056C85.4084 15.0056 84.9868 15.4272 84.9868 15.9786C84.9868 16.5299 85.4084 16.9516 85.9598 16.9516H100.23C100.781 16.9516 101.203 16.5299 101.203 15.9786C101.203 15.4272 100.781 15.0056 100.23 15.0056C99.5165 15.0056 98.9328 14.4543 98.9328 13.7083Z" stroke="white" stroke-width="1.5" stroke-miterlimit="10" stroke-linecap="round" stroke-linejoin="round"/>
<path d="M103.539 13.5137C104.122 14.5191 103.798 15.8164 102.793 16.4002C102.241 16.7245 101.56 16.7893 101.009 16.5623" stroke="white" stroke-width="1.5" stroke-miterlimit="10" stroke-linecap="round" stroke-linejoin="round"/>
<path d="M100.749 15.1678L107.852 10.9515C108.306 10.6921 108.468 10.0759 108.176 9.62182C107.916 9.16776 107.3 9.0056 106.846 9.29749C106.23 9.65425 105.419 9.45966 105.062 8.84344L102.468 4.49749C101.398 2.68128 99.5165 1.61101 97.5381 1.54614" stroke="white" stroke-width="1.5" stroke-miterlimit="10" stroke-linecap="round" stroke-linejoin="round"/>
<path d="M97.5811 1.5459C96.8186 1.5459 95.49 2.42847 95.272 3.17899" stroke="white" stroke-width="1.5"/>
<path d="M45.5282 18.8223C45.5282 19.9898 44.5877 20.9304 43.4201 20.9304C42.2526 20.9304 41.312 19.9898 41.312 18.8223" stroke="white" stroke-width="1.5" stroke-miterlimit="10" stroke-linecap="round" stroke-linejoin="round"/>
<path d="M49.258 15.5791V10.5196C49.258 7.34121 46.7931 4.64932 43.6471 4.55203C40.3066 4.45473 37.5823 7.11419 37.5823 10.3899V15.5791C37.5823 16.2926 36.9985 16.8763 36.285 16.8763C35.7336 16.8763 35.312 17.298 35.312 17.8493C35.312 18.4007 35.7336 18.8223 36.285 18.8223H50.5553C51.1066 18.8223 51.5282 18.4007 51.5282 17.8493C51.5282 17.298 51.1066 16.8763 50.5553 16.8763C49.8417 16.8763 49.258 16.325 49.258 15.5791Z" stroke="white" stroke-width="1.5" stroke-miterlimit="10" stroke-linecap="round" stroke-linejoin="round"/>
<path d="M53.8637 15.3844C54.4475 16.3898 54.1232 17.6871 53.1178 18.2709C52.5664 18.5952 51.8853 18.6601 51.334 18.433" stroke="white" stroke-width="1.5" stroke-miterlimit="10" stroke-linecap="round" stroke-linejoin="round"/>
<path d="M51.0741 17.0385L58.1768 12.8223C58.6308 12.5628 58.793 11.9466 58.5011 11.4925C58.2417 11.0385 57.6254 10.8763 57.1714 11.1682C56.5552 11.525 55.7444 11.3304 55.3876 10.7142L52.793 6.36822C51.7227 4.552 49.8417 3.48173 47.8633 3.41687" stroke="white" stroke-width="1.5" stroke-miterlimit="10" stroke-linecap="round" stroke-linejoin="round"/>
<path d="M47.9063 3.41663C47.1438 3.41663 45.8152 4.2992 45.5972 5.04972" stroke="white" stroke-width="1.5"/>
<path d="M18.3358 109.188C18.3358 110.355 17.3953 111.296 16.2277 111.296C15.0602 111.296 14.1196 110.355 14.1196 109.188" stroke="white" stroke-width="1.5" stroke-miterlimit="10" stroke-linecap="round" stroke-linejoin="round"/>
<path d="M22.0656 105.944V100.885C22.0656 97.7066 19.6007 95.0147 16.4548 94.9174C13.1142 94.8201 10.3899 97.4795 10.3899 100.755V105.944C10.3899 106.658 9.80612 107.242 9.0926 107.242C8.54125 107.242 8.11963 107.663 8.11963 108.215C8.11963 108.766 8.54125 109.188 9.0926 109.188H23.3629C23.9142 109.188 24.3358 108.766 24.3358 108.215C24.3358 107.663 23.9142 107.242 23.3629 107.242C22.6494 107.242 22.0656 106.69 22.0656 105.944Z" stroke="white" stroke-width="1.5" stroke-miterlimit="10" stroke-linecap="round" stroke-linejoin="round"/>
<path d="M26.6713 105.75C27.2551 106.755 26.9308 108.052 25.9254 108.636C25.374 108.961 24.693 109.025 24.1416 108.798" stroke="white" stroke-width="1.5" stroke-miterlimit="10" stroke-linecap="round" stroke-linejoin="round"/>
<path d="M23.8817 107.404L30.9844 103.188C31.4385 102.928 31.6006 102.312 31.3087 101.858C31.0493 101.404 30.4331 101.242 29.979 101.534C29.3628 101.89 28.552 101.696 28.1952 101.08L25.6006 96.7336C24.5304 94.9174 22.6493 93.8471 20.6709 93.7822" stroke="white" stroke-width="1.5" stroke-miterlimit="10" stroke-linecap="round" stroke-linejoin="round"/>
<path d="M20.7139 93.782C19.9514 93.782 18.6228 94.6646 18.4048 95.4151" stroke="white" stroke-width="1.5"/>
<path d="M129.324 43.4597C129.324 44.6273 128.383 45.5678 127.216 45.5678C126.048 45.5678 125.107 44.6273 125.107 43.4597" stroke="white" stroke-width="1.5" stroke-miterlimit="10" stroke-linecap="round" stroke-linejoin="round"/>
<path d="M133.053 40.2165V35.157C133.053 31.9787 130.589 29.2868 127.443 29.1895C124.102 29.0922 121.378 31.7516 121.378 35.0273V40.2165C121.378 40.93 120.794 41.5138 120.08 41.5138C119.529 41.5138 119.107 41.9354 119.107 42.4868C119.107 43.0381 119.529 43.4597 120.08 43.4597H134.351C134.902 43.4597 135.324 43.0381 135.324 42.4868C135.324 41.9354 134.902 41.5138 134.351 41.5138C133.637 41.5138 133.053 40.9624 133.053 40.2165Z" stroke="white" stroke-width="1.5" stroke-miterlimit="10" stroke-linecap="round" stroke-linejoin="round"/>
<path d="M137.659 40.0219C138.243 41.0273 137.919 42.3246 136.913 42.9083C136.362 43.2327 135.681 43.2975 135.129 43.0705" stroke="white" stroke-width="1.5" stroke-miterlimit="10" stroke-linecap="round" stroke-linejoin="round"/>
<path d="M134.87 41.6759L141.972 37.4597C142.426 37.2003 142.588 36.5841 142.297 36.13C142.037 35.6759 141.421 35.5138 140.967 35.8057C140.351 36.1624 139.54 35.9678 139.183 35.3516L136.588 31.0057C135.518 29.1895 133.637 28.1192 131.659 28.0543" stroke="white" stroke-width="1.5" stroke-miterlimit="10" stroke-linecap="round" stroke-linejoin="round"/>
<path d="M131.702 28.0541C130.939 28.0541 129.611 28.9367 129.393 29.6872" stroke="white" stroke-width="1.5"/>
</g>
</svg>
