<svg width="132" height="85" viewBox="0 0 132 85" fill="none" xmlns="http://www.w3.org/2000/svg">
<g clip-path="url(#clip0_1601_3033)">
<path d="M95.3107 8.91615C93.4749 5.0817 110.535 -11.3526 109.977 -12.4708C109.632 -13.194 109.571 -13.4369 109.339 -14.5058C109.705 -12.8053 92.677 1.82025 93.6553 4.96072C94.105 6.40643 94.4625 7.15387 95.3107 8.91615Z" fill="url(#paint0_linear_1601_3033)"/>
<path d="M103.601 27.0653C103.621 23.0304 116.136 19.4797 115.508 16.4991C115.106 14.605 114.778 13.6456 113.973 11.7567C115.257 14.7571 102.302 18.3006 103.149 22.3861C103.558 24.2619 103.614 25.1904 103.601 27.0653Z" fill="url(#paint1_linear_1601_3033)"/>
<path d="M101.148 50.0115C100.179 45.9244 116.719 34.1877 116.193 31.2002C115.845 29.3238 115.812 28.3829 115.801 26.5195C115.797 29.4694 99.6128 41.2251 100.22 45.3114C100.49 47.1815 100.703 48.1228 101.148 50.0115Z" fill="url(#paint2_linear_1601_3033)"/>
<path d="M93.6841 5.11515C98.7221 9.10886 109.102 9.35034 114.185 12.2927C114.965 14.1859 115.262 15.1111 115.603 16.9972C111.209 13.2406 100.329 12.6898 95.3823 9.08907C94.5247 7.31056 94.1563 6.54229 93.6841 5.11515Z" fill="url(#paint3_linear_1601_3033)"/>
<path d="M103.059 21.9886C104.007 26.0579 115.798 23.731 115.811 26.6785C115.816 28.5547 115.873 29.4809 116.22 31.3518C115.672 28.3849 103.605 30.6991 103.588 26.6622C103.595 24.8102 103.485 23.8658 103.059 21.9886Z" fill="url(#paint4_linear_1601_3033)"/>
<g style="mix-blend-mode:multiply">
<path d="M19.7903 21.5318C19.7903 21.9134 19.4928 22.2246 19.1159 22.2246C18.739 22.2246 18.4414 21.9134 18.4414 21.5318C18.4414 21.1603 18.739 20.849 19.1159 20.849C19.4928 20.849 19.7903 21.1603 19.7903 21.5318Z" fill="#9D5C1E"/>
</g>
<g style="mix-blend-mode:multiply">
<path d="M4.39359 75.842C4.39359 76.2235 4.09603 76.5348 3.71913 76.5348C3.34223 76.5348 3.04468 76.2235 3.04468 75.842C3.04468 75.4705 3.34223 75.1592 3.71913 75.1592C4.09603 75.1592 4.39359 75.4705 4.39359 75.842Z" fill="#9D5C1E"/>
</g>
<g style="mix-blend-mode:multiply">
<path d="M56.1124 84.498C55.7441 84.5792 55.3804 84.3511 55.3001 83.9783C55.2199 83.6055 55.457 83.2449 55.8253 83.1637C56.1838 83.0846 56.5476 83.3126 56.6278 83.6855C56.7081 84.0583 56.471 84.4189 56.1124 84.498Z" fill="#9D5C1E"/>
</g>
<g style="mix-blend-mode:multiply">
<path d="M72.9984 28.7051C72.9984 29.0867 72.7009 29.398 72.324 29.398C71.9471 29.398 71.6495 29.0867 71.6495 28.7051C71.6495 28.3336 71.9471 28.0223 72.324 28.0223C72.7009 28.0223 72.9984 28.3336 72.9984 28.7051Z" fill="#9D5C1E"/>
</g>
<g style="mix-blend-mode:multiply">
<path d="M79.7602 2.91124C79.4343 3.10289 79.019 2.99876 78.8297 2.66882C78.6404 2.33888 78.7568 1.92205 79.0827 1.7304C79.4 1.5438 79.8153 1.64793 80.0047 1.97787C80.194 2.30781 80.0775 2.72463 79.7602 2.91124Z" fill="#9D5C1E"/>
</g>
<g style="mix-blend-mode:multiply">
<path d="M45.636 0.682796C45.636 1.06436 45.3385 1.37563 44.9616 1.37563C44.5847 1.37563 44.2871 1.06436 44.2871 0.682796C44.2871 0.311275 44.5847 0 44.9616 0C45.3385 0 45.636 0.311275 45.636 0.682796Z" fill="#9D5C1E"/>
</g>
<g style="mix-blend-mode:multiply">
<path d="M49.9087 27.1205C49.9087 27.5021 49.6112 27.8134 49.2343 27.8134C48.8574 27.8134 48.5598 27.5021 48.5598 27.1205C48.5598 26.749 48.8574 26.4377 49.2343 26.4377C49.6112 26.4377 49.9087 26.749 49.9087 27.1205Z" fill="#9D5C1E"/>
</g>
<g style="mix-blend-mode:multiply">
<path d="M33.6847 66.8054C33.6847 67.1468 33.4069 67.4179 33.0796 67.4179C32.7424 67.4179 32.4746 67.1468 32.4746 66.8054C32.4746 66.474 32.7424 66.1929 33.0796 66.1929C33.4069 66.1929 33.6847 66.474 33.6847 66.8054Z" fill="#9D5C1E"/>
</g>
<g style="mix-blend-mode:multiply">
<path d="M19.0317 43.0189C19.0317 43.1896 18.8928 43.3201 18.7242 43.3201C18.5556 43.3201 18.4266 43.1896 18.4266 43.0189C18.4266 42.8482 18.5556 42.7076 18.7242 42.7076C18.8928 42.7076 19.0317 42.8482 19.0317 43.0189Z" fill="#9D5C1E"/>
</g>
<g style="mix-blend-mode:multiply">
<path d="M42.3003 59.8585C42.3003 60.0292 42.1615 60.1597 41.9929 60.1597C41.8243 60.1597 41.6953 60.0292 41.6953 59.8585C41.6953 59.6878 41.8243 59.5472 41.9929 59.5472C42.1615 59.5472 42.3003 59.6878 42.3003 59.8585Z" fill="#9D5C1E"/>
</g>
<g style="mix-blend-mode:multiply">
<path d="M33.7533 32.3542C33.7533 32.5149 33.6244 32.6555 33.4558 32.6555C33.2872 32.6555 33.1483 32.5149 33.1483 32.3542C33.1483 32.1835 33.2872 32.043 33.4558 32.043C33.6244 32.043 33.7533 32.1835 33.7533 32.3542Z" fill="#9D5C1E"/>
</g>
<g style="mix-blend-mode:multiply">
<path d="M30.6188 37.907C30.6188 38.0777 30.48 38.2082 30.3213 38.2082C30.1526 38.2082 30.0138 38.0777 30.0138 37.907C30.0138 37.7363 30.1526 37.5957 30.3213 37.5957C30.48 37.5957 30.6188 37.7363 30.6188 37.907Z" fill="#9D5C1E"/>
</g>
<g style="mix-blend-mode:multiply">
<path d="M69.2977 42.8433C69.2977 43.014 69.1588 43.1445 69.0001 43.1445C68.8315 43.1445 68.6926 43.014 68.6926 42.8433C68.6926 42.6726 68.8315 42.532 69.0001 42.532C69.1588 42.532 69.2977 42.6726 69.2977 42.8433Z" fill="#9D5C1E"/>
</g>
<g style="mix-blend-mode:multiply">
<path d="M56.4634 17.0581C56.4634 17.2288 56.3246 17.3593 56.1659 17.3593C55.9973 17.3593 55.8584 17.2288 55.8584 17.0581C55.8584 16.8874 55.9973 16.7468 56.1659 16.7468C56.3246 16.7468 56.4634 16.8874 56.4634 17.0581Z" fill="#9D5C1E"/>
</g>
<g style="mix-blend-mode:multiply">
<path d="M60.7369 43.4958C60.7369 43.6665 60.598 43.7971 60.4393 43.7971C60.2707 43.7971 60.1318 43.6665 60.1318 43.4958C60.1318 43.3251 60.2707 43.1846 60.4393 43.1846C60.598 43.1846 60.7369 43.3251 60.7369 43.4958Z" fill="#9D5C1E"/>
</g>
<g style="mix-blend-mode:multiply">
<path d="M16.0018 28.701C16.0018 28.8717 15.8629 29.0123 15.7042 29.0123C15.5356 29.0123 15.3967 28.8717 15.3967 28.701C15.3967 28.5404 15.5356 28.3998 15.7042 28.3998C15.8629 28.3998 16.0018 28.5404 16.0018 28.701Z" fill="#9D5C1E"/>
</g>
<g style="mix-blend-mode:multiply">
<path d="M0.605027 83.0112C0.605027 83.1819 0.466168 83.3225 0.307473 83.3225C0.138859 83.3225 0 83.1819 0 83.0112C0 82.8505 0.138859 82.71 0.307473 82.71C0.466168 82.71 0.605027 82.8505 0.605027 83.0112Z" fill="#9D5C1E"/>
</g>
<g style="mix-blend-mode:multiply">
<path d="M48.3859 82.2762C48.2212 82.3126 48.0559 82.2052 48.0221 82.0482C47.9863 81.8814 48.0924 81.7141 48.2571 81.6778C48.4122 81.6436 48.5774 81.751 48.6133 81.9178C48.6471 82.0748 48.541 82.242 48.3859 82.2762Z" fill="#9D5C1E"/>
</g>
<g style="mix-blend-mode:multiply">
<path d="M68.982 31.8278C68.982 31.9985 68.8431 32.1391 68.6844 32.1391C68.5158 32.1391 68.377 31.9985 68.377 31.8278C68.377 31.6672 68.5158 31.5266 68.6844 31.5266C68.8431 31.5266 68.982 31.6672 68.982 31.8278Z" fill="#9D5C1E"/>
</g>
<g style="mix-blend-mode:multiply">
<path d="M71.7333 3.19479C71.5877 3.28042 71.3981 3.22943 71.3184 3.09057C71.2338 2.94303 71.284 2.75101 71.4296 2.66538C71.5666 2.5848 71.7562 2.63579 71.8409 2.78332C71.9206 2.92219 71.8704 3.1142 71.7333 3.19479Z" fill="#9D5C1E"/>
</g>
<g style="mix-blend-mode:multiply">
<path d="M41.8472 7.85214C41.8472 8.02284 41.7084 8.16341 41.5497 8.16341C41.381 8.16341 41.2422 8.02284 41.2422 7.85214C41.2422 7.69148 41.381 7.5509 41.5497 7.5509C41.7084 7.5509 41.8472 7.69148 41.8472 7.85214Z" fill="#9D5C1E"/>
</g>
<g style="mix-blend-mode:multiply">
<path d="M46.1187 34.2899C46.1187 34.4606 45.9798 34.6012 45.8211 34.6012C45.6525 34.6012 45.5137 34.4606 45.5137 34.2899C45.5137 34.1292 45.6525 33.9886 45.8211 33.9886C45.9798 33.9886 46.1187 34.1292 46.1187 34.2899Z" fill="#9D5C1E"/>
</g>
<path d="M131.898 31.3861C131.898 31.7576 131.59 32.0689 131.223 32.0689C130.847 32.0689 130.539 31.7576 130.539 31.3861C130.539 31.0045 130.847 30.6932 131.223 30.6932C131.59 30.6932 131.898 31.0045 131.898 31.3861Z" fill="#D5AD47"/>
<path d="M22.8505 43.1494C22.8505 43.3302 22.7017 43.4908 22.5133 43.4908C22.3248 43.4908 22.176 43.3302 22.176 43.1494C22.176 42.9586 22.3248 42.798 22.5133 42.798C22.7017 42.798 22.8505 42.9586 22.8505 43.1494Z" fill="#D5AD47"/>
<path d="M46.1188 59.9891C46.1188 60.1699 45.97 60.3305 45.7816 60.3305C45.5931 60.3305 45.4443 60.1699 45.4443 59.9891C45.4443 59.7984 45.5931 59.6377 45.7816 59.6377C45.97 59.6377 46.1188 59.7984 46.1188 59.9891Z" fill="#D5AD47"/>
<path d="M34.358 41.3106C34.358 41.5014 34.2093 41.652 34.0208 41.652C33.8324 41.652 33.6836 41.5014 33.6836 41.3106C33.6836 41.1199 33.8324 40.9692 34.0208 40.9692C34.2093 40.9692 34.358 41.1199 34.358 41.3106Z" fill="#D5AD47"/>
<path d="M23.1921 74.0567C23.1921 74.2475 23.0334 74.3981 22.8449 74.3981C22.6565 74.3981 22.5077 74.2475 22.5077 74.0567C22.5077 73.8659 22.6565 73.7153 22.8449 73.7153C23.0334 73.7153 23.1921 73.8659 23.1921 74.0567Z" fill="#D5AD47"/>
<path d="M26.3471 26.8836C26.3471 27.2652 26.0396 27.5664 25.6627 27.5664C25.2958 27.5664 24.9883 27.2652 24.9883 26.8836C24.9883 26.502 25.2958 26.2008 25.6627 26.2008C26.0396 26.2008 26.3471 26.502 26.3471 26.8836Z" fill="#D5AD47"/>
<path d="M79.5552 34.0571C79.5552 34.4386 79.2478 34.7399 78.8709 34.7399C78.5039 34.7399 78.1964 34.4386 78.1964 34.0571C78.1964 33.6755 78.5039 33.3743 78.8709 33.3743C79.2478 33.3743 79.5552 33.6755 79.5552 34.0571Z" fill="#D5AD47"/>
<path d="M78.4802 11.3379C78.1543 11.5295 77.7425 11.4117 77.5532 11.0817C77.3689 10.7605 77.4717 10.34 77.7977 10.1484C78.1236 9.95672 78.5353 10.0746 78.7196 10.3958C78.9089 10.7258 78.8061 11.1462 78.4802 11.3379Z" fill="#D5AD47"/>
<path d="M52.1918 6.03485C52.1918 6.41641 51.8844 6.71764 51.5075 6.71764C51.1405 6.71764 50.833 6.41641 50.833 6.03485C50.833 5.65328 51.1405 5.35205 51.5075 5.35205C51.8844 5.35205 52.1918 5.65328 52.1918 6.03485Z" fill="#D5AD47"/>
<path d="M56.4644 32.4725C56.4644 32.854 56.1569 33.1553 55.78 33.1553C55.4131 33.1553 55.1056 32.854 55.1056 32.4725C55.1056 32.0909 55.4131 31.7897 55.78 31.7897C56.1569 31.7897 56.4644 32.0909 56.4644 32.4725Z" fill="#D5AD47"/>
<path d="M132.434 38.4349C132.434 38.8064 132.126 39.1177 131.749 39.1177C131.373 39.1177 131.075 38.8064 131.075 38.4349C131.075 38.0533 131.373 37.7421 131.749 37.7421C132.126 37.7421 132.434 38.0533 132.434 38.4349Z" fill="white"/>
<path d="M129.805 62.4231C129.805 62.8046 129.498 63.1059 129.121 63.1059C128.754 63.1059 128.446 62.8046 128.446 62.4231C128.446 62.0415 128.754 61.7302 129.121 61.7302C129.498 61.7302 129.805 62.0415 129.805 62.4231Z" fill="white"/>
<path d="M28.4985 69.9301C28.4985 70.3117 28.191 70.6229 27.824 70.6229C27.4471 70.6229 27.1396 70.3117 27.1396 69.9301C27.1396 69.5485 27.4471 69.2473 27.824 69.2473C28.191 69.2473 28.4985 69.5485 28.4985 69.9301Z" fill="white"/>
<g style="mix-blend-mode:multiply">
<path d="M119.329 73.917C119.329 74.5265 118.848 75.0236 118.239 75.0236C117.63 75.0236 117.148 74.5265 117.148 73.917C117.148 73.3237 117.63 72.8265 118.239 72.8265C118.848 72.8265 119.329 73.3237 119.329 73.917Z" fill="#9D5C1E"/>
</g>
<g style="mix-blend-mode:multiply">
<path d="M81.9955 71.3862C81.9955 71.9956 81.5144 72.4927 80.905 72.4927C80.2956 72.4927 79.8145 71.9956 79.8145 71.3862C79.8145 70.7928 80.2956 70.2957 80.905 70.2957C81.5144 70.2957 81.9955 70.7928 81.9955 71.3862Z" fill="#9D5C1E"/>
</g>
<g style="mix-blend-mode:multiply">
<path d="M55.8738 79.7449C55.8738 80.0015 55.6653 80.2261 55.3927 80.2261C55.12 80.2261 54.8955 80.0015 54.8955 79.7449C54.8955 79.4723 55.12 79.2478 55.3927 79.2478C55.6653 79.2478 55.8738 79.4723 55.8738 79.7449Z" fill="#9D5C1E"/>
</g>
<g style="mix-blend-mode:multiply">
<path d="M112.834 78.9043C112.834 79.177 112.609 79.4015 112.353 79.4015C112.08 79.4015 111.855 79.177 111.855 78.9043C111.855 78.6477 112.08 78.4232 112.353 78.4232C112.609 78.4232 112.834 78.6477 112.834 78.9043Z" fill="#9D5C1E"/>
</g>
<g style="mix-blend-mode:multiply">
<path d="M75.8689 82.8365C75.8689 83.1091 75.6444 83.3336 75.3878 83.3336C75.1151 83.3336 74.8906 83.1091 74.8906 82.8365C74.8906 82.5799 75.1151 82.3553 75.3878 82.3553C75.6444 82.3553 75.8689 82.5799 75.8689 82.8365Z" fill="#9D5C1E"/>
</g>
<path d="M129.929 82.4647C129.929 83.0741 129.432 83.5552 128.823 83.5552C128.23 83.5552 127.732 83.0741 127.732 82.4647C127.732 81.8553 128.23 81.3741 128.823 81.3741C129.432 81.3741 129.929 81.8553 129.929 82.4647Z" fill="#D5AD47"/>
<path d="M92.5945 79.9338C92.5945 80.5432 92.0974 81.0243 91.488 81.0243C90.8946 81.0243 90.3975 80.5432 90.3975 79.9338C90.3975 79.3244 90.8946 78.8433 91.488 78.8433C92.0974 78.8433 92.5945 79.3244 92.5945 79.9338Z" fill="#D5AD47"/>
<g style="mix-blend-mode:multiply">
<path d="M106.589 13.1517C107.183 13.29 107.558 13.8714 107.419 14.4649C107.281 15.0584 106.688 15.4141 106.094 15.2758C105.516 15.1412 105.141 14.5598 105.28 13.9663C105.418 13.3728 106.011 13.0171 106.589 13.1517Z" fill="#9D5C1E"/>
</g>
<g style="mix-blend-mode:multiply">
<path d="M95.6508 48.9369C96.2443 49.0752 96.6193 49.6566 96.481 50.2501C96.3427 50.8436 95.7493 51.1993 95.1558 51.061C94.5779 50.9263 94.2029 50.3449 94.3413 49.7514C94.4796 49.1579 95.0729 48.8022 95.6508 48.9369Z" fill="#9D5C1E"/>
</g>
<g style="mix-blend-mode:multiply">
<path d="M97.8625 76.2741C98.1123 76.3324 98.2837 76.5864 98.2218 76.8519C98.1599 77.1174 97.8903 77.2851 97.6404 77.2268C97.3749 77.165 97.2072 76.8954 97.2691 76.6298C97.331 76.3643 97.5969 76.2122 97.8625 76.2741Z" fill="#9D5C1E"/>
</g>
<g style="mix-blend-mode:multiply">
<path d="M105.35 83.2221C105.615 83.284 105.767 83.55 105.709 83.7999C105.647 84.0654 105.393 84.2367 105.128 84.1748C104.862 84.113 104.695 83.8434 104.756 83.5778C104.815 83.328 105.084 83.1603 105.35 83.2221Z" fill="#9D5C1E"/>
</g>
<g style="mix-blend-mode:multiply">
<path d="M127.222 24.1054C127.487 24.1673 127.639 24.4333 127.581 24.6832C127.519 24.9487 127.265 25.12 127 25.0581C126.734 24.9963 126.567 24.7267 126.628 24.4611C126.687 24.2113 126.956 24.0436 127.222 24.1054Z" fill="#9D5C1E"/>
</g>
<g style="mix-blend-mode:multiply">
<path d="M125.096 37.8216C125.361 37.8835 125.513 38.1495 125.455 38.3994C125.393 38.6649 125.139 38.8362 124.874 38.7743C124.608 38.7125 124.441 38.4428 124.502 38.1773C124.561 37.9274 124.83 37.7597 125.096 37.8216Z" fill="#9D5C1E"/>
</g>
<g style="mix-blend-mode:multiply">
<path d="M109.972 20.6098C110.237 20.6717 110.405 20.9413 110.347 21.1912C110.285 21.4567 110.015 21.6244 109.75 21.5626C109.5 21.5043 109.332 21.2347 109.394 20.9692C109.452 20.7193 109.722 20.5516 109.972 20.6098Z" fill="#9D5C1E"/>
</g>
<g style="mix-blend-mode:multiply">
<path d="M105.412 57.5024C105.678 57.5643 105.845 57.8339 105.787 58.0838C105.725 58.3493 105.456 58.517 105.19 58.4551C104.94 58.3969 104.773 58.1273 104.835 57.8618C104.893 57.6119 105.162 57.4442 105.412 57.5024Z" fill="#9D5C1E"/>
</g>
<path d="M112.016 78.5678C112.313 78.637 112.492 78.9258 112.423 79.2226C112.354 79.5193 112.065 79.699 111.768 79.6299C111.472 79.5607 111.292 79.2718 111.361 78.9751C111.43 78.6783 111.719 78.4987 112.016 78.5678Z" fill="#D5AD47"/>
<path d="M117.319 4.76831C117.913 4.90662 118.269 5.49999 118.13 6.09349C117.996 6.67137 117.414 7.04634 116.821 6.90803C116.227 6.76972 115.872 6.17635 116.006 5.59847C116.145 5.00497 116.726 4.63 117.319 4.76831Z" fill="#D5AD47"/>
<path d="M106.381 40.5546C106.975 40.6929 107.33 41.2862 107.192 41.8797C107.057 42.4576 106.476 42.8326 105.882 42.6943C105.289 42.556 104.933 41.9626 105.068 41.3847C105.206 40.7912 105.788 40.4163 106.381 40.5546Z" fill="#D5AD47"/>
<path d="M22.8862 69.0531C21.099 65.3677 37.6621 49.5945 37.1196 48.5198C36.7834 47.8247 36.724 47.5913 36.4979 46.5642C36.855 48.1982 20.321 62.2336 21.2743 65.2516C21.7125 66.6409 22.0605 67.3593 22.8862 69.0531Z" fill="url(#paint5_linear_1601_3033)"/>
<path d="M30.9265 86.4894C30.9422 82.6136 43.097 79.2144 42.4845 76.3507C42.0921 74.531 41.7731 73.6091 40.9888 71.7939C42.2389 74.6772 29.6571 78.0692 30.4838 81.9943C30.882 83.7965 30.9378 84.6884 30.9265 86.4894Z" fill="url(#paint6_linear_1601_3033)"/>
<path d="M28.5501 108.534C27.6055 104.607 43.6664 93.3468 43.1528 90.4762C42.8128 88.6733 42.7804 87.7694 42.7682 85.9792C42.7664 88.8131 27.0511 100.092 27.6444 104.018C27.9083 105.815 28.1164 106.72 28.5501 108.534Z" fill="url(#paint7_linear_1601_3033)"/>
<path d="M21.3004 65.4072C26.1933 69.2421 36.2677 69.483 41.2037 72.3096C41.9622 74.1261 42.251 75.0137 42.5838 76.823C38.3155 73.2161 27.7562 72.6781 22.952 69.2202C22.1182 67.5136 21.76 66.7764 21.3004 65.4072Z" fill="url(#paint8_linear_1601_3033)"/>
<path d="M30.4003 81.618C31.324 85.524 42.7671 83.3017 42.7828 86.1303C42.7891 87.9309 42.8448 88.8197 43.1835 90.6155C42.6486 87.7678 30.937 89.9776 30.9177 86.1035C30.9231 84.3263 30.8149 83.4199 30.4003 81.618Z" fill="url(#paint9_linear_1601_3033)"/>
</g>
<defs>
<linearGradient id="paint0_linear_1601_3033" x1="90.2592" y1="-10.2769" x2="109.526" y2="-14.5686" gradientUnits="userSpaceOnUse">
<stop stop-color="#5C2B01"/>
<stop offset="0.223" stop-color="#B78029"/>
<stop offset="0.432" stop-color="#FDF5B3"/>
<stop offset="0.61" stop-color="#CB9331"/>
<stop offset="0.845" stop-color="#78440D"/>
<stop offset="1" stop-color="#FFC447"/>
</linearGradient>
<linearGradient id="paint1_linear_1601_3033" x1="100.841" y1="14.6749" x2="114.426" y2="11.6321" gradientUnits="userSpaceOnUse">
<stop stop-color="#5C2B01"/>
<stop offset="0.223" stop-color="#B78029"/>
<stop offset="0.432" stop-color="#FDF5B3"/>
<stop offset="0.61" stop-color="#CB9331"/>
<stop offset="0.845" stop-color="#78440D"/>
<stop offset="1" stop-color="#FFC447"/>
</linearGradient>
<linearGradient id="paint2_linear_1601_3033" x1="96.8319" y1="30.7241" x2="115.796" y2="26.4937" gradientUnits="userSpaceOnUse">
<stop stop-color="#5C2B01"/>
<stop offset="0.223" stop-color="#B78029"/>
<stop offset="0.432" stop-color="#D7C856"/>
<stop offset="0.61" stop-color="#CB9331"/>
<stop offset="0.845" stop-color="#78440D"/>
<stop offset="1" stop-color="#FFC447"/>
</linearGradient>
<linearGradient id="paint3_linear_1601_3033" x1="71.6688" y1="7.04633" x2="135.267" y2="6.12204" gradientUnits="userSpaceOnUse">
<stop stop-color="#5C2B01"/>
<stop offset="0.223" stop-color="#B78029"/>
<stop offset="0.432" stop-color="#FDF5B3"/>
<stop offset="0.61" stop-color="#CB9331"/>
<stop offset="0.845" stop-color="#78440D"/>
<stop offset="1" stop-color="#FFC447"/>
</linearGradient>
<linearGradient id="paint4_linear_1601_3033" x1="72.5086" y1="22.6559" x2="135.758" y2="21.7283" gradientUnits="userSpaceOnUse">
<stop stop-color="#5C2B01"/>
<stop offset="0.223" stop-color="#B78029"/>
<stop offset="0.432" stop-color="#FDF5B3"/>
<stop offset="0.61" stop-color="#CB9331"/>
<stop offset="0.845" stop-color="#78440D"/>
<stop offset="1" stop-color="#FFC447"/>
</linearGradient>
<linearGradient id="paint5_linear_1601_3033" x1="17.9615" y1="50.6096" x2="36.652" y2="46.3831" gradientUnits="userSpaceOnUse">
<stop stop-color="#5C2B01"/>
<stop offset="0.223" stop-color="#B78029"/>
<stop offset="0.432" stop-color="#FDF5B3"/>
<stop offset="0.61" stop-color="#CB9331"/>
<stop offset="0.845" stop-color="#78440D"/>
<stop offset="1" stop-color="#FFC447"/>
</linearGradient>
<linearGradient id="paint6_linear_1601_3033" x1="28.2352" y1="74.585" x2="41.4101" y2="71.59" gradientUnits="userSpaceOnUse">
<stop stop-color="#5C2B01"/>
<stop offset="0.223" stop-color="#B78029"/>
<stop offset="0.432" stop-color="#FDF5B3"/>
<stop offset="0.61" stop-color="#CB9331"/>
<stop offset="0.845" stop-color="#78440D"/>
<stop offset="1" stop-color="#FFC447"/>
</linearGradient>
<linearGradient id="paint7_linear_1601_3033" x1="24.3402" y1="90.0013" x2="42.7357" y2="85.8356" gradientUnits="userSpaceOnUse">
<stop stop-color="#5C2B01"/>
<stop offset="0.223" stop-color="#B78029"/>
<stop offset="0.432" stop-color="#D7C856"/>
<stop offset="0.61" stop-color="#CB9331"/>
<stop offset="0.845" stop-color="#78440D"/>
<stop offset="1" stop-color="#FFC447"/>
</linearGradient>
<linearGradient id="paint8_linear_1601_3033" x1="-0.0644088" y1="67.2397" x2="61.6567" y2="66.2769" gradientUnits="userSpaceOnUse">
<stop stop-color="#5C2B01"/>
<stop offset="0.223" stop-color="#B78029"/>
<stop offset="0.432" stop-color="#FDF5B3"/>
<stop offset="0.61" stop-color="#CB9331"/>
<stop offset="0.845" stop-color="#78440D"/>
<stop offset="1" stop-color="#FFC447"/>
</linearGradient>
<linearGradient id="paint9_linear_1601_3033" x1="0.74552" y1="82.2306" x2="62.1392" y2="81.266" gradientUnits="userSpaceOnUse">
<stop stop-color="#5C2B01"/>
<stop offset="0.223" stop-color="#B78029"/>
<stop offset="0.432" stop-color="#FDF5B3"/>
<stop offset="0.61" stop-color="#CB9331"/>
<stop offset="0.845" stop-color="#78440D"/>
<stop offset="1" stop-color="#FFC447"/>
</linearGradient>
<clipPath id="clip0_1601_3033">
<rect width="132" height="85" fill="white"/>
</clipPath>
</defs>
</svg>
