<svg width="27" height="21" viewBox="0 0 27 21" fill="none" xmlns="http://www.w3.org/2000/svg">
<circle cx="10" cy="10.1851" r="10" fill="#FFB81C"/>
<path d="M23.875 4.75H21.0625V4.125C21.0625 3.54484 20.832 2.98844 20.4218 2.5782C20.0116 2.16797 19.4552 1.9375 18.875 1.9375H15.125C14.5448 1.9375 13.9884 2.16797 13.5782 2.5782C13.168 2.98844 12.9375 3.54484 12.9375 4.125V4.75H10.125C9.7106 4.75 9.31317 4.91462 9.02015 5.20765C8.72712 5.50067 8.5625 5.8981 8.5625 6.3125V16.3125C8.5625 16.7269 8.72712 17.1243 9.02015 17.4174C9.31317 17.7104 9.7106 17.875 10.125 17.875H23.875C24.2894 17.875 24.6868 17.7104 24.9799 17.4174C25.2729 17.1243 25.4375 16.7269 25.4375 16.3125V6.3125C25.4375 5.8981 25.2729 5.50067 24.9799 5.20765C24.6868 4.91462 24.2894 4.75 23.875 4.75ZM14.8125 4.125C14.8125 4.04212 14.8454 3.96263 14.904 3.90403C14.9626 3.84542 15.0421 3.8125 15.125 3.8125H18.875C18.9579 3.8125 19.0374 3.84542 19.096 3.90403C19.1546 3.96263 19.1875 4.04212 19.1875 4.125V4.75H14.8125V4.125ZM23.5625 6.625V11.625H10.4375V6.625H23.5625ZM10.4375 16V13.5H23.5625V16H10.4375Z" fill="#002C3F"/>
</svg>
