<svg width="18" height="18" viewBox="0 0 18 18" fill="none" xmlns="http://www.w3.org/2000/svg">
<path id="Vector" d="M9.20197 0.57666C7.53319 0.57666 5.90189 1.07151 4.51435 1.99864C3.12681 2.92576 2.04535 4.24352 1.40674 5.78527C0.768121 7.32702 0.601031 9.02352 0.926593 10.6602C1.25216 12.2969 2.05575 13.8004 3.23576 14.9804C4.41576 16.1604 5.91918 16.964 7.55589 17.2895C9.19261 17.6151 10.8891 17.448 12.4309 16.8094C13.9726 16.1708 15.2904 15.0893 16.2175 13.7018C17.1446 12.3142 17.6395 10.6829 17.6395 9.01416C17.637 6.77716 16.7472 4.63249 15.1654 3.05069C13.5836 1.46889 11.439 0.579142 9.20197 0.57666ZM15.7645 9.01416C15.7658 10.4308 15.3065 11.8095 14.4559 12.9423L5.27384 3.76025C6.24913 3.03151 7.4079 2.58843 8.62059 2.48057C9.83328 2.37272 11.0521 2.60433 12.1407 3.14952C13.2292 3.6947 14.1447 4.53196 14.7847 5.56767C15.4246 6.60337 15.7639 7.79668 15.7645 9.01416ZM2.63947 9.01416C2.63811 7.59752 3.0974 6.21884 3.94806 5.08604L13.1301 14.2681C12.1548 14.9968 10.996 15.4399 9.78334 15.5477C8.57066 15.6556 7.35187 15.424 6.26328 14.8788C5.1747 14.3336 4.25923 13.4964 3.61926 12.4607C2.97929 11.425 2.64005 10.2316 2.63947 9.01416Z" fill="#8B4603"/>
</svg>
