<svg width="21" height="26" viewBox="0 0 21 26" fill="none" xmlns="http://www.w3.org/2000/svg">
<g clip-path="url(#clip0_797_4672)">
<path d="M12.3687 23.7542C12.1565 24.1636 11.8642 24.4828 11.5303 24.7002C11.2328 24.8961 10.9006 25.0077 10.5684 25.0312C10.2309 25.0547 9.88998 24.9822 9.57862 24.8138C9.36641 24.6963 9.16811 24.5337 8.99243 24.3222L12.3687 23.7542ZM12.8366 19.7373L12.727 20.3151L12.6992 20.7264L8.29318 21.4647C8.27752 21.169 8.23578 20.8497 8.16968 20.5188L12.8366 19.7373ZM12.6905 21.6273L12.6939 21.876L12.6992 21.9622C12.7113 22.1248 12.7131 22.2893 12.7044 22.4518L12.6383 22.8102L8.54713 23.4957L8.47582 23.3116L8.31579 22.5752L8.31231 22.3617L12.6905 21.6273Z" fill="#5C546A"/>
<path d="M10.288 1.71985C10.2933 1.50637 10.3733 1.31639 10.5002 1.18125C10.6237 1.04807 10.7942 0.967773 10.9786 0.969732V0.967773C10.9942 0.967773 11.0099 0.969732 11.0256 0.97169C11.1978 0.987359 11.3526 1.07549 11.4639 1.20671C11.5822 1.34577 11.6535 1.53575 11.6518 1.74531H11.6535C11.6535 1.75902 11.6535 1.77273 11.6518 1.78448L11.6152 3.42377H11.617C11.617 3.44139 11.6152 3.45902 11.6135 3.47665C11.5996 3.6725 11.5213 3.84485 11.4048 3.9702C11.2795 4.10338 11.1108 4.18368 10.9264 4.18172V4.18368C10.9108 4.18368 10.8951 4.18172 10.8794 4.17976C10.7055 4.16409 10.5524 4.07596 10.4411 3.94474C10.3228 3.80372 10.2515 3.61374 10.2532 3.40614H10.2515C10.2515 3.39243 10.2515 3.37872 10.2532 3.36697L10.288 1.71985ZM2.89545 4.59105C2.75803 4.44612 2.68498 4.25222 2.67802 4.05637C2.67106 3.86052 2.73194 3.66075 2.85892 3.50603C2.98764 3.3513 3.15984 3.26904 3.33379 3.26121C3.50773 3.25338 3.68515 3.32192 3.82257 3.4649L4.91493 4.61064C5.05235 4.75557 5.1254 4.94946 5.13236 5.14531C5.13932 5.34312 5.07844 5.54094 4.95146 5.69566C4.82274 5.85038 4.65054 5.93264 4.47659 5.94048C4.30091 5.94831 4.12523 5.87976 3.98781 5.73679L2.89545 4.59105ZM1.10905 13.0441C0.924671 13.048 0.755946 12.9677 0.630707 12.8365C0.503728 12.7013 0.421975 12.5133 0.415017 12.2998C0.40806 12.0883 0.479376 11.8924 0.599397 11.7495C0.719418 11.6065 0.886404 11.5144 1.076 11.5086L2.5667 11.4518C2.75455 11.4439 2.9285 11.5242 3.05548 11.6594C3.18245 11.7945 3.26421 11.9825 3.26943 12.196V12.2078H3.27117L3.26943 12.2352C3.26595 12.433 3.19637 12.6112 3.08505 12.7464C2.96503 12.8893 2.79804 12.9794 2.60844 12.9873H2.59801V12.9892H2.58235L1.10905 13.0441ZM19.6688 10.6644L19.6914 10.6625C19.8688 10.6507 20.0341 10.7154 20.1628 10.8329C20.2985 10.9563 20.3907 11.1404 20.4115 11.3499V11.3578C20.4133 11.3578 20.4133 11.3793 20.4133 11.3832C20.4237 11.583 20.3663 11.7691 20.2619 11.914C20.1524 12.0668 19.9889 12.1706 19.8027 12.1941L18.319 12.3703C18.1311 12.3919 17.9537 12.3253 17.8198 12.2019C17.6841 12.0785 17.5902 11.8944 17.571 11.6848C17.5519 11.4753 17.611 11.2735 17.7206 11.1227C17.8302 10.97 17.9937 10.8642 18.1798 10.8427C18.6756 10.782 19.1731 10.7173 19.6688 10.6644ZM16.7309 3.97999C16.837 3.80372 16.9936 3.69404 17.164 3.65487C17.3345 3.61766 17.5171 3.65292 17.6754 3.77043L17.6771 3.77239C17.8337 3.8899 17.9328 4.06812 17.9659 4.26006C17.9989 4.45199 17.9676 4.65764 17.8633 4.83587L17.0336 6.2323C16.9292 6.40856 16.7709 6.5202 16.5987 6.55937C16.4282 6.59658 16.2456 6.56133 16.0873 6.44382C15.9308 6.32631 15.8316 6.14612 15.7968 5.95419C15.7638 5.76225 15.7951 5.5566 15.8994 5.37838L16.7309 3.97999Z" fill="#002C3F"/>
<path d="M6.74156 17.118C6.24061 16.4737 5.72225 15.8039 5.31175 14.8187C4.90994 13.8473 4.68729 12.8445 4.69425 11.8026C4.70295 10.7607 4.93777 9.68738 5.44916 8.57885C5.45264 8.57102 5.45612 8.56514 5.4596 8.55731C6.12928 7.28035 7.06684 6.42643 8.1105 5.94855C8.98543 5.54509 9.9369 5.40799 10.8692 5.50396C11.7981 5.59993 12.7078 5.92896 13.5027 6.45777C14.5133 7.1315 15.3448 8.13035 15.8023 9.39164C16.0493 10.0752 16.2163 10.837 16.2371 11.6714C16.258 12.5037 16.131 13.4007 15.7901 14.3487C15.2683 15.8039 14.0489 17.3628 13.2505 18.7945C13.207 18.7847 13.1618 18.7828 13.1166 18.7906C11.3963 19.0785 9.67599 19.3664 7.95569 19.6543C7.67216 18.7044 7.2373 17.7565 6.74156 17.118ZM12.3251 8.20869C12.2451 8.14602 12.1529 8.11664 12.059 8.13818C11.9651 8.15973 11.8868 8.21456 11.8311 8.30466L11.5163 8.80604C11.4032 8.74924 11.2884 8.70811 11.1632 8.67286C11.038 8.63761 10.9232 8.61019 10.7979 8.58864L10.6988 7.9345C10.6796 7.82286 10.6309 7.7406 10.5579 7.67793C10.4761 7.61526 10.3909 7.59371 10.2917 7.61526L9.56292 7.76214C9.46899 7.78369 9.39594 7.83265 9.33506 7.92274C9.27939 8.01479 9.25504 8.11076 9.27244 8.2224L9.36637 8.82171C9.24809 8.87851 9.1385 8.94118 9.0324 9.0156C8.92629 9.08611 8.82192 9.17033 8.72973 9.25258L8.23573 8.86871C8.15398 8.80604 8.06875 8.77666 7.97656 8.79821C7.88263 8.81975 7.80436 8.87459 7.74869 8.96664L7.32775 9.64233C7.27209 9.73242 7.24774 9.83623 7.26513 9.94199C7.28427 10.0536 7.33297 10.1359 7.41472 10.1986L7.85828 10.553C7.80783 10.6784 7.77131 10.8096 7.74 10.9506C7.70869 11.0916 7.68433 11.2209 7.6652 11.3619L7.08423 11.4736C6.98508 11.4951 6.91203 11.5499 6.85636 11.6322C6.8007 11.7242 6.78157 11.8202 6.8007 11.9319L6.93116 12.7525C6.95029 12.8582 6.99378 12.9405 7.07205 13.009C7.15381 13.0717 7.23904 13.1011 7.33819 13.0795L7.87045 12.9738C7.9209 13.107 7.97656 13.2304 8.04266 13.3498C8.10528 13.4693 8.18007 13.5868 8.25313 13.6984L7.9122 14.2468C7.85654 14.3369 7.83219 14.4348 7.84958 14.5387C7.86872 14.6444 7.91742 14.7325 7.99743 14.7952L8.6045 15.2751C8.68625 15.3377 8.7767 15.3593 8.87063 15.3377C8.96456 15.3162 9.04283 15.2672 9.10545 15.1791L9.42203 14.6718C9.53509 14.7286 9.64989 14.7698 9.77513 14.805C9.90037 14.8403 10.0152 14.8677 10.1404 14.8892L10.2396 15.5434C10.2587 15.655 10.3074 15.7373 10.3805 15.7999C10.4622 15.8626 10.5474 15.8842 10.6466 15.8626L11.3754 15.7157C11.4693 15.6942 11.5424 15.6452 11.6033 15.5571C11.6589 15.467 11.685 15.3691 11.6659 15.2574L11.572 14.6581C11.6902 14.6013 11.7998 14.5387 11.9059 14.4642C12.012 14.3937 12.1164 14.3115 12.2156 14.2272L12.7043 14.6111C12.7844 14.6738 12.8713 14.7012 12.9705 14.6816C13.0696 14.6601 13.1427 14.6052 13.1983 14.5151L13.6245 13.8316C13.6802 13.7415 13.6993 13.6377 13.6802 13.532C13.661 13.4262 13.6175 13.3381 13.5375 13.2676L13.087 12.9189C13.1375 12.7936 13.174 12.6624 13.2053 12.5214C13.2366 12.3804 13.261 12.2491 13.2801 12.1101L13.8611 11.9984C13.9602 11.9769 14.0333 11.9221 14.0889 11.8378C14.1394 11.7517 14.1568 11.6557 14.1394 11.5441L14.0089 10.7234C13.9898 10.6177 13.9463 10.5354 13.868 10.4669C13.7863 10.4042 13.701 10.3748 13.6019 10.3964L13.0696 10.5021C13.0192 10.3748 12.9635 10.2514 12.8974 10.1261C12.8348 9.99878 12.76 9.88911 12.6869 9.7853L13.0279 9.22908C13.0835 9.13899 13.1079 9.04106 13.0905 8.93726C13.0714 8.8315 13.0227 8.74337 12.9426 8.68069L12.3425 8.20673L12.3251 8.20869ZM10.203 10.1457C10.3944 10.1104 10.5874 10.1104 10.7788 10.1594C10.9632 10.2083 11.1319 10.2926 11.285 10.4101C11.4328 10.5295 11.5633 10.6804 11.6694 10.8645C11.7755 11.0446 11.8416 11.2483 11.8729 11.4638C11.9042 11.6792 11.9042 11.8966 11.8607 12.112C11.8172 12.3196 11.7424 12.5096 11.6381 12.682C11.532 12.8484 11.398 12.9953 11.2345 13.1148C11.0745 13.2343 10.8936 13.3087 10.7023 13.3439C10.5109 13.3792 10.3178 13.3792 10.1265 13.3302C9.94212 13.2813 9.77339 13.1971 9.62032 13.0795C9.47247 12.9601 9.34201 12.8093 9.23591 12.6271C9.1298 12.4469 9.06371 12.2433 9.0324 12.0278C9.00109 11.8124 9.00109 11.595 9.04457 11.3795C9.08806 11.1719 9.16285 10.982 9.26722 10.8096C9.37332 10.6431 9.509 10.4963 9.67077 10.3768C9.83427 10.2573 10.0117 10.179 10.203 10.1457Z" fill="#FFB81C"/>
</g>
<defs>
<clipPath id="clip0_797_4672">
<rect width="20" height="24.0664" fill="white" transform="translate(0.415039 0.966797)"/>
</clipPath>
</defs>
</svg>
